<svg width="84" height="79" viewBox="0 0 84 79" fill="none" xmlns="http://www.w3.org/2000/svg">
<g clip-path="url(#clip0)">
<path d="M83.9952 41.8625C83.996 39.3708 83.4555 36.9086 82.4111 34.6463C81.3668 32.384 79.8436 30.3755 77.9468 28.7598C76.0079 27.0392 74.4792 26.2583 70.9653 24.69C67.4514 23.1216 65.0095 22.2614 62.7133 20.4349C60.417 18.6085 55.9436 16.1931 53.5877 15.1409C53.184 14.9358 52.7804 14.7372 52.3701 14.5453C47.9165 12.3086 40.6835 10.8329 37.6328 10.2903C34.5821 9.74762 33.8079 8.71528 32.7954 7.81529C31.1445 6.30298 29.4173 4.87615 27.6206 3.54038C24.7986 1.60402 21.5357 0.407161 18.131 0.0595654C17.6678 0.0198603 17.1979 3.40864e-09 16.7215 3.40864e-09C12.324 -8.89163e-05 8.10504 1.73954 4.98564 4.8391C1.86625 7.93865 0.0997423 12.1464 0.0717773 16.5438V16.6563C0.0743494 17.4266 0.127417 18.1959 0.230612 18.9592C0.508548 21.7253 1.11074 24.3393 1.98425 26.0003C3.78422 29.8252 4.69081 31.5127 4.57831 33.4251C4.46581 35.3376 3.22172 44.4565 5.24006 53.013C5.25286 53.0832 5.27281 53.152 5.29962 53.2181C7.37402 61.6717 12.6253 69.0012 19.9627 73.6841C27.3 78.367 36.1594 80.0433 44.7004 78.3647C47.137 78.004 49.5183 77.337 51.7877 76.3795C57.124 74.1875 61.8804 70.7901 65.6845 66.4532C70.1249 61.3709 70.3168 61.1592 71.5079 60.1401C72.6991 59.121 78.0791 55.3225 80.1107 52.7483C82.6279 49.6794 84.001 45.8316 83.9952 41.8625Z" fill="#A7C957"/>
<path opacity="0.1" d="M83.8908 39.8309C83.0769 38.3486 79.51 45.7073 74.6263 47.4013C73.0116 47.9638 72.8462 37.5611 71.8734 38.5272C70.4046 39.9975 69.3382 41.8204 68.7764 43.8213C65.5669 56.2887 53.4701 72.5678 36.4432 71.3038C19.4163 70.0399 9.70836 53.827 7.61723 47.5536C5.52609 41.2801 5.0761 31.7178 5.96947 27.701C6.86283 23.6841 10.4495 17.3975 17.9935 13.4336C17.9935 13.4336 16.5774 11.4483 13.1429 13.8108C9.70837 16.1732 5.75109 21.7518 2.61438 21.0901C2.01506 20.9692 1.46504 20.6734 1.03391 20.2399C0.602783 19.8064 0.309933 19.2548 0.192383 18.6548C0.192383 18.7276 0.192383 18.807 0.192383 18.8864C0.470319 21.6526 1.07251 24.2665 1.94602 25.9275C3.74599 29.7524 4.65258 31.4399 4.54008 33.3523C4.42758 35.2648 3.18349 44.3837 5.20183 52.9402C5.21463 53.0104 5.23458 53.0792 5.26139 53.1453C7.33579 61.5989 12.5871 68.9284 19.9245 73.6113C27.2618 78.2942 36.1212 79.9705 44.6622 78.2919C47.0988 77.9313 49.4801 77.2642 51.7495 76.3067C57.0825 74.1243 61.8386 70.7384 65.6463 66.4135C70.0867 61.3312 70.2786 61.1195 71.4697 60.1004C72.6609 59.0813 78.0409 55.2828 80.0725 52.7086C82.5949 49.6371 83.9705 45.784 83.9636 41.8095C83.9785 41.1491 83.9542 40.4884 83.8908 39.8309Z" fill="black"/>
<path d="M26.517 38.3949C24.7898 38.3949 23.3936 37.1971 23.3936 35.7148V28.7399C23.3936 27.2576 24.7898 26.0532 26.517 26.0532C28.2442 26.0532 29.6339 27.2576 29.6339 28.7399V35.7148C29.6339 37.1971 28.2376 38.3949 26.517 38.3949Z" fill="black"/>
<path d="M52.3776 38.7258C50.6571 38.7258 49.2607 37.528 49.2607 36.0457V29.0708C49.2607 27.5885 50.6571 26.3841 52.3776 26.3841C54.0982 26.3841 55.5011 27.5885 55.5011 29.0708V36.0457C55.5011 37.528 54.1048 38.7258 52.3776 38.7258Z" fill="black"/>
</g>
<defs>
<clipPath id="clip0">
<rect width="83.9962" height="79" fill="white"/>
</clipPath>
</defs>
</svg>
