<svg width="89" height="92" viewBox="0 0 89 92" fill="none" xmlns="http://www.w3.org/2000/svg">
<g clip-path="url(#clip0)">
<path d="M84.8832 70.3425C83.4611 68.9204 79.5504 66.7873 76.4574 65.1662C73.3644 63.545 73.0515 60.4734 72.9022 58.3047C72.7529 56.1361 72.5396 50.0852 71.8641 46.8357C71.1886 43.5863 71.1531 41.7092 68.309 35.3455C68.2779 35.2799 68.2397 35.2179 68.1952 35.1606C68.1312 35.0113 68.0601 34.8619 67.989 34.7126C65.0453 27.8654 59.7481 21.8714 56.8613 18.7713C53.9745 15.6712 45.627 5.26165 40.7564 2.98634C35.8859 0.711039 34.6913 0.447951 31.8827 0.0924347H31.8472C31.1503 0.0209028 30.4502 -0.0146917 29.7496 -0.0142159C26.5778 -0.0165404 23.4525 0.747752 20.6397 2.21357C17.8269 3.67938 15.41 5.80329 13.595 8.40441H13.5523C11.8814 10.1038 5.20478 25.7821 1.88425 38.3247C0.818495 41.4771 0.198642 44.7631 0.0426782 48.0872C0.0426782 48.3716 0.04268 48.6418 1.80061e-05 48.912C1.80061e-05 49.2035 1.80061e-05 49.5021 1.80061e-05 49.7936C-0.0038353 53.6307 0.610793 57.4434 1.82026 61.0848C4.49374 69.5106 8.29067 73.1724 8.29067 73.1724C11.6704 77.2685 15.9019 80.5791 20.6908 82.8741C25.4797 85.1691 30.711 86.3933 36.021 86.4616C46.2954 86.5398 53.555 83.3331 57.2879 82.2878C61.0209 81.2426 62.706 82.5723 63.865 83.5748C65.024 84.5774 67.7259 87.4997 70.89 89.3555C73.4267 90.9111 76.4558 91.4556 79.3754 90.8809C82.2951 90.3062 84.8918 88.6543 86.6497 86.2534C88.4076 83.8525 89.1982 80.8782 88.8643 77.9213C88.5305 74.9644 87.0966 72.2412 84.8476 70.2927L84.8832 70.3425Z" fill="#EC7D10"/>
<path opacity="0.1" d="M70.1647 84.5845C64.7821 79.7708 74.0114 70.3638 74.893 68.3801C75.6538 66.6594 75.6965 65.8843 74.4451 63.481C73.2008 61.867 73.023 59.8619 72.8879 58.3047C72.7528 56.5058 72.4329 47.5397 71.2028 43.5792C72.9732 58.5109 57.4585 73.1795 43.3587 77.3248C29.0385 81.5342 12.8981 68.5365 9.76241 63.1042C6.62675 57.6719 4.24478 56.328 3.00048 56.7049C1.96948 57.0391 0.938492 57.4515 1.83439 61.0849C4.50788 69.4964 8.29768 73.1724 8.29768 73.1724C11.6774 77.2685 15.9089 80.5791 20.6978 82.8741C25.4867 85.1691 30.718 86.3933 36.028 86.4616C46.3024 86.5398 53.562 83.3331 57.295 82.2879C61.0279 81.2426 62.713 82.5723 63.872 83.5748C65.031 84.5774 67.7329 87.4997 70.897 89.3555C72.6923 90.4627 74.7505 91.0707 76.8592 91.1168C78.968 91.1629 81.0508 90.6455 82.8928 89.618C84.7348 88.5905 86.2693 87.0901 87.3379 85.2715C88.4064 83.453 88.9704 81.3823 88.9715 79.2731C86.2553 89.384 75.5401 89.3982 70.1647 84.5845Z" fill="black"/>
<path d="M17.4417 47.5468C15.593 47.5468 14.0928 46.2527 14.0928 44.66V37.1657C14.0928 35.573 15.593 34.3216 17.4417 34.3216C19.2904 34.3216 20.7978 35.6085 20.7978 37.1657V44.66C20.7978 46.2527 19.2975 47.5468 17.4417 47.5468Z" fill="black"/>
<path d="M45.236 47.9023C43.3873 47.9023 41.8799 46.6082 41.8799 45.0155V37.5212C41.8799 35.9285 43.3873 34.6771 45.236 34.6771C47.0846 34.6771 48.592 35.9641 48.592 37.5212V45.0155C48.592 46.6082 47.0918 47.9023 45.236 47.9023Z" fill="black"/>
</g>
<defs>
<clipPath id="clip0">
<rect width="89" height="91.1758" fill="white"/>
</clipPath>
</defs>
</svg>
