<svg width="550" height="525" viewBox="0 0 550 525" fill="none" xmlns="http://www.w3.org/2000/svg">
<path d="M379.145 205.668L377.87 201.826L385.554 199.275L386.829 203.117L379.145 205.668ZM353.432 309.322L350.186 311.741L345.349 305.248L348.595 302.83L353.432 309.322ZM348.595 302.83C377.848 281.03 391.266 242.177 379.145 205.668L386.829 203.117C400.082 243.037 385.401 285.499 353.432 309.322L348.595 302.83Z" fill="#263D59"/>
<path d="M353.433 309.322L350.187 311.74L345.349 305.248L348.595 302.829L353.433 309.322ZM374.114 272.526L375.95 268.918L383.166 272.59L381.33 276.198L374.114 272.526ZM348.595 302.829C359.44 294.748 368.113 284.318 374.114 272.526L381.33 276.198C374.775 289.078 365.297 300.481 353.433 309.322L348.595 302.829Z" fill="#EC325A"/>
<path d="M272.5 444L69 370.5" stroke="#DFE6EA" stroke-width="2"/>
<path d="M273.5 444.5L278.5 360.5" stroke="#DFE6EA" stroke-width="2"/>
<path d="M331.5 519L274 444.5" stroke="#DFE6EA" stroke-width="2"/>
<path d="M68.5 368.5L271.5 211" stroke="#DFE6EA" stroke-width="2"/>
<path d="M295 218.5L498 61" stroke="#DFE6EA" stroke-width="2"/>
<path d="M312.5 226L456.5 250.5" stroke="#DFE6EA" stroke-width="2"/>
<path d="M270.5 213.5L449 370.5" stroke="#DFE6EA" stroke-width="2"/>
<path d="M104 186L271 211.5" stroke="#DFE6EA" stroke-width="2"/>
<path d="M100 74L269 212" stroke="#DFE6EA" stroke-width="2" stroke-linecap="round"/>
<path d="M106 78.5L225 8" stroke="#DFE6EA" stroke-width="2" stroke-linecap="round"/>
<path d="M480.5 104L458.5 248" stroke="#DFE6EA" stroke-width="2" stroke-linecap="round"/>
<path d="M459 250L540 312" stroke="#DFE6EA" stroke-width="2" stroke-linecap="round"/>
<path d="M452.5 367L433.5 435.5" stroke="#DFE6EA" stroke-width="2" stroke-linecap="round"/>
<path d="M66.5 29L107.5 79.5" stroke="#DFE6EA" stroke-width="2" stroke-linecap="round"/>
<g filter="url(#filter0_dii)">
<rect x="189" y="49" width="169.193" height="339.163" rx="21.0032" fill="white"/>
</g>
<path fill-rule="evenodd" clip-rule="evenodd" d="M285.459 64.947C286.748 64.947 287.792 63.9022 287.792 62.6134C287.792 61.3245 286.748 60.2797 285.459 60.2797C284.17 60.2797 283.125 61.3245 283.125 62.6134C283.125 63.9022 284.17 64.947 285.459 64.947Z" fill="#EDEDED"/>
<rect x="260.956" y="61.0575" width="19.4474" height="3.11159" rx="1.55579" fill="#EDEDED"/>
<g filter="url(#filter1_d)">
<path fill-rule="evenodd" clip-rule="evenodd" d="M200.669 88.0503C200.669 78.4657 200.669 73.6734 202.534 70.0126C204.175 66.7924 206.793 64.1744 210.013 62.5336C213.674 60.6683 218.469 60.6683 228.057 60.6683C234.743 60.6683 240.016 60.6683 240.016 60.6683C244.098 60.6683 244.098 69.893 251.613 69.893H294.447C301.462 69.893 301.462 60.6683 305.943 60.6683C305.943 60.6683 311.84 60.6683 319.138 60.6683C328.726 60.6683 333.52 60.6683 337.18 62.5336C340.401 64.1744 343.019 66.7924 344.659 70.0126C346.525 73.6734 346.525 78.4657 346.525 88.0503V349.113C346.525 358.697 346.525 363.49 344.659 367.15C343.019 370.371 340.401 372.989 337.18 374.629C333.52 376.495 328.727 376.495 319.143 376.495H228.051C218.466 376.495 213.674 376.495 210.013 374.629C206.793 372.989 204.175 370.371 202.534 367.15C200.669 363.49 200.669 358.697 200.669 349.113V88.0503Z" fill="black" fill-opacity="0.01"/>
</g>
<mask id="mask0" mask-type="alpha" maskUnits="userSpaceOnUse" x="200" y="60" width="147" height="317">
<path fill-rule="evenodd" clip-rule="evenodd" d="M200.669 88.0503C200.669 78.4657 200.669 73.6734 202.534 70.0126C204.175 66.7924 206.793 64.1744 210.013 62.5336C213.674 60.6683 218.469 60.6683 228.057 60.6683C234.743 60.6683 240.016 60.6683 240.016 60.6683C244.098 60.6683 244.098 69.893 251.613 69.893H294.447C301.462 69.893 301.462 60.6683 305.943 60.6683C305.943 60.6683 311.84 60.6683 319.138 60.6683C328.726 60.6683 333.52 60.6683 337.18 62.5336C340.401 64.1744 343.019 66.7924 344.659 70.0126C346.525 73.6734 346.525 78.4657 346.525 88.0503V349.113C346.525 358.697 346.525 363.49 344.659 367.15C343.019 370.371 340.401 372.989 337.18 374.629C333.52 376.495 328.727 376.495 319.143 376.495H228.051C218.466 376.495 213.674 376.495 210.013 374.629C206.793 372.989 204.175 370.371 202.534 367.15C200.669 363.49 200.669 358.697 200.669 349.113V88.0503Z" fill="white"/>
</mask>
<g mask="url(#mask0)">
<path fill-rule="evenodd" clip-rule="evenodd" d="M200.669 88.0503C200.669 78.4657 200.669 73.6734 202.534 70.0126C204.175 66.7924 206.793 64.1744 210.013 62.5336C213.674 60.6683 218.469 60.6683 228.057 60.6683C234.743 60.6683 240.016 60.6683 240.016 60.6683C244.098 60.6683 244.098 69.893 251.613 69.893H294.447C301.462 69.893 301.462 60.6683 305.943 60.6683C305.943 60.6683 311.84 60.6683 319.138 60.6683C328.726 60.6683 333.52 60.6683 337.18 62.5336C340.401 64.1744 343.019 66.7924 344.659 70.0126C346.525 73.6734 346.525 78.4657 346.525 88.0503V349.113C346.525 358.697 346.525 363.49 344.659 367.15C343.019 370.371 340.401 372.989 337.18 374.629C333.52 376.495 328.727 376.495 319.143 376.495H228.051C218.466 376.495 213.674 376.495 210.013 374.629C206.793 372.989 204.175 370.371 202.534 367.15C200.669 363.49 200.669 358.697 200.669 349.113V88.0503Z" fill="#EFF3F5"/>
<path d="M240.016 60.6683V61.0573C240.863 61.0573 241.529 61.5259 242.19 62.3526C242.655 62.9345 243.079 63.6416 243.544 64.415C243.751 64.761 243.967 65.1203 244.198 65.4876C245.664 67.8203 247.644 70.2819 251.613 70.2819H294.447C298.177 70.2819 300.032 67.8023 301.475 65.4863C301.642 65.2182 301.803 64.9537 301.96 64.6953C302.495 63.8165 302.986 63.008 303.538 62.3625C304.239 61.5431 304.981 61.0573 305.943 61.0573V61.0573C305.943 61.0573 305.943 61.0573 305.943 61.0573H305.943H305.944H305.947H305.96H305.962H305.964H305.969H305.981H306.011H306.048H306.054H306.059H306.065H306.07H306.076H306.082H306.094H306.21H306.244H306.262H306.271H306.28H306.357H306.442H306.454H306.465H306.488H306.535H306.584H306.609H306.622H306.635H306.742H306.857H306.978H307.107H307.173H307.19H307.208H307.225H307.242H307.384H307.458H307.477H307.495H307.533H307.61H307.689H307.769H307.809H307.851H307.934H308.019H308.105H308.149H308.171H308.193H308.283H308.374H308.467H308.514H308.537H308.561H308.657H308.705H308.754H308.852H308.952H309.054H309.157H309.261H309.367H309.474H309.583H309.692H309.804H309.916H309.973H310.03H310.087H310.145H310.203H310.262H310.32H310.379H310.439H310.469H310.498H310.558H310.619H310.679H310.74H310.801H310.863H310.925H310.987H311.049H311.112H311.175H311.239H311.302H311.366H311.43H311.495H311.56H311.625H311.69H311.756H311.822H311.888H311.955H312.021H312.088H312.156H312.223H312.291H312.359H312.428H312.462H312.496H312.531H312.565H312.6H312.635H312.669H312.704H312.739H312.774H312.809H312.844H312.879H312.914H312.949H312.985H313.02H313.055H313.091H313.126H313.162H313.198H313.233H313.269H313.305H313.341H313.377H313.413H313.449H313.485H313.521H313.558H313.594H313.63H313.667H313.703H313.74H313.777H313.813H313.85H313.887H313.924H313.961H313.998H314.035H314.072H314.109H314.146H314.183H314.221H314.258H314.295H314.333H314.371H314.408H314.446H314.484H314.521H314.559H314.597H314.635H314.673H314.711H314.749H314.787H314.825H314.864H314.902H314.94H314.979H315.017H315.056H315.094H315.133H315.172H315.21H315.249H315.288H315.327H315.366H315.405H315.444H315.483H315.522H315.561H315.601H315.64H315.679H315.719H315.758H315.798H315.837H315.877H315.916H315.956H315.996H316.035H316.075H316.115H316.155H316.195H316.235H316.275H316.315H316.355H316.395H316.436H316.476H316.516H316.557H316.597H316.638H316.678H316.719H316.759H316.8H316.84H316.881H316.922H316.963H317.004H317.044H317.085H317.126H317.167H317.208H317.25H317.291H317.332H317.373H317.414H317.456H317.497H317.538H317.58H317.621H317.663H317.704H317.746H317.787H317.829H317.871H317.913H317.954H317.996H318.038H318.08H318.122H318.164H318.206H318.248H318.29H318.332H318.374H318.416H318.458H318.501H318.543H318.585H318.628H318.67H318.712H318.755H318.797H318.84H318.882H318.925H318.968H319.01H319.053H319.096H319.138C323.939 61.0573 327.515 61.0576 330.35 61.2892C333.181 61.5204 335.237 61.9801 337.004 62.8802C340.151 64.4836 342.709 67.0422 344.313 70.1892C345.213 71.9556 345.673 74.012 345.904 76.8417C346.135 79.676 346.136 83.2516 346.136 88.0503V349.113C346.136 353.911 346.135 357.487 345.904 360.321C345.673 363.151 345.213 365.207 344.313 366.974C342.709 370.121 340.151 372.679 337.004 374.283C335.237 375.183 333.181 375.643 330.351 375.874C327.517 376.105 323.941 376.106 319.143 376.106H228.051C223.252 376.106 219.677 376.105 216.842 375.874C214.013 375.643 211.956 375.183 210.19 374.283C207.043 372.679 204.484 370.121 202.881 366.974C201.981 365.207 201.521 363.151 201.29 360.321C201.058 357.487 201.058 353.911 201.058 349.113V88.0503C201.058 83.2516 201.058 79.676 201.29 76.8417C201.521 74.012 201.981 71.9556 202.881 70.1892C204.484 67.0422 207.043 64.4836 210.19 62.8802C211.956 61.9801 214.013 61.5204 216.844 61.2892C219.679 61.0576 223.257 61.0573 228.057 61.0573H228.097H228.136H228.175H228.214H228.253H228.292H228.331H228.37H228.409H228.448H228.486H228.525H228.564H228.603H228.641H228.68H228.719H228.757H228.796H228.834H228.873H228.911H228.949H228.988H229.026H229.064H229.103H229.141H229.179H229.217H229.255H229.293H229.331H229.369H229.407H229.445H229.483H229.521H229.559H229.597H229.634H229.672H229.71H229.747H229.785H229.822H229.86H229.897H229.935H229.972H230.009H230.047H230.084H230.121H230.158H230.195H230.232H230.269H230.306H230.343H230.38H230.417H230.454H230.491H230.527H230.564H230.601H230.637H230.674H230.71H230.747H230.783H230.82H230.856H230.892H230.929H230.965H231.001H231.037H231.073H231.109H231.145H231.181H231.217H231.253H231.288H231.324H231.36H231.395H231.431H231.467H231.502H231.538H231.573H231.608H231.644H231.679H231.714H231.749H231.784H231.819H231.854H231.889H231.924H231.959H231.994H232.029H232.063H232.098H232.133H232.167H232.202H232.236H232.27H232.305H232.339H232.373H232.407H232.442H232.476H232.51H232.544H232.578H232.611H232.645H232.679H232.713H232.746H232.78H232.813H232.847H232.88H232.914H232.947H232.98H233.014H233.047H233.08H233.113H233.146H233.179H233.212H233.244H233.277H233.31H233.343H233.375H233.408H233.44H233.472H233.505H233.537H233.569H233.602H233.634H233.666H233.698H233.73H233.762H233.793H233.825H233.857H233.888H233.92H233.952H233.983H234.014H234.046H234.077H234.108H234.139H234.17H234.202H234.232H234.263H234.294H234.325H234.356H234.386H234.417H234.447H234.478H234.508H234.539H234.569H234.599H234.629H234.659H234.689H234.719H234.749H234.779H234.809H234.838H234.868H234.898H234.927H234.957H234.986H235.015H235.044H235.074H235.103H235.132H235.161H235.19H235.218H235.247H235.276H235.304H235.333H235.361H235.39H235.418H235.446H235.475H235.503H235.531H235.559H235.587H235.615H235.642H235.67H235.698H235.725H235.753H235.78H235.808H235.835H235.862H235.889H235.916H235.943H235.97H235.997H236.024H236.05H236.077H236.104H236.13H236.157H236.183H236.209H236.235H236.261H236.287H236.313H236.339H236.365H236.391H236.416H236.442H236.468H236.493H236.518H236.544H236.569H236.594H236.619H236.644H236.669H236.694H236.718H236.743H236.768H236.792H236.817H236.841H236.865H236.889H236.914H236.938H236.962H236.985H237.009H237.033H237.057H237.08H237.104H237.127H237.15H237.174H237.197H237.22H237.243H237.266H237.288H237.311H237.334H237.356H237.379H237.401H237.424H237.446H237.468H237.49H237.512H237.534H237.556H237.578H237.599H237.621H237.642H237.664H237.685H237.706H237.728H237.749H237.77H237.791H237.811H237.832H237.853H237.873H237.894H237.914H237.934H237.955H237.975H237.995H238.015H238.035H238.054H238.074H238.094H238.113H238.133H238.152H238.171H238.19H238.209H238.228H238.247H238.266H238.285H238.303H238.322H238.34H238.359H238.377H238.395H238.413H238.431H238.449H238.467H238.485H238.502H238.52H238.537H238.554H238.572H238.589H238.606H238.623H238.64H238.656H238.673H238.69H238.706H238.723H238.739H238.755H238.771H238.787H238.803H238.819H238.835H238.85H238.866H238.881H238.897H238.912H238.927H238.942H238.957H238.972H238.987H239.001H239.016H239.031H239.045H239.059H239.073H239.087H239.101H239.115H239.129H239.143H239.156H239.17H239.183H239.197H239.21H239.223H239.236H239.249H239.261H239.274H239.287H239.299H239.312H239.324H239.336H239.348H239.36H239.372H239.384H239.395H239.407H239.419H239.43H239.441H239.452H239.463H239.474H239.485H239.496H239.506H239.517H239.527H239.538H239.548H239.558H239.568H239.578H239.588H239.597H239.607H239.617H239.626H239.635H239.644H239.653H239.662H239.671H239.68H239.689H239.697H239.705H239.714H239.722H239.73H239.738H239.746H239.754H239.761H239.769H239.776H239.783H239.791H239.798H239.805H239.812H239.818H239.825H239.832H239.838H239.844H239.851H239.857H239.863H239.869H239.874H239.88H239.885H239.891H239.896H239.901H239.907H239.911H239.916H239.921H239.926H239.93H239.935H239.939H239.943H239.947H239.951H239.955H239.959H239.962H239.966H239.969H239.972H239.976H239.979H239.981H239.984H239.987H239.989H239.992H239.994H239.996H239.999H240H240.002H240.004H240.006H240.007H240.009H240.01H240.011H240.012H240.013H240.014H240.014H240.015H240.015H240.016H240.016L240.016 60.6683Z" stroke="black" stroke-opacity="0.04" stroke-width="0.777897"/>
<g clip-path="url(#clip0)">
<path d="M230.554 91.4231L230.033 90.6428C229.887 90.6695 229.738 90.6828 229.587 90.6828C229.146 90.6828 228.742 90.5805 228.373 90.376C228.004 90.167 227.71 89.8803 227.493 89.5157C227.279 89.1467 227.172 88.7309 227.172 88.2685C227.172 87.8061 227.279 87.3926 227.493 87.0281C227.71 86.659 228.004 86.3723 228.373 86.1677C228.742 85.9632 229.146 85.861 229.587 85.861C230.031 85.861 230.436 85.9632 230.8 86.1677C231.169 86.3723 231.461 86.659 231.674 87.0281C231.888 87.3926 231.994 87.8061 231.994 88.2685C231.994 88.6554 231.916 89.0133 231.761 89.3423C231.605 89.6668 231.392 89.9381 231.121 90.1559L232.114 91.4231H230.554ZM228.506 88.2685C228.506 88.6376 228.602 88.931 228.793 89.1489C228.984 89.3623 229.249 89.469 229.587 89.469C229.92 89.469 230.182 89.3601 230.374 89.1422C230.569 88.9243 230.667 88.6331 230.667 88.2685C230.667 87.8951 230.569 87.6016 230.374 87.3882C230.182 87.1703 229.92 87.0614 229.587 87.0614C229.249 87.0614 228.984 87.1703 228.793 87.3882C228.602 87.6016 228.506 87.8951 228.506 88.2685ZM233.896 87.5549C234.042 87.3415 234.22 87.1726 234.429 87.0481C234.638 86.9236 234.863 86.8613 235.103 86.8613V88.2552H234.736C234.451 88.2552 234.24 88.3108 234.102 88.4219C233.964 88.5331 233.896 88.7265 233.896 89.0022V90.6361H232.588V86.8947H233.896V87.5549ZM236.232 86.5479C236 86.5479 235.814 86.4856 235.671 86.3611C235.533 86.2322 235.465 86.0721 235.465 85.881C235.465 85.6853 235.533 85.523 235.671 85.3941C235.814 85.2652 236 85.2007 236.232 85.2007C236.458 85.2007 236.641 85.2652 236.778 85.3941C236.921 85.523 236.992 85.6853 236.992 85.881C236.992 86.0721 236.921 86.2322 236.778 86.3611C236.641 86.4856 236.458 86.5479 236.232 86.5479ZM236.878 86.8947V90.6361H235.571V86.8947H236.878Z" fill="black"/>
<path d="M221.316 85.1979C221.008 85.0935 220.714 84.9504 220.443 84.7719C219.902 84.4226 219.635 84.0619 219.336 83.9029C219.122 83.7713 218.883 83.6847 218.634 83.6481C218.385 83.6116 218.131 83.6259 217.887 83.6903C217.644 83.7547 217.416 83.8678 217.218 84.0227C217.019 84.1776 216.855 84.3711 216.733 84.5916C216.612 84.8121 216.536 85.0549 216.511 85.3054C216.486 85.5559 216.512 85.8088 216.588 86.0489C216.663 86.289 216.787 86.5113 216.951 86.7023C217.115 86.8933 217.316 87.0491 217.542 87.1603C217.454 87.3764 217.394 87.6032 217.366 87.8347C217.643 87.5707 217.856 87.2467 217.988 86.8876C218.12 86.5284 218.169 86.1438 218.129 85.763C218.148 86.0172 218.307 86.189 218.384 86.686C218.544 87.9469 220.022 89.151 220.267 89.7062C219.669 89.1155 219.155 88.8457 219.273 88.9324C218.913 88.7038 218.514 88.544 218.095 88.4609C217.853 88.4133 217.602 88.4405 217.375 88.539C217.601 89.9774 219.088 90.811 220.63 90.811C222.306 90.811 223.683 89.8355 223.683 88.1599C223.684 87.4707 223.45 86.8018 223.019 86.2634C222.589 85.725 221.988 85.3492 221.316 85.1979Z" fill="#A7C957"/>
<path opacity="0.1" d="M214.984 91.6914L214.963 91.7198C214.983 91.8604 214.984 91.6914 214.984 91.6914Z" fill="black"/>
<path d="M218.094 88.4639C218.512 88.5469 218.911 88.7068 219.271 88.9353C219.155 88.8487 219.669 89.1185 220.265 89.7092C220.021 89.154 218.543 87.9499 218.382 86.689C218.305 86.1962 218.146 86.0202 218.128 85.766C218.167 86.1467 218.119 86.5314 217.986 86.8905C217.854 87.2496 217.641 87.5736 217.364 87.8377C217.35 87.9436 217.342 88.0503 217.341 88.1572C217.342 88.2861 217.352 88.4147 217.373 88.542C217.599 88.4432 217.851 88.416 218.094 88.4639Z" fill="#A7C957"/>
<path d="M214.834 91.8704L214.769 91.9371L214.746 91.9584L214.658 92.0393L214.644 92.0507C214.56 92.124 214.471 92.1909 214.377 92.2509L214.357 92.2637C214.313 92.2907 214.267 92.3177 214.215 92.3432C214.204 92.3502 214.194 92.3564 214.182 92.3617L214.04 92.4313L214.008 92.4455C213.945 92.471 213.881 92.4937 213.813 92.515C214.223 92.3962 214.589 92.1603 214.867 91.8363L214.851 91.8533L214.834 91.8704Z" fill="#EC325A"/>
<path opacity="0.1" d="M214.973 91.7056L214.963 91.7195L214.973 91.7056Z" fill="black"/>
<path d="M213.705 92.542L213.638 92.5576L213.705 92.542Z" fill="#EC325A"/>
<path d="M212.491 92.478L212.57 92.5036L212.491 92.478Z" fill="#EC325A"/>
<path d="M212.663 92.5306C212.705 92.542 212.749 92.5534 212.793 92.5619C212.748 92.5534 212.705 92.542 212.663 92.5306Z" fill="#EC325A"/>
<path d="M211.801 92.0919L211.815 92.1031L211.801 92.0919Z" fill="#EC325A"/>
<path d="M212.135 92.3219L212.149 92.3289L212.135 92.3219Z" fill="#EC325A"/>
<path d="M218.094 88.4639C218.025 88.4535 217.956 88.4469 217.887 88.444C217.956 88.4469 218.025 88.4535 218.094 88.4639Z" fill="#EC325A"/>
<path opacity="0.1" d="M215.439 89.6239C215.26 89.799 215.122 90.0113 215.034 90.2458C215.122 90.0113 215.26 89.799 215.439 89.6239Z" fill="black"/>
<path opacity="0.1" d="M214.983 91.7426C214.983 91.7568 214.983 91.7697 214.983 91.7768C214.983 91.7839 214.982 91.7525 214.983 91.7426Z" fill="black"/>
<path opacity="0.1" d="M214.97 91.7595C214.97 91.7752 214.97 91.7781 214.979 91.7724C214.987 91.7667 214.973 91.7752 214.97 91.7595Z" fill="black"/>
<path opacity="0.1" d="M211.487 91.7709C211.446 91.7184 211.406 91.6658 211.371 91.6133C211.406 91.6658 211.446 91.7184 211.487 91.7709Z" fill="black"/>
<path opacity="0.1" d="M211.639 91.9371C211.596 91.8945 211.555 91.849 211.517 91.8036C211.552 91.849 211.593 91.8945 211.639 91.9371Z" fill="black"/>
<path opacity="0.1" d="M211.801 92.0918C211.753 92.052 211.706 92.0109 211.659 91.9683C211.708 92.0109 211.752 92.052 211.801 92.0918Z" fill="black"/>
<path opacity="0.1" d="M214.945 91.7426L214.963 91.7184L214.945 91.7426Z" fill="black"/>
<path d="M212.944 92.5817L213.008 92.5916L212.944 92.5817Z" fill="#EC325A"/>
<path opacity="0.1" d="M212.944 92.5817L213.008 92.5916L212.944 92.5817Z" fill="black"/>
<path d="M212.829 92.566C212.889 92.5774 212.948 92.5845 213.008 92.5916L212.944 92.5817C212.906 92.5774 212.866 92.5731 212.829 92.566Z" fill="#EC325A"/>
<path opacity="0.1" d="M212.829 92.566C212.889 92.5774 212.948 92.5845 213.008 92.5916L212.944 92.5817C212.906 92.5774 212.866 92.5731 212.829 92.566Z" fill="black"/>
<path d="M214.376 92.2509C214.47 92.1908 214.56 92.1239 214.643 92.0507C214.56 92.1239 214.47 92.1908 214.376 92.2509Z" fill="#EC325A"/>
<path opacity="0.1" d="M214.376 92.2509C214.47 92.1908 214.56 92.1239 214.643 92.0507C214.56 92.1239 214.47 92.1908 214.376 92.2509Z" fill="black"/>
<path d="M214.85 91.8534L214.865 91.8363C214.879 91.8193 214.895 91.8037 214.908 91.7866L214.85 91.8534Z" fill="#EC325A"/>
<path opacity="0.1" d="M214.85 91.8534L214.865 91.8363C214.879 91.8193 214.895 91.8037 214.908 91.7866L214.85 91.8534Z" fill="black"/>
<path d="M214.908 91.7866L214.909 91.7852H214.908V91.7866Z" fill="#EC325A"/>
<path opacity="0.1" d="M214.908 91.7866L214.909 91.7852H214.908V91.7866Z" fill="black"/>
<path opacity="0.1" d="M213.201 92.6016C213.276 92.6016 213.343 92.6016 213.421 92.5902H213.434C213.485 92.5902 213.533 92.576 213.576 92.5675C213.452 92.5894 213.327 92.6008 213.201 92.6016Z" fill="black"/>
<path opacity="0.1" d="M213.201 92.6016C213.276 92.6016 213.343 92.6016 213.421 92.5902H213.434C213.485 92.5902 213.533 92.576 213.576 92.5675C213.452 92.5894 213.327 92.6008 213.201 92.6016Z" fill="black"/>
<path opacity="0.1" d="M213.438 92.5945C213.505 92.5945 213.571 92.5775 213.635 92.5647H213.586C213.537 92.5746 213.485 92.5832 213.438 92.5945Z" fill="black"/>
<path opacity="0.1" d="M213.438 92.5945C213.505 92.5945 213.571 92.5775 213.635 92.5647H213.586C213.537 92.5746 213.485 92.5832 213.438 92.5945Z" fill="black"/>
<path opacity="0.1" d="M213.438 92.5945C213.505 92.5945 213.571 92.5775 213.635 92.5647H213.586C213.537 92.5746 213.485 92.5832 213.438 92.5945Z" fill="black"/>
<path opacity="0.1" d="M214.963 91.7141C214.945 91.7383 214.928 91.7624 214.909 91.7851L214.936 91.7539L214.945 91.7439L214.963 91.7198V91.7141Z" fill="black"/>
<path opacity="0.1" d="M214.963 91.7141C214.945 91.7383 214.928 91.7624 214.909 91.7851L214.936 91.7539L214.945 91.7439L214.963 91.7198V91.7141Z" fill="black"/>
<path opacity="0.1" d="M214.963 91.7198V91.7567C214.963 91.7723 214.963 91.7751 214.972 91.7694C214.972 91.7694 214.972 91.7496 214.972 91.7354V91.7141C214.972 91.7089 214.972 91.7036 214.972 91.6985V91.6899L214.962 91.7027L214.952 91.7169L214.963 91.7198Z" fill="black"/>
<path opacity="0.1" d="M214.963 91.7198V91.7567C214.963 91.7723 214.963 91.7751 214.972 91.7694C214.972 91.7694 214.972 91.7496 214.972 91.7354V91.7141C214.972 91.7089 214.972 91.7036 214.972 91.6985V91.6899L214.962 91.7027L214.952 91.7169L214.963 91.7198Z" fill="black"/>
<path opacity="0.1" d="M214.973 91.7057L214.983 91.6929L214.973 91.7057Z" fill="black"/>
<path opacity="0.1" d="M214.973 91.7057L214.983 91.6929L214.973 91.7057Z" fill="black"/>
<path opacity="0.1" d="M214.973 91.7057L214.983 91.6929L214.973 91.7057Z" fill="black"/>
<path opacity="0.1" d="M211.19 91.2725C211.213 91.3264 211.237 91.3818 211.267 91.4372C211.297 91.494 211.331 91.5522 211.369 91.6104C211.405 91.6629 211.445 91.7155 211.486 91.768L211.508 91.795C211.379 91.6363 211.272 91.4605 211.19 91.2725Z" fill="black"/>
<path opacity="0.1" d="M211.19 91.2725C211.213 91.3264 211.237 91.3818 211.267 91.4372C211.297 91.494 211.331 91.5522 211.369 91.6104C211.405 91.6629 211.445 91.7155 211.486 91.768L211.508 91.795C211.379 91.6363 211.272 91.4605 211.19 91.2725Z" fill="black"/>
<path opacity="0.1" d="M211.511 91.7993C211.55 91.8448 211.591 91.8902 211.633 91.9328C211.594 91.893 211.551 91.8476 211.511 91.7993Z" fill="black"/>
<path opacity="0.1" d="M211.511 91.7993C211.55 91.8448 211.591 91.8902 211.633 91.9328C211.594 91.893 211.551 91.8476 211.511 91.7993Z" fill="black"/>
<path opacity="0.1" d="M211.51 91.798L211.487 91.7709L211.514 91.8037L211.51 91.798Z" fill="black"/>
<path opacity="0.1" d="M211.51 91.798L211.487 91.7709L211.514 91.8037L211.51 91.798Z" fill="black"/>
<path opacity="0.1" d="M211.51 91.798L211.487 91.7709L211.514 91.8037L211.51 91.798Z" fill="black"/>
<path opacity="0.1" d="M211.639 91.937L211.652 91.9527L211.639 91.9384V91.937Z" fill="black"/>
<path opacity="0.1" d="M211.639 91.937L211.652 91.9527L211.639 91.9384V91.937Z" fill="black"/>
<path opacity="0.1" d="M211.639 91.937L211.652 91.9527L211.639 91.9384V91.937Z" fill="black"/>
<path opacity="0.1" d="M211.188 91.2668C211.21 91.3222 211.237 91.3804 211.267 91.4372C211.237 91.3819 211.213 91.3265 211.19 91.2725C211.19 91.2714 211.19 91.2703 211.19 91.2693C211.189 91.2684 211.188 91.2675 211.188 91.2668Z" fill="black"/>
<path opacity="0.1" d="M211.188 91.2668C211.21 91.3222 211.237 91.3804 211.267 91.4372C211.237 91.3819 211.213 91.3265 211.19 91.2725C211.19 91.2714 211.19 91.2703 211.19 91.2693C211.189 91.2684 211.188 91.2675 211.188 91.2668Z" fill="black"/>
<path opacity="0.1" d="M211.188 91.2668C211.21 91.3222 211.237 91.3804 211.267 91.4372C211.237 91.3819 211.213 91.3265 211.19 91.2725C211.19 91.2714 211.19 91.2703 211.19 91.2693C211.189 91.2684 211.188 91.2675 211.188 91.2668Z" fill="black"/>
<path d="M218.162 85.9334C218.154 85.878 218.144 85.8241 218.13 85.7687C218.13 85.7687 217.745 83.6516 215.564 83.7368C215.16 83.7438 214.76 83.8227 214.384 83.9696C214.365 83.9512 214.223 83.812 214.155 83.7325C214.079 83.6498 213.998 83.5711 213.914 83.4968C213.596 83.1731 213.163 82.9889 212.709 82.9848C212.255 82.9807 211.819 83.1569 211.495 83.4748C211.171 83.7926 210.987 84.226 210.983 84.6797C210.979 85.1333 211.155 85.57 211.473 85.8937C211.518 85.9589 211.577 86.0133 211.646 86.0527C211.732 86.1211 211.824 86.181 211.922 86.2316C212.447 86.605 212.441 86.8436 212.481 87.1177C212.48 87.1233 212.48 87.129 212.481 87.1347C212.481 87.1503 212.481 87.1645 212.481 87.1801C212.475 87.4742 212.41 87.7641 212.289 88.0325C212.169 88.3008 211.995 88.5421 211.78 88.7421L211.771 88.752C211.431 89.0432 211.188 89.4324 211.077 89.8664C210.966 90.3004 210.991 90.7582 211.149 91.1773L211.182 91.2668C211.263 91.4558 211.371 91.6327 211.501 91.7921C211.541 91.8404 211.584 91.8858 211.626 91.9341L211.655 91.964C211.698 92.0066 211.746 92.0477 211.797 92.0875L211.811 92.0988C211.911 92.1807 212.018 92.2539 212.13 92.3175L212.145 92.3246C212.207 92.3587 212.274 92.3899 212.342 92.4198L212.39 92.4411L212.48 92.4737L212.559 92.4993L212.657 92.5262C212.7 92.5376 212.742 92.549 212.788 92.5575C212.833 92.566 212.887 92.5717 212.938 92.5774L213.006 92.5873C213.069 92.5873 213.134 92.5972 213.2 92.5972C213.327 92.5963 213.455 92.5844 213.58 92.5617C213.597 92.5617 213.616 92.5617 213.633 92.5532L213.699 92.5376L213.806 92.5106C213.874 92.4893 213.938 92.4666 214 92.4411L214.033 92.4268L214.175 92.3573C214.186 92.352 214.197 92.3458 214.208 92.3388C214.256 92.3132 214.301 92.2863 214.35 92.2593L214.37 92.2465C214.463 92.1865 214.553 92.1196 214.637 92.0463L214.651 92.035L214.739 91.954L214.762 91.9327L214.827 91.866L214.842 91.8489L214.902 91.7822C214.921 91.7595 214.938 91.7353 214.956 91.7112C214.957 91.7013 214.957 91.6913 214.956 91.6814C214.956 91.6686 214.956 91.653 214.956 91.6374V91.6288V91.582V91.5678C214.956 91.5479 214.956 91.5252 214.956 91.4996C214.956 91.4755 214.956 91.4485 214.956 91.4201V91.4031C214.956 91.3732 214.956 91.342 214.956 91.3079V91.2966C214.956 91.2653 214.956 91.2327 214.949 91.1986V91.1688C214.949 91.129 214.949 91.0878 214.94 91.0438C214.937 90.8703 214.953 90.697 214.987 90.5269C215.007 90.4341 215.033 90.343 215.067 90.2543C215.154 90.0198 215.293 89.8075 215.472 89.6324C215.517 89.5884 215.562 89.5472 215.614 89.5074C215.752 89.3958 215.902 89.2978 216.059 89.2149C216.21 89.134 216.36 89.0658 216.497 89.0048C216.586 88.9636 216.671 88.9267 216.745 88.8883C216.819 88.85 216.887 88.8173 216.953 88.7847L217.13 88.6895C217.214 88.6441 217.29 88.6043 217.364 88.5703C217.414 88.5475 217.462 88.5277 217.506 88.5106C217.533 88.5021 217.562 88.4964 217.59 88.4893C218.094 87.7392 218.299 86.827 218.162 85.9334Z" fill="#EC325A"/>
<path d="M213.012 92.5945C213.075 92.5945 213.139 92.603 213.205 92.6044C213.14 92.6044 213.075 92.6044 213.012 92.5945Z" fill="#EC325A"/>
<path d="M212.349 92.4241L212.399 92.4455L212.349 92.4241Z" fill="#EC325A"/>
<path d="M211.649 91.9527L211.662 91.9655L211.633 91.9355L211.649 91.9527Z" fill="#EC325A"/>
<path d="M211.188 91.2654C211.188 91.2654 211.189 91.2683 211.188 91.2654V91.2654Z" fill="#EC325A"/>
<path d="M213.636 92.559C213.619 92.559 213.6 92.559 213.583 92.5675L213.636 92.559Z" fill="#EC325A"/>
<path d="M212.793 92.5618H212.829C212.866 92.5618 212.906 92.5731 212.944 92.5774C212.893 92.576 212.842 92.5703 212.793 92.5618Z" fill="#EC325A"/>
<path d="M212.207 92.3587C212.24 92.3757 212.274 92.3928 212.308 92.407L212.346 92.424C212.278 92.3942 212.204 92.3629 212.149 92.3289L212.207 92.3587Z" fill="#EC325A"/>
<path d="M212.59 92.5122L212.663 92.5306L212.565 92.5037L212.59 92.5122Z" fill="#EC325A"/>
<path d="M211.971 92.221L212.018 92.2508C212.056 92.275 212.095 92.2991 212.134 92.3218C212.022 92.2582 211.915 92.185 211.815 92.1031C211.865 92.1443 211.923 92.1841 211.971 92.221Z" fill="#EC325A"/>
<path d="M220.927 90.9588C220.927 91.7583 220.609 92.5251 220.044 93.0904C219.478 93.6557 218.712 93.9733 217.912 93.9733H217.85C217.708 93.9612 217.566 93.9881 217.439 94.0512C217.312 94.1143 217.205 94.2112 217.13 94.3312L217.108 94.3596C217.029 94.5064 216.92 94.6354 216.789 94.7386C216.658 94.8419 216.507 94.9172 216.346 94.9598C216.184 95.0025 216.016 95.0117 215.851 94.9868C215.686 94.9619 215.527 94.9034 215.386 94.815C215.244 94.7266 215.122 94.6102 215.027 94.4728C214.932 94.3355 214.867 94.1801 214.834 94.0164C214.801 93.8527 214.803 93.684 214.838 93.5208C214.873 93.3576 214.941 93.2033 215.038 93.0674L215.047 93.0561C215.074 93.0172 215.104 92.9802 215.136 92.9453C215.209 92.8497 215.253 92.7357 215.264 92.6161C215.275 92.4966 215.252 92.3764 215.197 92.2694L215.172 92.214C215.156 92.1799 215.14 92.1501 215.129 92.126C215.032 91.8892 214.964 91.6412 214.929 91.3876C214.929 91.2939 214.913 91.1775 214.905 91.0355C214.886 89.5147 216.109 89.1796 216.705 88.88C217.302 88.5804 217.493 88.3731 218.091 88.4639C218.509 88.547 218.908 88.7068 219.268 88.9354C219.152 88.8487 219.674 89.11 220.262 89.7092C221.01 90.4647 220.927 90.9588 220.927 90.9588Z" fill="#21A0A0"/>
<path opacity="0.1" d="M214.984 91.6914L214.963 91.7198C214.983 91.8604 214.984 91.6914 214.984 91.6914Z" fill="black"/>
<path d="M220.017 87.4826C219.954 87.4874 219.891 87.4668 219.843 87.4256C219.795 87.3844 219.765 87.3257 219.76 87.2626V86.6946C219.77 86.6339 219.801 86.5788 219.848 86.5391C219.895 86.4993 219.955 86.4775 220.016 86.4775C220.078 86.4775 220.137 86.4993 220.184 86.5391C220.231 86.5788 220.262 86.6339 220.272 86.6946V87.2626C220.268 87.3256 220.238 87.3842 220.19 87.4255C220.142 87.4668 220.08 87.4873 220.017 87.4826Z" fill="black"/>
<path d="M222.147 87.5083C222.084 87.5126 222.022 87.4919 221.974 87.4507C221.926 87.4095 221.896 87.3511 221.891 87.2882V86.7202C221.899 86.6579 221.93 86.6007 221.977 86.5592C222.024 86.5177 222.085 86.4949 222.147 86.4949C222.21 86.4949 222.271 86.5177 222.318 86.5592C222.365 86.6007 222.396 86.6579 222.404 86.7202V87.2882C222.399 87.3514 222.369 87.41 222.321 87.4512C222.272 87.4925 222.21 87.513 222.147 87.5083Z" fill="black"/>
<path d="M217.035 90.5782C216.972 90.5826 216.909 90.5619 216.861 90.5208C216.813 90.4796 216.783 90.4212 216.778 90.3581V89.7902C216.788 89.7295 216.819 89.6744 216.866 89.6347C216.913 89.5949 216.973 89.5731 217.034 89.5731C217.096 89.5731 217.155 89.5949 217.202 89.6347C217.249 89.6744 217.28 89.7295 217.29 89.7902V90.3581C217.285 90.4211 217.256 90.4795 217.208 90.5207C217.16 90.5619 217.098 90.5826 217.035 90.5782Z" fill="black"/>
<path d="M219.165 90.6066C219.102 90.6105 219.04 90.5897 218.992 90.5486C218.944 90.5074 218.915 90.4492 218.909 90.3865V89.8185C218.919 89.7578 218.951 89.7027 218.998 89.663C219.044 89.6232 219.104 89.6014 219.165 89.6014C219.227 89.6014 219.286 89.6232 219.333 89.663C219.38 89.7027 219.412 89.7578 219.422 89.8185V90.3865C219.416 90.4495 219.386 90.5079 219.338 90.5491C219.29 90.5902 219.228 90.6109 219.165 90.6066Z" fill="black"/>
<path d="M215.087 86.7571C215.023 86.7618 214.961 86.7412 214.913 86.7C214.865 86.6588 214.835 86.6002 214.83 86.537V85.969C214.839 85.9074 214.87 85.8511 214.917 85.8105C214.964 85.7698 215.024 85.7474 215.087 85.7474C215.149 85.7474 215.209 85.7698 215.256 85.8105C215.303 85.8511 215.334 85.9074 215.344 85.969V86.537C215.339 86.6002 215.309 86.6588 215.26 86.7C215.212 86.7412 215.15 86.7618 215.087 86.7571Z" fill="black"/>
<path d="M217.212 86.784C217.149 86.7887 217.086 86.7682 217.038 86.727C216.99 86.6858 216.96 86.6271 216.955 86.5639V85.996C216.963 85.9337 216.994 85.8764 217.041 85.835C217.088 85.7935 217.149 85.7706 217.211 85.7706C217.274 85.7706 217.335 85.7935 217.382 85.835C217.429 85.8764 217.46 85.9337 217.468 85.996V86.5639C217.463 86.6269 217.433 86.6853 217.385 86.7265C217.337 86.7677 217.275 86.7883 217.212 86.784Z" fill="black"/>
<path opacity="0.1" d="M217.634 84.6641C217.634 84.6641 217.234 83.991 217.607 83.8121C217.417 83.8883 217.246 84.0034 217.103 84.1501C217.308 84.2895 217.488 84.4634 217.634 84.6641Z" fill="black"/>
<path opacity="0.1" d="M218.13 85.766C218.148 86.0202 218.307 86.192 218.384 86.689C218.544 87.9499 220.022 89.154 220.267 89.7092C219.669 89.1185 219.155 88.8487 219.273 88.9353C218.913 88.7068 218.514 88.5469 218.096 88.4639C217.498 88.373 217.307 88.5903 216.71 88.8799C216.112 89.1696 214.891 89.5147 214.909 91.0354C214.982 92.1217 214.986 91.6914 214.986 91.6914C214.986 91.6914 214.347 92.6102 213.207 92.6016C212.761 92.6026 212.325 92.467 211.959 92.2131C211.592 91.9593 211.312 91.5994 211.156 91.1817C211.156 91.1817 212.224 92.4483 213.583 91.7241C214.942 90.9999 214.709 90.3524 214.692 90.1536C214.646 89.6822 213.722 89.384 213.895 89.0858C214.069 88.7877 214.14 88.9041 215.751 88.6513C217.363 88.3986 218.293 86.9971 218.13 85.766Z" fill="black"/>
<path opacity="0.1" d="M220.927 90.804C220.846 90.4688 220.677 90.1611 220.439 89.9122C220.439 89.9122 221.362 91.6772 218.936 93.1085C216.609 94.3865 215.233 92.3659 215.233 92.3659C215.266 92.4609 215.275 92.5628 215.258 92.6621C215.242 92.7614 215.2 92.8549 215.138 92.9339C215.244 92.9183 216.065 93.3797 216.437 93.8143C216.524 93.9151 216.721 94.3368 216.315 94.4973C215.909 94.6577 215.252 94.6804 215.023 94.4504C215.139 94.6255 215.298 94.7678 215.486 94.8635C215.673 94.9593 215.881 95.0052 216.091 94.9969C216.301 94.9887 216.506 94.9265 216.685 94.8163C216.863 94.7062 217.011 94.5518 217.113 94.368L217.134 94.3382C217.21 94.2185 217.317 94.1218 217.444 94.0587C217.571 93.9956 217.713 93.9685 217.854 93.9804H217.917C218.68 93.9808 219.414 93.6919 219.972 93.172C220.531 92.6521 220.871 91.9398 220.924 91.1788L220.927 90.804Z" fill="black"/>
<path opacity="0.1" d="M214.386 83.9697C214.386 83.9697 214.006 84.1685 213.843 84.2807C213.679 84.3929 214.188 83.7567 213.952 83.5295C214.111 83.6886 214.386 83.9697 214.386 83.9697Z" fill="black"/>
</g>
<circle cx="220" cy="116" r="9" fill="#D5DADD"/>
<rect x="235" y="108" width="24" height="4" rx="1" fill="#D5DADD"/>
<rect x="235" y="114" width="101" height="4" rx="1" fill="#D5DADD"/>
<rect x="235" y="120" width="101" height="4" rx="1" fill="#D5DADD"/>
<circle cx="220" cy="148" r="9" fill="#D5DADD"/>
<rect x="235" y="140" width="24" height="4" rx="1" fill="#D5DADD"/>
<rect x="235" y="146" width="101" height="4" rx="1" fill="#D5DADD"/>
<rect x="235" y="152" width="101" height="4" rx="1" fill="#D5DADD"/>
<circle cx="220" cy="180" r="9" fill="#D5DADD"/>
<rect x="235" y="172" width="24" height="4" rx="1" fill="#D5DADD"/>
<rect x="235" y="178" width="101" height="4" rx="1" fill="#D5DADD"/>
<rect x="235" y="184" width="101" height="4" rx="1" fill="#D5DADD"/>
<circle cx="220" cy="212" r="9" fill="#D5DADD"/>
<rect x="235" y="204" width="24" height="4" rx="1" fill="#D5DADD"/>
<rect x="235" y="210" width="101" height="4" rx="1" fill="#D5DADD"/>
<rect x="235" y="216" width="101" height="4" rx="1" fill="#D5DADD"/>
<circle cx="220" cy="244" r="9" fill="#D5DADD"/>
<rect x="235" y="236" width="24" height="4" rx="1" fill="#D5DADD"/>
<rect x="235" y="242" width="101" height="4" rx="1" fill="#D5DADD"/>
<rect x="235" y="248" width="101" height="4" rx="1" fill="#D5DADD"/>
<circle cx="220" cy="276" r="9" fill="#D5DADD"/>
<rect x="235" y="268" width="24" height="4" rx="1" fill="#D5DADD"/>
<rect x="235" y="274" width="101" height="4" rx="1" fill="#D5DADD"/>
<rect x="235" y="280" width="101" height="4" rx="1" fill="#D5DADD"/>
<circle cx="220" cy="308" r="9" fill="#D5DADD"/>
<rect x="235" y="300" width="24" height="4" rx="1" fill="#D5DADD"/>
<rect x="235" y="306" width="101" height="4" rx="1" fill="#D5DADD"/>
<rect x="235" y="312" width="101" height="4" rx="1" fill="#D5DADD"/>
<circle cx="220" cy="340" r="9" fill="#D5DADD"/>
<rect x="235" y="332" width="24" height="4" rx="1" fill="#D5DADD"/>
<rect x="235" y="338" width="101" height="4" rx="1" fill="#D5DADD"/>
<rect x="235" y="344" width="101" height="4" rx="1" fill="#D5DADD"/>
<circle cx="220" cy="372" r="9" fill="#D5DADD"/>
<rect x="235" y="364" width="24" height="4" rx="1" fill="#D5DADD"/>
<rect x="235" y="370" width="101" height="4" rx="1" fill="#D5DADD"/>
<rect x="235" y="376" width="101" height="4" rx="1" fill="#D5DADD"/>
</g>
<rect x="255" y="418" width="36" height="36" rx="18" fill="#263D59"/>
<path d="M279.583 443.5V441.833C279.583 439.992 278.091 438.5 276.25 438.5H269.583C267.742 438.5 266.25 439.992 266.25 441.833V443.5" stroke="white" stroke-width="1.5" stroke-linecap="round" stroke-linejoin="round"/>
<circle cx="272.916" cy="431.833" r="3.33333" stroke="white" stroke-width="1.5" stroke-linecap="round" stroke-linejoin="round"/>
<rect x="433" y="226" width="48" height="48" rx="24" fill="#A7C957"/>
<path d="M465.778 260V257.778C465.778 255.323 463.788 253.333 461.333 253.333H452.444C449.99 253.333 448 255.323 448 257.778V260" stroke="white" stroke-width="2" stroke-linecap="round" stroke-linejoin="round"/>
<circle cx="456.889" cy="244.444" r="4.44444" stroke="white" stroke-width="2" stroke-linecap="round" stroke-linejoin="round"/>
<rect x="74" y="47" width="64" height="64" rx="32" fill="#A7C957"/>
<path d="M102.566 76.3165C101.616 76.3165 100.866 77.1499 100.866 78.1665C100.866 79.1832 101.633 80.0165 102.566 80.0165C103.516 80.0165 104.266 79.1832 104.266 78.1665C104.283 77.1499 103.516 76.3165 102.566 76.3165ZM108.65 76.3165C107.7 76.3165 106.95 77.1499 106.95 78.1665C106.95 79.1832 107.716 80.0165 108.65 80.0165C109.6 80.0165 110.35 79.1832 110.35 78.1665C110.35 77.1499 109.6 76.3165 108.65 76.3165Z" fill="white"/>
<path d="M116.75 62.333H94.4162C92.5328 62.333 90.9995 63.8663 90.9995 65.7663V88.2997C90.9995 90.1997 92.5328 91.733 94.4162 91.733H113.316L112.433 88.6497L114.566 90.633L116.583 92.4997L120.166 95.6663V65.7663C120.166 63.8663 118.633 62.333 116.75 62.333ZM110.316 84.0997C110.316 84.0997 109.716 83.383 109.216 82.7497C111.4 82.133 112.233 80.7663 112.233 80.7663C111.55 81.2163 110.9 81.533 110.316 81.7497C109.483 82.0997 108.683 82.333 107.9 82.4663C106.3 82.7663 104.833 82.683 103.583 82.4497C102.633 82.2663 101.816 81.9997 101.133 81.733C100.75 81.583 100.333 81.3997 99.9162 81.1663C99.8662 81.133 99.8162 81.1163 99.7662 81.083C99.7328 81.0663 99.7162 81.0497 99.6995 81.033C99.3995 80.8663 99.2328 80.7497 99.2328 80.7497C99.2328 80.7497 100.033 82.083 102.15 82.7163C101.65 83.3497 101.033 84.0997 101.033 84.0997C97.3495 83.983 95.9495 81.5663 95.9495 81.5663C95.9495 76.1997 98.3495 71.8497 98.3495 71.8497C100.75 70.0497 103.033 70.0997 103.033 70.0997L103.2 70.2997C100.2 71.1663 98.8162 72.483 98.8162 72.483C98.8162 72.483 99.1828 72.283 99.7995 71.9997C101.583 71.2163 103 70.9997 103.583 70.9497C103.683 70.933 103.766 70.9163 103.866 70.9163C104.883 70.783 106.033 70.7497 107.233 70.883C108.816 71.0663 110.516 71.533 112.25 72.483C112.25 72.483 110.933 71.233 108.1 70.3663L108.333 70.0997C108.333 70.0997 110.616 70.0497 113.016 71.8497C113.016 71.8497 115.416 76.1997 115.416 81.5663C115.416 81.5663 114 83.983 110.316 84.0997Z" fill="white"/>
<circle cx="331.5" cy="518.5" r="4.875" fill="white" stroke="#EC325A" stroke-width="3.25"/>
<circle cx="229.5" cy="6.5" r="4.875" fill="white" stroke="#EC7D10" stroke-width="3.25"/>
<circle cx="539.5" cy="312.5" r="4.875" fill="white" stroke="#EC7D10" stroke-width="3.25"/>
<g filter="url(#filter2_d)">
<circle r="47.7399" transform="matrix(-1 0 0 1 67.1283 369.999)" fill="white"/>
</g>
<g clip-path="url(#clip1)">
<path d="M88.9906 361.475C90.0958 359.791 90.7246 357.839 90.8106 355.826C90.8966 353.814 90.4365 351.815 89.479 350.043C88.5215 348.271 87.1024 346.79 85.372 345.759C83.6415 344.728 81.6643 344.184 79.6499 344.185C78.6865 344.184 77.727 344.307 76.7947 344.55C75.0982 344.965 73.4901 345.682 72.0468 346.666C70.8838 347.441 70.6785 347.692 70.341 347.578C70.3292 347.574 70.3164 347.574 70.3046 347.578C65.4677 345.817 60.1753 345.755 55.2988 347.404C50.4224 349.052 46.2527 352.312 43.4765 356.647C40.7004 360.982 39.4832 366.133 40.0255 371.252C40.5678 376.37 42.8373 381.152 46.4601 384.809C45.148 385.689 44.0861 386.894 43.3776 388.306C42.6691 389.718 42.3381 391.289 42.4169 392.867C42.4957 394.445 42.9816 395.976 43.8273 397.311C44.6729 398.645 45.8496 399.738 47.2429 400.483C48.6361 401.228 50.1985 401.6 51.778 401.562C53.3574 401.524 54.9002 401.078 56.2563 400.268C57.6124 399.457 58.7355 398.309 59.5165 396.936C60.2974 395.562 60.7096 394.01 60.713 392.43C60.713 392.102 60.713 391.778 60.6628 391.459C61.2785 391.509 61.9034 391.536 62.5373 391.536C65.7438 391.539 68.9142 390.86 71.8385 389.545C74.7628 388.23 77.3742 386.308 79.4998 383.907C81.6254 381.507 83.2165 378.682 84.1679 375.619C85.1192 372.557 85.409 369.328 85.0181 366.146C86.6326 364.663 87.4673 364.057 88.9906 361.475Z" fill="#EC7D10"/>
<path opacity="0.1" d="M87.0928 347.044C88.7023 348.88 89.6862 351.18 89.9023 353.612C90.2125 357.575 88.1418 358.962 87.1658 358.793C86.5774 358.688 85.5649 355.427 82.8147 352.508C80.9128 350.488 78.646 349.648 78.158 350.009C77.67 350.369 78.8558 350.606 81.5376 355.026C84.9036 360.549 83.0473 374.259 77.4328 379.819C71.8183 385.378 62.0762 390.199 52.4025 386.391C49.6955 385.345 47.2745 383.672 45.3377 381.511C44.4757 380.421 43.1348 380.279 43.8736 381.689C44.6482 382.814 45.5212 383.869 46.4825 384.84C46.4825 384.84 49.2874 388.161 51.8415 389.105C54.3956 390.049 57.8665 391.54 57.5062 393.52C57.1459 395.499 56.0649 398.537 53.146 399.554C50.227 400.571 46.3046 399.157 45.3423 397.802C44.7984 397.177 44.1093 396.695 43.3354 396.398C44.2423 398.252 45.7494 399.746 47.6122 400.636C49.475 401.526 51.584 401.761 53.5967 401.301C55.6094 400.841 57.4077 399.715 58.6994 398.104C59.9912 396.494 60.7006 394.494 60.7125 392.43C60.7125 392.101 60.7125 391.777 60.6623 391.458C61.2781 391.508 61.9029 391.536 62.5369 391.536C65.7433 391.538 68.9137 390.86 71.838 389.544C74.7624 388.229 77.3738 386.307 79.4994 383.907C81.6249 381.506 83.2161 378.681 84.1674 375.619C85.1188 372.557 85.4086 369.328 85.0176 366.145C86.623 364.663 87.4577 364.056 88.981 361.475C90.4438 359.241 91.0576 356.557 90.7112 353.909C90.3648 351.262 89.0811 348.826 87.0928 347.044Z" fill="black"/>
<path d="M49.5696 365.452C48.3837 365.452 47.4214 364.622 47.4214 363.605V358.793C47.4214 357.776 48.3837 356.946 49.5696 356.946C50.7554 356.946 51.7223 357.776 51.7223 358.793V363.605C51.7223 364.622 50.76 365.452 49.5696 365.452Z" fill="black"/>
<path d="M67.3984 365.68C66.208 365.68 65.2456 364.85 65.2456 363.828V359.021C65.2456 358.004 66.208 357.174 67.3984 357.174C68.5888 357.174 69.5465 358.004 69.5465 359.021V363.828C69.5465 364.832 68.5842 365.68 67.3984 365.68Z" fill="black"/>
</g>
<path d="M17.7011 325.197C7.31166 336.878 1.00023 352.266 1.00023 369.129C1.00023 401.707 24.5581 428.782 55.5679 434.25" stroke="#EC7D10" stroke-width="1.41452"/>
<path d="M37.9942 309.747C46.7837 305.426 56.6724 303 67.1278 303C103.65 303 133.256 332.607 133.256 369.129C133.256 398.38 114.264 423.196 87.9375 431.916" stroke="#EC7D10" stroke-width="1.41452" stroke-linecap="round"/>
<circle cx="18.2496" cy="324.812" r="3.81205" fill="#A7C957"/>
<circle cx="55.4586" cy="433.298" r="4.59717" fill="white" stroke="#21A0A0" stroke-width="3.53629"/>
<g filter="url(#filter3_d)">
<circle r="47.7399" transform="matrix(-1 0 0 1 483.128 67.9992)" fill="white"/>
</g>
<path d="M532.555 23.1971C542.945 34.8779 549.256 50.2662 549.256 67.1287C549.256 99.7067 525.698 126.782 494.688 132.25" stroke="#EC325A" stroke-width="1.41452"/>
<path d="M512.262 7.74686C503.473 3.42642 493.584 1 483.129 1C446.607 1 417 30.6068 417 67.1286C417 96.3801 435.993 121.196 462.319 129.916" stroke="#EC325A" stroke-width="1.41452" stroke-linecap="round"/>
<circle r="3.18266" transform="matrix(-1 0 0 1 513.183 8.18266)" fill="#21A0A0"/>
<circle r="4.59717" transform="matrix(-1 0 0 1 494.798 131.298)" fill="#21A0A0" stroke="#263D59" stroke-width="3.53629"/>
<g clip-path="url(#clip2)">
<path d="M507.107 86.0266C506.895 83.454 505.665 80.6057 505.116 79.0969C504.568 77.5881 504.746 76.1083 504.982 74.4061C505.217 72.7039 505.895 68.9416 505.794 65.2857C505.549 51.8373 495.164 41.0195 482.39 41.0195C469.462 41.0195 458.986 52.1033 458.986 65.7693C458.979 69.339 459.709 72.8712 461.13 76.1422C460.708 77.3878 460.494 78.695 460.496 80.0109C460.496 86.1717 465.135 91.1865 470.919 91.3702C470.936 91.3758 470.954 91.3758 470.972 91.3702C472.647 91.3759 474.316 91.1761 475.943 90.7754C476.538 90.564 477.189 90.5778 477.775 90.8141C478.549 91.0366 481.049 91.5927 482.88 91.9651C484.712 92.3374 486.015 93.1595 488.232 94.6489C490.337 96.061 492.193 97.4731 495.501 97.9035C495.978 97.9763 496.46 98.0135 496.943 98.0147C502.573 98.0147 507.136 93.1788 507.136 87.2356C507.16 86.8197 507.16 86.4183 507.107 86.0266Z" fill="#EC325A"/>
<path opacity="0.1" d="M507.106 86.0267C506.895 83.454 505.664 80.6057 505.116 79.0969C504.568 77.5882 504.746 76.1084 504.981 74.4062C505.217 72.704 505.895 68.9417 505.794 65.2858C505.76 63.4288 505.53 61.5808 505.106 59.7729C505.299 63.2548 505.174 70.1216 501.073 76.7951C496.174 84.7645 484.39 88.7541 476.87 85.5479C469.351 82.3418 465.51 78.8406 463.24 74.8172C460.971 70.7938 460.125 73.4003 461.125 76.1229C460.624 77.5758 460.415 79.1144 460.51 80.6492C460.611 83.2073 461.578 85.6539 463.25 87.5838C464.196 88.7132 465.367 89.6309 466.687 90.2781C468.006 90.9252 469.446 91.2873 470.914 91.3413C470.931 91.3468 470.949 91.3468 470.967 91.3413C472.641 91.3469 474.311 91.1472 475.938 90.7465C476.533 90.535 477.184 90.5488 477.769 90.7852C478.544 91.0076 481.044 91.5637 482.875 91.9361C484.707 92.3084 486.01 93.1305 488.226 94.62C490.332 96.032 492.188 97.4441 495.496 97.8745C495.973 97.9473 496.455 97.9845 496.938 97.9857C502.568 97.9857 507.131 93.1499 507.131 87.2066C507.159 86.8198 507.159 86.4184 507.106 86.0267ZM463.731 83.7877C462.332 84.2326 461.462 83.1445 461.303 81.9984C461.144 80.8524 461.115 78.2265 461.644 78.0331C462.438 77.7381 462.649 78.1733 463.231 79.0631C463.725 79.8546 464.34 80.5629 465.053 81.1618C465.611 81.5777 465.135 83.338 463.731 83.7877ZM506.159 87.9465C505.679 93.087 500.154 95.4517 497.933 95.6403C495.712 95.8289 489.481 92.439 493.707 90.0163C498.707 87.1147 501.88 83.5894 502.727 82.8641C504.054 81.7228 506.635 82.8109 506.159 87.9465Z" fill="black"/>
<path d="M478.505 62.8386C477.947 62.8663 477.402 62.6706 476.987 62.2945C476.573 61.9184 476.323 61.3924 476.293 60.8317V55.6139C476.351 55.0645 476.608 54.5559 477.016 54.1861C477.424 53.8164 477.953 53.6118 478.503 53.6118C479.052 53.6118 479.581 53.8164 479.989 54.1861C480.397 54.5559 480.655 55.0645 480.712 55.6139V60.8317C480.682 61.3915 480.433 61.9167 480.02 62.2927C479.606 62.6687 479.062 62.8649 478.505 62.8386Z" fill="black"/>
<path d="M496.804 63.0853C496.246 63.1129 495.701 62.9173 495.286 62.5412C494.872 62.1651 494.622 61.6391 494.592 61.0784V55.8702C494.649 55.3208 494.907 54.8122 495.315 54.4425C495.723 54.0728 496.252 53.8682 496.801 53.8682C497.351 53.8682 497.88 54.0728 498.288 54.4425C498.696 54.8122 498.954 55.3208 499.011 55.8702V61.0881C498.978 61.6462 498.728 62.1689 498.315 62.5428C497.902 62.9168 497.359 63.1117 496.804 63.0853Z" fill="black"/>
</g>
<g filter="url(#filter4_d)">
<circle cx="449.501" cy="370.5" r="17.499" fill="white"/>
</g>
<path d="M449.5 345C435.417 345 424 356.417 424 370.5" stroke="#EC7D10" stroke-width="6" stroke-linecap="round"/>
<path d="M475 370.5C475 384.583 463.583 396 449.5 396" stroke="#EC7D10" stroke-width="6" stroke-linecap="round"/>
<path d="M441.172 373.447C442.274 372.529 443.152 371.765 443.807 371.157C444.461 370.537 445.007 369.894 445.443 369.228C445.879 368.562 446.097 367.908 446.097 367.265C446.097 366.679 445.959 366.22 445.684 365.887C445.408 365.554 444.984 365.387 444.41 365.387C443.835 365.387 443.393 365.583 443.083 365.973C442.774 366.352 442.613 366.874 442.601 367.54H440.259C440.305 366.162 440.713 365.118 441.482 364.406C442.263 363.694 443.25 363.338 444.444 363.338C445.753 363.338 446.757 363.688 447.458 364.389C448.158 365.077 448.508 365.99 448.508 367.127C448.508 368.022 448.267 368.878 447.785 369.693C447.303 370.508 446.752 371.22 446.132 371.828C445.512 372.425 444.702 373.149 443.703 373.998H448.784V375.996H440.276V374.205L441.172 373.447ZM450.303 369.727C450.303 367.741 450.659 366.185 451.371 365.06C452.094 363.935 453.288 363.373 454.953 363.373C456.617 363.373 457.806 363.935 458.518 365.06C459.241 366.185 459.602 367.741 459.602 369.727C459.602 371.725 459.241 373.292 458.518 374.429C457.806 375.565 456.617 376.134 454.953 376.134C453.288 376.134 452.094 375.565 451.371 374.429C450.659 373.292 450.303 371.725 450.303 369.727ZM457.226 369.727C457.226 368.878 457.169 368.166 457.054 367.592C456.95 367.006 456.732 366.53 456.399 366.162C456.078 365.795 455.596 365.611 454.953 365.611C454.31 365.611 453.822 365.795 453.489 366.162C453.167 366.53 452.949 367.006 452.834 367.592C452.731 368.166 452.679 368.878 452.679 369.727C452.679 370.6 452.731 371.335 452.834 371.932C452.938 372.517 453.156 372.994 453.489 373.361C453.822 373.717 454.31 373.895 454.953 373.895C455.596 373.895 456.084 373.717 456.417 373.361C456.749 372.994 456.968 372.517 457.071 371.932C457.174 371.335 457.226 370.6 457.226 369.727Z" fill="#263D59"/>
<circle cx="102.131" cy="185.131" r="15.131" fill="#DFE6EA"/>
<path d="M87 185.131C87 193.488 93.7744 200.262 102.131 200.262C110.488 200.262 117.262 193.488 117.262 185.131C117.262 176.774 110.488 170 102.131 170" stroke="#263D59" stroke-width="4.14547" stroke-linecap="round"/>
<path d="M106.671 180.993H100.223V183.845C100.499 183.542 100.885 183.294 101.381 183.101C101.877 182.908 102.414 182.811 102.993 182.811C104.026 182.811 104.88 183.046 105.555 183.514C106.244 183.982 106.747 184.589 107.064 185.333C107.381 186.077 107.539 186.883 107.539 187.751C107.539 189.363 107.085 190.644 106.175 191.595C105.266 192.532 103.985 193 102.331 193C101.229 193 100.272 192.814 99.4587 192.442C98.6458 192.056 98.0189 191.526 97.578 190.851C97.1371 190.176 96.896 189.397 96.8547 188.515H100.306C100.389 188.942 100.588 189.301 100.905 189.59C101.222 189.866 101.656 190.003 102.207 190.003C102.855 190.003 103.337 189.797 103.654 189.383C103.971 188.97 104.129 188.419 104.129 187.73C104.129 187.055 103.964 186.538 103.633 186.18C103.303 185.822 102.82 185.643 102.187 185.643C101.718 185.643 101.332 185.76 101.029 185.994C100.726 186.214 100.526 186.511 100.43 186.883H97.02V177.893H106.671V180.993Z" fill="#263D59"/>
<path d="M382.987 204.392C367.147 156.679 315.626 130.841 267.913 146.681C254.254 151.216 242.388 158.675 232.779 168.131" stroke="#263D59" stroke-width="1.94714" stroke-linecap="round"/>
<path d="M386.83 203.117L388.105 206.959L380.421 209.51L379.146 205.668L386.83 203.117ZM335.328 155.192C333.326 154.197 332.51 151.767 333.506 149.765C334.501 147.763 336.931 146.947 338.933 147.943L335.328 155.192ZM379.146 205.668C371.544 182.771 355.352 165.151 335.328 155.192L338.933 147.943C360.809 158.823 378.522 178.091 386.83 203.117L379.146 205.668Z" fill="#EC7D10"/>
<circle cx="225.614" cy="177.521" r="3.85799" fill="#EC325A"/>
<circle cx="62" cy="24" r="5" fill="#EC325A"/>
<circle cx="432" cy="439" r="5" fill="#21A0A0"/>
<defs>
<filter id="filter0_dii" x="171.886" y="35.7757" width="203.42" height="373.391" filterUnits="userSpaceOnUse" color-interpolation-filters="sRGB">
<feFlood flood-opacity="0" result="BackgroundImageFix"/>
<feColorMatrix in="SourceAlpha" type="matrix" values="0 0 0 0 0 0 0 0 0 0 0 0 0 0 0 0 0 0 127 0" result="hardAlpha"/>
<feOffset dy="3.88949"/>
<feGaussianBlur stdDeviation="8.55687"/>
<feColorMatrix type="matrix" values="0 0 0 0 0 0 0 0 0 0 0 0 0 0 0 0 0 0 0.04 0"/>
<feBlend mode="normal" in2="BackgroundImageFix" result="effect1_dropShadow"/>
<feBlend mode="normal" in="SourceGraphic" in2="effect1_dropShadow" result="shape"/>
<feColorMatrix in="SourceAlpha" type="matrix" values="0 0 0 0 0 0 0 0 0 0 0 0 0 0 0 0 0 0 127 0" result="hardAlpha"/>
<feOffset/>
<feGaussianBlur stdDeviation="4.27844"/>
<feComposite in2="hardAlpha" operator="arithmetic" k2="-1" k3="1"/>
<feColorMatrix type="matrix" values="0 0 0 0 0 0 0 0 0 0 0 0 0 0 0 0 0 0 0.12 0"/>
<feBlend mode="normal" in2="shape" result="effect2_innerShadow"/>
<feColorMatrix in="SourceAlpha" type="matrix" values="0 0 0 0 0 0 0 0 0 0 0 0 0 0 0 0 0 0 127 0" result="hardAlpha"/>
<feOffset/>
<feGaussianBlur stdDeviation="0.777897"/>
<feComposite in2="hardAlpha" operator="arithmetic" k2="-1" k3="1"/>
<feColorMatrix type="matrix" values="0 0 0 0 0 0 0 0 0 0 0 0 0 0 0 0 0 0 0.06 0"/>
<feBlend mode="normal" in2="effect2_innerShadow" result="effect3_innerShadow"/>
</filter>
<filter id="filter1_d" x="194.446" y="54.4452" width="158.302" height="328.273" filterUnits="userSpaceOnUse" color-interpolation-filters="sRGB">
<feFlood flood-opacity="0" result="BackgroundImageFix"/>
<feColorMatrix in="SourceAlpha" type="matrix" values="0 0 0 0 0 0 0 0 0 0 0 0 0 0 0 0 0 0 127 0" result="hardAlpha"/>
<feOffset/>
<feGaussianBlur stdDeviation="3.11159"/>
<feColorMatrix type="matrix" values="0 0 0 0 0 0 0 0 0 0 0 0 0 0 0 0 0 0 0.08 0"/>
<feBlend mode="normal" in2="BackgroundImageFix" result="effect1_dropShadow"/>
<feBlend mode="normal" in="SourceGraphic" in2="effect1_dropShadow" result="shape"/>
</filter>
<filter id="filter2_d" x="9.38818" y="312.259" width="115.48" height="115.48" filterUnits="userSpaceOnUse" color-interpolation-filters="sRGB">
<feFlood flood-opacity="0" result="BackgroundImageFix"/>
<feColorMatrix in="SourceAlpha" type="matrix" values="0 0 0 0 0 0 0 0 0 0 0 0 0 0 0 0 0 0 127 0" result="hardAlpha"/>
<feOffset/>
<feGaussianBlur stdDeviation="5"/>
<feColorMatrix type="matrix" values="0 0 0 0 0 0 0 0 0 0 0 0 0 0 0 0 0 0 0.15 0"/>
<feBlend mode="normal" in2="BackgroundImageFix" result="effect1_dropShadow"/>
<feBlend mode="normal" in="SourceGraphic" in2="effect1_dropShadow" result="shape"/>
</filter>
<filter id="filter3_d" x="425.388" y="10.2593" width="115.48" height="115.48" filterUnits="userSpaceOnUse" color-interpolation-filters="sRGB">
<feFlood flood-opacity="0" result="BackgroundImageFix"/>
<feColorMatrix in="SourceAlpha" type="matrix" values="0 0 0 0 0 0 0 0 0 0 0 0 0 0 0 0 0 0 127 0" result="hardAlpha"/>
<feOffset/>
<feGaussianBlur stdDeviation="5"/>
<feColorMatrix type="matrix" values="0 0 0 0 0 0 0 0 0 0 0 0 0 0 0 0 0 0 0.15 0"/>
<feBlend mode="normal" in2="BackgroundImageFix" result="effect1_dropShadow"/>
<feBlend mode="normal" in="SourceGraphic" in2="effect1_dropShadow" result="shape"/>
</filter>
<filter id="filter4_d" x="425.228" y="346.227" width="48.5457" height="48.5457" filterUnits="userSpaceOnUse" color-interpolation-filters="sRGB">
<feFlood flood-opacity="0" result="BackgroundImageFix"/>
<feColorMatrix in="SourceAlpha" type="matrix" values="0 0 0 0 0 0 0 0 0 0 0 0 0 0 0 0 0 0 127 0" result="hardAlpha"/>
<feOffset/>
<feGaussianBlur stdDeviation="3.38691"/>
<feColorMatrix type="matrix" values="0 0 0 0 0 0 0 0 0 0 0 0 0 0 0 0 0 0 0.1 0"/>
<feBlend mode="normal" in2="BackgroundImageFix" result="effect1_dropShadow"/>
<feBlend mode="normal" in="SourceGraphic" in2="effect1_dropShadow" result="shape"/>
</filter>
<clipPath id="clip0">
<rect width="26.1995" height="12" fill="white" transform="translate(211 82.9999)"/>
</clipPath>
<clipPath id="clip1">
<rect width="50.9225" height="57.399" fill="white" transform="translate(39.897 344.184)"/>
</clipPath>
<clipPath id="clip2">
<rect width="48.169" height="57" fill="white" transform="translate(459 41)"/>
</clipPath>
</defs>
</svg>
