<svg width="98" height="91" viewBox="0 0 98 91" fill="none" xmlns="http://www.w3.org/2000/svg">
<g clip-path="url(#clip0)">
<path d="M23.474 52.909H1.80634C0.932876 52.909 0.224609 52.2558 0.224609 51.4526C0.224609 50.6494 0.932876 49.9981 1.80634 49.9981H23.474C24.3475 49.9981 25.0557 50.6494 25.0557 51.4526C25.0557 52.2558 24.3399 52.909 23.474 52.909Z" fill="#DFE6EA"/>
<path d="M24.3189 62.0443H7.85219C6.97872 62.0443 6.26855 61.393 6.26855 60.5898C6.26855 59.7866 6.97872 59.1353 7.85219 59.1353H24.3189C25.1924 59.1353 25.9007 59.7866 25.9007 60.5898C25.9007 61.393 25.1924 62.0443 24.3189 62.0443Z" fill="#DFE6EA"/>
<path d="M27.6134 69.6795H17.6198C16.7464 69.6795 16.0381 69.0282 16.0381 68.225C16.0381 67.4218 16.7464 66.7705 17.6198 66.7705H27.6134C28.4869 66.7705 29.1951 67.4218 29.1951 68.225C29.1951 69.0282 28.4869 69.6795 27.6134 69.6795Z" fill="#DFE6EA"/>
<path d="M25.7946 43.7718H9.32783C8.45436 43.7718 7.74609 43.1205 7.74609 42.3154C7.74609 41.5103 8.45436 40.8609 9.32783 40.8609H25.7946C26.6699 40.8609 27.3782 41.5122 27.3782 42.3154C27.3782 43.1186 26.6699 43.7718 25.7946 43.7718Z" fill="#DFE6EA"/>
<path d="M29.0872 36.1365H19.0974C18.2239 36.1365 17.5156 35.4852 17.5156 34.682C17.5156 33.8788 18.2239 33.2256 19.0974 33.2256H29.0872C29.9606 33.2256 30.6689 33.8769 30.6689 34.682C30.6689 35.4871 29.9644 36.1365 29.0872 36.1365Z" fill="#DFE6EA"/>
<path d="M43.0381 25.7556L35.6326 17.15C35.3807 16.8577 35.023 16.6772 34.6381 16.6484C34.2533 16.6196 33.8727 16.7447 33.58 16.9962L28.9753 20.9553C28.683 21.2069 28.5026 21.5643 28.4738 21.9489C28.445 22.3334 28.57 22.7137 28.8215 23.0061L36.227 31.6116C36.4786 31.9043 36.8362 32.0851 37.2211 32.1142C37.6059 32.1434 37.9867 32.0187 38.2796 31.7673L42.8843 27.8044C43.1767 27.5525 43.3571 27.1948 43.3859 26.8099C43.4148 26.4251 43.2897 26.0445 43.0381 25.7518V25.7556Z" fill="#43B3B2"/>
<path d="M38.7099 14.5126L35.5844 10.8782C35.4601 10.7331 35.3084 10.614 35.138 10.5276C34.9676 10.4413 34.7818 10.3894 34.5914 10.3749C34.4009 10.3605 34.2094 10.3837 34.0279 10.4434C33.8464 10.503 33.6785 10.5978 33.5337 10.7225L22.7901 19.9603C22.6447 20.0845 22.5252 20.2362 22.4384 20.4066C22.3517 20.5771 22.2995 20.7629 22.2846 20.9536C22.2698 21.1442 22.2928 21.3359 22.3521 21.5177C22.4115 21.6995 22.5061 21.8678 22.6305 22.013L25.7541 25.6455C26.0058 25.9381 26.3634 26.1189 26.7482 26.1481C27.1331 26.1773 27.5138 26.0525 27.8068 25.8012L38.5504 16.5633C38.8435 16.3125 39.025 15.9556 39.0549 15.571C39.0848 15.1864 38.9607 14.8057 38.7099 14.5126Z" fill="#21A0A0"/>
<path d="M91.1787 21.9484C91.1646 21.758 91.1131 21.5723 91.027 21.4019C90.941 21.2315 90.8222 21.0797 90.6774 20.9553L86.0727 16.9962C85.78 16.7447 85.3995 16.6196 85.0146 16.6484C84.6297 16.6772 84.272 16.8577 84.0201 17.15L76.6146 25.7556C76.363 26.0483 76.2379 26.4289 76.2668 26.8137C76.2956 27.1986 76.476 27.5563 76.7684 27.8082L81.3731 31.7673C81.666 32.0187 82.0468 32.1434 82.4316 32.1142C82.8165 32.0851 83.1741 31.9043 83.4257 31.6116L90.8312 23.0061C90.9559 22.8613 91.0508 22.6934 91.1105 22.5119C91.1701 22.3304 91.1933 22.1389 91.1787 21.9484Z" fill="#43B3B2"/>
<path d="M96.8752 19.9603L86.1221 10.7149C85.9773 10.5902 85.8093 10.4954 85.6279 10.4358C85.4464 10.3761 85.2549 10.3529 85.0644 10.3673C84.8739 10.3818 84.6881 10.4337 84.5177 10.52C84.3473 10.6064 84.1956 10.7255 84.0713 10.8706L80.9458 14.5126C80.6945 14.8055 80.5697 15.1862 80.5989 15.5711C80.6281 15.956 80.8089 16.3135 81.1015 16.5652L91.8452 25.8031C92.1095 26.0299 92.4463 26.1545 92.7946 26.1543H92.9047C93.289 26.1237 93.6458 25.943 93.8978 25.6512L97.0214 22.0168C97.2729 21.7244 97.3979 21.3441 97.3691 20.9596C97.3402 20.575 97.1599 20.2176 96.8676 19.966L96.8752 19.9603Z" fill="#21A0A0"/>
<path d="M55.5684 8.49325H64.4929V21.244H55.5684V8.49325Z" fill="#A32642"/>
<path d="M65.507 0.333939H49.1029C48.737 0.33369 48.3745 0.405557 48.0363 0.545435C47.6982 0.685313 47.3909 0.890459 47.132 1.14915C46.8731 1.40784 46.6678 1.71501 46.5277 2.0531C46.3875 2.39118 46.3154 2.75357 46.3154 3.11954V6.50517C46.3154 7.24446 46.6091 7.95347 47.1319 8.47622C47.6546 8.99898 48.3636 9.29266 49.1029 9.29266H65.4196L69.3806 8.22362V1.46944L65.507 0.333939Z" fill="#C72C4E"/>
<path d="M70.9625 0.333939H65.1426C65.5085 0.33369 65.871 0.405557 66.2092 0.545435C66.5473 0.685313 66.8547 0.890459 67.1135 1.14915C67.3724 1.40784 67.5777 1.71501 67.7178 2.0531C67.858 2.39118 67.9301 2.75357 67.9301 3.11954V6.50517C67.9301 7.24446 67.6364 7.95347 67.1136 8.47622C66.5909 8.99898 65.8819 9.29266 65.1426 9.29266H70.9625C71.7018 9.29266 72.4108 8.99898 72.9336 8.47622C73.4563 7.95347 73.75 7.24446 73.75 6.50517V3.11954C73.75 2.75357 73.6779 2.39118 73.5378 2.0531C73.3977 1.71501 73.1923 1.40784 72.9335 1.14915C72.6746 0.890459 72.3673 0.685313 72.0291 0.545435C71.6909 0.405557 71.3285 0.33369 70.9625 0.333939Z" fill="#A32642"/>
<path d="M50.436 89.7218C30.464 84.4221 18.5715 63.9356 23.8712 43.9598C25.9035 36.3078 30.3098 29.4972 36.4566 24.5073C42.6035 19.5174 50.1743 16.6052 58.0807 16.1892C61.8784 15.9994 95.0701 22.0756 95.0701 52.4172C95.0701 74.6469 74.7924 92.2662 57.1218 90.8668C54.8633 90.6899 52.6255 90.3086 50.436 89.7275V89.7218Z" fill="#EC325A"/>
<path d="M60.0387 16.1475C59.0589 16.1475 58.0886 16.1848 57.1278 16.2595C76.4257 17.7406 91.6259 33.8807 91.6259 53.5603C91.6259 73.2399 76.4257 89.3762 57.1221 90.863C58.0829 90.9351 59.0532 90.975 60.033 90.975C80.6962 90.975 97.4401 74.2235 97.4401 53.5679C97.4401 32.9123 80.6905 16.1608 60.033 16.1608L60.0387 16.1475Z" fill="#C72C4E"/>
<path d="M60.0323 82.698C76.1235 82.698 89.1681 69.6534 89.1681 53.5622C89.1681 37.4709 76.1235 24.4264 60.0323 24.4264C43.941 24.4264 30.8965 37.4709 30.8965 53.5622C30.8965 69.6534 43.941 82.698 60.0323 82.698Z" fill="#DFE6EA"/>
<path d="M63.7975 24.6695C61.5725 24.3785 59.3215 24.3447 57.0889 24.5688C57.3832 24.5992 57.6794 24.6315 57.9775 24.6695C65.0636 25.5946 71.5626 29.0914 76.239 34.495C80.9155 39.8986 83.4432 46.8322 83.3417 53.9777C83.2402 61.1231 80.5166 67.9822 75.6885 73.2508C70.8605 78.5194 64.2648 81.8302 57.1553 82.5537C64.7667 83.3075 72.3692 81.0381 78.3219 76.2354C84.2746 71.4326 88.1 64.4818 88.9725 56.8831C89.8449 49.2844 87.6944 41.6474 82.9851 35.6206C78.2758 29.5937 71.3854 25.6603 63.8013 24.6695H63.7975Z" fill="#C3CBD0"/>
<path d="M60.0384 32.7528C59.6794 32.7528 59.335 32.6102 59.0811 32.3563C58.8272 32.1024 58.6846 31.758 58.6846 31.3989V27.6582C58.6846 27.2992 58.8272 26.9548 59.0811 26.7009C59.335 26.447 59.6794 26.3044 60.0384 26.3044C60.3975 26.3044 60.7419 26.447 60.9958 26.7009C61.2497 26.9548 61.3923 27.2992 61.3923 27.6582V31.3989C61.3923 31.758 61.2497 32.1024 60.9958 32.3563C60.7419 32.6102 60.3975 32.7528 60.0384 32.7528Z" fill="#263D59"/>
<path d="M75.8232 39.2203C75.5562 39.2186 75.2956 39.1381 75.0742 38.9887C74.8529 38.8394 74.6806 38.6279 74.5791 38.3809C74.4776 38.1339 74.4515 37.8624 74.5039 37.6006C74.5563 37.3387 74.685 37.0983 74.8738 36.9094L77.5075 34.2605C77.7613 34.0064 78.1056 33.8636 78.4648 33.8634C78.8239 33.8632 79.1684 34.0057 79.4225 34.2595C79.6765 34.5134 79.8194 34.8577 79.8195 35.2168C79.8197 35.576 79.6772 35.9205 79.4234 36.1745L76.7821 38.8177C76.6567 38.9447 76.5074 39.0456 76.3429 39.1147C76.1783 39.1838 76.0017 39.2197 75.8232 39.2203Z" fill="#263D59"/>
<path d="M86.1532 54.9578H82.4125C82.0534 54.9578 81.709 54.8152 81.4551 54.5613C81.2012 54.3074 81.0586 53.963 81.0586 53.604C81.0586 53.2449 81.2012 52.9005 81.4551 52.6466C81.709 52.3927 82.0534 52.2501 82.4125 52.2501H86.1532C86.5122 52.2501 86.8566 52.3927 87.1105 52.6466C87.3644 52.9005 87.5071 53.2449 87.5071 53.604C87.5071 53.963 87.3644 54.3074 87.1105 54.5613C86.8566 54.8152 86.5122 54.9578 86.1532 54.9578Z" fill="#263D59"/>
<path d="M78.5878 73.388C78.2314 73.386 77.8901 73.2434 77.6383 72.9911L74.9857 70.3384C74.8424 70.2171 74.726 70.0673 74.6437 69.8986C74.5615 69.7298 74.5152 69.5458 74.5079 69.3582C74.5005 69.1707 74.5323 68.9836 74.6011 68.809C74.6699 68.6343 74.7743 68.4759 74.9077 68.3437C75.041 68.2116 75.2004 68.1086 75.3756 68.0414C75.5509 67.9741 75.7382 67.944 75.9257 67.953C76.1132 67.9621 76.2968 68.01 76.4648 68.0937C76.6328 68.1775 76.7816 68.2953 76.9016 68.4396L79.5467 71.0847C79.7357 71.2744 79.8644 71.5158 79.9163 71.7786C79.9683 72.0413 79.9413 72.3136 79.8387 72.561C79.7362 72.8084 79.5626 73.0198 79.34 73.1687C79.1173 73.3176 78.8556 73.3972 78.5878 73.3975V73.388Z" fill="#263D59"/>
<path d="M60.2074 81.0707C59.8483 81.0707 59.504 80.928 59.2501 80.6741C58.9962 80.4202 58.8535 80.0759 58.8535 79.7168V75.9761C58.8535 75.617 58.9962 75.2727 59.2501 75.0188C59.504 74.7649 59.8483 74.6222 60.2074 74.6222C60.5665 74.6222 60.9108 74.7649 61.1647 75.0188C61.4186 75.2727 61.5613 75.617 61.5613 75.9761V79.7168C61.5613 80.0759 61.4186 80.4202 61.1647 80.6741C60.9108 80.928 60.5665 81.0707 60.2074 81.0707Z" fill="#263D59"/>
<path d="M41.7765 73.5076C41.5095 73.5055 41.2491 73.4245 41.0279 73.2749C40.8067 73.1253 40.6346 72.9137 40.5332 72.6667C40.4318 72.4197 40.4056 72.1482 40.4579 71.8864C40.5102 71.6245 40.6386 71.3839 40.8271 71.1948L43.4722 68.5497C43.7282 68.3066 44.069 68.1731 44.422 68.1776C44.775 68.1822 45.1123 68.3244 45.3619 68.5741C45.6115 68.8237 45.7538 69.161 45.7583 69.514C45.7629 69.867 45.6294 70.2078 45.3862 70.4638L42.7336 73.1107C42.608 73.2366 42.4588 73.3364 42.2946 73.4045C42.1304 73.4726 41.9543 73.5076 41.7765 73.5076Z" fill="#263D59"/>
<path d="M37.8348 55.1249H34.0941C33.735 55.1249 33.3907 54.9823 33.1368 54.7284C32.8829 54.4745 32.7402 54.1301 32.7402 53.7711C32.7402 53.412 32.8829 53.0676 33.1368 52.8137C33.3907 52.5598 33.735 52.4172 34.0941 52.4172H37.8348C38.1939 52.4172 38.5382 52.5598 38.7921 52.8137C39.0461 53.0676 39.1887 53.412 39.1887 53.7711C39.1887 54.1301 39.0461 54.4745 38.7921 54.7284C38.5382 54.9823 38.1939 55.1249 37.8348 55.1249Z" fill="#263D59"/>
<path d="M44.3021 39.3399C44.1256 39.3393 43.9509 39.304 43.788 39.2359C43.6251 39.1678 43.4772 39.0683 43.3527 38.943L40.7076 36.2979C40.5766 36.1735 40.4718 36.0241 40.3994 35.8584C40.3271 35.6928 40.2886 35.5144 40.2862 35.3337C40.2839 35.153 40.3178 34.9737 40.3859 34.8062C40.454 34.6388 40.5549 34.4867 40.6827 34.359C40.8105 34.2312 40.9626 34.1302 41.13 34.0622C41.2974 33.9941 41.4767 33.9602 41.6574 33.9625C41.8381 33.9649 42.0166 34.0033 42.1822 34.0757C42.3478 34.1481 42.4972 34.2529 42.6217 34.3839L45.2686 37.029C45.458 37.2185 45.5869 37.4598 45.639 37.7225C45.6911 37.9852 45.6641 38.2575 45.5615 38.5049C45.4588 38.7523 45.2851 38.9637 45.0623 39.1123C44.8395 39.2609 44.5776 39.3401 44.3097 39.3399H44.3021Z" fill="#263D59"/>
<path d="M60.0385 52.909C59.6526 52.9085 59.2826 52.7548 59.0099 52.4817C58.7372 52.2087 58.584 51.8385 58.584 51.4526V41.666C58.584 41.2802 58.7372 40.9102 59.01 40.6375C59.2828 40.3647 59.6527 40.2115 60.0385 40.2115C60.4243 40.2115 60.7942 40.3647 61.067 40.6375C61.3398 40.9102 61.493 41.2802 61.493 41.666V51.4488C61.4935 51.6402 61.4563 51.8298 61.3834 52.0069C61.3106 52.1839 61.2035 52.3448 61.0685 52.4804C60.9334 52.616 60.7729 52.7237 60.5961 52.7972C60.4194 52.8708 60.2299 52.9087 60.0385 52.909Z" fill="#1D3045"/>
<path d="M72.2741 66.9205C72.0829 66.921 71.8936 66.8837 71.717 66.8107C71.5403 66.7377 71.3799 66.6305 71.2449 66.4952L60.6532 55.9073C60.5181 55.7721 60.4111 55.6117 60.338 55.4351C60.265 55.2586 60.2275 55.0694 60.2275 54.8784C60.2276 54.6873 60.2653 54.4982 60.3385 54.3217C60.4117 54.1452 60.519 53.9849 60.6541 53.8499C60.7893 53.7148 60.9497 53.6078 61.1262 53.5347C61.3028 53.4617 61.492 53.4242 61.683 53.4242C61.8741 53.4243 62.0632 53.4621 62.2397 53.5352C62.4161 53.6084 62.5765 53.7157 62.7115 53.8508L73.3032 64.4425C73.505 64.6463 73.642 64.9051 73.6971 65.1864C73.7522 65.4678 73.723 65.7591 73.613 66.0239C73.503 66.2887 73.3173 66.5151 73.079 66.6746C72.8408 66.8341 72.5608 66.9197 72.2741 66.9205Z" fill="#1D3045"/>
<path d="M60.2279 56.3402C59.6496 56.3402 59.0842 56.1687 58.6033 55.8474C58.1224 55.5261 57.7476 55.0694 57.5263 54.535C57.305 54.0007 57.2471 53.4127 57.3599 52.8455C57.4727 52.2783 57.7512 51.7572 58.1602 51.3483C58.5692 50.9393 59.0902 50.6608 59.6574 50.548C60.2247 50.4351 60.8126 50.493 61.347 50.7144C61.8813 50.9357 62.338 51.3105 62.6593 51.7914C62.9806 52.2723 63.1521 52.8376 63.1521 53.416C63.1516 54.1914 62.8434 54.9349 62.2951 55.4832C61.7468 56.0314 61.0033 56.3397 60.2279 56.3402Z" fill="#0B151E"/>
</g>
<defs>
<clipPath id="clip0">
<rect width="97.2206" height="90.6411" fill="white" transform="translate(0.224609 0.333908)"/>
</clipPath>
</defs>
</svg>
