<svg width="91" height="90" viewBox="0 0 91 90" fill="none" xmlns="http://www.w3.org/2000/svg">
<g clip-path="url(#clip0)">
<path d="M12.6187 31.9026C11.8786 21.5442 21.4165 13.5581 31.4275 15.9897C32.5373 11.0064 35.4725 6.61905 39.6552 3.69156C43.8379 0.76408 48.965 -0.491444 54.0271 0.172189C59.0892 0.835822 63.7194 3.37052 67.0062 7.27724C70.2929 11.184 71.998 16.1796 71.7858 21.2806H71.8032C76.5933 21.2817 81.1918 23.1613 84.6112 26.5157C88.0306 29.8701 89.9982 34.4318 90.0912 39.2209C90.1842 44.0101 88.3953 48.6447 85.1087 52.1293C81.8222 55.614 77.3001 57.6708 72.5137 57.8579V57.8736H13.7359C10.3839 57.8712 7.16212 56.575 4.74233 54.2554C2.32254 51.9358 0.891442 48.7717 0.747383 45.4228C0.603324 42.0739 1.75742 38.7986 3.96908 36.2797C6.18073 33.7609 9.27926 32.1928 12.6187 31.9026Z" fill="#43B3B2"/>
<path d="M12.6192 31.9028C11.8791 21.5444 21.417 13.5583 31.4281 15.9899C32.1016 12.9736 33.4503 10.1494 35.3728 7.72951C37.2952 5.30966 39.7414 3.35724 42.5272 2.0191C45.313 0.680958 48.366 -0.00806267 51.4565 0.00386002C54.5471 0.0157827 57.5947 0.728339 60.3701 2.08793C59.6893 2.01986 58.9998 1.9832 58.3015 1.9832C53.6549 1.98357 49.1471 3.56734 45.5214 6.4734C41.8956 9.37946 39.3684 13.4343 38.3563 17.9694C28.3436 15.5378 18.8056 23.5239 19.5458 33.8823C16.8278 34.1176 14.2526 35.2016 12.1845 36.9808C10.1164 38.76 8.66002 41.1444 8.02135 43.7967C7.38269 46.449 7.59408 49.235 8.62563 51.7606C9.65718 54.2862 11.4567 56.4235 13.7696 57.8703H13.7364C10.3911 57.858 7.17907 56.5574 4.76753 54.2389C2.35598 51.9203 0.93024 48.7619 0.786448 45.4196C0.642657 42.0774 1.79186 38.8082 3.99537 36.2911C6.19888 33.7739 9.28732 32.2024 12.6192 31.9028Z" fill="#21A0A0"/>
<path d="M29.3486 48.491V52.141" stroke="#263D59" stroke-width="2.04688" stroke-miterlimit="10" stroke-linecap="round"/>
<path d="M40.0137 48.491V52.141" stroke="#263D59" stroke-width="2.04688" stroke-miterlimit="10" stroke-linecap="round"/>
<path d="M50.6797 48.491V52.141" stroke="#263D59" stroke-width="2.04688" stroke-miterlimit="10" stroke-linecap="round"/>
<path d="M40.0137 61.1344V85.084" stroke="#263D59" stroke-width="2.04688" stroke-miterlimit="10" stroke-linecap="round"/>
<path d="M50.6797 61.1344V85.084" stroke="#263D59" stroke-width="2.04688" stroke-miterlimit="10" stroke-linecap="round"/>
<path d="M61.3447 48.491V52.141" stroke="#263D59" stroke-width="2.04688" stroke-miterlimit="10" stroke-linecap="round"/>
<path d="M29.3483 61.1344V71.9065H15.6768" stroke="#263D59" stroke-width="2.04688" stroke-linecap="round" stroke-linejoin="round"/>
<path d="M61.3447 61.1344V71.9065H75.0163" stroke="#263D59" stroke-width="2.04688" stroke-linecap="round" stroke-linejoin="round"/>
<path d="M15.8093 75.3942C17.5389 75.3942 18.9409 73.9921 18.9409 72.2626C18.9409 70.533 17.5389 69.131 15.8093 69.131C14.0798 69.131 12.6777 70.533 12.6777 72.2626C12.6777 73.9921 14.0798 75.3942 15.8093 75.3942Z" fill="#EC325A"/>
<path d="M40.0134 89.6418C41.743 89.6418 43.145 88.2397 43.145 86.5101C43.145 84.7806 41.743 83.3785 40.0134 83.3785C38.2839 83.3785 36.8818 84.7806 36.8818 86.5101C36.8818 88.2397 38.2839 89.6418 40.0134 89.6418Z" fill="#EC325A"/>
<path d="M50.6795 89.6418C52.409 89.6418 53.8111 88.2397 53.8111 86.5101C53.8111 84.7806 52.409 83.3785 50.6795 83.3785C48.9499 83.3785 47.5479 84.7806 47.5479 86.5101C47.5479 88.2397 48.9499 89.6418 50.6795 89.6418Z" fill="#EC325A"/>
<path d="M75.0164 75.3942C76.7459 75.3942 78.148 73.9921 78.148 72.2626C78.148 70.533 76.7459 69.131 75.0164 69.131C73.2868 69.131 71.8848 70.533 71.8848 72.2626C71.8848 73.9921 73.2868 75.3942 75.0164 75.3942Z" fill="#EC325A"/>
</g>
<defs>
<clipPath id="clip0">
<rect width="89.3747" height="89.64" fill="white" transform="translate(0.725586)"/>
</clipPath>
</defs>
</svg>
