<svg width="99" height="82" viewBox="0 0 99 82" fill="none" xmlns="http://www.w3.org/2000/svg">
<g clip-path="url(#clip0)">
<path d="M0.635742 16.6436H98.0812V79.7674C98.0812 80.2554 97.8874 80.7233 97.5424 81.0684C97.1973 81.4134 96.7294 81.6073 96.2414 81.6073H2.47555C1.9876 81.6073 1.51964 81.4134 1.17461 81.0684C0.829579 80.7233 0.635742 80.2554 0.635742 79.7674L0.635742 16.6436Z" fill="#DFE6EA"/>
<path d="M2.47555 0.404213H96.2414C96.7294 0.404213 97.1973 0.598049 97.5424 0.94308C97.8874 1.28811 98.0812 1.75607 98.0812 2.24402V22.0588H0.635742V2.24402C0.635742 1.75607 0.829579 1.28811 1.17461 0.94308C1.51964 0.598049 1.9876 0.404213 2.47555 0.404213Z" fill="#EC325A"/>
<path d="M41.2376 13.936H38.5331C38.17 13.9482 37.8083 13.8873 37.4693 13.7568C37.1303 13.6263 36.821 13.4289 36.5599 13.1765C36.2988 12.924 36.0911 12.6215 35.9493 12.2871C35.8075 11.9527 35.7344 11.5932 35.7344 11.23C35.7344 10.8667 35.8075 10.5072 35.9493 10.1728C36.0911 9.8384 36.2988 9.53595 36.5599 9.28347C36.821 9.03098 37.1303 8.83362 37.4693 8.70313C37.8083 8.57264 38.17 8.51169 38.5331 8.52391H41.2376C41.6006 8.51169 41.9624 8.57264 42.3014 8.70313C42.6404 8.83362 42.9496 9.03098 43.2108 9.28347C43.4719 9.53595 43.6795 9.8384 43.8214 10.1728C43.9632 10.5072 44.0363 10.8667 44.0363 11.23C44.0363 11.5932 43.9632 11.9527 43.8214 12.2871C43.6795 12.6215 43.4719 12.924 43.2108 13.1765C42.9496 13.4289 42.6404 13.6263 42.3014 13.7568C41.9624 13.8873 41.6006 13.9482 41.2376 13.936Z" fill="white"/>
<path d="M27.7055 13.936H24.9979C24.6349 13.9482 24.2731 13.8873 23.9341 13.7568C23.5951 13.6263 23.2859 13.4289 23.0247 13.1765C22.7636 12.924 22.5559 12.6215 22.4141 12.2871C22.2723 11.9527 22.1992 11.5932 22.1992 11.23C22.1992 10.8667 22.2723 10.5072 22.4141 10.1728C22.5559 9.8384 22.7636 9.53595 23.0247 9.28347C23.2859 9.03098 23.5951 8.83362 23.9341 8.70313C24.2731 8.57264 24.6349 8.51169 24.9979 8.52391H27.7055C28.4074 8.54754 29.0727 8.84299 29.5609 9.3479C30.0491 9.8528 30.322 10.5276 30.322 11.23C30.322 11.9323 30.0491 12.6071 29.5609 13.112C29.0727 13.6169 28.4074 13.9124 27.7055 13.936Z" fill="white"/>
<path d="M14.1703 13.936H11.4628C11.0997 13.9482 10.7379 13.8873 10.399 13.7568C10.06 13.6263 9.75071 13.4289 9.48958 13.1765C9.22845 12.924 9.02079 12.6215 8.87897 12.2871C8.73715 11.9527 8.66406 11.5932 8.66406 11.23C8.66406 10.8667 8.73715 10.5072 8.87897 10.1728C9.02079 9.8384 9.22845 9.53595 9.48958 9.28347C9.75071 9.03098 10.06 8.83362 10.399 8.70313C10.7379 8.57264 11.0997 8.51169 11.4628 8.52391H14.1703C14.5334 8.51169 14.8951 8.57264 15.2341 8.70313C15.5731 8.83362 15.8824 9.03098 16.1435 9.28347C16.4046 9.53595 16.6123 9.8384 16.7541 10.1728C16.8959 10.5072 16.969 10.8667 16.969 11.23C16.969 11.5932 16.8959 11.9527 16.7541 12.2871C16.6123 12.6215 16.4046 12.924 16.1435 13.1765C15.8824 13.4289 15.5731 13.6263 15.2341 13.7568C14.8951 13.8873 14.5334 13.9482 14.1703 13.936Z" fill="white"/>
<path d="M44.4848 45.4611H33.3693C32.9597 45.4432 32.5728 45.2678 32.2894 44.9716C32.0059 44.6754 31.8477 44.2812 31.8477 43.8712C31.8477 43.4613 32.0059 43.0671 32.2894 42.7709C32.5728 42.4747 32.9597 42.2993 33.3693 42.2813H44.4848C44.8944 42.2993 45.2812 42.4747 45.5647 42.7709C45.8481 43.0671 46.0064 43.4613 46.0064 43.8712C46.0064 44.2812 45.8481 44.6754 45.5647 44.9716C45.2812 45.2678 44.8944 45.4432 44.4848 45.4611Z" fill="#263D59"/>
<path d="M11.3867 45.4611L24.8909 37.6665L11.3867 29.8718" stroke="#21A0A0" stroke-width="4.44463" stroke-linecap="round" stroke-linejoin="round"/>
</g>
<defs>
<clipPath id="clip0">
<rect width="97.4455" height="81.2061" fill="white" transform="translate(0.635742 0.404213)"/>
</clipPath>
</defs>
</svg>
