<svg width="541" height="726" viewBox="0 0 541 726" fill="none" xmlns="http://www.w3.org/2000/svg">
<path d="M53.3374 290.928C50.1571 310.446 51.2538 330.423 56.5514 349.475C61.8489 368.528 71.221 386.203 84.0198 401.277C97.015 417.225 107.994 425.29 133.52 442.052C159.045 458.815 177.076 468.665 192.736 485.898C208.395 503.132 240.357 527.752 257.47 538.996C260.37 541.117 263.279 543.187 266.249 545.213C298.283 568.408 353.058 589.183 376.262 597.321C399.466 605.458 404.216 614.532 411 622.872C422.004 636.822 433.715 650.2 446.087 662.953C465.724 681.717 489.757 695.25 515.982 702.31C519.56 703.211 523.215 703.965 526.947 704.572C561.392 710.175 596.655 701.922 625.038 681.615C653.421 661.308 672.619 630.596 678.441 596.183L678.584 595.302C679.545 589.264 680.11 583.171 680.274 577.059C681.622 555.036 680.235 533.792 675.509 519.667C666.284 487.411 661.332 473.037 664.65 458.198C667.968 443.36 689.332 373.509 684.424 303.908C684.413 303.342 684.345 302.778 684.219 302.225C678.741 233.36 646.947 169.252 595.441 123.22C543.935 77.1877 476.676 52.7697 407.637 55.0381C388.092 54.7595 368.59 56.9512 349.593 61.5611C305.002 71.9341 263.417 92.4893 228.094 121.617C186.838 155.773 185.065 157.188 174.437 163.654C163.808 170.12 116.827 193.022 97.6341 210.6C74.0076 231.433 58.3497 259.827 53.3374 290.928Z" fill="#FFFAE3"/>
</svg>
