<svg width="304" height="383" viewBox="0 0 304 383" fill="none" xmlns="http://www.w3.org/2000/svg">
<circle cx="237.5" cy="137.5" r="136.5" stroke="black" stroke-width="2" stroke-dasharray="4 12"/>
<path d="M166.446 238.542L164.69 234.639L172.496 231.128L174.252 235.031L166.446 238.542ZM150.57 350.318C148.829 351.916 146.122 351.8 144.523 350.059C142.925 348.317 143.042 345.61 144.783 344.012L150.57 350.318ZM144.783 344.012C173.199 317.936 183.125 275.631 166.446 238.542L174.252 235.031C192.489 275.586 181.624 321.822 150.57 350.318L144.783 344.012Z" fill="#263D59"/>
<path d="M150.571 350.318C148.829 351.916 146.122 351.8 144.524 350.059C142.926 348.317 143.042 345.61 144.784 344.012L150.571 350.318ZM168.356 309.395L169.898 305.403L177.882 308.487L176.34 312.479L168.356 309.395ZM144.784 344.012C155.318 334.345 163.315 322.442 168.356 309.395L176.34 312.479C170.834 326.731 162.095 339.743 150.571 350.318L144.784 344.012Z" fill="#EC325A"/>
<path d="M170.348 236.787C148.551 188.316 91.5869 166.693 43.116 188.491C29.2399 194.731 17.5641 203.853 8.47742 214.833" stroke="#263D59" stroke-width="2.0584" stroke-linecap="round"/>
<path d="M174.252 235.031L176.007 238.934L168.201 242.445L166.446 238.542L174.252 235.031ZM114.928 190.18C112.716 189.348 111.596 186.881 112.428 184.668C113.259 182.456 115.727 181.336 117.939 182.168L114.928 190.18ZM166.446 238.542C155.986 215.282 137.059 198.496 114.928 190.18L117.939 182.168C142.117 191.253 162.819 209.609 174.252 235.031L166.446 238.542Z" fill="#EC7D10"/>
<circle cx="123.626" cy="364.806" r="6.92155" transform="rotate(-5.84817 123.626 364.806)" fill="#EC325A"/>
</svg>
