<svg width="213" height="240" viewBox="0 0 213 240" fill="none" xmlns="http://www.w3.org/2000/svg">
<path d="M166.446 95.5418L164.69 91.6388L172.496 88.1284L174.252 92.0314L166.446 95.5418ZM150.57 207.318C148.829 208.916 146.122 208.8 144.523 207.059C142.925 205.317 143.042 202.61 144.783 201.012L150.57 207.318ZM144.783 201.012C173.199 174.936 183.125 132.631 166.446 95.5418L174.252 92.0314C192.489 132.586 181.624 178.822 150.57 207.318L144.783 201.012Z" fill="#263D59"/>
<path d="M150.571 207.318C148.829 208.916 146.122 208.8 144.524 207.059C142.926 205.317 143.042 202.61 144.784 201.012L150.571 207.318ZM168.356 166.395L169.898 162.403L177.882 165.487L176.34 169.479L168.356 166.395ZM144.784 201.012C155.318 191.345 163.315 179.442 168.356 166.395L176.34 169.479C170.834 183.731 162.095 196.743 150.571 207.318L144.784 201.012Z" fill="#EC325A"/>
<path d="M170.348 93.787C148.551 45.3161 91.5869 23.6931 43.116 45.4907C29.2399 51.7309 17.5641 60.8531 8.47742 71.833" stroke="#263D59" stroke-width="2.0584" stroke-linecap="round"/>
<path d="M174.252 92.0315L176.007 95.9345L168.201 99.4449L166.446 95.5419L174.252 92.0315ZM114.928 47.1799C112.716 46.3485 111.596 43.8809 112.428 41.6685C113.259 39.456 115.727 38.3364 117.939 39.1679L114.928 47.1799ZM166.446 95.5419C155.986 72.2821 137.059 55.4963 114.928 47.1799L117.939 39.1679C142.117 48.2534 162.819 66.6087 174.252 92.0315L166.446 95.5419Z" fill="#EC7D10"/>
<circle cx="123.626" cy="221.806" r="6.92155" transform="rotate(-5.84817 123.626 221.806)" fill="#EC325A"/>
</svg>
