<svg width="497" height="785" viewBox="0 0 497 785" fill="none" xmlns="http://www.w3.org/2000/svg">
<mask id="mask0" mask-type="alpha" maskUnits="userSpaceOnUse" x="-5" y="0" width="502" height="785">
<rect width="502" height="785" transform="matrix(-1 0 0 1 497 0)" fill="#C4C4C4"/>
</mask>
<g mask="url(#mask0)">
<path d="M238.438 363.25L242.87 397.969L312.306 389.106L307.875 354.388L238.438 363.25ZM-3.5009 21.597L-37.8515 14.8863L-51.273 83.5875L-16.9224 90.2982L-3.5009 21.597ZM-16.9224 90.2982C114.502 115.973 220.568 223.242 238.438 363.25L307.875 354.388C286.071 183.557 156.656 52.8852 -3.5009 21.597L-16.9224 90.2982Z" fill="#EC7D10"/>
<path d="M-3.49845 21.5975L-37.8491 14.8868L-51.2705 83.5881L-16.9199 90.2988L-3.49845 21.5975ZM115.625 150.04L143.433 171.293L185.939 115.676L158.131 94.4234L115.625 150.04ZM-16.9199 90.2988C31.7648 99.8098 77.0247 120.539 115.625 150.04L158.131 94.4234C111.144 58.5131 55.9698 33.2152 -3.49845 21.5975L-16.9199 90.2988Z" fill="#21A0A0"/>
<path d="M273.155 358.82C297.922 552.868 160.693 730.252 -33.3546 755.02C-88.9062 762.11 -143.092 755.924 -192.723 738.929" stroke="#D5DADD" stroke-width="4" stroke-linecap="round"/>
<path d="M307.875 354.384L303.444 319.666L234.007 328.528L238.438 363.247L307.875 354.384ZM173.618 599.825C161.739 615.074 164.472 637.066 179.721 648.945C194.971 660.823 216.962 658.091 228.841 642.841L173.618 599.825ZM238.438 363.247C249.648 451.074 224.073 535.053 173.618 599.825L228.841 642.841C290.284 563.963 321.541 461.452 307.875 354.384L238.438 363.247Z" fill="#263D59"/>
</g>
</svg>
