<svg width="816" height="426" viewBox="0 0 816 426" fill="none" xmlns="http://www.w3.org/2000/svg">
<path d="M402 362L677 414.5" stroke="#D5DADD" stroke-width="2.11429"/>
<path d="M138 36L257.5 338" stroke="#D5DADD" stroke-width="2.11429"/>
<path d="M260 338L153 400.5" stroke="#D5DADD" stroke-width="2.11429"/>
<path d="M708.5 91L403 362.5" stroke="#D5DADD" stroke-width="2.11429"/>
<g filter="url(#filter0_d)">
<circle cx="256.499" cy="338.5" r="17.499" fill="white"/>
<circle cx="256.499" cy="338.5" r="16.999" stroke="#263D59"/>
</g>
<path d="M233.708 327C226.69 339.21 230.898 354.797 243.108 361.816" stroke="#EC325A" stroke-width="6" stroke-linecap="round"/>
<path d="M252.669 342.279C253.771 341.361 254.649 340.597 255.303 339.989C255.958 339.369 256.503 338.726 256.939 338.06C257.376 337.394 257.594 336.74 257.594 336.097C257.594 335.511 257.456 335.052 257.18 334.719C256.905 334.386 256.48 334.219 255.906 334.219C255.332 334.219 254.89 334.415 254.58 334.805C254.27 335.184 254.109 335.706 254.098 336.372H251.756C251.802 334.994 252.209 333.95 252.978 333.238C253.759 332.526 254.747 332.17 255.941 332.17C257.249 332.17 258.254 332.52 258.954 333.221C259.655 333.91 260.005 334.822 260.005 335.959C260.005 336.854 259.764 337.71 259.281 338.525C258.799 339.34 258.248 340.052 257.628 340.66C257.008 341.257 256.199 341.981 255.2 342.83H260.28V344.828H251.773V343.037L252.669 342.279Z" fill="#263D59"/>
<circle cx="40.003" cy="125.722" r="1.66905" stroke="#A2A9AE" stroke-width="1.37878"/>
<path d="M33.0186 125.722C40.366 117.467 46.8064 125.722 46.8064 125.722C39.9125 134.248 33.0186 125.722 33.0186 125.722Z" stroke="#A2A9AE" stroke-width="1.37878" stroke-linecap="round" stroke-linejoin="round"/>
<path d="M60.2852 123.75C60.2852 124.198 60.1823 124.61 59.9764 124.985C59.7705 125.353 59.4543 125.65 59.0278 125.878C58.6013 126.106 58.0718 126.22 57.4394 126.22H56.2702V129H54.3841V121.257H57.4394C58.0571 121.257 58.5792 121.363 59.0057 121.577C59.4322 121.79 59.7521 122.084 59.9654 122.459C60.1786 122.834 60.2852 123.264 60.2852 123.75ZM57.2961 124.72C57.6564 124.72 57.9248 124.636 58.1013 124.467C58.2777 124.297 58.366 124.058 58.366 123.75C58.366 123.441 58.2777 123.202 58.1013 123.033C57.9248 122.864 57.6564 122.779 57.2961 122.779H56.2702V124.72H57.2961ZM63.374 123.871C63.5946 123.533 63.8703 123.268 64.2012 123.077C64.5322 122.878 64.8998 122.779 65.3043 122.779V124.775H64.7858C64.3152 124.775 63.9623 124.878 63.7269 125.084C63.4916 125.283 63.374 125.636 63.374 126.143V129H61.4878V122.845H63.374V123.871ZM72.2283 125.823C72.2283 126 72.2173 126.184 72.1952 126.375H67.9265C67.9559 126.757 68.0773 127.051 68.2905 127.257C68.5111 127.456 68.7795 127.555 69.0957 127.555C69.5664 127.555 69.8936 127.356 70.0774 126.959H72.0849C71.982 127.364 71.7945 127.728 71.5224 128.051C71.2577 128.375 70.9231 128.629 70.5186 128.812C70.1142 128.996 69.662 129.088 69.1619 129.088C68.5589 129.088 68.0221 128.96 67.5515 128.702C67.0809 128.445 66.7132 128.077 66.4485 127.599C66.1838 127.121 66.0514 126.562 66.0514 125.923C66.0514 125.283 66.1801 124.724 66.4375 124.246C66.7022 123.768 67.0699 123.4 67.5405 123.143C68.0111 122.886 68.5516 122.757 69.1619 122.757C69.7576 122.757 70.287 122.882 70.7503 123.132C71.2135 123.382 71.5739 123.739 71.8312 124.202C72.096 124.665 72.2283 125.206 72.2283 125.823ZM70.298 125.327C70.298 125.003 70.1877 124.746 69.9671 124.555C69.7465 124.364 69.4708 124.268 69.1399 124.268C68.8237 124.268 68.5553 124.36 68.3347 124.544C68.1214 124.728 67.989 124.989 67.9376 125.327H70.298ZM76.2126 127.235L77.5472 122.845H79.5547L77.3708 129H75.0434L72.8594 122.845H74.8779L76.2126 127.235ZM81.5179 122.205C81.187 122.205 80.9149 122.11 80.7016 121.919C80.4957 121.72 80.3928 121.477 80.3928 121.191C80.3928 120.896 80.4957 120.654 80.7016 120.463C80.9149 120.264 81.187 120.165 81.5179 120.165C81.8414 120.165 82.1061 120.264 82.312 120.463C82.5253 120.654 82.6319 120.896 82.6319 121.191C82.6319 121.477 82.5253 121.72 82.312 121.919C82.1061 122.11 81.8414 122.205 81.5179 122.205ZM82.4554 122.845V129H80.5693V122.845H82.4554ZM89.8448 125.823C89.8448 126 89.8338 126.184 89.8117 126.375H85.543C85.5725 126.757 85.6938 127.051 85.907 127.257C86.1276 127.456 86.396 127.555 86.7122 127.555C87.1829 127.555 87.5101 127.356 87.6939 126.959H89.7014C89.5985 127.364 89.411 127.728 89.1389 128.051C88.8742 128.375 88.5396 128.629 88.1351 128.812C87.7307 128.996 87.2785 129.088 86.7784 129.088C86.1754 129.088 85.6386 128.96 85.168 128.702C84.6974 128.445 84.3297 128.077 84.065 127.599C83.8003 127.121 83.6679 126.562 83.6679 125.923C83.6679 125.283 83.7966 124.724 84.054 124.246C84.3187 123.768 84.6864 123.4 85.157 123.143C85.6276 122.886 86.1681 122.757 86.7784 122.757C87.3741 122.757 87.9035 122.882 88.3668 123.132C88.8301 123.382 89.1904 123.739 89.4477 124.202C89.7125 124.665 89.8448 125.206 89.8448 125.823ZM87.9145 125.327C87.9145 125.003 87.8042 124.746 87.5836 124.555C87.363 124.364 87.0873 124.268 86.7564 124.268C86.4402 124.268 86.1718 124.36 85.9512 124.544C85.7379 124.728 85.6055 124.989 85.5541 125.327H87.9145ZM99.8957 122.845L98.2301 129H96.1454L95.1748 125.007L94.171 129H92.0973L90.4207 122.845H92.3069L93.1783 127.246L94.2151 122.845H96.2116L97.2595 127.224L98.1198 122.845H99.8957Z" fill="#A2A9AE"/>
<path d="M34.3968 160.062C33.6354 160.062 33.0181 159.445 33.0181 158.683C33.0181 157.922 33.6354 157.305 34.3968 157.305C35.1583 157.305 35.7756 157.922 35.7756 158.683C35.7756 159.049 35.6304 159.4 35.3718 159.658C35.1132 159.917 34.7625 160.062 34.3968 160.062Z" stroke="#A2A9AE" stroke-width="1.37878"/>
<path d="M34.3968 165.577C33.6354 165.577 33.0181 164.96 33.0181 164.198C33.0181 163.437 33.6354 162.82 34.3968 162.82C35.1583 162.82 35.7756 163.437 35.7756 164.198C35.7756 164.96 35.1583 165.577 34.3968 165.577Z" stroke="#A2A9AE" stroke-width="1.37878"/>
<rect x="37.8438" y="157.305" width="8.96207" height="2.75756" rx="1.37878" stroke="#A2A9AE" stroke-width="1.37878"/>
<rect x="37.8438" y="162.82" width="8.96207" height="2.75756" rx="1.37878" stroke="#A2A9AE" stroke-width="1.37878"/>
<path d="M34.397 154.547V157.305M34.397 168.335V165.577M34.397 160.062V162.82" stroke="#A2A9AE" stroke-width="1.37878" stroke-linecap="round"/>
<path d="M61.0905 157.198V164.941H59.2043V161.753H56.2702V164.941H54.3841V157.198H56.2702V160.231H59.2043V157.198H61.0905ZM63.6213 158.146C63.2904 158.146 63.0183 158.051 62.8051 157.86C62.5992 157.661 62.4962 157.418 62.4962 157.132C62.4962 156.837 62.5992 156.595 62.8051 156.404C63.0183 156.205 63.2904 156.106 63.6213 156.106C63.9448 156.106 64.2096 156.205 64.4155 156.404C64.6287 156.595 64.7353 156.837 64.7353 157.132C64.7353 157.418 64.6287 157.661 64.4155 157.86C64.2096 158.051 63.9448 158.146 63.6213 158.146ZM64.5589 158.786V164.941H62.6727V158.786H64.5589ZM68.6502 165.029C68.1134 165.029 67.6354 164.937 67.2163 164.753C66.7971 164.57 66.4662 164.32 66.2236 164.003C65.9809 163.68 65.8449 163.319 65.8155 162.922H67.6796C67.7016 163.136 67.8009 163.308 67.9774 163.441C68.1539 163.573 68.3708 163.639 68.6282 163.639C68.8635 163.639 69.0436 163.595 69.1686 163.507C69.301 163.411 69.3672 163.29 69.3672 163.143C69.3672 162.967 69.2753 162.838 69.0914 162.757C68.9076 162.669 68.6098 162.573 68.198 162.47C67.7568 162.367 67.3891 162.261 67.095 162.15C66.8008 162.033 66.5471 161.852 66.3339 161.61C66.1206 161.36 66.014 161.025 66.014 160.606C66.014 160.253 66.1096 159.933 66.3008 159.646C66.4993 159.352 66.7861 159.121 67.1611 158.951C67.5435 158.782 67.9958 158.698 68.5179 158.698C69.29 158.698 69.8966 158.889 70.3379 159.271C70.7864 159.654 71.0438 160.161 71.11 160.794H69.3672C69.3378 160.58 69.2422 160.411 69.0804 160.286C68.926 160.161 68.7201 160.099 68.4627 160.099C68.2421 160.099 68.073 160.143 67.9553 160.231C67.8377 160.312 67.7788 160.426 67.7788 160.573C67.7788 160.749 67.8708 160.882 68.0546 160.97C68.2458 161.058 68.5399 161.147 68.937 161.235C69.3929 161.352 69.7643 161.47 70.0511 161.588C70.3379 161.698 70.5879 161.882 70.8011 162.139C71.0217 162.389 71.1357 162.728 71.1431 163.154C71.1431 163.514 71.0401 163.838 70.8342 164.125C70.6357 164.404 70.3452 164.625 69.9628 164.786C69.5878 164.948 69.1503 165.029 68.6502 165.029ZM75.948 163.342V164.941H74.9884C74.3045 164.941 73.7714 164.775 73.389 164.445C73.0066 164.106 72.8154 163.558 72.8154 162.801V160.352H72.0654V158.786H72.8154V157.286H74.7016V158.786H75.937V160.352H74.7016V162.823C74.7016 163.007 74.7457 163.139 74.834 163.22C74.9222 163.301 75.0693 163.342 75.2752 163.342H75.948ZM80.0209 165.029C79.418 165.029 78.8738 164.9 78.3885 164.643C77.9105 164.386 77.5318 164.018 77.2523 163.54C76.9803 163.062 76.8442 162.503 76.8442 161.863C76.8442 161.231 76.9839 160.676 77.2634 160.198C77.5428 159.713 77.9252 159.341 78.4105 159.084C78.8959 158.826 79.44 158.698 80.043 158.698C80.646 158.698 81.1901 158.826 81.6755 159.084C82.1608 159.341 82.5432 159.713 82.8226 160.198C83.1021 160.676 83.2418 161.231 83.2418 161.863C83.2418 162.496 83.0984 163.055 82.8116 163.54C82.5322 164.018 82.1461 164.386 81.6534 164.643C81.1681 164.9 80.6239 165.029 80.0209 165.029ZM80.0209 163.397C80.3813 163.397 80.6864 163.264 80.9364 163C81.1938 162.735 81.3225 162.356 81.3225 161.863C81.3225 161.371 81.1975 160.992 80.9475 160.727C80.7048 160.463 80.4033 160.33 80.043 160.33C79.6753 160.33 79.3702 160.463 79.1275 160.727C78.8848 160.985 78.7635 161.363 78.7635 161.863C78.7635 162.356 78.8811 162.735 79.1165 163C79.3591 163.264 79.6606 163.397 80.0209 163.397ZM86.3492 159.812C86.5698 159.474 86.8456 159.209 87.1765 159.018C87.5074 158.819 87.875 158.72 88.2795 158.72V160.716H87.7611C87.2904 160.716 86.9375 160.819 86.7022 161.025C86.4669 161.224 86.3492 161.577 86.3492 162.084V164.941H84.463V158.786H86.3492V159.812ZM95.6889 158.786L91.8283 167.864H89.7987L91.2106 164.731L88.7067 158.786H90.8135L92.2364 162.636L93.6483 158.786H95.6889Z" fill="#A2A9AE"/>
<path d="M43.7109 193.705L46.8062 196.865L43.7109 200.312" stroke="#A2A9AE" stroke-width="1.37878" stroke-linecap="round" stroke-linejoin="round"/>
<path d="M36.1133 193.705L33.0181 196.865L36.1133 200.312" stroke="#A2A9AE" stroke-width="1.37878" stroke-linecap="round" stroke-linejoin="round"/>
<path d="M40.8966 192.556L38.6455 201.748" stroke="#A2A9AE" stroke-width="1.37878" stroke-linecap="round" stroke-linejoin="round"/>
<path d="M65.0393 193.139L63.0208 200.882H60.7375L59.5021 195.786L58.2226 200.882H55.9393L53.976 193.139H55.9945L57.1085 198.775L58.4873 193.139H60.561L61.8846 198.775L63.0097 193.139H65.0393ZM69.0075 200.97C68.4045 200.97 67.8604 200.841 67.375 200.584C66.897 200.327 66.5183 199.959 66.2389 199.481C65.9668 199.003 65.8308 198.444 65.8308 197.804C65.8308 197.172 65.9705 196.617 66.2499 196.139C66.5294 195.653 66.9118 195.282 67.3971 195.025C67.8824 194.767 68.4266 194.639 69.0296 194.639C69.6325 194.639 70.1767 194.767 70.662 195.025C71.1474 195.282 71.5297 195.653 71.8092 196.139C72.0886 196.617 72.2283 197.172 72.2283 197.804C72.2283 198.437 72.0849 198.996 71.7982 199.481C71.5187 199.959 71.1327 200.327 70.64 200.584C70.1546 200.841 69.6105 200.97 69.0075 200.97ZM69.0075 199.338C69.3678 199.338 69.673 199.205 69.923 198.94C70.1804 198.676 70.3091 198.297 70.3091 197.804C70.3091 197.312 70.1841 196.933 69.934 196.668C69.6914 196.403 69.3899 196.271 69.0296 196.271C68.6619 196.271 68.3567 196.403 68.1141 196.668C67.8714 196.926 67.7501 197.304 67.7501 197.804C67.7501 198.297 67.8677 198.676 68.103 198.94C68.3457 199.205 68.6472 199.338 69.0075 199.338ZM75.3358 195.753C75.5564 195.414 75.8321 195.15 76.163 194.959C76.4939 194.76 76.8616 194.661 77.266 194.661V196.657H76.7476C76.277 196.657 75.924 196.76 75.6887 196.966C75.4534 197.165 75.3358 197.518 75.3358 198.025V200.882H73.4496V194.727H75.3358V195.753ZM82.1495 200.882L80.2744 198.301V200.882H78.3882V192.719H80.2744V197.231L82.1385 194.727H84.4659L81.9069 197.815L84.4879 200.882H82.1495ZM88.5158 196.293H87.501V200.882H85.6148V196.293H84.9309V194.727H85.6148V194.55C85.6148 193.793 85.8318 193.219 86.2656 192.83C86.6995 192.433 87.3355 192.234 88.1738 192.234C88.3136 192.234 88.4165 192.238 88.4827 192.245V193.844C88.1224 193.822 87.8687 193.874 87.7216 193.999C87.5745 194.124 87.501 194.348 87.501 194.672V194.727H88.5158V196.293ZM91.5088 192.719V200.882H89.6227V192.719H91.5088ZM95.898 200.97C95.295 200.97 94.7509 200.841 94.2655 200.584C93.7876 200.327 93.4089 199.959 93.1294 199.481C92.8574 199.003 92.7213 198.444 92.7213 197.804C92.7213 197.172 92.861 196.617 93.1405 196.139C93.4199 195.653 93.8023 195.282 94.2876 195.025C94.7729 194.767 95.3171 194.639 95.9201 194.639C96.5231 194.639 97.0672 194.767 97.5526 195.025C98.0379 195.282 98.4203 195.653 98.6997 196.139C98.9791 196.617 99.1189 197.172 99.1189 197.804C99.1189 198.437 98.9755 198.996 98.6887 199.481C98.4092 199.959 98.0232 200.327 97.5305 200.584C97.0452 200.841 96.501 200.97 95.898 200.97ZM95.898 199.338C96.2583 199.338 96.5635 199.205 96.8135 198.94C97.0709 198.676 97.1996 198.297 97.1996 197.804C97.1996 197.312 97.0746 196.933 96.8246 196.668C96.5819 196.403 96.2804 196.271 95.9201 196.271C95.5524 196.271 95.2472 196.403 95.0046 196.668C94.7619 196.926 94.6406 197.304 94.6406 197.804C94.6406 198.297 94.7582 198.676 94.9935 198.94C95.2362 199.205 95.5377 199.338 95.898 199.338ZM109.175 194.727L107.51 200.882H105.425L104.454 196.889L103.451 200.882H101.377L99.7004 194.727H101.587L102.458 199.128L103.495 194.727H105.491L106.539 199.106L107.399 194.727H109.175Z" fill="#A2A9AE"/>
<circle cx="39.9125" cy="233.323" r="6.20451" stroke="#A2A9AE" stroke-width="1.37878"/>
<path d="M39.9121 229.876V233.897L41.6356 235.621" stroke="#A2A9AE" stroke-width="1.37878" stroke-linecap="round" stroke-linejoin="round"/>
<path d="M58.3329 236.823L56.7225 233.9H56.2702V236.823H54.3841V229.079H57.5497C58.1601 229.079 58.6785 229.186 59.105 229.399C59.5389 229.613 59.8624 229.907 60.0757 230.282C60.2889 230.649 60.3956 231.061 60.3956 231.517C60.3956 232.032 60.2485 232.491 59.9543 232.896C59.6676 233.3 59.2411 233.587 58.6748 233.756L60.4617 236.823H58.3329ZM56.2702 232.565H57.4394C57.7851 232.565 58.0424 232.48 58.2116 232.311C58.388 232.142 58.4763 231.903 58.4763 231.594C58.4763 231.3 58.388 231.069 58.2116 230.899C58.0424 230.73 57.7851 230.646 57.4394 230.646H56.2702V232.565ZM67.8778 230.668V236.823H65.9917V235.984C65.8005 236.256 65.5394 236.477 65.2085 236.646C64.885 236.808 64.5247 236.889 64.1276 236.889C63.6569 236.889 63.2415 236.786 62.8811 236.58C62.5208 236.367 62.2414 236.062 62.0429 235.665C61.8443 235.267 61.745 234.8 61.745 234.264V230.668H63.6202V234.01C63.6202 234.422 63.7268 234.742 63.9401 234.97C64.1533 235.198 64.4401 235.312 64.8004 235.312C65.1681 235.312 65.4585 235.198 65.6718 234.97C65.8851 234.742 65.9917 234.422 65.9917 234.01V230.668H67.8778ZM73.2036 230.602C73.9242 230.602 74.4978 230.837 74.9243 231.308C75.3581 231.771 75.5751 232.411 75.5751 233.227V236.823H73.6999V233.481C73.6999 233.069 73.5933 232.749 73.38 232.521C73.1668 232.293 72.88 232.179 72.5197 232.179C72.1594 232.179 71.8726 232.293 71.6593 232.521C71.4461 232.749 71.3394 233.069 71.3394 233.481V236.823H69.4533V230.668H71.3394V231.484C71.5306 231.212 71.788 230.999 72.1116 230.844C72.4351 230.683 72.7991 230.602 73.2036 230.602ZM81.5506 235.367H84.0214V236.823H79.6644V229.079H81.5506V235.367ZM87.9433 236.911C87.3403 236.911 86.7962 236.782 86.3108 236.525C85.8329 236.268 85.4542 235.9 85.1747 235.422C84.9027 234.944 84.7666 234.385 84.7666 233.745C84.7666 233.113 84.9063 232.558 85.1858 232.08C85.4652 231.594 85.8476 231.223 86.3329 230.966C86.8182 230.708 87.3624 230.58 87.9654 230.58C88.5684 230.58 89.1125 230.708 89.5979 230.966C90.0832 231.223 90.4656 231.594 90.745 232.08C91.0244 232.558 91.1642 233.113 91.1642 233.745C91.1642 234.378 91.0208 234.937 90.734 235.422C90.4545 235.9 90.0685 236.268 89.5758 236.525C89.0905 236.782 88.5463 236.911 87.9433 236.911ZM87.9433 235.278C88.3036 235.278 88.6088 235.146 88.8588 234.881C89.1162 234.617 89.2449 234.238 89.2449 233.745C89.2449 233.253 89.1199 232.874 88.8699 232.609C88.6272 232.344 88.3257 232.212 87.9654 232.212C87.5977 232.212 87.2925 232.344 87.0499 232.609C86.8072 232.867 86.6859 233.245 86.6859 233.745C86.6859 234.238 86.8035 234.617 87.0388 234.881C87.2815 235.146 87.583 235.278 87.9433 235.278ZM94.7238 230.58C95.1577 230.58 95.5364 230.668 95.8599 230.844C96.1908 231.021 96.4445 231.252 96.621 231.539V230.668H98.5072V236.812C98.5072 237.378 98.3932 237.889 98.1653 238.345C97.9447 238.808 97.6027 239.176 97.1394 239.448C96.6835 239.72 96.1136 239.856 95.4298 239.856C94.5179 239.856 93.7789 239.639 93.2127 239.205C92.6465 238.779 92.3229 238.198 92.242 237.462H94.1061C94.165 237.698 94.3047 237.882 94.5253 238.014C94.7459 238.154 95.018 238.224 95.3415 238.224C95.7312 238.224 96.0401 238.11 96.2681 237.882C96.5034 237.661 96.621 237.304 96.621 236.812V235.94C96.4372 236.227 96.1835 236.462 95.8599 236.646C95.5364 236.823 95.1577 236.911 94.7238 236.911C94.2164 236.911 93.7568 236.782 93.345 236.525C92.9332 236.26 92.606 235.889 92.3633 235.411C92.128 234.925 92.0104 234.367 92.0104 233.734C92.0104 233.102 92.128 232.547 92.3633 232.069C92.606 231.591 92.9332 231.223 93.345 230.966C93.7568 230.708 94.2164 230.58 94.7238 230.58ZM96.621 233.745C96.621 233.275 96.4887 232.903 96.2239 232.631C95.9666 232.359 95.6504 232.223 95.2753 232.223C94.9003 232.223 94.5804 232.359 94.3157 232.631C94.0583 232.896 93.9296 233.264 93.9296 233.734C93.9296 234.205 94.0583 234.58 94.3157 234.859C94.5804 235.131 94.9003 235.267 95.2753 235.267C95.6504 235.267 95.9666 235.131 96.2239 234.859C96.4887 234.587 96.621 234.216 96.621 233.745Z" fill="#A2A9AE"/>
<path d="M39.9125 274.582C43.7199 274.582 46.8064 272.157 46.8064 269.165C46.8064 266.174 43.7199 263.748 39.9125 263.748C36.1051 263.748 33.0186 266.174 33.0186 269.165C33.0186 270.607 33.7352 271.916 34.9037 272.887L33.511 275.074L37.4503 274.226C38.215 274.456 39.045 274.582 39.9125 274.582Z" stroke="#A2A9AE" stroke-width="1.37878" stroke-linecap="round" stroke-linejoin="round"/>
<path d="M56.2702 265.02V272.764H54.3841V265.02H56.2702ZM60.3616 272.852C59.8248 272.852 59.3468 272.76 58.9277 272.576C58.5085 272.392 58.1776 272.142 57.9349 271.826C57.6923 271.502 57.5562 271.142 57.5268 270.745H59.3909C59.413 270.958 59.5123 271.131 59.6888 271.263C59.8652 271.396 60.0822 271.462 60.3395 271.462C60.5749 271.462 60.755 271.418 60.88 271.33C61.0124 271.234 61.0786 271.113 61.0786 270.966C61.0786 270.789 60.9866 270.66 60.8028 270.58C60.619 270.491 60.3212 270.396 59.9094 270.293C59.4682 270.19 59.1005 270.083 58.8063 269.973C58.5122 269.855 58.2585 269.675 58.0452 269.432C57.832 269.182 57.7254 268.848 57.7254 268.429C57.7254 268.076 57.821 267.756 58.0122 267.469C58.2107 267.175 58.4975 266.943 58.8725 266.774C59.2549 266.605 59.7071 266.52 60.2292 266.52C61.0014 266.52 61.608 266.712 62.0492 267.094C62.4978 267.476 62.7552 267.984 62.8213 268.616H61.0786C61.0492 268.403 60.9536 268.234 60.7918 268.109C60.6374 267.984 60.4315 267.921 60.1741 267.921C59.9535 267.921 59.7844 267.965 59.6667 268.054C59.549 268.135 59.4902 268.249 59.4902 268.396C59.4902 268.572 59.5821 268.704 59.766 268.793C59.9572 268.881 60.2513 268.969 60.6484 269.057C61.1043 269.175 61.4757 269.293 61.7624 269.41C62.0492 269.521 62.2992 269.704 62.5125 269.962C62.7331 270.212 62.8471 270.55 62.8544 270.977C62.8544 271.337 62.7515 271.661 62.5456 271.947C62.347 272.227 62.0566 272.447 61.6742 272.609C61.2992 272.771 60.8616 272.852 60.3616 272.852ZM66.7329 272.852C66.1961 272.852 65.7181 272.76 65.2989 272.576C64.8798 272.392 64.5489 272.142 64.3062 271.826C64.0635 271.502 63.9275 271.142 63.8981 270.745H65.7622C65.7843 270.958 65.8835 271.131 66.06 271.263C66.2365 271.396 66.4534 271.462 66.7108 271.462C66.9461 271.462 67.1263 271.418 67.2513 271.33C67.3836 271.234 67.4498 271.113 67.4498 270.966C67.4498 270.789 67.3579 270.66 67.1741 270.58C66.9902 270.491 66.6924 270.396 66.2806 270.293C65.8394 270.19 65.4717 270.083 65.1776 269.973C64.8835 269.855 64.6298 269.675 64.4165 269.432C64.2033 269.182 64.0966 268.848 64.0966 268.429C64.0966 268.076 64.1922 267.756 64.3834 267.469C64.582 267.175 64.8687 266.943 65.2438 266.774C65.6262 266.605 66.0784 266.52 66.6005 266.52C67.3726 266.52 67.9793 266.712 68.4205 267.094C68.869 267.476 69.1264 267.984 69.1926 268.616H67.4498C67.4204 268.403 67.3248 268.234 67.163 268.109C67.0086 267.984 66.8027 267.921 66.5453 267.921C66.3247 267.921 66.1556 267.965 66.038 268.054C65.9203 268.135 65.8615 268.249 65.8615 268.396C65.8615 268.572 65.9534 268.704 66.1372 268.793C66.3284 268.881 66.6226 268.969 67.0196 269.057C67.4756 269.175 67.8469 269.293 68.1337 269.41C68.4205 269.521 68.6705 269.704 68.8838 269.962C69.1044 270.212 69.2183 270.55 69.2257 270.977C69.2257 271.337 69.1227 271.661 68.9168 271.947C68.7183 272.227 68.4278 272.447 68.0455 272.609C67.6704 272.771 67.2329 272.852 66.7329 272.852ZM76.6779 266.609V272.764H74.7917V271.925C74.6006 272.197 74.3395 272.418 74.0086 272.587C73.685 272.749 73.3247 272.83 72.9276 272.83C72.457 272.83 72.0415 272.727 71.6812 272.521C71.3209 272.308 71.0415 272.002 70.8429 271.605C70.6444 271.208 70.5451 270.741 70.5451 270.205V266.609H72.4202V269.951C72.4202 270.363 72.5269 270.683 72.7401 270.91C72.9534 271.138 73.2402 271.252 73.6005 271.252C73.9681 271.252 74.2586 271.138 74.4719 270.91C74.6851 270.683 74.7917 270.363 74.7917 269.951V266.609H76.6779ZM84.0552 269.587C84.0552 269.763 84.0442 269.947 84.0222 270.138H79.7535C79.7829 270.521 79.9042 270.815 80.1175 271.021C80.3381 271.219 80.6065 271.319 80.9227 271.319C81.3933 271.319 81.7205 271.12 81.9044 270.723H83.9119C83.8089 271.127 83.6214 271.491 83.3493 271.815C83.0846 272.139 82.75 272.392 82.3456 272.576C81.9411 272.76 81.4889 272.852 80.9888 272.852C80.3859 272.852 79.849 272.723 79.3784 272.466C78.9078 272.208 78.5401 271.841 78.2754 271.363C78.0107 270.885 77.8783 270.326 77.8783 269.686C77.8783 269.046 78.007 268.487 78.2644 268.01C78.5291 267.532 78.8968 267.164 79.3674 266.906C79.838 266.649 80.3785 266.52 80.9888 266.52C81.5845 266.52 82.1139 266.645 82.5772 266.895C83.0405 267.145 83.4008 267.502 83.6582 267.965C83.9229 268.429 84.0552 268.969 84.0552 269.587ZM82.125 269.09C82.125 268.767 82.0147 268.51 81.794 268.318C81.5734 268.127 81.2977 268.032 80.9668 268.032C80.6506 268.032 80.3822 268.123 80.1616 268.307C79.9483 268.491 79.816 268.752 79.7645 269.09H82.125ZM87.7748 272.852C87.238 272.852 86.76 272.76 86.3408 272.576C85.9217 272.392 85.5908 272.142 85.3481 271.826C85.1054 271.502 84.9694 271.142 84.94 270.745H86.8041C86.8262 270.958 86.9254 271.131 87.1019 271.263C87.2784 271.396 87.4953 271.462 87.7527 271.462C87.988 271.462 88.1682 271.418 88.2932 271.33C88.4256 271.234 88.4917 271.113 88.4917 270.966C88.4917 270.789 88.3998 270.66 88.216 270.58C88.0321 270.491 87.7343 270.396 87.3225 270.293C86.8813 270.19 86.5136 270.083 86.2195 269.973C85.9254 269.855 85.6717 269.675 85.4584 269.432C85.2452 269.182 85.1385 268.848 85.1385 268.429C85.1385 268.076 85.2341 267.756 85.4253 267.469C85.6239 267.175 85.9107 266.943 86.2857 266.774C86.6681 266.605 87.1203 266.52 87.6424 266.52C88.4145 266.52 89.0212 266.712 89.4624 267.094C89.911 267.476 90.1683 267.984 90.2345 268.616H88.4917C88.4623 268.403 88.3667 268.234 88.2049 268.109C88.0505 267.984 87.8446 267.921 87.5873 267.921C87.3666 267.921 87.1975 267.965 87.0799 268.054C86.9622 268.135 86.9034 268.249 86.9034 268.396C86.9034 268.572 86.9953 268.704 87.1791 268.793C87.3703 268.881 87.6645 268.969 88.0616 269.057C88.5175 269.175 88.8888 269.293 89.1756 269.41C89.4624 269.521 89.7124 269.704 89.9257 269.962C90.1463 270.212 90.2602 270.55 90.2676 270.977C90.2676 271.337 90.1647 271.661 89.9588 271.947C89.7602 272.227 89.4697 272.447 89.0874 272.609C88.7123 272.771 88.2748 272.852 87.7748 272.852Z" fill="#A2A9AE"/>
<rect x="99.9727" y="261.336" width="15.1666" height="15.856" rx="2.75756" fill="#9CA3AF"/>
<path d="M109.753 266.957C109.753 267.337 109.658 267.675 109.468 267.969C109.278 268.264 109.015 268.499 108.681 268.675C109.062 268.858 109.364 269.111 109.586 269.434C109.809 269.754 109.92 270.131 109.92 270.565C109.92 271.262 109.683 271.813 109.209 272.219C108.735 272.621 108.091 272.822 107.276 272.822C106.461 272.822 105.814 272.619 105.337 272.213C104.859 271.808 104.621 271.258 104.621 270.565C104.621 270.131 104.732 269.752 104.954 269.429C105.177 269.106 105.477 268.854 105.854 268.675C105.52 268.499 105.258 268.264 105.068 267.969C104.881 267.675 104.788 267.337 104.788 266.957C104.788 266.289 105.01 265.758 105.455 265.363C105.901 264.964 106.506 264.765 107.27 264.765C108.032 264.765 108.635 264.962 109.08 265.357C109.529 265.749 109.753 266.282 109.753 266.957ZM108.358 270.452C108.358 270.111 108.26 269.838 108.062 269.634C107.865 269.429 107.599 269.327 107.265 269.327C106.935 269.327 106.671 269.429 106.473 269.634C106.276 269.835 106.177 270.108 106.177 270.452C106.177 270.786 106.274 271.056 106.468 271.26C106.662 271.465 106.931 271.567 107.276 271.567C107.613 271.567 107.877 271.468 108.067 271.271C108.261 271.073 108.358 270.801 108.358 270.452ZM108.197 267.032C108.197 266.727 108.116 266.483 107.954 266.3C107.793 266.113 107.565 266.02 107.27 266.02C106.98 266.02 106.753 266.109 106.592 266.289C106.43 266.469 106.349 266.716 106.349 267.032C106.349 267.345 106.43 267.596 106.592 267.786C106.753 267.977 106.981 268.072 107.276 268.072C107.57 268.072 107.796 267.977 107.954 267.786C108.116 267.596 108.197 267.345 108.197 267.032Z" fill="white"/>
<path d="M39.2231 310.03C42.269 310.03 44.7382 307.561 44.7382 304.515C44.7382 301.469 42.269 299 39.2231 299C36.1772 299 33.708 301.469 33.708 304.515C33.708 307.561 36.1772 310.03 39.2231 310.03Z" stroke="#A2A9AE" stroke-width="1.37878" stroke-linecap="round" stroke-linejoin="round"/>
<path d="M46.117 311.409L43.1182 308.41" stroke="#A2A9AE" stroke-width="1.37878" stroke-linecap="round" stroke-linejoin="round"/>
<path d="M37.6187 302.863C37.7483 302.494 38.0041 302.183 38.3408 301.986C38.6775 301.788 39.0734 301.715 39.4583 301.781C39.8433 301.847 40.1924 302.047 40.4439 302.346C40.6954 302.645 40.8331 303.023 40.8325 303.414C40.8325 304.516 39.1787 305.068 39.1787 305.068" stroke="#A2A9AE" stroke-width="1.37878" stroke-linecap="round" stroke-linejoin="round"/>
<path d="M39.2227 307.273H39.2289" stroke="#A2A9AE" stroke-width="1.37878" stroke-linecap="round" stroke-linejoin="round"/>
<path d="M59.8992 310.028L58.9065 308.693C58.6123 308.752 58.3255 308.782 58.0461 308.782C57.3181 308.782 56.6489 308.613 56.0386 308.274C55.4356 307.936 54.954 307.465 54.5936 306.862C54.2407 306.252 54.0642 305.568 54.0642 304.811C54.0642 304.053 54.2407 303.373 54.5936 302.77C54.954 302.167 55.4356 301.697 56.0386 301.358C56.6489 301.02 57.3181 300.851 58.0461 300.851C58.7741 300.851 59.4396 301.02 60.0426 301.358C60.6529 301.697 61.1309 302.167 61.4765 302.77C61.8295 303.373 62.006 304.053 62.006 304.811C62.006 305.473 61.8699 306.079 61.5978 306.631C61.3331 307.175 60.9618 307.627 60.4838 307.988L62.1825 310.028H59.8992ZM55.9945 304.811C55.9945 305.495 56.1783 306.043 56.546 306.454C56.921 306.859 57.4211 307.061 58.0461 307.061C58.6638 307.061 59.1565 306.855 59.5242 306.443C59.8992 306.031 60.0867 305.487 60.0867 304.811C60.0867 304.127 59.8992 303.583 59.5242 303.178C59.1565 302.767 58.6638 302.561 58.0461 302.561C57.4211 302.561 56.921 302.763 56.546 303.167C56.1783 303.572 55.9945 304.12 55.9945 304.811ZM69.3751 302.55V308.704H67.4889V307.866C67.2978 308.138 67.0367 308.359 66.7058 308.528C66.3822 308.69 66.0219 308.771 65.6248 308.771C65.1542 308.771 64.7387 308.668 64.3784 308.462C64.0181 308.249 63.7387 307.943 63.5401 307.546C63.3416 307.149 63.2423 306.682 63.2423 306.145V302.55H65.1174V305.892C65.1174 306.304 65.2241 306.623 65.4373 306.851C65.6506 307.079 65.9374 307.193 66.2977 307.193C66.6654 307.193 66.9558 307.079 67.1691 306.851C67.3823 306.623 67.4889 306.304 67.4889 305.892V302.55H69.3751ZM76.7525 305.528C76.7525 305.704 76.7414 305.888 76.7194 306.079H72.4507C72.4801 306.462 72.6014 306.756 72.8147 306.962C73.0353 307.16 73.3037 307.26 73.6199 307.26C74.0905 307.26 74.4177 307.061 74.6016 306.664H76.6091C76.5061 307.068 76.3186 307.432 76.0465 307.756C75.7818 308.079 75.4472 308.333 75.0428 308.517C74.6383 308.701 74.1861 308.793 73.686 308.793C73.0831 308.793 72.5463 308.664 72.0756 308.407C71.605 308.149 71.2373 307.782 70.9726 307.304C70.7079 306.826 70.5755 306.267 70.5755 305.627C70.5755 304.987 70.7042 304.428 70.9616 303.95C71.2263 303.472 71.594 303.105 72.0646 302.847C72.5352 302.59 73.0757 302.461 73.686 302.461C74.2817 302.461 74.8111 302.586 75.2744 302.836C75.7377 303.086 76.098 303.443 76.3554 303.906C76.6201 304.37 76.7525 304.91 76.7525 305.528ZM74.8222 305.031C74.8222 304.708 74.7119 304.45 74.4913 304.259C74.2706 304.068 73.9949 303.972 73.664 303.972C73.3478 303.972 73.0794 304.064 72.8588 304.248C72.6455 304.432 72.5132 304.693 72.4617 305.031H74.8222ZM79.8543 303.575C80.0749 303.237 80.3506 302.972 80.6815 302.781C81.0125 302.583 81.3801 302.483 81.7846 302.483V304.48H81.2661C80.7955 304.48 80.4426 304.583 80.2072 304.789C79.9719 304.987 79.8543 305.34 79.8543 305.848V308.704H77.9681V302.55H79.8543V303.575ZM89.194 302.55L85.3334 311.627H83.3038L84.7157 308.495L82.2118 302.55H84.3186L85.7415 306.399L87.1534 302.55H89.194Z" fill="#A2A9AE"/>
<g filter="url(#filter1_d)">
<rect x="5" y="180" width="111.727" height="37" rx="5.04545" fill="white"/>
<path d="M28.1343 194.015L31.9098 197.869L28.1343 202.074" stroke="#EC325A" stroke-width="1.68182" stroke-linecap="round" stroke-linejoin="round"/>
<path d="M18.8667 194.015L15.0912 197.869L18.8667 202.074" stroke="#EC325A" stroke-width="1.68182" stroke-linecap="round" stroke-linejoin="round"/>
<path d="M24.7014 192.614L21.9556 203.826" stroke="#EC325A" stroke-width="1.68182" stroke-linecap="round" stroke-linejoin="round"/>
<path d="M54.1496 194.055L51.6875 203.5H48.9024L47.3955 197.284L45.8347 203.5H43.0496L40.6547 194.055H43.1169L44.4758 200.93L46.1576 194.055H48.6871L50.3016 200.93L51.674 194.055H54.1496ZM58.99 203.608C58.2545 203.608 57.5907 203.451 56.9987 203.137C56.4157 202.823 55.9538 202.374 55.6129 201.791C55.281 201.208 55.1151 200.527 55.1151 199.746C55.1151 198.975 55.2855 198.298 55.6264 197.715C55.9672 197.123 56.4336 196.67 57.0256 196.356C57.6176 196.042 58.2814 195.885 59.0169 195.885C59.7524 195.885 60.4162 196.042 61.0082 196.356C61.6002 196.67 62.0666 197.123 62.4075 197.715C62.7483 198.298 62.9187 198.975 62.9187 199.746C62.9187 200.518 62.7438 201.199 62.394 201.791C62.0532 202.374 61.5823 202.823 60.9813 203.137C60.3893 203.451 59.7255 203.608 58.99 203.608ZM58.99 201.616C59.4295 201.616 59.8018 201.455 60.1067 201.132C60.4207 200.809 60.5776 200.347 60.5776 199.746C60.5776 199.145 60.4252 198.683 60.1202 198.36C59.8242 198.037 59.4564 197.876 59.0169 197.876C58.5684 197.876 58.1962 198.037 57.9002 198.36C57.6042 198.674 57.4562 199.136 57.4562 199.746C57.4562 200.347 57.5997 200.809 57.8867 201.132C58.1827 201.455 58.5505 201.616 58.99 201.616ZM66.7091 197.244C66.9782 196.831 67.3146 196.508 67.7182 196.275C68.1219 196.033 68.5703 195.912 69.0637 195.912V198.347H68.4313C67.8573 198.347 67.4267 198.472 67.1397 198.724C66.8527 198.966 66.7091 199.396 66.7091 200.015V203.5H64.4084V195.992H66.7091V197.244ZM75.0205 203.5L72.7332 200.352V203.5H70.4325V193.544H72.7332V199.047L75.007 195.992H77.8459L74.7245 199.76L77.8728 203.5H75.0205ZM82.786 197.903H81.5481V203.5H79.2474V197.903H78.4132V195.992H79.2474V195.777C79.2474 194.853 79.512 194.154 80.0412 193.678C80.5704 193.194 81.3463 192.952 82.3689 192.952C82.5393 192.952 82.6649 192.956 82.7456 192.965V194.916C82.3061 194.889 81.9966 194.952 81.8172 195.104C81.6378 195.257 81.5481 195.53 81.5481 195.925V195.992H82.786V197.903ZM86.4369 193.544V203.5H84.1361V193.544H86.4369ZM91.7907 203.608C91.0552 203.608 90.3914 203.451 89.7994 203.137C89.2164 202.823 88.7545 202.374 88.4136 201.791C88.0818 201.208 87.9158 200.527 87.9158 199.746C87.9158 198.975 88.0862 198.298 88.4271 197.715C88.7679 197.123 89.2344 196.67 89.8264 196.356C90.4184 196.042 91.0821 195.885 91.8176 195.885C92.5531 195.885 93.2169 196.042 93.8089 196.356C94.4009 196.67 94.8673 197.123 95.2082 197.715C95.549 198.298 95.7194 198.975 95.7194 199.746C95.7194 200.518 95.5445 201.199 95.1947 201.791C94.8539 202.374 94.383 202.823 93.782 203.137C93.19 203.451 92.5262 203.608 91.7907 203.608ZM91.7907 201.616C92.2302 201.616 92.6025 201.455 92.9074 201.132C93.2214 200.809 93.3784 200.347 93.3784 199.746C93.3784 199.145 93.2259 198.683 92.9209 198.36C92.6249 198.037 92.2571 197.876 91.8176 197.876C91.3691 197.876 90.9969 198.037 90.7009 198.36C90.4049 198.674 90.2569 199.136 90.2569 199.746C90.2569 200.347 90.4004 200.809 90.6874 201.132C90.9834 201.455 91.3512 201.616 91.7907 201.616ZM107.986 195.992L105.955 203.5H103.412L102.228 198.629L101.003 203.5H98.4738L96.4288 195.992H98.7295L99.7924 201.361L101.057 195.992H103.492L104.771 201.334L105.82 195.992H107.986Z" fill="#EC325A"/>
</g>
<g clip-path="url(#clip0)">
<path d="M750.49 27.4389C750.281 27.089 749.978 26.8043 749.616 26.6168C749.253 26.4292 748.846 26.3462 748.439 26.3769L730.58 27.7553C729.694 27.8215 728.834 28.0904 728.068 28.5412C727.302 28.992 726.65 29.6127 726.162 30.3554L718.668 41.6889C718.297 42.2506 718.074 42.8963 718.018 43.5668C717.962 44.2373 718.076 44.9111 718.348 45.5263C718.621 46.1415 719.043 46.6784 719.577 47.0878C720.111 47.4971 720.739 47.7658 721.404 47.8691L735.883 50.1118C735.994 50.1293 736.107 50.1381 736.22 50.1382C736.588 50.138 736.95 50.0454 737.273 49.8688C737.596 49.6922 737.869 49.4373 738.068 49.1274L750.455 29.7505C750.675 29.4065 750.795 29.008 750.801 28.5997C750.807 28.1914 750.7 27.7894 750.49 27.4389Z" fill="#F05376"/>
<path d="M772.561 49.5098C772.211 49.3 771.809 49.1921 771.4 49.198C770.992 49.204 770.593 49.3236 770.249 49.5435L750.872 61.9316C750.513 62.161 750.229 62.4899 750.053 62.8782C749.877 63.2665 749.819 63.6975 749.884 64.1187L752.131 78.5957C752.233 79.2616 752.501 79.8911 752.911 80.4261C753.32 80.9611 753.858 81.3844 754.474 81.657C755.09 81.9295 755.765 82.0427 756.436 81.9859C757.107 81.9291 757.754 81.7042 758.315 81.332L769.649 73.8379C770.392 73.3498 771.012 72.6976 771.463 71.9316C771.914 71.1656 772.183 70.3063 772.249 69.4199L773.627 51.5649C773.658 51.1582 773.575 50.751 773.387 50.3888C773.2 50.0266 772.915 49.7237 772.565 49.5142L772.561 49.5098Z" fill="#EC325A"/>
<path d="M746.252 67.3911C746.682 67.8238 747.209 68.1476 747.79 68.3354C748.37 68.5232 748.987 68.5696 749.589 68.4707C767.476 65.4809 781.631 50.6699 787.019 40.2519C793 28.6797 793.225 16.4585 792.912 10.7251C792.861 9.77698 792.461 8.88119 791.79 8.20982C791.119 7.53845 790.223 7.13887 789.275 7.08785C783.541 6.77438 771.32 6.99996 759.748 12.9809C749.33 18.3686 734.519 32.5234 731.529 50.4106C731.43 51.0126 731.477 51.6295 731.664 52.2099C731.852 52.7904 732.176 53.3175 732.609 53.7475L746.252 67.3911Z" fill="#EFF3F5"/>
<path d="M791.79 8.20996L739.431 60.5693L746.252 67.3911C746.682 67.8239 747.21 68.1476 747.79 68.3354C748.37 68.5232 748.987 68.5696 749.589 68.4707C767.477 65.481 781.631 50.6699 787.019 40.252C793 28.6797 793.226 16.4585 792.912 10.7251C792.861 9.777 792.462 8.88121 791.79 8.20996Z" fill="#D5DADD"/>
<path d="M769.376 41.6055C766.834 41.6057 764.371 40.7244 762.406 39.1117C760.441 37.4991 759.096 35.255 758.6 32.7617C758.104 30.2685 758.489 27.6806 759.687 25.4389C760.886 23.1972 762.825 21.4405 765.173 20.4682C767.522 19.4959 770.135 19.3682 772.568 20.1068C775 20.8454 777.101 22.4046 778.513 24.5188C779.924 26.6329 780.559 29.1711 780.308 31.7008C780.058 34.2304 778.938 36.595 777.14 38.3916C776.121 39.4123 774.911 40.2217 773.579 40.7732C772.247 41.3248 770.818 41.6076 769.376 41.6055Z" fill="#385371"/>
<path d="M731.529 50.4106C731.43 51.0126 731.477 51.6295 731.664 52.21C731.852 52.7904 732.176 53.3176 732.609 53.7476L746.252 67.3911C746.682 67.8239 747.209 68.1476 747.79 68.3354C748.37 68.5232 748.987 68.5696 749.589 68.4707C753.424 67.8137 757.155 66.6492 760.682 65.0078L734.992 39.3174C733.351 42.8451 732.186 46.5756 731.529 50.4106Z" fill="#385371"/>
<path d="M720.241 68.8062C720.53 68.8063 720.816 68.7496 721.082 68.6393C721.349 68.5289 721.591 68.3671 721.795 68.1631L728.973 60.9854C729.373 60.571 729.595 60.0159 729.59 59.4398C729.585 58.8637 729.354 58.3126 728.946 57.9052C728.539 57.4978 727.988 57.2667 727.412 57.2617C726.836 57.2567 726.281 57.4782 725.866 57.8785L718.688 65.0562C718.382 65.3635 718.173 65.7548 718.088 66.1808C718.003 66.6068 718.047 67.0483 718.213 67.4495C718.379 67.8508 718.661 68.1938 719.022 68.4353C719.382 68.6767 719.807 68.8058 720.241 68.8062Z" fill="#F4A254"/>
<path d="M735.543 64.457C735.131 64.0451 734.572 63.8137 733.989 63.8137C733.407 63.8137 732.848 64.0451 732.436 64.457L718.644 78.2486C718.435 78.4512 718.267 78.6937 718.152 78.9618C718.037 79.2299 717.976 79.5182 717.974 79.8099C717.971 80.1017 718.027 80.391 718.137 80.6611C718.248 80.9311 718.411 81.1764 718.617 81.3827C718.824 81.589 719.069 81.7522 719.339 81.8627C719.609 81.9731 719.898 82.0287 720.19 82.0262C720.482 82.0237 720.77 81.9631 721.038 81.8479C721.306 81.7327 721.549 81.5653 721.751 81.3555L735.543 67.564C735.955 67.1519 736.186 66.5932 736.186 66.0105C736.186 65.4279 735.955 64.8691 735.543 64.457Z" fill="#F4A254"/>
<path d="M742.117 71.0313C741.705 70.6193 741.146 70.3879 740.564 70.3879C739.981 70.3879 739.422 70.6193 739.01 71.0313L731.832 78.209C731.623 78.4117 731.455 78.6541 731.34 78.9222C731.225 79.1903 731.164 79.4786 731.162 79.7704C731.159 80.0621 731.215 80.3515 731.325 80.6215C731.436 80.8915 731.599 81.1369 731.805 81.3432C732.011 81.5495 732.257 81.7126 732.527 81.8231C732.797 81.9336 733.086 81.9892 733.378 81.9867C733.67 81.9841 733.958 81.9235 734.226 81.8083C734.494 81.6932 734.737 81.5258 734.939 81.3159L742.117 74.1382C742.529 73.7262 742.76 73.1674 742.76 72.5847C742.76 72.0021 742.529 71.4433 742.117 71.0313Z" fill="#EC7D10"/>
<path d="M718.645 81.3555C719.057 81.7674 719.615 81.9988 720.198 81.9988C720.781 81.9988 721.339 81.7674 721.751 81.3555L735.543 67.564C735.955 67.1519 736.186 66.5931 736.186 66.0105C736.186 65.4279 735.955 64.8691 735.543 64.457L718.645 81.3555Z" fill="#EC7D10"/>
<path d="M739.431 60.5693L746.252 67.3911C746.682 67.8239 747.21 68.1476 747.79 68.3354C748.37 68.5232 748.987 68.5696 749.589 68.4707C753.424 67.8137 757.155 66.6492 760.683 65.0078L747.839 52.1611L739.431 60.5693Z" fill="#142232"/>
<path d="M761.608 38.3916C762.625 39.4296 763.836 40.2558 765.174 40.8224C766.512 41.389 767.948 41.6847 769.401 41.6925C770.853 41.7002 772.293 41.4198 773.636 40.8675C774.98 40.3152 776.201 39.5019 777.228 38.4748C778.255 37.4477 779.068 36.227 779.62 34.8835C780.173 33.54 780.453 32.1003 780.445 30.6478C780.438 29.1952 780.142 27.7586 779.575 26.421C779.009 25.0835 778.183 23.8716 777.145 22.8555L761.608 38.3916Z" fill="#142232"/>
<path d="M769.376 24.0347C767.851 24.0354 766.374 24.5649 765.195 25.5329C764.017 26.501 763.21 27.8478 762.914 29.3437C762.617 30.8396 762.848 32.3922 763.568 33.7369C764.287 35.0815 765.451 36.135 766.86 36.7179C768.269 37.3007 769.837 37.3769 771.296 36.9333C772.756 36.4898 774.016 35.554 774.862 34.2854C775.709 33.0169 776.089 31.494 775.939 29.9764C775.789 28.4587 775.117 27.0401 774.038 25.9624C773.426 25.3499 772.699 24.8643 771.899 24.5335C771.099 24.2027 770.242 24.0332 769.376 24.0347Z" fill="#65C6C4"/>
<path d="M774.038 25.9624L764.715 35.2847C765.952 36.5209 767.628 37.2154 769.376 37.2154C771.125 37.2154 772.801 36.5209 774.038 35.2847C775.274 34.0485 775.968 32.3718 775.968 30.6235C775.968 28.8753 775.274 27.1986 774.038 25.9624Z" fill="#21A0A0"/>
</g>
<circle cx="367" cy="123" r="71" stroke="#263D59" stroke-width="2" stroke-linecap="round" stroke-dasharray="4 10"/>
<path d="M486 123C486 57.2781 432.722 4 367 4" stroke="#A7C957" stroke-width="8" stroke-linecap="round"/>
<path d="M486 123C486 90.2131 472.74 60.5232 451.291 39" stroke="#EC7D10" stroke-width="12" stroke-linecap="round"/>
<g filter="url(#filter2_d)">
<path d="M140 43.3551C140 39.293 143.293 36 147.355 36H335.645C339.707 36 343 39.293 343 43.3551V202.804C343 206.866 339.707 210.159 335.645 210.159H147.355C143.293 210.159 140 206.866 140 202.804V43.3551Z" fill="white"/>
<path d="M163.513 58.519V60.3474H160.503V69.8134H158.237V60.3474H155.228V58.519H163.513ZM167.431 62.2406C167.722 61.766 168.1 61.3938 168.563 61.1241C169.038 60.8544 169.577 60.7196 170.182 60.7196V63.0982H169.583C168.871 63.0982 168.332 63.2654 167.965 63.5999C167.609 63.9343 167.431 64.5168 167.431 65.3474V69.8134H165.165V60.8491H167.431V62.2406ZM172.856 59.7811C172.457 59.7811 172.123 59.657 171.853 59.4089C171.594 59.15 171.465 58.8318 171.465 58.4542C171.465 58.0767 171.594 57.7638 171.853 57.5157C172.123 57.2568 172.457 57.1274 172.856 57.1274C173.255 57.1274 173.584 57.2568 173.843 57.5157C174.113 57.7638 174.248 58.0767 174.248 58.4542C174.248 58.8318 174.113 59.15 173.843 59.4089C173.584 59.657 173.255 59.7811 172.856 59.7811ZM173.973 60.8491V69.8134H171.707V60.8491H173.973ZM179.722 60.7034C180.391 60.7034 180.979 60.8383 181.486 61.108C181.993 61.3668 182.392 61.7067 182.683 62.1274V60.8491H184.965V69.8781C184.965 70.7088 184.798 71.4477 184.463 72.095C184.129 72.753 183.627 73.2708 182.958 73.6484C182.29 74.0367 181.481 74.2309 180.531 74.2309C179.258 74.2309 178.212 73.9342 177.392 73.3409C176.583 72.7476 176.125 71.9385 176.017 70.9137H178.266C178.385 71.3237 178.638 71.6473 179.026 71.8846C179.426 72.1327 179.906 72.2568 180.467 72.2568C181.125 72.2568 181.659 72.0572 182.069 71.6581C182.478 71.2697 182.683 70.6764 182.683 69.8781V68.4866C182.392 68.9073 181.988 69.2579 181.47 69.5383C180.963 69.8188 180.38 69.959 179.722 69.959C178.967 69.959 178.277 69.7649 177.651 69.3765C177.025 68.9882 176.529 68.4434 176.162 67.7422C175.806 67.0303 175.628 66.2158 175.628 65.2989C175.628 64.3927 175.806 63.5891 176.162 62.8879C176.529 62.1867 177.02 61.6473 177.635 61.2698C178.261 60.8922 178.956 60.7034 179.722 60.7034ZM182.683 65.3312C182.683 64.7811 182.576 64.3118 182.36 63.9235C182.144 63.5243 181.853 63.2223 181.486 63.0173C181.119 62.8016 180.725 62.6937 180.305 62.6937C179.884 62.6937 179.496 62.7962 179.14 63.0011C178.784 63.2061 178.492 63.5082 178.266 63.9073C178.05 64.2956 177.942 64.7595 177.942 65.2989C177.942 65.8382 178.05 66.3129 178.266 66.7228C178.492 67.1219 178.784 67.4294 179.14 67.6451C179.506 67.8609 179.895 67.9688 180.305 67.9688C180.725 67.9688 181.119 67.8663 181.486 67.6613C181.853 67.4456 182.144 67.1435 182.36 66.7552C182.576 66.356 182.683 65.8814 182.683 65.3312ZM190.689 60.7034C191.358 60.7034 191.946 60.8383 192.453 61.108C192.96 61.3668 193.359 61.7067 193.65 62.1274V60.8491H195.931V69.8781C195.931 70.7088 195.764 71.4477 195.43 72.095C195.095 72.753 194.594 73.2708 193.925 73.6484C193.256 74.0367 192.447 74.2309 191.498 74.2309C190.225 74.2309 189.179 73.9342 188.359 73.3409C187.55 72.7476 187.091 71.9385 186.983 70.9137H189.232C189.351 71.3237 189.605 71.6473 189.993 71.8846C190.392 72.1327 190.872 72.2568 191.433 72.2568C192.091 72.2568 192.625 72.0572 193.035 71.6581C193.445 71.2697 193.65 70.6764 193.65 69.8781V68.4866C193.359 68.9073 192.954 69.2579 192.436 69.5383C191.929 69.8188 191.347 69.959 190.689 69.959C189.934 69.959 189.243 69.7649 188.618 69.3765C187.992 68.9882 187.496 68.4434 187.129 67.7422C186.773 67.0303 186.595 66.2158 186.595 65.2989C186.595 64.3927 186.773 63.5891 187.129 62.8879C187.496 62.1867 187.987 61.6473 188.601 61.2698C189.227 60.8922 189.923 60.7034 190.689 60.7034ZM193.65 65.3312C193.65 64.7811 193.542 64.3118 193.326 63.9235C193.111 63.5243 192.819 63.2223 192.453 63.0173C192.086 62.8016 191.692 62.6937 191.271 62.6937C190.851 62.6937 190.462 62.7962 190.106 63.0011C189.75 63.2061 189.459 63.5082 189.232 63.9073C189.017 64.2956 188.909 64.7595 188.909 65.2989C188.909 65.8382 189.017 66.3129 189.232 66.7228C189.459 67.1219 189.75 67.4294 190.106 67.6451C190.473 67.8609 190.861 67.9688 191.271 67.9688C191.692 67.9688 192.086 67.8663 192.453 67.6613C192.819 67.4456 193.111 67.1435 193.326 66.7552C193.542 66.356 193.65 65.8814 193.65 65.3312ZM206.477 65.1371C206.477 65.4607 206.456 65.7519 206.413 66.0108H199.859C199.913 66.6581 200.14 67.1651 200.539 67.5319C200.938 67.8986 201.429 68.082 202.011 68.082C202.853 68.082 203.451 67.7207 203.807 66.9979H206.251C205.992 67.8609 205.496 68.5729 204.762 69.1338C204.029 69.684 203.128 69.959 202.06 69.959C201.197 69.959 200.42 69.7703 199.73 69.3927C199.05 69.0044 198.516 68.4596 198.128 67.7584C197.75 67.0572 197.561 66.2482 197.561 65.3312C197.561 64.4035 197.75 63.5891 198.128 62.8879C198.505 62.1867 199.034 61.6473 199.714 61.2698C200.393 60.8922 201.175 60.7034 202.06 60.7034C202.912 60.7034 203.673 60.8868 204.341 61.2536C205.021 61.6204 205.544 62.1435 205.911 62.8232C206.289 63.492 206.477 64.2633 206.477 65.1371ZM204.131 64.4898C204.12 63.9073 203.91 63.4434 203.5 63.0982C203.09 62.7422 202.588 62.5643 201.995 62.5643C201.434 62.5643 200.96 62.7369 200.571 63.0821C200.194 63.4165 199.962 63.8857 199.875 64.4898H204.131ZM210.396 62.2406C210.687 61.766 211.065 61.3938 211.529 61.1241C212.003 60.8544 212.543 60.7196 213.147 60.7196V63.0982H212.548C211.836 63.0982 211.297 63.2654 210.93 63.5999C210.574 63.9343 210.396 64.5168 210.396 65.3474V69.8134H208.131V60.8491H210.396V62.2406ZM218.103 69.959C217.37 69.959 216.712 69.8296 216.129 69.5707C215.547 69.301 215.083 68.9396 214.738 68.4866C214.403 68.0335 214.22 67.5319 214.187 66.9817H216.469C216.512 67.3269 216.679 67.6128 216.971 67.8393C217.273 68.0659 217.645 68.1791 218.087 68.1791C218.519 68.1791 218.853 68.0928 219.09 67.9202C219.338 67.7476 219.462 67.5265 219.462 67.2568C219.462 66.9655 219.311 66.7498 219.009 66.6095C218.718 66.4585 218.249 66.2967 217.602 66.1241C216.933 65.9623 216.383 65.7951 215.951 65.6225C215.53 65.4499 215.164 65.1856 214.851 64.8296C214.549 64.4736 214.398 63.9936 214.398 63.3895C214.398 62.8933 214.538 62.4402 214.818 62.0303C215.11 61.6204 215.52 61.2967 216.048 61.0594C216.588 60.8221 217.219 60.7034 217.941 60.7034C219.009 60.7034 219.862 60.9731 220.498 61.5125C221.134 62.0411 221.485 62.7584 221.55 63.6646H219.382C219.349 63.3086 219.198 63.0281 218.928 62.8232C218.67 62.6074 218.319 62.4995 217.877 62.4995C217.467 62.4995 217.149 62.575 216.922 62.7261C216.706 62.8771 216.598 63.0874 216.598 63.3571C216.598 63.6592 216.749 63.8911 217.051 64.0529C217.353 64.2039 217.823 64.3604 218.459 64.5222C219.106 64.684 219.64 64.8512 220.061 65.0238C220.482 65.1964 220.843 65.4661 221.145 65.8329C221.458 66.1888 221.62 66.6635 221.631 67.2568C221.631 67.7746 221.485 68.2384 221.194 68.6484C220.913 69.0583 220.503 69.3819 219.964 69.6192C219.435 69.8458 218.815 69.959 218.103 69.959Z" fill="black"/>
<rect x="300.34" y="50.7101" width="27.9493" height="26.4783" rx="4.41304" fill="#21A0A0"/>
<path d="M314.315 60.0879V67.8107" stroke="white" stroke-width="1.47101" stroke-linecap="round" stroke-linejoin="round"/>
<path d="M310.454 63.9493H318.176" stroke="white" stroke-width="1.47101" stroke-linecap="round" stroke-linejoin="round"/>
<g filter="url(#filter3_d)">
<rect x="154.71" y="91.8986" width="173.58" height="24.7101" rx="4.41304" fill="white"/>
<rect x="162.065" y="99.2537" width="81" height="10" rx="5" fill="#D5DADD"/>
<rect x="303.282" y="99.2537" width="17.6522" height="8.82609" rx="4.41304" fill="#21A0A0"/>
<circle cx="316.521" cy="103.667" r="3.92271" fill="#F3F4F6" stroke="#21A0A0" stroke-width="0.980676"/>
</g>
<g filter="url(#filter4_d)">
<rect x="154.71" y="131.319" width="173.58" height="24.7101" rx="4.41304" fill="white"/>
<rect x="162.065" y="138.674" width="81" height="10" rx="5" fill="#D5DADD"/>
<rect x="303.282" y="138.674" width="17.6522" height="8.82609" rx="4.41304" fill="#21A0A0"/>
<circle cx="316.521" cy="143.087" r="3.92271" fill="#F3F4F6" stroke="#21A0A0" stroke-width="0.980676"/>
</g>
<g filter="url(#filter5_d)">
<rect x="154.71" y="170.739" width="173.58" height="24.7101" rx="4.41304" fill="white"/>
<rect x="162.065" y="178.094" width="81" height="10" rx="5" fill="#D5DADD"/>
<rect x="303.282" y="178.094" width="17.6522" height="8.82609" rx="4.41304" fill="#21A0A0"/>
<circle cx="316.521" cy="182.507" r="3.92271" fill="#F3F4F6" stroke="#21A0A0" stroke-width="0.980676"/>
</g>
</g>
<circle cx="136.131" cy="33.131" r="15.131" fill="#DFE6EA"/>
<path d="M121 33.131C121 41.4875 127.774 48.2619 136.131 48.2619C144.488 48.2619 151.262 41.4875 151.262 33.131C151.262 24.7744 144.488 18 136.131 18" stroke="#263D59" stroke-width="4.14547" stroke-linecap="round"/>
<path d="M132.677 29.1993V25.9133H138.401V41H134.723V29.1993H132.677Z" fill="#263D59"/>
<g filter="url(#filter6_d)">
<path d="M259 130.544C259 126.377 262.377 123 266.544 123H719.457C723.623 123 727 126.377 727 130.544V310.992C727 315.158 723.623 318.535 719.457 318.535H266.543C262.377 318.535 259 315.158 259 310.992V130.544Z" fill="white"/>
<path d="M279.232 159.975C278.424 159.975 277.694 159.837 277.041 159.56C276.399 159.283 275.89 158.885 275.514 158.365C275.138 157.845 274.944 157.231 274.933 156.523H277.423C277.456 156.999 277.622 157.375 277.921 157.651C278.23 157.928 278.651 158.066 279.182 158.066C279.724 158.066 280.15 157.939 280.46 157.685C280.769 157.419 280.924 157.076 280.924 156.656C280.924 156.313 280.819 156.031 280.609 155.809C280.399 155.588 280.133 155.417 279.812 155.295C279.503 155.162 279.071 155.018 278.518 154.863C277.766 154.642 277.152 154.426 276.676 154.216C276.211 153.995 275.807 153.669 275.464 153.237C275.132 152.794 274.966 152.208 274.966 151.478C274.966 150.792 275.138 150.194 275.481 149.686C275.824 149.177 276.305 148.789 276.925 148.524C277.544 148.247 278.252 148.109 279.049 148.109C280.244 148.109 281.212 148.402 281.953 148.989C282.706 149.564 283.121 150.371 283.198 151.411H280.642C280.62 151.013 280.449 150.687 280.128 150.432C279.818 150.167 279.403 150.034 278.883 150.034C278.429 150.034 278.064 150.15 277.788 150.383C277.522 150.615 277.389 150.952 277.389 151.395C277.389 151.705 277.489 151.965 277.688 152.175C277.898 152.374 278.153 152.54 278.452 152.673C278.761 152.794 279.193 152.938 279.746 153.104C280.498 153.326 281.112 153.547 281.588 153.768C282.064 153.989 282.473 154.321 282.816 154.764C283.159 155.206 283.331 155.787 283.331 156.506C283.331 157.126 283.17 157.701 282.849 158.232C282.529 158.763 282.058 159.189 281.439 159.51C280.819 159.82 280.083 159.975 279.232 159.975ZM284.748 155.262C284.748 154.31 284.941 153.48 285.328 152.772C285.716 152.053 286.252 151.5 286.938 151.113C287.624 150.714 288.41 150.515 289.295 150.515C290.434 150.515 291.375 150.803 292.116 151.378C292.868 151.943 293.372 152.739 293.626 153.768H291.12C290.988 153.37 290.761 153.06 290.44 152.839C290.13 152.606 289.743 152.49 289.278 152.49C288.614 152.49 288.089 152.734 287.702 153.22C287.314 153.696 287.121 154.377 287.121 155.262C287.121 156.136 287.314 156.816 287.702 157.303C288.089 157.779 288.614 158.017 289.278 158.017C290.219 158.017 290.833 157.596 291.12 156.755H293.626C293.372 157.751 292.868 158.542 292.116 159.128C291.364 159.715 290.423 160.008 289.295 160.008C288.41 160.008 287.624 159.814 286.938 159.427C286.252 159.029 285.716 158.476 285.328 157.768C284.941 157.048 284.748 156.213 284.748 155.262ZM297.652 152.092C297.95 151.605 298.338 151.223 298.813 150.947C299.3 150.67 299.853 150.532 300.473 150.532V152.971H299.859C299.129 152.971 298.576 153.143 298.199 153.486C297.834 153.829 297.652 154.426 297.652 155.278V159.859H295.328V150.665H297.652V152.092ZM303.216 149.569C302.807 149.569 302.464 149.442 302.187 149.188C301.922 148.922 301.789 148.596 301.789 148.209C301.789 147.821 301.922 147.5 302.187 147.246C302.464 146.98 302.807 146.848 303.216 146.848C303.626 146.848 303.963 146.98 304.229 147.246C304.505 147.5 304.643 147.821 304.643 148.209C304.643 148.596 304.505 148.922 304.229 149.188C303.963 149.442 303.626 149.569 303.216 149.569ZM304.361 150.665V159.859H302.038V150.665H304.361ZM308.98 151.992C309.279 151.572 309.688 151.223 310.208 150.947C310.739 150.659 311.342 150.515 312.017 150.515C312.803 150.515 313.511 150.709 314.142 151.096C314.783 151.483 315.287 152.037 315.652 152.756C316.028 153.464 316.216 154.288 316.216 155.229C316.216 156.169 316.028 157.004 315.652 157.734C315.287 158.454 314.783 159.012 314.142 159.411C313.511 159.809 312.803 160.008 312.017 160.008C311.342 160.008 310.745 159.87 310.225 159.593C309.716 159.317 309.301 158.968 308.98 158.548V164.24H306.657V150.665H308.98V151.992ZM313.843 155.229C313.843 154.675 313.727 154.2 313.494 153.801C313.273 153.392 312.974 153.082 312.598 152.872C312.233 152.662 311.835 152.557 311.403 152.557C310.983 152.557 310.585 152.667 310.208 152.889C309.843 153.099 309.545 153.409 309.312 153.818C309.091 154.227 308.98 154.709 308.98 155.262C308.98 155.815 309.091 156.296 309.312 156.706C309.545 157.115 309.843 157.43 310.208 157.651C310.585 157.862 310.983 157.967 311.403 157.967C311.835 157.967 312.233 157.856 312.598 157.635C312.974 157.414 313.273 157.098 313.494 156.689C313.727 156.28 313.843 155.793 313.843 155.229ZM320.609 152.573V157.021C320.609 157.331 320.681 157.557 320.825 157.701C320.98 157.834 321.235 157.9 321.589 157.9H322.667V159.859H321.207C319.249 159.859 318.269 158.907 318.269 157.004V152.573H317.174V150.665H318.269V148.391H320.609V150.665H322.667V152.573H320.609Z" fill="black"/>
<rect x="662.88" y="138.087" width="49.0328" height="27.1566" rx="4.5261" fill="#21A0A0"/>
<path d="M671.187 155.63V148.122H673.404C674.068 148.122 674.656 148.27 675.168 148.566C675.684 148.861 676.082 149.281 676.364 149.824C676.646 150.367 676.787 150.989 676.787 151.691V152.067C676.787 152.779 676.645 153.405 676.359 153.944C676.077 154.484 675.673 154.9 675.147 155.192C674.625 155.484 674.025 155.63 673.348 155.63H671.187ZM672.492 149.174V154.589H673.343C674.027 154.589 674.551 154.376 674.915 153.949C675.283 153.52 675.471 152.904 675.477 152.103V151.686C675.477 150.871 675.3 150.249 674.946 149.819C674.592 149.389 674.078 149.174 673.404 149.174H672.492ZM680.887 151.196C680.722 151.168 680.552 151.154 680.376 151.154C679.802 151.154 679.415 151.375 679.216 151.815V155.63H677.963V150.051H679.159L679.19 150.675C679.493 150.19 679.912 149.948 680.448 149.948C680.627 149.948 680.775 149.972 680.892 150.02L680.887 151.196ZM683.723 153.836L684.857 150.051H686.193L683.976 156.476C683.635 157.415 683.058 157.884 682.243 157.884C682.061 157.884 681.86 157.853 681.64 157.791V156.822L681.877 156.837C682.193 156.837 682.43 156.779 682.588 156.662C682.75 156.548 682.877 156.356 682.97 156.084L683.151 155.605L681.191 150.051H682.542L683.723 153.836ZM692.469 151.196C692.304 151.168 692.133 151.154 691.958 151.154C691.384 151.154 690.997 151.375 690.798 151.815V155.63H689.545V150.051H690.741L690.772 150.675C691.075 150.19 691.494 149.948 692.03 149.948C692.209 149.948 692.357 149.972 692.474 150.02L692.469 151.196ZM696.64 155.084C696.273 155.517 695.75 155.734 695.073 155.734C694.468 155.734 694.009 155.557 693.696 155.202C693.387 154.848 693.232 154.336 693.232 153.666V150.051H694.485V153.65C694.485 154.359 694.779 154.713 695.367 154.713C695.975 154.713 696.386 154.494 696.599 154.058V150.051H697.852V155.63H696.671L696.64 155.084ZM700.291 150.051L700.327 150.696C700.74 150.197 701.281 149.948 701.952 149.948C703.114 149.948 703.705 150.613 703.726 151.943V155.63H702.473V152.016C702.473 151.662 702.395 151.4 702.241 151.232C702.089 151.06 701.84 150.974 701.493 150.974C700.988 150.974 700.611 151.203 700.364 151.66V155.63H699.11V150.051H700.291Z" fill="white"/>
<rect x="274.087" y="181.244" width="437.826" height="18.1044" rx="9.0522" fill="#D5DADD"/>
<rect x="281.63" y="221.979" width="146" height="10" rx="5" fill="#A7C957"/>
<rect x="291.63" y="239.522" width="46" height="10" rx="5" fill="#43B3B2"/>
<rect x="345.63" y="239.522" width="129" height="10" rx="5" fill="#B91C1C"/>
<rect x="291.63" y="257.522" width="46" height="10" rx="5" fill="#43B3B2"/>
<rect x="345.63" y="257.522" width="177" height="10" rx="5" fill="#B91C1C"/>
<rect x="274.587" y="214.935" width="436.826" height="88.0133" rx="4.0261" stroke="#D5DADD"/>
</g>
<g filter="url(#filter7_d)">
<path d="M617 222.922C617 219.321 619.92 216.401 623.522 216.401H790.478C794.08 216.401 797 219.321 797 222.922V362.745C797 366.347 794.08 369.267 790.478 369.267H623.522C619.92 369.267 617 366.347 617 362.745V222.922Z" fill="white"/>
<path d="M635.682 245.545C634.745 245.545 633.884 245.325 633.1 244.885C632.315 244.445 631.693 243.837 631.234 243.062C630.775 242.278 630.546 241.393 630.546 240.408C630.546 239.432 630.775 238.557 631.234 237.782C631.693 236.998 632.315 236.386 633.1 235.946C633.884 235.506 634.745 235.286 635.682 235.286C636.629 235.286 637.49 235.506 638.265 235.946C639.049 236.386 639.666 236.998 640.116 237.782C640.575 238.557 640.804 239.432 640.804 240.408C640.804 241.393 640.575 242.278 640.116 243.062C639.666 243.837 639.049 244.445 638.265 244.885C637.48 245.325 636.62 245.545 635.682 245.545ZM635.682 243.751C636.285 243.751 636.816 243.617 637.275 243.349C637.734 243.072 638.093 242.68 638.351 242.173C638.609 241.666 638.738 241.078 638.738 240.408C638.738 239.738 638.609 239.155 638.351 238.658C638.093 238.151 637.734 237.763 637.275 237.495C636.816 237.228 636.285 237.094 635.682 237.094C635.08 237.094 634.544 237.228 634.075 237.495C633.616 237.763 633.257 238.151 632.999 238.658C632.741 239.155 632.612 239.738 632.612 240.408C632.612 241.078 632.741 241.666 632.999 242.173C633.257 242.68 633.616 243.072 634.075 243.349C634.544 243.617 635.08 243.751 635.682 243.751ZM646.704 237.381C647.65 237.381 648.416 237.682 648.999 238.285C649.583 238.878 649.874 239.71 649.874 240.781V245.444H647.866V241.054C647.866 240.422 647.708 239.939 647.392 239.605C647.077 239.26 646.646 239.088 646.101 239.088C645.546 239.088 645.106 239.26 644.781 239.605C644.465 239.939 644.307 240.422 644.307 241.054V245.444H642.299V237.495H644.307V238.485C644.575 238.141 644.915 237.873 645.326 237.682C645.747 237.481 646.206 237.381 646.704 237.381ZM654.716 240.422C654.716 239.437 654.936 238.557 655.376 237.782C655.825 236.998 656.433 236.391 657.198 235.96C657.973 235.52 658.838 235.3 659.795 235.3C660.914 235.3 661.894 235.587 662.736 236.161C663.578 236.735 664.166 237.529 664.501 238.543H662.191C661.961 238.065 661.636 237.706 661.215 237.467C660.804 237.228 660.326 237.108 659.78 237.108C659.197 237.108 658.676 237.247 658.216 237.524C657.767 237.792 657.413 238.175 657.155 238.672C656.906 239.169 656.782 239.753 656.782 240.422C656.782 241.082 656.906 241.666 657.155 242.173C657.413 242.67 657.767 243.058 658.216 243.335C658.676 243.603 659.197 243.737 659.78 243.737C660.326 243.737 660.804 243.617 661.215 243.378C661.636 243.129 661.961 242.766 662.191 242.288H664.501C664.166 243.311 663.578 244.11 662.736 244.684C661.904 245.248 660.923 245.53 659.795 245.53C658.838 245.53 657.973 245.315 657.198 244.885C656.433 244.445 655.825 243.837 655.376 243.062C654.936 242.288 654.716 241.408 654.716 240.422ZM669.746 245.573C668.981 245.573 668.292 245.406 667.68 245.071C667.068 244.727 666.585 244.244 666.231 243.622C665.886 243 665.714 242.283 665.714 241.47C665.714 240.657 665.891 239.939 666.245 239.318C666.609 238.696 667.101 238.218 667.723 237.883C668.345 237.538 669.038 237.366 669.803 237.366C670.569 237.366 671.262 237.538 671.884 237.883C672.506 238.218 672.993 238.696 673.347 239.318C673.711 239.939 673.893 240.657 673.893 241.47C673.893 242.283 673.706 243 673.333 243.622C672.969 244.244 672.472 244.727 671.841 245.071C671.219 245.406 670.521 245.573 669.746 245.573ZM669.746 243.823C670.109 243.823 670.449 243.737 670.765 243.565C671.09 243.383 671.348 243.115 671.539 242.761C671.731 242.407 671.826 241.977 671.826 241.47C671.826 240.714 671.626 240.135 671.224 239.734C670.832 239.322 670.349 239.117 669.775 239.117C669.201 239.117 668.718 239.322 668.326 239.734C667.943 240.135 667.752 240.714 667.752 241.47C667.752 242.225 667.938 242.809 668.311 243.22C668.694 243.622 669.172 243.823 669.746 243.823ZM685.237 237.381C686.213 237.381 686.997 237.682 687.59 238.285C688.193 238.878 688.494 239.71 688.494 240.781V245.444H686.486V241.054C686.486 240.432 686.328 239.958 686.012 239.633C685.696 239.298 685.266 239.131 684.721 239.131C684.176 239.131 683.74 239.298 683.415 239.633C683.099 239.958 682.942 240.432 682.942 241.054V245.444H680.933V241.054C680.933 240.432 680.775 239.958 680.459 239.633C680.144 239.298 679.713 239.131 679.168 239.131C678.613 239.131 678.173 239.298 677.848 239.633C677.533 239.958 677.375 240.432 677.375 241.054V245.444H675.366V237.495H677.375V238.457C677.633 238.122 677.963 237.859 678.365 237.668C678.776 237.476 679.226 237.381 679.713 237.381C680.335 237.381 680.89 237.515 681.378 237.782C681.866 238.041 682.243 238.414 682.511 238.901C682.769 238.442 683.143 238.074 683.63 237.797C684.128 237.519 684.663 237.381 685.237 237.381ZM692.409 238.643C692.667 238.28 693.021 237.978 693.471 237.739C693.93 237.491 694.451 237.366 695.035 237.366C695.714 237.366 696.326 237.534 696.871 237.868C697.426 238.203 697.861 238.681 698.177 239.303C698.502 239.915 698.665 240.628 698.665 241.441C698.665 242.254 698.502 242.976 698.177 243.608C697.861 244.229 697.426 244.712 696.871 245.057C696.326 245.401 695.714 245.573 695.035 245.573C694.451 245.573 693.935 245.454 693.485 245.215C693.045 244.975 692.686 244.674 692.409 244.311V249.232H690.4V237.495H692.409V238.643ZM696.613 241.441C696.613 240.963 696.513 240.551 696.312 240.207C696.12 239.853 695.862 239.585 695.537 239.404C695.221 239.222 694.877 239.131 694.504 239.131C694.14 239.131 693.796 239.227 693.471 239.418C693.155 239.6 692.897 239.868 692.696 240.221C692.505 240.575 692.409 240.991 692.409 241.47C692.409 241.948 692.505 242.364 692.696 242.718C692.897 243.072 693.155 243.345 693.471 243.536C693.796 243.718 694.14 243.808 694.504 243.808C694.877 243.808 695.221 243.713 695.537 243.521C695.862 243.33 696.12 243.058 696.312 242.704C696.513 242.35 696.613 241.929 696.613 241.441ZM702.133 234.827V245.444H700.124V234.827H702.133ZM711.507 241.298C711.507 241.585 711.488 241.843 711.449 242.072H705.639C705.686 242.646 705.887 243.096 706.241 243.421C706.595 243.746 707.03 243.909 707.547 243.909C708.293 243.909 708.824 243.588 709.139 242.948H711.306C711.076 243.713 710.636 244.344 709.986 244.841C709.336 245.329 708.537 245.573 707.59 245.573C706.825 245.573 706.136 245.406 705.524 245.071C704.921 244.727 704.448 244.244 704.103 243.622C703.769 243 703.601 242.283 703.601 241.47C703.601 240.647 703.769 239.925 704.103 239.303C704.438 238.681 704.907 238.203 705.509 237.868C706.112 237.534 706.806 237.366 707.59 237.366C708.346 237.366 709.02 237.529 709.613 237.854C710.216 238.179 710.679 238.643 711.005 239.246C711.339 239.839 711.507 240.523 711.507 241.298ZM709.426 240.724C709.417 240.207 709.23 239.796 708.867 239.49C708.503 239.174 708.059 239.016 707.532 239.016C707.035 239.016 706.614 239.169 706.27 239.475C705.935 239.772 705.729 240.188 705.653 240.724H709.426ZM715.312 239.145V242.991C715.312 243.258 715.374 243.455 715.498 243.579C715.632 243.694 715.852 243.751 716.158 243.751H717.091V245.444H715.828C714.135 245.444 713.289 244.621 713.289 242.976V239.145H712.342V237.495H713.289V235.53H715.312V237.495H717.091V239.145H715.312ZM719.554 236.548C719.2 236.548 718.904 236.438 718.665 236.218C718.435 235.989 718.32 235.707 718.32 235.372C718.32 235.037 718.435 234.76 718.665 234.54C718.904 234.31 719.2 234.195 719.554 234.195C719.908 234.195 720.2 234.31 720.429 234.54C720.669 234.76 720.788 235.037 720.788 235.372C720.788 235.707 720.669 235.989 720.429 236.218C720.2 236.438 719.908 236.548 719.554 236.548ZM720.544 237.495V245.444H718.536V237.495H720.544ZM726.058 245.573C725.293 245.573 724.605 245.406 723.992 245.071C723.38 244.727 722.897 244.244 722.543 243.622C722.199 243 722.027 242.283 722.027 241.47C722.027 240.657 722.204 239.939 722.558 239.318C722.921 238.696 723.414 238.218 724.035 237.883C724.657 237.538 725.351 237.366 726.116 237.366C726.881 237.366 727.575 237.538 728.196 237.883C728.818 238.218 729.306 238.696 729.66 239.318C730.023 239.939 730.205 240.657 730.205 241.47C730.205 242.283 730.018 243 729.645 243.622C729.282 244.244 728.785 244.727 728.153 245.071C727.531 245.406 726.833 245.573 726.058 245.573ZM726.058 243.823C726.422 243.823 726.761 243.737 727.077 243.565C727.402 243.383 727.661 243.115 727.852 242.761C728.043 242.407 728.139 241.977 728.139 241.47C728.139 240.714 727.938 240.135 727.536 239.734C727.144 239.322 726.661 239.117 726.087 239.117C725.513 239.117 725.03 239.322 724.638 239.734C724.255 240.135 724.064 240.714 724.064 241.47C724.064 242.225 724.251 242.809 724.624 243.22C725.006 243.622 725.485 243.823 726.058 243.823ZM736.083 237.381C737.03 237.381 737.795 237.682 738.379 238.285C738.962 238.878 739.254 239.71 739.254 240.781V245.444H737.245V241.054C737.245 240.422 737.088 239.939 736.772 239.605C736.456 239.26 736.026 239.088 735.481 239.088C734.926 239.088 734.486 239.26 734.161 239.605C733.845 239.939 733.687 240.422 733.687 241.054V245.444H731.678V237.495H733.687V238.485C733.955 238.141 734.295 237.873 734.706 237.682C735.127 237.481 735.586 237.381 736.083 237.381Z" fill="black"/>
<g filter="url(#filter8_d)">
<rect x="630.043" y="261.006" width="153.913" height="23.0435" rx="3.91304" fill="white"/>
<rect x="636.565" y="267.528" width="81" height="10" rx="5" fill="#D5DADD"/>
</g>
<g filter="url(#filter9_d)">
<rect x="630.043" y="297.093" width="153.913" height="23.0435" rx="3.91304" fill="white"/>
<rect x="636.565" y="303.615" width="112" height="10" rx="5" fill="#D5DADD"/>
</g>
<g filter="url(#filter10_d)">
<rect x="630.043" y="333.18" width="153.913" height="23.0435" rx="3.91304" fill="white"/>
<rect x="636.565" y="339.701" width="68" height="10" rx="5" fill="#D5DADD"/>
</g>
</g>
<circle cx="797.131" cy="216.531" r="15.131" fill="#DFE6EA"/>
<path d="M801.047 201.916C792.975 199.753 784.679 204.544 782.516 212.615C780.353 220.687 785.143 228.984 793.215 231.147C801.287 233.31 809.584 228.52 811.746 220.448" stroke="#316647" stroke-width="4.14547" stroke-linecap="round"/>
<path d="M792.173 213.571C792.228 212.097 792.71 210.96 793.619 210.161C794.529 209.362 795.762 208.962 797.319 208.962C798.352 208.962 799.234 209.141 799.964 209.5C800.708 209.858 801.266 210.347 801.638 210.967C802.024 211.587 802.217 212.283 802.217 213.054C802.217 213.964 801.989 214.708 801.535 215.286C801.08 215.851 800.55 216.237 799.943 216.444V216.526C800.729 216.788 801.349 217.222 801.803 217.828C802.258 218.435 802.485 219.213 802.485 220.164C802.485 221.018 802.286 221.776 801.886 222.437C801.5 223.085 800.928 223.594 800.171 223.966C799.427 224.338 798.538 224.524 797.505 224.524C795.851 224.524 794.529 224.118 793.537 223.305C792.558 222.492 792.042 221.266 791.987 219.626H795.417C795.431 220.233 795.603 220.715 795.934 221.073C796.265 221.417 796.747 221.59 797.381 221.59C797.918 221.59 798.331 221.438 798.621 221.135C798.924 220.818 799.075 220.405 799.075 219.895C799.075 219.234 798.862 218.758 798.435 218.469C798.021 218.166 797.353 218.014 796.43 218.014H795.769V215.142H796.43C797.133 215.142 797.698 215.025 798.125 214.79C798.566 214.542 798.786 214.108 798.786 213.488C798.786 212.992 798.648 212.607 798.373 212.331C798.097 212.055 797.718 211.918 797.236 211.918C796.712 211.918 796.32 212.076 796.058 212.393C795.81 212.71 795.665 213.103 795.624 213.571H792.173Z" fill="#316647"/>
<rect x="669" y="400" width="129" height="25.1027" rx="4.18378" fill="#EC325A"/>
<path d="M697.249 415.973V409.033H699.299C699.912 409.033 700.455 409.169 700.929 409.443C701.405 409.716 701.774 410.104 702.035 410.606C702.295 411.108 702.426 411.683 702.426 412.331V412.679C702.426 413.337 702.294 413.915 702.03 414.414C701.769 414.913 701.396 415.298 700.91 415.568C700.427 415.838 699.872 415.973 699.246 415.973H697.249ZM698.455 410.005V415.01H699.241C699.874 415.01 700.358 414.813 700.695 414.419C701.035 414.022 701.208 413.453 701.215 412.713V412.327C701.215 411.573 701.051 410.998 700.724 410.601C700.397 410.204 699.921 410.005 699.299 410.005H698.455ZM705.786 416.068C705.052 416.068 704.456 415.838 703.999 415.377C703.544 414.913 703.317 414.297 703.317 413.528V413.385C703.317 412.87 703.415 412.411 703.612 412.007C703.813 411.6 704.092 411.284 704.451 411.059C704.81 410.833 705.211 410.72 705.653 410.72C706.355 410.72 706.897 410.944 707.278 411.392C707.663 411.84 707.855 412.474 707.855 413.294V413.761H704.485C704.52 414.187 704.661 414.524 704.909 414.772C705.16 415.02 705.475 415.144 705.853 415.144C706.383 415.144 706.816 414.929 707.149 414.5L707.774 415.096C707.567 415.404 707.291 415.644 706.944 415.816C706.601 415.984 706.215 416.068 705.786 416.068ZM705.648 411.65C705.33 411.65 705.073 411.761 704.876 411.983C704.682 412.206 704.558 412.516 704.504 412.913H706.711V412.827C706.685 412.439 706.582 412.147 706.401 411.95C706.22 411.75 705.969 411.65 705.648 411.65ZM713.275 413.447C713.275 414.244 713.093 414.881 712.731 415.358C712.369 415.832 711.883 416.068 711.273 416.068C710.707 416.068 710.254 415.882 709.914 415.511V417.956H708.756V410.815H709.823L709.871 411.34C710.211 410.927 710.673 410.72 711.258 410.72C711.887 410.72 712.38 410.955 712.736 411.426C713.095 411.893 713.275 412.543 713.275 413.375V413.447ZM712.121 413.347C712.121 412.832 712.018 412.423 711.811 412.122C711.608 411.82 711.315 411.669 710.934 411.669C710.461 411.669 710.121 411.864 709.914 412.255V414.543C710.124 414.943 710.467 415.144 710.944 415.144C711.312 415.144 711.6 414.996 711.806 414.7C712.016 414.402 712.121 413.95 712.121 413.347ZM715.491 415.973H714.333V408.651H715.491V415.973ZM716.54 413.347C716.54 412.841 716.64 412.387 716.84 411.983C717.04 411.577 717.321 411.265 717.684 411.049C718.046 410.83 718.462 410.72 718.933 410.72C719.628 410.72 720.193 410.944 720.625 411.392C721.06 411.84 721.295 412.435 721.33 413.175L721.335 413.447C721.335 413.955 721.236 414.41 721.039 414.81C720.846 415.21 720.566 415.52 720.2 415.739C719.838 415.959 719.419 416.068 718.942 416.068C718.214 416.068 717.631 415.827 717.193 415.344C716.757 414.858 716.54 414.211 716.54 413.404V413.347ZM717.698 413.447C717.698 413.977 717.808 414.394 718.027 414.696C718.246 414.994 718.551 415.144 718.942 415.144C719.333 415.144 719.636 414.991 719.853 414.686C720.072 414.381 720.181 413.934 720.181 413.347C720.181 412.825 720.069 412.412 719.843 412.107C719.621 411.802 719.317 411.65 718.933 411.65C718.554 411.65 718.254 411.801 718.032 412.102C717.809 412.401 717.698 412.849 717.698 413.447ZM724.042 414.314L725.091 410.815H726.326L724.276 416.755C723.961 417.622 723.428 418.056 722.674 418.056C722.506 418.056 722.32 418.027 722.117 417.97V417.074L722.336 417.088C722.628 417.088 722.848 417.034 722.994 416.926C723.143 416.821 723.261 416.644 723.347 416.392L723.513 415.949L721.702 410.815H722.951L724.042 414.314ZM734.982 414.257L736.05 409.033H737.246L735.645 415.973H734.491L733.171 410.906L731.822 415.973H730.663L729.062 409.033H730.258L731.335 414.247L732.661 409.033H733.671L734.982 414.257ZM737.647 413.347C737.647 412.841 737.747 412.387 737.947 411.983C738.147 411.577 738.428 411.265 738.791 411.049C739.153 410.83 739.569 410.72 740.039 410.72C740.735 410.72 741.299 410.944 741.732 411.392C742.167 411.84 742.402 412.435 742.437 413.175L742.442 413.447C742.442 413.955 742.343 414.41 742.146 414.81C741.952 415.21 741.673 415.52 741.307 415.739C740.945 415.959 740.526 416.068 740.049 416.068C739.321 416.068 738.738 415.827 738.3 415.344C737.864 414.858 737.647 414.211 737.647 413.404V413.347ZM738.805 413.447C738.805 413.977 738.914 414.394 739.134 414.696C739.353 414.994 739.658 415.144 740.049 415.144C740.44 415.144 740.743 414.991 740.959 414.686C741.179 414.381 741.288 413.934 741.288 413.347C741.288 412.825 741.175 412.412 740.95 412.107C740.727 411.802 740.424 411.65 740.039 411.65C739.661 411.65 739.361 411.801 739.139 412.102C738.916 412.401 738.805 412.849 738.805 413.447ZM746.122 411.874C745.969 411.848 745.812 411.836 745.65 411.836C745.119 411.836 744.762 412.039 744.577 412.446V415.973H743.419V410.815H744.525L744.553 411.392C744.833 410.944 745.221 410.72 745.717 410.72C745.882 410.72 746.018 410.742 746.126 410.787L746.122 411.874ZM748.529 413.761L748.014 414.29V415.973H746.856V408.651H748.014V412.875L748.376 412.422L749.802 410.815H751.193L749.277 412.965L751.398 415.973H750.059L748.529 413.761ZM755.293 409.571C754.969 409.527 754.689 409.505 754.454 409.505C753.831 409.505 753.52 409.797 753.52 410.382V410.815H754.568V411.673H753.52V415.973H752.361V411.673H751.575V410.815H752.361V410.353C752.364 409.772 752.536 409.327 752.876 409.018C753.219 408.707 753.702 408.551 754.325 408.551C754.713 408.551 755.421 408.628 756.451 408.78V415.973H755.293V409.571ZM757.514 413.347C757.514 412.841 757.614 412.387 757.814 411.983C758.015 411.577 758.296 411.265 758.658 411.049C759.02 410.83 759.437 410.72 759.907 410.72C760.603 410.72 761.167 410.944 761.599 411.392C762.034 411.84 762.27 412.435 762.305 413.175L762.309 413.447C762.309 413.955 762.211 414.41 762.014 414.81C761.82 415.21 761.54 415.52 761.175 415.739C760.813 415.959 760.393 416.068 759.916 416.068C759.189 416.068 758.606 415.827 758.167 415.344C757.732 414.858 757.514 414.211 757.514 413.404V413.347ZM758.672 413.447C758.672 413.977 758.782 414.394 759.001 414.696C759.221 414.994 759.526 415.144 759.916 415.144C760.307 415.144 760.611 414.991 760.827 414.686C761.046 414.381 761.156 413.934 761.156 413.347C761.156 412.825 761.043 412.412 760.817 412.107C760.595 411.802 760.291 411.65 759.907 411.65C759.529 411.65 759.228 411.801 759.006 412.102C758.784 412.401 758.672 412.849 758.672 413.447ZM767.82 414.376L768.64 410.815H769.769L768.363 415.973H767.41L766.304 412.431L765.217 415.973H764.264L762.853 410.815H763.982L764.817 414.338L765.875 410.815H766.747L767.82 414.376Z" fill="white"/>
<path d="M356.25 92.0833L338.833 83.8333L347.083 101.25L348.916 93.9166L356.25 92.0833Z" fill="#EC325A" stroke="#EC325A" stroke-width="1.32143" stroke-linecap="round" stroke-linejoin="round"/>
<circle cx="402.343" cy="362.343" r="4.75714" transform="rotate(-90 402.343 362.343)" fill="white" stroke="#A7C957" stroke-width="3.17143"/>
<circle cx="151.5" cy="401.5" r="5.5" fill="#EC7D10"/>
<defs>
<filter id="filter0_d" x="232.226" y="314.227" width="48.5457" height="48.5457" filterUnits="userSpaceOnUse" color-interpolation-filters="sRGB">
<feFlood flood-opacity="0" result="BackgroundImageFix"/>
<feColorMatrix in="SourceAlpha" type="matrix" values="0 0 0 0 0 0 0 0 0 0 0 0 0 0 0 0 0 0 127 0" result="hardAlpha"/>
<feOffset/>
<feGaussianBlur stdDeviation="3.38691"/>
<feColorMatrix type="matrix" values="0 0 0 0 0 0 0 0 0 0 0 0 0 0 0 0 0 0 0.1 0"/>
<feBlend mode="normal" in2="BackgroundImageFix" result="effect1_dropShadow"/>
<feBlend mode="normal" in="SourceGraphic" in2="effect1_dropShadow" result="shape"/>
</filter>
<filter id="filter1_d" x="0.795454" y="175.795" width="120.136" height="45.4091" filterUnits="userSpaceOnUse" color-interpolation-filters="sRGB">
<feFlood flood-opacity="0" result="BackgroundImageFix"/>
<feColorMatrix in="SourceAlpha" type="matrix" values="0 0 0 0 0 0 0 0 0 0 0 0 0 0 0 0 0 0 127 0" result="hardAlpha"/>
<feOffset/>
<feGaussianBlur stdDeviation="2.10227"/>
<feComposite in2="hardAlpha" operator="out"/>
<feColorMatrix type="matrix" values="0 0 0 0 0 0 0 0 0 0 0 0 0 0 0 0 0 0 0.15 0"/>
<feBlend mode="normal" in2="BackgroundImageFix" result="effect1_dropShadow"/>
<feBlend mode="normal" in="SourceGraphic" in2="effect1_dropShadow" result="shape"/>
</filter>
<filter id="filter2_d" x="134.116" y="30.1159" width="214.768" height="185.928" filterUnits="userSpaceOnUse" color-interpolation-filters="sRGB">
<feFlood flood-opacity="0" result="BackgroundImageFix"/>
<feColorMatrix in="SourceAlpha" type="matrix" values="0 0 0 0 0 0 0 0 0 0 0 0 0 0 0 0 0 0 127 0" result="hardAlpha"/>
<feOffset/>
<feGaussianBlur stdDeviation="2.94203"/>
<feComposite in2="hardAlpha" operator="out"/>
<feColorMatrix type="matrix" values="0 0 0 0 0 0 0 0 0 0 0 0 0 0 0 0 0 0 0.15 0"/>
<feBlend mode="normal" in2="BackgroundImageFix" result="effect1_dropShadow"/>
<feBlend mode="normal" in="SourceGraphic" in2="effect1_dropShadow" result="shape"/>
</filter>
<filter id="filter3_d" x="151.032" y="88.221" width="180.935" height="32.0652" filterUnits="userSpaceOnUse" color-interpolation-filters="sRGB">
<feFlood flood-opacity="0" result="BackgroundImageFix"/>
<feColorMatrix in="SourceAlpha" type="matrix" values="0 0 0 0 0 0 0 0 0 0 0 0 0 0 0 0 0 0 127 0" result="hardAlpha"/>
<feOffset/>
<feGaussianBlur stdDeviation="1.83877"/>
<feColorMatrix type="matrix" values="0 0 0 0 0 0 0 0 0 0 0 0 0 0 0 0 0 0 0.1 0"/>
<feBlend mode="normal" in2="BackgroundImageFix" result="effect1_dropShadow"/>
<feBlend mode="normal" in="SourceGraphic" in2="effect1_dropShadow" result="shape"/>
</filter>
<filter id="filter4_d" x="151.032" y="127.641" width="180.935" height="32.0652" filterUnits="userSpaceOnUse" color-interpolation-filters="sRGB">
<feFlood flood-opacity="0" result="BackgroundImageFix"/>
<feColorMatrix in="SourceAlpha" type="matrix" values="0 0 0 0 0 0 0 0 0 0 0 0 0 0 0 0 0 0 127 0" result="hardAlpha"/>
<feOffset/>
<feGaussianBlur stdDeviation="1.83877"/>
<feColorMatrix type="matrix" values="0 0 0 0 0 0 0 0 0 0 0 0 0 0 0 0 0 0 0.1 0"/>
<feBlend mode="normal" in2="BackgroundImageFix" result="effect1_dropShadow"/>
<feBlend mode="normal" in="SourceGraphic" in2="effect1_dropShadow" result="shape"/>
</filter>
<filter id="filter5_d" x="151.032" y="167.062" width="180.935" height="32.0652" filterUnits="userSpaceOnUse" color-interpolation-filters="sRGB">
<feFlood flood-opacity="0" result="BackgroundImageFix"/>
<feColorMatrix in="SourceAlpha" type="matrix" values="0 0 0 0 0 0 0 0 0 0 0 0 0 0 0 0 0 0 127 0" result="hardAlpha"/>
<feOffset/>
<feGaussianBlur stdDeviation="1.83877"/>
<feColorMatrix type="matrix" values="0 0 0 0 0 0 0 0 0 0 0 0 0 0 0 0 0 0 0.1 0"/>
<feBlend mode="normal" in2="BackgroundImageFix" result="effect1_dropShadow"/>
<feBlend mode="normal" in="SourceGraphic" in2="effect1_dropShadow" result="shape"/>
</filter>
<filter id="filter6_d" x="251" y="115" width="490.486" height="211.535" filterUnits="userSpaceOnUse" color-interpolation-filters="sRGB">
<feFlood flood-opacity="0" result="BackgroundImageFix"/>
<feColorMatrix in="SourceAlpha" type="matrix" values="0 0 0 0 0 0 0 0 0 0 0 0 0 0 0 0 0 0 127 0" result="hardAlpha"/>
<feOffset/>
<feGaussianBlur stdDeviation="4"/>
<feComposite in2="hardAlpha" operator="out"/>
<feColorMatrix type="matrix" values="0 0 0 0 0 0 0 0 0 0 0 0 0 0 0 0 0 0 0.15 0"/>
<feBlend mode="normal" in2="BackgroundImageFix" result="effect1_dropShadow"/>
<feBlend mode="normal" in="SourceGraphic" in2="effect1_dropShadow" result="shape"/>
</filter>
<filter id="filter7_d" x="611.783" y="211.183" width="190.435" height="163.301" filterUnits="userSpaceOnUse" color-interpolation-filters="sRGB">
<feFlood flood-opacity="0" result="BackgroundImageFix"/>
<feColorMatrix in="SourceAlpha" type="matrix" values="0 0 0 0 0 0 0 0 0 0 0 0 0 0 0 0 0 0 127 0" result="hardAlpha"/>
<feOffset/>
<feGaussianBlur stdDeviation="2.6087"/>
<feComposite in2="hardAlpha" operator="out"/>
<feColorMatrix type="matrix" values="0 0 0 0 0 0 0 0 0 0 0 0 0 0 0 0 0 0 0.15 0"/>
<feBlend mode="normal" in2="BackgroundImageFix" result="effect1_dropShadow"/>
<feBlend mode="normal" in="SourceGraphic" in2="effect1_dropShadow" result="shape"/>
</filter>
<filter id="filter8_d" x="626.783" y="257.745" width="160.435" height="29.5652" filterUnits="userSpaceOnUse" color-interpolation-filters="sRGB">
<feFlood flood-opacity="0" result="BackgroundImageFix"/>
<feColorMatrix in="SourceAlpha" type="matrix" values="0 0 0 0 0 0 0 0 0 0 0 0 0 0 0 0 0 0 127 0" result="hardAlpha"/>
<feOffset/>
<feGaussianBlur stdDeviation="1.63043"/>
<feColorMatrix type="matrix" values="0 0 0 0 0 0 0 0 0 0 0 0 0 0 0 0 0 0 0.1 0"/>
<feBlend mode="normal" in2="BackgroundImageFix" result="effect1_dropShadow"/>
<feBlend mode="normal" in="SourceGraphic" in2="effect1_dropShadow" result="shape"/>
</filter>
<filter id="filter9_d" x="626.783" y="293.832" width="160.435" height="29.5652" filterUnits="userSpaceOnUse" color-interpolation-filters="sRGB">
<feFlood flood-opacity="0" result="BackgroundImageFix"/>
<feColorMatrix in="SourceAlpha" type="matrix" values="0 0 0 0 0 0 0 0 0 0 0 0 0 0 0 0 0 0 127 0" result="hardAlpha"/>
<feOffset/>
<feGaussianBlur stdDeviation="1.63043"/>
<feColorMatrix type="matrix" values="0 0 0 0 0 0 0 0 0 0 0 0 0 0 0 0 0 0 0.1 0"/>
<feBlend mode="normal" in2="BackgroundImageFix" result="effect1_dropShadow"/>
<feBlend mode="normal" in="SourceGraphic" in2="effect1_dropShadow" result="shape"/>
</filter>
<filter id="filter10_d" x="626.783" y="329.919" width="160.435" height="29.5652" filterUnits="userSpaceOnUse" color-interpolation-filters="sRGB">
<feFlood flood-opacity="0" result="BackgroundImageFix"/>
<feColorMatrix in="SourceAlpha" type="matrix" values="0 0 0 0 0 0 0 0 0 0 0 0 0 0 0 0 0 0 127 0" result="hardAlpha"/>
<feOffset/>
<feGaussianBlur stdDeviation="1.63043"/>
<feColorMatrix type="matrix" values="0 0 0 0 0 0 0 0 0 0 0 0 0 0 0 0 0 0 0.1 0"/>
<feBlend mode="normal" in2="BackgroundImageFix" result="effect1_dropShadow"/>
<feBlend mode="normal" in="SourceGraphic" in2="effect1_dropShadow" result="shape"/>
</filter>
<clipPath id="clip0">
<rect width="75" height="75" fill="white" transform="translate(718 7)"/>
</clipPath>
</defs>
</svg>
