<svg width="553" height="488" id="Layer_1" data-name="Layer 1" xmlns="http://www.w3.org/2000/svg" viewBox="0 0 553 488"><defs><style>.cls-1,.cls-16,.cls-2,.cls-3,.cls-4,.cls-6,.cls-7,.cls-8{fill:none;}.cls-1{stroke:#dfe6ea;}.cls-1,.cls-6{stroke-width:2px;}.cls-10,.cls-2,.cls-8{stroke:#ec325a;}.cls-2,.cls-3,.cls-7{stroke-linecap:round;}.cls-10,.cls-11,.cls-2{stroke-width:4px;}.cls-2{stroke-dasharray:5 20;}.cls-3,.cls-6,.cls-7{stroke:#263d59;}.cls-3{stroke-width:3px;}.cls-4{stroke:#ec7d10;stroke-width:6px;}.cls-5{fill:#21a0a0;}.cls-7,.cls-8{stroke-width:20px;}.cls-9{fill:#a7c957;}.cls-10,.cls-11{fill:#fff;}.cls-11{stroke:#b6d46d;}.cls-12{fill:#ec315a;}.cls-13{opacity:0.1;}.cls-14{fill:#ec325a;}.cls-15{fill:#344866;}.cls-17{fill:#214e34;}.cls-18{fill:#fffae3;}.cls-19{fill:#ec7d10;}.cls-20{fill:#1fa0a0;}</style></defs><path class="cls-1" d="M130,69,488.5,405.5" transform="translate(0 0)"/><circle class="cls-1" cx="309" cy="244" r="243"/><path class="cls-2" d="M168.5,111.68A192.34,192.34,0,0,0,116,244c0,106.59,86.41,193,193,193a192.54,192.54,0,0,0,144.16-64.67" transform="translate(0 0)"/><path class="cls-3" d="M414,82a192.94,192.94,0,0,1,87.5,148" transform="translate(0 0)"/><circle class="cls-4" cx="407" cy="78" r="9"/><circle class="cls-5" cx="500" cy="230" r="7"/><circle class="cls-5" cx="134" cy="75" r="7"/><path class="cls-6" d="M12.9,300A306.57,306.57,0,0,1,111.47,22.5" transform="translate(0 0)"/><path class="cls-7" d="M111.47,22.5A305.86,305.86,0,0,0,17,181" transform="translate(0 0)"/><path class="cls-8" d="M111.47,22.5a306.55,306.55,0,0,0-82.68,120" transform="translate(0 0)"/><path class="cls-9" d="M62.88,60.46l-6,8L72.79,80.51l6-8ZM118.12,30A10,10,0,1,0,104.81,15ZM78.83,72.54A297.45,297.45,0,0,1,118.12,30L104.81,15A318.31,318.31,0,0,0,62.88,60.46Z" transform="translate(0 0)"/><circle class="cls-5" cx="10" cy="245" r="10"/><circle class="cls-10" cx="15" cy="306" r="6"/><circle class="cls-11" cx="490" cy="407" r="6"/><path class="cls-12" d="M360.81,147.84a25.06,25.06,0,0,0-24.44-37.58l0,0c-6.14.55-12.13,3.85-16.9,6.82-2.57-1.18-5-2.65-5.85-5.83-1.06-3.79-1.85-16.65-8.1-24.06a23.5,23.5,0,0,0-41.7,14.06,51.56,51.56,0,0,0,1.95,14.94c1,3.25,2.45,8-.68,12.23s-8.59,12.8-11.43,20.19a1,1,0,0,0-.08.3,50.81,50.81,0,1,0,97.32,10.7A43.11,43.11,0,0,0,360.81,147.84Z" transform="translate(0 0)"/><path class="cls-13" d="M311.82,125.37c15.32-8.72,27.53,2.42,29.2,4.47,1,1.29,1.57,1.23,1.88,1s.45-1.11-.67-3.39c-1.9-3.87-12-12.62-22.73-10.46l-.05,0c-2.57-1.18-5-2.65-5.85-5.83-.26-.92-.5-2.37-.8-4.15.3,5.17-1,8.71-5.15,11.77-5,3.67-26.63,11.31-40.8,2a11.47,11.47,0,0,1-.24,4.42C272.3,130.13,295,135,311.82,125.37Z" transform="translate(0 0)"/><path class="cls-13" d="M359.27,120.09c1.8,4.16,5,20.14-3.2,23.21-8.53,3.19-6.71-7.62-10-6.14s2.84,9.56,1.25,24.46S341.05,205.3,310,209.85c-30.14,4.41-46.78-5.32-55.74-21.6a50.8,50.8,0,0,0,96.62-28.66,43.11,43.11,0,0,0,9.93-11.75,25,25,0,0,0-1.54-27.75Z" transform="translate(0 0)"/><path d="M283.75,167.38c-2.62,0-4.75-1.82-4.75-4.08V152.67c0-2.25,2.13-4.08,4.75-4.08s4.76,1.83,4.76,4.08V163.3C288.51,165.56,286.38,167.38,283.75,167.38Z" transform="translate(0 0)"/><path d="M323.15,167.89c-2.62,0-4.75-1.83-4.75-4.09V153.18c0-2.26,2.13-4.09,4.75-4.09s4.76,1.83,4.76,4.09V163.8C327.91,166.06,325.78,167.89,323.15,167.89Z" transform="translate(0 0)"/><path class="cls-13" d="M229.47,264.72c-2.66,2.8-5.29,6.09-8.88,14a55.57,55.57,0,0,0-4.6,16c-.29,1.93-2.05,1.59-2.33-1.48s-.23-11.09,2.38-17.69,11.32-11.43,12.35-11.83S230.55,263.59,229.47,264.72Z" transform="translate(0 0)"/><path class="cls-14" d="M235.45,261.44a24.68,24.68,0,0,0-26.95-37.39h0A31.93,31.93,0,0,0,198,228.72c-2.57,1.71-3,2.27-3.77,2.05a.13.13,0,0,0-.08,0,50.06,50.06,0,0,0-52.7,82.28A20.23,20.23,0,1,0,173,329.85c0-.72,0-1.44-.11-2.14,1.36.11,2.74.17,4.14.17a50.05,50.05,0,0,0,50.05-50.05,50.57,50.57,0,0,0-.36-6.06C230.24,268.49,232.09,267.15,235.45,261.44Z" transform="translate(0 0)"/><path class="cls-15" d="M235.45,261.44a24.68,24.68,0,0,0-26.95-37.39h0A31.93,31.93,0,0,0,198,228.72c-2.57,1.71-3,2.27-3.77,2.05a.13.13,0,0,0-.08,0,50.06,50.06,0,0,0-52.7,82.28A20.23,20.23,0,1,0,173,329.85c0-.72,0-1.44-.11-2.14,1.36.11,2.74.17,4.14.17a50.05,50.05,0,0,0,50.05-50.05,50.57,50.57,0,0,0-.36-6.06C230.24,268.49,232.09,267.15,235.45,261.44Z" transform="translate(0 0)"/><path class="cls-13" d="M231.26,229.52a25.45,25.45,0,0,1,6.19,14.55c.68,8.75-3.89,11.83-6.09,11.45-1.3-.23-3.54-7.44-9.62-13.89-4.2-4.46-9.2-6.32-10.29-5.53s1.54,1.33,7.47,11.07c7.44,12.21,3.34,42.51-9.06,54.79s-33.93,22.94-55.32,14.53a40.75,40.75,0,0,1-15.61-10.78c-1.91-2.42-4.86-2.72-3.23.38a50.75,50.75,0,0,0,5.76,7h0s6.2,7.34,11.85,9.43,13.31,5.38,12.51,9.76-3.18,11.09-9.63,13.33-15.09-.88-17.25-3.87a11.27,11.27,0,0,0-4.43-3.11A20.23,20.23,0,0,0,173,329.85c0-.72,0-1.44-.11-2.14,1.36.11,2.74.17,4.14.17a50.05,50.05,0,0,0,50.05-50.05,50.57,50.57,0,0,0-.36-6.06c3.54-3.28,5.39-4.62,8.75-10.33a24.67,24.67,0,0,0-4.19-31.92Z" transform="translate(0 0)"/><path d="M148.34,270.23c-2.63,0-4.76-1.82-4.76-4.08V255.52c0-2.25,2.13-4.08,4.76-4.08s4.75,1.83,4.75,4.08v10.63C153.09,268.41,151,270.23,148.34,270.23Z" transform="translate(0 0)"/><path d="M187.73,270.74c-2.62,0-4.75-1.83-4.75-4.09V256c0-2.26,2.13-4.09,4.75-4.09s4.76,1.83,4.76,4.09v10.62C192.49,268.91,190.36,270.74,187.73,270.74Z" transform="translate(0 0)"/><path class="cls-9" d="M320.57,266.42l.06-.05a89.4,89.4,0,0,0-5.38-8.26c-1.44-2-3.19-4.18-2.2-9.94s4.62-13.72,4.4-25.4-3.19-20.33-7.06-26.7a.61.61,0,0,0-.15-.17,49.36,49.36,0,0,0-21.91-20.3l-.06,0c-6.14-3.13-11.89-4.61-20.3-6s-11.72-1.42-16.16-3.58-11.94-9.39-16.89-11.38l0,0A21.44,21.44,0,0,0,204.3,174a21.63,21.63,0,0,0,.74,5.61l0,0a40.23,40.23,0,0,0,5.92,12.11,50.84,50.84,0,0,1,3.7,6.6,23.21,23.21,0,0,1,1.7,8.59c.23,4.94,1.25,22.92,5.46,31.62l.09.14a49.31,49.31,0,0,0,14.69,19.73,50.78,50.78,0,0,0,22.87,11.41c11.23,2.65,17.07,1.9,20,3.41s5.54,4.55,7.44,7.43,4.27,6,5.87,6.88a17.65,17.65,0,0,0,27.81-21.16Z" transform="translate(0 0)"/><path class="cls-16" d="M216.29,206.31a22.34,22.34,0,0,0-1.67-7.94,50.84,50.84,0,0,0-3.7-6.6A40.23,40.23,0,0,1,205,179.66l0,0a21.63,21.63,0,0,1-.74-5.61c0-.25,0-.49,0-.74-.18-.56-.27-.89-.27-.89-2.3,15.85,12.12,42.75,12.43,37.32,0-.4-.05-.78-.07-1.13A22.31,22.31,0,0,1,216.29,206.31Z" transform="translate(0 0)"/><path class="cls-16" d="M216.32,207l0-.65a22.31,22.31,0,0,0,.11,2.26C216.37,207.94,216.34,207.4,216.32,207Z" transform="translate(0 0)"/><path class="cls-13" d="M205,179.62l0,0a40.23,40.23,0,0,0,5.92,12.11,50.84,50.84,0,0,1,3.7,6.6,22.34,22.34,0,0,1,1.67,7.94c0-6.62,3.85-10.48,17.44-25.18,10.29-11.13,21.16-12.8,27.14-12.7a28.74,28.74,0,0,1-9.06-2.48,31.66,31.66,0,0,1-4.32-2.78c1.71,3.9-10.19,8.45-16.27,13.64-6.25,5.35-9.89,9.33-15.92,11.6-5.22,2-9.84-11.49-11-15.14,0,.25,0,.49,0,.74A21.63,21.63,0,0,0,205,179.62Z" transform="translate(0 0)"/><path class="cls-13" d="M216.44,208.89c0-.11,0-.21,0-.32,0,.35,0,.73.07,1.13A6,6,0,0,0,216.44,208.89Z" transform="translate(0 0)"/><path class="cls-13" d="M309.09,287.32c-10.07,3.58-18.37-5.63-17.35-11s14.1-13.25,18.2-15.47,8.36-.41,11.95,8.52a17.21,17.21,0,0,0-1.32-3l.06-.05a89.4,89.4,0,0,0-5.38-8.26c-1.44-2-3.19-4.18-2.2-9.94s4.62-13.72,4.4-25.4c-.22-11.2-2.95-19.61-6.58-25.9,3.76,13,6.89,35.81-17.65,55.24-27.55,21.81-50.26,9-64.31-1.36a49.74,49.74,0,0,0,7.65,7.7,50.78,50.78,0,0,0,22.87,11.41c11.23,2.65,17.07,1.9,20,3.41s5.54,4.55,7.44,7.43,4.27,6,5.87,6.88a17.66,17.66,0,0,0,28.71-5.85C319,278.77,318.84,283.85,309.09,287.32Z" transform="translate(0 0)"/><path d="M243.47,219.5c-2.62,0-4.75-1.83-4.75-4.09V204.79c0-2.26,2.13-4.09,4.75-4.09s4.76,1.83,4.76,4.09v10.62C248.23,217.67,246.1,219.5,243.47,219.5Z" transform="translate(0 0)"/><path d="M282.87,220c-2.63,0-4.75-1.83-4.75-4.09V205.29c0-2.26,2.12-4.09,4.75-4.09s4.75,1.83,4.75,4.09v10.62C287.62,218.17,285.49,220,282.87,220Z" transform="translate(0 0)"/><path class="cls-17" d="M412.44,271.18h0c-2-2-7.56-5-11.94-7.33s-4.84-6.66-5.06-9.73-.51-11.66-1.48-16.26-1-7.27-5-16.29a1.35,1.35,0,0,0-.15-.26l-.3-.63v0c-4.17-9.71-11.68-18.2-15.78-22.6S356.8,179,349.9,175.69s-8.57-3.56-12.59-4.09l-.05,0a29.28,29.28,0,0,0-3-.16,27.9,27.9,0,0,0-22.9,11.94l-.06,0c-2.37,2.4-11.84,24.64-16.54,42.42a50.43,50.43,0,0,0-2.61,13.82c0,.4,0,.78-.06,1.16h0c0,.42,0,.84,0,1.26a50.42,50.42,0,0,0,2.59,16c3.79,11.94,9.17,17.17,9.17,17.17a51.87,51.87,0,0,0,39.36,18.85c14.56.11,24.85-4.44,30.14-5.92s7.68.4,9.33,1.82,5.47,5.57,9.95,8.2a16.8,16.8,0,0,0,19.79-27Z" transform="translate(0 0)"/><path class="cls-13" d="M391.57,291.38c-7.62-6.83,5.46-20.14,6.71-23,1.07-2.44,1.14-3.54-.64-6.94-1.76-2.29-2-5.14-2.2-7.34-.19-2.55-.65-15.26-2.39-20.87,2.5,21.16-19.49,41.95-39.47,47.83-20.31,6-43.19-12.45-47.63-20.13s-7.83-9.62-9.59-9c-1.46.47-2.92,1-1.65,6.21,3.78,11.93,9.16,17.15,9.16,17.15a51.87,51.87,0,0,0,39.36,18.85c14.56.11,24.85-4.44,30.14-5.92s7.68.4,9.33,1.82,5.47,5.57,9.95,8.2a16.81,16.81,0,0,0,25.63-14.3C414.39,298.18,399.19,298.2,391.57,291.38Z" transform="translate(0 0)"/><path d="M316.84,238.87c-2.63,0-4.76-1.83-4.76-4.09V224.16c0-2.26,2.13-4.09,4.76-4.09s4.75,1.83,4.75,4.09v10.62C321.59,237,319.46,238.87,316.84,238.87Z" transform="translate(0 0)"/><path d="M356.24,239.37c-2.63,0-4.76-1.83-4.76-4.09V224.66c0-2.26,2.13-4.09,4.76-4.09s4.75,1.83,4.75,4.09v10.62C361,237.54,358.86,239.37,356.24,239.37Z" transform="translate(0 0)"/><path class="cls-18" d="M342.48,283.55A24,24,0,0,0,321,259.7h0a79,79,0,0,0-11.46-.17c-2.42.08-7.74.34-11-1.11s-17.91-7-25-8.08a.6.6,0,0,0-.19,0A49.78,49.78,0,0,0,231,263.07a19.89,19.89,0,1,0-15.7,35c0,.42,0,.84,0,1.26a49.72,49.72,0,0,0,78.12,40.8c7.84-5.15,11.84-10.43,15-14.39s7-10.92,10-13.14S332.24,305,336.9,299v0A23.84,23.84,0,0,0,342.48,283.55Z" transform="translate(0 0)"/><path class="cls-13" d="M342.48,283.55a23.87,23.87,0,0,0-2.34-10.34c1.39,14.15-6.08,19.3-12.9,20.41-7.06,1.13-5.35-14.56-11.38-24.35a40.16,40.16,0,0,0-8.48-9.69,27.69,27.69,0,0,1-7.38-.67c10.2,7.33,15.31,15.25,16.66,26.06,1.7,13.65-7.17,35.66-28.5,47.09s-43.68,5.63-52.38-2.56c-13.82-12.11-14.33-23.88-17.86-23.88-1,.09-1.55.89-1.9,2a49.72,49.72,0,0,0,77.42,32.48c7.84-5.15,11.84-10.43,15-14.39s7-10.92,10-13.14S332.24,305,336.9,299v0A23.84,23.84,0,0,0,342.48,283.55Z" transform="translate(0 0)"/><path d="M237.64,304.69c-2.62,0-4.75-1.83-4.75-4.09V290c0-2.26,2.13-4.09,4.75-4.09s4.76,1.83,4.76,4.09V300.6C242.4,302.86,240.27,304.69,237.64,304.69Z" transform="translate(0 0)"/><path d="M277,305.19c-2.62,0-4.75-1.83-4.75-4.08V290.48c0-2.25,2.13-4.08,4.75-4.08s4.75,1.83,4.75,4.08v10.63C281.79,303.36,279.67,305.19,277,305.19Z" transform="translate(0 0)"/><path class="cls-19" d="M493,285.63a26.16,26.16,0,0,0-9.22-20v0c-3-2.62-5.29-3.81-10.64-6.2s-9.1-3.7-12.57-6.49-10.31-6.45-13.9-8.09c-.61-.32-1.23-.62-1.86-.91-6.78-3.41-17.8-5.65-22.44-6.48-4.8-.86-5.83-2.4-7.37-3.77a100.87,100.87,0,0,0-7.88-6.52A31.32,31.32,0,0,0,392.65,222c-.7-.06-1.42-.09-2.14-.09a25.36,25.36,0,0,0-25.37,25.2h0v.17a25.3,25.3,0,0,0,.24,3.5c.42,4.22,1.34,8.2,2.67,10.73,2.74,5.82,4.12,8.4,3.94,11.31s-2.05,16.8,1,29.83a3,3,0,0,0,.1.32,51.52,51.52,0,0,0,50,39.27,52,52,0,0,0,10-1,45.15,45.15,0,0,0,10.79-3,56.9,56.9,0,0,0,21.21-15.07c6.77-7.74,7.11-8.08,8.87-9.61s10-7.34,13.08-11.26v0A26.12,26.12,0,0,0,493,285.63Z" transform="translate(0 0)"/><path class="cls-16" d="M365.14,246.93v0a9.29,9.29,0,0,0,.2,3.3,25.09,25.09,0,0,1-.2-3.14Z" transform="translate(0 0)"/><path class="cls-13" d="M365.14,246.89h0v0Z" transform="translate(0 0)"/><path class="cls-13" d="M492.85,282.54c-1.24-2.27-6.67,8.94-14.13,11.53-2.46.85-2.71-15-4.2-13.53a18.55,18.55,0,0,0-4.72,8.07c-4.89,19-23.31,43.79-49.25,41.86s-40.72-26.62-43.91-36.18-3.87-24.11-2.5-30.25,6.83-15.7,18.31-21.73c0,0-2.16-3.07-7.39.57s-11.26,12.06-16,11a4.67,4.67,0,0,1-3.68-3.71c0,.12,0,.24,0,.36.42,4.22,1.34,8.2,2.67,10.73,2.74,5.82,4.12,8.39,3.94,11.31s-2.05,16.8,1,29.83a3,3,0,0,0,.1.32,51.55,51.55,0,0,0,60,38.3,44.64,44.64,0,0,0,10.79-3A56.9,56.9,0,0,0,465.14,323c6.77-7.74,7.11-8.08,8.87-9.61s10-7.34,13.08-11.27v0A26.17,26.17,0,0,0,493,285.45,25.41,25.41,0,0,0,492.85,282.54Z" transform="translate(0 0)"/><path d="M405.46,280.35c-2.62,0-4.75-1.83-4.75-4.09V265.64c0-2.26,2.13-4.09,4.75-4.09s4.75,1.83,4.75,4.09v10.62C410.21,278.52,408.09,280.35,405.46,280.35Z" transform="translate(0 0)"/><path d="M444.86,280.85c-2.63,0-4.76-1.83-4.76-4.08V266.14c0-2.26,2.13-4.08,4.76-4.08s4.75,1.82,4.75,4.08v10.63C449.61,279,447.48,280.85,444.86,280.85Z" transform="translate(0 0)"/><path class="cls-20" d="M395.6,373.05l0,0c-.44-5.36-3-11.3-4.18-14.44s-.78-6.23-.28-9.79,1.92-11.39,1.7-19c-.51-28-22.28-50.57-49.06-50.57-27.1,0-49.07,23.09-49.07,51.59a53.57,53.57,0,0,0,4.5,21.61,24.8,24.8,0,0,0-1.33,8.05c0,12.84,9.72,23.29,21.85,23.67l.11,0c4.34.26,10.42-1.25,10.42-1.25a5.53,5.53,0,0,1,3.84.08c1.62.47,6.86,1.63,10.7,2.41s6.58,2.48,11.23,5.59c4.41,2.94,8.29,5.89,15.24,6.78a20.6,20.6,0,0,0,3.06.23c11.8,0,21.36-10.06,21.36-22.46A22.81,22.81,0,0,0,395.6,373.05Z" transform="translate(0 0)"/><path class="cls-13" d="M395.6,373.05l0,0c-.44-5.36-3-11.3-4.18-14.44s-.78-6.23-.28-9.79,1.92-11.39,1.7-19a54.16,54.16,0,0,0-1.44-11.48c.41,7.26.15,21.57-8.46,35.47-10.3,16.66-35,24.92-50.73,18.29s-23.81-14-28.57-22.36-6.53-3-4.43,2.71a24,24,0,0,0-1.3,9.44,23.47,23.47,0,0,0,5.75,14.45,22,22,0,0,0,16.07,7.83l.11,0c4.34.26,10.42-1.25,10.42-1.25a5.53,5.53,0,0,1,3.84.08c1.62.47,6.86,1.63,10.7,2.41s6.58,2.48,11.23,5.59c4.41,2.94,8.29,5.89,15.24,6.78a20.6,20.6,0,0,0,3.06.23c11.8,0,21.36-10.06,21.36-22.46A22.81,22.81,0,0,0,395.6,373.05Zm-90.93-4.67c-2.93.93-4.76-1.34-5.09-3.73s-.39-7.86.72-8.27c1.66-.61,2.1.29,3.32,2.16a18.37,18.37,0,0,0,3.82,4.36C308.6,363.78,307.61,367.45,304.67,368.38Zm88.95,8.67c-1,10.72-12.59,15.65-17.24,16s-17.73-6.67-8.87-11.72c10.49-6.05,17.14-13.39,18.91-14.9C389.21,364.07,394.62,366.34,393.62,377.05Z" transform="translate(0 0)"/><path d="M335.64,324.71a4.42,4.42,0,0,1-4.63-4.18V309.65a4.65,4.65,0,0,1,9.26,0v10.88A4.43,4.43,0,0,1,335.64,324.71Z" transform="translate(0 0)"/><path d="M374,325.23a4.43,4.43,0,0,1-4.63-4.19V310.17a4.65,4.65,0,0,1,9.26,0V321A4.43,4.43,0,0,1,374,325.23Z" transform="translate(0 0)"/></svg>
