<svg width="943" height="1121" viewBox="0 0 943 1121" fill="none" xmlns="http://www.w3.org/2000/svg">
<path d="M823.137 267.101C801.436 266.796 779.927 271.208 760.099 280.032C740.27 288.855 722.595 301.879 708.296 318.204C693.078 334.883 686.094 348.102 672.014 378.514C657.934 408.927 650.149 430.089 633.967 449.867C617.785 469.646 596.212 508.313 586.766 528.703C584.931 532.193 583.154 535.685 581.433 539.235C561.419 577.751 547.701 640.562 542.609 667.064C537.518 693.566 528.434 700.184 520.475 708.894C507.106 723.09 494.472 737.96 482.623 753.447C465.42 777.789 454.606 806.061 451.171 835.669C450.769 839.698 450.54 843.788 450.483 847.937C449.956 886.232 464.602 923.181 491.223 950.717C517.845 978.253 554.281 994.141 592.576 994.911L593.556 994.925C600.265 994.994 606.971 994.624 613.632 993.817C637.757 991.728 660.594 986.797 675.165 979.389C708.694 964.172 723.499 956.479 740.142 957.688C756.785 958.897 836.057 970.823 910.82 954.271C911.434 954.168 912.035 954.002 912.614 953.777C986.488 936.725 1050.95 891.872 1092.62 828.536C1134.28 765.2 1149.94 688.249 1136.34 613.669C1133.5 592.407 1127.97 571.59 1119.9 551.712C1101.45 504.979 1072.43 463.151 1035.11 429.504C991.383 390.226 989.562 388.53 980.829 378.035C972.096 367.54 939.657 320.233 917.481 302.233C891.054 279.945 857.706 267.526 823.137 267.101Z" fill="#FFFAE3"/>
<path d="M94.5 93L777 404" stroke="#D5DADD" stroke-width="4"/>
<path d="M777 407L44.5 528.5" stroke="#D5DADD" stroke-width="4"/>
<path d="M783.458 404.888C783.378 401.34 780.436 398.529 776.888 398.61C773.34 398.69 770.529 401.632 770.61 405.18C770.69 408.728 773.632 411.539 777.18 411.458C780.728 411.378 783.539 408.436 783.458 404.888Z" fill="#FFFAE3" stroke="#EC325A" stroke-width="4.81939"/>
<path d="M92 96L116.5 8" stroke="#D5DADD" stroke-width="4"/>
<circle cx="116.822" cy="6.82196" r="6.67218" transform="rotate(88.6989 116.822 6.82196)" fill="#EC325A"/>
<g filter="url(#filter0_d)">
<circle cx="92.0016" cy="96" r="25.3907" fill="white"/>
</g>
<path d="M92 59C71.5655 59 55 75.5655 55 96" stroke="#A7C957" stroke-width="8.70588" stroke-linecap="round"/>
<path d="M129 96C129 116.435 112.435 133 92 133" stroke="#A7C957" stroke-width="8.70588" stroke-linecap="round"/>
<path d="M87.9191 89.8702V86.6467H93.9411V104.863H90.3429V89.8702H87.9191Z" fill="#263D59"/>
<circle cx="39.1631" cy="528.163" r="24.631" transform="rotate(-33.7411 39.1631 528.163)" fill="#DFE6EA"/>
<path d="M52.844 548.645C41.5321 556.201 26.2368 553.156 18.6809 541.844C11.1251 530.532 14.17 515.237 25.4819 507.681" stroke="#263D59" stroke-width="6.74821" stroke-linecap="round"/>
<path d="M30.9449 535.923C31.7074 535.317 32.0551 535.037 31.9878 535.082C34.1857 533.265 35.9127 531.774 37.1687 530.608C38.4471 529.441 39.5236 528.219 40.3983 526.941C41.273 525.662 41.7104 524.417 41.7104 523.206C41.7104 522.287 41.4973 521.569 41.0712 521.053C40.6451 520.537 40.0058 520.279 39.1536 520.279C38.3013 520.279 37.6285 520.605 37.135 521.255C36.664 521.883 36.4286 522.78 36.4286 523.946H30.8776C30.9224 522.04 31.3261 520.448 32.0887 519.169C32.8737 517.891 33.8942 516.949 35.1501 516.343C36.4286 515.738 37.8415 515.435 39.3891 515.435C42.058 515.435 44.0653 516.119 45.411 517.487C46.7792 518.855 47.4632 520.638 47.4632 522.836C47.4632 525.236 46.6446 527.468 45.0073 529.531C43.3701 531.572 41.2843 533.568 38.7499 535.519H47.8333V540.196H30.9449V535.923Z" fill="#263D59"/>
<defs>
<filter id="filter0_d" x="56.7822" y="60.7806" width="70.4388" height="70.4388" filterUnits="userSpaceOnUse" color-interpolation-filters="sRGB">
<feFlood flood-opacity="0" result="BackgroundImageFix"/>
<feColorMatrix in="SourceAlpha" type="matrix" values="0 0 0 0 0 0 0 0 0 0 0 0 0 0 0 0 0 0 127 0" result="hardAlpha"/>
<feOffset/>
<feGaussianBlur stdDeviation="4.91434"/>
<feColorMatrix type="matrix" values="0 0 0 0 0 0 0 0 0 0 0 0 0 0 0 0 0 0 0.1 0"/>
<feBlend mode="normal" in2="BackgroundImageFix" result="effect1_dropShadow"/>
<feBlend mode="normal" in="SourceGraphic" in2="effect1_dropShadow" result="shape"/>
</filter>
</defs>
</svg>
