<svg width="290" height="603" viewBox="0 0 290 603" fill="none" xmlns="http://www.w3.org/2000/svg">
<path d="M22.8204 0.000169956C4.91523 -0.00507828 -12.7775 3.87859 -29.0343 11.3821C-45.291 18.8856 -59.7238 29.83 -71.3346 43.4588C-83.6984 57.3903 -89.3097 68.3737 -100.58 93.6215C-111.85 118.869 -118.032 136.415 -131.156 152.914C-144.281 169.413 -161.638 201.555 -169.199 218.482C-170.673 221.382 -172.099 224.283 -173.478 227.231C-189.551 259.23 -200.156 311.2 -204.055 333.119C-207.954 355.039 -215.373 360.602 -221.84 367.877C-232.707 379.739 -242.96 392.149 -252.559 405.059C-266.474 425.335 -275.074 448.779 -277.572 473.242C-277.857 476.571 -278 479.947 -278 483.37C-278.001 514.966 -265.5 545.28 -243.227 567.693C-220.953 590.107 -190.717 602.799 -159.117 603L-158.309 603C-152.774 602.982 -147.246 602.6 -141.761 601.859C-121.883 599.862 -103.1 595.535 -91.1641 589.259C-63.6785 576.326 -51.5525 569.812 -37.8096 570.62C-24.0668 571.428 41.4613 580.367 102.947 565.865C103.452 565.773 103.946 565.63 104.421 565.437C165.168 550.533 217.838 512.801 251.488 460.082C285.139 407.362 297.185 343.706 285.123 282.338C282.531 264.831 277.738 247.721 270.857 231.415C255.106 193.073 230.692 158.898 199.527 131.565C163.007 99.6603 161.485 98.2814 154.162 89.7229C146.839 81.1643 119.543 42.508 101.045 27.9109C78.9925 9.82494 51.3421 -0.04103 22.8204 0.000169956Z" fill="#FFFAE3"/>
</svg>
