<svg width="495" height="741" viewBox="0 0 495 741" fill="none" xmlns="http://www.w3.org/2000/svg">
<path d="M375.137 5.10084C353.436 4.79613 331.927 9.20827 312.099 18.0317C292.27 26.8551 274.595 39.8793 260.296 56.204C245.078 72.883 238.094 86.1016 224.014 116.514C209.934 146.927 202.149 168.089 185.967 187.867C169.785 207.646 148.212 246.313 138.766 266.703C136.931 270.193 135.154 273.685 133.433 277.235C113.419 315.751 99.7007 378.562 94.6093 405.064C89.518 431.566 80.4342 438.184 72.4746 446.894C59.1055 461.09 46.4718 475.96 34.6229 491.447C17.4204 515.789 6.60571 544.061 3.17065 573.669C2.76937 577.698 2.54013 581.788 2.48307 585.937C1.9557 624.232 16.6016 661.181 43.2234 688.717C69.8452 716.253 106.281 732.141 144.576 732.911L145.556 732.925C152.265 732.994 158.971 732.624 165.632 731.817C189.757 729.728 212.594 724.797 227.165 717.389C260.694 702.172 275.499 694.479 292.142 695.688C308.785 696.897 388.057 708.823 462.82 692.271C463.434 692.168 464.035 692.002 464.614 691.777C538.488 674.725 602.953 629.872 644.617 566.536C686.281 503.2 701.941 426.249 688.345 351.669C685.495 330.407 679.971 309.59 671.903 289.712C653.451 242.979 624.431 201.151 587.115 167.504C543.383 128.226 541.562 126.53 532.829 116.035C524.096 105.54 491.657 58.233 469.481 40.2327C443.054 17.9448 409.706 5.52633 375.137 5.10084Z" fill="#FFFAE3"/>
</svg>
