<svg xmlns="http://www.w3.org/2000/svg" viewBox="0 0 976 706"><defs><style>.cls-1{isolation:isolate;}.cls-13,.cls-14,.cls-2{fill:#253238;}.cls-16,.cls-3{fill:#b0d248;}.cls-12,.cls-4{fill:#4fc8f4;}.cls-5{fill:#a9c8d4;}.cls-6{fill:#f9ac31;}.cls-10,.cls-7{fill:#231f20;}.cls-7{opacity:0.2;mix-blend-mode:multiply;}.cls-8{fill:#fff;}.cls-9{opacity:0.1;}.cls-11,.cls-15{fill:none;}.cls-11,.cls-12{stroke:#4fc8f4;}.cls-11,.cls-13,.cls-15{stroke-linecap:round;stroke-miterlimit:10;stroke-width:5px;}.cls-12,.cls-14,.cls-16{stroke-linejoin:round;}.cls-12,.cls-14{stroke-width:4px;}.cls-13,.cls-14{stroke:#253238;}.cls-15,.cls-16{stroke:#b0d248;}.cls-16{stroke-width:3px;}</style></defs><title>Artboard 5</title><g class="cls-1"><g id="Layer_1" data-name="Layer 1"><rect class="cls-2" x="6" y="6.12" width="390" height="690" rx="5" ry="5"/><rect class="cls-3" x="21" y="386.37" width="360" height="295.37" rx="5" ry="5"/><rect class="cls-4" x="21" y="256.12" width="360" height="120" rx="5" ry="5"/><rect class="cls-5" x="21" y="57.22" width="360" height="60" rx="5" ry="5"/><rect class="cls-6" x="21" y="126.12" width="360" height="120" rx="5" ry="5"/><path class="cls-7" d="M31,391.37H381a5,5,0,0,0-5-5H26a5,5,0,0,0-5,5V676.74a5,5,0,0,0,5,5V396.37A5,5,0,0,1,31,391.37Z"/><path class="cls-7" d="M31,261.12H381a5,5,0,0,0-5-5H26a5,5,0,0,0-5,5v110a5,5,0,0,0,5,5v-110A5,5,0,0,1,31,261.12Z"/><path class="cls-7" d="M31,62.22H381a5,5,0,0,0-5-5H26a5,5,0,0,0-5,5v50a5,5,0,0,0,5,5v-50A5,5,0,0,1,31,62.22Z"/><path class="cls-7" d="M31,131.12H381a5,5,0,0,0-5-5H26a5,5,0,0,0-5,5v110a5,5,0,0,0,5,5v-110A5,5,0,0,1,31,131.12Z"/><path class="cls-8" d="M22.56,23.47h4.25c4.53,0,7.54,2.37,7.54,7.75s-3,7.9-7.35,7.9H22.56Zm4.06,12.79c2.44,0,4.1-1.3,4.1-5s-1.66-4.9-4.1-4.9h-.51v9.94Z"/><path class="cls-8" d="M44.71,31.46c-.12-1.08-.93-1.73-2.54-1.73a8.29,8.29,0,0,0-3.63,1.1l-1.24-2.3a11.17,11.17,0,0,1,5.56-1.61c3.34,0,5.38,1.73,5.38,5.38v6.82H45.36l-.26-1.35H45a7.23,7.23,0,0,1-4.22,1.63,3.61,3.61,0,0,1-3.92-3.6C36.86,33.14,39.07,31.79,44.71,31.46ZM41.9,36.67a4.59,4.59,0,0,0,2.81-1.13v-2c-3.5.19-4.46.94-4.46,2C40.25,36.31,40.9,36.67,41.9,36.67Z"/><path class="cls-8" d="M54,30H51V27.35l3.16-.14L54.6,24h2.9v3.17h5V30h-5v4.18c0,1.8.77,2.49,2.5,2.49a7.16,7.16,0,0,0,2.38-.43L63,38.75a13.13,13.13,0,0,1-3.89.65c-3.79,0-5.13-2.11-5.13-5.23Z"/><path class="cls-8" d="M73.51,31.46c-.12-1.08-.93-1.73-2.54-1.73a8.29,8.29,0,0,0-3.63,1.1l-1.24-2.3a11.17,11.17,0,0,1,5.56-1.61C75,26.92,77,28.65,77,32.3v6.82H74.16l-.26-1.35h-.1a7.23,7.23,0,0,1-4.22,1.63,3.61,3.61,0,0,1-3.92-3.6C65.66,33.14,67.87,31.79,73.51,31.46ZM70.7,36.67a4.59,4.59,0,0,0,2.81-1.13v-2c-3.5.19-4.46.94-4.46,2C69.05,36.31,69.7,36.67,70.7,36.67Z"/><path class="cls-8" d="M81.46,35.37a7.92,7.92,0,0,0,4.32,1.42c1.6,0,2.28-.39,2.28-1s-1.28-1.13-3.2-1.66c-2.08-.57-4.24-1.58-4.24-3.48,0-2.21,2.08-3.72,5.49-3.72a9.7,9.7,0,0,1,5.14,1.63l-1.59,2.12a6.78,6.78,0,0,0-3.48-1.13c-1.48,0-2.06.33-2.06.93s1.37,1.08,3,1.52c2.35.62,4.39,1.51,4.39,3.57s-2,3.84-5.86,3.84a11,11,0,0,1-5.83-1.82Z"/><path class="cls-8" d="M100.51,26.92c3.67,0,5.59,2.47,5.59,5.71a9.83,9.83,0,0,1-.14,1.56h-8c.24,1.78,1.71,2.52,3.46,2.52a6.55,6.55,0,0,0,3.07-.81L105.62,38a9,9,0,0,1-4.7,1.39c-3.7,0-6.6-2.3-6.6-6.24A6.09,6.09,0,0,1,100.51,26.92Zm2.4,4.95a2.07,2.07,0,0,0-2.33-2.26,2.61,2.61,0,0,0-2.68,2.26Z"/><path class="cls-8" d="M111.57,30h-3V27.35l3.17-.14L112.2,24h2.9v3.17h5V30h-5v4.18c0,1.8.77,2.49,2.5,2.49a7.16,7.16,0,0,0,2.38-.43l.62,2.54a13.13,13.13,0,0,1-3.89.65c-3.79,0-5.14-2.11-5.14-5.23Z"/><path class="cls-8" d="M39.78,71.18a6.67,6.67,0,0,1,4.64,2l-2,2.18a3.82,3.82,0,0,0-2.69-1.12c-2.2,0-3.84,1.89-3.84,5s1.64,5.08,4,5.08A3.7,3.7,0,0,0,42.71,83l1.95,2.14a6.32,6.32,0,0,1-4.95,2.3c-4,0-7.39-2.76-7.39-8S35.61,71.18,39.78,71.18Z"/><path class="cls-8" d="M52.6,74.92a6.24,6.24,0,1,1-6.07,6.24A6,6,0,0,1,52.6,74.92Zm0,9.63c1.63,0,2.45-1.32,2.45-3.39s-.82-3.38-2.45-3.38-2.45,1.32-2.45,3.38S51,84.55,52.6,84.55Z"/><path class="cls-8" d="M60.66,75.21H63.3l.27,1.49h.09a2.67,2.67,0,0,1,2.55-1.78c1.05,0,1.8.67,2.09,2a2.77,2.77,0,0,1,2.61-2c1.66,0,2.64,1.47,2.64,3.84v8.36H70.24V79c0-.75-.19-1.11-.67-1.11s-.79.39-1.11,1.15v8.05H65.75V79c0-.75-.24-1.11-.69-1.11s-.75.39-1.08,1.15v8.05H60.66Z"/><path class="cls-8" d="M75.06,75.21H77.7L78,76.7h.09a2.67,2.67,0,0,1,2.55-1.78c1,0,1.8.67,2.09,2a2.77,2.77,0,0,1,2.61-2C87,74.92,88,76.39,88,78.76v8.36H84.64V79c0-.75-.19-1.11-.67-1.11s-.79.39-1.11,1.15v8.05H80.15V79c0-.75-.24-1.11-.69-1.11s-.75.39-1.08,1.15v8.05H75.06Z"/><path class="cls-8" d="M90.5,75.21h8.3V87.12H95.27V78H90.5Zm4-3.89a2.35,2.35,0,0,1,4.7,0,2.36,2.36,0,0,1-4.7,0Z"/><path class="cls-8" d="M107.18,78h-3V75.35l3.16-.14L107.8,72h2.9v3.17h5V78h-5v4.18c0,1.8.77,2.49,2.5,2.49a7.16,7.16,0,0,0,2.38-.43l.62,2.54a13.13,13.13,0,0,1-3.89.65c-3.79,0-5.13-2.11-5.13-5.23Z"/><path class="cls-8" d="M35.56,140.46h3.53L40.67,146l.53,2.16h.07L41.8,146l1.51-5.55h3.53v15.66H44V151c0-1.7.29-5.4.46-7.08h-.07l-1.22,4.3-1.21,3.72H40.38l-1.2-3.72L38,143.92h-.1c.17,1.68.46,5.38.46,7.08v5.12H35.56Z"/><path class="cls-8" d="M55.91,143.92c3.67,0,5.59,2.47,5.59,5.71a9.83,9.83,0,0,1-.14,1.56h-8c.24,1.78,1.71,2.52,3.46,2.52a6.55,6.55,0,0,0,3.07-.81L61,155a9,9,0,0,1-4.7,1.39c-3.7,0-6.6-2.3-6.6-6.24A6.09,6.09,0,0,1,55.91,143.92Zm2.4,5A2.07,2.07,0,0,0,56,146.61a2.61,2.61,0,0,0-2.68,2.26Z"/><path class="cls-8" d="M67,147H64v-2.62l3.16-.14L67.6,141h2.9v3.17h5V147h-5v4.18c0,1.8.77,2.49,2.5,2.49a7.16,7.16,0,0,0,2.38-.43l.62,2.54a13.13,13.13,0,0,1-3.89.65c-3.79,0-5.13-2.11-5.13-5.23Z"/><path class="cls-8" d="M86.51,148.46c-.12-1.08-.93-1.73-2.54-1.73a8.29,8.29,0,0,0-3.63,1.1l-1.24-2.3a11.17,11.17,0,0,1,5.56-1.61c3.34,0,5.38,1.73,5.38,5.38v6.82H87.16l-.26-1.35h-.1a7.23,7.23,0,0,1-4.22,1.63,3.61,3.61,0,0,1-3.92-3.6C78.66,150.14,80.87,148.79,86.51,148.46Zm-2.81,5.21a4.59,4.59,0,0,0,2.81-1.13v-2c-3.5.19-4.46.94-4.46,2C82.05,153.31,82.7,153.67,83.7,153.67Z"/><path class="cls-8" d="M37.24,281.72a6.67,6.67,0,0,0,4,1.63c1.63,0,2.35-.57,2.35-1.51s-.91-1.29-2.42-1.87l-2-.86a4.57,4.57,0,0,1-3.34-4.28c0-2.59,2.36-4.65,5.74-4.65a7.62,7.62,0,0,1,5.21,2.06L45,274.47a5.43,5.43,0,0,0-3.41-1.24c-1.37,0-2.16.52-2.16,1.41s1.06,1.3,2.57,1.85l1.89.82c2.07.76,3.37,2,3.37,4.24,0,2.6-2.19,4.85-6.08,4.85a9.07,9.07,0,0,1-5.95-2.25Z"/><path class="cls-8" d="M52.58,277h-3v-2.62l3.16-.14L53.2,271h2.9v3.17h5V277h-5v4.18c0,1.8.77,2.49,2.5,2.49a7.16,7.16,0,0,0,2.38-.43l.62,2.54a13.13,13.13,0,0,1-3.89.65c-3.79,0-5.13-2.11-5.13-5.23Z"/><path class="cls-8" d="M65.58,274.21h2.88l.29,2.59h.07a5.55,5.55,0,0,1,4.83-2.88,4.88,4.88,0,0,1,2.3.48l-.72,3a6.62,6.62,0,0,0-2.11-.33,4.41,4.41,0,0,0-4,2.9v6.2H65.58Z"/><path class="cls-8" d="M89.8,286.12H86.92l-.26-1.71h-.1a5.15,5.15,0,0,1-4,2c-2.71,0-3.86-1.85-3.86-4.85v-7.34h3.53v6.89c0,1.58.4,2.3,1.72,2.3A2.69,2.69,0,0,0,86.27,282v-7.82H89.8Z"/><path class="cls-8" d="M100.1,273.92a6.56,6.56,0,0,1,4.46,1.61l-1.63,2.18a4.47,4.47,0,0,0-2.64-.93,3.23,3.23,0,0,0-3.46,3.38,3.18,3.18,0,0,0,3.34,3.39,5.4,5.4,0,0,0,3.14-1.13l1.44,2.23a7.83,7.83,0,0,1-4.92,1.75c-3.74,0-6.62-2.28-6.62-6.24S96.42,273.92,100.1,273.92Z"/><path class="cls-8" d="M110.18,277h-3v-2.62l3.16-.14.46-3.17h2.9v3.17h5V277h-5v4.18c0,1.8.77,2.49,2.5,2.49a7.16,7.16,0,0,0,2.38-.43l.62,2.54a13.13,13.13,0,0,1-3.89.65c-3.79,0-5.13-2.11-5.13-5.23Z"/><path class="cls-8" d="M133,286.12h-2.88l-.26-1.71h-.1a5.15,5.15,0,0,1-4,2c-2.71,0-3.86-1.85-3.86-4.85v-7.34h3.53v6.89c0,1.58.4,2.3,1.72,2.3a2.69,2.69,0,0,0,2.33-1.37v-7.82H133Z"/><path class="cls-8" d="M137.58,274.21h2.88l.29,2.59h.07a5.55,5.55,0,0,1,4.83-2.88,4.91,4.91,0,0,1,2.3.48l-.72,3a6.62,6.62,0,0,0-2.11-.33,4.41,4.41,0,0,0-4,2.9v6.2h-3.53Z"/><path class="cls-8" d="M156.71,273.92c3.67,0,5.59,2.47,5.59,5.71a9.83,9.83,0,0,1-.14,1.56h-8c.24,1.78,1.71,2.52,3.46,2.52a6.55,6.55,0,0,0,3.07-.81l1.15,2.11a9,9,0,0,1-4.7,1.39c-3.7,0-6.6-2.3-6.6-6.24A6.09,6.09,0,0,1,156.71,273.92Zm2.4,4.95a2.07,2.07,0,0,0-2.33-2.26,2.63,2.63,0,0,0-2.69,2.26Z"/><path class="cls-8" d="M35.56,400.47h4.25c4.53,0,7.54,2.37,7.54,7.75s-3,7.9-7.35,7.9H35.56Zm4.06,12.79c2.44,0,4.1-1.3,4.1-5s-1.66-4.9-4.1-4.9h-.51v9.94Z"/><path class="cls-8" d="M57.71,408.46c-.12-1.08-.93-1.73-2.54-1.73a8.29,8.29,0,0,0-3.63,1.1l-1.24-2.3a11.17,11.17,0,0,1,5.56-1.61c3.34,0,5.38,1.73,5.38,5.38v6.82H58.36l-.26-1.35H58a7.23,7.23,0,0,1-4.22,1.63,3.61,3.61,0,0,1-3.92-3.6C49.86,410.14,52.07,408.79,57.71,408.46Zm-2.81,5.21a4.59,4.59,0,0,0,2.81-1.13v-2c-3.5.19-4.46.94-4.46,2C53.25,413.31,53.9,413.67,54.9,413.67Z"/><path class="cls-8" d="M67,407H64v-2.62l3.16-.14L67.6,401h2.9v3.17h5V407h-5v4.18c0,1.8.77,2.49,2.5,2.49a7.16,7.16,0,0,0,2.38-.43l.62,2.55a13.48,13.48,0,0,1-3.89.64c-3.79,0-5.13-2.11-5.13-5.23Z"/><path class="cls-8" d="M86.51,408.46c-.12-1.08-.93-1.73-2.54-1.73a8.29,8.29,0,0,0-3.63,1.1l-1.24-2.3a11.17,11.17,0,0,1,5.56-1.61c3.34,0,5.38,1.73,5.38,5.38v6.82H87.16l-.26-1.35h-.1a7.23,7.23,0,0,1-4.22,1.63,3.61,3.61,0,0,1-3.92-3.6C78.66,410.14,80.87,408.79,86.51,408.46Zm-2.81,5.21a4.59,4.59,0,0,0,2.81-1.13v-2c-3.5.19-4.46.94-4.46,2C82.05,413.31,82.7,413.67,83.7,413.67Z"/><g class="cls-9"><path class="cls-10" d="M61.06,441.44H37.72a5,5,0,1,1,0-10H61.06a5,5,0,0,1,0,10Z"/><path class="cls-10" d="M102.39,441.44H74.06a5,5,0,0,1,0-10h28.33a5,5,0,1,1,0,10Z"/><path class="cls-10" d="M154.72,441.44H116.39a5,5,0,0,1,0-10h38.33a5,5,0,0,1,0,10Z"/><path class="cls-10" d="M61.06,457.11H37.72a5,5,0,0,1,0-10H61.06a5,5,0,1,1,0,10Z"/><path class="cls-10" d="M102.39,457.11H74.06a5,5,0,0,1,0-10h28.33a5,5,0,0,1,0,10Z"/><path class="cls-10" d="M154.72,457.11H116.39a5,5,0,1,1,0-10h38.33a5,5,0,1,1,0,10Z"/><path class="cls-10" d="M61.06,472.77H37.72a5,5,0,0,1,0-10H61.06a5,5,0,0,1,0,10Z"/><path class="cls-10" d="M102.39,472.77H74.06a5,5,0,1,1,0-10h28.33a5,5,0,0,1,0,10Z"/><path class="cls-10" d="M154.72,472.77H116.39a5,5,0,1,1,0-10h38.33a5,5,0,1,1,0,10Z"/><path class="cls-10" d="M61.06,488.44H37.72a5,5,0,1,1,0-10H61.06a5,5,0,0,1,0,10Z"/><path class="cls-10" d="M102.39,488.44H74.06a5,5,0,0,1,0-10h28.33a5,5,0,1,1,0,10Z"/><path class="cls-10" d="M154.72,488.44H116.39a5,5,0,0,1,0-10h38.33a5,5,0,0,1,0,10Z"/><path class="cls-10" d="M61.06,504.11H37.72a5,5,0,0,1,0-10H61.06a5,5,0,1,1,0,10Z"/><path class="cls-10" d="M102.39,504.11H74.06a5,5,0,0,1,0-10h28.33a5,5,0,0,1,0,10Z"/><path class="cls-10" d="M154.72,504.11H116.39a5,5,0,1,1,0-10h38.33a5,5,0,1,1,0,10Z"/><path class="cls-10" d="M61.06,519.77H37.72a5,5,0,0,1,0-10H61.06a5,5,0,0,1,0,10Z"/><path class="cls-10" d="M102.39,519.77H74.06a5,5,0,1,1,0-10h28.33a5,5,0,0,1,0,10Z"/><path class="cls-10" d="M154.72,519.77H116.39a5,5,0,1,1,0-10h38.33a5,5,0,1,1,0,10Z"/><path class="cls-10" d="M61.06,535.44H37.72a5,5,0,0,1,0-10H61.06a5,5,0,0,1,0,10Z"/><path class="cls-10" d="M102.39,535.44H74.06a5,5,0,1,1,0-10h28.33a5,5,0,0,1,0,10Z"/><path class="cls-10" d="M154.72,535.44H116.39a5,5,0,1,1,0-10h38.33a5,5,0,1,1,0,10Z"/><path class="cls-10" d="M193.06,441.44H169.72a5,5,0,1,1,0-10h23.34a5,5,0,0,1,0,10Z"/><path class="cls-10" d="M234.39,441.44H206.06a5,5,0,0,1,0-10h28.33a5,5,0,0,1,0,10Z"/><path class="cls-10" d="M286.72,441.44H248.39a5,5,0,1,1,0-10h38.33a5,5,0,0,1,0,10Z"/><path class="cls-10" d="M193.06,457.11H169.72a5,5,0,0,1,0-10h23.34a5,5,0,1,1,0,10Z"/><path class="cls-10" d="M234.39,457.11H206.06a5,5,0,0,1,0-10h28.33a5,5,0,0,1,0,10Z"/><path class="cls-10" d="M286.72,457.11H248.39a5,5,0,0,1,0-10h38.33a5,5,0,0,1,0,10Z"/><path class="cls-10" d="M193.06,472.77H169.72a5,5,0,0,1,0-10h23.34a5,5,0,0,1,0,10Z"/><path class="cls-10" d="M234.39,472.77H206.06a5,5,0,1,1,0-10h28.33a5,5,0,0,1,0,10Z"/><path class="cls-10" d="M286.72,472.77H248.39a5,5,0,0,1,0-10h38.33a5,5,0,0,1,0,10Z"/><path class="cls-10" d="M193.06,488.44H169.72a5,5,0,1,1,0-10h23.34a5,5,0,0,1,0,10Z"/><path class="cls-10" d="M234.39,488.44H206.06a5,5,0,0,1,0-10h28.33a5,5,0,0,1,0,10Z"/><path class="cls-10" d="M286.72,488.44H248.39a5,5,0,1,1,0-10h38.33a5,5,0,0,1,0,10Z"/><path class="cls-10" d="M193.06,504.11H169.72a5,5,0,0,1,0-10h23.34a5,5,0,1,1,0,10Z"/><path class="cls-10" d="M234.39,504.11H206.06a5,5,0,0,1,0-10h28.33a5,5,0,0,1,0,10Z"/><path class="cls-10" d="M286.72,504.11H248.39a5,5,0,0,1,0-10h38.33a5,5,0,0,1,0,10Z"/><path class="cls-10" d="M193.06,519.77H169.72a5,5,0,0,1,0-10h23.34a5,5,0,0,1,0,10Z"/><path class="cls-10" d="M234.39,519.77H206.06a5,5,0,1,1,0-10h28.33a5,5,0,0,1,0,10Z"/><path class="cls-10" d="M286.72,519.77H248.39a5,5,0,0,1,0-10h38.33a5,5,0,0,1,0,10Z"/><path class="cls-10" d="M193.06,535.44H169.72a5,5,0,0,1,0-10h23.34a5,5,0,0,1,0,10Z"/><path class="cls-10" d="M234.39,535.44H206.06a5,5,0,1,1,0-10h28.33a5,5,0,0,1,0,10Z"/><path class="cls-10" d="M286.72,535.44H248.39a5,5,0,0,1,0-10h38.33a5,5,0,0,1,0,10Z"/><path class="cls-10" d="M324.72,441.44H301.39a5,5,0,0,1,0-10h23.33a5,5,0,0,1,0,10Z"/><path class="cls-10" d="M366.06,441.44H337.72a5,5,0,0,1,0-10h28.34a5,5,0,0,1,0,10Z"/><path class="cls-10" d="M324.72,457.11H301.39a5,5,0,0,1,0-10h23.33a5,5,0,0,1,0,10Z"/><path class="cls-10" d="M366.06,457.11H337.72a5,5,0,0,1,0-10h28.34a5,5,0,1,1,0,10Z"/><path class="cls-10" d="M324.72,472.77H301.39a5,5,0,0,1,0-10h23.33a5,5,0,0,1,0,10Z"/><path class="cls-10" d="M366.06,472.77H337.72a5,5,0,0,1,0-10h28.34a5,5,0,0,1,0,10Z"/><path class="cls-10" d="M324.72,488.44H301.39a5,5,0,0,1,0-10h23.33a5,5,0,0,1,0,10Z"/><path class="cls-10" d="M366.06,488.44H337.72a5,5,0,0,1,0-10h28.34a5,5,0,0,1,0,10Z"/><path class="cls-10" d="M324.72,504.11H301.39a5,5,0,0,1,0-10h23.33a5,5,0,0,1,0,10Z"/><path class="cls-10" d="M366.06,504.11H337.72a5,5,0,0,1,0-10h28.34a5,5,0,1,1,0,10Z"/><path class="cls-10" d="M324.72,519.77H301.39a5,5,0,0,1,0-10h23.33a5,5,0,0,1,0,10Z"/><path class="cls-10" d="M366.06,519.77H337.72a5,5,0,0,1,0-10h28.34a5,5,0,0,1,0,10Z"/><path class="cls-10" d="M324.72,535.44H301.39a5,5,0,0,1,0-10h23.33a5,5,0,0,1,0,10Z"/><path class="cls-10" d="M366.06,535.44H337.72a5,5,0,0,1,0-10h28.34a5,5,0,0,1,0,10Z"/></g><g class="cls-9"><path class="cls-10" d="M61.06,562.44H37.72a5,5,0,0,1,0-10H61.06a5,5,0,0,1,0,10Z"/><path class="cls-10" d="M102.39,562.44H74.06a5,5,0,1,1,0-10h28.33a5,5,0,0,1,0,10Z"/><path class="cls-10" d="M154.72,562.44H116.39a5,5,0,1,1,0-10h38.33a5,5,0,1,1,0,10Z"/><path class="cls-10" d="M61.06,578.11H37.72a5,5,0,0,1,0-10H61.06a5,5,0,1,1,0,10Z"/><path class="cls-10" d="M102.39,578.11H74.06a5,5,0,0,1,0-10h28.33a5,5,0,0,1,0,10Z"/><path class="cls-10" d="M154.72,578.11H116.39a5,5,0,1,1,0-10h38.33a5,5,0,1,1,0,10Z"/><path class="cls-10" d="M61.06,593.77H37.72a5,5,0,0,1,0-10H61.06a5,5,0,0,1,0,10Z"/><path class="cls-10" d="M102.39,593.77H74.06a5,5,0,1,1,0-10h28.33a5,5,0,0,1,0,10Z"/><path class="cls-10" d="M154.72,593.77H116.39a5,5,0,1,1,0-10h38.33a5,5,0,1,1,0,10Z"/><path class="cls-10" d="M61.06,609.44H37.72a5,5,0,0,1,0-10H61.06a5,5,0,0,1,0,10Z"/><path class="cls-10" d="M102.39,609.44H74.06a5,5,0,1,1,0-10h28.33a5,5,0,0,1,0,10Z"/><path class="cls-10" d="M154.72,609.44H116.39a5,5,0,1,1,0-10h38.33a5,5,0,1,1,0,10Z"/><path class="cls-10" d="M61.06,625.11H37.72a5,5,0,0,1,0-10H61.06a5,5,0,1,1,0,10Z"/><path class="cls-10" d="M102.39,625.11H74.06a5,5,0,0,1,0-10h28.33a5,5,0,0,1,0,10Z"/><path class="cls-10" d="M154.72,625.11H116.39a5,5,0,1,1,0-10h38.33a5,5,0,1,1,0,10Z"/><path class="cls-10" d="M61.06,640.77H37.72a5,5,0,0,1,0-10H61.06a5,5,0,0,1,0,10Z"/><path class="cls-10" d="M102.39,640.77H74.06a5,5,0,1,1,0-10h28.33a5,5,0,0,1,0,10Z"/><path class="cls-10" d="M154.72,640.77H116.39a5,5,0,1,1,0-10h38.33a5,5,0,1,1,0,10Z"/><path class="cls-10" d="M61.06,656.44H37.72a5,5,0,0,1,0-10H61.06a5,5,0,0,1,0,10Z"/><path class="cls-10" d="M102.39,656.44H74.06a5,5,0,1,1,0-10h28.33a5,5,0,0,1,0,10Z"/><path class="cls-10" d="M154.72,656.44H116.39a5,5,0,1,1,0-10h38.33a5,5,0,1,1,0,10Z"/><path class="cls-10" d="M193.06,562.44H169.72a5,5,0,0,1,0-10h23.34a5,5,0,0,1,0,10Z"/><path class="cls-10" d="M234.39,562.44H206.06a5,5,0,1,1,0-10h28.33a5,5,0,0,1,0,10Z"/><path class="cls-10" d="M286.72,562.44H248.39a5,5,0,0,1,0-10h38.33a5,5,0,0,1,0,10Z"/><path class="cls-10" d="M193.06,578.11H169.72a5,5,0,0,1,0-10h23.34a5,5,0,1,1,0,10Z"/><path class="cls-10" d="M234.39,578.11H206.06a5,5,0,0,1,0-10h28.33a5,5,0,0,1,0,10Z"/><path class="cls-10" d="M286.72,578.11H248.39a5,5,0,0,1,0-10h38.33a5,5,0,0,1,0,10Z"/><path class="cls-10" d="M193.06,593.77H169.72a5,5,0,0,1,0-10h23.34a5,5,0,0,1,0,10Z"/><path class="cls-10" d="M234.39,593.77H206.06a5,5,0,1,1,0-10h28.33a5,5,0,0,1,0,10Z"/><path class="cls-10" d="M286.72,593.77H248.39a5,5,0,0,1,0-10h38.33a5,5,0,0,1,0,10Z"/><path class="cls-10" d="M193.06,609.44H169.72a5,5,0,0,1,0-10h23.34a5,5,0,0,1,0,10Z"/><path class="cls-10" d="M234.39,609.44H206.06a5,5,0,1,1,0-10h28.33a5,5,0,0,1,0,10Z"/><path class="cls-10" d="M286.72,609.44H248.39a5,5,0,0,1,0-10h38.33a5,5,0,0,1,0,10Z"/><path class="cls-10" d="M193.06,625.11H169.72a5,5,0,0,1,0-10h23.34a5,5,0,1,1,0,10Z"/><path class="cls-10" d="M234.39,625.11H206.06a5,5,0,0,1,0-10h28.33a5,5,0,0,1,0,10Z"/><path class="cls-10" d="M286.72,625.11H248.39a5,5,0,0,1,0-10h38.33a5,5,0,0,1,0,10Z"/><path class="cls-10" d="M193.06,640.77H169.72a5,5,0,0,1,0-10h23.34a5,5,0,0,1,0,10Z"/><path class="cls-10" d="M234.39,640.77H206.06a5,5,0,1,1,0-10h28.33a5,5,0,0,1,0,10Z"/><path class="cls-10" d="M286.72,640.77H248.39a5,5,0,0,1,0-10h38.33a5,5,0,0,1,0,10Z"/><path class="cls-10" d="M193.06,656.44H169.72a5,5,0,0,1,0-10h23.34a5,5,0,0,1,0,10Z"/><path class="cls-10" d="M324.72,562.44H301.39a5,5,0,0,1,0-10h23.33a5,5,0,0,1,0,10Z"/><path class="cls-10" d="M366.06,562.44H337.72a5,5,0,0,1,0-10h28.34a5,5,0,0,1,0,10Z"/><path class="cls-10" d="M324.72,578.11H301.39a5,5,0,0,1,0-10h23.33a5,5,0,0,1,0,10Z"/><path class="cls-10" d="M366.06,578.11H337.72a5,5,0,0,1,0-10h28.34a5,5,0,1,1,0,10Z"/><path class="cls-10" d="M324.72,593.77H301.39a5,5,0,0,1,0-10h23.33a5,5,0,0,1,0,10Z"/><path class="cls-10" d="M366.06,593.77H337.72a5,5,0,0,1,0-10h28.34a5,5,0,0,1,0,10Z"/><path class="cls-10" d="M324.72,609.44H301.39a5,5,0,0,1,0-10h23.33a5,5,0,0,1,0,10Z"/><path class="cls-10" d="M366.06,609.44H337.72a5,5,0,0,1,0-10h28.34a5,5,0,0,1,0,10Z"/><path class="cls-10" d="M324.72,625.11H301.39a5,5,0,0,1,0-10h23.33a5,5,0,0,1,0,10Z"/><path class="cls-10" d="M366.06,625.11H337.72a5,5,0,0,1,0-10h28.34a5,5,0,1,1,0,10Z"/><path class="cls-10" d="M324.72,640.77H301.39a5,5,0,0,1,0-10h23.33a5,5,0,0,1,0,10Z"/><path class="cls-10" d="M366.06,640.77H337.72a5,5,0,0,1,0-10h28.34a5,5,0,0,1,0,10Z"/></g><rect class="cls-2" x="574.61" y="6.12" width="390" height="690" rx="5" ry="5"/><rect class="cls-5" x="589.61" y="57.22" width="360" height="60" rx="5" ry="5"/><rect class="cls-6" x="589.61" y="126.12" width="360" height="120" rx="5" ry="5"/><path class="cls-7" d="M599.61,62.22h350a5,5,0,0,0-5-5h-350a5,5,0,0,0-5,5v50a5,5,0,0,0,5,5v-50A5,5,0,0,1,599.61,62.22Z"/><path class="cls-7" d="M599.61,131.12h350a5,5,0,0,0-5-5h-350a5,5,0,0,0-5,5v110a5,5,0,0,0,5,5v-110A5,5,0,0,1,599.61,131.12Z"/><path class="cls-8" d="M591.17,23.47h4.25c4.53,0,7.54,2.37,7.54,7.75s-3,7.9-7.35,7.9h-4.44Zm4.06,12.79c2.44,0,4.1-1.3,4.1-5s-1.66-4.9-4.1-4.9h-.51v9.94Z"/><path class="cls-8" d="M613.32,31.46c-.12-1.08-.93-1.73-2.54-1.73a8.29,8.29,0,0,0-3.63,1.1l-1.24-2.3a11.17,11.17,0,0,1,5.56-1.61c3.34,0,5.38,1.73,5.38,5.38v6.82H614l-.26-1.35h-.1a7.23,7.23,0,0,1-4.22,1.63,3.61,3.61,0,0,1-3.92-3.6C605.47,33.14,607.68,31.79,613.32,31.46Zm-2.81,5.21a4.59,4.59,0,0,0,2.81-1.13v-2c-3.5.19-4.46.94-4.46,2C608.86,36.31,609.51,36.67,610.51,36.67Z"/><path class="cls-8" d="M622.59,30h-3V27.35l3.16-.14.46-3.17h2.9v3.17h5V30h-5v4.18c0,1.8.77,2.49,2.5,2.49a7.16,7.16,0,0,0,2.38-.43l.62,2.54a13.13,13.13,0,0,1-3.89.65c-3.79,0-5.13-2.11-5.13-5.23Z"/><path class="cls-8" d="M642.12,31.46c-.12-1.08-.93-1.73-2.54-1.73a8.29,8.29,0,0,0-3.63,1.1l-1.24-2.3a11.17,11.17,0,0,1,5.56-1.61c3.34,0,5.38,1.73,5.38,5.38v6.82h-2.88l-.26-1.35h-.1a7.23,7.23,0,0,1-4.22,1.63,3.61,3.61,0,0,1-3.92-3.6C634.27,33.14,636.48,31.79,642.12,31.46Zm-2.81,5.21a4.59,4.59,0,0,0,2.81-1.13v-2c-3.5.19-4.46.94-4.46,2C637.66,36.31,638.31,36.67,639.31,36.67Z"/><path class="cls-8" d="M650.07,35.37a7.92,7.92,0,0,0,4.32,1.42c1.6,0,2.28-.39,2.28-1s-1.28-1.13-3.2-1.66c-2.09-.57-4.25-1.58-4.25-3.48,0-2.21,2.09-3.72,5.5-3.72a9.7,9.7,0,0,1,5.14,1.63l-1.59,2.12a6.78,6.78,0,0,0-3.48-1.13c-1.48,0-2.06.33-2.06.93s1.37,1.08,3,1.52c2.35.62,4.39,1.51,4.39,3.57s-2,3.84-5.86,3.84a11,11,0,0,1-5.83-1.82Z"/><path class="cls-8" d="M669.12,26.92c3.67,0,5.59,2.47,5.59,5.71a9.83,9.83,0,0,1-.14,1.56h-8c.24,1.78,1.71,2.52,3.46,2.52a6.55,6.55,0,0,0,3.07-.81L674.23,38a9,9,0,0,1-4.7,1.39c-3.7,0-6.6-2.3-6.6-6.24A6.09,6.09,0,0,1,669.12,26.92Zm2.4,4.95a2.07,2.07,0,0,0-2.33-2.26,2.63,2.63,0,0,0-2.69,2.26Z"/><path class="cls-8" d="M680.18,30h-3V27.35l3.17-.14.46-3.17h2.9v3.17h5V30h-5v4.18c0,1.8.77,2.49,2.5,2.49a7.05,7.05,0,0,0,2.37-.43l.63,2.54a13.13,13.13,0,0,1-3.89.65c-3.79,0-5.14-2.11-5.14-5.23Z"/><path class="cls-8" d="M608.39,71.18a6.67,6.67,0,0,1,4.64,2l-1.95,2.18a3.82,3.82,0,0,0-2.69-1.12c-2.2,0-3.84,1.89-3.84,5s1.64,5.08,4,5.08A3.7,3.7,0,0,0,611.32,83l1.95,2.14a6.32,6.32,0,0,1-4.95,2.3c-4,0-7.39-2.76-7.39-8S604.22,71.18,608.39,71.18Z"/><path class="cls-8" d="M621.21,74.92a6.24,6.24,0,1,1-6.07,6.24A6,6,0,0,1,621.21,74.92Zm0,9.63c1.63,0,2.45-1.32,2.45-3.39s-.82-3.38-2.45-3.38-2.45,1.32-2.45,3.38S619.58,84.55,621.21,84.55Z"/><path class="cls-8" d="M629.27,75.21h2.64l.27,1.49h.09a2.67,2.67,0,0,1,2.55-1.78c1,0,1.8.67,2.09,2a2.77,2.77,0,0,1,2.61-2c1.66,0,2.64,1.47,2.64,3.84v8.36h-3.31V79c0-.75-.19-1.11-.67-1.11s-.79.39-1.11,1.15v8.05h-2.71V79c0-.75-.24-1.11-.69-1.11s-.75.39-1.08,1.15v8.05h-3.32Z"/><path class="cls-8" d="M643.67,75.21h2.64l.27,1.49h.09a2.67,2.67,0,0,1,2.55-1.78c1,0,1.8.67,2.09,2a2.77,2.77,0,0,1,2.61-2c1.66,0,2.64,1.47,2.64,3.84v8.36h-3.31V79c0-.75-.19-1.11-.67-1.11s-.79.39-1.11,1.15v8.05h-2.71V79c0-.75-.24-1.11-.69-1.11s-.75.39-1.08,1.15v8.05h-3.32Z"/><path class="cls-8" d="M659.1,75.21h8.31V87.12h-3.53V78H659.1Zm4-3.89a2.35,2.35,0,0,1,4.7,0,2.36,2.36,0,0,1-4.7,0Z"/><path class="cls-8" d="M675.79,78h-3V75.35l3.16-.14.46-3.17h2.9v3.17h5V78h-5v4.18c0,1.8.77,2.49,2.5,2.49a7.16,7.16,0,0,0,2.38-.43l.62,2.54a13.13,13.13,0,0,1-3.89.65c-3.79,0-5.13-2.11-5.13-5.23Z"/><path class="cls-8" d="M604.17,140.46h3.53l1.58,5.55.53,2.16h.07l.53-2.16,1.51-5.55h3.53v15.66h-2.86V151c0-1.7.29-5.4.46-7.08H613l-1.23,4.3-1.2,3.72H609l-1.2-3.72-1.17-4.3h-.1c.17,1.68.46,5.38.46,7.08v5.12h-2.81Z"/><path class="cls-8" d="M624.52,143.92c3.67,0,5.59,2.47,5.59,5.71a9.83,9.83,0,0,1-.14,1.56h-8c.24,1.78,1.71,2.52,3.46,2.52a6.55,6.55,0,0,0,3.07-.81l1.15,2.11a9,9,0,0,1-4.7,1.39c-3.7,0-6.6-2.3-6.6-6.24A6.09,6.09,0,0,1,624.52,143.92Zm2.4,5a2.07,2.07,0,0,0-2.33-2.26,2.61,2.61,0,0,0-2.68,2.26Z"/><path class="cls-8" d="M635.59,147h-3v-2.62l3.16-.14.46-3.17h2.9v3.17h5V147h-5v4.18c0,1.8.77,2.49,2.5,2.49a7.16,7.16,0,0,0,2.38-.43l.62,2.54a13.13,13.13,0,0,1-3.89.65c-3.79,0-5.13-2.11-5.13-5.23Z"/><path class="cls-8" d="M655.12,148.46c-.12-1.08-.93-1.73-2.54-1.73a8.29,8.29,0,0,0-3.63,1.1l-1.24-2.3a11.17,11.17,0,0,1,5.56-1.61c3.34,0,5.38,1.73,5.38,5.38v6.82h-2.88l-.26-1.35h-.1a7.23,7.23,0,0,1-4.22,1.63,3.61,3.61,0,0,1-3.92-3.6C647.27,150.14,649.48,148.79,655.12,148.46Zm-2.81,5.21a4.59,4.59,0,0,0,2.81-1.13v-2c-3.5.19-4.46.94-4.46,2C650.66,153.31,651.31,153.67,652.31,153.67Z"/><g class="cls-9"><rect class="cls-4" x="589.61" y="256.12" width="360" height="120" rx="5" ry="5"/><path class="cls-7" d="M599.61,261.12h350a5,5,0,0,0-5-5h-350a5,5,0,0,0-5,5v110a5,5,0,0,0,5,5v-110A5,5,0,0,1,599.61,261.12Z"/><path class="cls-8" d="M605.85,281.72a6.67,6.67,0,0,0,4,1.63c1.63,0,2.35-.57,2.35-1.51s-.91-1.29-2.42-1.87l-2-.86a4.57,4.57,0,0,1-3.34-4.28c0-2.59,2.36-4.65,5.74-4.65a7.62,7.62,0,0,1,5.21,2.06l-1.8,2.23a5.43,5.43,0,0,0-3.41-1.24c-1.37,0-2.16.52-2.16,1.41s1.06,1.3,2.57,1.85l1.89.82c2.07.76,3.36,2,3.36,4.24,0,2.6-2.18,4.85-6.07,4.85a9.07,9.07,0,0,1-6-2.25Z"/><path class="cls-8" d="M621.19,277h-3v-2.62l3.16-.14.46-3.17h2.9v3.17h5V277h-5v4.18c0,1.8.77,2.49,2.5,2.49a7.16,7.16,0,0,0,2.38-.43l.62,2.54a13.13,13.13,0,0,1-3.89.65c-3.79,0-5.13-2.11-5.13-5.23Z"/><path class="cls-8" d="M634.19,274.21h2.88l.29,2.59h.07a5.55,5.55,0,0,1,4.83-2.88,4.91,4.91,0,0,1,2.3.48l-.72,3a6.62,6.62,0,0,0-2.11-.33,4.41,4.41,0,0,0-4,2.9v6.2h-3.53Z"/><path class="cls-8" d="M658.41,286.12h-2.88l-.26-1.71h-.1a5.15,5.15,0,0,1-4,2c-2.71,0-3.86-1.85-3.86-4.85v-7.34h3.53v6.89c0,1.58.4,2.3,1.72,2.3a2.69,2.69,0,0,0,2.33-1.37v-7.82h3.53Z"/><path class="cls-8" d="M668.71,273.92a6.56,6.56,0,0,1,4.46,1.61l-1.63,2.18a4.47,4.47,0,0,0-2.64-.93,3.23,3.23,0,0,0-3.46,3.38,3.18,3.18,0,0,0,3.34,3.39,5.4,5.4,0,0,0,3.14-1.13l1.44,2.23a7.83,7.83,0,0,1-4.92,1.75c-3.74,0-6.62-2.28-6.62-6.24S665,273.92,668.71,273.92Z"/><path class="cls-8" d="M678.79,277h-3v-2.62l3.16-.14.46-3.17h2.9v3.17h5V277h-5v4.18c0,1.8.77,2.49,2.5,2.49a7.16,7.16,0,0,0,2.38-.43l.62,2.54a13.13,13.13,0,0,1-3.89.65c-3.79,0-5.13-2.11-5.13-5.23Z"/><path class="cls-8" d="M701.61,286.12h-2.88l-.27-1.71h-.09a5.17,5.17,0,0,1-4,2c-2.71,0-3.86-1.85-3.86-4.85v-7.34H694v6.89c0,1.58.41,2.3,1.73,2.3a2.7,2.7,0,0,0,2.33-1.37v-7.82h3.53Z"/><path class="cls-8" d="M706.19,274.21h2.88l.29,2.59h.07a5.55,5.55,0,0,1,4.83-2.88,4.91,4.91,0,0,1,2.3.48l-.72,3a6.62,6.62,0,0,0-2.11-.33,4.41,4.41,0,0,0-4,2.9v6.2h-3.53Z"/><path class="cls-8" d="M725.32,273.92c3.67,0,5.59,2.47,5.59,5.71a9.83,9.83,0,0,1-.14,1.56h-8c.24,1.78,1.71,2.52,3.46,2.52a6.58,6.58,0,0,0,3.07-.81l1.15,2.11a9,9,0,0,1-4.7,1.39c-3.7,0-6.6-2.3-6.6-6.24A6.09,6.09,0,0,1,725.32,273.92Zm2.4,4.95a2.07,2.07,0,0,0-2.33-2.26,2.63,2.63,0,0,0-2.69,2.26Z"/></g><g class="cls-9"><rect class="cls-3" x="589.61" y="386.37" width="360" height="295.37" rx="5" ry="5"/><path class="cls-7" d="M599.61,391.37h350a5,5,0,0,0-5-5h-350a5,5,0,0,0-5,5V676.74a5,5,0,0,0,5,5V396.37A5,5,0,0,1,599.61,391.37Z"/><path class="cls-8" d="M604.17,400.47h4.25c4.53,0,7.54,2.37,7.54,7.75s-3,7.9-7.35,7.9h-4.44Zm4.06,12.79c2.44,0,4.1-1.3,4.1-5s-1.66-4.9-4.1-4.9h-.51v9.94Z"/><path class="cls-8" d="M626.32,408.46c-.12-1.08-.93-1.73-2.54-1.73a8.29,8.29,0,0,0-3.63,1.1l-1.24-2.3a11.17,11.17,0,0,1,5.56-1.61c3.34,0,5.38,1.73,5.38,5.38v6.82H627l-.26-1.35h-.1a7.23,7.23,0,0,1-4.22,1.63,3.61,3.61,0,0,1-3.92-3.6C618.47,410.14,620.68,408.79,626.32,408.46Zm-2.81,5.21a4.59,4.59,0,0,0,2.81-1.13v-2c-3.5.19-4.46.94-4.46,2C621.86,413.31,622.51,413.67,623.51,413.67Z"/><path class="cls-8" d="M635.59,407h-3v-2.62l3.16-.14.46-3.17h2.9v3.17h5V407h-5v4.18c0,1.8.77,2.49,2.5,2.49a7.16,7.16,0,0,0,2.38-.43l.62,2.55a13.48,13.48,0,0,1-3.89.64c-3.79,0-5.13-2.11-5.13-5.23Z"/><path class="cls-8" d="M655.12,408.46c-.12-1.08-.93-1.73-2.54-1.73a8.29,8.29,0,0,0-3.63,1.1l-1.24-2.3a11.17,11.17,0,0,1,5.56-1.61c3.34,0,5.38,1.73,5.38,5.38v6.82h-2.88l-.26-1.35h-.1a7.23,7.23,0,0,1-4.22,1.63,3.61,3.61,0,0,1-3.92-3.6C647.27,410.14,649.48,408.79,655.12,408.46Zm-2.81,5.21a4.59,4.59,0,0,0,2.81-1.13v-2c-3.5.19-4.46.94-4.46,2C650.66,413.31,651.31,413.67,652.31,413.67Z"/><g class="cls-9"><path class="cls-10" d="M629.67,441.44H606.33a5,5,0,0,1,0-10h23.34a5,5,0,0,1,0,10Z"/><path class="cls-10" d="M671,441.44H642.67a5,5,0,0,1,0-10H671a5,5,0,0,1,0,10Z"/><path class="cls-10" d="M723.33,441.44H685a5,5,0,0,1,0-10h38.33a5,5,0,0,1,0,10Z"/><path class="cls-10" d="M629.67,457.11H606.33a5,5,0,0,1,0-10h23.34a5,5,0,0,1,0,10Z"/><path class="cls-10" d="M671,457.11H642.67a5,5,0,0,1,0-10H671a5,5,0,0,1,0,10Z"/><path class="cls-10" d="M723.33,457.11H685a5,5,0,0,1,0-10h38.33a5,5,0,0,1,0,10Z"/><path class="cls-10" d="M629.67,472.77H606.33a5,5,0,1,1,0-10h23.34a5,5,0,1,1,0,10Z"/><path class="cls-10" d="M671,472.77H642.67a5,5,0,0,1,0-10H671a5,5,0,0,1,0,10Z"/><path class="cls-10" d="M723.33,472.77H685a5,5,0,0,1,0-10h38.33a5,5,0,0,1,0,10Z"/><path class="cls-10" d="M629.67,488.44H606.33a5,5,0,0,1,0-10h23.34a5,5,0,0,1,0,10Z"/><path class="cls-10" d="M671,488.44H642.67a5,5,0,0,1,0-10H671a5,5,0,0,1,0,10Z"/><path class="cls-10" d="M723.33,488.44H685a5,5,0,0,1,0-10h38.33a5,5,0,0,1,0,10Z"/><path class="cls-10" d="M629.67,504.11H606.33a5,5,0,0,1,0-10h23.34a5,5,0,0,1,0,10Z"/><path class="cls-10" d="M671,504.11H642.67a5,5,0,0,1,0-10H671a5,5,0,0,1,0,10Z"/><path class="cls-10" d="M723.33,504.11H685a5,5,0,0,1,0-10h38.33a5,5,0,0,1,0,10Z"/><path class="cls-10" d="M629.67,519.77H606.33a5,5,0,1,1,0-10h23.34a5,5,0,1,1,0,10Z"/><path class="cls-10" d="M671,519.77H642.67a5,5,0,0,1,0-10H671a5,5,0,0,1,0,10Z"/><path class="cls-10" d="M723.33,519.77H685a5,5,0,0,1,0-10h38.33a5,5,0,0,1,0,10Z"/><path class="cls-10" d="M629.67,535.44H606.33a5,5,0,1,1,0-10h23.34a5,5,0,1,1,0,10Z"/><path class="cls-10" d="M671,535.44H642.67a5,5,0,0,1,0-10H671a5,5,0,0,1,0,10Z"/><path class="cls-10" d="M723.33,535.44H685a5,5,0,0,1,0-10h38.33a5,5,0,0,1,0,10Z"/><path class="cls-10" d="M761.67,441.44H738.33a5,5,0,0,1,0-10h23.34a5,5,0,0,1,0,10Z"/><path class="cls-10" d="M803,441.44H774.67a5,5,0,0,1,0-10H803a5,5,0,0,1,0,10Z"/><path class="cls-10" d="M855.33,441.44H817a5,5,0,0,1,0-10h38.33a5,5,0,0,1,0,10Z"/><path class="cls-10" d="M761.67,457.11H738.33a5,5,0,0,1,0-10h23.34a5,5,0,0,1,0,10Z"/><path class="cls-10" d="M803,457.11H774.67a5,5,0,0,1,0-10H803a5,5,0,0,1,0,10Z"/><path class="cls-10" d="M855.33,457.11H817a5,5,0,0,1,0-10h38.33a5,5,0,0,1,0,10Z"/><path class="cls-10" d="M761.67,472.77H738.33a5,5,0,1,1,0-10h23.34a5,5,0,1,1,0,10Z"/><path class="cls-10" d="M803,472.77H774.67a5,5,0,0,1,0-10H803a5,5,0,0,1,0,10Z"/><path class="cls-10" d="M855.33,472.77H817a5,5,0,0,1,0-10h38.33a5,5,0,0,1,0,10Z"/><path class="cls-10" d="M761.67,488.44H738.33a5,5,0,0,1,0-10h23.34a5,5,0,0,1,0,10Z"/><path class="cls-10" d="M803,488.44H774.67a5,5,0,0,1,0-10H803a5,5,0,0,1,0,10Z"/><path class="cls-10" d="M855.33,488.44H817a5,5,0,0,1,0-10h38.33a5,5,0,0,1,0,10Z"/><path class="cls-10" d="M761.67,504.11H738.33a5,5,0,0,1,0-10h23.34a5,5,0,0,1,0,10Z"/><path class="cls-10" d="M803,504.11H774.67a5,5,0,0,1,0-10H803a5,5,0,0,1,0,10Z"/><path class="cls-10" d="M855.33,504.11H817a5,5,0,0,1,0-10h38.33a5,5,0,0,1,0,10Z"/><path class="cls-10" d="M761.67,519.77H738.33a5,5,0,1,1,0-10h23.34a5,5,0,1,1,0,10Z"/><path class="cls-10" d="M803,519.77H774.67a5,5,0,0,1,0-10H803a5,5,0,0,1,0,10Z"/><path class="cls-10" d="M855.33,519.77H817a5,5,0,0,1,0-10h38.33a5,5,0,0,1,0,10Z"/><path class="cls-10" d="M761.67,535.44H738.33a5,5,0,1,1,0-10h23.34a5,5,0,1,1,0,10Z"/><path class="cls-10" d="M803,535.44H774.67a5,5,0,0,1,0-10H803a5,5,0,0,1,0,10Z"/><path class="cls-10" d="M855.33,535.44H817a5,5,0,0,1,0-10h38.33a5,5,0,0,1,0,10Z"/><path class="cls-10" d="M893.33,441.44H870a5,5,0,0,1,0-10h23.33a5,5,0,0,1,0,10Z"/><path class="cls-10" d="M934.67,441.44H906.33a5,5,0,0,1,0-10h28.34a5,5,0,0,1,0,10Z"/><path class="cls-10" d="M893.33,457.11H870a5,5,0,0,1,0-10h23.33a5,5,0,0,1,0,10Z"/><path class="cls-10" d="M934.67,457.11H906.33a5,5,0,0,1,0-10h28.34a5,5,0,0,1,0,10Z"/><path class="cls-10" d="M893.33,472.77H870a5,5,0,0,1,0-10h23.33a5,5,0,0,1,0,10Z"/><path class="cls-10" d="M934.67,472.77H906.33a5,5,0,1,1,0-10h28.34a5,5,0,1,1,0,10Z"/><path class="cls-10" d="M893.33,488.44H870a5,5,0,0,1,0-10h23.33a5,5,0,0,1,0,10Z"/><path class="cls-10" d="M934.67,488.44H906.33a5,5,0,0,1,0-10h28.34a5,5,0,0,1,0,10Z"/><path class="cls-10" d="M893.33,504.11H870a5,5,0,0,1,0-10h23.33a5,5,0,0,1,0,10Z"/><path class="cls-10" d="M934.67,504.11H906.33a5,5,0,0,1,0-10h28.34a5,5,0,0,1,0,10Z"/><path class="cls-10" d="M893.33,519.77H870a5,5,0,0,1,0-10h23.33a5,5,0,0,1,0,10Z"/><path class="cls-10" d="M934.67,519.77H906.33a5,5,0,1,1,0-10h28.34a5,5,0,1,1,0,10Z"/><path class="cls-10" d="M893.33,535.44H870a5,5,0,0,1,0-10h23.33a5,5,0,0,1,0,10Z"/><path class="cls-10" d="M934.67,535.44H906.33a5,5,0,1,1,0-10h28.34a5,5,0,1,1,0,10Z"/></g><g class="cls-9"><path class="cls-10" d="M629.67,562.44H606.33a5,5,0,1,1,0-10h23.34a5,5,0,1,1,0,10Z"/><path class="cls-10" d="M671,562.44H642.67a5,5,0,0,1,0-10H671a5,5,0,0,1,0,10Z"/><path class="cls-10" d="M723.33,562.44H685a5,5,0,0,1,0-10h38.33a5,5,0,0,1,0,10Z"/><path class="cls-10" d="M629.67,578.11H606.33a5,5,0,0,1,0-10h23.34a5,5,0,0,1,0,10Z"/><path class="cls-10" d="M671,578.11H642.67a5,5,0,0,1,0-10H671a5,5,0,0,1,0,10Z"/><path class="cls-10" d="M723.33,578.11H685a5,5,0,0,1,0-10h38.33a5,5,0,0,1,0,10Z"/><path class="cls-10" d="M629.67,593.77H606.33a5,5,0,1,1,0-10h23.34a5,5,0,1,1,0,10Z"/><path class="cls-10" d="M671,593.77H642.67a5,5,0,0,1,0-10H671a5,5,0,0,1,0,10Z"/><path class="cls-10" d="M723.33,593.77H685a5,5,0,0,1,0-10h38.33a5,5,0,0,1,0,10Z"/><path class="cls-10" d="M629.67,609.44H606.33a5,5,0,1,1,0-10h23.34a5,5,0,1,1,0,10Z"/><path class="cls-10" d="M671,609.44H642.67a5,5,0,0,1,0-10H671a5,5,0,0,1,0,10Z"/><path class="cls-10" d="M723.33,609.44H685a5,5,0,0,1,0-10h38.33a5,5,0,0,1,0,10Z"/><path class="cls-10" d="M629.67,625.11H606.33a5,5,0,0,1,0-10h23.34a5,5,0,0,1,0,10Z"/><path class="cls-10" d="M671,625.11H642.67a5,5,0,0,1,0-10H671a5,5,0,0,1,0,10Z"/><path class="cls-10" d="M723.33,625.11H685a5,5,0,0,1,0-10h38.33a5,5,0,0,1,0,10Z"/><path class="cls-10" d="M629.67,640.77H606.33a5,5,0,1,1,0-10h23.34a5,5,0,1,1,0,10Z"/><path class="cls-10" d="M671,640.77H642.67a5,5,0,0,1,0-10H671a5,5,0,0,1,0,10Z"/><path class="cls-10" d="M723.33,640.77H685a5,5,0,0,1,0-10h38.33a5,5,0,0,1,0,10Z"/><path class="cls-10" d="M629.67,656.44H606.33a5,5,0,1,1,0-10h23.34a5,5,0,1,1,0,10Z"/><path class="cls-10" d="M671,656.44H642.67a5,5,0,0,1,0-10H671a5,5,0,0,1,0,10Z"/><path class="cls-10" d="M723.33,656.44H685a5,5,0,0,1,0-10h38.33a5,5,0,0,1,0,10Z"/><path class="cls-10" d="M761.67,562.44H738.33a5,5,0,1,1,0-10h23.34a5,5,0,1,1,0,10Z"/><path class="cls-10" d="M803,562.44H774.67a5,5,0,0,1,0-10H803a5,5,0,0,1,0,10Z"/><path class="cls-10" d="M855.33,562.44H817a5,5,0,0,1,0-10h38.33a5,5,0,0,1,0,10Z"/><path class="cls-10" d="M761.67,578.11H738.33a5,5,0,0,1,0-10h23.34a5,5,0,0,1,0,10Z"/><path class="cls-10" d="M803,578.11H774.67a5,5,0,0,1,0-10H803a5,5,0,0,1,0,10Z"/><path class="cls-10" d="M855.33,578.11H817a5,5,0,0,1,0-10h38.33a5,5,0,0,1,0,10Z"/><path class="cls-10" d="M761.67,593.77H738.33a5,5,0,1,1,0-10h23.34a5,5,0,1,1,0,10Z"/><path class="cls-10" d="M803,593.77H774.67a5,5,0,0,1,0-10H803a5,5,0,0,1,0,10Z"/><path class="cls-10" d="M855.33,593.77H817a5,5,0,0,1,0-10h38.33a5,5,0,0,1,0,10Z"/><path class="cls-10" d="M761.67,609.44H738.33a5,5,0,1,1,0-10h23.34a5,5,0,1,1,0,10Z"/><path class="cls-10" d="M803,609.44H774.67a5,5,0,0,1,0-10H803a5,5,0,0,1,0,10Z"/><path class="cls-10" d="M855.33,609.44H817a5,5,0,0,1,0-10h38.33a5,5,0,0,1,0,10Z"/><path class="cls-10" d="M761.67,625.11H738.33a5,5,0,0,1,0-10h23.34a5,5,0,0,1,0,10Z"/><path class="cls-10" d="M803,625.11H774.67a5,5,0,0,1,0-10H803a5,5,0,0,1,0,10Z"/><path class="cls-10" d="M855.33,625.11H817a5,5,0,0,1,0-10h38.33a5,5,0,0,1,0,10Z"/><path class="cls-10" d="M761.67,640.77H738.33a5,5,0,1,1,0-10h23.34a5,5,0,1,1,0,10Z"/><path class="cls-10" d="M803,640.77H774.67a5,5,0,0,1,0-10H803a5,5,0,0,1,0,10Z"/><path class="cls-10" d="M855.33,640.77H817a5,5,0,0,1,0-10h38.33a5,5,0,0,1,0,10Z"/><path class="cls-10" d="M761.67,656.44H738.33a5,5,0,1,1,0-10h23.34a5,5,0,1,1,0,10Z"/><path class="cls-10" d="M893.33,562.44H870a5,5,0,0,1,0-10h23.33a5,5,0,0,1,0,10Z"/><path class="cls-10" d="M934.67,562.44H906.33a5,5,0,1,1,0-10h28.34a5,5,0,1,1,0,10Z"/><path class="cls-10" d="M893.33,578.11H870a5,5,0,0,1,0-10h23.33a5,5,0,0,1,0,10Z"/><path class="cls-10" d="M934.67,578.11H906.33a5,5,0,0,1,0-10h28.34a5,5,0,0,1,0,10Z"/><path class="cls-10" d="M893.33,593.77H870a5,5,0,0,1,0-10h23.33a5,5,0,0,1,0,10Z"/><path class="cls-10" d="M934.67,593.77H906.33a5,5,0,1,1,0-10h28.34a5,5,0,1,1,0,10Z"/><path class="cls-10" d="M893.33,609.44H870a5,5,0,0,1,0-10h23.33a5,5,0,0,1,0,10Z"/><path class="cls-10" d="M934.67,609.44H906.33a5,5,0,1,1,0-10h28.34a5,5,0,1,1,0,10Z"/><path class="cls-10" d="M893.33,625.11H870a5,5,0,0,1,0-10h23.33a5,5,0,0,1,0,10Z"/><path class="cls-10" d="M934.67,625.11H906.33a5,5,0,0,1,0-10h28.34a5,5,0,0,1,0,10Z"/><path class="cls-10" d="M893.33,640.77H870a5,5,0,0,1,0-10h23.33a5,5,0,0,1,0,10Z"/><path class="cls-10" d="M934.67,640.77H906.33a5,5,0,1,1,0-10h28.34a5,5,0,1,1,0,10Z"/></g></g><path class="cls-11" d="M390.67,276.33h208"/><polygon class="cls-12" points="399.58 267.5 399.58 284.5 383.58 276.5 399.58 267.5"/><path class="cls-13" d="M403.67,31.33H574.5"/><polygon class="cls-14" points="412.58 22.5 412.58 39.5 396.58 31.5 412.58 22.5"/><path class="cls-15" d="M390.67,408.33h208"/><polygon class="cls-16" points="399.58 399.5 399.58 416.5 383.58 408.5 399.58 399.5"/><path class="cls-2" d="M437.78,7.35h5.71c3.38,0,6.12,1.25,6.12,5s-2.81,5.31-6.12,5.31H441.3V23h-3.52Zm5.49,7.54c2,0,2.86-.87,2.86-2.5s-1-2.23-2.86-2.23h-2v4.73Z"/><path class="cls-2" d="M453.18,11.09h2.88l.29,2.6h.07a5.53,5.53,0,0,1,4.83-2.88,4.79,4.79,0,0,1,2.3.48l-.72,3a6.35,6.35,0,0,0-2.11-.34,4.41,4.41,0,0,0-4,2.91V23h-3.53Z"/><path class="cls-2" d="M472.31,10.81c3.67,0,5.59,2.47,5.59,5.71a10.08,10.08,0,0,1-.14,1.56h-8c.24,1.78,1.71,2.52,3.46,2.52a6.57,6.57,0,0,0,3.07-.82l1.15,2.12a9.14,9.14,0,0,1-4.7,1.39c-3.7,0-6.6-2.31-6.6-6.24A6.09,6.09,0,0,1,472.31,10.81Zm2.4,4.94a2.07,2.07,0,0,0-2.33-2.25,2.6,2.6,0,0,0-2.68,2.25Z"/><path class="cls-2" d="M479.94,11.09h3.56l1.87,5.62c.38,1.2.72,2.43,1.08,3.67h.09c.36-1.24.68-2.47,1.06-3.67l1.87-5.62h3.39L488.49,23h-4.06Z"/><path class="cls-2" d="M495.5,11.09h8.3V23h-3.53V13.86H495.5Zm4-3.88a2.35,2.35,0,0,1,4.7,0,2.36,2.36,0,0,1-4.7,0Z"/><path class="cls-2" d="M515.2,10.81a6,6,0,0,1,6.07,6.24,6.07,6.07,0,1,1-12.14,0A6,6,0,0,1,515.2,10.81Zm0,9.62c1.63,0,2.45-1.32,2.45-3.38s-.82-3.39-2.45-3.39-2.45,1.32-2.45,3.39S513.57,20.43,515.2,20.43Z"/><path class="cls-2" d="M535,23h-2.88l-.26-1.7h-.1a5.15,5.15,0,0,1-4,2c-2.71,0-3.86-1.85-3.86-4.85V11.09h3.53V18c0,1.59.4,2.31,1.72,2.31a2.69,2.69,0,0,0,2.33-1.37V11.09H535Z"/><path class="cls-2" d="M539.65,19.26A8,8,0,0,0,544,20.67c1.6,0,2.28-.38,2.28-1S545,18.54,543.06,18c-2.09-.58-4.25-1.59-4.25-3.48,0-2.21,2.09-3.72,5.5-3.72a9.7,9.7,0,0,1,5.14,1.63l-1.59,2.11a6.78,6.78,0,0,0-3.48-1.13c-1.48,0-2.06.34-2.06.94s1.37,1.08,3,1.51c2.35.63,4.39,1.51,4.39,3.58s-2,3.84-5.86,3.84a11,11,0,0,1-5.83-1.83Z"/></g></g></svg>