<svg xmlns="http://www.w3.org/2000/svg" viewBox="0 0 990 832"><defs><style>.cls-1{isolation:isolate;}.cls-17,.cls-18,.cls-2{fill:#253238;}.cls-20,.cls-3,.cls-4{fill:#b0d248;}.cls-11,.cls-3{opacity:0.1;}.cls-13,.cls-19,.cls-5{fill:none;}.cls-19,.cls-20,.cls-5{stroke:#b0d248;}.cls-13,.cls-15,.cls-17,.cls-19,.cls-5{stroke-miterlimit:10;stroke-width:5px;}.cls-14,.cls-6{fill:#4fc8f4;}.cls-7{fill:#a9c8d4;}.cls-15,.cls-16,.cls-8{fill:#f9ac31;}.cls-12,.cls-9{fill:#231f20;}.cls-9{opacity:0.2;mix-blend-mode:multiply;}.cls-10{fill:#fff;}.cls-13,.cls-14{stroke:#4fc8f4;}.cls-13,.cls-15,.cls-17,.cls-19{stroke-linecap:round;}.cls-14,.cls-16,.cls-18,.cls-20{stroke-linejoin:round;}.cls-14,.cls-16,.cls-18{stroke-width:4px;}.cls-15,.cls-16{stroke:#f9ac31;}.cls-17,.cls-18{stroke:#253238;}.cls-20{stroke-width:3px;}</style></defs><title>Artboard 6</title><g class="cls-1"><g id="Layer_1" data-name="Layer 1"><rect class="cls-2" x="586.94" y="10.12" width="390" height="810.88" rx="5" ry="5"/><rect class="cls-3" x="608.67" y="426.33" width="348" height="121.21" rx="6.9" ry="6.9"/><rect class="cls-3" x="608.67" y="551" width="348" height="121.21" rx="6.9" ry="6.9"/><rect class="cls-2" x="18.33" y="10.12" width="390" height="690" rx="5" ry="5"/><rect class="cls-4" x="39.67" y="426.33" width="348" height="121.21" rx="6.9" ry="6.9"/><rect class="cls-4" x="39.67" y="551" width="348" height="121.21" rx="6.9" ry="6.9"/><rect class="cls-5" x="33.33" y="390.37" width="360" height="295.37" rx="5" ry="5"/><rect class="cls-6" x="33.33" y="260.12" width="360" height="120" rx="5" ry="5"/><rect class="cls-7" x="33.33" y="61.22" width="360" height="60" rx="5" ry="5"/><rect class="cls-8" x="33.33" y="130.12" width="360" height="120" rx="5" ry="5"/><path class="cls-9" d="M43.33,395.37h350a5,5,0,0,0-5-5h-350a5,5,0,0,0-5,5V680.74a5,5,0,0,0,5,5V400.37A5,5,0,0,1,43.33,395.37Z"/><path class="cls-9" d="M43.33,265.12h350a5,5,0,0,0-5-5h-350a5,5,0,0,0-5,5v110a5,5,0,0,0,5,5v-110A5,5,0,0,1,43.33,265.12Z"/><path class="cls-9" d="M43.33,66.22h350a5,5,0,0,0-5-5h-350a5,5,0,0,0-5,5v50a5,5,0,0,0,5,5v-50A5,5,0,0,1,43.33,66.22Z"/><path class="cls-9" d="M43.33,135.12h350a5,5,0,0,0-5-5h-350a5,5,0,0,0-5,5v110a5,5,0,0,0,5,5v-110A5,5,0,0,1,43.33,135.12Z"/><path class="cls-10" d="M34.89,27.47h4.25c4.54,0,7.54,2.37,7.54,7.75s-3,7.9-7.35,7.9H34.89ZM39,40.26c2.45,0,4.1-1.3,4.1-5s-1.65-4.9-4.1-4.9h-.5v9.94Z"/><path class="cls-10" d="M57.05,35.46c-.12-1.08-.94-1.73-2.55-1.73a8.21,8.21,0,0,0-3.62,1.1l-1.25-2.3a11.21,11.21,0,0,1,5.57-1.61c3.34,0,5.38,1.73,5.38,5.38v6.82H57.7l-.27-1.35h-.1a7.2,7.2,0,0,1-4.22,1.63,3.6,3.6,0,0,1-3.91-3.6C49.2,37.14,51.41,35.79,57.05,35.46Zm-2.81,5.21a4.61,4.61,0,0,0,2.81-1.13v-2c-3.51.19-4.47.94-4.47,2C52.58,40.31,53.23,40.67,54.24,40.67Z"/><path class="cls-10" d="M66.31,34h-3V31.35l3.17-.14L66.93,28h2.91v3.17h5V34h-5v4.18c0,1.8.77,2.49,2.49,2.49a7.11,7.11,0,0,0,2.38-.43l.62,2.54a13.05,13.05,0,0,1-3.88.65c-3.8,0-5.14-2.11-5.14-5.23Z"/><path class="cls-10" d="M85.85,35.46c-.12-1.08-.94-1.73-2.55-1.73a8.21,8.21,0,0,0-3.62,1.1l-1.25-2.3A11.21,11.21,0,0,1,84,30.92c3.33,0,5.38,1.73,5.38,5.38v6.82H86.49l-.26-1.35h-.1a7.2,7.2,0,0,1-4.22,1.63A3.6,3.6,0,0,1,78,39.8C78,37.14,80.21,35.79,85.85,35.46ZM83,40.67a4.61,4.61,0,0,0,2.81-1.13v-2c-3.51.19-4.47.94-4.47,2C81.38,40.31,82,40.67,83,40.67Z"/><path class="cls-10" d="M93.79,39.37a8,8,0,0,0,4.32,1.42c1.61,0,2.28-.39,2.28-1s-1.27-1.13-3.19-1.66C95.11,37.55,93,36.54,93,34.64c0-2.21,2.09-3.72,5.5-3.72a9.66,9.66,0,0,1,5.13,1.63L102,34.67a6.78,6.78,0,0,0-3.48-1.13c-1.49,0-2.07.33-2.07.93s1.37,1.08,3,1.52c2.35.62,4.39,1.51,4.39,3.57s-2,3.84-5.85,3.84a11,11,0,0,1-5.83-1.82Z"/><path class="cls-10" d="M112.85,30.92c3.67,0,5.59,2.47,5.59,5.71a9.58,9.58,0,0,1-.15,1.56h-8c.24,1.78,1.7,2.52,3.45,2.52a6.62,6.62,0,0,0,3.08-.81L118,42a9.08,9.08,0,0,1-4.71,1.39c-3.69,0-6.6-2.3-6.6-6.24A6.1,6.1,0,0,1,112.85,30.92Zm2.4,4.95a2.07,2.07,0,0,0-2.33-2.26,2.62,2.62,0,0,0-2.69,2.26Z"/><path class="cls-10" d="M123.91,34h-3V31.35l3.17-.14.45-3.17h2.91v3.17h5V34h-5v4.18c0,1.8.77,2.49,2.49,2.49a7.11,7.11,0,0,0,2.38-.43l.62,2.54a13.05,13.05,0,0,1-3.88.65c-3.8,0-5.14-2.11-5.14-5.23Z"/><path class="cls-10" d="M52.12,75.18a6.65,6.65,0,0,1,4.63,2l-1.94,2.18a3.84,3.84,0,0,0-2.69-1.12c-2.21,0-3.84,1.89-3.84,5s1.63,5.08,4,5.08A3.72,3.72,0,0,0,55.05,87L57,89.1a6.29,6.29,0,0,1-4.94,2.3c-4,0-7.4-2.76-7.4-8S47.94,75.18,52.12,75.18Z"/><path class="cls-10" d="M64.93,78.92a6.24,6.24,0,1,1-6.07,6.24A6,6,0,0,1,64.93,78.92Zm0,9.63c1.64,0,2.45-1.32,2.45-3.39s-.81-3.38-2.45-3.38-2.44,1.32-2.44,3.38S63.3,88.55,64.93,88.55Z"/><path class="cls-10" d="M73,79.21h2.64l.26,1.49H76a2.64,2.64,0,0,1,2.54-1.78c1.06,0,1.8.67,2.09,2a2.78,2.78,0,0,1,2.62-2c1.65,0,2.64,1.47,2.64,3.84v8.36H82.58V83c0-.75-.2-1.11-.68-1.11s-.79.39-1.1,1.15v8.05H78.09V83c0-.75-.24-1.11-.7-1.11s-.74.39-1.08,1.15v8.05H73Z"/><path class="cls-10" d="M87.4,79.21H90l.26,1.49h.1a2.64,2.64,0,0,1,2.54-1.78c1.06,0,1.8.67,2.09,2a2.78,2.78,0,0,1,2.62-2c1.65,0,2.64,1.47,2.64,3.84v8.36H97V83c0-.75-.19-1.11-.67-1.11s-.79.39-1.1,1.15v8.05H92.49V83c0-.75-.24-1.11-.7-1.11s-.74.39-1.08,1.15v8.05H87.4Z"/><path class="cls-10" d="M102.83,79.21h8.3V91.12h-3.52V82h-4.78Zm4-3.89a2.36,2.36,0,0,1,4.71,0,2.37,2.37,0,0,1-4.71,0Z"/><path class="cls-10" d="M119.51,82h-3V79.35l3.17-.14.45-3.17H123v3.17h5V82h-5v4.18c0,1.8.77,2.49,2.49,2.49a7.11,7.11,0,0,0,2.38-.43l.62,2.54a13.05,13.05,0,0,1-3.88.65c-3.8,0-5.14-2.11-5.14-5.23Z"/><path class="cls-10" d="M47.89,144.46h3.53L53,150l.53,2.16h.07l.52-2.16,1.52-5.55h3.53v15.66H56.32V155c0-1.7.29-5.4.46-7.08H56.7l-1.22,4.3-1.2,3.72H52.72l-1.2-3.72-1.18-4.3h-.09c.17,1.68.45,5.38.45,7.08v5.12H47.89Z"/><path class="cls-10" d="M68.25,147.92c3.67,0,5.59,2.47,5.59,5.71a11.2,11.2,0,0,1-.14,1.56h-8c.24,1.78,1.7,2.52,3.45,2.52a6.62,6.62,0,0,0,3.08-.81L73.36,159a9.07,9.07,0,0,1-4.7,1.39c-3.7,0-6.61-2.3-6.61-6.24A6.1,6.1,0,0,1,68.25,147.92Zm2.4,5a2.07,2.07,0,0,0-2.33-2.26,2.62,2.62,0,0,0-2.69,2.26Z"/><path class="cls-10" d="M79.31,151h-3v-2.62l3.17-.14.45-3.17h2.91v3.17h5V151h-5v4.18c0,1.8.77,2.49,2.49,2.49a7.11,7.11,0,0,0,2.38-.43l.62,2.54a13.05,13.05,0,0,1-3.88.65c-3.8,0-5.14-2.11-5.14-5.23Z"/><path class="cls-10" d="M98.85,152.46c-.12-1.08-.94-1.73-2.55-1.73a8.21,8.21,0,0,0-3.62,1.1l-1.25-2.3A11.21,11.21,0,0,1,97,147.92c3.33,0,5.38,1.73,5.38,5.38v6.82H99.49l-.26-1.35h-.1a7.2,7.2,0,0,1-4.22,1.63A3.6,3.6,0,0,1,91,156.8C91,154.14,93.21,152.79,98.85,152.46ZM96,157.67a4.61,4.61,0,0,0,2.81-1.13v-2c-3.51.19-4.47.94-4.47,2C94.38,157.31,95,157.67,96,157.67Z"/><path class="cls-10" d="M49.57,285.72a6.67,6.67,0,0,0,4,1.63c1.63,0,2.35-.57,2.35-1.51S55,284.55,53.51,284l-2-.86a4.56,4.56,0,0,1-3.34-4.28c0-2.59,2.35-4.65,5.73-4.65a7.6,7.6,0,0,1,5.21,2.06l-1.8,2.23a5.41,5.41,0,0,0-3.41-1.24c-1.36,0-2.16.52-2.16,1.41s1.06,1.3,2.57,1.85l1.9.82c2.06.76,3.36,2,3.36,4.24,0,2.6-2.18,4.85-6.07,4.85a9.09,9.09,0,0,1-6-2.25Z"/><path class="cls-10" d="M64.91,281h-3v-2.62l3.17-.14.45-3.17h2.91v3.17h5V281h-5v4.18c0,1.8.77,2.49,2.49,2.49a7.07,7.07,0,0,0,2.38-.43l.63,2.54a13.18,13.18,0,0,1-3.89.65c-3.8,0-5.14-2.11-5.14-5.23Z"/><path class="cls-10" d="M77.92,278.21H80.8l.29,2.59h.07A5.54,5.54,0,0,1,86,277.92a5,5,0,0,1,2.31.48l-.72,3a6.72,6.72,0,0,0-2.11-.33,4.41,4.41,0,0,0-4,2.9v6.2H77.92Z"/><path class="cls-10" d="M102.13,290.12H99.25L99,288.41h-.1a5.13,5.13,0,0,1-4,2c-2.72,0-3.87-1.85-3.87-4.85v-7.34h3.53v6.89c0,1.58.41,2.3,1.73,2.3A2.7,2.7,0,0,0,98.61,286v-7.82h3.52Z"/><path class="cls-10" d="M112.43,277.92a6.54,6.54,0,0,1,4.46,1.61l-1.63,2.18a4.47,4.47,0,0,0-2.64-.93,3.23,3.23,0,0,0-3.45,3.38,3.17,3.17,0,0,0,3.33,3.39,5.43,5.43,0,0,0,3.15-1.13l1.44,2.23a7.83,7.83,0,0,1-4.92,1.75c-3.75,0-6.63-2.28-6.63-6.24S108.76,277.92,112.43,277.92Z"/><path class="cls-10" d="M122.51,281h-3v-2.62l3.17-.14.45-3.17H126v3.17h5V281h-5v4.18c0,1.8.77,2.49,2.49,2.49a7.11,7.11,0,0,0,2.38-.43l.62,2.54a13.05,13.05,0,0,1-3.88.65c-3.8,0-5.14-2.11-5.14-5.23Z"/><path class="cls-10" d="M145.33,290.12h-2.88l-.26-1.71h-.1a5.14,5.14,0,0,1-4,2c-2.71,0-3.86-1.85-3.86-4.85v-7.34h3.53v6.89c0,1.58.41,2.3,1.73,2.3a2.7,2.7,0,0,0,2.33-1.37v-7.82h3.52Z"/><path class="cls-10" d="M149.92,278.21h2.88l.28,2.59h.08a5.52,5.52,0,0,1,4.82-2.88,5,5,0,0,1,2.31.48l-.72,3a6.73,6.73,0,0,0-2.12-.33,4.39,4.39,0,0,0-4,2.9v6.2h-3.53Z"/><path class="cls-10" d="M169,277.92c3.68,0,5.6,2.47,5.6,5.71a9.58,9.58,0,0,1-.15,1.56h-8c.24,1.78,1.7,2.52,3.45,2.52a6.55,6.55,0,0,0,3.07-.81l1.16,2.11a9.08,9.08,0,0,1-4.71,1.39c-3.69,0-6.6-2.3-6.6-6.24A6.09,6.09,0,0,1,169,277.92Zm2.41,4.95a2.07,2.07,0,0,0-2.33-2.26,2.62,2.62,0,0,0-2.69,2.26Z"/><path class="cls-10" d="M47.89,404.47h4.25c4.54,0,7.54,2.37,7.54,7.75s-3,7.9-7.35,7.9H47.89ZM52,417.26c2.45,0,4.1-1.3,4.1-5s-1.65-4.9-4.1-4.9h-.5v9.94Z"/><path class="cls-10" d="M70.05,412.46c-.12-1.08-.94-1.73-2.55-1.73a8.21,8.21,0,0,0-3.62,1.1l-1.25-2.3a11.21,11.21,0,0,1,5.57-1.61c3.34,0,5.38,1.73,5.38,5.38v6.82H70.7l-.27-1.35h-.1a7.2,7.2,0,0,1-4.22,1.63,3.6,3.6,0,0,1-3.91-3.6C62.2,414.14,64.41,412.79,70.05,412.46Zm-2.81,5.21a4.61,4.61,0,0,0,2.81-1.13v-2c-3.51.19-4.47.94-4.47,2C65.58,417.31,66.23,417.67,67.24,417.67Z"/><path class="cls-10" d="M79.31,411h-3v-2.62l3.17-.14.45-3.17h2.91v3.17h5V411h-5v4.18c0,1.8.77,2.49,2.49,2.49a7.11,7.11,0,0,0,2.38-.43l.62,2.55a13.41,13.41,0,0,1-3.88.64c-3.8,0-5.14-2.11-5.14-5.23Z"/><path class="cls-10" d="M98.85,412.46c-.12-1.08-.94-1.73-2.55-1.73a8.21,8.21,0,0,0-3.62,1.1l-1.25-2.3A11.21,11.21,0,0,1,97,407.92c3.33,0,5.38,1.73,5.38,5.38v6.82H99.49l-.26-1.35h-.1a7.2,7.2,0,0,1-4.22,1.63A3.6,3.6,0,0,1,91,416.8C91,414.14,93.21,412.79,98.85,412.46ZM96,417.67a4.61,4.61,0,0,0,2.81-1.13v-2c-3.51.19-4.47.94-4.47,2C94.38,417.31,95,417.67,96,417.67Z"/><g class="cls-11"><path class="cls-12" d="M73.39,445.44H50.06a5,5,0,0,1,0-10H73.39a5,5,0,1,1,0,10Z"/><path class="cls-12" d="M114.72,445.44H86.39a5,5,0,0,1,0-10h28.33a5,5,0,0,1,0,10Z"/><path class="cls-12" d="M167.06,445.44H128.72a5,5,0,1,1,0-10h38.34a5,5,0,0,1,0,10Z"/><path class="cls-12" d="M73.39,461.11H50.06a5,5,0,0,1,0-10H73.39a5,5,0,0,1,0,10Z"/><path class="cls-12" d="M114.72,461.11H86.39a5,5,0,1,1,0-10h28.33a5,5,0,1,1,0,10Z"/><path class="cls-12" d="M167.06,461.11H128.72a5,5,0,0,1,0-10h38.34a5,5,0,1,1,0,10Z"/><path class="cls-12" d="M73.39,476.77H50.06a5,5,0,1,1,0-10H73.39a5,5,0,0,1,0,10Z"/><path class="cls-12" d="M114.72,476.77H86.39a5,5,0,1,1,0-10h28.33a5,5,0,1,1,0,10Z"/><path class="cls-12" d="M167.06,476.77H128.72a5,5,0,0,1,0-10h38.34a5,5,0,0,1,0,10Z"/><path class="cls-12" d="M73.39,492.44H50.06a5,5,0,0,1,0-10H73.39a5,5,0,1,1,0,10Z"/><path class="cls-12" d="M114.72,492.44H86.39a5,5,0,0,1,0-10h28.33a5,5,0,0,1,0,10Z"/><path class="cls-12" d="M167.06,492.44H128.72a5,5,0,1,1,0-10h38.34a5,5,0,0,1,0,10Z"/><path class="cls-12" d="M73.39,508.11H50.06a5,5,0,0,1,0-10H73.39a5,5,0,0,1,0,10Z"/><path class="cls-12" d="M114.72,508.11H86.39a5,5,0,1,1,0-10h28.33a5,5,0,1,1,0,10Z"/><path class="cls-12" d="M167.06,508.11H128.72a5,5,0,0,1,0-10h38.34a5,5,0,1,1,0,10Z"/><path class="cls-12" d="M73.39,523.77H50.06a5,5,0,1,1,0-10H73.39a5,5,0,0,1,0,10Z"/><path class="cls-12" d="M114.72,523.77H86.39a5,5,0,1,1,0-10h28.33a5,5,0,1,1,0,10Z"/><path class="cls-12" d="M167.06,523.77H128.72a5,5,0,0,1,0-10h38.34a5,5,0,0,1,0,10Z"/><path class="cls-12" d="M73.39,539.44H50.06a5,5,0,1,1,0-10H73.39a5,5,0,0,1,0,10Z"/><path class="cls-12" d="M114.72,539.44H86.39a5,5,0,1,1,0-10h28.33a5,5,0,1,1,0,10Z"/><path class="cls-12" d="M167.06,539.44H128.72a5,5,0,0,1,0-10h38.34a5,5,0,0,1,0,10Z"/><path class="cls-12" d="M205.39,445.44H182.06a5,5,0,0,1,0-10h23.33a5,5,0,0,1,0,10Z"/><path class="cls-12" d="M246.72,445.44H218.39a5,5,0,1,1,0-10h28.33a5,5,0,0,1,0,10Z"/><path class="cls-12" d="M299.06,445.44H260.72a5,5,0,0,1,0-10h38.34a5,5,0,0,1,0,10Z"/><path class="cls-12" d="M205.39,461.11H182.06a5,5,0,0,1,0-10h23.33a5,5,0,0,1,0,10Z"/><path class="cls-12" d="M246.72,461.11H218.39a5,5,0,0,1,0-10h28.33a5,5,0,1,1,0,10Z"/><path class="cls-12" d="M299.06,461.11H260.72a5,5,0,0,1,0-10h38.34a5,5,0,1,1,0,10Z"/><path class="cls-12" d="M205.39,476.77H182.06a5,5,0,1,1,0-10h23.33a5,5,0,0,1,0,10Z"/><path class="cls-12" d="M246.72,476.77H218.39a5,5,0,0,1,0-10h28.33a5,5,0,1,1,0,10Z"/><path class="cls-12" d="M299.06,476.77H260.72a5,5,0,0,1,0-10h38.34a5,5,0,0,1,0,10Z"/><path class="cls-12" d="M205.39,492.44H182.06a5,5,0,0,1,0-10h23.33a5,5,0,0,1,0,10Z"/><path class="cls-12" d="M246.72,492.44H218.39a5,5,0,1,1,0-10h28.33a5,5,0,0,1,0,10Z"/><path class="cls-12" d="M299.06,492.44H260.72a5,5,0,0,1,0-10h38.34a5,5,0,0,1,0,10Z"/><path class="cls-12" d="M205.39,508.11H182.06a5,5,0,0,1,0-10h23.33a5,5,0,0,1,0,10Z"/><path class="cls-12" d="M246.72,508.11H218.39a5,5,0,0,1,0-10h28.33a5,5,0,1,1,0,10Z"/><path class="cls-12" d="M299.06,508.11H260.72a5,5,0,0,1,0-10h38.34a5,5,0,1,1,0,10Z"/><path class="cls-12" d="M205.39,523.77H182.06a5,5,0,1,1,0-10h23.33a5,5,0,0,1,0,10Z"/><path class="cls-12" d="M246.72,523.77H218.39a5,5,0,0,1,0-10h28.33a5,5,0,1,1,0,10Z"/><path class="cls-12" d="M299.06,523.77H260.72a5,5,0,0,1,0-10h38.34a5,5,0,0,1,0,10Z"/><path class="cls-12" d="M205.39,539.44H182.06a5,5,0,1,1,0-10h23.33a5,5,0,0,1,0,10Z"/><path class="cls-12" d="M246.72,539.44H218.39a5,5,0,0,1,0-10h28.33a5,5,0,1,1,0,10Z"/><path class="cls-12" d="M299.06,539.44H260.72a5,5,0,0,1,0-10h38.34a5,5,0,0,1,0,10Z"/><path class="cls-12" d="M337.06,445.44H313.72a5,5,0,0,1,0-10h23.34a5,5,0,0,1,0,10Z"/><path class="cls-12" d="M378.39,445.44H350.06a5,5,0,0,1,0-10h28.33a5,5,0,0,1,0,10Z"/><path class="cls-12" d="M337.06,461.11H313.72a5,5,0,0,1,0-10h23.34a5,5,0,1,1,0,10Z"/><path class="cls-12" d="M378.39,461.11H350.06a5,5,0,0,1,0-10h28.33a5,5,0,0,1,0,10Z"/><path class="cls-12" d="M337.06,476.77H313.72a5,5,0,0,1,0-10h23.34a5,5,0,0,1,0,10Z"/><path class="cls-12" d="M378.39,476.77H350.06a5,5,0,1,1,0-10h28.33a5,5,0,0,1,0,10Z"/><path class="cls-12" d="M337.06,492.44H313.72a5,5,0,0,1,0-10h23.34a5,5,0,0,1,0,10Z"/><path class="cls-12" d="M378.39,492.44H350.06a5,5,0,0,1,0-10h28.33a5,5,0,0,1,0,10Z"/><path class="cls-12" d="M337.06,508.11H313.72a5,5,0,0,1,0-10h23.34a5,5,0,1,1,0,10Z"/><path class="cls-12" d="M378.39,508.11H350.06a5,5,0,0,1,0-10h28.33a5,5,0,0,1,0,10Z"/><path class="cls-12" d="M337.06,523.77H313.72a5,5,0,0,1,0-10h23.34a5,5,0,0,1,0,10Z"/><path class="cls-12" d="M378.39,523.77H350.06a5,5,0,1,1,0-10h28.33a5,5,0,0,1,0,10Z"/><path class="cls-12" d="M337.06,539.44H313.72a5,5,0,0,1,0-10h23.34a5,5,0,0,1,0,10Z"/><path class="cls-12" d="M378.39,539.44H350.06a5,5,0,1,1,0-10h28.33a5,5,0,0,1,0,10Z"/></g><g class="cls-11"><path class="cls-12" d="M73.39,566.44H50.06a5,5,0,1,1,0-10H73.39a5,5,0,0,1,0,10Z"/><path class="cls-12" d="M114.72,566.44H86.39a5,5,0,1,1,0-10h28.33a5,5,0,1,1,0,10Z"/><path class="cls-12" d="M167.06,566.44H128.72a5,5,0,0,1,0-10h38.34a5,5,0,0,1,0,10Z"/><path class="cls-12" d="M73.39,582.11H50.06a5,5,0,0,1,0-10H73.39a5,5,0,0,1,0,10Z"/><path class="cls-12" d="M114.72,582.11H86.39a5,5,0,1,1,0-10h28.33a5,5,0,1,1,0,10Z"/><path class="cls-12" d="M167.06,582.11H128.72a5,5,0,0,1,0-10h38.34a5,5,0,1,1,0,10Z"/><path class="cls-12" d="M73.39,597.77H50.06a5,5,0,1,1,0-10H73.39a5,5,0,0,1,0,10Z"/><path class="cls-12" d="M114.72,597.77H86.39a5,5,0,1,1,0-10h28.33a5,5,0,1,1,0,10Z"/><path class="cls-12" d="M167.06,597.77H128.72a5,5,0,0,1,0-10h38.34a5,5,0,0,1,0,10Z"/><path class="cls-12" d="M73.39,613.44H50.06a5,5,0,1,1,0-10H73.39a5,5,0,0,1,0,10Z"/><path class="cls-12" d="M114.72,613.44H86.39a5,5,0,1,1,0-10h28.33a5,5,0,1,1,0,10Z"/><path class="cls-12" d="M167.06,613.44H128.72a5,5,0,0,1,0-10h38.34a5,5,0,0,1,0,10Z"/><path class="cls-12" d="M73.39,629.11H50.06a5,5,0,0,1,0-10H73.39a5,5,0,0,1,0,10Z"/><path class="cls-12" d="M114.72,629.11H86.39a5,5,0,1,1,0-10h28.33a5,5,0,1,1,0,10Z"/><path class="cls-12" d="M167.06,629.11H128.72a5,5,0,0,1,0-10h38.34a5,5,0,1,1,0,10Z"/><path class="cls-12" d="M73.39,644.77H50.06a5,5,0,1,1,0-10H73.39a5,5,0,0,1,0,10Z"/><path class="cls-12" d="M114.72,644.77H86.39a5,5,0,1,1,0-10h28.33a5,5,0,1,1,0,10Z"/><path class="cls-12" d="M167.06,644.77H128.72a5,5,0,0,1,0-10h38.34a5,5,0,0,1,0,10Z"/><path class="cls-12" d="M73.39,660.44H50.06a5,5,0,1,1,0-10H73.39a5,5,0,0,1,0,10Z"/><path class="cls-12" d="M114.72,660.44H86.39a5,5,0,1,1,0-10h28.33a5,5,0,1,1,0,10Z"/><path class="cls-12" d="M167.06,660.44H128.72a5,5,0,0,1,0-10h38.34a5,5,0,0,1,0,10Z"/><path class="cls-12" d="M205.39,566.44H182.06a5,5,0,1,1,0-10h23.33a5,5,0,0,1,0,10Z"/><path class="cls-12" d="M246.72,566.44H218.39a5,5,0,0,1,0-10h28.33a5,5,0,1,1,0,10Z"/><path class="cls-12" d="M299.06,566.44H260.72a5,5,0,0,1,0-10h38.34a5,5,0,0,1,0,10Z"/><path class="cls-12" d="M205.39,582.11H182.06a5,5,0,0,1,0-10h23.33a5,5,0,0,1,0,10Z"/><path class="cls-12" d="M246.72,582.11H218.39a5,5,0,0,1,0-10h28.33a5,5,0,1,1,0,10Z"/><path class="cls-12" d="M299.06,582.11H260.72a5,5,0,0,1,0-10h38.34a5,5,0,1,1,0,10Z"/><path class="cls-12" d="M205.39,597.77H182.06a5,5,0,1,1,0-10h23.33a5,5,0,0,1,0,10Z"/><path class="cls-12" d="M246.72,597.77H218.39a5,5,0,0,1,0-10h28.33a5,5,0,1,1,0,10Z"/><path class="cls-12" d="M299.06,597.77H260.72a5,5,0,0,1,0-10h38.34a5,5,0,0,1,0,10Z"/><path class="cls-12" d="M205.39,613.44H182.06a5,5,0,1,1,0-10h23.33a5,5,0,0,1,0,10Z"/><path class="cls-12" d="M246.72,613.44H218.39a5,5,0,0,1,0-10h28.33a5,5,0,1,1,0,10Z"/><path class="cls-12" d="M299.06,613.44H260.72a5,5,0,0,1,0-10h38.34a5,5,0,0,1,0,10Z"/><path class="cls-12" d="M205.39,629.11H182.06a5,5,0,0,1,0-10h23.33a5,5,0,0,1,0,10Z"/><path class="cls-12" d="M246.72,629.11H218.39a5,5,0,0,1,0-10h28.33a5,5,0,1,1,0,10Z"/><path class="cls-12" d="M299.06,629.11H260.72a5,5,0,0,1,0-10h38.34a5,5,0,1,1,0,10Z"/><path class="cls-12" d="M205.39,644.77H182.06a5,5,0,1,1,0-10h23.33a5,5,0,0,1,0,10Z"/><path class="cls-12" d="M246.72,644.77H218.39a5,5,0,0,1,0-10h28.33a5,5,0,1,1,0,10Z"/><path class="cls-12" d="M299.06,644.77H260.72a5,5,0,0,1,0-10h38.34a5,5,0,0,1,0,10Z"/><path class="cls-12" d="M205.39,660.44H182.06a5,5,0,1,1,0-10h23.33a5,5,0,0,1,0,10Z"/><path class="cls-12" d="M337.06,566.44H313.72a5,5,0,0,1,0-10h23.34a5,5,0,0,1,0,10Z"/><path class="cls-12" d="M378.39,566.44H350.06a5,5,0,1,1,0-10h28.33a5,5,0,0,1,0,10Z"/><path class="cls-12" d="M337.06,582.11H313.72a5,5,0,0,1,0-10h23.34a5,5,0,1,1,0,10Z"/><path class="cls-12" d="M378.39,582.11H350.06a5,5,0,0,1,0-10h28.33a5,5,0,0,1,0,10Z"/><path class="cls-12" d="M337.06,597.77H313.72a5,5,0,0,1,0-10h23.34a5,5,0,0,1,0,10Z"/><path class="cls-12" d="M378.39,597.77H350.06a5,5,0,1,1,0-10h28.33a5,5,0,0,1,0,10Z"/><path class="cls-12" d="M337.06,613.44H313.72a5,5,0,0,1,0-10h23.34a5,5,0,0,1,0,10Z"/><path class="cls-12" d="M378.39,613.44H350.06a5,5,0,1,1,0-10h28.33a5,5,0,0,1,0,10Z"/><path class="cls-12" d="M337.06,629.11H313.72a5,5,0,0,1,0-10h23.34a5,5,0,1,1,0,10Z"/><path class="cls-12" d="M378.39,629.11H350.06a5,5,0,0,1,0-10h28.33a5,5,0,0,1,0,10Z"/><path class="cls-12" d="M337.06,644.77H313.72a5,5,0,0,1,0-10h23.34a5,5,0,0,1,0,10Z"/><path class="cls-12" d="M378.39,644.77H350.06a5,5,0,1,1,0-10h28.33a5,5,0,0,1,0,10Z"/></g><rect class="cls-7" x="601.94" y="61.22" width="360" height="60" rx="5" ry="5"/><rect class="cls-8" x="601.94" y="130.12" width="360" height="120" rx="5" ry="5"/><path class="cls-9" d="M611.94,66.22h350a5,5,0,0,0-5-5h-350a5,5,0,0,0-5,5v50a5,5,0,0,0,5,5v-50A5,5,0,0,1,611.94,66.22Z"/><path class="cls-9" d="M611.94,135.12h350a5,5,0,0,0-5-5h-350a5,5,0,0,0-5,5v110a5,5,0,0,0,5,5v-110A5,5,0,0,1,611.94,135.12Z"/><path class="cls-10" d="M603.5,27.47h4.25c4.54,0,7.54,2.37,7.54,7.75s-3,7.9-7.35,7.9H603.5Zm4.06,12.79c2.45,0,4.11-1.3,4.11-5s-1.66-4.9-4.11-4.9h-.5v9.94Z"/><path class="cls-10" d="M625.66,35.46c-.12-1.08-.94-1.73-2.55-1.73a8.21,8.21,0,0,0-3.62,1.1l-1.25-2.3a11.21,11.21,0,0,1,5.57-1.61c3.33,0,5.38,1.73,5.38,5.38v6.82H626.3L626,41.77H626a7.23,7.23,0,0,1-4.23,1.63,3.6,3.6,0,0,1-3.91-3.6C617.81,37.14,620,35.79,625.66,35.46Zm-2.81,5.21a4.61,4.61,0,0,0,2.81-1.13v-2c-3.51.19-4.47.94-4.47,2C621.19,40.31,621.84,40.67,622.85,40.67Z"/><path class="cls-10" d="M634.92,34h-3V31.35l3.17-.14.45-3.17h2.91v3.17h5V34h-5v4.18c0,1.8.77,2.49,2.49,2.49a7.11,7.11,0,0,0,2.38-.43l.63,2.54a13.18,13.18,0,0,1-3.89.65c-3.8,0-5.14-2.11-5.14-5.23Z"/><path class="cls-10" d="M654.46,35.46c-.12-1.08-.94-1.73-2.55-1.73a8.21,8.21,0,0,0-3.62,1.1L647,32.53a11.21,11.21,0,0,1,5.57-1.61c3.33,0,5.37,1.73,5.37,5.38v6.82H655.1l-.26-1.35h-.1a7.2,7.2,0,0,1-4.22,1.63,3.6,3.6,0,0,1-3.91-3.6C646.61,37.14,648.82,35.79,654.46,35.46Zm-2.81,5.21a4.61,4.61,0,0,0,2.81-1.13v-2c-3.51.19-4.47.94-4.47,2C650,40.31,650.64,40.67,651.65,40.67Z"/><path class="cls-10" d="M662.4,39.37a8,8,0,0,0,4.32,1.42c1.61,0,2.28-.39,2.28-1s-1.27-1.13-3.19-1.66c-2.09-.57-4.25-1.58-4.25-3.48,0-2.21,2.09-3.72,5.5-3.72a9.66,9.66,0,0,1,5.13,1.63l-1.58,2.12a6.78,6.78,0,0,0-3.48-1.13c-1.49,0-2.07.33-2.07.93s1.37,1.08,3.05,1.52c2.35.62,4.39,1.51,4.39,3.57s-2,3.84-5.85,3.84a11,11,0,0,1-5.83-1.82Z"/><path class="cls-10" d="M681.46,30.92c3.67,0,5.59,2.47,5.59,5.71a9.58,9.58,0,0,1-.15,1.56h-8c.24,1.78,1.7,2.52,3.45,2.52a6.62,6.62,0,0,0,3.08-.81L686.57,42a9.08,9.08,0,0,1-4.71,1.39c-3.69,0-6.6-2.3-6.6-6.24A6.1,6.1,0,0,1,681.46,30.92Zm2.4,4.95a2.07,2.07,0,0,0-2.33-2.26,2.62,2.62,0,0,0-2.69,2.26Z"/><path class="cls-10" d="M692.52,34h-3V31.35l3.17-.14.45-3.17h2.91v3.17h5V34h-5v4.18c0,1.8.77,2.49,2.49,2.49a7.11,7.11,0,0,0,2.38-.43l.62,2.54a13.05,13.05,0,0,1-3.88.65c-3.8,0-5.14-2.11-5.14-5.23Z"/><path class="cls-10" d="M620.73,75.18a6.66,6.66,0,0,1,4.63,2l-1.94,2.18a3.84,3.84,0,0,0-2.69-1.12c-2.21,0-3.84,1.89-3.84,5s1.63,5.08,4,5.08A3.72,3.72,0,0,0,623.66,87l1.94,2.14a6.32,6.32,0,0,1-4.94,2.3c-4,0-7.4-2.76-7.4-8S616.55,75.18,620.73,75.18Z"/><path class="cls-10" d="M633.54,78.92a6.24,6.24,0,1,1-6.07,6.24A6,6,0,0,1,633.54,78.92Zm0,9.63c1.64,0,2.45-1.32,2.45-3.39s-.81-3.38-2.45-3.38-2.44,1.32-2.44,3.38S631.91,88.55,633.54,88.55Z"/><path class="cls-10" d="M641.61,79.21h2.64l.26,1.49h.1a2.64,2.64,0,0,1,2.54-1.78c1.06,0,1.8.67,2.09,2a2.78,2.78,0,0,1,2.62-2c1.65,0,2.64,1.47,2.64,3.84v8.36h-3.32V83c0-.75-.19-1.11-.67-1.11s-.79.39-1.1,1.15v8.05H646.7V83c0-.75-.24-1.11-.7-1.11s-.74.39-1.08,1.15v8.05h-3.31Z"/><path class="cls-10" d="M656,79.21h2.64l.26,1.49h.1a2.64,2.64,0,0,1,2.54-1.78c1.06,0,1.8.67,2.09,2a2.78,2.78,0,0,1,2.62-2c1.65,0,2.64,1.47,2.64,3.84v8.36h-3.32V83c0-.75-.19-1.11-.67-1.11s-.79.39-1.1,1.15v8.05H661.1V83c0-.75-.24-1.11-.7-1.11s-.74.39-1.08,1.15v8.05H656Z"/><path class="cls-10" d="M671.44,79.21h8.3V91.12h-3.52V82h-4.78Zm4-3.89a2.36,2.36,0,0,1,4.71,0,2.37,2.37,0,0,1-4.71,0Z"/><path class="cls-10" d="M688.12,82h-3V79.35l3.17-.14.45-3.17h2.91v3.17h5V82h-5v4.18c0,1.8.77,2.49,2.49,2.49a7.11,7.11,0,0,0,2.38-.43l.62,2.54a13.05,13.05,0,0,1-3.88.65c-3.8,0-5.14-2.11-5.14-5.23Z"/><path class="cls-10" d="M616.5,144.46H620l1.59,5.55.52,2.16h.08l.53-2.16,1.51-5.55h3.53v15.66h-2.86V155c0-1.7.29-5.4.45-7.08h-.07l-1.22,4.3-1.2,3.72h-1.56l-1.2-3.72-1.18-4.3h-.09c.16,1.68.45,5.38.45,7.08v5.12H616.5Z"/><path class="cls-10" d="M636.86,147.92c3.67,0,5.59,2.47,5.59,5.71a9.58,9.58,0,0,1-.15,1.56h-8c.24,1.78,1.7,2.52,3.46,2.52a6.58,6.58,0,0,0,3.07-.81L642,159a9.08,9.08,0,0,1-4.71,1.39c-3.69,0-6.6-2.3-6.6-6.24A6.1,6.1,0,0,1,636.86,147.92Zm2.4,5a2.07,2.07,0,0,0-2.33-2.26,2.62,2.62,0,0,0-2.69,2.26Z"/><path class="cls-10" d="M647.92,151h-3v-2.62l3.17-.14.45-3.17h2.91v3.17h5V151h-5v4.18c0,1.8.77,2.49,2.49,2.49a7.11,7.11,0,0,0,2.38-.43l.63,2.54a13.18,13.18,0,0,1-3.89.65c-3.8,0-5.14-2.11-5.14-5.23Z"/><path class="cls-10" d="M667.46,152.46c-.12-1.08-.94-1.73-2.55-1.73a8.21,8.21,0,0,0-3.62,1.1l-1.25-2.3a11.21,11.21,0,0,1,5.57-1.61c3.33,0,5.37,1.73,5.37,5.38v6.82H668.1l-.26-1.35h-.1a7.2,7.2,0,0,1-4.22,1.63,3.6,3.6,0,0,1-3.91-3.6C659.61,154.14,661.82,152.79,667.46,152.46Zm-2.81,5.21a4.61,4.61,0,0,0,2.81-1.13v-2c-3.51.19-4.47.94-4.47,2C663,157.31,663.64,157.67,664.65,157.67Z"/><rect class="cls-6" x="601.94" y="260.12" width="360" height="120" rx="5" ry="5"/><path class="cls-9" d="M611.94,265.12h350a5,5,0,0,0-5-5h-350a5,5,0,0,0-5,5v110a5,5,0,0,0,5,5v-110A5,5,0,0,1,611.94,265.12Z"/><path class="cls-10" d="M618.18,285.72a6.67,6.67,0,0,0,4,1.63c1.64,0,2.35-.57,2.35-1.51s-.91-1.29-2.42-1.87l-2-.86a4.56,4.56,0,0,1-3.33-4.28c0-2.59,2.35-4.65,5.73-4.65a7.6,7.6,0,0,1,5.21,2.06l-1.8,2.23a5.41,5.41,0,0,0-3.41-1.24c-1.36,0-2.16.52-2.16,1.41s1.06,1.3,2.57,1.85l1.9.82c2.06.76,3.36,2,3.36,4.24,0,2.6-2.18,4.85-6.07,4.85a9.07,9.07,0,0,1-6-2.25Z"/><path class="cls-10" d="M633.52,281h-3v-2.62l3.17-.14.45-3.17h2.91v3.17h5V281h-5v4.18c0,1.8.77,2.49,2.49,2.49a7.11,7.11,0,0,0,2.38-.43l.62,2.54a13.05,13.05,0,0,1-3.88.65c-3.8,0-5.14-2.11-5.14-5.23Z"/><path class="cls-10" d="M646.53,278.21h2.88l.29,2.59h.07a5.54,5.54,0,0,1,4.82-2.88,5,5,0,0,1,2.31.48l-.72,3a6.73,6.73,0,0,0-2.12-.33,4.39,4.39,0,0,0-4,2.9v6.2h-3.53Z"/><path class="cls-10" d="M670.74,290.12h-2.88l-.26-1.71h-.1a5.13,5.13,0,0,1-4,2c-2.72,0-3.87-1.85-3.87-4.85v-7.34h3.53v6.89c0,1.58.41,2.3,1.73,2.3a2.7,2.7,0,0,0,2.33-1.37v-7.82h3.52Z"/><path class="cls-10" d="M681,277.92a6.54,6.54,0,0,1,4.46,1.61l-1.63,2.18a4.47,4.47,0,0,0-2.64-.93,3.23,3.23,0,0,0-3.45,3.38,3.17,3.17,0,0,0,3.33,3.39,5.43,5.43,0,0,0,3.15-1.13l1.44,2.23a7.83,7.83,0,0,1-4.92,1.75c-3.75,0-6.63-2.28-6.63-6.24S677.37,277.92,681,277.92Z"/><path class="cls-10" d="M691.12,281h-3v-2.62l3.17-.14.45-3.17h2.91v3.17h5V281h-5v4.18c0,1.8.77,2.49,2.49,2.49a7.11,7.11,0,0,0,2.38-.43l.62,2.54a13.05,13.05,0,0,1-3.88.65c-3.8,0-5.14-2.11-5.14-5.23Z"/><path class="cls-10" d="M713.94,290.12h-2.88l-.26-1.71h-.1a5.13,5.13,0,0,1-4,2c-2.72,0-3.87-1.85-3.87-4.85v-7.34h3.53v6.89c0,1.58.41,2.3,1.73,2.3a2.7,2.7,0,0,0,2.33-1.37v-7.82h3.52Z"/><path class="cls-10" d="M718.53,278.21h2.88l.29,2.59h.07a5.54,5.54,0,0,1,4.82-2.88,5,5,0,0,1,2.31.48l-.72,3a6.73,6.73,0,0,0-2.12-.33,4.41,4.41,0,0,0-4,2.9v6.2h-3.52Z"/><path class="cls-10" d="M737.66,277.92c3.67,0,5.59,2.47,5.59,5.71a9.58,9.58,0,0,1-.15,1.56h-8c.24,1.78,1.7,2.52,3.45,2.52a6.62,6.62,0,0,0,3.08-.81l1.15,2.11a9.08,9.08,0,0,1-4.71,1.39c-3.69,0-6.6-2.3-6.6-6.24A6.1,6.1,0,0,1,737.66,277.92Zm2.4,4.95a2.07,2.07,0,0,0-2.33-2.26,2.62,2.62,0,0,0-2.69,2.26Z"/><rect class="cls-4" x="608" y="678" width="348" height="121.21" rx="6.9" ry="6.9"/><rect class="cls-5" x="601.94" y="390.37" width="360" height="416.63" rx="5" ry="5"/><path class="cls-9" d="M611.94,395.37h350a5,5,0,0,0-5-5h-350a5,5,0,0,0-5,5V802a5,5,0,0,0,5,5V400.37A5,5,0,0,1,611.94,395.37Z"/><path class="cls-10" d="M616.5,404.47h4.25c4.54,0,7.54,2.37,7.54,7.75s-3,7.9-7.35,7.9H616.5Zm4.06,12.79c2.45,0,4.11-1.3,4.11-5s-1.66-4.9-4.11-4.9h-.5v9.94Z"/><path class="cls-10" d="M638.66,412.46c-.12-1.08-.94-1.73-2.55-1.73a8.21,8.21,0,0,0-3.62,1.1l-1.25-2.3a11.21,11.21,0,0,1,5.57-1.61c3.33,0,5.38,1.73,5.38,5.38v6.82H639.3l-.26-1.35H639a7.23,7.23,0,0,1-4.23,1.63,3.6,3.6,0,0,1-3.91-3.6C630.81,414.14,633,412.79,638.66,412.46Zm-2.81,5.21a4.61,4.61,0,0,0,2.81-1.13v-2c-3.51.19-4.47.94-4.47,2C634.19,417.31,634.84,417.67,635.85,417.67Z"/><path class="cls-10" d="M647.92,411h-3v-2.62l3.17-.14.45-3.17h2.91v3.17h5V411h-5v4.18c0,1.8.77,2.49,2.49,2.49a7.11,7.11,0,0,0,2.38-.43l.63,2.55a13.54,13.54,0,0,1-3.89.64c-3.8,0-5.14-2.11-5.14-5.23Z"/><path class="cls-10" d="M667.46,412.46c-.12-1.08-.94-1.73-2.55-1.73a8.21,8.21,0,0,0-3.62,1.1l-1.25-2.3a11.21,11.21,0,0,1,5.57-1.61c3.33,0,5.37,1.73,5.37,5.38v6.82H668.1l-.26-1.35h-.1a7.2,7.2,0,0,1-4.22,1.63,3.6,3.6,0,0,1-3.91-3.6C659.61,414.14,661.82,412.79,667.46,412.46Zm-2.81,5.21a4.61,4.61,0,0,0,2.81-1.13v-2c-3.51.19-4.47.94-4.47,2C663,417.31,663.64,417.67,664.65,417.67Z"/><g class="cls-11"><path class="cls-12" d="M642,445.44H618.67a5,5,0,0,1,0-10H642a5,5,0,0,1,0,10Z"/><path class="cls-12" d="M683.33,445.44H655a5,5,0,0,1,0-10h28.33a5,5,0,0,1,0,10Z"/><path class="cls-12" d="M735.67,445.44H697.33a5,5,0,0,1,0-10h38.34a5,5,0,0,1,0,10Z"/><path class="cls-12" d="M642,461.11H618.67a5,5,0,0,1,0-10H642a5,5,0,0,1,0,10Z"/><path class="cls-12" d="M683.33,461.11H655a5,5,0,0,1,0-10h28.33a5,5,0,0,1,0,10Z"/><path class="cls-12" d="M735.67,461.11H697.33a5,5,0,0,1,0-10h38.34a5,5,0,0,1,0,10Z"/><path class="cls-12" d="M642,476.77H618.67a5,5,0,0,1,0-10H642a5,5,0,0,1,0,10Z"/><path class="cls-12" d="M683.33,476.77H655a5,5,0,0,1,0-10h28.33a5,5,0,0,1,0,10Z"/><path class="cls-12" d="M735.67,476.77H697.33a5,5,0,1,1,0-10h38.34a5,5,0,1,1,0,10Z"/><path class="cls-12" d="M642,492.44H618.67a5,5,0,0,1,0-10H642a5,5,0,0,1,0,10Z"/><path class="cls-12" d="M683.33,492.44H655a5,5,0,0,1,0-10h28.33a5,5,0,0,1,0,10Z"/><path class="cls-12" d="M735.67,492.44H697.33a5,5,0,0,1,0-10h38.34a5,5,0,0,1,0,10Z"/><path class="cls-12" d="M642,508.11H618.67a5,5,0,0,1,0-10H642a5,5,0,0,1,0,10Z"/><path class="cls-12" d="M683.33,508.11H655a5,5,0,0,1,0-10h28.33a5,5,0,0,1,0,10Z"/><path class="cls-12" d="M735.67,508.11H697.33a5,5,0,0,1,0-10h38.34a5,5,0,0,1,0,10Z"/><path class="cls-12" d="M642,523.77H618.67a5,5,0,0,1,0-10H642a5,5,0,0,1,0,10Z"/><path class="cls-12" d="M683.33,523.77H655a5,5,0,0,1,0-10h28.33a5,5,0,0,1,0,10Z"/><path class="cls-12" d="M735.67,523.77H697.33a5,5,0,1,1,0-10h38.34a5,5,0,1,1,0,10Z"/><path class="cls-12" d="M642,539.44H618.67a5,5,0,0,1,0-10H642a5,5,0,0,1,0,10Z"/><path class="cls-12" d="M683.33,539.44H655a5,5,0,0,1,0-10h28.33a5,5,0,0,1,0,10Z"/><path class="cls-12" d="M735.67,539.44H697.33a5,5,0,1,1,0-10h38.34a5,5,0,1,1,0,10Z"/><path class="cls-12" d="M774,445.44H750.67a5,5,0,0,1,0-10H774a5,5,0,0,1,0,10Z"/><path class="cls-12" d="M815.33,445.44H787a5,5,0,0,1,0-10h28.33a5,5,0,0,1,0,10Z"/><path class="cls-12" d="M867.67,445.44H829.33a5,5,0,0,1,0-10h38.34a5,5,0,0,1,0,10Z"/><path class="cls-12" d="M774,461.11H750.67a5,5,0,0,1,0-10H774a5,5,0,0,1,0,10Z"/><path class="cls-12" d="M815.33,461.11H787a5,5,0,0,1,0-10h28.33a5,5,0,0,1,0,10Z"/><path class="cls-12" d="M867.67,461.11H829.33a5,5,0,0,1,0-10h38.34a5,5,0,0,1,0,10Z"/><path class="cls-12" d="M774,476.77H750.67a5,5,0,0,1,0-10H774a5,5,0,0,1,0,10Z"/><path class="cls-12" d="M815.33,476.77H787a5,5,0,0,1,0-10h28.33a5,5,0,0,1,0,10Z"/><path class="cls-12" d="M867.67,476.77H829.33a5,5,0,1,1,0-10h38.34a5,5,0,1,1,0,10Z"/><path class="cls-12" d="M774,492.44H750.67a5,5,0,0,1,0-10H774a5,5,0,0,1,0,10Z"/><path class="cls-12" d="M815.33,492.44H787a5,5,0,0,1,0-10h28.33a5,5,0,0,1,0,10Z"/><path class="cls-12" d="M867.67,492.44H829.33a5,5,0,0,1,0-10h38.34a5,5,0,0,1,0,10Z"/><path class="cls-12" d="M774,508.11H750.67a5,5,0,0,1,0-10H774a5,5,0,0,1,0,10Z"/><path class="cls-12" d="M815.33,508.11H787a5,5,0,0,1,0-10h28.33a5,5,0,0,1,0,10Z"/><path class="cls-12" d="M867.67,508.11H829.33a5,5,0,0,1,0-10h38.34a5,5,0,0,1,0,10Z"/><path class="cls-12" d="M774,523.77H750.67a5,5,0,0,1,0-10H774a5,5,0,0,1,0,10Z"/><path class="cls-12" d="M815.33,523.77H787a5,5,0,0,1,0-10h28.33a5,5,0,0,1,0,10Z"/><path class="cls-12" d="M867.67,523.77H829.33a5,5,0,1,1,0-10h38.34a5,5,0,1,1,0,10Z"/><path class="cls-12" d="M774,539.44H750.67a5,5,0,0,1,0-10H774a5,5,0,0,1,0,10Z"/><path class="cls-12" d="M815.33,539.44H787a5,5,0,0,1,0-10h28.33a5,5,0,0,1,0,10Z"/><path class="cls-12" d="M867.67,539.44H829.33a5,5,0,1,1,0-10h38.34a5,5,0,1,1,0,10Z"/><path class="cls-12" d="M905.67,445.44H882.33a5,5,0,0,1,0-10h23.34a5,5,0,0,1,0,10Z"/><path class="cls-12" d="M947,445.44H918.67a5,5,0,0,1,0-10H947a5,5,0,0,1,0,10Z"/><path class="cls-12" d="M905.67,461.11H882.33a5,5,0,0,1,0-10h23.34a5,5,0,0,1,0,10Z"/><path class="cls-12" d="M947,461.11H918.67a5,5,0,0,1,0-10H947a5,5,0,0,1,0,10Z"/><path class="cls-12" d="M905.67,476.77H882.33a5,5,0,1,1,0-10h23.34a5,5,0,1,1,0,10Z"/><path class="cls-12" d="M947,476.77H918.67a5,5,0,0,1,0-10H947a5,5,0,0,1,0,10Z"/><path class="cls-12" d="M905.67,492.44H882.33a5,5,0,0,1,0-10h23.34a5,5,0,0,1,0,10Z"/><path class="cls-12" d="M947,492.44H918.67a5,5,0,0,1,0-10H947a5,5,0,0,1,0,10Z"/><path class="cls-12" d="M905.67,508.11H882.33a5,5,0,0,1,0-10h23.34a5,5,0,0,1,0,10Z"/><path class="cls-12" d="M947,508.11H918.67a5,5,0,0,1,0-10H947a5,5,0,0,1,0,10Z"/><path class="cls-12" d="M905.67,523.77H882.33a5,5,0,1,1,0-10h23.34a5,5,0,1,1,0,10Z"/><path class="cls-12" d="M947,523.77H918.67a5,5,0,0,1,0-10H947a5,5,0,0,1,0,10Z"/><path class="cls-12" d="M905.67,539.44H882.33a5,5,0,1,1,0-10h23.34a5,5,0,1,1,0,10Z"/><path class="cls-12" d="M947,539.44H918.67a5,5,0,0,1,0-10H947a5,5,0,0,1,0,10Z"/></g><g class="cls-11"><path class="cls-12" d="M642,695.44H618.67a5,5,0,0,1,0-10H642a5,5,0,0,1,0,10Z"/><path class="cls-12" d="M683.33,695.44H655a5,5,0,0,1,0-10h28.33a5,5,0,0,1,0,10Z"/><path class="cls-12" d="M735.67,695.44H697.33a5,5,0,1,1,0-10h38.34a5,5,0,1,1,0,10Z"/><path class="cls-12" d="M642,711.11H618.67a5,5,0,0,1,0-10H642a5,5,0,0,1,0,10Z"/><path class="cls-12" d="M683.33,711.11H655a5,5,0,0,1,0-10h28.33a5,5,0,0,1,0,10Z"/><path class="cls-12" d="M735.67,711.11H697.33a5,5,0,0,1,0-10h38.34a5,5,0,0,1,0,10Z"/><path class="cls-12" d="M642,726.77H618.67a5,5,0,0,1,0-10H642a5,5,0,0,1,0,10Z"/><path class="cls-12" d="M683.33,726.77H655a5,5,0,0,1,0-10h28.33a5,5,0,0,1,0,10Z"/><path class="cls-12" d="M735.67,726.77H697.33a5,5,0,1,1,0-10h38.34a5,5,0,1,1,0,10Z"/><path class="cls-12" d="M642,742.44H618.67a5,5,0,0,1,0-10H642a5,5,0,0,1,0,10Z"/><path class="cls-12" d="M683.33,742.44H655a5,5,0,0,1,0-10h28.33a5,5,0,0,1,0,10Z"/><path class="cls-12" d="M735.67,742.44H697.33a5,5,0,1,1,0-10h38.34a5,5,0,1,1,0,10Z"/><path class="cls-12" d="M642,758.11H618.67a5,5,0,0,1,0-10H642a5,5,0,0,1,0,10Z"/><path class="cls-12" d="M683.33,758.11H655a5,5,0,0,1,0-10h28.33a5,5,0,0,1,0,10Z"/><path class="cls-12" d="M735.67,758.11H697.33a5,5,0,0,1,0-10h38.34a5,5,0,0,1,0,10Z"/><path class="cls-12" d="M642,773.77H618.67a5,5,0,0,1,0-10H642a5,5,0,0,1,0,10Z"/><path class="cls-12" d="M683.33,773.77H655a5,5,0,0,1,0-10h28.33a5,5,0,0,1,0,10Z"/><path class="cls-12" d="M735.67,773.77H697.33a5,5,0,1,1,0-10h38.34a5,5,0,1,1,0,10Z"/><path class="cls-12" d="M642,789.44H618.67a5,5,0,0,1,0-10H642a5,5,0,0,1,0,10Z"/><path class="cls-12" d="M683.33,789.44H655a5,5,0,0,1,0-10h28.33a5,5,0,0,1,0,10Z"/><path class="cls-12" d="M735.67,789.44H697.33a5,5,0,1,1,0-10h38.34a5,5,0,1,1,0,10Z"/><path class="cls-12" d="M774,695.44H750.67a5,5,0,0,1,0-10H774a5,5,0,0,1,0,10Z"/><path class="cls-12" d="M815.33,695.44H787a5,5,0,0,1,0-10h28.33a5,5,0,0,1,0,10Z"/><path class="cls-12" d="M867.67,695.44H829.33a5,5,0,1,1,0-10h38.34a5,5,0,1,1,0,10Z"/><path class="cls-12" d="M774,711.11H750.67a5,5,0,0,1,0-10H774a5,5,0,0,1,0,10Z"/><path class="cls-12" d="M815.33,711.11H787a5,5,0,0,1,0-10h28.33a5,5,0,0,1,0,10Z"/><path class="cls-12" d="M867.67,711.11H829.33a5,5,0,0,1,0-10h38.34a5,5,0,0,1,0,10Z"/><path class="cls-12" d="M774,726.77H750.67a5,5,0,0,1,0-10H774a5,5,0,0,1,0,10Z"/><path class="cls-12" d="M815.33,726.77H787a5,5,0,0,1,0-10h28.33a5,5,0,0,1,0,10Z"/><path class="cls-12" d="M867.67,726.77H829.33a5,5,0,1,1,0-10h38.34a5,5,0,1,1,0,10Z"/><path class="cls-12" d="M774,742.44H750.67a5,5,0,0,1,0-10H774a5,5,0,0,1,0,10Z"/><path class="cls-12" d="M815.33,742.44H787a5,5,0,0,1,0-10h28.33a5,5,0,0,1,0,10Z"/><path class="cls-12" d="M867.67,742.44H829.33a5,5,0,1,1,0-10h38.34a5,5,0,1,1,0,10Z"/><path class="cls-12" d="M774,758.11H750.67a5,5,0,0,1,0-10H774a5,5,0,0,1,0,10Z"/><path class="cls-12" d="M815.33,758.11H787a5,5,0,0,1,0-10h28.33a5,5,0,0,1,0,10Z"/><path class="cls-12" d="M867.67,758.11H829.33a5,5,0,0,1,0-10h38.34a5,5,0,0,1,0,10Z"/><path class="cls-12" d="M774,773.77H750.67a5,5,0,0,1,0-10H774a5,5,0,0,1,0,10Z"/><path class="cls-12" d="M815.33,773.77H787a5,5,0,0,1,0-10h28.33a5,5,0,0,1,0,10Z"/><path class="cls-12" d="M867.67,773.77H829.33a5,5,0,1,1,0-10h38.34a5,5,0,1,1,0,10Z"/><path class="cls-12" d="M774,789.44H750.67a5,5,0,0,1,0-10H774a5,5,0,0,1,0,10Z"/><path class="cls-12" d="M815.33,789.44H787a5,5,0,0,1,0-10h28.33a5,5,0,0,1,0,10Z"/><path class="cls-12" d="M867.67,789.44H829.33a5,5,0,1,1,0-10h38.34a5,5,0,1,1,0,10Z"/><path class="cls-12" d="M905.67,695.44H882.33a5,5,0,1,1,0-10h23.34a5,5,0,1,1,0,10Z"/><path class="cls-12" d="M947,695.44H918.67a5,5,0,0,1,0-10H947a5,5,0,0,1,0,10Z"/><path class="cls-12" d="M905.67,711.11H882.33a5,5,0,0,1,0-10h23.34a5,5,0,0,1,0,10Z"/><path class="cls-12" d="M947,711.11H918.67a5,5,0,0,1,0-10H947a5,5,0,0,1,0,10Z"/><path class="cls-12" d="M905.67,726.77H882.33a5,5,0,1,1,0-10h23.34a5,5,0,1,1,0,10Z"/><path class="cls-12" d="M947,726.77H918.67a5,5,0,0,1,0-10H947a5,5,0,0,1,0,10Z"/><path class="cls-12" d="M905.67,742.44H882.33a5,5,0,1,1,0-10h23.34a5,5,0,1,1,0,10Z"/><path class="cls-12" d="M947,742.44H918.67a5,5,0,0,1,0-10H947a5,5,0,0,1,0,10Z"/><path class="cls-12" d="M905.67,758.11H882.33a5,5,0,0,1,0-10h23.34a5,5,0,0,1,0,10Z"/><path class="cls-12" d="M947,758.11H918.67a5,5,0,0,1,0-10H947a5,5,0,0,1,0,10Z"/><path class="cls-12" d="M905.67,773.77H882.33a5,5,0,1,1,0-10h23.34a5,5,0,1,1,0,10Z"/><path class="cls-12" d="M947,773.77H918.67a5,5,0,0,1,0-10H947a5,5,0,0,1,0,10Z"/><path class="cls-12" d="M905.67,789.44H882.33a5,5,0,1,1,0-10h23.34a5,5,0,1,1,0,10Z"/><path class="cls-12" d="M947,789.44H918.67a5,5,0,0,1,0-10H947a5,5,0,0,1,0,10Z"/></g><g class="cls-11"><path class="cls-12" d="M642,566.44H618.67a5,5,0,0,1,0-10H642a5,5,0,0,1,0,10Z"/><path class="cls-12" d="M683.33,566.44H655a5,5,0,0,1,0-10h28.33a5,5,0,0,1,0,10Z"/><path class="cls-12" d="M735.67,566.44H697.33a5,5,0,1,1,0-10h38.34a5,5,0,1,1,0,10Z"/><path class="cls-12" d="M642,582.11H618.67a5,5,0,0,1,0-10H642a5,5,0,0,1,0,10Z"/><path class="cls-12" d="M683.33,582.11H655a5,5,0,0,1,0-10h28.33a5,5,0,0,1,0,10Z"/><path class="cls-12" d="M735.67,582.11H697.33a5,5,0,0,1,0-10h38.34a5,5,0,0,1,0,10Z"/><path class="cls-12" d="M642,597.77H618.67a5,5,0,0,1,0-10H642a5,5,0,0,1,0,10Z"/><path class="cls-12" d="M683.33,597.77H655a5,5,0,0,1,0-10h28.33a5,5,0,0,1,0,10Z"/><path class="cls-12" d="M735.67,597.77H697.33a5,5,0,1,1,0-10h38.34a5,5,0,1,1,0,10Z"/><path class="cls-12" d="M642,613.44H618.67a5,5,0,0,1,0-10H642a5,5,0,0,1,0,10Z"/><path class="cls-12" d="M683.33,613.44H655a5,5,0,0,1,0-10h28.33a5,5,0,0,1,0,10Z"/><path class="cls-12" d="M735.67,613.44H697.33a5,5,0,1,1,0-10h38.34a5,5,0,1,1,0,10Z"/><path class="cls-12" d="M642,629.11H618.67a5,5,0,0,1,0-10H642a5,5,0,0,1,0,10Z"/><path class="cls-12" d="M683.33,629.11H655a5,5,0,0,1,0-10h28.33a5,5,0,0,1,0,10Z"/><path class="cls-12" d="M735.67,629.11H697.33a5,5,0,0,1,0-10h38.34a5,5,0,0,1,0,10Z"/><path class="cls-12" d="M642,644.77H618.67a5,5,0,0,1,0-10H642a5,5,0,0,1,0,10Z"/><path class="cls-12" d="M683.33,644.77H655a5,5,0,0,1,0-10h28.33a5,5,0,0,1,0,10Z"/><path class="cls-12" d="M735.67,644.77H697.33a5,5,0,1,1,0-10h38.34a5,5,0,1,1,0,10Z"/><path class="cls-12" d="M642,660.44H618.67a5,5,0,0,1,0-10H642a5,5,0,0,1,0,10Z"/><path class="cls-12" d="M683.33,660.44H655a5,5,0,0,1,0-10h28.33a5,5,0,0,1,0,10Z"/><path class="cls-12" d="M735.67,660.44H697.33a5,5,0,1,1,0-10h38.34a5,5,0,1,1,0,10Z"/><path class="cls-12" d="M774,566.44H750.67a5,5,0,0,1,0-10H774a5,5,0,0,1,0,10Z"/><path class="cls-12" d="M815.33,566.44H787a5,5,0,0,1,0-10h28.33a5,5,0,0,1,0,10Z"/><path class="cls-12" d="M867.67,566.44H829.33a5,5,0,1,1,0-10h38.34a5,5,0,1,1,0,10Z"/><path class="cls-12" d="M774,582.11H750.67a5,5,0,0,1,0-10H774a5,5,0,0,1,0,10Z"/><path class="cls-12" d="M815.33,582.11H787a5,5,0,0,1,0-10h28.33a5,5,0,0,1,0,10Z"/><path class="cls-12" d="M867.67,582.11H829.33a5,5,0,0,1,0-10h38.34a5,5,0,0,1,0,10Z"/><path class="cls-12" d="M774,597.77H750.67a5,5,0,0,1,0-10H774a5,5,0,0,1,0,10Z"/><path class="cls-12" d="M815.33,597.77H787a5,5,0,0,1,0-10h28.33a5,5,0,0,1,0,10Z"/><path class="cls-12" d="M867.67,597.77H829.33a5,5,0,1,1,0-10h38.34a5,5,0,1,1,0,10Z"/><path class="cls-12" d="M774,613.44H750.67a5,5,0,0,1,0-10H774a5,5,0,0,1,0,10Z"/><path class="cls-12" d="M815.33,613.44H787a5,5,0,0,1,0-10h28.33a5,5,0,0,1,0,10Z"/><path class="cls-12" d="M867.67,613.44H829.33a5,5,0,1,1,0-10h38.34a5,5,0,1,1,0,10Z"/><path class="cls-12" d="M774,629.11H750.67a5,5,0,0,1,0-10H774a5,5,0,0,1,0,10Z"/><path class="cls-12" d="M815.33,629.11H787a5,5,0,0,1,0-10h28.33a5,5,0,0,1,0,10Z"/><path class="cls-12" d="M867.67,629.11H829.33a5,5,0,0,1,0-10h38.34a5,5,0,0,1,0,10Z"/><path class="cls-12" d="M774,644.77H750.67a5,5,0,0,1,0-10H774a5,5,0,0,1,0,10Z"/><path class="cls-12" d="M815.33,644.77H787a5,5,0,0,1,0-10h28.33a5,5,0,0,1,0,10Z"/><path class="cls-12" d="M867.67,644.77H829.33a5,5,0,1,1,0-10h38.34a5,5,0,1,1,0,10Z"/><path class="cls-12" d="M774,660.44H750.67a5,5,0,0,1,0-10H774a5,5,0,0,1,0,10Z"/><path class="cls-12" d="M905.67,566.44H882.33a5,5,0,1,1,0-10h23.34a5,5,0,1,1,0,10Z"/><path class="cls-12" d="M947,566.44H918.67a5,5,0,0,1,0-10H947a5,5,0,0,1,0,10Z"/><path class="cls-12" d="M905.67,582.11H882.33a5,5,0,0,1,0-10h23.34a5,5,0,0,1,0,10Z"/><path class="cls-12" d="M947,582.11H918.67a5,5,0,0,1,0-10H947a5,5,0,0,1,0,10Z"/><path class="cls-12" d="M905.67,597.77H882.33a5,5,0,1,1,0-10h23.34a5,5,0,1,1,0,10Z"/><path class="cls-12" d="M947,597.77H918.67a5,5,0,0,1,0-10H947a5,5,0,0,1,0,10Z"/><path class="cls-12" d="M905.67,613.44H882.33a5,5,0,1,1,0-10h23.34a5,5,0,1,1,0,10Z"/><path class="cls-12" d="M947,613.44H918.67a5,5,0,0,1,0-10H947a5,5,0,0,1,0,10Z"/><path class="cls-12" d="M905.67,629.11H882.33a5,5,0,0,1,0-10h23.34a5,5,0,0,1,0,10Z"/><path class="cls-12" d="M947,629.11H918.67a5,5,0,0,1,0-10H947a5,5,0,0,1,0,10Z"/><path class="cls-12" d="M905.67,644.77H882.33a5,5,0,1,1,0-10h23.34a5,5,0,1,1,0,10Z"/><path class="cls-12" d="M947,644.77H918.67a5,5,0,0,1,0-10H947a5,5,0,0,1,0,10Z"/></g><path class="cls-13" d="M403,280.33H611"/><polygon class="cls-14" points="411.92 271.5 411.92 288.5 395.92 280.5 411.92 271.5"/><path class="cls-15" d="M403,152.33H611"/><polygon class="cls-16" points="411.92 143.5 411.92 160.5 395.92 152.5 411.92 143.5"/><path class="cls-17" d="M416,35.33H586.83"/><polygon class="cls-18" points="424.92 26.5 424.92 43.5 408.92 35.5 424.92 26.5"/><path class="cls-19" d="M403,441H611"/><polygon class="cls-20" points="411.92 432.17 411.92 449.17 395.92 441.17 411.92 432.17"/><path class="cls-19" d="M403,559H611"/><polygon class="cls-20" points="411.92 550.17 411.92 567.17 395.92 559.17 411.92 550.17"/><path class="cls-2" d="M450.11,11.35h5.71c3.39,0,6.12,1.25,6.12,5s-2.81,5.31-6.12,5.31h-2.18V27h-3.53Zm5.5,7.54c1.94,0,2.85-.87,2.85-2.5s-1-2.23-2.85-2.23h-2v4.73Z"/><path class="cls-2" d="M465.52,15.09h2.88l.29,2.6h.07a5.51,5.51,0,0,1,4.82-2.88,4.83,4.83,0,0,1,2.31.48l-.72,2.95a6.46,6.46,0,0,0-2.12-.34,4.39,4.39,0,0,0-4,2.91V27h-3.53Z"/><path class="cls-2" d="M484.65,14.81c3.67,0,5.59,2.47,5.59,5.71a9.84,9.84,0,0,1-.15,1.56h-8c.24,1.78,1.7,2.52,3.46,2.52a6.6,6.6,0,0,0,3.07-.82l1.15,2.12a9.14,9.14,0,0,1-4.71,1.39c-3.69,0-6.6-2.31-6.6-6.24A6.1,6.1,0,0,1,484.65,14.81Zm2.4,4.94a2.07,2.07,0,0,0-2.33-2.25A2.61,2.61,0,0,0,482,19.75Z"/><path class="cls-2" d="M492.28,15.09h3.55l1.87,5.62c.39,1.2.72,2.43,1.08,3.67h.1c.36-1.24.67-2.47,1.05-3.67l1.88-5.62h3.38L500.82,27h-4.05Z"/><path class="cls-2" d="M507.83,15.09h8.3V27h-3.52V17.86h-4.78Zm4-3.88a2.36,2.36,0,0,1,4.71,0,2.37,2.37,0,0,1-4.71,0Z"/><path class="cls-2" d="M527.53,14.81a6,6,0,0,1,6.08,6.24,6.08,6.08,0,1,1-12.15,0A6,6,0,0,1,527.53,14.81Zm0,9.62c1.64,0,2.45-1.32,2.45-3.38s-.81-3.39-2.45-3.39-2.44,1.32-2.44,3.39S525.9,24.43,527.53,24.43Z"/><path class="cls-2" d="M547.33,27h-2.88l-.26-1.7h-.1a5.14,5.14,0,0,1-4,2c-2.71,0-3.86-1.85-3.86-4.85V15.09h3.53V22c0,1.59.41,2.31,1.73,2.31a2.7,2.7,0,0,0,2.33-1.37V15.09h3.52Z"/><path class="cls-2" d="M552,23.26a7.94,7.94,0,0,0,4.32,1.41c1.61,0,2.28-.38,2.28-1s-1.27-1.12-3.19-1.65c-2.09-.58-4.25-1.59-4.25-3.48,0-2.21,2.09-3.72,5.5-3.72a9.66,9.66,0,0,1,5.13,1.63l-1.58,2.11a6.81,6.81,0,0,0-3.48-1.13c-1.49,0-2.07.34-2.07.94s1.37,1.08,3.05,1.51c2.35.63,4.39,1.51,4.39,3.58s-2,3.84-5.85,3.84a11.07,11.07,0,0,1-5.84-1.83Z"/></g></g></svg>