<svg xmlns="http://www.w3.org/2000/svg" viewBox="0 0 400 900"><defs><style>.cls-1{isolation:isolate;}.cls-2{fill:#253238;}.cls-3{fill:#b1d349;}.cls-4{fill:#50c9f5;}.cls-5{fill:#abcad6;}.cls-6{fill:#f9ad32;}.cls-7{fill:#231f20;opacity:0.2;mix-blend-mode:multiply;}.cls-8{fill:#fff;}.cls-9{fill:#338193;}.cls-10{fill:#ee325a;}</style></defs><title>dataset_cm_md_vc_tf_st_data</title><g class="cls-1"><g id="Layer_1" data-name="Layer 1"><rect class="cls-2" x="5" y="5.31" width="390" height="890" rx="5" ry="5"/><rect class="cls-3" x="20" y="590.67" width="360" height="295" rx="5" ry="5"/><rect class="cls-4" x="19.83" y="462.57" width="360" height="120" rx="5" ry="5"/><rect class="cls-5" x="20" y="56" width="360" height="60" rx="5" ry="5"/><rect class="cls-6" x="20" y="125" width="360" height="120" rx="5" ry="5"/><path class="cls-7" d="M30,595.92H380a5,5,0,0,0-5-5H25a5,5,0,0,0-5,5V881.29a5,5,0,0,0,5,5V600.92A5,5,0,0,1,30,595.92Z"/><path class="cls-7" d="M29.83,467.57h350a5,5,0,0,0-5-5h-350a5,5,0,0,0-5,5v110a5,5,0,0,0,5,5v-110A5,5,0,0,1,29.83,467.57Z"/><path class="cls-7" d="M30,61.1H380a5,5,0,0,0-5-5H25a5,5,0,0,0-5,5v50a5,5,0,0,0,5,5v-50A5,5,0,0,1,30,61.1Z"/><path class="cls-7" d="M30,130H380a5,5,0,0,0-5-5H25a5,5,0,0,0-5,5V240a5,5,0,0,0,5,5V135A5,5,0,0,1,30,130Z"/><path class="cls-8" d="M21.56,22.35h4.25c4.53,0,7.54,2.38,7.54,7.75S30.34,38,26,38H21.56Zm4.06,12.79c2.44,0,4.1-1.29,4.1-5s-1.66-4.89-4.1-4.89h-.51v9.93Z"/><path class="cls-8" d="M43.71,30.34c-.12-1.08-.93-1.73-2.54-1.73a8.31,8.31,0,0,0-3.63,1.11L36.3,27.41a11.26,11.26,0,0,1,5.56-1.6c3.34,0,5.38,1.72,5.38,5.37V38H44.36l-.26-1.35H44a7.18,7.18,0,0,1-4.22,1.64,3.62,3.62,0,0,1-3.92-3.6C35.86,32,38.07,30.68,43.71,30.34ZM40.9,35.55a4.59,4.59,0,0,0,2.81-1.13v-2c-3.5.2-4.46.94-4.46,2C39.25,35.19,39.9,35.55,40.9,35.55Z"/><path class="cls-8" d="M53,28.85H50V26.24l3.16-.15.46-3.16h2.9v3.16h5v2.76h-5V33c0,1.8.77,2.5,2.5,2.5a7.16,7.16,0,0,0,2.38-.44L62,37.64a13.46,13.46,0,0,1-3.89.65c-3.79,0-5.13-2.12-5.13-5.24Z"/><path class="cls-8" d="M72.51,30.34c-.12-1.08-.93-1.73-2.54-1.73a8.31,8.31,0,0,0-3.63,1.11L65.1,27.41a11.26,11.26,0,0,1,5.56-1.6C74,25.81,76,27.53,76,31.18V38H73.16l-.26-1.35h-.1a7.18,7.18,0,0,1-4.22,1.64,3.62,3.62,0,0,1-3.92-3.6C64.66,32,66.87,30.68,72.51,30.34ZM69.7,35.55a4.59,4.59,0,0,0,2.81-1.13v-2c-3.5.2-4.46.94-4.46,2C68.05,35.19,68.7,35.55,69.7,35.55Z"/><path class="cls-8" d="M80.46,34.25a7.84,7.84,0,0,0,4.32,1.42c1.6,0,2.28-.38,2.28-1s-1.28-1.13-3.2-1.65c-2.08-.58-4.24-1.59-4.24-3.48,0-2.21,2.08-3.72,5.49-3.72a9.7,9.7,0,0,1,5.14,1.63l-1.59,2.11a6.78,6.78,0,0,0-3.48-1.13c-1.48,0-2.06.34-2.06.94s1.37,1.08,3,1.51c2.35.62,4.39,1.51,4.39,3.58s-2,3.84-5.86,3.84a11,11,0,0,1-5.83-1.83Z"/><path class="cls-8" d="M99.51,25.81c3.67,0,5.59,2.47,5.59,5.71a10.08,10.08,0,0,1-.14,1.56h-8c.24,1.77,1.71,2.52,3.46,2.52a6.57,6.57,0,0,0,3.07-.82l1.15,2.11a9.05,9.05,0,0,1-4.7,1.4c-3.7,0-6.6-2.31-6.6-6.24A6.09,6.09,0,0,1,99.51,25.81Zm2.4,4.94a2.07,2.07,0,0,0-2.33-2.26,2.61,2.61,0,0,0-2.68,2.26Z"/><path class="cls-8" d="M110.57,28.85h-3V26.24l3.17-.15.46-3.16h2.9v3.16h5v2.76h-5V33c0,1.8.77,2.5,2.5,2.5a7.16,7.16,0,0,0,2.38-.44l.62,2.55a13.46,13.46,0,0,1-3.89.65c-3.79,0-5.14-2.12-5.14-5.24Z"/><path class="cls-8" d="M38.78,70.06a6.67,6.67,0,0,1,4.64,2l-2,2.19a3.83,3.83,0,0,0-2.69-1.13c-2.2,0-3.84,1.9-3.84,5s1.64,5.09,4,5.09a3.7,3.7,0,0,0,2.78-1.39L43.66,84a6.33,6.33,0,0,1-4.95,2.31c-4,0-7.39-2.76-7.39-8S34.61,70.06,38.78,70.06Z"/><path class="cls-8" d="M51.6,73.81a6.24,6.24,0,1,1-6.07,6.24A6,6,0,0,1,51.6,73.81Zm0,9.62c1.63,0,2.45-1.32,2.45-3.38s-.82-3.39-2.45-3.39S49.15,78,49.15,80.05,50,83.43,51.6,83.43Z"/><path class="cls-8" d="M59.66,74.09H62.3l.27,1.49h.09a2.67,2.67,0,0,1,2.55-1.77,2.13,2.13,0,0,1,2.09,1.94,2.76,2.76,0,0,1,2.61-1.94c1.66,0,2.64,1.46,2.64,3.84V86H69.24V77.91c0-.74-.19-1.1-.67-1.1s-.79.38-1.11,1.15v8H64.75V77.91c0-.74-.24-1.1-.69-1.1S63.31,77.19,63,78v8H59.66Z"/><path class="cls-8" d="M74.06,74.09H76.7L77,75.58h.09a2.67,2.67,0,0,1,2.55-1.77,2.13,2.13,0,0,1,2.09,1.94,2.76,2.76,0,0,1,2.61-1.94C86,73.81,87,75.27,87,77.65V86H83.64V77.91c0-.74-.19-1.1-.67-1.1s-.79.38-1.11,1.15v8H79.15V77.91c0-.74-.24-1.1-.69-1.1s-.75.38-1.08,1.15v8H74.06Z"/><path class="cls-8" d="M89.5,74.09h8.3V86H94.27V76.85H89.5Zm4-3.88a2.35,2.35,0,0,1,4.7,0,2.36,2.36,0,0,1-4.7,0Z"/><path class="cls-8" d="M106.18,76.85h-3V74.24l3.16-.15.46-3.16h2.9v3.16h5v2.76h-5V81c0,1.8.77,2.5,2.5,2.5a7.16,7.16,0,0,0,2.38-.44l.62,2.55a13.46,13.46,0,0,1-3.89.65c-3.79,0-5.13-2.12-5.13-5.24Z"/><path class="cls-8" d="M34.56,139.35h3.53l1.58,5.54.53,2.16h.07l.53-2.16,1.51-5.54h3.53V155H43v-5.11c0-1.71.29-5.4.46-7.08h-.07l-1.22,4.29-1.21,3.72H39.38l-1.2-3.72L37,142.81h-.1c.17,1.68.46,5.37.46,7.08V155H34.56Z"/><path class="cls-8" d="M54.91,142.81c3.67,0,5.59,2.47,5.59,5.71a10.08,10.08,0,0,1-.14,1.56h-8c.24,1.77,1.71,2.52,3.46,2.52a6.57,6.57,0,0,0,3.07-.82L60,153.89a9.05,9.05,0,0,1-4.7,1.4c-3.7,0-6.6-2.31-6.6-6.24A6.09,6.09,0,0,1,54.91,142.81Zm2.4,4.94A2.07,2.07,0,0,0,55,145.49a2.61,2.61,0,0,0-2.68,2.26Z"/><path class="cls-8" d="M66,145.85H63v-2.61l3.16-.15.46-3.16h2.9v3.16h5v2.76h-5V150c0,1.8.77,2.5,2.5,2.5a7.16,7.16,0,0,0,2.38-.44l.62,2.55a13.46,13.46,0,0,1-3.89.65c-3.79,0-5.13-2.12-5.13-5.24Z"/><path class="cls-8" d="M85.51,147.34c-.12-1.08-.93-1.73-2.54-1.73a8.31,8.31,0,0,0-3.63,1.11l-1.24-2.31a11.26,11.26,0,0,1,5.56-1.6c3.34,0,5.38,1.72,5.38,5.37V155H86.16l-.26-1.35h-.1a7.18,7.18,0,0,1-4.22,1.64,3.62,3.62,0,0,1-3.92-3.6C77.66,149,79.87,147.68,85.51,147.34Zm-2.81,5.21a4.59,4.59,0,0,0,2.81-1.13v-2c-3.5.2-4.46.94-4.46,2C81.05,152.19,81.7,152.55,82.7,152.55Z"/><path class="cls-8" d="M36.07,488.18a6.67,6.67,0,0,0,4,1.63c1.63,0,2.35-.58,2.35-1.51s-.91-1.3-2.42-1.88l-2-.86a4.55,4.55,0,0,1-3.33-4.27c0-2.59,2.35-4.66,5.73-4.66a7.57,7.57,0,0,1,5.21,2.07l-1.8,2.23a5.42,5.42,0,0,0-3.41-1.25c-1.37,0-2.16.53-2.16,1.42s1.06,1.29,2.57,1.84l1.9.82c2.06.77,3.36,2,3.36,4.25,0,2.59-2.19,4.85-6.08,4.85A9,9,0,0,1,34,490.6Z"/><path class="cls-8" d="M51.41,483.42h-3v-2.61l3.17-.15L52,477.5h2.91v3.16h5v2.76h-5v4.18c0,1.8.76,2.5,2.49,2.5a7.16,7.16,0,0,0,2.38-.44l.62,2.55a13.4,13.4,0,0,1-3.89.65c-3.79,0-5.13-2.12-5.13-5.24Z"/><path class="cls-8" d="M64.42,480.66H67.3l.28,2.6h.08a5.5,5.5,0,0,1,4.82-2.88,4.83,4.83,0,0,1,2.31.48l-.73,2.95a6.35,6.35,0,0,0-2.11-.34,4.41,4.41,0,0,0-4,2.91v6.19H64.42Z"/><path class="cls-8" d="M88.63,492.57H85.75l-.26-1.71h-.1a5.15,5.15,0,0,1-4,2c-2.71,0-3.86-1.85-3.86-4.85v-7.35h3.53v6.89c0,1.59.41,2.31,1.73,2.31a2.71,2.71,0,0,0,2.32-1.37v-7.83h3.53Z"/><path class="cls-8" d="M98.93,480.38a6.6,6.6,0,0,1,4.46,1.6l-1.63,2.19a4.42,4.42,0,0,0-2.64-.94,3.24,3.24,0,0,0-3.46,3.39A3.18,3.18,0,0,0,99,490a5.4,5.4,0,0,0,3.14-1.13l1.44,2.23a7.82,7.82,0,0,1-4.92,1.76c-3.74,0-6.62-2.28-6.62-6.24S95.26,480.38,98.93,480.38Z"/><path class="cls-8" d="M109,483.42h-3v-2.61l3.17-.15.45-3.16h2.91v3.16h5v2.76h-5v4.18c0,1.8.76,2.5,2.49,2.5a7.16,7.16,0,0,0,2.38-.44l.62,2.55a13.4,13.4,0,0,1-3.89.65c-3.79,0-5.13-2.12-5.13-5.24Z"/><path class="cls-8" d="M131.83,492.57H129l-.26-1.71h-.1a5.15,5.15,0,0,1-4,2c-2.71,0-3.86-1.85-3.86-4.85v-7.35h3.53v6.89c0,1.59.4,2.31,1.73,2.31a2.71,2.71,0,0,0,2.32-1.37v-7.83h3.53Z"/><path class="cls-8" d="M136.41,480.66h2.88l.29,2.6h.07a5.53,5.53,0,0,1,4.83-2.88,4.76,4.76,0,0,1,2.3.48l-.72,2.95a6.35,6.35,0,0,0-2.11-.34,4.41,4.41,0,0,0-4,2.91v6.19h-3.53Z"/><path class="cls-8" d="M155.54,480.38c3.67,0,5.6,2.47,5.6,5.71a9.84,9.84,0,0,1-.15,1.56h-8c.24,1.77,1.71,2.52,3.46,2.52a6.57,6.57,0,0,0,3.07-.82l1.16,2.11a9.09,9.09,0,0,1-4.71,1.4c-3.7,0-6.6-2.31-6.6-6.24A6.09,6.09,0,0,1,155.54,480.38Zm2.4,4.94a2.07,2.07,0,0,0-2.33-2.26,2.61,2.61,0,0,0-2.68,2.26Z"/><rect class="cls-9" x="19.83" y="353.57" width="360" height="100" rx="5" ry="5"/><path class="cls-7" d="M29.83,358.57h350a5,5,0,0,0-5-5h-350a5,5,0,0,0-5,5v90a5,5,0,0,0,5,5v-90A5,5,0,0,1,29.83,358.57Z"/><path class="cls-8" d="M34.56,605h4.25c4.53,0,7.54,2.37,7.54,7.75s-3,7.9-7.35,7.9H34.56Zm4.06,12.79c2.44,0,4.1-1.3,4.1-5s-1.66-4.9-4.1-4.9h-.51v9.94Z"/><path class="cls-8" d="M56.71,613c-.12-1.08-.93-1.73-2.54-1.73a8.18,8.18,0,0,0-3.63,1.11l-1.24-2.31a11.27,11.27,0,0,1,5.56-1.61c3.34,0,5.38,1.73,5.38,5.38v6.82H57.36l-.26-1.35H57A7.23,7.23,0,0,1,52.78,621a3.61,3.61,0,0,1-3.92-3.6C48.86,614.69,51.07,613.35,56.71,613Zm-2.81,5.21a4.59,4.59,0,0,0,2.81-1.13v-2c-3.5.19-4.46.94-4.46,2C52.25,617.86,52.9,618.22,53.9,618.22Z"/><path class="cls-8" d="M66,611.52H63V608.9l3.16-.14.46-3.17h2.9v3.17h5v2.76h-5v4.18c0,1.8.77,2.49,2.5,2.49a7.16,7.16,0,0,0,2.38-.43l.62,2.55a13.48,13.48,0,0,1-3.89.64c-3.79,0-5.13-2.11-5.13-5.23Z"/><path class="cls-8" d="M85.51,613c-.12-1.08-.93-1.73-2.54-1.73a8.18,8.18,0,0,0-3.63,1.11l-1.24-2.31a11.27,11.27,0,0,1,5.56-1.61c3.34,0,5.38,1.73,5.38,5.38v6.82H86.16l-.26-1.35h-.1A7.23,7.23,0,0,1,81.58,621a3.61,3.61,0,0,1-3.92-3.6C77.66,614.69,79.87,613.35,85.51,613Zm-2.81,5.21a4.59,4.59,0,0,0,2.81-1.13v-2c-3.5.19-4.46.94-4.46,2C81.05,617.86,81.7,618.22,82.7,618.22Z"/><path class="cls-8" d="M34.42,369.33H29.74v-3H42.66v3H38V382H34.42Z"/><path class="cls-8" d="M46.18,370.09h2.88l.29,2.6h.07a5.53,5.53,0,0,1,4.83-2.88,4.79,4.79,0,0,1,2.3.48l-.72,2.95a6.35,6.35,0,0,0-2.11-.34,4.41,4.41,0,0,0-4,2.91V382H46.18Z"/><path class="cls-8" d="M67.11,374.34c-.12-1.08-.93-1.73-2.54-1.73a8.31,8.31,0,0,0-3.63,1.11l-1.24-2.31a11.26,11.26,0,0,1,5.56-1.6c3.34,0,5.38,1.72,5.38,5.37V382H67.76l-.26-1.35h-.1a7.18,7.18,0,0,1-4.22,1.64,3.62,3.62,0,0,1-3.92-3.6C59.26,376,61.47,374.68,67.11,374.34Zm-2.81,5.21a4.59,4.59,0,0,0,2.81-1.13v-2c-3.5.2-4.46.94-4.46,2C62.65,379.19,63.3,379.55,64.3,379.55Z"/><path class="cls-8" d="M73.93,370.09h2.88l.26,1.59h.1a5.74,5.74,0,0,1,4.1-1.87c2.69,0,3.89,1.84,3.89,4.84V382H81.63v-6.89c0-1.58-.45-2.3-1.75-2.3a3.31,3.31,0,0,0-2.42,1.24V382H73.93Z"/><path class="cls-8" d="M89.46,378.25a7.84,7.84,0,0,0,4.32,1.42c1.6,0,2.28-.38,2.28-1s-1.28-1.13-3.2-1.65c-2.08-.58-4.24-1.59-4.24-3.48,0-2.21,2.08-3.72,5.49-3.72a9.7,9.7,0,0,1,5.14,1.63l-1.59,2.11a6.78,6.78,0,0,0-3.48-1.13c-1.48,0-2.06.34-2.06.94s1.37,1.08,3,1.51c2.35.62,4.39,1.51,4.39,3.58s-2,3.84-5.86,3.84a11,11,0,0,1-5.83-1.83Z"/><path class="cls-8" d="M114.37,368.13a6.91,6.91,0,0,0-2.5-.46c-1.51,0-2.23.65-2.23,2.09v.33h4.1v2.76h-4.1V382h-3.53v-9.15H103v-2.61l3.14-.15v-.31c0-2.73,1.61-4.89,5.33-4.89a11.52,11.52,0,0,1,3.6.64Z"/><path class="cls-8" d="M122.6,369.81a6.24,6.24,0,1,1-6.07,6.24A6,6,0,0,1,122.6,369.81Zm0,9.62c1.63,0,2.45-1.32,2.45-3.38s-.82-3.39-2.45-3.39-2.45,1.32-2.45,3.39S121,379.43,122.6,379.43Z"/><path class="cls-8" d="M132.58,370.09h2.88l.29,2.6h.07a5.53,5.53,0,0,1,4.83-2.88,4.79,4.79,0,0,1,2.3.48l-.72,2.95a6.35,6.35,0,0,0-2.11-.34,4.41,4.41,0,0,0-4,2.91V382h-3.53Z"/><path class="cls-8" d="M145.06,370.09h2.64l.27,1.49h.09a2.67,2.67,0,0,1,2.55-1.77,2.13,2.13,0,0,1,2.09,1.94,2.76,2.76,0,0,1,2.61-1.94c1.66,0,2.64,1.46,2.64,3.84V382h-3.31v-8.09c0-.74-.19-1.1-.67-1.1s-.8.38-1.11,1.15v8h-2.71v-8.09c0-.74-.24-1.1-.69-1.1s-.75.38-1.08,1.15v8h-3.32Z"/><rect class="cls-10" x="19.83" y="254.24" width="360" height="90" rx="5" ry="5"/><path class="cls-7" d="M29.83,259.24h350a5,5,0,0,0-5-5h-350a5,5,0,0,0-5,5v80a5,5,0,0,0,5,5v-80A5,5,0,0,1,29.83,259.24Z"/><path class="cls-8" d="M29.36,267H33.1L35,274.31c.48,1.71.79,3.29,1.24,5h.1c.48-1.73.82-3.31,1.27-5L39.44,267H43l-4.7,15.65H34.09Z"/><path class="cls-8" d="M45.3,270.76h8.3v11.91H50.07v-9.15H45.3Zm4-3.89a2.35,2.35,0,0,1,4.7,0,2.36,2.36,0,0,1-4.7,0Z"/><path class="cls-8" d="M60.66,278.92A7.84,7.84,0,0,0,65,280.34c1.6,0,2.28-.39,2.28-1s-1.28-1.13-3.2-1.66c-2.08-.57-4.24-1.58-4.24-3.48,0-2.21,2.08-3.72,5.49-3.72a9.7,9.7,0,0,1,5.14,1.63l-1.58,2.12a6.81,6.81,0,0,0-3.49-1.13c-1.48,0-2.06.33-2.06.93s1.37,1.08,3.05,1.52c2.35.62,4.39,1.51,4.39,3.57s-2,3.84-5.86,3.84a11,11,0,0,1-5.83-1.82Z"/><path class="cls-8" d="M81,266.73a6.67,6.67,0,0,1,4.64,2l-2,2.18A3.82,3.82,0,0,0,81,269.78c-2.2,0-3.84,1.89-3.84,5s1.64,5.09,4,5.09a3.71,3.71,0,0,0,2.78-1.4l2,2.14a6.32,6.32,0,0,1-5,2.3c-4,0-7.39-2.76-7.39-8S76.81,266.73,81,266.73Z"/><path class="cls-8" d="M93.8,270.47a6.24,6.24,0,1,1-6.07,6.24A6,6,0,0,1,93.8,270.47Zm0,9.63c1.63,0,2.45-1.32,2.45-3.39s-.82-3.38-2.45-3.38-2.45,1.32-2.45,3.38S92.17,280.1,93.8,280.1Z"/><path class="cls-8" d="M102.73,270.76h2.88l.26,1.58h.1a5.78,5.78,0,0,1,4.1-1.87c2.69,0,3.89,1.85,3.89,4.85v7.35h-3.53v-6.89c0-1.59-.45-2.31-1.75-2.31a3.29,3.29,0,0,0-2.42,1.25v7.95h-3.53Z"/><path class="cls-8" d="M128.77,268.79a6.91,6.91,0,0,0-2.5-.45c-1.51,0-2.23.64-2.23,2.08v.34h4.1v2.76H124v9.15h-3.53v-9.15h-3.14V270.9l3.14-.14v-.31c0-2.74,1.61-4.9,5.33-4.9a11.23,11.23,0,0,1,3.6.65Z"/><path class="cls-8" d="M131.69,270.76H140v11.91h-3.53v-9.15h-4.78Zm4-3.89a2.35,2.35,0,0,1,4.7,0,2.36,2.36,0,0,1-4.7,0Z"/><path class="cls-8" d="M147.29,282.31v-.1a2.34,2.34,0,0,1-1.2-2,3,3,0,0,1,1.42-2.23v-.1a3.62,3.62,0,0,1-1.56-3c0-2.85,2.4-4.32,5.09-4.32a6.37,6.37,0,0,1,2,.29h4.82v2.57h-2.42a2.65,2.65,0,0,1,.55,1.58c0,2.74-2.16,4-4.92,4a6,6,0,0,1-1.63-.24,1,1,0,0,0-.53.86c0,.65.62.91,2,.91h2.2c3.12,0,4.83.87,4.83,3,0,2.5-2.76,4.3-7.08,4.3-3.1,0-5.4-.91-5.4-3.05A2.73,2.73,0,0,1,147.29,282.31Zm4.06,3.21c1.9,0,3.22-.65,3.22-1.46s-.72-.94-2.09-.94H151a8.8,8.8,0,0,1-1.82-.14c-.6.38-.84.74-.84,1.17C148.33,285,149.48,285.52,151.35,285.52Zm1.51-10.73a1.78,1.78,0,0,0-1.82-1.94,2,2,0,0,0,0,3.91A1.79,1.79,0,0,0,152.86,274.79Z"/></g></g></svg>