<?xml version="1.0" encoding="utf-8"?>
<!-- Generator: Adobe Illustrator 23.0.6, SVG Export Plug-In . SVG Version: 6.00 Build 0)  -->
<svg version="1.1" xmlns="http://www.w3.org/2000/svg" xmlns:xlink="http://www.w3.org/1999/xlink" x="0px" y="0px"
	 viewBox="0 0 549 358" style="enable-background:new 0 0 549 358;" xml:space="preserve">
<style type="text/css">
	.st0{fill:#E7E7E7;}
	.st1{opacity:5.000000e-02;}
	.st2{fill:#E6E6E6;}
	.st3{fill:#4FC7F3;}
	.st4{opacity:0.1;}
	.st5{fill:#F8AB31;}
	.st6{fill:#FFFFFF;}
	.st7{fill:#EC325A;}
</style>
<g id="Layer_2">
</g>
<g id="Layer_1">
	<g>
		<path class="st0" d="M298.3,291.5c-0.3,0-0.5-0.1-0.7-0.4c-0.2-0.4-0.1-0.8,0.3-1.1l1.7-1c0.4-0.2,0.8-0.1,1.1,0.3
			c0.2,0.4,0.1,0.8-0.3,1.1l-1.7,1C298.5,291.4,298.4,291.5,298.3,291.5z M294.8,290.8c-0.1,0-0.3,0-0.4-0.1l-1.7-1
			c-0.4-0.2-0.5-0.7-0.3-1.1c0.2-0.4,0.7-0.5,1.1-0.3l1.7,1c0.4,0.2,0.5,0.7,0.3,1.1C295.3,290.7,295.1,290.8,294.8,290.8z
			 M303.5,288.5c-0.3,0-0.5-0.1-0.7-0.4c-0.2-0.4-0.1-0.8,0.3-1.1l1.7-1c0.4-0.2,0.8-0.1,1.1,0.3c0.2,0.4,0.1,0.8-0.3,1.1l-1.7,1
			C303.8,288.5,303.6,288.5,303.5,288.5z M289.6,287.8c-0.1,0-0.3,0-0.4-0.1l-1.7-1c-0.4-0.2-0.5-0.7-0.3-1.1
			c0.2-0.4,0.7-0.5,1.1-0.3l1.7,1c0.4,0.2,0.5,0.7,0.3,1.1C290.2,287.6,289.9,287.8,289.6,287.8z M308.7,285.6
			c-0.3,0-0.5-0.1-0.7-0.4c-0.2-0.4-0.1-0.8,0.3-1.1l1.7-1c0.4-0.2,0.8-0.1,1.1,0.3c0.2,0.4,0.1,0.8-0.3,1.1l-1.7,1
			C309,285.6,308.9,285.6,308.7,285.6z M284.4,284.8c-0.1,0-0.3,0-0.4-0.1l-1.7-1c-0.4-0.2-0.5-0.7-0.3-1.1c0.2-0.4,0.7-0.5,1.1-0.3
			l1.7,1c0.4,0.2,0.5,0.7,0.3,1.1C285,284.6,284.7,284.8,284.4,284.8z M279.3,281.7c-0.1,0-0.3,0-0.4-0.1l-1.7-1
			c-0.4-0.2-0.5-0.7-0.3-1.1c0.2-0.4,0.7-0.5,1.1-0.3l1.7,1c0.4,0.2,0.5,0.7,0.3,1.1C279.8,281.6,279.5,281.7,279.3,281.7z
			 M274.1,278.7c-0.1,0-0.3,0-0.4-0.1l-1.7-1c-0.4-0.2-0.5-0.7-0.3-1.1c0.2-0.4,0.7-0.5,1.1-0.3l1.7,1c0.4,0.2,0.5,0.7,0.3,1.1
			C274.6,278.6,274.3,278.7,274.1,278.7z M268.9,275.7c-0.1,0-0.3,0-0.4-0.1l-1.7-1c-0.4-0.2-0.5-0.7-0.3-1.1
			c0.2-0.4,0.7-0.5,1.1-0.3l1.7,1c0.4,0.2,0.5,0.7,0.3,1.1C269.4,275.6,269.2,275.7,268.9,275.7z M263.7,272.7c-0.1,0-0.3,0-0.4-0.1
			l-1.7-1c-0.4-0.2-0.5-0.7-0.3-1.1c0.2-0.4,0.7-0.5,1.1-0.3l1.7,1c0.4,0.2,0.5,0.7,0.3,1.1C264.2,272.5,264,272.7,263.7,272.7z
			 M258.5,269.7c-0.1,0-0.3,0-0.4-0.1l-1.7-1c-0.4-0.2-0.5-0.7-0.3-1.1c0.2-0.4,0.7-0.5,1.1-0.3l1.7,1c0.4,0.2,0.5,0.7,0.3,1.1
			C259,269.5,258.8,269.7,258.5,269.7z M253.3,266.6c-0.1,0-0.3,0-0.4-0.1l-1.7-1c-0.4-0.2-0.5-0.7-0.3-1.1c0.2-0.4,0.7-0.5,1.1-0.3
			l1.7,1c0.4,0.2,0.5,0.7,0.3,1.1C253.9,266.5,253.6,266.6,253.3,266.6z M248.1,263.6c-0.1,0-0.3,0-0.4-0.1l-1.7-1
			c-0.4-0.2-0.5-0.7-0.3-1.1s0.7-0.5,1.1-0.3l1.7,1c0.4,0.2,0.5,0.7,0.3,1.1C248.7,263.5,248.4,263.6,248.1,263.6z M243,260.6
			c-0.1,0-0.3,0-0.4-0.1l-1.7-1c-0.4-0.2-0.5-0.7-0.3-1.1c0.2-0.4,0.7-0.5,1.1-0.3l1.7,1c0.4,0.2,0.5,0.7,0.3,1.1
			C243.5,260.5,243.2,260.6,243,260.6z M237.8,257.6c-0.1,0-0.3,0-0.4-0.1l-1.7-1c-0.4-0.2-0.5-0.7-0.3-1.1c0.2-0.4,0.7-0.5,1.1-0.3
			l1.7,1c0.4,0.2,0.5,0.7,0.3,1.1C238.3,257.5,238,257.6,237.8,257.6z M82.5,256.4c-0.1,0-0.3,0-0.4-0.1l-1.7-1
			c-0.4-0.2-0.5-0.7-0.3-1.1c0.2-0.4,0.7-0.5,1.1-0.3l1.7,1c0.4,0.2,0.5,0.7,0.3,1.1C83,256.3,82.7,256.4,82.5,256.4z M85.9,256.3
			c-0.3,0-0.5-0.1-0.7-0.4c-0.2-0.4-0.1-0.8,0.3-1.1l1.7-1c0.4-0.2,0.8-0.1,1.1,0.3c0.2,0.4,0.1,0.8-0.3,1.1l-1.7,1
			C86.2,256.3,86,256.3,85.9,256.3z M232.6,254.6c-0.1,0-0.3,0-0.4-0.1l-1.7-1c-0.4-0.2-0.5-0.7-0.3-1.1s0.7-0.5,1.1-0.3l1.7,1
			c0.4,0.2,0.5,0.7,0.3,1.1C233.1,254.4,232.9,254.6,232.6,254.6z M77.3,253.3c-0.1,0-0.3,0-0.4-0.1l-1.7-1
			c-0.4-0.2-0.5-0.7-0.3-1.1c0.2-0.4,0.7-0.5,1.1-0.3l1.7,1c0.4,0.2,0.5,0.7,0.3,1.1C77.8,253.2,77.6,253.3,77.3,253.3z M91.1,253.3
			c-0.3,0-0.5-0.1-0.7-0.4c-0.2-0.4-0.1-0.8,0.3-1.1l1.7-1c0.4-0.2,0.8-0.1,1.1,0.3c0.2,0.4,0.1,0.8-0.3,1.1l-1.7,1
			C91.3,253.3,91.2,253.3,91.1,253.3z M227.4,251.6c-0.1,0-0.3,0-0.4-0.1l-1.7-1c-0.4-0.2-0.5-0.7-0.3-1.1c0.2-0.4,0.7-0.5,1.1-0.3
			l1.7,1c0.4,0.2,0.5,0.7,0.3,1.1C227.9,251.4,227.7,251.6,227.4,251.6z M96.2,250.3c-0.3,0-0.5-0.1-0.7-0.4
			c-0.2-0.4-0.1-0.8,0.3-1.1l1.7-1c0.4-0.2,0.8-0.1,1.1,0.3c0.2,0.4,0.1,0.8-0.3,1.1l-1.7,1C96.5,250.2,96.4,250.3,96.2,250.3z
			 M72.2,250.2c-0.1,0-0.3,0-0.4-0.1l-1.7-1c-0.4-0.2-0.5-0.7-0.3-1.1c0.2-0.4,0.7-0.5,1.1-0.3l1.7,1c0.4,0.2,0.5,0.7,0.3,1.1
			C72.7,250.1,72.5,250.2,72.2,250.2z M222.2,248.5c-0.1,0-0.3,0-0.4-0.1l-1.7-1c-0.4-0.2-0.5-0.7-0.3-1.1c0.2-0.4,0.7-0.5,1.1-0.3
			l1.7,1c0.4,0.2,0.5,0.7,0.3,1.1C222.7,248.4,222.5,248.5,222.2,248.5z M101.4,247.2c-0.3,0-0.5-0.1-0.7-0.4
			c-0.2-0.4-0.1-0.8,0.3-1.1l1.7-1c0.4-0.2,0.8-0.1,1.1,0.3c0.2,0.4,0.1,0.8-0.3,1.1l-1.7,1C101.7,247.2,101.5,247.2,101.4,247.2z
			 M67.1,247.1c-0.1,0-0.3,0-0.4-0.1l-1.7-1c-0.4-0.2-0.5-0.7-0.3-1.1c0.2-0.4,0.7-0.5,1.1-0.3l1.7,1c0.4,0.2,0.5,0.7,0.3,1.1
			C67.6,247,67.3,247.1,67.1,247.1z M217,245.5c-0.1,0-0.3,0-0.4-0.1l-1.7-1c-0.4-0.2-0.5-0.7-0.3-1.1c0.2-0.4,0.7-0.5,1.1-0.3
			l1.7,1c0.4,0.2,0.5,0.7,0.3,1.1C217.6,245.4,217.3,245.5,217,245.5z M106.6,244.2c-0.3,0-0.5-0.1-0.7-0.4
			c-0.2-0.4-0.1-0.8,0.3-1.1l1.7-1c0.4-0.2,0.8-0.1,1.1,0.3c0.2,0.4,0.1,0.8-0.3,1.1l-1.7,1C106.8,244.1,106.7,244.2,106.6,244.2z
			 M61.9,244c-0.1,0-0.3,0-0.4-0.1l-1.7-1c-0.4-0.2-0.5-0.7-0.3-1.1c0.2-0.4,0.7-0.5,1.1-0.3l1.7,1c0.4,0.2,0.5,0.7,0.3,1.1
			C62.4,243.9,62.2,244,61.9,244z M211.8,242.5c-0.1,0-0.3,0-0.4-0.1l-1.7-1c-0.4-0.2-0.5-0.7-0.3-1.1c0.2-0.4,0.7-0.5,1.1-0.3
			l1.7,1c0.4,0.2,0.5,0.7,0.3,1.1C212.4,242.4,212.1,242.5,211.8,242.5z M111.7,241.1c-0.3,0-0.5-0.1-0.7-0.4
			c-0.2-0.4-0.1-0.8,0.3-1.1l1.7-1c0.4-0.2,0.8-0.1,1.1,0.3c0.2,0.4,0.1,0.8-0.3,1.1l-1.7,1C112,241.1,111.9,241.1,111.7,241.1z
			 M56.8,240.9c-0.1,0-0.3,0-0.4-0.1l-1.7-1c-0.4-0.2-0.5-0.7-0.3-1.1c0.2-0.4,0.7-0.5,1.1-0.3l1.7,1c0.4,0.2,0.5,0.7,0.3,1.1
			C57.3,240.8,57.1,240.9,56.8,240.9z M206.7,239.5c-0.1,0-0.3,0-0.4-0.1l-1.7-1c-0.4-0.2-0.5-0.7-0.3-1.1c0.2-0.4,0.7-0.5,1.1-0.3
			l1.7,1c0.4,0.2,0.5,0.7,0.3,1.1C207.2,239.3,206.9,239.5,206.7,239.5z M116.9,238.1c-0.3,0-0.5-0.1-0.7-0.4
			c-0.2-0.4-0.1-0.8,0.3-1.1l1.7-1c0.4-0.2,0.8-0.1,1.1,0.3c0.2,0.4,0.1,0.8-0.3,1.1l-1.7,1C117.2,238,117,238.1,116.9,238.1z
			 M51.7,237.8c-0.1,0-0.3,0-0.4-0.1l-1.7-1c-0.4-0.2-0.5-0.7-0.3-1.1c0.2-0.4,0.7-0.5,1.1-0.3l1.7,1c0.4,0.2,0.5,0.7,0.3,1.1
			C52.2,237.7,51.9,237.8,51.7,237.8z M201.5,236.5c-0.1,0-0.3,0-0.4-0.1l-1.7-1c-0.4-0.2-0.5-0.7-0.3-1.1c0.2-0.4,0.7-0.5,1.1-0.3
			l1.7,1c0.4,0.2,0.5,0.7,0.3,1.1C202,236.3,201.7,236.5,201.5,236.5z M122.1,235c-0.3,0-0.5-0.1-0.7-0.4c-0.2-0.4-0.1-0.8,0.3-1.1
			l1.7-1c0.4-0.2,0.8-0.1,1.1,0.3c0.2,0.4,0.1,0.8-0.3,1.1l-1.7,1C122.4,235,122.2,235,122.1,235z M46.5,234.7c-0.1,0-0.3,0-0.4-0.1
			l-1.7-1c-0.4-0.2-0.5-0.7-0.3-1.1c0.2-0.4,0.7-0.5,1.1-0.3l1.7,1c0.4,0.2,0.5,0.7,0.3,1.1C47,234.5,46.8,234.7,46.5,234.7z
			 M196.3,233.4c-0.1,0-0.3,0-0.4-0.1l-1.7-1c-0.4-0.2-0.5-0.7-0.3-1.1c0.2-0.4,0.7-0.5,1.1-0.3l1.7,1c0.4,0.2,0.5,0.7,0.3,1.1
			C196.8,233.3,196.6,233.4,196.3,233.4z M127.3,232c-0.3,0-0.5-0.1-0.7-0.4c-0.2-0.4-0.1-0.8,0.3-1.1l1.7-1
			c0.4-0.2,0.8-0.1,1.1,0.3c0.2,0.4,0.1,0.8-0.3,1.1l-1.7,1C127.5,231.9,127.4,232,127.3,232z M41.4,231.6c-0.1,0-0.3,0-0.4-0.1
			l-1.7-1c-0.4-0.2-0.5-0.7-0.3-1.1c0.2-0.4,0.7-0.5,1.1-0.3l1.7,1c0.4,0.2,0.5,0.7,0.3,1.1C41.9,231.4,41.7,231.6,41.4,231.6z
			 M191.1,230.4c-0.1,0-0.3,0-0.4-0.1l-1.7-1c-0.4-0.2-0.5-0.7-0.3-1.1c0.2-0.4,0.7-0.5,1.1-0.3l1.7,1c0.4,0.2,0.5,0.7,0.3,1.1
			C191.6,230.3,191.4,230.4,191.1,230.4z M132.4,228.9c-0.3,0-0.5-0.1-0.7-0.4c-0.2-0.4-0.1-0.8,0.3-1.1l1.7-1
			c0.4-0.2,0.8-0.1,1.1,0.3c0.2,0.4,0.1,0.8-0.3,1.1l-1.7,1C132.7,228.9,132.6,228.9,132.4,228.9z M36.3,228.5c-0.1,0-0.3,0-0.4-0.1
			l-1.7-1c-0.4-0.2-0.5-0.7-0.3-1.1c0.2-0.4,0.7-0.5,1.1-0.3l1.7,1c0.4,0.2,0.5,0.7,0.3,1.1C36.8,228.3,36.5,228.5,36.3,228.5z
			 M185.9,227.4c-0.1,0-0.3,0-0.4-0.1l-1.7-1c-0.4-0.2-0.5-0.7-0.3-1.1c0.2-0.4,0.7-0.5,1.1-0.3l1.7,1c0.4,0.2,0.5,0.7,0.3,1.1
			C186.4,227.3,186.2,227.4,185.9,227.4z M137.6,225.9c-0.3,0-0.5-0.1-0.7-0.4c-0.2-0.4-0.1-0.8,0.3-1.1l1.7-1
			c0.4-0.2,0.8-0.1,1.1,0.3c0.2,0.4,0.1,0.8-0.3,1.1l-1.7,1C137.9,225.9,137.7,225.9,137.6,225.9z M31.1,225.4c-0.1,0-0.3,0-0.4-0.1
			l-1.7-1c-0.4-0.2-0.5-0.7-0.3-1.1c0.2-0.4,0.7-0.5,1.1-0.3l1.7,1c0.4,0.2,0.5,0.7,0.3,1.1C31.6,225.2,31.4,225.4,31.1,225.4z
			 M180.7,224.4c-0.1,0-0.3,0-0.4-0.1l-1.7-1c-0.4-0.2-0.5-0.7-0.3-1.1c0.2-0.4,0.7-0.5,1.1-0.3l1.7,1c0.4,0.2,0.5,0.7,0.3,1.1
			C181.3,224.3,181,224.4,180.7,224.4z M142.8,222.8c-0.3,0-0.5-0.1-0.7-0.4c-0.2-0.4-0.1-0.8,0.3-1.1l1.7-1
			c0.4-0.2,0.8-0.1,1.1,0.3c0.2,0.4,0.1,0.8-0.3,1.1l-1.7,1C143,222.8,142.9,222.8,142.8,222.8z M26,222.3c-0.1,0-0.3,0-0.4-0.1
			l-1.7-1c-0.4-0.2-0.5-0.7-0.3-1.1c0.2-0.4,0.7-0.5,1.1-0.3l1.7,1c0.4,0.2,0.5,0.7,0.3,1.1C26.5,222.1,26.2,222.3,26,222.3z
			 M175.5,221.4c-0.1,0-0.3,0-0.4-0.1l-1.7-1c-0.4-0.2-0.5-0.7-0.3-1.1c0.2-0.4,0.7-0.5,1.1-0.3l1.7,1c0.4,0.2,0.5,0.7,0.3,1.1
			C176.1,221.2,175.8,221.4,175.5,221.4z M147.9,219.8c-0.3,0-0.5-0.1-0.7-0.4c-0.2-0.4-0.1-0.8,0.3-1.1l1.7-1
			c0.4-0.2,0.8-0.1,1.1,0.3c0.2,0.4,0.1,0.8-0.3,1.1l-1.7,1C148.2,219.8,148.1,219.8,147.9,219.8z M20.9,219.2c-0.1,0-0.3,0-0.4-0.1
			l-1.7-1c-0.4-0.2-0.5-0.7-0.3-1.1c0.2-0.4,0.7-0.5,1.1-0.3l1.7,1c0.4,0.2,0.5,0.7,0.3,1.1C21.4,219,21.1,219.2,20.9,219.2z
			 M170.4,218.4c-0.1,0-0.3,0-0.4-0.1l-1.7-1c-0.4-0.2-0.5-0.7-0.3-1.1c0.2-0.4,0.7-0.5,1.1-0.3l1.7,1c0.4,0.2,0.5,0.7,0.3,1.1
			C170.9,218.2,170.6,218.4,170.4,218.4z M153.1,216.8c-0.3,0-0.5-0.1-0.7-0.4c-0.2-0.4-0.1-0.8,0.3-1.1l1.7-1
			c0.4-0.2,0.8-0.1,1.1,0.3c0.2,0.4,0.1,0.8-0.3,1.1l-1.7,1C153.4,216.7,153.2,216.8,153.1,216.8z M20.9,216.1
			c-0.3,0-0.5-0.1-0.7-0.4c-0.2-0.4-0.1-0.8,0.3-1.1l1.7-1c0.4-0.2,0.8-0.1,1.1,0.3c0.2,0.4,0.1,0.8-0.3,1.1l-1.7,1
			C21.2,216.1,21,216.1,20.9,216.1z M165.2,215.3c-0.1,0-0.3,0-0.4-0.1l-1.7-1c-0.4-0.2-0.5-0.7-0.3-1.1s0.7-0.5,1.1-0.3l1.7,1
			c0.4,0.2,0.5,0.7,0.3,1.1C165.7,215.2,165.4,215.3,165.2,215.3z M158.3,213.7c-0.3,0-0.5-0.1-0.7-0.4c-0.2-0.4-0.1-0.8,0.3-1.1
			l1.7-1c0.4-0.2,0.8-0.1,1.1,0.3c0.2,0.4,0.1,0.8-0.3,1.1l-1.7,1C158.5,213.7,158.4,213.7,158.3,213.7z M26.1,213.2
			c-0.3,0-0.5-0.1-0.7-0.4c-0.2-0.4-0.1-0.8,0.3-1.1l1.7-1c0.4-0.2,0.8-0.1,1.1,0.3c0.2,0.4,0.1,0.8-0.3,1.1l-1.7,1
			C26.4,213.1,26.3,213.2,26.1,213.2z M31.3,210.2c-0.3,0-0.5-0.1-0.7-0.4c-0.2-0.4-0.1-0.8,0.3-1.1l1.7-1c0.4-0.2,0.8-0.1,1.1,0.3
			c0.2,0.4,0.1,0.8-0.3,1.1l-1.7,1C31.6,210.2,31.5,210.2,31.3,210.2z M36.6,207.3c-0.3,0-0.5-0.1-0.7-0.4c-0.2-0.4-0.1-0.8,0.3-1.1
			l1.7-1c0.4-0.2,0.8-0.1,1.1,0.3c0.2,0.4,0.1,0.8-0.3,1.1l-1.7,1C36.8,207.2,36.7,207.3,36.6,207.3z M41.8,204.3
			c-0.3,0-0.5-0.1-0.7-0.4c-0.2-0.4-0.1-0.8,0.3-1.1l1.7-1c0.4-0.2,0.8-0.1,1.1,0.3c0.2,0.4,0.1,0.8-0.3,1.1l-1.7,1
			C42.1,204.3,41.9,204.3,41.8,204.3z"/>
	</g>
	<g>
		<path class="st0" d="M357.5,119.2c-0.1,0-0.3,0-0.4-0.1l-1.2-0.7c-0.4-0.2-0.5-0.7-0.3-1.1c0.2-0.4,0.7-0.5,1.1-0.3l1.2,0.7
			c0.4,0.2,0.5,0.7,0.3,1.1C358,119.1,357.8,119.2,357.5,119.2z M352.9,116.4c-0.1,0-0.3,0-0.4-0.1l-1.7-1c-0.4-0.2-0.5-0.7-0.3-1.1
			s0.7-0.5,1.1-0.3l1.7,1c0.4,0.2,0.5,0.7,0.3,1.1C353.4,116.3,353.1,116.4,352.9,116.4z M347.7,113.3c-0.1,0-0.3,0-0.4-0.1l-1.7-1
			c-0.4-0.2-0.5-0.7-0.3-1.1c0.2-0.4,0.7-0.5,1.1-0.3l1.7,1c0.4,0.2,0.5,0.7,0.3,1.1C348.3,113.2,348,113.3,347.7,113.3z
			 M342.6,110.2c-0.1,0-0.3,0-0.4-0.1l-1.7-1c-0.4-0.2-0.5-0.7-0.3-1.1c0.2-0.4,0.7-0.5,1.1-0.3l1.7,1c0.4,0.2,0.5,0.7,0.3,1.1
			C343.1,110.1,342.9,110.2,342.6,110.2z M337.5,107.1c-0.1,0-0.3,0-0.4-0.1l-1.7-1c-0.4-0.2-0.5-0.7-0.3-1.1
			c0.2-0.4,0.7-0.5,1.1-0.3l1.7,1c0.4,0.2,0.5,0.7,0.3,1.1C338,106.9,337.7,107.1,337.5,107.1z M332.4,104c-0.1,0-0.3,0-0.4-0.1
			l-1.7-1c-0.4-0.2-0.5-0.7-0.3-1.1c0.2-0.4,0.7-0.5,1.1-0.3l1.7,1c0.4,0.2,0.5,0.7,0.3,1.1C332.9,103.8,332.6,104,332.4,104z
			 M327.2,100.9c-0.1,0-0.3,0-0.4-0.1l-1.7-1c-0.4-0.2-0.5-0.7-0.3-1.1c0.2-0.4,0.7-0.5,1.1-0.3l1.7,1c0.4,0.2,0.5,0.7,0.3,1.1
			C327.7,100.7,327.5,100.9,327.2,100.9z M322.1,97.8c-0.1,0-0.3,0-0.4-0.1l-1.7-1c-0.4-0.2-0.5-0.7-0.3-1.1
			c0.2-0.4,0.7-0.5,1.1-0.3l1.7,1c0.4,0.2,0.5,0.7,0.3,1.1C322.6,97.6,322.4,97.8,322.1,97.8z M317,94.6c-0.1,0-0.3,0-0.4-0.1
			l-1.7-1c-0.4-0.2-0.5-0.7-0.3-1.1c0.2-0.4,0.7-0.5,1.1-0.3l1.7,1c0.4,0.2,0.5,0.7,0.3,1.1C317.5,94.5,317.2,94.6,317,94.6z
			 M311.8,91.5c-0.1,0-0.3,0-0.4-0.1l-1.7-1c-0.4-0.2-0.5-0.7-0.3-1.1c0.2-0.4,0.7-0.5,1.1-0.3l1.7,1c0.4,0.2,0.5,0.7,0.3,1.1
			C312.3,91.4,312.1,91.5,311.8,91.5z M311.5,88.6c-0.3,0-0.6-0.2-0.7-0.4c-0.2-0.4,0-0.8,0.3-1l1.8-0.9c0.4-0.2,0.9,0,1,0.3
			c0.2,0.4,0,0.8-0.3,1l-1.8,0.9C311.8,88.6,311.6,88.6,311.5,88.6z M316.9,85.9c-0.3,0-0.6-0.2-0.7-0.4c-0.2-0.4,0-0.8,0.3-1
			l1.8-0.9c0.4-0.2,0.9,0,1,0.3c0.2,0.4,0,0.8-0.3,1l-1.8,0.9C317.1,85.9,317,85.9,316.9,85.9z"/>
	</g>
	<g>
		<path class="st0" d="M368.4,126.2c-0.1,0-0.3,0-0.4-0.1l-0.4-0.2c-0.4-0.2-0.5-0.7-0.3-1.1c0.2-0.4,0.7-0.5,1.1-0.3l0.9-0.6
			c0.4-0.2,0.8-0.1,1.1,0.3c0.2,0.4,0.1,0.8-0.3,1.1l-1.3,0.8C368.7,126.1,368.6,126.2,368.4,126.2z M364.7,123.8
			c-0.1,0-0.3,0-0.4-0.1l-1.7-1c-0.4-0.2-0.5-0.7-0.3-1.1c0.2-0.4,0.7-0.5,1.1-0.3l1.7,1c0.4,0.2,0.5,0.7,0.3,1.1
			C365.2,123.7,364.9,123.8,364.7,123.8z M347.4,123.7c-0.3,0-0.5-0.1-0.7-0.4c-0.2-0.4-0.1-0.8,0.3-1.1l1.7-1
			c0.4-0.2,0.8-0.1,1.1,0.3c0.2,0.4,0.1,0.8-0.3,1.1l-1.7,1C347.7,123.7,347.6,123.7,347.4,123.7z M373.2,123.3
			c-0.3,0-0.5-0.1-0.7-0.4c-0.2-0.4-0.1-0.8,0.3-1.1l1.7-1c0.4-0.2,0.8-0.1,1.1,0.3c0.2,0.4,0.1,0.8-0.3,1.1l-1.7,1
			C373.5,123.3,373.3,123.3,373.2,123.3z M352.7,120.8c-0.3,0-0.5-0.1-0.7-0.4c-0.2-0.4-0.1-0.8,0.3-1.1l1.7-1
			c0.4-0.2,0.8-0.1,1.1,0.3s0.1,0.8-0.3,1.1l-1.7,1C352.9,120.8,352.8,120.8,352.7,120.8z M359.5,120.7c-0.1,0-0.3,0-0.4-0.1l-1.7-1
			c-0.4-0.2-0.5-0.7-0.3-1.1c0.2-0.4,0.7-0.5,1.1-0.3l1.7,1c0.4,0.2,0.5,0.7,0.3,1.1C360.1,120.6,359.8,120.7,359.5,120.7z
			 M378.3,120.2c-0.3,0-0.5-0.1-0.7-0.4c-0.2-0.4-0.1-0.8,0.3-1.1l1.7-1c0.4-0.2,0.8-0.1,1.1,0.3c0.2,0.4,0.1,0.8-0.3,1.1l-1.7,1
			C378.6,120.2,378.5,120.2,378.3,120.2z"/>
	</g>
	<g>
		<path class="st0" d="M104.7,209.1c-0.3,0-0.5-0.1-0.7-0.4c-0.2-0.4-0.1-0.8,0.3-1.1l1.7-1c0.4-0.2,0.8-0.1,1.1,0.3
			c0.2,0.4,0.1,0.8-0.3,1.1l-1.7,1C104.9,209.1,104.8,209.1,104.7,209.1z M101.2,208.6c-0.1,0-0.3,0-0.4-0.1l-1.7-1
			c-0.4-0.2-0.5-0.7-0.3-1.1c0.2-0.4,0.7-0.5,1.1-0.3l1.7,1c0.4,0.2,0.5,0.7,0.3,1.1C101.7,208.5,101.5,208.6,101.2,208.6z
			 M109.9,206.1c-0.3,0-0.5-0.1-0.7-0.4c-0.2-0.4-0.1-0.8,0.3-1.1l1.7-1c0.4-0.2,0.8-0.1,1.1,0.3c0.2,0.4,0.1,0.8-0.3,1.1l-1.7,1
			C110.1,206.1,110,206.1,109.9,206.1z M96.1,205.5c-0.1,0-0.3,0-0.4-0.1l-1.7-1c-0.4-0.2-0.5-0.7-0.3-1.1s0.7-0.5,1.1-0.3l1.7,1
			c0.4,0.2,0.5,0.7,0.3,1.1C96.6,205.4,96.3,205.5,96.1,205.5z M115.1,203.1c-0.3,0-0.5-0.1-0.7-0.4c-0.2-0.4-0.1-0.8,0.3-1.1l1.7-1
			c0.4-0.2,0.8-0.1,1.1,0.3c0.2,0.4,0.1,0.8-0.3,1.1l-1.7,1C115.4,203.1,115.2,203.1,115.1,203.1z M90.9,202.5c-0.1,0-0.3,0-0.4-0.1
			l-1.7-1c-0.4-0.2-0.5-0.7-0.3-1.1c0.2-0.4,0.7-0.5,1.1-0.3l1.7,1c0.4,0.2,0.5,0.7,0.3,1.1C91.4,202.3,91.2,202.5,90.9,202.5z
			 M120.3,200.1c-0.3,0-0.5-0.1-0.7-0.4c-0.2-0.4-0.1-0.8,0.3-1.1l1.7-1c0.4-0.2,0.8-0.1,1.1,0.3c0.2,0.4,0.1,0.8-0.3,1.1l-1.7,1
			C120.6,200.1,120.4,200.1,120.3,200.1z M125.5,197.1c-0.3,0-0.5-0.1-0.7-0.4c-0.2-0.4-0.1-0.8,0.3-1.1l1.7-1
			c0.4-0.2,0.8-0.1,1.1,0.3c0.2,0.4,0.1,0.8-0.3,1.1l-1.7,1C125.8,197.1,125.6,197.1,125.5,197.1z M130.7,194.2
			c-0.3,0-0.5-0.1-0.7-0.4c-0.2-0.4-0.1-0.8,0.3-1.1l1.7-1c0.4-0.2,0.8-0.1,1.1,0.3c0.2,0.4,0.1,0.8-0.3,1.1l-1.7,1
			C131,194.1,130.8,194.2,130.7,194.2z M135.9,191.2c-0.3,0-0.5-0.1-0.7-0.4c-0.2-0.4-0.1-0.8,0.3-1.1l1.7-1
			c0.4-0.2,0.8-0.1,1.1,0.3c0.2,0.4,0.1,0.8-0.3,1.1l-1.7,1C136.2,191.1,136,191.2,135.9,191.2z M141.1,188.2
			c-0.3,0-0.5-0.1-0.7-0.4c-0.2-0.4-0.1-0.8,0.3-1.1l1.7-1c0.4-0.2,0.8-0.1,1.1,0.3c0.2,0.4,0.1,0.8-0.3,1.1l-1.7,1
			C141.4,188.2,141.2,188.2,141.1,188.2z M146.3,185.2c-0.3,0-0.5-0.1-0.7-0.4c-0.2-0.4-0.1-0.8,0.3-1.1l1.7-1
			c0.4-0.2,0.8-0.1,1.1,0.3c0.2,0.4,0.1,0.8-0.3,1.1l-1.7,1C146.6,185.2,146.4,185.2,146.3,185.2z M151.5,182.2
			c-0.3,0-0.5-0.1-0.7-0.4c-0.2-0.4-0.1-0.8,0.3-1.1l1.7-1c0.4-0.2,0.8-0.1,1.1,0.3c0.2,0.4,0.1,0.8-0.3,1.1l-1.7,1
			C151.8,182.2,151.7,182.2,151.5,182.2z M156.7,179.2c-0.3,0-0.5-0.1-0.7-0.4c-0.2-0.4-0.1-0.8,0.3-1.1l1.7-1
			c0.4-0.2,0.8-0.1,1.1,0.3c0.2,0.4,0.1,0.8-0.3,1.1l-1.7,1C157,179.2,156.9,179.2,156.7,179.2z M161.9,176.3
			c-0.3,0-0.5-0.1-0.7-0.4c-0.2-0.4-0.1-0.8,0.3-1.1l1.7-1c0.4-0.2,0.8-0.1,1.1,0.3c0.2,0.4,0.1,0.8-0.3,1.1l-1.7,1
			C162.2,176.2,162.1,176.3,161.9,176.3z M167.1,173.3c-0.3,0-0.5-0.1-0.7-0.4c-0.2-0.4-0.1-0.8,0.3-1.1l1.7-1
			c0.4-0.2,0.8-0.1,1.1,0.3c0.2,0.4,0.1,0.8-0.3,1.1l-1.7,1C167.4,173.2,167.3,173.3,167.1,173.3z M172.3,170.3
			c-0.3,0-0.5-0.1-0.7-0.4c-0.2-0.4-0.1-0.8,0.3-1.1l1.7-1c0.4-0.2,0.8-0.1,1.1,0.3c0.2,0.4,0.1,0.8-0.3,1.1l-1.7,1
			C172.6,170.3,172.5,170.3,172.3,170.3z M177.6,167.3c-0.3,0-0.5-0.1-0.7-0.4c-0.2-0.4-0.1-0.8,0.3-1.1l1.7-1
			c0.4-0.2,0.8-0.1,1.1,0.3c0.2,0.4,0.1,0.8-0.3,1.1l-1.7,1C177.8,167.3,177.7,167.3,177.6,167.3z M182.8,164.3
			c-0.3,0-0.5-0.1-0.7-0.4c-0.2-0.4-0.1-0.8,0.3-1.1l1.7-1c0.4-0.2,0.8-0.1,1.1,0.3c0.2,0.4,0.1,0.8-0.3,1.1l-1.7,1
			C183,164.3,182.9,164.3,182.8,164.3z M188,161.3c-0.3,0-0.5-0.1-0.7-0.4c-0.2-0.4-0.1-0.8,0.3-1.1l1.7-1c0.4-0.2,0.8-0.1,1.1,0.3
			c0.2,0.4,0.1,0.8-0.3,1.1l-1.7,1C188.2,161.3,188.1,161.3,188,161.3z M193.2,158.4c-0.3,0-0.5-0.1-0.7-0.4
			c-0.2-0.4-0.1-0.8,0.3-1.1l1.7-1c0.4-0.2,0.8-0.1,1.1,0.3c0.2,0.4,0.1,0.8-0.3,1.1l-1.7,1C193.4,158.3,193.3,158.4,193.2,158.4z
			 M198.4,155.4c-0.3,0-0.5-0.1-0.7-0.4c-0.2-0.4-0.1-0.8,0.3-1.1l1.7-1c0.4-0.2,0.8-0.1,1.1,0.3c0.2,0.4,0.1,0.8-0.3,1.1l-1.7,1
			C198.6,155.3,198.5,155.4,198.4,155.4z M203.6,152.4c-0.3,0-0.5-0.1-0.7-0.4c-0.2-0.4-0.1-0.8,0.3-1.1l1.7-1
			c0.4-0.2,0.8-0.1,1.1,0.3c0.2,0.4,0.1,0.8-0.3,1.1l-1.7,1C203.8,152.4,203.7,152.4,203.6,152.4z M208.8,149.4
			c-0.3,0-0.5-0.1-0.7-0.4c-0.2-0.4-0.1-0.8,0.3-1.1l1.7-1c0.4-0.2,0.8-0.1,1.1,0.3c0.2,0.4,0.1,0.8-0.3,1.1l-1.7,1
			C209,149.4,208.9,149.4,208.8,149.4z M214,146.4c-0.3,0-0.5-0.1-0.7-0.4c-0.2-0.4-0.1-0.8,0.3-1.1l1.7-1c0.4-0.2,0.8-0.1,1.1,0.3
			c0.2,0.4,0.1,0.8-0.3,1.1l-1.7,1C214.3,146.4,214.1,146.4,214,146.4z M219.2,143.4c-0.3,0-0.5-0.1-0.7-0.4
			c-0.2-0.4-0.1-0.8,0.3-1.1l1.7-1c0.4-0.2,0.8-0.1,1.1,0.3c0.2,0.4,0.1,0.8-0.3,1.1l-1.7,1C219.5,143.4,219.3,143.4,219.2,143.4z
			 M224.4,140.5c-0.3,0-0.5-0.1-0.7-0.4c-0.2-0.4-0.1-0.8,0.3-1.1l1.7-1c0.4-0.2,0.8-0.1,1.1,0.3c0.2,0.4,0.1,0.8-0.3,1.1l-1.7,1
			C224.7,140.4,224.5,140.5,224.4,140.5z M229.6,137.5c-0.3,0-0.5-0.1-0.7-0.4c-0.2-0.4-0.1-0.8,0.3-1.1l1.7-1
			c0.4-0.2,0.8-0.1,1.1,0.3c0.2,0.4,0.1,0.8-0.3,1.1l-1.7,1C229.9,137.4,229.7,137.5,229.6,137.5z M234.8,134.5
			c-0.3,0-0.5-0.1-0.7-0.4c-0.2-0.4-0.1-0.8,0.3-1.1l1.7-1c0.4-0.2,0.8-0.1,1.1,0.3c0.2,0.4,0.1,0.8-0.3,1.1l-1.7,1
			C235.1,134.5,234.9,134.5,234.8,134.5z M240,131.5c-0.3,0-0.5-0.1-0.7-0.4c-0.2-0.4-0.1-0.8,0.3-1.1l1.7-1
			c0.4-0.2,0.8-0.1,1.1,0.3c0.2,0.4,0.1,0.8-0.3,1.1l-1.7,1C240.3,131.5,240.1,131.5,240,131.5z M245.2,128.5
			c-0.3,0-0.5-0.1-0.7-0.4c-0.2-0.4-0.1-0.8,0.3-1.1l1.7-1c0.4-0.2,0.8-0.1,1.1,0.3c0.2,0.4,0.1,0.8-0.3,1.1l-1.7,1
			C245.5,128.5,245.4,128.5,245.2,128.5z M250.4,125.5c-0.3,0-0.5-0.1-0.7-0.4c-0.2-0.4-0.1-0.8,0.3-1.1l1.7-1
			c0.4-0.2,0.8-0.1,1.1,0.3c0.2,0.4,0.1,0.8-0.3,1.1l-1.7,1C250.7,125.5,250.6,125.5,250.4,125.5z M255.6,122.5
			c-0.3,0-0.5-0.1-0.7-0.4c-0.2-0.4-0.1-0.8,0.3-1.1l1.7-1c0.4-0.2,0.8-0.1,1.1,0.3c0.2,0.4,0.1,0.8-0.3,1.1l-1.7,1
			C255.9,122.5,255.8,122.5,255.6,122.5z M260.8,119.6c-0.3,0-0.5-0.1-0.7-0.4c-0.2-0.4-0.1-0.8,0.3-1.1l1.7-1
			c0.4-0.2,0.8-0.1,1.1,0.3c0.2,0.4,0.1,0.8-0.3,1.1l-1.7,1C261.1,119.5,261,119.6,260.8,119.6z M266,116.6c-0.3,0-0.5-0.1-0.7-0.4
			c-0.2-0.4-0.1-0.8,0.3-1.1l1.7-1c0.4-0.2,0.8-0.1,1.1,0.3c0.2,0.4,0.1,0.8-0.3,1.1l-1.7,1C266.3,116.5,266.2,116.6,266,116.6z
			 M271.2,113.6c-0.3,0-0.5-0.1-0.7-0.4c-0.2-0.4-0.1-0.8,0.3-1.1l1.7-1c0.4-0.2,0.8-0.1,1.1,0.3c0.2,0.4,0.1,0.8-0.3,1.1l-1.7,1
			C271.5,113.6,271.4,113.6,271.2,113.6z M276.5,110.6c-0.3,0-0.5-0.1-0.7-0.4c-0.2-0.4-0.1-0.8,0.3-1.1l1.7-1
			c0.4-0.2,0.8-0.1,1.1,0.3c0.2,0.4,0.1,0.8-0.3,1.1l-1.7,1C276.7,110.6,276.6,110.6,276.5,110.6z M281.7,107.6
			c-0.3,0-0.5-0.1-0.7-0.4c-0.2-0.4-0.1-0.8,0.3-1.1l1.7-1c0.4-0.2,0.8-0.1,1.1,0.3c0.2,0.4,0.1,0.8-0.3,1.1l-1.7,1
			C281.9,107.6,281.8,107.6,281.7,107.6z M286.9,104.6c-0.3,0-0.5-0.1-0.7-0.4c-0.2-0.4-0.1-0.8,0.3-1.1l1.7-1
			c0.4-0.2,0.8-0.1,1.1,0.3c0.2,0.4,0.1,0.8-0.3,1.1l-1.7,1C287.1,104.6,287,104.6,286.9,104.6z M292,101.7c-0.1,0-0.3,0-0.4-0.1
			l-1.7-1c-0.4-0.2-0.5-0.7-0.3-1.1c0.2-0.4,0.7-0.5,1.1-0.3l1.7,1c0.4,0.2,0.5,0.7,0.3,1.1C292.5,101.5,292.2,101.7,292,101.7z
			 M286.8,98.6c-0.1,0-0.3,0-0.4-0.1l-1.7-1c-0.4-0.2-0.5-0.7-0.3-1.1s0.7-0.5,1.1-0.3l1.7,1c0.4,0.2,0.5,0.7,0.3,1.1
			C287.4,98.4,287.1,98.6,286.8,98.6z M281.7,95.5c-0.1,0-0.3,0-0.4-0.1l-1.7-1c-0.4-0.2-0.5-0.7-0.3-1.1c0.2-0.4,0.7-0.5,1.1-0.3
			l1.7,1c0.4,0.2,0.5,0.7,0.3,1.1C282.2,95.4,281.9,95.5,281.7,95.5z M276.5,92.4c-0.1,0-0.3,0-0.4-0.1l-1.7-1
			c-0.4-0.2-0.5-0.7-0.3-1.1c0.2-0.4,0.7-0.5,1.1-0.3l1.7,1c0.4,0.2,0.5,0.7,0.3,1.1C277.1,92.3,276.8,92.4,276.5,92.4z M271.4,89.3
			c-0.1,0-0.3,0-0.4-0.1l-1.7-1c-0.4-0.2-0.5-0.7-0.3-1.1c0.2-0.4,0.7-0.5,1.1-0.3l1.7,1c0.4,0.2,0.5,0.7,0.3,1.1
			C271.9,89.2,271.6,89.3,271.4,89.3z M266.2,86.3c-0.1,0-0.3,0-0.4-0.1l-1.7-1c-0.4-0.2-0.5-0.7-0.3-1.1c0.2-0.4,0.7-0.5,1.1-0.3
			l1.7,1c0.4,0.2,0.5,0.7,0.3,1.1C266.8,86.1,266.5,86.3,266.2,86.3z M261.1,83.2c-0.1,0-0.3,0-0.4-0.1l-1.7-1
			c-0.4-0.2-0.5-0.7-0.3-1.1c0.2-0.4,0.7-0.5,1.1-0.3l1.7,1c0.4,0.2,0.5,0.7,0.3,1.1C261.6,83,261.4,83.2,261.1,83.2z M255.9,80.1
			c-0.1,0-0.3,0-0.4-0.1l-1.7-1c-0.4-0.2-0.5-0.7-0.3-1.1c0.2-0.4,0.7-0.5,1.1-0.3l1.7,1c0.4,0.2,0.5,0.7,0.3,1.1
			C256.5,80,256.2,80.1,255.9,80.1z M250.8,77c-0.1,0-0.3,0-0.4-0.1l-1.7-1c-0.4-0.2-0.5-0.7-0.3-1.1c0.2-0.4,0.7-0.5,1.1-0.3l1.7,1
			c0.4,0.2,0.5,0.7,0.3,1.1C251.3,76.9,251.1,77,250.8,77z M245.6,73.9c-0.1,0-0.3,0-0.4-0.1l-1.7-1c-0.4-0.2-0.5-0.7-0.3-1.1
			c0.2-0.4,0.7-0.5,1.1-0.3l1.7,1c0.4,0.2,0.5,0.7,0.3,1.1C246.2,73.8,245.9,73.9,245.6,73.9z M240.5,70.9c-0.1,0-0.3,0-0.4-0.1
			l-1.7-1c-0.4-0.2-0.5-0.7-0.3-1.1c0.2-0.4,0.7-0.5,1.1-0.3l1.7,1c0.4,0.2,0.5,0.7,0.3,1.1C241,70.7,240.8,70.9,240.5,70.9z
			 M242.3,67.9c-0.3,0-0.5-0.1-0.7-0.4c-0.2-0.4-0.1-0.8,0.3-1.1l1.8-1c0.4-0.2,0.8-0.1,1.1,0.3c0.2,0.4,0.1,0.8-0.3,1.1l-1.8,1
			C242.5,67.9,242.4,67.9,242.3,67.9z M351.5,66.8c-0.3,0-0.5-0.1-0.7-0.4c-0.2-0.4-0.1-0.8,0.3-1.1l1.4-0.8
			c0.4-0.2,0.8-0.1,1.1,0.3c0.2,0.4,0.1,0.8-0.3,1.1l-1.4,0.8C351.7,66.8,351.6,66.8,351.5,66.8z M247.6,65.1
			c-0.3,0-0.5-0.1-0.7-0.4c-0.2-0.4-0.1-0.8,0.3-1.1l1.8-1c0.4-0.2,0.8-0.1,1.1,0.3c0.2,0.4,0.1,0.8-0.3,1.1l-1.8,1
			C247.8,65.1,247.7,65.1,247.6,65.1z M356.3,64c-0.3,0-0.5-0.1-0.7-0.4c-0.2-0.4-0.1-0.8,0.3-1.1l1.7-1c0.4-0.2,0.8-0.1,1.1,0.3
			s0.1,0.8-0.3,1.1l-1.7,1C356.6,64,356.4,64,356.3,64z M252.8,62.2c-0.3,0-0.5-0.1-0.7-0.4c-0.2-0.4-0.1-0.8,0.3-1.1l1.8-1
			c0.4-0.2,0.8-0.1,1.1,0.3c0.2,0.4,0.1,0.8-0.3,1.1l-1.8,1C253.1,62.2,253,62.2,252.8,62.2z M361.5,61c-0.3,0-0.5-0.1-0.7-0.4
			c-0.2-0.4-0.1-0.8,0.3-1.1l1.7-1c0.4-0.2,0.8-0.1,1.1,0.3c0.2,0.4,0.1,0.8-0.3,1.1l-1.7,1C361.7,61,361.6,61,361.5,61z
			 M258.1,59.4c-0.3,0-0.5-0.1-0.7-0.4c-0.2-0.4-0.1-0.8,0.3-1.1l1.8-1c0.4-0.2,0.8-0.1,1.1,0.3c0.2,0.4,0.1,0.8-0.3,1.1l-1.8,1
			C258.4,59.4,258.3,59.4,258.1,59.4z M366.7,58c-0.3,0-0.5-0.1-0.7-0.4c-0.2-0.4-0.1-0.8,0.3-1.1l1.7-1c0.4-0.2,0.8-0.1,1.1,0.3
			s0.1,0.8-0.3,1.1l-1.7,1C366.9,57.9,366.8,58,366.7,58z M263.4,56.5c-0.3,0-0.5-0.1-0.7-0.4c-0.2-0.4-0.1-0.8,0.3-1.1l1.8-1
			c0.4-0.2,0.8-0.1,1.1,0.3s0.1,0.8-0.3,1.1l-1.8,1C263.7,56.5,263.5,56.5,263.4,56.5z M371.8,54.9c-0.3,0-0.5-0.1-0.7-0.4
			c-0.2-0.4-0.1-0.8,0.3-1.1l1.7-1c0.4-0.2,0.8-0.1,1.1,0.3c0.2,0.4,0.1,0.8-0.3,1.1l-1.7,1C372.1,54.9,372,54.9,371.8,54.9z
			 M268.7,53.7c-0.3,0-0.5-0.1-0.7-0.4c-0.2-0.4-0.1-0.8,0.3-1.1l1.8-1c0.4-0.2,0.8-0.1,1.1,0.3c0.2,0.4,0.1,0.8-0.3,1.1l-1.8,1
			C268.9,53.6,268.8,53.7,268.7,53.7z M377,51.9c-0.3,0-0.5-0.1-0.7-0.4c-0.2-0.4-0.1-0.8,0.3-1.1l1.7-1c0.4-0.2,0.8-0.1,1.1,0.3
			s0.1,0.8-0.3,1.1l-1.7,1C377.3,51.9,377.1,51.9,377,51.9z M274,50.8c-0.3,0-0.5-0.1-0.7-0.4c-0.2-0.4-0.1-0.8,0.3-1.1l1.8-1
			c0.4-0.2,0.8-0.1,1.1,0.3s0.1,0.8-0.3,1.1l-1.8,1C274.2,50.8,274.1,50.8,274,50.8z M382.2,48.9c-0.3,0-0.5-0.1-0.7-0.4
			c-0.2-0.4-0.1-0.8,0.3-1.1l1.7-1c0.4-0.2,0.8-0.1,1.1,0.3c0.2,0.4,0.1,0.8-0.3,1.1l-1.7,1C382.5,48.9,382.3,48.9,382.2,48.9z
			 M279.2,48c-0.3,0-0.5-0.1-0.7-0.4c-0.2-0.4-0.1-0.8,0.3-1.1l1.8-1c0.4-0.2,0.8-0.1,1.1,0.3s0.1,0.8-0.3,1.1l-1.8,1
			C279.5,47.9,279.4,48,279.2,48z M387.4,45.9c-0.3,0-0.5-0.1-0.7-0.4c-0.2-0.4-0.1-0.8,0.3-1.1l1.7-1c0.4-0.2,0.8-0.1,1.1,0.3
			c0.2,0.4,0.1,0.8-0.3,1.1l-1.7,1C387.6,45.8,387.5,45.9,387.4,45.9z M284.5,45.1c-0.3,0-0.5-0.1-0.7-0.4c-0.2-0.4-0.1-0.8,0.3-1.1
			l1.8-1c0.4-0.2,0.8-0.1,1.1,0.3c0.2,0.4,0.1,0.8-0.3,1.1l-1.8,1C284.8,45.1,284.6,45.1,284.5,45.1z M385.7,42.8
			c-0.1,0-0.3,0-0.4-0.1l-1.7-1c-0.4-0.2-0.5-0.7-0.3-1.1c0.2-0.4,0.7-0.5,1.1-0.3l1.7,1c0.4,0.2,0.5,0.7,0.3,1.1
			C386.2,42.7,386,42.8,385.7,42.8z M289.8,42.3c-0.3,0-0.5-0.1-0.7-0.4c-0.2-0.4-0.1-0.8,0.3-1.1l1.8-1c0.4-0.2,0.8-0.1,1.1,0.3
			c0.2,0.4,0.1,0.8-0.3,1.1l-1.8,1C290.1,42.2,289.9,42.3,289.8,42.3z M380.5,39.8c-0.1,0-0.3,0-0.4-0.1l-1.7-1
			c-0.4-0.2-0.5-0.7-0.3-1.1c0.2-0.4,0.7-0.5,1.1-0.3l1.7,1c0.4,0.2,0.5,0.7,0.3,1.1C381.1,39.7,380.8,39.8,380.5,39.8z M295.1,39.4
			c-0.3,0-0.5-0.1-0.7-0.4c-0.2-0.4-0.1-0.8,0.3-1.1l1.8-1c0.4-0.2,0.8-0.1,1.1,0.3c0.2,0.4,0.1,0.8-0.3,1.1l-1.8,1
			C295.3,39.4,295.2,39.4,295.1,39.4z M375.3,36.8c-0.1,0-0.3,0-0.4-0.1l-1.7-1c-0.4-0.2-0.5-0.7-0.3-1.1s0.7-0.5,1.1-0.3l1.7,1
			c0.4,0.2,0.5,0.7,0.3,1.1C375.9,36.6,375.6,36.8,375.3,36.8z M300.4,36.6c-0.3,0-0.5-0.1-0.7-0.4c-0.2-0.4-0.1-0.8,0.3-1.1l1.8-1
			c0.4-0.2,0.8-0.1,1.1,0.3c0.2,0.4,0.1,0.8-0.3,1.1l-1.8,1C300.6,36.5,300.5,36.6,300.4,36.6z M370.2,33.8c-0.1,0-0.3,0-0.4-0.1
			l-1.7-1c-0.4-0.2-0.5-0.7-0.3-1.1c0.2-0.4,0.7-0.5,1.1-0.3l1.7,1c0.4,0.2,0.5,0.7,0.3,1.1C370.7,33.6,370.4,33.8,370.2,33.8z
			 M305.6,33.7c-0.3,0-0.5-0.1-0.7-0.4c-0.2-0.4-0.1-0.8,0.3-1.1l1.8-1c0.4-0.2,0.8-0.1,1.1,0.3c0.2,0.4,0.1,0.8-0.3,1.1l-1.8,1
			C305.9,33.7,305.8,33.7,305.6,33.7z M310.9,30.9c-0.3,0-0.5-0.1-0.7-0.4c-0.2-0.4-0.1-0.8,0.3-1.1l1.8-1c0.4-0.2,0.8-0.1,1.1,0.3
			c0.2,0.4,0.1,0.8-0.3,1.1l-1.8,1C311.2,30.8,311,30.9,310.9,30.9z M365,30.7c-0.1,0-0.3,0-0.4-0.1l-1.7-1
			c-0.4-0.2-0.5-0.7-0.3-1.1c0.2-0.4,0.7-0.5,1.1-0.3l1.7,1c0.4,0.2,0.5,0.7,0.3,1.1C365.5,30.6,365.3,30.7,365,30.7z M316.2,28
			c-0.3,0-0.5-0.1-0.7-0.4c-0.2-0.4-0.1-0.8,0.3-1.1l1.8-1c0.4-0.2,0.8-0.1,1.1,0.3c0.2,0.4,0.1,0.8-0.3,1.1l-1.8,1
			C316.5,28,316.3,28,316.2,28z M359.8,27.7c-0.1,0-0.3,0-0.4-0.1l-1.7-1c-0.4-0.2-0.5-0.7-0.3-1.1c0.2-0.4,0.7-0.5,1.1-0.3l1.7,1
			c0.4,0.2,0.5,0.7,0.3,1.1C360.3,27.6,360.1,27.7,359.8,27.7z M321.5,25.2c-0.3,0-0.5-0.1-0.7-0.4c-0.2-0.4-0.1-0.8,0.3-1.1l1.8-1
			c0.4-0.2,0.8-0.1,1.1,0.3c0.2,0.4,0.1,0.8-0.3,1.1l-1.8,1C321.7,25.1,321.6,25.2,321.5,25.2z M354.6,24.7c-0.1,0-0.3,0-0.4-0.1
			l-1.7-1c-0.4-0.2-0.5-0.7-0.3-1.1c0.2-0.4,0.7-0.5,1.1-0.3l1.7,1c0.4,0.2,0.5,0.7,0.3,1.1C355.1,24.5,354.9,24.7,354.6,24.7z
			 M326.8,22.3c-0.3,0-0.5-0.1-0.7-0.4c-0.2-0.4-0.1-0.8,0.3-1.1l1.8-1c0.4-0.2,0.8-0.1,1.1,0.3c0.2,0.4,0.1,0.8-0.3,1.1l-1.8,1
			C327,22.3,326.9,22.3,326.8,22.3z M349.4,21.7c-0.1,0-0.3,0-0.4-0.1l-1.7-1c-0.4-0.2-0.5-0.7-0.3-1.1c0.2-0.4,0.7-0.5,1.1-0.3
			l1.7,1c0.4,0.2,0.5,0.7,0.3,1.1C350,21.5,349.7,21.7,349.4,21.7z M332,19.5c-0.3,0-0.5-0.1-0.7-0.4c-0.2-0.4-0.1-0.8,0.3-1.1
			l1.8-1c0.4-0.2,0.8-0.1,1.1,0.3c0.2,0.4,0.1,0.8-0.3,1.1l-1.8,1C332.3,19.4,332.2,19.5,332,19.5z M344.3,18.6
			c-0.1,0-0.3,0-0.4-0.1l-1.7-1c-0.4-0.2-0.5-0.7-0.3-1.1c0.2-0.4,0.7-0.5,1.1-0.3l1.7,1c0.4,0.2,0.5,0.7,0.3,1.1
			C344.8,18.5,344.5,18.6,344.3,18.6z M337.3,16.6c-0.3,0-0.5-0.1-0.7-0.4c-0.2-0.4-0.1-0.8,0.3-1.1l1.8-1c0.4-0.2,0.8-0.1,1.1,0.3
			c0.2,0.4,0.1,0.8-0.3,1.1l-1.8,1C337.6,16.6,337.4,16.6,337.3,16.6z"/>
	</g>
	<g>
		<path class="st0" d="M395.2,291.9c-0.3,0-0.5-0.1-0.7-0.4c-0.2-0.4-0.1-0.8,0.3-1.1l1.7-1c0.4-0.2,0.8-0.1,1.1,0.3
			c0.2,0.4,0.1,0.8-0.3,1.1l-1.7,1C395.5,291.8,395.4,291.9,395.2,291.9z M400.4,288.9c-0.3,0-0.5-0.1-0.7-0.4
			c-0.2-0.4-0.1-0.8,0.3-1.1l1.7-1c0.4-0.2,0.8-0.1,1.1,0.3c0.2,0.4,0.1,0.8-0.3,1.1l-1.7,1C400.7,288.8,400.6,288.9,400.4,288.9z
			 M405.6,285.9c-0.3,0-0.5-0.1-0.7-0.4c-0.2-0.4-0.1-0.8,0.3-1.1l1.7-1c0.4-0.2,0.8-0.1,1.1,0.3c0.2,0.4,0.1,0.8-0.3,1.1l-1.7,1
			C405.9,285.8,405.8,285.9,405.6,285.9z M410.8,282.9c-0.3,0-0.5-0.1-0.7-0.4c-0.2-0.4-0.1-0.8,0.3-1.1l1.7-1
			c0.4-0.2,0.8-0.1,1.1,0.3c0.2,0.4,0.1,0.8-0.3,1.1l-1.7,1C411.1,282.8,411,282.9,410.8,282.9z M416,279.9c-0.3,0-0.5-0.1-0.7-0.4
			c-0.2-0.4-0.1-0.8,0.3-1.1l1.7-1c0.4-0.2,0.8-0.1,1.1,0.3c0.2,0.4,0.1,0.8-0.3,1.1l-1.7,1C416.3,279.8,416.2,279.9,416,279.9z
			 M421.2,276.9c-0.3,0-0.5-0.1-0.7-0.4c-0.2-0.4-0.1-0.8,0.3-1.1l1.7-1c0.4-0.2,0.8-0.1,1.1,0.3c0.2,0.4,0.1,0.8-0.3,1.1l-1.7,1
			C421.5,276.9,421.4,276.9,421.2,276.9z M426.4,273.9c-0.3,0-0.5-0.1-0.7-0.4c-0.2-0.4-0.1-0.8,0.3-1.1l1.7-1
			c0.4-0.2,0.8-0.1,1.1,0.3c0.2,0.4,0.1,0.8-0.3,1.1l-1.7,1C426.7,273.9,426.6,273.9,426.4,273.9z M431.6,270.9
			c-0.3,0-0.5-0.1-0.7-0.4c-0.2-0.4-0.1-0.8,0.3-1.1l1.7-1c0.4-0.2,0.8-0.1,1.1,0.3c0.2,0.4,0.1,0.8-0.3,1.1l-1.7,1
			C431.9,270.9,431.8,270.9,431.6,270.9z M436.8,267.9c-0.3,0-0.5-0.1-0.7-0.4c-0.2-0.4-0.1-0.8,0.3-1.1l1.7-1
			c0.4-0.2,0.8-0.1,1.1,0.3c0.2,0.4,0.1,0.8-0.3,1.1l-1.7,1C437.1,267.9,437,267.9,436.8,267.9z M442,264.9c-0.3,0-0.5-0.1-0.7-0.4
			c-0.2-0.4-0.1-0.8,0.3-1.1l1.7-1c0.4-0.2,0.8-0.1,1.1,0.3c0.2,0.4,0.1,0.8-0.3,1.1l-1.7,1C442.3,264.9,442.2,264.9,442,264.9z
			 M447.2,261.9c-0.3,0-0.5-0.1-0.7-0.4c-0.2-0.4-0.1-0.8,0.3-1.1l1.7-1c0.4-0.2,0.8-0.1,1.1,0.3c0.2,0.4,0.1,0.8-0.3,1.1l-1.7,1
			C447.5,261.9,447.4,261.9,447.2,261.9z M452.4,258.9c-0.3,0-0.5-0.1-0.7-0.4c-0.2-0.4-0.1-0.8,0.3-1.1l1.7-1
			c0.4-0.2,0.8-0.1,1.1,0.3c0.2,0.4,0.1,0.8-0.3,1.1l-1.7,1C452.7,258.9,452.6,258.9,452.4,258.9z M457.6,255.9
			c-0.3,0-0.5-0.1-0.7-0.4c-0.2-0.4-0.1-0.8,0.3-1.1l1.7-1c0.4-0.2,0.8-0.1,1.1,0.3c0.2,0.4,0.1,0.8-0.3,1.1l-1.7,1
			C457.9,255.9,457.8,255.9,457.6,255.9z M462.8,252.9c-0.3,0-0.5-0.1-0.7-0.4c-0.2-0.4-0.1-0.8,0.3-1.1l1.7-1
			c0.4-0.2,0.8-0.1,1.1,0.3c0.2,0.4,0.1,0.8-0.3,1.1l-1.7,1C463.1,252.9,462.9,252.9,462.8,252.9z M468,249.9
			c-0.3,0-0.5-0.1-0.7-0.4c-0.2-0.4-0.1-0.8,0.3-1.1l1.7-1c0.4-0.2,0.8-0.1,1.1,0.3c0.2,0.4,0.1,0.8-0.3,1.1l-1.7,1
			C468.3,249.9,468.1,249.9,468,249.9z M473.2,246.9c-0.3,0-0.5-0.1-0.7-0.4c-0.2-0.4-0.1-0.8,0.3-1.1l1.7-1
			c0.4-0.2,0.8-0.1,1.1,0.3c0.2,0.4,0.1,0.8-0.3,1.1l-1.7,1C473.5,246.9,473.3,246.9,473.2,246.9z M478.4,243.9
			c-0.3,0-0.5-0.1-0.7-0.4c-0.2-0.4-0.1-0.8,0.3-1.1l1.7-1c0.4-0.2,0.8-0.1,1.1,0.3c0.2,0.4,0.1,0.8-0.3,1.1l-1.7,1
			C478.7,243.9,478.5,243.9,478.4,243.9z M480.2,241c-0.1,0-0.3,0-0.4-0.1l-1.7-1c-0.4-0.2-0.5-0.7-0.3-1.1c0.2-0.4,0.7-0.5,1.1-0.3
			l1.7,1c0.4,0.2,0.5,0.7,0.3,1.1C480.8,240.8,480.5,241,480.2,241z M475,238c-0.1,0-0.3,0-0.4-0.1l-1.7-1c-0.4-0.2-0.5-0.7-0.3-1.1
			c0.2-0.4,0.7-0.5,1.1-0.3l1.7,1c0.4,0.2,0.5,0.7,0.3,1.1C475.5,237.9,475.3,238,475,238z M469.8,235.1c-0.1,0-0.3,0-0.4-0.1
			l-1.7-1c-0.4-0.2-0.5-0.7-0.3-1.1c0.2-0.4,0.7-0.5,1.1-0.3l1.7,1c0.4,0.2,0.5,0.7,0.3,1.1C470.3,235,470,235.1,469.8,235.1z
			 M464.5,232.2c-0.1,0-0.3,0-0.4-0.1l-1.7-1c-0.4-0.2-0.5-0.7-0.3-1.1c0.2-0.4,0.7-0.5,1.1-0.3l1.7,1c0.4,0.2,0.5,0.7,0.3,1.1
			C465.1,232,464.8,232.2,464.5,232.2z M459.3,229.2c-0.1,0-0.3,0-0.4-0.1l-1.7-1c-0.4-0.2-0.5-0.7-0.3-1.1c0.2-0.4,0.7-0.5,1.1-0.3
			l1.7,1c0.4,0.2,0.5,0.7,0.3,1.1C459.8,229.1,459.6,229.2,459.3,229.2z M454,226.3c-0.1,0-0.3,0-0.4-0.1l-1.7-1
			c-0.4-0.2-0.5-0.7-0.3-1.1c0.2-0.4,0.7-0.5,1.1-0.3l1.7,1c0.4,0.2,0.5,0.7,0.3,1.1C454.6,226.2,454.3,226.3,454,226.3z
			 M448.8,223.4c-0.1,0-0.3,0-0.4-0.1l-1.7-1c-0.4-0.2-0.5-0.7-0.3-1.1c0.2-0.4,0.7-0.5,1.1-0.3l1.7,1c0.4,0.2,0.5,0.7,0.3,1.1
			C449.3,223.2,449.1,223.4,448.8,223.4z M443.6,220.4c-0.1,0-0.3,0-0.4-0.1l-1.7-1c-0.4-0.2-0.5-0.7-0.3-1.1
			c0.2-0.4,0.7-0.5,1.1-0.3l1.7,1c0.4,0.2,0.5,0.7,0.3,1.1C444.1,220.3,443.8,220.4,443.6,220.4z M438.3,217.5c-0.1,0-0.3,0-0.4-0.1
			l-1.7-1c-0.4-0.2-0.5-0.7-0.3-1.1c0.2-0.4,0.7-0.5,1.1-0.3l1.7,1c0.4,0.2,0.5,0.7,0.3,1.1C438.9,217.4,438.6,217.5,438.3,217.5z
			 M433.1,214.6c-0.1,0-0.3,0-0.4-0.1l-1.7-1c-0.4-0.2-0.5-0.7-0.3-1.1c0.2-0.4,0.7-0.5,1.1-0.3l1.7,1c0.4,0.2,0.5,0.7,0.3,1.1
			C433.6,214.4,433.4,214.6,433.1,214.6z M427.9,211.6c-0.1,0-0.3,0-0.4-0.1l-1.7-1c-0.4-0.2-0.5-0.7-0.3-1.1
			c0.2-0.4,0.7-0.5,1.1-0.3l1.7,1c0.4,0.2,0.5,0.7,0.3,1.1C428.4,211.5,428.1,211.6,427.9,211.6z M422.6,208.7c-0.1,0-0.3,0-0.4-0.1
			l-1.7-1c-0.4-0.2-0.5-0.7-0.3-1.1c0.2-0.4,0.7-0.5,1.1-0.3l1.7,1c0.4,0.2,0.5,0.7,0.3,1.1C423.2,208.6,422.9,208.7,422.6,208.7z
			 M417.4,205.8c-0.1,0-0.3,0-0.4-0.1l-1.7-1c-0.4-0.2-0.5-0.7-0.3-1.1c0.2-0.4,0.7-0.5,1.1-0.3l1.7,1c0.4,0.2,0.5,0.7,0.3,1.1
			C417.9,205.6,417.7,205.8,417.4,205.8z M412.2,202.8c-0.1,0-0.3,0-0.4-0.1l-1.7-1c-0.4-0.2-0.5-0.7-0.3-1.1
			c0.2-0.4,0.7-0.5,1.1-0.3l1.7,1c0.4,0.2,0.5,0.7,0.3,1.1C412.7,202.7,412.4,202.8,412.2,202.8z M406.9,199.9c-0.1,0-0.3,0-0.4-0.1
			l-1.7-1c-0.4-0.2-0.5-0.7-0.3-1.1c0.2-0.4,0.7-0.5,1.1-0.3l1.7,1c0.4,0.2,0.5,0.7,0.3,1.1C407.5,199.8,407.2,199.9,406.9,199.9z
			 M401.7,197c-0.1,0-0.3,0-0.4-0.1l-1.7-1c-0.4-0.2-0.5-0.7-0.3-1.1c0.2-0.4,0.7-0.5,1.1-0.3l1.7,1c0.4,0.2,0.5,0.7,0.3,1.1
			C402.2,196.8,402,197,401.7,197z M396.5,194c-0.1,0-0.3,0-0.4-0.1l-1.7-1c-0.4-0.2-0.5-0.7-0.3-1.1c0.2-0.4,0.7-0.5,1.1-0.3l1.7,1
			c0.4,0.2,0.5,0.7,0.3,1.1C397,193.9,396.7,194,396.5,194z M391.2,191.1c-0.1,0-0.3,0-0.4-0.1l-1.7-1c-0.4-0.2-0.5-0.7-0.3-1.1
			c0.2-0.4,0.7-0.5,1.1-0.3l1.7,1c0.4,0.2,0.5,0.7,0.3,1.1C391.8,191,391.5,191.1,391.2,191.1z M386,188.2c-0.1,0-0.3,0-0.4-0.1
			l-1.7-1c-0.4-0.2-0.5-0.7-0.3-1.1c0.2-0.4,0.7-0.5,1.1-0.3l1.7,1c0.4,0.2,0.5,0.7,0.3,1.1C386.5,188,386.3,188.2,386,188.2z
			 M380.8,185.2c-0.1,0-0.3,0-0.4-0.1l-1.7-1c-0.4-0.2-0.5-0.7-0.3-1.1c0.2-0.4,0.7-0.5,1.1-0.3l1.7,1c0.4,0.2,0.5,0.7,0.3,1.1
			C381.3,185.1,381,185.2,380.8,185.2z M375.5,182.3c-0.1,0-0.3,0-0.4-0.1l-1.7-1c-0.4-0.2-0.5-0.7-0.3-1.1c0.2-0.4,0.7-0.5,1.1-0.3
			l1.7,1c0.4,0.2,0.5,0.7,0.3,1.1C376.1,182.2,375.8,182.3,375.5,182.3z M370.3,179.4c-0.1,0-0.3,0-0.4-0.1l-1.7-1
			c-0.4-0.2-0.5-0.7-0.3-1.1c0.2-0.4,0.7-0.5,1.1-0.3l1.7,1c0.4,0.2,0.5,0.7,0.3,1.1C370.8,179.2,370.6,179.4,370.3,179.4z
			 M365.1,176.5c-0.1,0-0.3,0-0.4-0.1l-1.7-1c-0.4-0.2-0.5-0.7-0.3-1.1c0.2-0.4,0.7-0.5,1.1-0.3l1.7,1c0.4,0.2,0.5,0.7,0.3,1.1
			C365.6,176.3,365.3,176.5,365.1,176.5z M359.8,173.5c-0.1,0-0.3,0-0.4-0.1l-1.7-1c-0.4-0.2-0.5-0.7-0.3-1.1
			c0.2-0.4,0.7-0.5,1.1-0.3l1.7,1c0.4,0.2,0.5,0.7,0.3,1.1C360.4,173.4,360.1,173.5,359.8,173.5z M354.6,170.6c-0.1,0-0.3,0-0.4-0.1
			l-1.7-1c-0.4-0.2-0.5-0.7-0.3-1.1c0.2-0.4,0.7-0.5,1.1-0.3l1.7,1c0.4,0.2,0.5,0.7,0.3,1.1C355.1,170.4,354.9,170.6,354.6,170.6z
			 M349.4,167.7c-0.1,0-0.3,0-0.4-0.1l-1.7-1c-0.4-0.2-0.5-0.7-0.3-1.1c0.2-0.4,0.7-0.5,1.1-0.3l1.7,1c0.4,0.2,0.5,0.7,0.3,1.1
			C349.9,167.5,349.6,167.7,349.4,167.7z M344.1,164.7c-0.1,0-0.3,0-0.4-0.1l-1.7-1c-0.4-0.2-0.5-0.7-0.3-1.1
			c0.2-0.4,0.7-0.5,1.1-0.3l1.7,1c0.4,0.2,0.5,0.7,0.3,1.1C344.7,164.6,344.4,164.7,344.1,164.7z M338.9,161.8c-0.1,0-0.3,0-0.4-0.1
			l-1.7-1c-0.4-0.2-0.5-0.7-0.3-1.1c0.2-0.4,0.7-0.5,1.1-0.3l1.7,1c0.4,0.2,0.5,0.7,0.3,1.1C339.4,161.6,339.2,161.8,338.9,161.8z
			 M333.7,158.9c-0.1,0-0.3,0-0.4-0.1l-1.7-1c-0.4-0.2-0.5-0.7-0.3-1.1c0.2-0.4,0.7-0.5,1.1-0.3l1.7,1c0.4,0.2,0.5,0.7,0.3,1.1
			C334.2,158.7,333.9,158.9,333.7,158.9z M328.4,155.9c-0.1,0-0.3,0-0.4-0.1l-1.7-1c-0.4-0.2-0.5-0.7-0.3-1.1
			c0.2-0.4,0.7-0.5,1.1-0.3l1.7,1c0.4,0.2,0.5,0.7,0.3,1.1C329,155.8,328.7,155.9,328.4,155.9z M323.2,153c-0.1,0-0.3,0-0.4-0.1
			l-1.7-1c-0.4-0.2-0.5-0.7-0.3-1.1c0.2-0.4,0.7-0.5,1.1-0.3l1.7,1c0.4,0.2,0.5,0.7,0.3,1.1C323.7,152.8,323.5,153,323.2,153z
			 M318,150.1c-0.1,0-0.3,0-0.4-0.1l-1.7-1c-0.4-0.2-0.5-0.7-0.3-1.1c0.2-0.4,0.7-0.5,1.1-0.3l1.7,1c0.4,0.2,0.5,0.7,0.3,1.1
			C318.5,149.9,318.2,150.1,318,150.1z M312.7,147.1c-0.1,0-0.3,0-0.4-0.1l-1.7-1c-0.4-0.2-0.5-0.7-0.3-1.1c0.2-0.4,0.7-0.5,1.1-0.3
			l1.7,1c0.4,0.2,0.5,0.7,0.3,1.1C313.3,147,313,147.1,312.7,147.1z M307.5,144.2c-0.1,0-0.3,0-0.4-0.1l-1.7-1
			c-0.4-0.2-0.5-0.7-0.3-1.1s0.7-0.5,1.1-0.3l1.7,1c0.4,0.2,0.5,0.7,0.3,1.1C308,144,307.8,144.2,307.5,144.2z"/>
	</g>
	<g>
		<path class="st0" d="M303.3,142.6c-0.1,0-0.3,0-0.4-0.1l-1.7-1c-0.4-0.2-0.5-0.7-0.3-1.1c0.2-0.4,0.7-0.5,1.1-0.3l1.7,1
			c0.4,0.2,0.5,0.7,0.3,1.1C303.8,142.4,303.5,142.6,303.3,142.6z M306.7,142.4c-0.3,0-0.5-0.1-0.7-0.4c-0.2-0.4-0.1-0.8,0.3-1.1
			l1.7-1c0.4-0.2,0.8-0.1,1.1,0.3c0.2,0.4,0.1,0.8-0.3,1.1l-1.7,1C307,142.3,306.8,142.4,306.7,142.4z M298.1,139.5
			c-0.1,0-0.3,0-0.4-0.1l-1.7-1c-0.4-0.2-0.5-0.7-0.3-1.1c0.2-0.4,0.7-0.5,1.1-0.3l1.7,1c0.4,0.2,0.5,0.7,0.3,1.1
			C298.6,139.4,298.4,139.5,298.1,139.5z M311.8,139.3c-0.3,0-0.5-0.1-0.7-0.4c-0.2-0.4-0.1-0.8,0.3-1.1l1.7-1
			c0.4-0.2,0.8-0.1,1.1,0.3s0.1,0.8-0.3,1.1l-1.7,1C312.1,139.2,312,139.3,311.8,139.3z M292.9,136.5c-0.1,0-0.3,0-0.4-0.1l-1.7-1
			c-0.4-0.2-0.5-0.7-0.3-1.1c0.2-0.4,0.7-0.5,1.1-0.3l1.7,1c0.4,0.2,0.5,0.7,0.3,1.1C293.4,136.3,293.2,136.5,292.9,136.5z
			 M317,136.2c-0.3,0-0.5-0.1-0.7-0.4c-0.2-0.4-0.1-0.8,0.3-1.1l1.7-1c0.4-0.2,0.8-0.1,1.1,0.3c0.2,0.4,0.1,0.8-0.3,1.1l-1.7,1
			C317.2,136.1,317.1,136.2,317,136.2z M287.7,133.4c-0.1,0-0.3,0-0.4-0.1l-1.7-1c-0.4-0.2-0.5-0.7-0.3-1.1c0.2-0.4,0.7-0.5,1.1-0.3
			l1.7,1c0.4,0.2,0.5,0.7,0.3,1.1C288.3,133.3,288,133.4,287.7,133.4z M282.6,130.4c-0.1,0-0.3,0-0.4-0.1l-1.7-1
			c-0.4-0.2-0.5-0.7-0.3-1.1c0.2-0.4,0.7-0.5,1.1-0.3l1.7,1c0.4,0.2,0.5,0.7,0.3,1.1C283.1,130.3,282.8,130.4,282.6,130.4z
			 M277.4,127.4c-0.1,0-0.3,0-0.4-0.1l-1.7-1c-0.4-0.2-0.5-0.7-0.3-1.1c0.2-0.4,0.7-0.5,1.1-0.3l1.7,1c0.4,0.2,0.5,0.7,0.3,1.1
			C277.9,127.2,277.7,127.4,277.4,127.4z M272.2,124.3c-0.1,0-0.3,0-0.4-0.1l-1.7-1c-0.4-0.2-0.5-0.7-0.3-1.1
			c0.2-0.4,0.7-0.5,1.1-0.3l1.7,1c0.4,0.2,0.5,0.7,0.3,1.1C272.7,124.2,272.5,124.3,272.2,124.3z M267,121.3c-0.1,0-0.3,0-0.4-0.1
			l-1.7-1c-0.4-0.2-0.5-0.7-0.3-1.1c0.2-0.4,0.7-0.5,1.1-0.3l1.7,1c0.4,0.2,0.5,0.7,0.3,1.1C267.6,121.2,267.3,121.3,267,121.3z
			 M261.9,118.2c-0.1,0-0.3,0-0.4-0.1l-1.7-1c-0.4-0.2-0.5-0.7-0.3-1.1c0.2-0.4,0.7-0.5,1.1-0.3l1.7,1c0.4,0.2,0.5,0.7,0.3,1.1
			C262.4,118.1,262.1,118.2,261.9,118.2z M256.7,115.2c-0.1,0-0.3,0-0.4-0.1l-1.7-1c-0.4-0.2-0.5-0.7-0.3-1.1
			c0.2-0.4,0.7-0.5,1.1-0.3l1.7,1c0.4,0.2,0.5,0.7,0.3,1.1C257.2,115.1,257,115.2,256.7,115.2z M251.5,112.2c-0.1,0-0.3,0-0.4-0.1
			l-1.7-1c-0.4-0.2-0.5-0.7-0.3-1.1c0.2-0.4,0.7-0.5,1.1-0.3l1.7,1c0.4,0.2,0.5,0.7,0.3,1.1C252,112,251.8,112.2,251.5,112.2z
			 M246.3,109.1c-0.1,0-0.3,0-0.4-0.1l-1.7-1c-0.4-0.2-0.5-0.7-0.3-1.1c0.2-0.4,0.7-0.5,1.1-0.3l1.7,1c0.4,0.2,0.5,0.7,0.3,1.1
			C246.9,109,246.6,109.1,246.3,109.1z M241.2,106.1c-0.1,0-0.3,0-0.4-0.1l-1.7-1c-0.4-0.2-0.5-0.7-0.3-1.1c0.2-0.4,0.7-0.5,1.1-0.3
			l1.7,1c0.4,0.2,0.5,0.7,0.3,1.1C241.7,106,241.4,106.1,241.2,106.1z M236,103.1c-0.1,0-0.3,0-0.4-0.1l-1.7-1
			c-0.4-0.2-0.5-0.7-0.3-1.1c0.2-0.4,0.7-0.5,1.1-0.3l1.7,1c0.4,0.2,0.5,0.7,0.3,1.1C236.5,102.9,236.3,103.1,236,103.1z M230.8,100
			c-0.1,0-0.3,0-0.4-0.1l-1.7-1c-0.4-0.2-0.5-0.7-0.3-1.1c0.2-0.4,0.7-0.5,1.1-0.3l1.7,1c0.4,0.2,0.5,0.7,0.3,1.1
			C231.3,99.9,231.1,100,230.8,100z M225.6,97c-0.1,0-0.3,0-0.4-0.1l-1.7-1c-0.4-0.2-0.5-0.7-0.3-1.1c0.2-0.4,0.7-0.5,1.1-0.3l1.7,1
			c0.4,0.2,0.5,0.7,0.3,1.1C226.2,96.8,225.9,97,225.6,97z M220.5,93.9c-0.1,0-0.3,0-0.4-0.1l-1.7-1c-0.4-0.2-0.5-0.7-0.3-1.1
			c0.2-0.4,0.7-0.5,1.1-0.3l1.7,1c0.4,0.2,0.5,0.7,0.3,1.1C221,93.8,220.7,93.9,220.5,93.9z M215.3,90.9c-0.1,0-0.3,0-0.4-0.1
			l-1.7-1c-0.4-0.2-0.5-0.7-0.3-1.1c0.2-0.4,0.7-0.5,1.1-0.3l1.7,1c0.4,0.2,0.5,0.7,0.3,1.1C215.8,90.8,215.6,90.9,215.3,90.9z
			 M210.1,87.9c-0.1,0-0.3,0-0.4-0.1l-1.7-1c-0.4-0.2-0.5-0.7-0.3-1.1c0.2-0.4,0.7-0.5,1.1-0.3l1.7,1c0.4,0.2,0.5,0.7,0.3,1.1
			C210.7,87.7,210.4,87.9,210.1,87.9z M205,84.8c-0.1,0-0.3,0-0.4-0.1l-1.7-1c-0.4-0.2-0.5-0.7-0.3-1.1c0.2-0.4,0.7-0.5,1.1-0.3
			l1.7,1c0.4,0.2,0.5,0.7,0.3,1.1C205.5,84.7,205.2,84.8,205,84.8z M199.8,81.8c-0.1,0-0.3,0-0.4-0.1l-1.7-1
			c-0.4-0.2-0.5-0.7-0.3-1.1c0.2-0.4,0.7-0.5,1.1-0.3l1.7,1c0.4,0.2,0.5,0.7,0.3,1.1C200.3,81.7,200,81.8,199.8,81.8z M164.5,80.8
			c-0.1,0-0.3,0-0.4-0.1l-1.7-1c-0.4-0.2-0.5-0.7-0.3-1.1c0.2-0.4,0.7-0.5,1.1-0.3l1.7,1c0.4,0.2,0.5,0.7,0.3,1.1
			C165,80.6,164.7,80.8,164.5,80.8z M194.6,78.8c-0.1,0-0.3,0-0.4-0.1l-1.7-1c-0.4-0.2-0.5-0.7-0.3-1.1c0.2-0.4,0.7-0.5,1.1-0.3
			l1.7,1c0.4,0.2,0.5,0.7,0.3,1.1C195.1,78.6,194.9,78.8,194.6,78.8z M159.2,77.8c-0.1,0-0.3,0-0.4-0.1l-1.7-1
			c-0.4-0.2-0.5-0.7-0.3-1.1c0.2-0.4,0.7-0.5,1.1-0.3l1.7,1c0.4,0.2,0.5,0.7,0.3,1.1C159.8,77.7,159.5,77.8,159.2,77.8z M189.4,75.7
			c-0.1,0-0.3,0-0.4-0.1l-1.7-1c-0.4-0.2-0.5-0.7-0.3-1.1c0.2-0.4,0.7-0.5,1.1-0.3l1.7,1c0.4,0.2,0.5,0.7,0.3,1.1
			C190,75.6,189.7,75.7,189.4,75.7z M154,74.9c-0.1,0-0.3,0-0.4-0.1l-1.5-0.8c-0.2-0.1-0.4-0.4-0.4-0.7s0.2-0.5,0.4-0.7l0.3-0.1
			c0.4-0.2,0.8-0.1,1.1,0.3c0,0.1,0.1,0.1,0.1,0.2l0.8,0.5c0.4,0.2,0.5,0.7,0.3,1.1C154.5,74.7,154.3,74.9,154,74.9z M184.3,72.7
			c-0.1,0-0.3,0-0.4-0.1l-1.7-1c-0.4-0.2-0.5-0.7-0.3-1.1s0.7-0.5,1.1-0.3l1.7,1c0.4,0.2,0.5,0.7,0.3,1.1
			C184.8,72.5,184.5,72.7,184.3,72.7z M156.4,72c-0.3,0-0.5-0.1-0.7-0.4c-0.2-0.4-0.1-0.8,0.3-1.1l1.8-0.9c0.4-0.2,0.8-0.1,1.1,0.3
			c0.2,0.4,0.1,0.8-0.3,1.1l-1.8,0.9C156.6,72,156.5,72,156.4,72z M179.1,69.6c-0.1,0-0.3,0-0.4-0.1l-1.7-1
			c-0.4-0.2-0.5-0.7-0.3-1.1c0.2-0.4,0.7-0.5,1.1-0.3l1.7,1c0.4,0.2,0.5,0.7,0.3,1.1C179.6,69.5,179.3,69.6,179.1,69.6z M161.6,69.2
			c-0.3,0-0.5-0.1-0.7-0.4c-0.2-0.4-0.1-0.8,0.3-1.1l1.8-0.9c0.4-0.2,0.8-0.1,1.1,0.3c0.2,0.4,0.1,0.8-0.3,1.1l-1.8,0.9
			C161.9,69.2,161.8,69.2,161.6,69.2z M173.9,66.6c-0.1,0-0.3,0-0.4-0.1l-1.7-1c-0.4-0.2-0.5-0.7-0.3-1.1c0.2-0.4,0.7-0.5,1.1-0.3
			l1.7,1c0.4,0.2,0.5,0.7,0.3,1.1C174.4,66.5,174.2,66.6,173.9,66.6z M166.9,66.4c-0.3,0-0.5-0.1-0.7-0.4c-0.2-0.4-0.1-0.8,0.3-1.1
			l1.8-0.9c0.4-0.2,0.8-0.1,1.1,0.3c0.2,0.4,0.1,0.8-0.3,1.1l-1.8,0.9C167.2,66.3,167.1,66.4,166.9,66.4z"/>
	</g>
	<g>
		<path class="st0" d="M378.6,339.8c-0.1,0-0.3,0-0.4-0.1l-1.7-1c-0.4-0.2-0.5-0.7-0.3-1.1c0.2-0.4,0.7-0.5,1.1-0.3l1.7,1
			c0.4,0.2,0.5,0.7,0.3,1.1C379.1,339.6,378.8,339.8,378.6,339.8z M382,339.8c-0.3,0-0.5-0.1-0.7-0.4c-0.2-0.4-0.1-0.8,0.3-1.1
			l1.7-1c0.4-0.2,0.8-0.1,1.1,0.3c0.2,0.4,0.1,0.8-0.3,1.1l-1.7,1C382.3,339.7,382.1,339.8,382,339.8z M373.4,336.7
			c-0.1,0-0.3,0-0.4-0.1l-1.7-1c-0.4-0.2-0.5-0.7-0.3-1.1c0.2-0.4,0.7-0.5,1.1-0.3l1.7,1c0.4,0.2,0.5,0.7,0.3,1.1
			C373.9,336.6,373.7,336.7,373.4,336.7z M387.1,336.7c-0.3,0-0.5-0.1-0.7-0.4c-0.2-0.4-0.1-0.8,0.3-1.1l1.7-1
			c0.4-0.2,0.8-0.1,1.1,0.3c0.2,0.4,0.1,0.8-0.3,1.1l-1.7,1C387.4,336.6,387.3,336.7,387.1,336.7z M368.2,333.7
			c-0.1,0-0.3,0-0.4-0.1l-1.7-1c-0.4-0.2-0.5-0.7-0.3-1.1c0.2-0.4,0.7-0.5,1.1-0.3l1.7,1c0.4,0.2,0.5,0.7,0.3,1.1
			C368.7,333.5,368.5,333.7,368.2,333.7z M392.3,333.5c-0.3,0-0.5-0.1-0.7-0.4c-0.2-0.4-0.1-0.8,0.3-1.1l1.7-1
			c0.4-0.2,0.8-0.1,1.1,0.3c0.2,0.4,0.1,0.8-0.3,1.1l-1.7,1C392.5,333.5,392.4,333.5,392.3,333.5z M363.1,330.6
			c-0.1,0-0.3,0-0.4-0.1l-1.7-1c-0.4-0.2-0.5-0.7-0.3-1.1s0.7-0.5,1.1-0.3l1.7,1c0.4,0.2,0.5,0.7,0.3,1.1
			C363.6,330.5,363.3,330.6,363.1,330.6z M397.4,330.4c-0.3,0-0.5-0.1-0.7-0.4c-0.2-0.4-0.1-0.8,0.3-1.1l1.7-1
			c0.4-0.2,0.8-0.1,1.1,0.3c0.2,0.4,0.1,0.8-0.3,1.1l-1.7,1C397.7,330.4,397.5,330.4,397.4,330.4z M357.9,327.6
			c-0.1,0-0.3,0-0.4-0.1l-1.7-1c-0.4-0.2-0.5-0.7-0.3-1.1c0.2-0.4,0.7-0.5,1.1-0.3l1.7,1c0.4,0.2,0.5,0.7,0.3,1.1
			C358.4,327.4,358.2,327.6,357.9,327.6z M402.5,327.3c-0.3,0-0.5-0.1-0.7-0.4c-0.2-0.4-0.1-0.8,0.3-1.1l1.7-1
			c0.4-0.2,0.8-0.1,1.1,0.3c0.2,0.4,0.1,0.8-0.3,1.1l-1.7,1C402.8,327.3,402.7,327.3,402.5,327.3z M352.7,324.5
			c-0.1,0-0.3,0-0.4-0.1l-1.7-1c-0.4-0.2-0.5-0.7-0.3-1.1c0.2-0.4,0.7-0.5,1.1-0.3l1.7,1c0.4,0.2,0.5,0.7,0.3,1.1
			C353.2,324.4,353,324.5,352.7,324.5z M407.6,324.2c-0.3,0-0.5-0.1-0.7-0.4c-0.2-0.4-0.1-0.8,0.3-1.1l1.7-1
			c0.4-0.2,0.8-0.1,1.1,0.3c0.2,0.4,0.1,0.8-0.3,1.1l-1.7,1C407.9,324.2,407.8,324.2,407.6,324.2z M347.6,321.5
			c-0.1,0-0.3,0-0.4-0.1l-1.7-1c-0.4-0.2-0.5-0.7-0.3-1.1c0.2-0.4,0.7-0.5,1.1-0.3l1.7,1c0.4,0.2,0.5,0.7,0.3,1.1
			C348.1,321.3,347.8,321.5,347.6,321.5z M412.8,321.1c-0.3,0-0.5-0.1-0.7-0.4c-0.2-0.4-0.1-0.8,0.3-1.1l1.7-1
			c0.4-0.2,0.8-0.1,1.1,0.3c0.2,0.4,0.1,0.8-0.3,1.1l-1.7,1C413.1,321.1,412.9,321.1,412.8,321.1z M342.4,318.4
			c-0.1,0-0.3,0-0.4-0.1l-1.7-1c-0.4-0.2-0.5-0.7-0.3-1.1s0.7-0.5,1.1-0.3l1.7,1c0.4,0.2,0.5,0.7,0.3,1.1
			C342.9,318.3,342.6,318.4,342.4,318.4z M417.9,318c-0.3,0-0.5-0.1-0.7-0.4c-0.2-0.4-0.1-0.8,0.3-1.1l1.7-1
			c0.4-0.2,0.8-0.1,1.1,0.3c0.2,0.4,0.1,0.8-0.3,1.1l-1.7,1C418.2,318,418,318,417.9,318z M337.2,315.4c-0.1,0-0.3,0-0.4-0.1l-1.7-1
			c-0.4-0.2-0.5-0.7-0.3-1.1c0.2-0.4,0.7-0.5,1.1-0.3l1.7,1c0.4,0.2,0.5,0.7,0.3,1.1C337.7,315.2,337.5,315.4,337.2,315.4z
			 M423,314.9c-0.3,0-0.5-0.1-0.7-0.4c-0.2-0.4-0.1-0.8,0.3-1.1l1.7-1c0.4-0.2,0.8-0.1,1.1,0.3c0.2,0.4,0.1,0.8-0.3,1.1l-1.7,1
			C423.3,314.9,423.2,314.9,423,314.9z M332,312.3c-0.1,0-0.3,0-0.4-0.1l-1.7-1c-0.4-0.2-0.5-0.7-0.3-1.1c0.2-0.4,0.7-0.5,1.1-0.3
			l1.7,1c0.4,0.2,0.5,0.7,0.3,1.1C332.6,312.2,332.3,312.3,332,312.3z M428.2,311.8c-0.3,0-0.5-0.1-0.7-0.4
			c-0.2-0.4-0.1-0.8,0.3-1.1l1.7-1c0.4-0.2,0.8-0.1,1.1,0.3c0.2,0.4,0.1,0.8-0.3,1.1l-1.7,1C428.5,311.8,428.3,311.8,428.2,311.8z
			 M326.9,309.3c-0.1,0-0.3,0-0.4-0.1l-1.7-1c-0.4-0.2-0.5-0.7-0.3-1.1c0.2-0.4,0.7-0.5,1.1-0.3l1.7,1c0.4,0.2,0.5,0.7,0.3,1.1
			C327.4,309.1,327.1,309.3,326.9,309.3z M433.3,308.7c-0.3,0-0.5-0.1-0.7-0.4c-0.2-0.4-0.1-0.8,0.3-1.1l1.7-1
			c0.4-0.2,0.8-0.1,1.1,0.3c0.2,0.4,0.1,0.8-0.3,1.1l-1.7,1C433.6,308.6,433.4,308.7,433.3,308.7z M321.7,306.2
			c-0.1,0-0.3,0-0.4-0.1l-1.7-1c-0.4-0.2-0.5-0.7-0.3-1.1c0.2-0.4,0.7-0.5,1.1-0.3l1.7,1c0.4,0.2,0.5,0.7,0.3,1.1
			C322.2,306.1,322,306.2,321.7,306.2z M438.4,305.6c-0.3,0-0.5-0.1-0.7-0.4c-0.2-0.4-0.1-0.8,0.3-1.1l1.7-1
			c0.4-0.2,0.8-0.1,1.1,0.3c0.2,0.4,0.1,0.8-0.3,1.1l-1.7,1C438.7,305.5,438.6,305.6,438.4,305.6z M316.5,303.2
			c-0.1,0-0.3,0-0.4-0.1l-1.7-1c-0.4-0.2-0.5-0.7-0.3-1.1c0.2-0.4,0.7-0.5,1.1-0.3l1.7,1c0.4,0.2,0.5,0.7,0.3,1.1
			C317.1,303,316.8,303.2,316.5,303.2z M443.6,302.5c-0.3,0-0.5-0.1-0.7-0.4c-0.2-0.4-0.1-0.8,0.3-1.1l1.7-1
			c0.4-0.2,0.8-0.1,1.1,0.3c0.2,0.4,0.1,0.8-0.3,1.1l-1.7,1C443.8,302.4,443.7,302.5,443.6,302.5z M311.4,300.1
			c-0.1,0-0.3,0-0.4-0.1l-1.7-1c-0.4-0.2-0.5-0.7-0.3-1.1c0.2-0.4,0.7-0.5,1.1-0.3l1.7,1c0.4,0.2,0.5,0.7,0.3,1.1
			C311.9,300,311.6,300.1,311.4,300.1z M448.7,299.4c-0.3,0-0.5-0.1-0.7-0.4c-0.2-0.4-0.1-0.8,0.3-1.1l1.7-1
			c0.4-0.2,0.8-0.1,1.1,0.3c0.2,0.4,0.1,0.8-0.3,1.1l-1.7,1C449,299.3,448.8,299.4,448.7,299.4z M306.2,297.1c-0.1,0-0.3,0-0.4-0.1
			l-1.7-1c-0.4-0.2-0.5-0.7-0.3-1.1c0.2-0.4,0.7-0.5,1.1-0.3l1.7,1c0.4,0.2,0.5,0.7,0.3,1.1C306.7,296.9,306.5,297.1,306.2,297.1z
			 M453.8,296.2c-0.3,0-0.5-0.1-0.7-0.4c-0.2-0.4-0.1-0.8,0.3-1.1l1.7-1c0.4-0.2,0.8-0.1,1.1,0.3c0.2,0.4,0.1,0.8-0.3,1.1l-1.7,1
			C454.1,296.2,454,296.2,453.8,296.2z M301,294c-0.1,0-0.3,0-0.4-0.1l-1.7-1c-0.4-0.2-0.5-0.7-0.3-1.1c0.2-0.4,0.7-0.5,1.1-0.3
			l1.7,1c0.4,0.2,0.5,0.7,0.3,1.1C301.6,293.9,301.3,294,301,294z M459,293.1c-0.3,0-0.5-0.1-0.7-0.4c-0.2-0.4-0.1-0.8,0.3-1.1
			l1.7-1c0.4-0.2,0.8-0.1,1.1,0.3c0.2,0.4,0.1,0.8-0.3,1.1l-1.7,1C459.2,293.1,459.1,293.1,459,293.1z M464.1,290
			c-0.3,0-0.5-0.1-0.7-0.4c-0.2-0.4-0.1-0.8,0.3-1.1l1.7-1c0.4-0.2,0.8-0.1,1.1,0.3c0.2,0.4,0.1,0.8-0.3,1.1l-1.7,1
			C464.4,290,464.2,290,464.1,290z M469.2,286.9c-0.3,0-0.5-0.1-0.7-0.4c-0.2-0.4-0.1-0.8,0.3-1.1l1.7-1c0.4-0.2,0.8-0.1,1.1,0.3
			c0.2,0.4,0.1,0.8-0.3,1.1l-1.7,1C469.5,286.9,469.4,286.9,469.2,286.9z M474.4,283.8c-0.3,0-0.5-0.1-0.7-0.4
			c-0.2-0.4-0.1-0.8,0.3-1.1l1.7-1c0.4-0.2,0.8-0.1,1.1,0.3c0.2,0.4,0.1,0.8-0.3,1.1l-1.7,1C474.6,283.8,474.5,283.8,474.4,283.8z
			 M479.5,280.7c-0.3,0-0.5-0.1-0.7-0.4c-0.2-0.4-0.1-0.8,0.3-1.1l1.7-1c0.4-0.2,0.8-0.1,1.1,0.3c0.2,0.4,0.1,0.8-0.3,1.1l-1.7,1
			C479.8,280.7,479.6,280.7,479.5,280.7z M484.6,277.6c-0.3,0-0.5-0.1-0.7-0.4c-0.2-0.4-0.1-0.8,0.3-1.1l1.7-1
			c0.4-0.2,0.8-0.1,1.1,0.3c0.2,0.4,0.1,0.8-0.3,1.1l-1.7,1C484.9,277.6,484.8,277.6,484.6,277.6z M489.8,274.5
			c-0.3,0-0.5-0.1-0.7-0.4c-0.2-0.4-0.1-0.8,0.3-1.1l1.7-1c0.4-0.2,0.8-0.1,1.1,0.3c0.2,0.4,0.1,0.8-0.3,1.1l-1.7,1
			C490,274.4,489.9,274.5,489.8,274.5z M494.9,271.4c-0.3,0-0.5-0.1-0.7-0.4c-0.2-0.4-0.1-0.8,0.3-1.1l1.7-1
			c0.4-0.2,0.8-0.1,1.1,0.3c0.2,0.4,0.1,0.8-0.3,1.1l-1.7,1C495.2,271.3,495,271.4,494.9,271.4z M500,268.3c-0.3,0-0.5-0.1-0.7-0.4
			c-0.2-0.4-0.1-0.8,0.3-1.1l1.7-1c0.4-0.2,0.8-0.1,1.1,0.3c0.2,0.4,0.1,0.8-0.3,1.1l-1.7,1C500.3,268.2,500.2,268.3,500,268.3z
			 M505.2,265.2c-0.3,0-0.5-0.1-0.7-0.4c-0.2-0.4-0.1-0.8,0.3-1.1l1.7-1c0.4-0.2,0.8-0.1,1.1,0.3c0.2,0.4,0.1,0.8-0.3,1.1l-1.7,1
			C505.4,265.1,505.3,265.2,505.2,265.2z M510.3,262c-0.3,0-0.5-0.1-0.7-0.4c-0.2-0.4-0.1-0.8,0.3-1.1l1.7-1
			c0.4-0.2,0.8-0.1,1.1,0.3c0.2,0.4,0.1,0.8-0.3,1.1l-1.7,1C510.6,262,510.4,262,510.3,262z M515.4,258.9c-0.3,0-0.5-0.1-0.7-0.4
			c-0.2-0.4-0.1-0.8,0.3-1.1l1.7-1c0.4-0.2,0.8-0.1,1.1,0.3c0.2,0.4,0.1,0.8-0.3,1.1l-1.7,1C515.7,258.9,515.6,258.9,515.4,258.9z
			 M520.5,255.8c-0.3,0-0.5-0.1-0.7-0.4c-0.2-0.4-0.1-0.8,0.3-1.1l1.7-1c0.4-0.2,0.8-0.1,1.1,0.3c0.2,0.4,0.1,0.8-0.3,1.1l-1.7,1
			C520.8,255.8,520.7,255.8,520.5,255.8z M525.7,252.7c-0.3,0-0.5-0.1-0.7-0.4c-0.2-0.4-0.1-0.8,0.3-1.1l1.7-1
			c0.4-0.2,0.8-0.1,1.1,0.3c0.2,0.4,0.1,0.8-0.3,1.1l-1.7,1C526,252.7,525.8,252.7,525.7,252.7z M530.8,249.6
			c-0.3,0-0.5-0.1-0.7-0.4c-0.2-0.4-0.1-0.8,0.3-1.1l1.7-1c0.4-0.2,0.8-0.1,1.1,0.3c0.2,0.4,0.1,0.8-0.3,1.1l-1.7,1
			C531.1,249.6,530.9,249.6,530.8,249.6z M535.9,246.5c-0.3,0-0.5-0.1-0.7-0.4c-0.2-0.4-0.1-0.8,0.3-1.1l1.7-1
			c0.4-0.2,0.8-0.1,1.1,0.3c0.2,0.4,0.1,0.8-0.3,1.1l-1.7,1C536.2,246.5,536.1,246.5,535.9,246.5z M537.8,243.5
			c-0.1,0-0.3,0-0.4-0.1l-1.7-1c-0.4-0.2-0.5-0.7-0.3-1.1c0.2-0.4,0.7-0.5,1.1-0.3l1.7,1c0.4,0.2,0.5,0.7,0.3,1.1
			C538.4,243.3,538.1,243.5,537.8,243.5z M532.6,240.5c-0.1,0-0.3,0-0.4-0.1l-1.7-1c-0.4-0.2-0.5-0.7-0.3-1.1
			c0.2-0.4,0.7-0.5,1.1-0.3l1.7,1c0.4,0.2,0.5,0.7,0.3,1.1C533.1,240.4,532.8,240.5,532.6,240.5z M527.3,237.6c-0.1,0-0.3,0-0.4-0.1
			l-1.7-1c-0.4-0.2-0.5-0.7-0.3-1.1s0.7-0.5,1.1-0.3l1.7,1c0.4,0.2,0.5,0.7,0.3,1.1C527.9,237.5,527.6,237.6,527.3,237.6z
			 M522.1,234.7c-0.1,0-0.3,0-0.4-0.1l-1.7-1c-0.4-0.2-0.5-0.7-0.3-1.1s0.7-0.5,1.1-0.3l1.7,1c0.4,0.2,0.5,0.7,0.3,1.1
			C522.6,234.6,522.3,234.7,522.1,234.7z M516.8,231.8c-0.1,0-0.3,0-0.4-0.1l-1.7-1c-0.4-0.2-0.5-0.7-0.3-1.1s0.7-0.5,1.1-0.3l1.7,1
			c0.4,0.2,0.5,0.7,0.3,1.1C517.4,231.7,517.1,231.8,516.8,231.8z M511.6,228.9c-0.1,0-0.3,0-0.4-0.1l-1.8-1
			c-0.4-0.2-0.5-0.7-0.3-1.1c0.2-0.4,0.7-0.5,1.1-0.3l1.8,1c0.4,0.2,0.5,0.7,0.3,1.1C512.1,228.8,511.8,228.9,511.6,228.9z
			 M506.3,226c-0.1,0-0.3,0-0.4-0.1l-1.8-1c-0.4-0.2-0.5-0.7-0.3-1.1c0.2-0.4,0.7-0.5,1.1-0.3l1.8,1c0.4,0.2,0.5,0.7,0.3,1.1
			C506.9,225.9,506.6,226,506.3,226z M501.1,223.1c-0.1,0-0.3,0-0.4-0.1l-1.8-1c-0.4-0.2-0.5-0.7-0.3-1.1c0.2-0.4,0.7-0.5,1.1-0.3
			l1.8,1c0.4,0.2,0.5,0.7,0.3,1.1C501.6,223,501.4,223.1,501.1,223.1z M495.8,220.2c-0.1,0-0.3,0-0.4-0.1l-1.8-1
			c-0.4-0.2-0.5-0.7-0.3-1.1c0.2-0.4,0.7-0.5,1.1-0.3l1.8,1c0.4,0.2,0.5,0.7,0.3,1.1C496.4,220,496.1,220.2,495.8,220.2z
			 M490.6,217.3c-0.1,0-0.3,0-0.4-0.1l-1.7-1c-0.4-0.2-0.5-0.7-0.3-1.1c0.2-0.4,0.7-0.5,1.1-0.3l1.7,1c0.4,0.2,0.5,0.7,0.3,1.1
			C491.1,217.1,490.9,217.3,490.6,217.3z M485.3,214.4c-0.1,0-0.3,0-0.4-0.1l-1.7-1c-0.4-0.2-0.5-0.7-0.3-1.1
			c0.2-0.4,0.7-0.5,1.1-0.3l1.7,1c0.4,0.2,0.5,0.7,0.3,1.1C485.9,214.2,485.6,214.4,485.3,214.4z M480.1,211.5c-0.1,0-0.3,0-0.4-0.1
			l-1.7-1c-0.4-0.2-0.5-0.7-0.3-1.1c0.2-0.4,0.7-0.5,1.1-0.3l1.7,1c0.4,0.2,0.5,0.7,0.3,1.1C480.6,211.3,480.4,211.5,480.1,211.5z
			 M474.8,208.6c-0.1,0-0.3,0-0.4-0.1l-1.7-1c-0.4-0.2-0.5-0.7-0.3-1.1c0.2-0.4,0.7-0.5,1.1-0.3l1.7,1c0.4,0.2,0.5,0.7,0.3,1.1
			C475.4,208.4,475.1,208.6,474.8,208.6z M469.6,205.6c-0.1,0-0.3,0-0.4-0.1l-1.7-1c-0.4-0.2-0.5-0.7-0.3-1.1
			c0.2-0.4,0.7-0.5,1.1-0.3l1.7,1c0.4,0.2,0.5,0.7,0.3,1.1C470.1,205.5,469.9,205.6,469.6,205.6z M464.3,202.7c-0.1,0-0.3,0-0.4-0.1
			l-1.7-1c-0.4-0.2-0.5-0.7-0.3-1.1s0.7-0.5,1.1-0.3l1.7,1c0.4,0.2,0.5,0.7,0.3,1.1C464.9,202.6,464.6,202.7,464.3,202.7z
			 M459.1,199.8c-0.1,0-0.3,0-0.4-0.1l-1.7-1c-0.4-0.2-0.5-0.7-0.3-1.1s0.7-0.5,1.1-0.3l1.7,1c0.4,0.2,0.5,0.7,0.3,1.1
			C459.6,199.7,459.4,199.8,459.1,199.8z M453.8,196.9c-0.1,0-0.3,0-0.4-0.1l-1.7-1c-0.4-0.2-0.5-0.7-0.3-1.1
			c0.2-0.4,0.7-0.5,1.1-0.3l1.7,1c0.4,0.2,0.5,0.7,0.3,1.1C454.4,196.8,454.1,196.9,453.8,196.9z M448.6,194c-0.1,0-0.3,0-0.4-0.1
			l-1.8-1c-0.4-0.2-0.5-0.7-0.3-1.1s0.7-0.5,1.1-0.3l1.8,1c0.4,0.2,0.5,0.7,0.3,1.1C449.1,193.9,448.9,194,448.6,194z M443.3,191.1
			c-0.1,0-0.3,0-0.4-0.1l-1.8-1c-0.4-0.2-0.5-0.7-0.3-1.1s0.7-0.5,1.1-0.3l1.8,1c0.4,0.2,0.5,0.7,0.3,1.1
			C443.9,191,443.6,191.1,443.3,191.1z M438.1,188.2c-0.1,0-0.3,0-0.4-0.1l-1.8-1c-0.4-0.2-0.5-0.7-0.3-1.1c0.2-0.4,0.7-0.5,1.1-0.3
			l1.8,1c0.4,0.2,0.5,0.7,0.3,1.1C438.6,188.1,438.4,188.2,438.1,188.2z M432.9,185.3c-0.1,0-0.3,0-0.4-0.1l-1.8-1
			c-0.4-0.2-0.5-0.7-0.3-1.1c0.2-0.4,0.7-0.5,1.1-0.3l1.8,1c0.4,0.2,0.5,0.7,0.3,1.1C433.4,185.1,433.1,185.3,432.9,185.3z
			 M427.6,182.4c-0.1,0-0.3,0-0.4-0.1l-1.7-1c-0.4-0.2-0.5-0.7-0.3-1.1c0.2-0.4,0.7-0.5,1.1-0.3l1.7,1c0.4,0.2,0.5,0.7,0.3,1.1
			C428.1,182.2,427.9,182.4,427.6,182.4z M422.4,179.5c-0.1,0-0.3,0-0.4-0.1l-1.7-1c-0.4-0.2-0.5-0.7-0.3-1.1
			c0.2-0.4,0.7-0.5,1.1-0.3l1.7,1c0.4,0.2,0.5,0.7,0.3,1.1C422.9,179.3,422.6,179.5,422.4,179.5z M423.1,176.5
			c-0.3,0-0.5-0.1-0.7-0.4c-0.2-0.4-0.1-0.8,0.3-1.1l1.7-1c0.4-0.2,0.8-0.1,1.1,0.3c0.2,0.4,0.1,0.8-0.3,1.1l-1.7,1
			C423.3,176.5,423.2,176.5,423.1,176.5z M428.2,173.5c-0.3,0-0.5-0.1-0.7-0.4c-0.2-0.4-0.1-0.8,0.3-1.1l1.7-1
			c0.4-0.2,0.8-0.1,1.1,0.3c0.2,0.4,0.1,0.8-0.3,1.1l-1.7,1C428.5,173.4,428.4,173.5,428.2,173.5z M433.4,170.5
			c-0.3,0-0.5-0.1-0.7-0.4c-0.2-0.4-0.1-0.8,0.3-1.1l1.7-1c0.4-0.2,0.8-0.1,1.1,0.3c0.2,0.4,0.1,0.8-0.3,1.1l-1.7,1
			C433.7,170.4,433.6,170.5,433.4,170.5z M438.6,167.4c-0.3,0-0.5-0.1-0.7-0.4c-0.2-0.4-0.1-0.8,0.3-1.1l1.7-1
			c0.4-0.2,0.8-0.1,1.1,0.3c0.2,0.4,0.1,0.8-0.3,1.1l-1.7,1C438.9,167.4,438.7,167.4,438.6,167.4z M443.8,164.4
			c-0.3,0-0.5-0.1-0.7-0.4c-0.2-0.4-0.1-0.8,0.3-1.1l1.7-1c0.4-0.2,0.8-0.1,1.1,0.3c0.2,0.4,0.1,0.8-0.3,1.1l-1.7,1
			C444.1,164.4,443.9,164.4,443.8,164.4z M449,161.4c-0.3,0-0.5-0.1-0.7-0.4c-0.2-0.4-0.1-0.8,0.3-1.1l1.7-1
			c0.4-0.2,0.8-0.1,1.1,0.3c0.2,0.4,0.1,0.8-0.3,1.1l-1.7,1C449.2,161.4,449.1,161.4,449,161.4z M454.2,158.4
			c-0.3,0-0.5-0.1-0.7-0.4c-0.2-0.4-0.1-0.8,0.3-1.1l1.7-1c0.4-0.2,0.8-0.1,1.1,0.3c0.2,0.4,0.1,0.8-0.3,1.1l-1.7,1
			C454.4,158.3,454.3,158.4,454.2,158.4z M459.3,155.3c-0.3,0-0.5-0.1-0.7-0.4c-0.2-0.4-0.1-0.8,0.3-1.1l1.7-1
			c0.4-0.2,0.8-0.1,1.1,0.3c0.2,0.4,0.1,0.8-0.3,1.1l-1.7,1C459.6,155.3,459.5,155.3,459.3,155.3z M464.5,152.3
			c-0.3,0-0.5-0.1-0.7-0.4c-0.2-0.4-0.1-0.8,0.3-1.1l1.7-1c0.4-0.2,0.8-0.1,1.1,0.3c0.2,0.4,0.1,0.8-0.3,1.1l-1.7,1
			C464.8,152.3,464.7,152.3,464.5,152.3z M469.7,149.3c-0.3,0-0.5-0.1-0.7-0.4c-0.2-0.4-0.1-0.8,0.3-1.1l1.7-1
			c0.4-0.2,0.8-0.1,1.1,0.3c0.2,0.4,0.1,0.8-0.3,1.1l-1.7,1C470,149.3,469.8,149.3,469.7,149.3z M474.9,146.3
			c-0.3,0-0.5-0.1-0.7-0.4c-0.2-0.4-0.1-0.8,0.3-1.1l1.7-1c0.4-0.2,0.8-0.1,1.1,0.3c0.2,0.4,0.1,0.8-0.3,1.1l-1.7,1
			C475.2,146.2,475,146.3,474.9,146.3z M480.1,143.3c-0.3,0-0.5-0.1-0.7-0.4c-0.2-0.4-0.1-0.8,0.3-1.1l1.7-1
			c0.4-0.2,0.8-0.1,1.1,0.3c0.2,0.4,0.1,0.8-0.3,1.1l-1.7,1C480.3,143.2,480.2,143.3,480.1,143.3z M485.3,140.2
			c-0.3,0-0.5-0.1-0.7-0.4c-0.2-0.4-0.1-0.8,0.3-1.1l1.7-1c0.4-0.2,0.8-0.1,1.1,0.3c0.2,0.4,0.1,0.8-0.3,1.1l-1.7,1
			C485.5,140.2,485.4,140.2,485.3,140.2z M490.4,137.2c-0.3,0-0.5-0.1-0.7-0.4c-0.2-0.4-0.1-0.8,0.3-1.1l1.7-1
			c0.4-0.2,0.8-0.1,1.1,0.3c0.2,0.4,0.1,0.8-0.3,1.1l-1.7,1C490.7,137.2,490.6,137.2,490.4,137.2z M495.6,134.2
			c-0.3,0-0.5-0.1-0.7-0.4c-0.2-0.4-0.1-0.8,0.3-1.1l1.7-1c0.4-0.2,0.8-0.1,1.1,0.3c0.2,0.4,0.1,0.8-0.3,1.1l-1.7,1
			C495.9,134.2,495.8,134.2,495.6,134.2z M500.8,131.2c-0.3,0-0.5-0.1-0.7-0.4c-0.2-0.4-0.1-0.8,0.3-1.1l1.7-1
			c0.4-0.2,0.8-0.1,1.1,0.3c0.2,0.4,0.1,0.8-0.3,1.1l-1.7,1C501.1,131.1,500.9,131.2,500.8,131.2z M506,128.1
			c-0.3,0-0.5-0.1-0.7-0.4c-0.2-0.4-0.1-0.8,0.3-1.1l1.7-1c0.4-0.2,0.8-0.1,1.1,0.3c0.2,0.4,0.1,0.8-0.3,1.1l-1.7,1
			C506.3,128.1,506.1,128.1,506,128.1z M511.2,125.1c-0.3,0-0.5-0.1-0.7-0.4c-0.2-0.4-0.1-0.8,0.3-1.1l1.7-1
			c0.4-0.2,0.8-0.1,1.1,0.3c0.2,0.4,0.1,0.8-0.3,1.1l-1.7,1C511.4,125.1,511.3,125.1,511.2,125.1z M516.4,122.1
			c-0.3,0-0.5-0.1-0.7-0.4c-0.2-0.4-0.1-0.8,0.3-1.1l1.7-1c0.4-0.2,0.8-0.1,1.1,0.3c0.2,0.4,0.1,0.8-0.3,1.1l-1.7,1
			C516.6,122.1,516.5,122.1,516.4,122.1z M516,119.1c-0.1,0-0.3,0-0.4-0.1l-1.7-1c-0.4-0.2-0.5-0.7-0.3-1.1c0.2-0.4,0.7-0.5,1.1-0.3
			l1.7,1c0.4,0.2,0.5,0.7,0.3,1.1C516.5,118.9,516.2,119.1,516,119.1z M510.8,116c-0.1,0-0.3,0-0.4-0.1l-1.7-1
			c-0.4-0.2-0.5-0.7-0.3-1.1c0.2-0.4,0.7-0.5,1.1-0.3l1.7,1c0.4,0.2,0.5,0.7,0.3,1.1C511.3,115.9,511.1,116,510.8,116z M505.6,113
			c-0.1,0-0.3,0-0.4-0.1l-1.7-1c-0.4-0.2-0.5-0.7-0.3-1.1c0.2-0.4,0.7-0.5,1.1-0.3l1.7,1c0.4,0.2,0.5,0.7,0.3,1.1
			C506.1,112.9,505.9,113,505.6,113z M500.4,110c-0.1,0-0.3,0-0.4-0.1l-1.7-1c-0.4-0.2-0.5-0.7-0.3-1.1c0.2-0.4,0.7-0.5,1.1-0.3
			l1.7,1c0.4,0.2,0.5,0.7,0.3,1.1C501,109.8,500.7,110,500.4,110z M495.3,107c-0.1,0-0.3,0-0.4-0.1l-1.7-1c-0.4-0.2-0.5-0.7-0.3-1.1
			c0.2-0.4,0.7-0.5,1.1-0.3l1.7,1c0.4,0.2,0.5,0.7,0.3,1.1C495.8,106.8,495.5,107,495.3,107z M490.1,103.9c-0.1,0-0.3,0-0.4-0.1
			l-1.7-1c-0.4-0.2-0.5-0.7-0.3-1.1c0.2-0.4,0.7-0.5,1.1-0.3l1.7,1c0.4,0.2,0.5,0.7,0.3,1.1C490.6,103.8,490.3,103.9,490.1,103.9z
			 M484.9,100.9c-0.1,0-0.3,0-0.4-0.1l-1.7-1c-0.4-0.2-0.5-0.7-0.3-1.1c0.2-0.4,0.7-0.5,1.1-0.3l1.7,1c0.4,0.2,0.5,0.7,0.3,1.1
			C485.4,100.7,485.2,100.9,484.9,100.9z M392.2,100.3c-0.3,0-0.5-0.1-0.7-0.4c-0.2-0.4-0.1-0.8,0.2-1.1l0.6-0.4
			c0.4-0.2,0.8-0.1,1.1,0.2c0.2,0.4,0.1,0.8-0.2,1.1l-0.6,0.4C392.4,100.3,392.3,100.3,392.2,100.3z M479.7,97.9
			c-0.1,0-0.3,0-0.4-0.1l-1.7-1c-0.4-0.2-0.5-0.7-0.3-1.1c0.2-0.4,0.7-0.5,1.1-0.3l1.7,1c0.4,0.2,0.5,0.7,0.3,1.1
			C480.3,97.7,480,97.9,479.7,97.9z M396.1,97.8c-0.3,0-0.5-0.1-0.7-0.4c-0.2-0.4-0.1-0.8,0.2-1.1l1.7-1.1c0.4-0.2,0.8-0.1,1.1,0.2
			c0.2,0.4,0.1,0.8-0.2,1.1l-1.7,1.1C396.4,97.8,396.3,97.8,396.1,97.8z M474.5,94.8c-0.1,0-0.3,0-0.4-0.1l-1.7-1
			c-0.4-0.2-0.5-0.7-0.3-1.1c0.2-0.4,0.7-0.5,1.1-0.3l1.7,1c0.4,0.2,0.5,0.7,0.3,1.1C475.1,94.7,474.8,94.8,474.5,94.8z M401.2,94.6
			c-0.3,0-0.5-0.1-0.7-0.4c-0.2-0.4-0.1-0.8,0.2-1.1l1.7-1.1c0.4-0.2,0.8-0.1,1.1,0.2c0.2,0.4,0.1,0.8-0.2,1.1l-1.7,1.1
			C401.5,94.5,401.3,94.6,401.2,94.6z M469.4,91.8c-0.1,0-0.3,0-0.4-0.1l-1.7-1c-0.4-0.2-0.5-0.7-0.3-1.1c0.2-0.4,0.7-0.5,1.1-0.3
			l1.7,1c0.4,0.2,0.5,0.7,0.3,1.1C469.9,91.7,469.6,91.8,469.4,91.8z M406.2,91.3c-0.3,0-0.5-0.1-0.7-0.4c-0.2-0.4-0.1-0.8,0.2-1.1
			l1.7-1.1c0.4-0.2,0.8-0.1,1.1,0.2c0.2,0.4,0.1,0.8-0.2,1.1l-1.7,1.1C406.5,91.3,406.4,91.3,406.2,91.3z M464.2,88.8
			c-0.1,0-0.3,0-0.4-0.1l-1.7-1c-0.4-0.2-0.5-0.7-0.3-1.1c0.2-0.4,0.7-0.5,1.1-0.3l1.7,1c0.4,0.2,0.5,0.7,0.3,1.1
			C464.7,88.6,464.5,88.8,464.2,88.8z M411.3,88.1c-0.3,0-0.5-0.1-0.7-0.4c-0.2-0.4-0.1-0.8,0.2-1.1l1.7-1.1
			c0.4-0.2,0.8-0.1,1.1,0.2c0.2,0.4,0.1,0.8-0.2,1.1l-1.7,1.1C411.6,88.1,411.4,88.1,411.3,88.1z M459,85.7c-0.1,0-0.3,0-0.4-0.1
			l-1.7-1c-0.4-0.2-0.5-0.7-0.3-1.1c0.2-0.4,0.7-0.5,1.1-0.3l1.7,1c0.4,0.2,0.5,0.7,0.3,1.1C459.5,85.6,459.3,85.7,459,85.7z
			 M416.4,84.9c-0.3,0-0.5-0.1-0.7-0.4c-0.2-0.4-0.1-0.8,0.2-1.1l1.7-1.1c0.4-0.2,0.8-0.1,1.1,0.2c0.2,0.4,0.1,0.8-0.2,1.1l-1.7,1.1
			C416.6,84.8,416.5,84.9,416.4,84.9z M453.8,82.7c-0.1,0-0.3,0-0.4-0.1l-1.7-1c-0.4-0.2-0.5-0.7-0.3-1.1c0.2-0.4,0.7-0.5,1.1-0.3
			l1.7,1c0.4,0.2,0.5,0.7,0.3,1.1C454.4,82.6,454.1,82.7,453.8,82.7z M421.4,81.6c-0.3,0-0.5-0.1-0.7-0.4c-0.2-0.4-0.1-0.8,0.2-1.1
			l1.7-1.1c0.4-0.2,0.8-0.1,1.1,0.2c0.2,0.4,0.1,0.8-0.2,1.1l-1.7,1.1C421.7,81.6,421.5,81.6,421.4,81.6z M448.7,79.7
			c-0.1,0-0.3,0-0.4-0.1l-1.7-1c-0.4-0.2-0.5-0.7-0.3-1.1c0.2-0.4,0.7-0.5,1.1-0.3l1.7,1c0.4,0.2,0.5,0.7,0.3,1.1
			C449.2,79.5,448.9,79.7,448.7,79.7z M426.5,78.4c-0.3,0-0.5-0.1-0.7-0.4c-0.2-0.4-0.1-0.8,0.2-1.1l1.7-1.1
			c0.4-0.2,0.8-0.1,1.1,0.2c0.2,0.4,0.1,0.8-0.2,1.1l-1.7,1.1C426.7,78.3,426.6,78.4,426.5,78.4z M443.5,76.6c-0.1,0-0.3,0-0.4-0.1
			l-1.7-1c-0.4-0.2-0.5-0.7-0.3-1.1c0.2-0.4,0.7-0.5,1.1-0.3l1.7,1c0.4,0.2,0.5,0.7,0.3,1.1C444,76.5,443.7,76.6,443.5,76.6z
			 M431.5,75.2c-0.3,0-0.5-0.1-0.7-0.4c-0.2-0.4-0.1-0.8,0.2-1.1l1.7-1.1c0.4-0.2,0.8-0.1,1.1,0.2c0.2,0.4,0.1,0.8-0.2,1.1l-1.7,1.1
			C431.8,75.1,431.7,75.2,431.5,75.2z M438.3,73.6c-0.1,0-0.3,0-0.4-0.1l-1.7-1c-0.4-0.2-0.5-0.7-0.3-1.1c0.2-0.4,0.7-0.5,1.1-0.3
			l1.7,1c0.4,0.2,0.5,0.7,0.3,1.1C438.8,73.5,438.6,73.6,438.3,73.6z"/>
	</g>
	<g>
		<path class="st1" d="M410.6,134.6l8.7-5.1c0.8-0.5,0.8-1.7,0-2.2l-17.7-10.1L410.6,134.6z"/>
		<path class="st2" d="M408.2,134.5l-34.7-23c-1.1-0.6-2-2.1-2-3.2l-2.3-48.7c-0.1-2.3,3.2-3.1,4.3-2.5l37.1,21.4
			c1.1,0.6,2,2.1,2,3.2V132C412.6,133.1,411,135.6,408.2,134.5z"/>
		<path class="st3" d="M408,134.4L371,113c-1.1-0.6-2-2.1-2-3.2V59.5c0-1.1,0.9-1.5,2-0.8L408,80.1c1.1,0.6,2,2.1,2,3.2v50.3
			C410.1,134.7,409.2,135.1,408,134.4z"/>
		<g class="st4">
			<path d="M380.8,91.4l-8.6-5c-0.5-0.3-1-1-1-1.5v-1.7c0-0.5,0.4-0.7,1-0.4l8.6,5c0.5,0.3,1,1,1,1.5V91
				C381.8,91.5,381.3,91.7,380.8,91.4z"/>
		</g>
		<g class="st4">
			<path d="M380.9,71.8l-8.8-5.1c-0.5-0.3-0.9-0.9-0.9-1.4v-1.2c0-0.5,0.4-0.6,0.9-0.4l8.8,5.1c0.5,0.3,0.9,0.9,0.9,1.4v1.2
				C381.8,71.9,381.4,72.1,380.9,71.8z"/>
		</g>
		<g class="st4">
			<path d="M406.8,93.7l-34.7-20c-0.5-0.3-0.9-0.9-0.9-1.4V71c0-0.5,0.4-0.6,0.9-0.4l34.7,20c0.5,0.3,0.9,0.9,0.9,1.4v1.3
				C407.7,93.8,407.3,93.9,406.8,93.7z"/>
		</g>
		<g class="st4">
			<path d="M406.8,99.4l-34.7-20c-0.5-0.3-0.9-0.9-0.9-1.4v-1.3c0-0.5,0.4-0.6,0.9-0.4l34.7,20c0.5,0.3,0.9,0.9,0.9,1.4V99
				C407.7,99.5,407.3,99.6,406.8,99.4z"/>
		</g>
		<g class="st4">
			<path d="M380.8,97.1l-8.6-5c-0.5-0.3-1-1-1-1.5v-1.7c0-0.5,0.4-0.7,1-0.4l8.6,5c0.5,0.3,1,1,1,1.5v1.7
				C381.8,97.2,381.3,97.4,380.8,97.1z"/>
		</g>
		<g class="st4">
			<path d="M380.8,102.8l-8.6-5c-0.5-0.3-1-1-1-1.5v-1.7c0-0.5,0.4-0.7,1-0.4l8.6,5c0.5,0.3,1,1,1,1.5v1.7
				C381.8,102.9,381.3,103.1,380.8,102.8z"/>
		</g>
		<g class="st4">
			<path d="M380.8,108.5l-8.6-5c-0.5-0.3-1-1-1-1.5v-1.7c0-0.5,0.4-0.7,1-0.4l8.6,5c0.5,0.3,1,1,1,1.5v1.7
				C381.8,108.6,381.3,108.8,380.8,108.5z"/>
		</g>
		<g class="st4">
			<path d="M380.8,114.1l-8.6-5c-0.5-0.3-1-1-1-1.5V106c0-0.5,0.4-0.7,1-0.4l8.6,5c0.5,0.3,1,1,1,1.5v1.7
				C381.8,114.3,381.3,114.5,380.8,114.1z"/>
		</g>
		<g class="st4">
			<path d="M393.8,98.8l-8.6-5c-0.5-0.3-1-1-1-1.5v-1.7c0-0.5,0.4-0.7,1-0.4l8.6,5c0.5,0.3,1,1,1,1.5v1.7
				C394.7,99,394.3,99.2,393.8,98.8z"/>
		</g>
		<g class="st4">
			<path d="M393.8,104.5l-8.6-5c-0.5-0.3-1-1-1-1.5v-1.7c0-0.5,0.4-0.7,1-0.4l8.6,5c0.5,0.3,1,1,1,1.5v1.7
				C394.7,104.7,394.3,104.8,393.8,104.5z"/>
		</g>
		<g class="st4">
			<path d="M393.8,110.2l-8.6-5c-0.5-0.3-1-1-1-1.5v-1.7c0-0.5,0.4-0.7,1-0.4l8.6,5c0.5,0.3,1,1,1,1.5v1.7
				C394.7,110.4,394.3,110.5,393.8,110.2z"/>
		</g>
		<g class="st4">
			<path d="M393.8,115.9l-8.6-5c-0.5-0.3-1-1-1-1.5v-1.7c0-0.5,0.4-0.7,1-0.4l8.6,5c0.5,0.3,1,1,1,1.5v1.7
				C394.7,116,394.3,116.2,393.8,115.9z"/>
		</g>
		<g class="st4">
			<path d="M406.7,106.3l-8.6-5c-0.5-0.3-1-1-1-1.5v-1.7c0-0.5,0.4-0.7,1-0.4l8.6,5c0.5,0.3,1,1,1,1.5v1.7
				C407.7,106.4,407.2,106.6,406.7,106.3z"/>
		</g>
		<g class="st4">
			<path d="M406.7,112l-8.6-5c-0.5-0.3-1-1-1-1.5v-1.7c0-0.5,0.4-0.7,1-0.4l8.6,5c0.5,0.3,1,1,1,1.5v1.7
				C407.7,112.1,407.2,112.3,406.7,112z"/>
		</g>
		<g class="st4">
			<path d="M406.7,117.7l-8.6-5c-0.5-0.3-1-1-1-1.5v-1.7c0-0.5,0.4-0.7,1-0.4l8.6,5c0.5,0.3,1,1,1,1.5v1.7
				C407.7,117.8,407.2,118,406.7,117.7z"/>
		</g>
		<g class="st4">
			<path d="M406.7,123.4l-8.6-5c-0.5-0.3-1-1-1-1.5v-1.7c0-0.5,0.4-0.7,1-0.4l8.6,5c0.5,0.3,1,1,1,1.5v1.7
				C407.7,123.5,407.2,123.7,406.7,123.4z"/>
		</g>
	</g>
	<g>
		<ellipse class="st1" cx="418.7" cy="155.9" rx="33" ry="12.7"/>
		<g>
			<g>
				<path class="st5" d="M387.1,160.3c-5.8,0-10.6-4.7-10.6-10.6c0-3.6,1.8-7,4.9-8.9c3-2.1,3.6-4.7,2.3-9.4
					c-4.3-6.5-6.6-14.1-6.6-21.9c0-21.9,17.8-39.8,39.8-39.8c21.9,0,39.8,17.8,39.8,39.8c0,4.4-0.7,8.8-2.2,12.9
					c-0.3,1.6-0.4,4,0.5,6.9c1.1,2.1,1.7,4.4,1.7,6.8c0,8-6.5,14.5-14.5,14.5c-1.5,0-3.1-0.3-4.6-0.8c-0.1,0-0.1,0-0.2,0
					c-0.1,0-4.9-1.5-10-1.5c-0.6,0-1.2,0-1.8,0.1c-2.8,0.6-5.8,1-8.6,1c-4.7,0-9.2-0.8-13.6-2.4c0,0,0,0,0,0
					c-0.6-0.1-1.1-0.1-1.5-0.1c-2.4,0-3.4,1-4.2,4c-0.1,0.9-0.3,1.7-0.6,2.6l0,0.1C395.5,157.5,391.5,160.3,387.1,160.3z"/>
				<path class="st6" d="M417,71.2c21.1,0,38.3,17.1,38.3,38.3c0,4.4-0.8,8.6-2.1,12.5c-0.3,1.7-0.5,4.6,0.5,7.9
					c1,1.8,1.6,3.9,1.6,6.2c0,7.2-5.8,13-13,13c-1.5,0-2.9-0.3-4.2-0.7c-0.1,0-0.1,0-0.2,0c0,0-5-1.6-10.4-1.6c-0.7,0-1.4,0-2,0.1
					c-2.7,0.6-5.5,0.9-8.4,0.9c-4.7,0-9.1-0.8-13.3-2.4c0,0,0,0,0,0c0,0,0,0,0,0c0,0,0,0-0.1,0c-0.6-0.1-1.2-0.1-1.7-0.1
					c-3.5,0-4.8,1.9-5.6,5.2c-0.1,0.8-0.2,1.6-0.5,2.3c0,0,0,0,0,0.1c-1.3,3.5-4.6,5.9-8.5,5.9c-5,0-9.1-4.1-9.1-9.1
					c0-3.2,1.7-6.1,4.2-7.7c4.2-3,4.1-6.8,2.9-11.1c0,0,0-0.1,0-0.1c-4.1-6.1-6.5-13.4-6.5-21.3C378.7,88.3,395.8,71.2,417,71.2
					 M417,68.2c-22.8,0-41.3,18.5-41.3,41.3c0,8,2.3,15.8,6.7,22.5c1.1,3.9,0.6,5.8-1.8,7.5c-3.5,2.2-5.6,6-5.6,10.2
					c0,6.7,5.4,12.1,12.1,12.1c5,0,9.5-3.1,11.3-7.8l0-0.1l0.1-0.2c0.3-0.9,0.5-1.9,0.6-2.8c0.7-2.7,1.4-2.7,2.7-2.7
					c0.4,0,0.8,0,1.2,0.1c4.5,1.6,9.2,2.4,14,2.4c3,0,5.9-0.3,8.8-1c0.5,0,1.1-0.1,1.6-0.1c4.9,0,9.5,1.4,9.5,1.4l0.1,0l0.1,0
					c0.1,0,0.1,0,0.2,0c1.6,0.5,3.3,0.8,5,0.8c8.8,0,16-7.2,16-16c0-2.6-0.6-5.1-1.8-7.3c-0.7-2.5-0.7-4.6-0.4-6
					c1.5-4.3,2.2-8.8,2.2-13.3C458.3,86.7,439.7,68.2,417,68.2L417,68.2z"/>
			</g>
			<g>
				<path d="M426.1,106.2c-1.8,0-3.2-1.5-3.2-3.2v-8.4c0-1.8,1.5-3.2,3.2-3.2s3.2,1.5,3.2,3.2v8.4
					C429.3,104.8,427.9,106.2,426.1,106.2z"/>
			</g>
			<g>
				<path d="M399.5,106.2c-1.8,0-3.2-1.5-3.2-3.2v-8.4c0-1.8,1.5-3.2,3.2-3.2s3.2,1.5,3.2,3.2v8.4
					C402.7,104.8,401.3,106.2,399.5,106.2z"/>
			</g>
		</g>
	</g>
	<g>
		<path class="st1" d="M342.6,96.9l8.7-5.1c0.8-0.5,0.8-1.7,0-2.2l-17.7-10.1L342.6,96.9z"/>
		<path class="st2" d="M340.2,97l-34.7-23c-1.1-0.6-2-2.1-2-3.2l-2-48.6c-0.1-2.3,2.9-3.2,4.1-2.6L342.6,41c1.1,0.6,2,2.1,2,3.2
			v50.3C344.6,95.6,343,98,340.2,97z"/>
		<path class="st7" d="M340.5,96.9l-37.1-21.4c-1.1-0.6-2-2.1-2-3.2V22c0-1.1,0.9-1.5,2-0.8l37.1,21.4c1.1,0.6,2,2.1,2,3.2v50.3
			C342.5,97.2,341.6,97.5,340.5,96.9z"/>
		<g class="st4">
			<path d="M313.2,53.9l-8.6-5c-0.5-0.3-1-1-1-1.5v-1.7c0-0.5,0.4-0.7,1-0.4l8.6,5c0.5,0.3,1,1,1,1.5v1.7
				C314.2,54,313.8,54.2,313.2,53.9z"/>
		</g>
		<g class="st4">
			<path d="M313.3,34.3l-8.8-5.1c-0.5-0.3-0.9-0.9-0.9-1.4v-1.2c0-0.5,0.4-0.6,0.9-0.4l8.8,5.1c0.5,0.3,0.9,0.9,0.9,1.4v1.2
				C314.2,34.4,313.8,34.6,313.3,34.3z"/>
		</g>
		<g class="st4">
			<path d="M339.2,56.1l-34.7-20c-0.5-0.3-0.9-0.9-0.9-1.4v-1.3c0-0.5,0.4-0.6,0.9-0.4l34.7,20c0.5,0.3,0.9,0.9,0.9,1.4v1.3
				C340.1,56.3,339.7,56.4,339.2,56.1z"/>
		</g>
		<g class="st4">
			<path d="M339.2,61.8l-34.7-20c-0.5-0.3-0.9-0.9-0.9-1.4v-1.3c0-0.5,0.4-0.6,0.9-0.4l34.7,20c0.5,0.3,0.9,0.9,0.9,1.4v1.3
				C340.1,62,339.7,62.1,339.2,61.8z"/>
		</g>
		<g class="st4">
			<path d="M313.2,59.6l-8.6-5c-0.5-0.3-1-1-1-1.5v-1.7c0-0.5,0.4-0.7,1-0.4l8.6,5c0.5,0.3,1,1,1,1.5v1.7
				C314.2,59.7,313.8,59.9,313.2,59.6z"/>
		</g>
		<g class="st4">
			<path d="M313.2,65.2l-8.6-5c-0.5-0.3-1-1-1-1.5v-1.7c0-0.5,0.4-0.7,1-0.4l8.6,5c0.5,0.3,1,1,1,1.5v1.7
				C314.2,65.4,313.8,65.5,313.2,65.2z"/>
		</g>
		<g class="st4">
			<path d="M313.2,70.9l-8.6-5c-0.5-0.3-1-1-1-1.5v-1.7c0-0.5,0.4-0.7,1-0.4l8.6,5c0.5,0.3,1,1,1,1.5v1.7
				C314.2,71.1,313.8,71.2,313.2,70.9z"/>
		</g>
		<g class="st4">
			<path d="M326.2,61.3l-8.6-5c-0.5-0.3-1-1-1-1.5v-1.7c0-0.5,0.4-0.7,1-0.4l8.6,5c0.5,0.3,1,1,1,1.5v1.7
				C327.1,61.5,326.7,61.6,326.2,61.3z"/>
		</g>
		<g class="st4">
			<path d="M326.2,67l-8.6-5c-0.5-0.3-1-1-1-1.5v-1.7c0-0.5,0.4-0.7,1-0.4l8.6,5c0.5,0.3,1,1,1,1.5v1.7
				C327.1,67.1,326.7,67.3,326.2,67z"/>
		</g>
		<g class="st4">
			<path d="M339.1,68.8l-8.6-5c-0.5-0.3-1-1-1-1.5v-1.7c0-0.5,0.4-0.7,1-0.4l8.6,5c0.5,0.3,1,1,1,1.5v1.7
				C340.1,68.9,339.7,69.1,339.1,68.8z"/>
		</g>
		<g class="st4">
			<path d="M339.1,74.5l-8.6-5c-0.5-0.3-1-1-1-1.5v-1.7c0-0.5,0.4-0.7,1-0.4l8.6,5c0.5,0.3,1,1,1,1.5v1.7
				C340.1,74.6,339.7,74.8,339.1,74.5z"/>
		</g>
	</g>
	<g>
		<ellipse class="st1" cx="218.6" cy="307.6" rx="33" ry="12.7"/>
		<g>
			<g>
				<path class="st3" d="M216,309.2c-10.2,0-19.8-3.8-27.2-10.8c-16-15-16.8-40.2-1.8-56.2c5.4-5.7,12.2-9.7,19.8-11.5
					c4.2-2.5,5.5-4.8,4.8-8.5c-0.9-3.5,0-7.2,2.5-9.8c2-2.1,4.8-3.3,7.7-3.3c2.7,0,5.3,1,7.2,2.9c3.2,3,4.2,7.7,2.5,11.8l-0.1,0.2
					c-0.4,0.8-0.8,1.6-1.3,2.3c-1.6,2.8-1.7,4.4,1.5,6.7l0,0c4.3,1.8,8.1,4.4,11.6,7.6c2.1,2,4,4.2,5.6,6.6c3.9,4.3,9.5,7,9.6,7
					c0.1,0.1,0.2,0.1,0.2,0.1c1.4,0.7,2.7,1.5,3.9,2.6c2.8,2.6,4.4,6.2,4.6,10.1c0.1,3.9-1.3,7.5-3.9,10.4c-1.6,1.7-3.6,3-5.9,3.8
					c-2.6,1.5-4.2,3.3-5.1,4.7c-1.8,4-4.3,7.7-7.3,10.9C237.6,304.6,227,309.2,216,309.2z"/>
				<path class="st6" d="M221.8,210.6c2.2,0,4.5,0.8,6.2,2.5c2.8,2.7,3.6,6.8,2.1,10.2c0,0,0,0,0,0.1c-0.3,0.7-0.7,1.4-1.2,2
					c-1.9,3.4-2.1,6,1.9,8.8c0,0,0.1,0.1,0.1,0.1c4.1,1.7,7.9,4.2,11.3,7.4c2.1,2,3.9,4.1,5.5,6.4c4.2,4.6,10.1,7.5,10.1,7.5
					c0.1,0,0.1,0.1,0.2,0.1c1.3,0.6,2.5,1.4,3.6,2.4c5.2,4.9,5.5,13.1,0.6,18.3c-1.5,1.6-3.4,2.8-5.4,3.4c-3,1.7-4.8,3.9-5.8,5.4
					c-1.7,3.8-4,7.4-7,10.6c-7.5,8-17.7,12.1-27.9,12.1c-9.4,0-18.8-3.4-26.2-10.4c-15.4-14.5-16.2-38.7-1.7-54.1
					c5.4-5.7,12.2-9.5,19.3-11.1c0,0,0,0,0.1-0.1c3.9-2.3,6.5-5.1,5.5-10.1c-0.8-2.9-0.1-6.1,2.2-8.5
					C217,211.6,219.4,210.6,221.8,210.6 M221.8,207.6L221.8,207.6c-3.3,0-6.5,1.4-8.8,3.8c-2.8,3-3.9,7.2-2.9,11.2
					c0.6,2.9-0.4,4.6-3.9,6.7c-7.8,1.9-14.8,6-20.3,11.8c-15.6,16.6-14.8,42.8,1.8,58.3c7.7,7.2,17.7,11.2,28.3,11.2
					c11.4,0,22.3-4.7,30.1-13c3.1-3.3,5.6-7.1,7.5-11.2c0.8-1.2,2.2-2.8,4.4-4.1c2.4-0.8,4.6-2.3,6.3-4.1c6-6.4,5.7-16.5-0.7-22.6
					c-1.2-1.1-2.6-2.1-4.2-2.8c-0.1,0-0.1-0.1-0.2-0.1l-0.1,0l-0.1,0c-0.1,0-5.3-2.6-9-6.6c-1.7-2.5-3.6-4.7-5.8-6.8
					c-3.5-3.3-7.5-5.9-11.8-7.8c-2.3-1.6-2.2-2.4-1-4.6c0.6-0.8,1.1-1.6,1.5-2.5l0,0c0,0,0-0.1,0.1-0.1c1.9-4.6,0.8-10-2.9-13.5
					C227.9,208.8,224.9,207.6,221.8,207.6L221.8,207.6z"/>
			</g>
			<g>
				<path d="M209.1,264c1.8,0,3.2-1.5,3.2-3.2v-8.4c0-1.8-1.5-3.2-3.2-3.2s-3.2,1.5-3.2,3.2v8.4C205.9,262.6,207.3,264,209.1,264z"
					/>
			</g>
			<g>
				<path d="M235.7,264c1.8,0,3.2-1.5,3.2-3.2v-8.4c0-1.8-1.5-3.2-3.2-3.2c-1.8,0-3.2,1.5-3.2,3.2v8.4
					C232.5,262.6,233.9,264,235.7,264z"/>
			</g>
		</g>
	</g>
	<g>
		<ellipse class="st1" cx="106.3" cy="161.7" rx="33" ry="12.7"/>
		<g>
			<path class="st7" d="M141.4,158.8c-0.6,0-1.1,0-1.7-0.1c-3.6-0.6-6.6-2.9-8.1-6.3c-1.3-2.7-3.3-3.9-6.6-3.9
				c-0.7,0-1.5,0.1-2.3,0.2c-5.2,2.4-10.7,3.6-16.4,3.6c-2.1,0-4.2-0.2-6.3-0.5c-21.7-3.4-36.5-23.8-33.1-45.5
				c3.1-19.4,19.6-33.6,39.2-33.6c2.1,0,4.2,0.2,6.3,0.5c4.4,0.7,8.5,2.1,12.4,4.2c1,0.4,2.7,0.8,4.7,0.8c0.7,0,1.5-0.1,2.2-0.2
				c1.5-0.5,3.1-0.8,4.7-0.8c0.8,0,1.5,0.1,2.3,0.2c3.8,0.6,7.2,2.7,9.4,5.8c2.3,3.1,3.2,7,2.6,10.8c-0.2,1.5-0.7,3-1.5,4.4
				c0,0.1,0,0.1-0.1,0.2c-0.1,0.1-2.8,5.7-3.3,11.5c0.2,2.9,0,5.8-0.4,8.7c-0.7,4.6-2.2,9-4.5,13.1c0,0,0,0,0,0
				c-1.2,3.8,0,5,2.9,6.2c0.9,0.2,1.7,0.5,2.5,1l0.1,0c3.8,2.2,6,6.5,5.3,10.9C151,155,146.6,158.8,141.4,158.8
				C141.4,158.8,141.4,158.8,141.4,158.8z"/>
			<path class="st6" d="M106.3,74.1c2,0,4,0.2,6,0.5c4.3,0.7,8.4,2.1,12.1,4c1.2,0.4,3,0.9,5.3,0.9c0.8,0,1.7-0.1,2.6-0.2
				c1.4-0.5,2.8-0.7,4.3-0.7c0.7,0,1.4,0.1,2,0.2c7.1,1.1,11.9,7.8,10.8,14.8c-0.2,1.5-0.7,2.8-1.4,4.1c0,0.1,0,0.1-0.1,0.2
				c0,0-2.9,5.9-3.4,12.1c0.2,2.8,0.1,5.6-0.4,8.5c-0.7,4.6-2.3,8.9-4.4,12.8c0,0,0,0.1,0,0.1c-1.4,4.6,0.2,6.6,3.9,8.1
				c0.8,0.2,1.5,0.5,2.2,0.9c0,0,0,0,0.1,0c3.2,1.8,5.1,5.5,4.5,9.3c-0.7,4.5-4.6,7.7-9,7.7c-0.5,0-1,0-1.4-0.1
				c-3.2-0.5-5.7-2.6-6.9-5.4c-1.8-3.7-4.6-4.8-8-4.8c-0.8,0-1.7,0.1-2.6,0.2c0,0,0,0,0,0c0,0,0,0-0.1,0c0,0,0,0,0,0
				c-4.9,2.3-10.4,3.5-16,3.5c-2,0-4-0.2-6-0.5c-20.9-3.3-35.1-22.9-31.8-43.8C71.5,87.6,87.8,74.1,106.3,74.1 M106.3,71.1
				L106.3,71.1c-9.7,0-19.2,3.5-26.6,9.8c-7.5,6.4-12.5,15.3-14.1,25c-1.7,10.9,0.9,21.8,7.4,30.7c6.5,8.9,16,14.8,26.9,16.5
				c2.2,0.3,4.3,0.5,6.5,0.5c5.8,0,11.5-1.2,16.8-3.6c0.7-0.1,1.3-0.1,1.9-0.1c2.7,0,4.1,0.8,5.3,3c1.7,3.8,5.1,6.4,9.2,7.1
				c0.6,0.1,1.3,0.1,1.9,0.1c6,0,11-4.3,11.9-10.2c0.8-4.9-1.6-9.9-5.9-12.3l-0.1,0l-0.2-0.1c-0.9-0.5-1.8-0.8-2.7-1.1
				c-2.3-1-2.8-1.6-2-4.2c2.3-4.2,3.8-8.7,4.6-13.4c0.5-2.9,0.6-5.9,0.4-8.9c0.5-5.5,3.1-10.7,3.1-10.8l0-0.1l0-0.1
				c0-0.1,0-0.1,0.1-0.2c0.8-1.5,1.3-3.1,1.6-4.8c0.7-4.2-0.3-8.4-2.9-11.9c-2.5-3.5-6.2-5.7-10.4-6.4c-0.8-0.1-1.7-0.2-2.5-0.2
				c-1.7,0-3.4,0.3-5,0.8c-0.6,0.1-1.3,0.1-1.9,0.1c-1.7,0-3.1-0.3-4.1-0.7c-4-2.1-8.3-3.5-12.8-4.3
				C110.6,71.3,108.5,71.1,106.3,71.1L106.3,71.1z"/>
		</g>
		<g>
			<path d="M127.6,121.1c-1.8,0-3.2-1.5-3.2-3.2v-8.4c0-1.8,1.5-3.2,3.2-3.2c1.8,0,3.2,1.5,3.2,3.2v8.4
				C130.9,119.6,129.4,121.1,127.6,121.1z"/>
		</g>
		<g>
			<path d="M101,121.1c-1.8,0-3.2-1.5-3.2-3.2v-8.4c0-1.8,1.5-3.2,3.2-3.2s3.2,1.5,3.2,3.2v8.4C104.3,119.6,102.8,121.1,101,121.1z"
				/>
		</g>
		<g class="st4">
			<path d="M149.5,144.2c-2.2,6-8.6,4-12.1,2.3c-3.5-1.7-7.3-3.8-17.8-1.8c-10.5,2-27-0.8-37.7-13.2S71,99.2,71.9,95.8l0.1-0.3
				c-1.7,3.4-2.9,7.1-3.5,11c-3.3,20.9,10.9,40.5,31.8,43.8c7.8,1.2,15.4,0,22.1-3.1c0,0,0.1,0,0.1,0c4.5-0.6,8.3,0,10.5,4.6
				c1.2,2.8,3.7,4.9,6.9,5.4c5,0.8,9.6-2.6,10.4-7.5c0.3-1.8,0-3.5-0.6-5L149.5,144.2z"/>
		</g>
	</g>
	<g>
		<path class="st1" d="M28.9,191.5l-8.7-5.1c-0.8-0.5-0.8-1.7,0-2.2l17.7-10.1L28.9,191.5z"/>
		<path class="st2" d="M66,168.7l-34.9,22.8c-1.1,0.6-4.2-0.1-4.2-2.2v-50.3c0-1.1,0.9-2.5,2-3.2L66,114.3c2.3-1.2,4.3,0.7,4.3,1.8
			L68,165.5C68,166.6,67.1,168,66,168.7z"/>
		<path class="st7" d="M68.3,169.9l-37.1,21.4c-1.1,0.6-2,0.3-2-0.8v-50.3c0-1.1,0.9-2.5,2-3.2l37.1-21.4c1.1-0.6,2-0.3,2,0.8v50.3
			C70.3,167.8,69.4,169.2,68.3,169.9z"/>
		<g class="st4">
			<path d="M41.1,138.6l-8.8,5.1c-0.5,0.3-0.9,0.1-0.9-0.4v-1.2c0-0.5,0.4-1.1,0.9-1.4l8.8-5.1c0.5-0.3,0.9-0.1,0.9,0.4v1.2
				C42,137.7,41.6,138.4,41.1,138.6z"/>
		</g>
		<g class="st4">
			<path d="M67,130.6l-34.7,20c-0.5,0.3-0.9,0.1-0.9-0.4V149c0-0.5,0.4-1.1,0.9-1.4l34.7-20c0.5-0.3,0.9-0.1,0.9,0.4v1.3
				C67.9,129.7,67.5,130.3,67,130.6z"/>
		</g>
		<g class="st4">
			<path d="M67,136.3l-34.7,20c-0.5,0.3-0.9,0.1-0.9-0.4v-1.3c0-0.5,0.4-1.1,0.9-1.4l34.7-20c0.5-0.3,0.9-0.1,0.9,0.4v1.3
				C67.9,135.4,67.5,136,67,136.3z"/>
		</g>
	</g>
	<g>
		<path class="st1" d="M45.8,201.5l-8.7-5.1c-0.8-0.5-0.8-1.7,0-2.2l17.7-10.1L45.8,201.5z"/>
		<path class="st2" d="M83,178.8l-34.9,22.6c-1.1,0.6-4.2,0.1-4.2-2V149c0-1.1,0.9-2.5,2-3.2L83,124.4c2.3-1.2,4.3,0.7,4.3,1.8
			l-2.3,49.3C85.1,176.7,84.2,178.1,83,178.8z"/>
		<path class="st7" d="M85.3,179.9l-37.1,21.4c-1.1,0.6-2,0.3-2-0.8v-50.3c0-1.1,0.9-2.5,2-3.2l37.1-21.4c1.1-0.6,2-0.3,2,0.8v50.3
			C87.3,177.8,86.4,179.2,85.3,179.9z"/>
		<g class="st4">
			<path d="M58.1,168.3l-8.6,5c-0.5,0.3-1,0.1-1-0.4v-1.7c0-0.5,0.4-1.2,1-1.5l8.6-5c0.5-0.3,1-0.1,1,0.4v1.7
				C59,167.3,58.6,168,58.1,168.3z"/>
		</g>
		<g class="st4">
			<path d="M58.2,148.6l-8.8,5.1c-0.5,0.3-0.9,0.1-0.9-0.4v-1.2c0-0.5,0.4-1.1,0.9-1.4l8.8-5.1c0.5-0.3,0.9-0.1,0.9,0.4v1.2
				C59,147.7,58.7,148.4,58.2,148.6z"/>
		</g>
		<g class="st4">
			<path d="M84.1,140.6l-34.7,20c-0.5,0.3-0.9,0.1-0.9-0.4V159c0-0.5,0.4-1.1,0.9-1.4l34.7-20c0.5-0.3,0.9-0.1,0.9,0.4v1.3
				C84.9,139.7,84.5,140.3,84.1,140.6z"/>
		</g>
		<g class="st4">
			<path d="M84.1,146.3l-34.7,20c-0.5,0.3-0.9,0.1-0.9-0.4v-1.3c0-0.5,0.4-1.1,0.9-1.4l34.7-20c0.5-0.3,0.9-0.1,0.9,0.4v1.3
				C84.9,145.4,84.5,146,84.1,146.3z"/>
		</g>
		<g class="st4">
			<path d="M58.1,174l-8.6,5c-0.5,0.3-1,0.1-1-0.4v-1.7c0-0.5,0.4-1.2,1-1.5l8.6-5c0.5-0.3,1-0.1,1,0.4v1.7
				C59,173,58.6,173.7,58.1,174z"/>
		</g>
		<g class="st4">
			<path d="M58.1,179.7l-8.6,5c-0.5,0.3-1,0.1-1-0.4v-1.7c0-0.5,0.4-1.2,1-1.5l8.6-5c0.5-0.3,1-0.1,1,0.4v1.7
				C59,178.7,58.6,179.4,58.1,179.7z"/>
		</g>
		<g class="st4">
			<path d="M58.1,185.4l-8.6,5c-0.5,0.3-1,0.1-1-0.4v-1.7c0-0.5,0.4-1.2,1-1.5l8.6-5c0.5-0.3,1-0.1,1,0.4v1.7
				C59,184.4,58.6,185.1,58.1,185.4z"/>
		</g>
		<g class="st4">
			<path d="M71,160.8l-8.6,5c-0.5,0.3-1,0.1-1-0.4v-1.7c0-0.5,0.4-1.2,1-1.5l8.6-5c0.5-0.3,1-0.1,1,0.4v1.7
				C72,159.8,71.6,160.5,71,160.8z"/>
		</g>
		<g class="st4">
			<path d="M71,166.5l-8.6,5c-0.5,0.3-1,0.1-1-0.4v-1.7c0-0.5,0.4-1.2,1-1.5l8.6-5c0.5-0.3,1-0.1,1,0.4v1.7
				C72,165.5,71.6,166.2,71,166.5z"/>
		</g>
		<g class="st4">
			<path d="M84,153.3l-8.6,5c-0.5,0.3-1,0.1-1-0.4v-1.7c0-0.5,0.4-1.2,1-1.5l8.6-5c0.5-0.3,1-0.1,1,0.4v1.7
				C84.9,152.4,84.5,153,84,153.3z"/>
		</g>
		<g class="st4">
			<path d="M84,159l-8.6,5c-0.5,0.3-1,0.1-1-0.4v-1.7c0-0.5,0.4-1.2,1-1.5l8.6-5c0.5-0.3,1-0.1,1,0.4v1.7
				C84.9,158.1,84.5,158.7,84,159z"/>
		</g>
	</g>
	<g>
		<path class="st1" d="M66.4,213.1l-8.7-5.1c-0.8-0.5-0.8-1.7,0-2.2l17.7-10.1L66.4,213.1z"/>
		<path class="st2" d="M102.5,190.1l-34.9,22.8c-1.1,0.6-4.2-0.1-4.2-2.2v-50.3c0-1.1,0.9-2.5,2-3.2l37.1-21.4
			c2.3-1.2,4.3,0.7,4.3,1.8l-2.3,49.3C104.5,188.1,103.6,189.5,102.5,190.1z"/>
		<path class="st7" d="M104.8,191.5l-37.1,21.4c-1.1,0.6-2,0.3-2-0.8v-50.3c0-1.1,0.9-2.5,2-3.2l37.1-21.4c1.1-0.6,2-0.3,2,0.8v50.3
			C106.8,189.4,105.9,190.8,104.8,191.5z"/>
		<g class="st4">
			<path d="M77.6,179.9l-8.6,5c-0.5,0.3-1,0.1-1-0.4v-1.7c0-0.5,0.4-1.2,1-1.5l8.6-5c0.5-0.3,1-0.1,1,0.4v1.7
				C78.5,178.9,78.1,179.6,77.6,179.9z"/>
		</g>
		<g class="st4">
			<path d="M77.7,160.2l-8.8,5.1c-0.5,0.3-0.9,0.1-0.9-0.4v-1.2c0-0.5,0.4-1.1,0.9-1.4l8.8-5.1c0.5-0.3,0.9-0.1,0.9,0.4v1.2
				C78.5,159.3,78.1,159.9,77.7,160.2z"/>
		</g>
		<g class="st4">
			<path d="M103.5,152.2l-34.7,20c-0.5,0.3-0.9,0.1-0.9-0.4v-1.3c0-0.5,0.4-1.1,0.9-1.4l34.7-20c0.5-0.3,0.9-0.1,0.9,0.4v1.3
				C104.4,151.3,104,151.9,103.5,152.2z"/>
		</g>
		<g class="st4">
			<path d="M103.5,157.9l-34.7,20c-0.5,0.3-0.9,0.1-0.9-0.4v-1.3c0-0.5,0.4-1.1,0.9-1.4l34.7-20c0.5-0.3,0.9-0.1,0.9,0.4v1.3
				C104.4,157,104,157.6,103.5,157.9z"/>
		</g>
		<g class="st4">
			<path d="M77.6,185.6l-8.6,5c-0.5,0.3-1,0.1-1-0.4v-1.7c0-0.5,0.4-1.2,1-1.5l8.6-5c0.5-0.3,1-0.1,1,0.4v1.7
				C78.5,184.6,78.1,185.2,77.6,185.6z"/>
		</g>
		<g class="st4">
			<path d="M77.6,191.2l-8.6,5c-0.5,0.3-1,0.1-1-0.4v-1.7c0-0.5,0.4-1.2,1-1.5l8.6-5c0.5-0.3,1-0.1,1,0.4v1.7
				C78.5,190.3,78.1,190.9,77.6,191.2z"/>
		</g>
		<g class="st4">
			<path d="M77.6,196.9l-8.6,5c-0.5,0.3-1,0.1-1-0.4v-1.7c0-0.5,0.4-1.2,1-1.5l8.6-5c0.5-0.3,1-0.1,1,0.4v1.7
				C78.5,196,78.1,196.6,77.6,196.9z"/>
		</g>
		<g class="st4">
			<path d="M77.6,202.6l-8.6,5c-0.5,0.3-1,0.1-1-0.4v-1.7c0-0.5,0.4-1.2,1-1.5l8.6-5c0.5-0.3,1-0.1,1,0.4v1.7
				C78.5,201.7,78.1,202.3,77.6,202.6z"/>
		</g>
		<g class="st4">
			<path d="M90.5,172.4l-8.6,5c-0.5,0.3-1,0.1-1-0.4v-1.7c0-0.5,0.4-1.2,1-1.5l8.6-5c0.5-0.3,1-0.1,1,0.4v1.7
				C91.5,171.4,91,172.1,90.5,172.4z"/>
		</g>
		<g class="st4">
			<path d="M90.5,178.1l-8.6,5c-0.5,0.3-1,0.1-1-0.4V181c0-0.5,0.4-1.2,1-1.5l8.6-5c0.5-0.3,1-0.1,1,0.4v1.7
				C91.5,177.1,91,177.8,90.5,178.1z"/>
		</g>
		<g class="st4">
			<path d="M90.5,183.8l-8.6,5c-0.5,0.3-1,0.1-1-0.4v-1.7c0-0.5,0.4-1.2,1-1.5l8.6-5c0.5-0.3,1-0.1,1,0.4v1.7
				C91.5,182.8,91,183.5,90.5,183.8z"/>
		</g>
		<g class="st4">
			<path d="M90.5,189.5l-8.6,5c-0.5,0.3-1,0.1-1-0.4v-1.7c0-0.5,0.4-1.2,1-1.5l8.6-5c0.5-0.3,1-0.1,1,0.4v1.7
				C91.5,188.5,91,189.2,90.5,189.5z"/>
		</g>
		<g class="st4">
			<path d="M103.5,164.9l-8.6,5c-0.5,0.3-1,0.1-1-0.4v-1.7c0-0.5,0.4-1.2,1-1.5l8.6-5c0.5-0.3,1-0.1,1,0.4v1.7
				C104.4,163.9,104,164.6,103.5,164.9z"/>
		</g>
		<g class="st4">
			<path d="M103.5,170.6l-8.6,5c-0.5,0.3-1,0.1-1-0.4v-1.7c0-0.5,0.4-1.2,1-1.5l8.6-5c0.5-0.3,1-0.1,1,0.4v1.7
				C104.4,169.6,104,170.3,103.5,170.6z"/>
		</g>
		<g class="st4">
			<path d="M103.5,176.3l-8.6,5c-0.5,0.3-1,0.1-1-0.4v-1.7c0-0.5,0.4-1.2,1-1.5l8.6-5c0.5-0.3,1-0.1,1,0.4v1.7
				C104.4,175.3,104,176,103.5,176.3z"/>
		</g>
		<g class="st4">
			<path d="M103.5,182l-8.6,5c-0.5,0.3-1,0.1-1-0.4v-1.7c0-0.5,0.4-1.2,1-1.5l8.6-5c0.5-0.3,1-0.1,1,0.4v1.7
				C104.4,181,104,181.7,103.5,182z"/>
		</g>
	</g>
	<g>
		<path class="st1" d="M351.3,281l8.7-5.1c0.8-0.5,0.8-1.7,0-2.2l-17.7-10.1L351.3,281z"/>
		<path class="st2" d="M349.1,281.1l-34.7-23c-1.1-0.6-2-2.1-2-3.2l-2.3-48.7c-0.1-2.3,3.2-3.1,4.3-2.5l37.1,21.4
			c1.1,0.6,2,2.1,2,3.2v50.3C353.5,279.7,351.9,282.1,349.1,281.1z"/>
		<path class="st3" d="M349.3,280.7l-37.1-21.4c-1.1-0.6-2-2.1-2-3.2v-50.3c0-1.1,0.9-1.5,2-0.8l37.1,21.4c1.1,0.6,2,2.1,2,3.2v50.3
			C351.4,281,350.5,281.4,349.3,280.7z"/>
		<g class="st4">
			<path d="M322.1,237.7l-8.6-5c-0.5-0.3-1-1-1-1.5v-1.7c0-0.5,0.4-0.7,1-0.4l8.6,5c0.5,0.3,1,1,1,1.5v1.7
				C323.1,237.8,322.7,238,322.1,237.7z"/>
		</g>
		<g class="st4">
			<path d="M322.2,218.1l-8.8-5.1c-0.5-0.3-0.9-0.9-0.9-1.4v-1.2c0-0.5,0.4-0.6,0.9-0.4l8.8,5.1c0.5,0.3,0.9,0.9,0.9,1.4v1.2
				C323.1,218.2,322.7,218.4,322.2,218.1z"/>
		</g>
		<g class="st4">
			<path d="M348.1,240l-34.7-20c-0.5-0.3-0.9-0.9-0.9-1.4v-1.3c0-0.5,0.4-0.6,0.9-0.4l34.7,20c0.5,0.3,0.9,0.9,0.9,1.4v1.3
				C349,240.1,348.6,240.2,348.1,240z"/>
		</g>
		<g class="st4">
			<path d="M348.1,245.7l-34.7-20c-0.5-0.3-0.9-0.9-0.9-1.4V223c0-0.5,0.4-0.6,0.9-0.4l34.7,20c0.5,0.3,0.9,0.9,0.9,1.4v1.3
				C349,245.8,348.6,245.9,348.1,245.7z"/>
		</g>
		<g class="st4">
			<path d="M322.1,243.4l-8.6-5c-0.5-0.3-1-1-1-1.5v-1.7c0-0.5,0.4-0.7,1-0.4l8.6,5c0.5,0.3,1,1,1,1.5v1.7
				C323.1,243.5,322.7,243.7,322.1,243.4z"/>
		</g>
		<g class="st4">
			<path d="M322.1,249.1l-8.6-5c-0.5-0.3-1-1-1-1.5v-1.7c0-0.5,0.4-0.7,1-0.4l8.6,5c0.5,0.3,1,1,1,1.5v1.7
				C323.1,249.2,322.7,249.4,322.1,249.1z"/>
		</g>
		<g class="st4">
			<path d="M322.1,254.8l-8.6-5c-0.5-0.3-1-1-1-1.5v-1.7c0-0.5,0.4-0.7,1-0.4l8.6,5c0.5,0.3,1,1,1,1.5v1.7
				C323.1,254.9,322.7,255.1,322.1,254.8z"/>
		</g>
		<g class="st4">
			<path d="M335.1,245.1l-8.6-5c-0.5-0.3-1-1-1-1.5V237c0-0.5,0.4-0.7,1-0.4l8.6,5c0.5,0.3,1,1,1,1.5v1.7
				C336,245.3,335.6,245.4,335.1,245.1z"/>
		</g>
		<g class="st4">
			<path d="M335.1,250.8l-8.6-5c-0.5-0.3-1-1-1-1.5v-1.7c0-0.5,0.4-0.7,1-0.4l8.6,5c0.5,0.3,1,1,1,1.5v1.7
				C336,251,335.6,251.1,335.1,250.8z"/>
		</g>
		<g class="st4">
			<path d="M348,252.6l-8.6-5c-0.5-0.3-1-1-1-1.5v-1.7c0-0.5,0.4-0.7,1-0.4l8.6,5c0.5,0.3,1,1,1,1.5v1.7
				C349,252.7,348.5,252.9,348,252.6z"/>
		</g>
		<g class="st4">
			<path d="M348,258.3l-8.6-5c-0.5-0.3-1-1-1-1.5v-1.7c0-0.5,0.4-0.7,1-0.4l8.6,5c0.5,0.3,1,1,1,1.5v1.7
				C349,258.4,348.5,258.6,348,258.3z"/>
		</g>
	</g>
	<g>
		<path class="st1" d="M332.4,293.6l8.7-5.1c0.8-0.5,0.8-1.7,0-2.2l-17.7-10.1L332.4,293.6z"/>
		<path class="st2" d="M329.9,293.6l-34.7-23c-1.1-0.6-2-2.1-2-3.2l-2.3-48.7c-0.1-2.3,3.2-3.1,4.3-2.5l37.1,21.4
			c1.1,0.6,2,2.1,2,3.2v50.3C334.3,292.2,332.8,294.6,329.9,293.6z"/>
		<path class="st3" d="M329.9,293.2l-37.1-21.4c-1.1-0.6-2-2.1-2-3.2v-50.3c0-1.1,0.9-1.5,2-0.8l37.1,21.4c1.1,0.6,2,2.1,2,3.2v50.3
			C331.9,293.4,331,293.8,329.9,293.2z"/>
		<g class="st4">
			<path d="M302.7,250.1l-8.6-5c-0.5-0.3-1-1-1-1.5V242c0-0.5,0.4-0.7,1-0.4l8.6,5c0.5,0.3,1,1,1,1.5v1.7
				C303.6,250.2,303.2,250.4,302.7,250.1z"/>
		</g>
		<g class="st4">
			<path d="M302.8,230.6l-8.8-5.1c-0.5-0.3-0.9-0.9-0.9-1.4v-1.2c0-0.5,0.4-0.6,0.9-0.4l8.8,5.1c0.5,0.3,0.9,0.9,0.9,1.4v1.2
				C303.6,230.7,303.3,230.8,302.8,230.6z"/>
		</g>
		<g class="st4">
			<path d="M328.7,252.4l-34.7-20c-0.5-0.3-0.9-0.9-0.9-1.4v-1.3c0-0.5,0.4-0.6,0.9-0.4l34.7,20c0.5,0.3,0.9,0.9,0.9,1.4v1.3
				C329.5,252.5,329.1,252.7,328.7,252.4z"/>
		</g>
		<g class="st4">
			<path d="M328.7,258.1l-34.7-20c-0.5-0.3-0.9-0.9-0.9-1.4v-1.3c0-0.5,0.4-0.6,0.9-0.4l34.7,20c0.5,0.3,0.9,0.9,0.9,1.4v1.3
				C329.5,258.2,329.1,258.4,328.7,258.1z"/>
		</g>
		<g class="st4">
			<path d="M302.7,255.8l-8.6-5c-0.5-0.3-1-1-1-1.5v-1.7c0-0.5,0.4-0.7,1-0.4l8.6,5c0.5,0.3,1,1,1,1.5v1.7
				C303.6,255.9,303.2,256.1,302.7,255.8z"/>
		</g>
		<g class="st4">
			<path d="M302.7,261.5l-8.6-5c-0.5-0.3-1-1-1-1.5v-1.7c0-0.5,0.4-0.7,1-0.4l8.6,5c0.5,0.3,1,1,1,1.5v1.7
				C303.6,261.6,303.2,261.8,302.7,261.5z"/>
		</g>
		<g class="st4">
			<path d="M302.7,267.2l-8.6-5c-0.5-0.3-1-1-1-1.5v-1.7c0-0.5,0.4-0.7,1-0.4l8.6,5c0.5,0.3,1,1,1,1.5v1.7
				C303.6,267.3,303.2,267.5,302.7,267.2z"/>
		</g>
		<g class="st4">
			<path d="M302.7,272.9l-8.6-5c-0.5-0.3-1-1-1-1.5v-1.7c0-0.5,0.4-0.7,1-0.4l8.6,5c0.5,0.3,1,1,1,1.5v1.7
				C303.6,273,303.2,273.2,302.7,272.9z"/>
		</g>
		<g class="st4">
			<path d="M315.6,257.6l-8.6-5c-0.5-0.3-1-1-1-1.5v-1.7c0-0.5,0.4-0.7,1-0.4l8.6,5c0.5,0.3,1,1,1,1.5v1.7
				C316.6,257.7,316.2,257.9,315.6,257.6z"/>
		</g>
		<g class="st4">
			<path d="M315.6,263.3l-8.6-5c-0.5-0.3-1-1-1-1.5v-1.7c0-0.5,0.4-0.7,1-0.4l8.6,5c0.5,0.3,1,1,1,1.5v1.7
				C316.6,263.4,316.2,263.6,315.6,263.3z"/>
		</g>
		<g class="st4">
			<path d="M315.6,269l-8.6-5c-0.5-0.3-1-1-1-1.5v-1.7c0-0.5,0.4-0.7,1-0.4l8.6,5c0.5,0.3,1,1,1,1.5v1.7
				C316.6,269.1,316.2,269.3,315.6,269z"/>
		</g>
		<g class="st4">
			<path d="M315.6,274.7l-8.6-5c-0.5-0.3-1-1-1-1.5v-1.7c0-0.5,0.4-0.7,1-0.4l8.6,5c0.5,0.3,1,1,1,1.5v1.7
				C316.6,274.8,316.2,275,315.6,274.7z"/>
		</g>
		<g class="st4">
			<path d="M328.6,265.1l-8.6-5c-0.5-0.3-1-1-1-1.5v-1.7c0-0.5,0.4-0.7,1-0.4l8.6,5c0.5,0.3,1,1,1,1.5v1.7
				C329.5,265.2,329.1,265.4,328.6,265.1z"/>
		</g>
		<g class="st4">
			<path d="M328.6,270.8l-8.6-5c-0.5-0.3-1-1-1-1.5v-1.7c0-0.5,0.4-0.7,1-0.4l8.6,5c0.5,0.3,1,1,1,1.5v1.7
				C329.5,270.9,329.1,271.1,328.6,270.8z"/>
		</g>
		<g class="st4">
			<path d="M328.6,276.5l-8.6-5c-0.5-0.3-1-1-1-1.5v-1.7c0-0.5,0.4-0.7,1-0.4l8.6,5c0.5,0.3,1,1,1,1.5v1.7
				C329.5,276.6,329.1,276.8,328.6,276.5z"/>
		</g>
		<g class="st4">
			<path d="M328.6,282.1l-8.6-5c-0.5-0.3-1-1-1-1.5V274c0-0.5,0.4-0.7,1-0.4l8.6,5c0.5,0.3,1,1,1,1.5v1.7
				C329.5,282.3,329.1,282.5,328.6,282.1z"/>
		</g>
	</g>
	<g>
		<path class="st1" d="M345,147.9l8.7-5.1c0.8-0.5,0.8-1.7,0-2.2L336,130.6L345,147.9z"/>
		<path class="st2" d="M342.3,148l-34.7-23c-1.1-0.6-2-2.1-2-3.2l-2.3-48.7c-0.1-2.3,3.2-3.1,4.3-2.5L344.7,92c1.1,0.6,2,2.1,2,3.2
			v50.3C346.7,146.6,345.1,149,342.3,148z"/>
		<path class="st5" d="M342.3,147.9l-37.1-21.4c-1.1-0.6-2-2.1-2-3.2V73c0-1.1,0.9-1.5,2-0.8l37.1,21.4c1.1,0.6,2,2.1,2,3.2v50.3
			C344.3,148.2,343.4,148.6,342.3,147.9z"/>
		<g class="st4">
			<path d="M315.1,104.9l-8.6-5c-0.5-0.3-1-1-1-1.5v-1.7c0-0.5,0.4-0.7,1-0.4l8.6,5c0.5,0.3,1,1,1,1.5v1.7
				C316.1,105,315.6,105.2,315.1,104.9z"/>
		</g>
		<g class="st4">
			<path d="M315.2,85.3l-8.8-5.1c-0.5-0.3-0.9-0.9-0.9-1.4v-1.2c0-0.5,0.4-0.6,0.9-0.4l8.8,5.1c0.5,0.3,0.9,0.9,0.9,1.4V85
				C316.1,85.4,315.7,85.6,315.2,85.3z"/>
		</g>
		<g class="st4">
			<path d="M341.1,107.2l-34.7-20c-0.5-0.3-0.9-0.9-0.9-1.4v-1.3c0-0.5,0.4-0.6,0.9-0.4l34.7,20c0.5,0.3,0.9,0.9,0.9,1.4v1.3
				C341.9,107.3,341.6,107.4,341.1,107.2z"/>
		</g>
		<g class="st4">
			<path d="M341.1,112.9l-34.7-20c-0.5-0.3-0.9-0.9-0.9-1.4v-1.3c0-0.5,0.4-0.6,0.9-0.4l34.7,20c0.5,0.3,0.9,0.9,0.9,1.4v1.3
				C341.9,113,341.6,113.1,341.1,112.9z"/>
		</g>
		<g class="st4">
			<path d="M315.1,110.6l-8.6-5c-0.5-0.3-1-1-1-1.5v-1.7c0-0.5,0.4-0.7,1-0.4l8.6,5c0.5,0.3,1,1,1,1.5v1.7
				C316.1,110.7,315.6,110.9,315.1,110.6z"/>
		</g>
		<g class="st4">
			<path d="M315.1,116.3l-8.6-5c-0.5-0.3-1-1-1-1.5v-1.7c0-0.5,0.4-0.7,1-0.4l8.6,5c0.5,0.3,1,1,1,1.5v1.7
				C316.1,116.4,315.6,116.6,315.1,116.3z"/>
		</g>
		<g class="st4">
			<path d="M315.1,122l-8.6-5c-0.5-0.3-1-1-1-1.5v-1.7c0-0.5,0.4-0.7,1-0.4l8.6,5c0.5,0.3,1,1,1,1.5v1.7
				C316.1,122.1,315.6,122.3,315.1,122z"/>
		</g>
		<g class="st4">
			<path d="M315.1,127.6l-8.6-5c-0.5-0.3-1-1-1-1.5v-1.7c0-0.5,0.4-0.7,1-0.4l8.6,5c0.5,0.3,1,1,1,1.5v1.7
				C316.1,127.8,315.6,127.9,315.1,127.6z"/>
		</g>
		<g class="st4">
			<path d="M328,112.3l-8.6-5c-0.5-0.3-1-1-1-1.5v-1.7c0-0.5,0.4-0.7,1-0.4l8.6,5c0.5,0.3,1,1,1,1.5v1.7
				C329,112.5,328.6,112.6,328,112.3z"/>
		</g>
		<g class="st4">
			<path d="M328,118l-8.6-5c-0.5-0.3-1-1-1-1.5v-1.7c0-0.5,0.4-0.7,1-0.4l8.6,5c0.5,0.3,1,1,1,1.5v1.7
				C329,118.2,328.6,118.3,328,118z"/>
		</g>
		<g class="st4">
			<path d="M328,123.7l-8.6-5c-0.5-0.3-1-1-1-1.5v-1.7c0-0.5,0.4-0.7,1-0.4l8.6,5c0.5,0.3,1,1,1,1.5v1.7
				C329,123.9,328.6,124,328,123.7z"/>
		</g>
		<g class="st4">
			<path d="M328,129.4l-8.6-5c-0.5-0.3-1-1-1-1.5v-1.7c0-0.5,0.4-0.7,1-0.4l8.6,5c0.5,0.3,1,1,1,1.5v1.7
				C329,129.5,328.6,129.7,328,129.4z"/>
		</g>
		<g class="st4">
			<path d="M341,119.8l-8.6-5c-0.5-0.3-1-1-1-1.5v-1.7c0-0.5,0.4-0.7,1-0.4l8.6,5c0.5,0.3,1,1,1,1.5v1.7
				C341.9,119.9,341.5,120.1,341,119.8z"/>
		</g>
		<g class="st4">
			<path d="M341,125.5l-8.6-5c-0.5-0.3-1-1-1-1.5v-1.7c0-0.5,0.4-0.7,1-0.4l8.6,5c0.5,0.3,1,1,1,1.5v1.7
				C341.9,125.6,341.5,125.8,341,125.5z"/>
		</g>
		<g class="st4">
			<path d="M341,131.2l-8.6-5c-0.5-0.3-1-1-1-1.5v-1.7c0-0.5,0.4-0.7,1-0.4l8.6,5c0.5,0.3,1,1,1,1.5v1.7
				C341.9,131.3,341.5,131.5,341,131.2z"/>
		</g>
		<g class="st4">
			<path d="M341,136.9l-8.6-5c-0.5-0.3-1-1-1-1.5v-1.7c0-0.5,0.4-0.7,1-0.4l8.6,5c0.5,0.3,1,1,1,1.5v1.7
				C341.9,137,341.5,137.2,341,136.9z"/>
		</g>
	</g>
	<g>
		<path class="st1" d="M176.7,125.6l-8.7-5.1c-0.8-0.5-0.8-1.7,0-2.2l17.7-10.1L176.7,125.6z"/>
		<path class="st2" d="M213.2,102.5l-34.9,22.8c-1.1,0.6-4.2-0.1-4.2-2.2V72.8c0-1.1,0.9-2.5,2-3.2l37.1-21.4
			c2.3-1.2,4.3,0.7,4.3,1.8l-2.3,49.3C215.2,100.5,214.3,101.9,213.2,102.5z"/>
		<path class="st5" d="M215.4,103.7l-37.1,21.4c-1.1,0.6-2,0.3-2-0.8V74c0-1.1,0.9-2.5,2-3.2l37.1-21.4c1.1-0.6,2-0.3,2,0.8v50.3
			C217.4,101.7,216.5,103.1,215.4,103.7z"/>
		<g class="st4">
			<path d="M188.2,92.1l-8.6,5c-0.5,0.3-1,0.1-1-0.4V95c0-0.5,0.4-1.2,1-1.5l8.6-5c0.5-0.3,1-0.1,1,0.4v1.7
				C189.1,91.1,188.7,91.8,188.2,92.1z"/>
		</g>
		<g class="st4">
			<path d="M188.2,72.5l-8.8,5.1c-0.5,0.3-0.9,0.1-0.9-0.4v-1.2c0-0.5,0.4-1.1,0.9-1.4l8.8-5.1c0.5-0.3,0.9-0.1,0.9,0.4v1.2
				C189.1,71.6,188.7,72.2,188.2,72.5z"/>
		</g>
		<g class="st4">
			<path d="M214.1,64.4l-34.7,20c-0.5,0.3-0.9,0.1-0.9-0.4v-1.3c0-0.5,0.4-1.1,0.9-1.4l34.7-20c0.5-0.3,0.9-0.1,0.9,0.4V63
				C215,63.5,214.6,64.1,214.1,64.4z"/>
		</g>
		<g class="st4">
			<path d="M214.1,70.1l-34.7,20c-0.5,0.3-0.9,0.1-0.9-0.4v-1.3c0-0.5,0.4-1.1,0.9-1.4l34.7-20c0.5-0.3,0.9-0.1,0.9,0.4v1.3
				C215,69.2,214.6,69.8,214.1,70.1z"/>
		</g>
		<g class="st4">
			<path d="M188.2,97.8l-8.6,5c-0.5,0.3-1,0.1-1-0.4v-1.7c0-0.5,0.4-1.2,1-1.5l8.6-5c0.5-0.3,1-0.1,1,0.4v1.7
				C189.1,96.8,188.7,97.5,188.2,97.8z"/>
		</g>
		<g class="st4">
			<path d="M188.2,103.5l-8.6,5c-0.5,0.3-1,0.1-1-0.4v-1.7c0-0.5,0.4-1.2,1-1.5l8.6-5c0.5-0.3,1-0.1,1,0.4v1.7
				C189.1,102.5,188.7,103.2,188.2,103.5z"/>
		</g>
		<g class="st4">
			<path d="M188.2,109.2l-8.6,5c-0.5,0.3-1,0.1-1-0.4v-1.7c0-0.5,0.4-1.2,1-1.5l8.6-5c0.5-0.3,1-0.1,1,0.4v1.7
				C189.1,108.2,188.7,108.9,188.2,109.2z"/>
		</g>
		<g class="st4">
			<path d="M188.2,114.9l-8.6,5c-0.5,0.3-1,0.1-1-0.4v-1.7c0-0.5,0.4-1.2,1-1.5l8.6-5c0.5-0.3,1-0.1,1,0.4v1.7
				C189.1,113.9,188.7,114.6,188.2,114.9z"/>
		</g>
		<g class="st4">
			<path d="M201.1,84.6l-8.6,5c-0.5,0.3-1,0.1-1-0.4v-1.7c0-0.5,0.4-1.2,1-1.5l8.6-5c0.5-0.3,1-0.1,1,0.4v1.7
				C202.1,83.7,201.6,84.3,201.1,84.6z"/>
		</g>
		<g class="st4">
			<path d="M201.1,90.3l-8.6,5c-0.5,0.3-1,0.1-1-0.4v-1.7c0-0.5,0.4-1.2,1-1.5l8.6-5c0.5-0.3,1-0.1,1,0.4v1.7
				C202.1,89.4,201.6,90,201.1,90.3z"/>
		</g>
		<g class="st4">
			<path d="M201.1,96l-8.6,5c-0.5,0.3-1,0.1-1-0.4v-1.7c0-0.5,0.4-1.2,1-1.5l8.6-5c0.5-0.3,1-0.1,1,0.4v1.7
				C202.1,95.1,201.6,95.7,201.1,96z"/>
		</g>
		<g class="st4">
			<path d="M201.1,101.7l-8.6,5c-0.5,0.3-1,0.1-1-0.4v-1.7c0-0.5,0.4-1.2,1-1.5l8.6-5c0.5-0.3,1-0.1,1,0.4v1.7
				C202.1,100.7,201.6,101.4,201.1,101.7z"/>
		</g>
		<g class="st4">
			<path d="M214.1,77.2l-8.6,5c-0.5,0.3-1,0.1-1-0.4v-1.7c0-0.5,0.4-1.2,1-1.5l8.6-5c0.5-0.3,1-0.1,1,0.4v1.7
				C215,76.2,214.6,76.9,214.1,77.2z"/>
		</g>
		<g class="st4">
			<path d="M214.1,82.9l-8.6,5c-0.5,0.3-1,0.1-1-0.4v-1.7c0-0.5,0.4-1.2,1-1.5l8.6-5c0.5-0.3,1-0.1,1,0.4v1.7
				C215,81.9,214.6,82.6,214.1,82.9z"/>
		</g>
		<g class="st4">
			<path d="M214.1,88.6l-8.6,5c-0.5,0.3-1,0.1-1-0.4v-1.7c0-0.5,0.4-1.2,1-1.5l8.6-5c0.5-0.3,1-0.1,1,0.4v1.7
				C215,87.6,214.6,88.2,214.1,88.6z"/>
		</g>
		<g class="st4">
			<path d="M214.1,94.2l-8.6,5c-0.5,0.3-1,0.1-1-0.4v-1.7c0-0.5,0.4-1.2,1-1.5l8.6-5c0.5-0.3,1-0.1,1,0.4v1.7
				C215,93.3,214.6,93.9,214.1,94.2z"/>
		</g>
	</g>
	<g>
		<path class="st1" d="M385.3,330.1l8.7-5.1c0.8-0.5,0.8-1.7,0-2.2l-17.7-10.1L385.3,330.1z"/>
		<path class="st2" d="M383,329.9l-34.7-23c-1.1-0.6-2-2.1-2-3.2L344,255c-0.1-2.3,3.2-3.1,4.3-2.5l37.1,21.4c1.1,0.6,2,2.1,2,3.2
			v50.3C387.4,328.5,385.8,330.9,383,329.9z"/>
		<path class="st5" d="M383.3,329.9l-37.1-21.4c-1.1-0.6-2-2.1-2-3.2V255c0-1.1,0.9-1.5,2-0.8l37.1,21.4c1.1,0.6,2,2.1,2,3.2v50.3
			C385.3,330.2,384.4,330.6,383.3,329.9z"/>
		<g class="st4">
			<path d="M356.1,286.9l-8.6-5c-0.5-0.3-1-1-1-1.5v-1.7c0-0.5,0.4-0.7,1-0.4l8.6,5c0.5,0.3,1,1,1,1.5v1.7
				C357,287,356.6,287.2,356.1,286.9z"/>
		</g>
		<g class="st4">
			<path d="M356.2,267.3l-8.8-5.1c-0.5-0.3-0.9-0.9-0.9-1.4v-1.2c0-0.5,0.4-0.6,0.9-0.4l8.8,5.1c0.5,0.3,0.9,0.9,0.9,1.4v1.2
				C357,267.4,356.6,267.6,356.2,267.3z"/>
		</g>
		<g class="st4">
			<path d="M382.1,289.2l-34.7-20c-0.5-0.3-0.9-0.9-0.9-1.4v-1.3c0-0.5,0.4-0.6,0.9-0.4l34.7,20c0.5,0.3,0.9,0.9,0.9,1.4v1.3
				C382.9,289.3,382.5,289.5,382.1,289.2z"/>
		</g>
		<g class="st4">
			<path d="M382.1,294.9l-34.7-20c-0.5-0.3-0.9-0.9-0.9-1.4v-1.3c0-0.5,0.4-0.6,0.9-0.4l34.7,20c0.5,0.3,0.9,0.9,0.9,1.4v1.3
				C382.9,295,382.5,295.1,382.1,294.9z"/>
		</g>
		<g class="st4">
			<path d="M356.1,292.6l-8.6-5c-0.5-0.3-1-1-1-1.5v-1.7c0-0.5,0.4-0.7,1-0.4l8.6,5c0.5,0.3,1,1,1,1.5v1.7
				C357,292.7,356.6,292.9,356.1,292.6z"/>
		</g>
		<g class="st4">
			<path d="M356.1,298.3l-8.6-5c-0.5-0.3-1-1-1-1.5v-1.7c0-0.5,0.4-0.7,1-0.4l8.6,5c0.5,0.3,1,1,1,1.5v1.7
				C357,298.4,356.6,298.6,356.1,298.3z"/>
		</g>
		<g class="st4">
			<path d="M356.1,304l-8.6-5c-0.5-0.3-1-1-1-1.5v-1.7c0-0.5,0.4-0.7,1-0.4l8.6,5c0.5,0.3,1,1,1,1.5v1.7
				C357,304.1,356.6,304.3,356.1,304z"/>
		</g>
		<g class="st4">
			<path d="M356.1,309.7l-8.6-5c-0.5-0.3-1-1-1-1.5v-1.7c0-0.5,0.4-0.7,1-0.4l8.6,5c0.5,0.3,1,1,1,1.5v1.7
				C357,309.8,356.6,310,356.1,309.7z"/>
		</g>
		<g class="st4">
			<path d="M369,294.4l-8.6-5c-0.5-0.3-1-1-1-1.5v-1.7c0-0.5,0.4-0.7,1-0.4l8.6,5c0.5,0.3,1,1,1,1.5v1.7
				C370,294.5,369.5,294.7,369,294.4z"/>
		</g>
		<g class="st4">
			<path d="M369,300.1l-8.6-5c-0.5-0.3-1-1-1-1.5v-1.7c0-0.5,0.4-0.7,1-0.4l8.6,5c0.5,0.3,1,1,1,1.5v1.7
				C370,300.2,369.5,300.4,369,300.1z"/>
		</g>
		<g class="st4">
			<path d="M369,305.7l-8.6-5c-0.5-0.3-1-1-1-1.5v-1.7c0-0.5,0.4-0.7,1-0.4l8.6,5c0.5,0.3,1,1,1,1.5v1.7
				C370,305.9,369.5,306,369,305.7z"/>
		</g>
		<g class="st4">
			<path d="M369,311.4l-8.6-5c-0.5-0.3-1-1-1-1.5v-1.7c0-0.5,0.4-0.7,1-0.4l8.6,5c0.5,0.3,1,1,1,1.5v1.7
				C370,311.6,369.5,311.7,369,311.4z"/>
		</g>
		<g class="st4">
			<path d="M382,301.8l-8.6-5c-0.5-0.3-1-1-1-1.5v-1.7c0-0.5,0.4-0.7,1-0.4l8.6,5c0.5,0.3,1,1,1,1.5v1.7
				C382.9,302,382.5,302.1,382,301.8z"/>
		</g>
		<g class="st4">
			<path d="M382,307.5l-8.6-5c-0.5-0.3-1-1-1-1.5v-1.7c0-0.5,0.4-0.7,1-0.4l8.6,5c0.5,0.3,1,1,1,1.5v1.7
				C382.9,307.7,382.5,307.8,382,307.5z"/>
		</g>
		<g class="st4">
			<path d="M382,313.2l-8.6-5c-0.5-0.3-1-1-1-1.5v-1.7c0-0.5,0.4-0.7,1-0.4l8.6,5c0.5,0.3,1,1,1,1.5v1.7
				C382.9,313.3,382.5,313.5,382,313.2z"/>
		</g>
		<g class="st4">
			<path d="M382,318.9l-8.6-5c-0.5-0.3-1-1-1-1.5v-1.7c0-0.5,0.4-0.7,1-0.4l8.6,5c0.5,0.3,1,1,1,1.5v1.7
				C382.9,319,382.5,319.2,382,318.9z"/>
		</g>
	</g>
	<g>
		<path class="st2" d="M44.2,201.4l-5,0.2c-0.2,0-0.4,0.2-0.5,0.4s0,0.4,0.2,0.6l4.8,3c0.1,0.1,0.2,0.1,0.3,0.1c0.1,0,0.2,0,0.2-0.1
			c0.2-0.1,0.3-0.2,0.3-0.4l0.2-3.2c0-0.1,0-0.3-0.1-0.4C44.4,201.4,44.3,201.4,44.2,201.4z"/>
		<path class="st2" d="M169.4,79.1c-0.2-0.1-0.3-0.1-0.5,0l-4.8,3c-0.2,0.1-0.3,0.3-0.2,0.6s0.2,0.4,0.5,0.4l5,0.2c0,0,0,0,0,0
			c0.1,0,0.3-0.1,0.4-0.2c0.1-0.1,0.2-0.2,0.1-0.4l-0.2-3.2C169.6,79.3,169.5,79.1,169.4,79.1z"/>
		<path class="st2" d="M478.8,280.4c-0.1-0.1-0.2-0.2-0.4-0.2l-5-0.2c-0.2,0-0.4,0.1-0.5,0.3s0,0.4,0.2,0.6l4.5,3.4
			c0.1,0.1,0.2,0.1,0.3,0.1c0.1,0,0.1,0,0.2,0c0.2-0.1,0.3-0.2,0.3-0.4l0.5-3.2C478.9,280.7,478.9,280.5,478.8,280.4z"/>
		<path class="st2" d="M392.4,289.6c-0.1-0.1-0.3-0.1-0.5,0c-0.2,0.1-0.3,0.2-0.3,0.4l-0.3,3.2c0,0.1,0,0.3,0.1,0.4
			c0.1,0.1,0.2,0.2,0.4,0.2c0,0,0,0,0,0l5-0.1c0.2,0,0.4-0.1,0.5-0.4c0.1-0.2,0-0.4-0.2-0.6L392.4,289.6z"/>
		<path class="st2" d="M350.2,63.8c-0.1-0.1-0.3-0.1-0.5,0c-0.2,0.1-0.3,0.2-0.3,0.4l-0.3,3.2c0,0.1,0,0.3,0.1,0.4
			c0.1,0.1,0.2,0.2,0.4,0.2c0,0,0,0,0,0l5-0.1c0.2,0,0.4-0.1,0.5-0.4s0-0.4-0.2-0.6L350.2,63.8z"/>
	</g>
</g>
</svg>
