<svg width="622" height="682" viewBox="0 0 622 682" fill="none" xmlns="http://www.w3.org/2000/svg">
<path d="M13.9431 136.225C5.31077 154.017 0.645673 173.472 0.27006 193.244C-0.105553 213.016 3.81731 232.633 11.7677 250.739V250.739C19.6561 269.739 27.8683 280.608 47.5303 303.974C67.1924 327.339 81.651 341.937 91.7246 362.93C101.798 383.924 125.379 416.66 138.559 432.331C140.731 435.193 142.926 438.008 145.192 440.799C169.25 472.191 215.79 507.771 235.696 522.208C255.601 536.644 257.556 546.697 261.67 556.63C268.222 573.146 275.616 589.315 283.821 605.075C297.268 628.673 316.424 648.517 339.533 662.786C342.703 664.673 345.989 666.442 349.392 668.091C380.793 683.316 416.943 685.498 449.95 674.161C482.957 662.825 510.14 638.89 525.565 607.582V607.582L525.955 606.779C528.603 601.269 530.888 595.591 532.794 589.782C540.387 569.065 545.137 548.313 544.65 533.427C545.04 499.879 544.409 484.689 551.834 471.42C559.259 458.152 599.716 397.334 614.929 329.24C615.081 328.694 615.176 328.134 615.214 327.568C629.67 260.014 617.549 189.49 581.368 130.644C545.187 71.7992 487.727 29.157 420.926 11.5759C402.277 5.7163 382.963 2.23609 363.442 1.21774C317.748 -1.60208 272.02 6.19466 229.839 23.9974C180.535 44.9207 178.431 45.7687 166.397 48.923C154.362 52.0773 102.793 60.5791 79.3725 71.93C50.7725 85.1323 27.6447 107.859 13.9431 136.225V136.225Z" fill="#FFFAE3"/>
</svg>
