<svg xmlns="http://www.w3.org/2000/svg" viewBox="0 0 142.84 329.16"><defs><style>.a{opacity:0.15;}.a,.j{font-size:7.5px;}.a,.e,.j{fill:#231f20;}.a,.c,.g,.i,.j,.k,.l{font-family:Overpass-Bold, Overpass;font-weight:700;}.b,.f,.h{fill:none;stroke-miterlimit:10;}.b{stroke:#3578ff;stroke-width:3.2px;}.c,.g{font-size:24px;}.c{fill:#3578ff;}.d{opacity:0.1;}.f{stroke:#4e6178;}.f,.h{stroke-width:3px;}.g,.k{fill:#4e6178;}.h{stroke:#00a69c;}.i{font-size:21px;}.i,.l{fill:#00a69c;}.k,.l{font-size:12px;}</style></defs><title>dataset</title><text class="a" transform="translate(8.56 15.52)">title: Super Fly Dataset<tspan x="0" y="9">length: 22345789</tspan><tspan x="0" y="18">keywords: foo,bar,baz</tspan><tspan x="0" y="27">category: climate science,</tspan></text><rect class="b" x="1.6" y="1.6" width="139.63" height="131.62"/><text class="c" transform="translate(25.18 68.64)">Dataset</text><g class="d"><path class="e" d="M368.52,392.25H351a3.75,3.75,0,1,1,0-7.5h17.5a3.75,3.75,0,0,1,0,7.5Z" transform="translate(-324.59 -141.35)"/><path class="e" d="M399.52,392.25H378.27a3.75,3.75,0,1,1,0-7.5h21.25a3.75,3.75,0,0,1,0,7.5Z" transform="translate(-324.59 -141.35)"/><path class="e" d="M438.77,392.25H410a3.75,3.75,0,0,1,0-7.5h28.75a3.75,3.75,0,0,1,0,7.5Z" transform="translate(-324.59 -141.35)"/><path class="e" d="M368.52,404H351a3.75,3.75,0,1,1,0-7.5h17.5a3.75,3.75,0,0,1,0,7.5Z" transform="translate(-324.59 -141.35)"/><path class="e" d="M399.52,404H378.27a3.75,3.75,0,1,1,0-7.5h21.25a3.75,3.75,0,0,1,0,7.5Z" transform="translate(-324.59 -141.35)"/><path class="e" d="M438.77,404H410a3.75,3.75,0,0,1,0-7.5h28.75a3.75,3.75,0,0,1,0,7.5Z" transform="translate(-324.59 -141.35)"/><path class="e" d="M368.52,415.75H351a3.75,3.75,0,0,1,0-7.5h17.5a3.75,3.75,0,0,1,0,7.5Z" transform="translate(-324.59 -141.35)"/><path class="e" d="M399.52,415.75H378.27a3.75,3.75,0,0,1,0-7.5h21.25a3.75,3.75,0,0,1,0,7.5Z" transform="translate(-324.59 -141.35)"/><path class="e" d="M438.77,415.75H410a3.75,3.75,0,0,1,0-7.5h28.75a3.75,3.75,0,0,1,0,7.5Z" transform="translate(-324.59 -141.35)"/><path class="e" d="M368.52,427.5H351a3.75,3.75,0,1,1,0-7.5h17.5a3.75,3.75,0,0,1,0,7.5Z" transform="translate(-324.59 -141.35)"/><path class="e" d="M399.52,427.5H378.27a3.75,3.75,0,1,1,0-7.5h21.25a3.75,3.75,0,0,1,0,7.5Z" transform="translate(-324.59 -141.35)"/><path class="e" d="M438.77,427.5H410a3.75,3.75,0,0,1,0-7.5h28.75a3.75,3.75,0,0,1,0,7.5Z" transform="translate(-324.59 -141.35)"/><path class="e" d="M368.52,439.25H351a3.75,3.75,0,1,1,0-7.5h17.5a3.75,3.75,0,0,1,0,7.5Z" transform="translate(-324.59 -141.35)"/><path class="e" d="M399.52,439.25H378.27a3.75,3.75,0,1,1,0-7.5h21.25a3.75,3.75,0,0,1,0,7.5Z" transform="translate(-324.59 -141.35)"/><path class="e" d="M438.77,439.25H410a3.75,3.75,0,0,1,0-7.5h28.75a3.75,3.75,0,0,1,0,7.5Z" transform="translate(-324.59 -141.35)"/><path class="e" d="M368.52,451H351a3.75,3.75,0,0,1,0-7.5h17.5a3.75,3.75,0,0,1,0,7.5Z" transform="translate(-324.59 -141.35)"/><path class="e" d="M399.52,451H378.27a3.75,3.75,0,0,1,0-7.5h21.25a3.75,3.75,0,0,1,0,7.5Z" transform="translate(-324.59 -141.35)"/><path class="e" d="M438.77,451H410a3.75,3.75,0,0,1,0-7.5h28.75a3.75,3.75,0,0,1,0,7.5Z" transform="translate(-324.59 -141.35)"/><path class="e" d="M368.52,462.75H351a3.75,3.75,0,1,1,0-7.5h17.5a3.75,3.75,0,0,1,0,7.5Z" transform="translate(-324.59 -141.35)"/><path class="e" d="M399.52,462.75H378.27a3.75,3.75,0,1,1,0-7.5h21.25a3.75,3.75,0,0,1,0,7.5Z" transform="translate(-324.59 -141.35)"/><path class="e" d="M438.77,462.75H410a3.75,3.75,0,0,1,0-7.5h28.75a3.75,3.75,0,0,1,0,7.5Z" transform="translate(-324.59 -141.35)"/></g><rect class="f" x="18.37" y="237.12" width="103.1" height="90.54"/><text class="g" transform="translate(42.56 289.62)">Data</text><rect class="h" x="18.37" y="155.37" width="103.1" height="71.04"/><text class="i" transform="translate(21.47 200.37)">Structure</text><g class="d"><path class="e" d="M368.77,364h-17.5a3.75,3.75,0,1,1,0-7.5h17.5a3.75,3.75,0,0,1,0,7.5Z" transform="translate(-324.59 -141.35)"/><path class="e" d="M399.77,364H378.52a3.75,3.75,0,1,1,0-7.5h21.25a3.75,3.75,0,0,1,0,7.5Z" transform="translate(-324.59 -141.35)"/><path class="e" d="M439,364H410.27a3.75,3.75,0,0,1,0-7.5H439a3.75,3.75,0,0,1,0,7.5Z" transform="translate(-324.59 -141.35)"/><text class="j" transform="translate(24.54 210.89)">col_0</text><text class="j" transform="translate(22.93 167.64)">type: csv</text><text class="j" transform="translate(22.93 179.39)">headerRow: true</text><text class="j" transform="translate(51.97 210.89)">col_1</text><text class="j" transform="translate(83.47 210.89)">col_2</text></g><text class="k" transform="translate(107.17 124.52)">data</text><text class="l" transform="translate(8.37 124.52)">structure</text><polyline class="h" points="9.44 127.64 9.44 192.64 17.93 192.64"/><polyline class="f" points="131.19 126.89 131.19 284.39 121.69 284.39"/></svg>