<svg xmlns="http://www.w3.org/2000/svg" viewBox="0 0 373.84 329.16"><defs><style>.a{opacity:0.15;}.a,.j{font-size:7.5px;}.a,.e,.j{fill:#231f20;}.a,.c,.g,.i,.j,.k,.l,.m{font-family:Overpass-Bold, Overpass;font-weight:700;}.b,.f,.h{fill:none;stroke-miterlimit:10;}.b{stroke:#3578ff;stroke-width:3.2px;}.c,.g{font-size:24px;}.c,.m{fill:#3578ff;}.d{opacity:0.1;}.f{stroke:#4e6178;}.f,.h{stroke-width:3px;}.g,.k{fill:#4e6178;}.h{stroke:#00a69c;}.i{font-size:21px;}.i,.l{fill:#00a69c;}.k,.l,.m{font-size:12px;}</style></defs><title>data-changes</title><text class="a" transform="translate(8.56 15.52)">title: Super Fly Dataset<tspan x="0" y="9">length: 22345789</tspan><tspan x="0" y="18">keywords: foo,bar,baz</tspan><tspan x="0" y="27">category: climate science,</tspan></text><rect class="b" x="1.6" y="1.6" width="139.63" height="131.62"/><text class="c" transform="translate(30.43 68.64)">Dataset</text><g class="d"><path class="e" d="M253,392.28h-17.5a3.75,3.75,0,0,1,0-7.5H253a3.75,3.75,0,1,1,0,7.5Z" transform="translate(-209.03 -141.39)"/><path class="e" d="M284,392.28H262.72a3.75,3.75,0,0,1,0-7.5H284a3.75,3.75,0,0,1,0,7.5Z" transform="translate(-209.03 -141.39)"/><path class="e" d="M323.22,392.28H294.47a3.75,3.75,0,0,1,0-7.5h28.75a3.75,3.75,0,0,1,0,7.5Z" transform="translate(-209.03 -141.39)"/><path class="e" d="M253,404h-17.5a3.75,3.75,0,1,1,0-7.5H253a3.75,3.75,0,1,1,0,7.5Z" transform="translate(-209.03 -141.39)"/><path class="e" d="M284,404H262.72a3.75,3.75,0,0,1,0-7.5H284a3.75,3.75,0,0,1,0,7.5Z" transform="translate(-209.03 -141.39)"/><path class="e" d="M323.22,404H294.47a3.75,3.75,0,0,1,0-7.5h28.75a3.75,3.75,0,0,1,0,7.5Z" transform="translate(-209.03 -141.39)"/><path class="e" d="M253,415.78h-17.5a3.75,3.75,0,1,1,0-7.5H253a3.75,3.75,0,1,1,0,7.5Z" transform="translate(-209.03 -141.39)"/><path class="e" d="M284,415.78H262.72a3.75,3.75,0,0,1,0-7.5H284a3.75,3.75,0,0,1,0,7.5Z" transform="translate(-209.03 -141.39)"/><path class="e" d="M323.22,415.78H294.47a3.75,3.75,0,0,1,0-7.5h28.75a3.75,3.75,0,0,1,0,7.5Z" transform="translate(-209.03 -141.39)"/><path class="e" d="M253,427.53h-17.5a3.75,3.75,0,0,1,0-7.5H253a3.75,3.75,0,1,1,0,7.5Z" transform="translate(-209.03 -141.39)"/><path class="e" d="M284,427.53H262.72a3.75,3.75,0,0,1,0-7.5H284a3.75,3.75,0,0,1,0,7.5Z" transform="translate(-209.03 -141.39)"/><path class="e" d="M323.22,427.53H294.47a3.75,3.75,0,0,1,0-7.5h28.75a3.75,3.75,0,0,1,0,7.5Z" transform="translate(-209.03 -141.39)"/><path class="e" d="M253,439.28h-17.5a3.75,3.75,0,1,1,0-7.5H253a3.75,3.75,0,1,1,0,7.5Z" transform="translate(-209.03 -141.39)"/><path class="e" d="M284,439.28H262.72a3.75,3.75,0,0,1,0-7.5H284a3.75,3.75,0,0,1,0,7.5Z" transform="translate(-209.03 -141.39)"/><path class="e" d="M323.22,439.28H294.47a3.75,3.75,0,0,1,0-7.5h28.75a3.75,3.75,0,0,1,0,7.5Z" transform="translate(-209.03 -141.39)"/><path class="e" d="M253,451h-17.5a3.75,3.75,0,1,1,0-7.5H253a3.75,3.75,0,1,1,0,7.5Z" transform="translate(-209.03 -141.39)"/><path class="e" d="M284,451H262.72a3.75,3.75,0,0,1,0-7.5H284a3.75,3.75,0,0,1,0,7.5Z" transform="translate(-209.03 -141.39)"/><path class="e" d="M323.22,451H294.47a3.75,3.75,0,0,1,0-7.5h28.75a3.75,3.75,0,0,1,0,7.5Z" transform="translate(-209.03 -141.39)"/><path class="e" d="M253,462.78h-17.5a3.75,3.75,0,0,1,0-7.5H253a3.75,3.75,0,1,1,0,7.5Z" transform="translate(-209.03 -141.39)"/><path class="e" d="M284,462.78H262.72a3.75,3.75,0,0,1,0-7.5H284a3.75,3.75,0,0,1,0,7.5Z" transform="translate(-209.03 -141.39)"/><path class="e" d="M323.22,462.78H294.47a3.75,3.75,0,0,1,0-7.5h28.75a3.75,3.75,0,0,1,0,7.5Z" transform="translate(-209.03 -141.39)"/></g><rect class="f" x="18.37" y="237.12" width="103.1" height="90.54"/><text class="g" transform="translate(42.56 289.62)">Data</text><rect class="h" x="18.37" y="155.37" width="103.1" height="71.04"/><text class="i" transform="translate(21.47 200.37)">Structure</text><g class="d"><path class="e" d="M253.22,364h-17.5a3.75,3.75,0,0,1,0-7.5h17.5a3.75,3.75,0,1,1,0,7.5Z" transform="translate(-209.03 -141.39)"/><path class="e" d="M284.22,364H263a3.75,3.75,0,0,1,0-7.5h21.25a3.75,3.75,0,0,1,0,7.5Z" transform="translate(-209.03 -141.39)"/><path class="e" d="M323.47,364H294.72a3.75,3.75,0,0,1,0-7.5h28.75a3.75,3.75,0,0,1,0,7.5Z" transform="translate(-209.03 -141.39)"/><text class="j" transform="translate(24.54 210.89)">col_0</text><text class="j" transform="translate(22.93 167.64)">type: csv</text><text class="j" transform="translate(22.93 179.39)">headerRow: true</text><text class="j" transform="translate(51.97 210.89)">col_1</text><text class="j" transform="translate(83.47 210.89)">col_2</text></g><text class="k" transform="translate(107.17 124.52)">data</text><text class="l" transform="translate(8.37 124.52)">structure</text><polyline class="h" points="9.44 127.64 9.44 192.64 17.93 192.64"/><polyline class="f" points="131.19 126.89 131.19 284.39 121.69 284.39"/><text class="a" transform="translate(239.56 15.52)">title: Super Fly Dataset<tspan x="0" y="9">length: 22345789</tspan><tspan x="0" y="18">keywords: foo,bar,baz</tspan><tspan x="0" y="27">category: climate science,</tspan></text><rect class="b" x="232.6" y="1.6" width="139.63" height="131.62"/><text class="c" transform="translate(238.93 68.64)">Dataset_2</text><g class="d"><path class="e" d="M484,392.28h-17.5a3.75,3.75,0,0,1,0-7.5H484a3.75,3.75,0,0,1,0,7.5Z" transform="translate(-209.03 -141.39)"/><path class="e" d="M515,392.28H493.72a3.75,3.75,0,0,1,0-7.5H515a3.75,3.75,0,0,1,0,7.5Z" transform="translate(-209.03 -141.39)"/><path class="e" d="M554.22,392.28H525.47a3.75,3.75,0,0,1,0-7.5h28.75a3.75,3.75,0,0,1,0,7.5Z" transform="translate(-209.03 -141.39)"/><path class="e" d="M484,404h-17.5a3.75,3.75,0,0,1,0-7.5H484a3.75,3.75,0,0,1,0,7.5Z" transform="translate(-209.03 -141.39)"/><path class="e" d="M515,404H493.72a3.75,3.75,0,0,1,0-7.5H515a3.75,3.75,0,0,1,0,7.5Z" transform="translate(-209.03 -141.39)"/><path class="e" d="M554.22,404H525.47a3.75,3.75,0,0,1,0-7.5h28.75a3.75,3.75,0,0,1,0,7.5Z" transform="translate(-209.03 -141.39)"/><path class="e" d="M484,415.78h-17.5a3.75,3.75,0,0,1,0-7.5H484a3.75,3.75,0,0,1,0,7.5Z" transform="translate(-209.03 -141.39)"/><path class="e" d="M515,415.78H493.72a3.75,3.75,0,0,1,0-7.5H515a3.75,3.75,0,0,1,0,7.5Z" transform="translate(-209.03 -141.39)"/><path class="e" d="M554.22,415.78H525.47a3.75,3.75,0,0,1,0-7.5h28.75a3.75,3.75,0,0,1,0,7.5Z" transform="translate(-209.03 -141.39)"/><path class="e" d="M484,427.53h-17.5a3.75,3.75,0,0,1,0-7.5H484a3.75,3.75,0,0,1,0,7.5Z" transform="translate(-209.03 -141.39)"/><path class="e" d="M515,427.53H493.72a3.75,3.75,0,0,1,0-7.5H515a3.75,3.75,0,0,1,0,7.5Z" transform="translate(-209.03 -141.39)"/><path class="e" d="M554.22,427.53H525.47a3.75,3.75,0,0,1,0-7.5h28.75a3.75,3.75,0,0,1,0,7.5Z" transform="translate(-209.03 -141.39)"/><path class="e" d="M484,439.28h-17.5a3.75,3.75,0,0,1,0-7.5H484a3.75,3.75,0,0,1,0,7.5Z" transform="translate(-209.03 -141.39)"/><path class="e" d="M515,439.28H493.72a3.75,3.75,0,0,1,0-7.5H515a3.75,3.75,0,0,1,0,7.5Z" transform="translate(-209.03 -141.39)"/><path class="e" d="M554.22,439.28H525.47a3.75,3.75,0,0,1,0-7.5h28.75a3.75,3.75,0,0,1,0,7.5Z" transform="translate(-209.03 -141.39)"/><path class="e" d="M484,451h-17.5a3.75,3.75,0,0,1,0-7.5H484a3.75,3.75,0,0,1,0,7.5Z" transform="translate(-209.03 -141.39)"/><path class="e" d="M515,451H493.72a3.75,3.75,0,0,1,0-7.5H515a3.75,3.75,0,0,1,0,7.5Z" transform="translate(-209.03 -141.39)"/><path class="e" d="M554.22,451H525.47a3.75,3.75,0,0,1,0-7.5h28.75a3.75,3.75,0,0,1,0,7.5Z" transform="translate(-209.03 -141.39)"/><path class="e" d="M484,462.78h-17.5a3.75,3.75,0,0,1,0-7.5H484a3.75,3.75,0,0,1,0,7.5Z" transform="translate(-209.03 -141.39)"/><path class="e" d="M515,462.78H493.72a3.75,3.75,0,0,1,0-7.5H515a3.75,3.75,0,0,1,0,7.5Z" transform="translate(-209.03 -141.39)"/><path class="e" d="M554.22,462.78H525.47a3.75,3.75,0,0,1,0-7.5h28.75a3.75,3.75,0,0,1,0,7.5Z" transform="translate(-209.03 -141.39)"/></g><rect class="f" x="249.37" y="237.12" width="103.1" height="90.54"/><text class="g" transform="translate(260.15 289.62)">Data_2</text><text class="k" transform="translate(338.17 124.52)">data</text><text class="l" transform="translate(239.37 124.52)">structure</text><text class="m" transform="translate(239.68 104.27)">previous</text><polyline class="h" points="240.44 127.64 240.44 192.64 121.59 192.64"/><polyline class="f" points="362.19 126.89 362.19 284.39 352.69 284.39"/><line class="b" x1="237.09" y1="101.39" x2="142.09" y2="101.39"/></svg>