<svg xmlns="http://www.w3.org/2000/svg" viewBox="0 0 554.9 553.5"><defs><style>.a{opacity:0.15;}.a,.j{font-size:7.5px;}.a,.e,.j{fill:#231f20;}.a,.c,.g,.i,.j,.r,.s,.t{font-family:Overpass-Bold, Overpass;font-weight:700;}.ab,.b,.f,.h,.u,.v{fill:none;stroke-miterlimit:10;}.b,.u{stroke:#3578ff;}.b{stroke-width:3.61px;}.c,.g,.w{font-size:24px;}.c{fill:#3578ff;}.d{opacity:0.1;}.f{stroke:#4e6178;}.f,.h{stroke-width:3px;}.g,.s{fill:#4e6178;}.ab,.h{stroke:#00a69c;}.i,.k{font-size:21px;}.ac,.i,.k,.r,.t,.y{fill:#00a69c;}.k,.w,.y{font-family:Overpass-Italic, Overpass;font-style:italic;}.l{letter-spacing:-0.01em;}.m{letter-spacing:0em;}.n{letter-spacing:-0.01em;}.o{letter-spacing:0em;}.p{letter-spacing:-0.01em;}.q{letter-spacing:-0.02em;}.r{font-size:15px;}.s,.t{font-size:12px;}.u{stroke-width:3.7px;}.v{stroke:#eba434;stroke-width:2.22px;}.w{fill:#eba434;}.x{letter-spacing:-0.03em;}.y{font-size:13.5px;}.z{letter-spacing:-0.02em;}.aa{letter-spacing:-0.01em;}</style></defs><title>population-eg-query</title><text class="a" transform="translate(27.82 15.77)">title: Super Fly Dataset<tspan x="0" y="9">length: 22345789</tspan><tspan x="0" y="18">keywords: foo,bar,baz</tspan><tspan x="0" y="27">category: climate science,</tspan></text><rect class="b" x="1.81" y="1.85" width="177.75" height="161.62"/><text class="c" transform="translate(12.2 68.89)">us_population</text><g class="d"><path class="e" d="M181.73,310.23h-17.5a3.75,3.75,0,0,1,0-7.5h17.5a3.75,3.75,0,1,1,0,7.5Z" transform="translate(-118.53 -29.09)"/><path class="e" d="M212.73,310.23H191.48a3.75,3.75,0,0,1,0-7.5h21.25a3.75,3.75,0,1,1,0,7.5Z" transform="translate(-118.53 -29.09)"/><path class="e" d="M252,310.23H223.23a3.75,3.75,0,0,1,0-7.5H252a3.75,3.75,0,0,1,0,7.5Z" transform="translate(-118.53 -29.09)"/><path class="e" d="M181.73,322h-17.5a3.75,3.75,0,0,1,0-7.5h17.5a3.75,3.75,0,0,1,0,7.5Z" transform="translate(-118.53 -29.09)"/><path class="e" d="M212.73,322H191.48a3.75,3.75,0,1,1,0-7.5h21.25a3.75,3.75,0,0,1,0,7.5Z" transform="translate(-118.53 -29.09)"/><path class="e" d="M252,322H223.23a3.75,3.75,0,0,1,0-7.5H252a3.75,3.75,0,1,1,0,7.5Z" transform="translate(-118.53 -29.09)"/><path class="e" d="M181.73,333.73h-17.5a3.75,3.75,0,0,1,0-7.5h17.5a3.75,3.75,0,0,1,0,7.5Z" transform="translate(-118.53 -29.09)"/><path class="e" d="M212.73,333.73H191.48a3.75,3.75,0,1,1,0-7.5h21.25a3.75,3.75,0,0,1,0,7.5Z" transform="translate(-118.53 -29.09)"/><path class="e" d="M252,333.73H223.23a3.75,3.75,0,0,1,0-7.5H252a3.75,3.75,0,1,1,0,7.5Z" transform="translate(-118.53 -29.09)"/><path class="e" d="M181.73,345.48h-17.5a3.75,3.75,0,0,1,0-7.5h17.5a3.75,3.75,0,1,1,0,7.5Z" transform="translate(-118.53 -29.09)"/><path class="e" d="M212.73,345.48H191.48a3.75,3.75,0,0,1,0-7.5h21.25a3.75,3.75,0,1,1,0,7.5Z" transform="translate(-118.53 -29.09)"/><path class="e" d="M252,345.48H223.23a3.75,3.75,0,0,1,0-7.5H252a3.75,3.75,0,0,1,0,7.5Z" transform="translate(-118.53 -29.09)"/><path class="e" d="M181.73,357.23h-17.5a3.75,3.75,0,0,1,0-7.5h17.5a3.75,3.75,0,0,1,0,7.5Z" transform="translate(-118.53 -29.09)"/><path class="e" d="M212.73,357.23H191.48a3.75,3.75,0,1,1,0-7.5h21.25a3.75,3.75,0,0,1,0,7.5Z" transform="translate(-118.53 -29.09)"/><path class="e" d="M252,357.23H223.23a3.75,3.75,0,0,1,0-7.5H252a3.75,3.75,0,1,1,0,7.5Z" transform="translate(-118.53 -29.09)"/><path class="e" d="M181.73,369h-17.5a3.75,3.75,0,0,1,0-7.5h17.5a3.75,3.75,0,0,1,0,7.5Z" transform="translate(-118.53 -29.09)"/><path class="e" d="M212.73,369H191.48a3.75,3.75,0,1,1,0-7.5h21.25a3.75,3.75,0,0,1,0,7.5Z" transform="translate(-118.53 -29.09)"/><path class="e" d="M252,369H223.23a3.75,3.75,0,0,1,0-7.5H252a3.75,3.75,0,1,1,0,7.5Z" transform="translate(-118.53 -29.09)"/><path class="e" d="M181.73,380.73h-17.5a3.75,3.75,0,0,1,0-7.5h17.5a3.75,3.75,0,1,1,0,7.5Z" transform="translate(-118.53 -29.09)"/><path class="e" d="M212.73,380.73H191.48a3.75,3.75,0,0,1,0-7.5h21.25a3.75,3.75,0,1,1,0,7.5Z" transform="translate(-118.53 -29.09)"/><path class="e" d="M252,380.73H223.23a3.75,3.75,0,0,1,0-7.5H252a3.75,3.75,0,0,1,0,7.5Z" transform="translate(-118.53 -29.09)"/></g><rect class="f" x="37.63" y="267.37" width="103.1" height="90.54"/><text class="g" transform="translate(61.83 319.88)">Data</text><rect class="h" x="37.63" y="185.62" width="103.1" height="71.04"/><text class="i" transform="translate(40.73 230.62)">Structure</text><g class="d"><path class="e" d="M182,282h-17.5a3.75,3.75,0,0,1,0-7.5H182a3.75,3.75,0,1,1,0,7.5Z" transform="translate(-118.53 -29.09)"/><path class="e" d="M213,282H191.73a3.75,3.75,0,0,1,0-7.5H213a3.75,3.75,0,0,1,0,7.5Z" transform="translate(-118.53 -29.09)"/><path class="e" d="M252.23,282H223.48a3.75,3.75,0,0,1,0-7.5h28.75a3.75,3.75,0,0,1,0,7.5Z" transform="translate(-118.53 -29.09)"/><text class="j" transform="translate(43.8 241.14)">col_0</text><text class="j" transform="translate(42.2 197.89)">type: csv</text><text class="j" transform="translate(42.2 209.64)">headerRow: true</text><text class="j" transform="translate(71.23 241.14)">col_1</text><text class="j" transform="translate(102.73 241.14)">col_2</text></g><rect class="h" x="200.38" y="185.62" width="103.1" height="71.04"/><text class="k" transform="translate(209.03 230.62)"><tspan class="l">S</tspan><tspan class="m" x="11.87" y="0">t</tspan><tspan class="n" x="19.24" y="0">r</tspan><tspan class="o" x="26.94" y="0">u</tspan><tspan class="p" x="38.24" y="0">c</tspan><tspan x="48.11" y="0">tu</tspan><tspan class="q" x="66.78" y="0">r</tspan><tspan x="74.17" y="0">e</tspan></text><g class="d"><path class="e" d="M344.73,282h-17.5a3.75,3.75,0,0,1,0-7.5h17.5a3.75,3.75,0,0,1,0,7.5Z" transform="translate(-118.53 -29.09)"/><path class="e" d="M375.73,282H354.48a3.75,3.75,0,0,1,0-7.5h21.25a3.75,3.75,0,0,1,0,7.5Z" transform="translate(-118.53 -29.09)"/><path class="e" d="M415,282H386.23a3.75,3.75,0,0,1,0-7.5H415a3.75,3.75,0,0,1,0,7.5Z" transform="translate(-118.53 -29.09)"/><text class="j" transform="translate(206.55 241.14)">col_0</text><text class="j" transform="translate(204.95 197.89)">type: csv</text><text class="j" transform="translate(204.95 209.64)">headerRow: true</text><text class="j" transform="translate(233.98 241.14)">col_1</text><text class="j" transform="translate(265.48 241.14)">col_2</text></g><rect class="h" x="358.61" y="185.62" width="103.1" height="71.04"/><text class="r" transform="translate(367.03 227.62)">Structure_2</text><g class="d"><path class="e" d="M503,282h-17.5a3.75,3.75,0,0,1,0-7.5H503a3.75,3.75,0,0,1,0,7.5Z" transform="translate(-118.53 -29.09)"/><path class="e" d="M534,282H512.71a3.75,3.75,0,0,1,0-7.5H534a3.75,3.75,0,0,1,0,7.5Z" transform="translate(-118.53 -29.09)"/><path class="e" d="M573.21,282H544.46a3.75,3.75,0,0,1,0-7.5h28.75a3.75,3.75,0,0,1,0,7.5Z" transform="translate(-118.53 -29.09)"/><text class="j" transform="translate(364.78 241.14)">col_0</text><text class="j" transform="translate(363.18 197.89)">type: csv</text><text class="j" transform="translate(363.18 209.64)">headerRow: true</text><text class="j" transform="translate(392.22 241.14)">col_1</text><text class="j" transform="translate(423.71 241.14)">col_2</text></g><text class="s" transform="translate(125.51 154.77)">Data</text><text class="t" transform="translate(27.63 154.77)">structure</text><text class="t" transform="translate(62.35 136.02)">abstractStructure</text><text class="t" transform="translate(335.35 136.02)">abstractStructure</text><polyline class="h" points="28.7 157.89 28.7 222.89 37.2 222.89"/><polyline class="f" points="150.45 157.14 150.45 314.64 140.95 314.64"/><text class="a" transform="translate(349.19 15.77)">title: Super Fly Dataset<tspan x="0" y="9">length: 22345789</tspan><tspan x="0" y="18">keywords: foo,bar,baz</tspan><tspan x="0" y="27">category: climate science,</tspan></text><rect class="u" x="318.73" y="1.85" width="186.63" height="161.62"/><text class="c" transform="translate(330.57 68.89)">au_population</text><g class="d"><path class="e" d="M503.1,310.23H485.6a3.75,3.75,0,0,1,0-7.5h17.5a3.75,3.75,0,0,1,0,7.5Z" transform="translate(-118.53 -29.09)"/><path class="e" d="M534.1,310.23H512.85a3.75,3.75,0,0,1,0-7.5H534.1a3.75,3.75,0,0,1,0,7.5Z" transform="translate(-118.53 -29.09)"/><path class="e" d="M573.35,310.23H544.6a3.75,3.75,0,0,1,0-7.5h28.75a3.75,3.75,0,0,1,0,7.5Z" transform="translate(-118.53 -29.09)"/><path class="e" d="M503.1,322H485.6a3.75,3.75,0,0,1,0-7.5h17.5a3.75,3.75,0,0,1,0,7.5Z" transform="translate(-118.53 -29.09)"/><path class="e" d="M534.1,322H512.85a3.75,3.75,0,0,1,0-7.5H534.1a3.75,3.75,0,0,1,0,7.5Z" transform="translate(-118.53 -29.09)"/><path class="e" d="M573.35,322H544.6a3.75,3.75,0,0,1,0-7.5h28.75a3.75,3.75,0,0,1,0,7.5Z" transform="translate(-118.53 -29.09)"/><path class="e" d="M503.1,333.73H485.6a3.75,3.75,0,0,1,0-7.5h17.5a3.75,3.75,0,0,1,0,7.5Z" transform="translate(-118.53 -29.09)"/><path class="e" d="M534.1,333.73H512.85a3.75,3.75,0,0,1,0-7.5H534.1a3.75,3.75,0,0,1,0,7.5Z" transform="translate(-118.53 -29.09)"/><path class="e" d="M573.35,333.73H544.6a3.75,3.75,0,0,1,0-7.5h28.75a3.75,3.75,0,0,1,0,7.5Z" transform="translate(-118.53 -29.09)"/><path class="e" d="M503.1,345.48H485.6a3.75,3.75,0,0,1,0-7.5h17.5a3.75,3.75,0,0,1,0,7.5Z" transform="translate(-118.53 -29.09)"/><path class="e" d="M534.1,345.48H512.85a3.75,3.75,0,0,1,0-7.5H534.1a3.75,3.75,0,0,1,0,7.5Z" transform="translate(-118.53 -29.09)"/><path class="e" d="M573.35,345.48H544.6a3.75,3.75,0,0,1,0-7.5h28.75a3.75,3.75,0,0,1,0,7.5Z" transform="translate(-118.53 -29.09)"/><path class="e" d="M503.1,357.23H485.6a3.75,3.75,0,0,1,0-7.5h17.5a3.75,3.75,0,0,1,0,7.5Z" transform="translate(-118.53 -29.09)"/><path class="e" d="M534.1,357.23H512.85a3.75,3.75,0,0,1,0-7.5H534.1a3.75,3.75,0,0,1,0,7.5Z" transform="translate(-118.53 -29.09)"/><path class="e" d="M573.35,357.23H544.6a3.75,3.75,0,0,1,0-7.5h28.75a3.75,3.75,0,0,1,0,7.5Z" transform="translate(-118.53 -29.09)"/><path class="e" d="M503.1,369H485.6a3.75,3.75,0,0,1,0-7.5h17.5a3.75,3.75,0,0,1,0,7.5Z" transform="translate(-118.53 -29.09)"/><path class="e" d="M534.1,369H512.85a3.75,3.75,0,0,1,0-7.5H534.1a3.75,3.75,0,0,1,0,7.5Z" transform="translate(-118.53 -29.09)"/><path class="e" d="M573.35,369H544.6a3.75,3.75,0,0,1,0-7.5h28.75a3.75,3.75,0,0,1,0,7.5Z" transform="translate(-118.53 -29.09)"/><path class="e" d="M503.1,380.73H485.6a3.75,3.75,0,0,1,0-7.5h17.5a3.75,3.75,0,0,1,0,7.5Z" transform="translate(-118.53 -29.09)"/><path class="e" d="M534.1,380.73H512.85a3.75,3.75,0,0,1,0-7.5H534.1a3.75,3.75,0,0,1,0,7.5Z" transform="translate(-118.53 -29.09)"/><path class="e" d="M573.35,380.73H544.6a3.75,3.75,0,0,1,0-7.5h28.75a3.75,3.75,0,0,1,0,7.5Z" transform="translate(-118.53 -29.09)"/></g><rect class="f" x="359" y="267.37" width="103.1" height="90.54"/><text class="g" transform="translate(369.78 319.88)">Data_2</text><text class="s" transform="translate(446.88 154.77)">Data</text><text class="t" transform="translate(349 154.77)">structure</text><polyline class="h" points="350.07 157.89 350.07 221.14 358.75 221.14"/><polyline class="f" points="471.82 157.14 471.82 314.64 462.32 314.64"/><polyline class="h" points="327.75 131.87 267.75 131.87 267.75 185.12"/><polyline class="h" points="169.5 131.87 234.75 131.87 234.75 185.87"/><text class="a" transform="translate(335.89 409.25)">SELECT a.col_0, a.col_1<tspan x="0" y="9">FROM a</tspan><tspan x="0" y="18">WHERE a.col_0 &gt; 100</tspan><tspan x="0" y="27">LIMIT 0,10;</tspan></text><rect class="v" x="330.95" y="396.87" width="103.1" height="90.54"/><text class="w" transform="translate(348.37 449.37)">Query</text><rect class="h" x="204.13" y="478.48" width="103.1" height="69.54"/><text class="k" transform="translate(212.78 521.98)"><tspan class="l">S</tspan><tspan class="m" x="11.87" y="0">t</tspan><tspan class="n" x="19.24" y="0">r</tspan><tspan class="o" x="26.94" y="0">u</tspan><tspan class="p" x="38.24" y="0">c</tspan><tspan x="48.11" y="0">tu</tspan><tspan class="x" x="66.78" y="0">r</tspan><tspan x="74.17" y="0">e</tspan></text><g class="d"><path class="e" d="M348.48,573.34H331a3.75,3.75,0,0,1,0-7.5h17.5a3.75,3.75,0,0,1,0,7.5Z" transform="translate(-118.53 -29.09)"/><path class="e" d="M379.48,573.34H358.23a3.75,3.75,0,0,1,0-7.5h21.25a3.75,3.75,0,0,1,0,7.5Z" transform="translate(-118.53 -29.09)"/><path class="e" d="M418.73,573.34H390a3.75,3.75,0,1,1,0-7.5h28.75a3.75,3.75,0,0,1,0,7.5Z" transform="translate(-118.53 -29.09)"/><text class="j" transform="translate(210.3 532.5)">col_0</text><text class="j" transform="translate(208.7 489.25)">type: csv</text><text class="j" transform="translate(208.7 501)">headerRow: true</text><text class="j" transform="translate(237.74 532.5)">col_1</text><text class="j" transform="translate(269.23 532.5)">col_2</text></g><rect class="h" x="450.3" y="440.6" width="103.1" height="69.54"/><text class="k" transform="translate(458.95 484.1)"><tspan class="n">S</tspan><tspan x="11.87" y="0">t</tspan><tspan class="n" x="19.24" y="0">r</tspan><tspan x="26.94" y="0">u</tspan><tspan class="n" x="38.24" y="0">c</tspan><tspan x="48.11" y="0">tu</tspan><tspan class="x" x="66.78" y="0">r</tspan><tspan x="74.17" y="0">e</tspan></text><g class="d"><path class="e" d="M594.65,535.46h-17.5a3.75,3.75,0,0,1,0-7.5h17.5a3.75,3.75,0,0,1,0,7.5Z" transform="translate(-118.53 -29.09)"/><path class="e" d="M625.65,535.46H604.4a3.75,3.75,0,0,1,0-7.5h21.25a3.75,3.75,0,0,1,0,7.5Z" transform="translate(-118.53 -29.09)"/><path class="e" d="M664.9,535.46H636.15a3.75,3.75,0,0,1,0-7.5H664.9a3.75,3.75,0,0,1,0,7.5Z" transform="translate(-118.53 -29.09)"/><text class="j" transform="translate(456.47 494.62)">col_0</text><text class="j" transform="translate(454.87 451.37)">type: csv</text><text class="j" transform="translate(454.87 463.12)">headerRow: true</text><text class="j" transform="translate(483.91 494.62)">col_1</text><text class="j" transform="translate(515.4 494.62)">col_2</text></g><text class="y" transform="translate(339.05 479.37)">Inputs</text><text class="y" transform="translate(388.48 479.37)"><tspan class="z">R</tspan><tspan class="aa" x="8.29" y="0">es</tspan><tspan x="20.88" y="0">ult</tspan></text><rect class="ab" x="166.73" y="382.75" width="147.75" height="170.25" rx="5.65" ry="5.65"/><line class="h" x1="336.85" y1="476.12" x2="314.6" y2="476.12"/><line class="h" x1="428.1" y1="475.56" x2="450.42" y2="475.56"/><line class="h" x1="249.75" y1="257.9" x2="249.75" y2="429.65"/><circle class="ac" cx="249.75" cy="429.65" r="5.25"/></svg>