<svg xmlns="http://www.w3.org/2000/svg" viewBox="0 0 675.07 478.1"><defs><style>.a{opacity:0.15;}.a,.j{font-size:10px;}.a,.e,.j{fill:#231f20;}.a,.c,.g,.i,.j,.q,.r,.s{font-family:Overpass-Bold, Overpass;}.a,.c,.g,.i,.j,.k,.q,.r,.s{font-weight:700;}.b,.f,.h,.t{fill:none;stroke-miterlimit:10;}.b,.t{stroke:#3578ff;}.b{stroke-width:3.61px;}.c,.g{font-size:32px;}.c{fill:#3578ff;}.d{opacity:0.1;}.f{stroke:#4e6178;}.f,.h{stroke-width:3px;}.g,.r{fill:#4e6178;}.h{stroke:#00a69c;}.i,.k{font-size:28px;}.i,.k,.q,.s{fill:#00a69c;}.k{font-family:Overpass-BoldItalic, Overpass;font-style:italic;}.l{letter-spacing:-0.01em;}.m{letter-spacing:-0.01em;}.n{letter-spacing:0em;}.o{letter-spacing:0em;}.p{letter-spacing:-0.02em;}.q{font-size:20px;}.r,.s{font-size:16px;}.t{stroke-width:3.7px;}</style></defs><title>population-eg-datasets</title><text class="a" transform="translate(36.49 20.41)">title: Super Fly Dataset<tspan x="0" y="12">length: 22345789</tspan><tspan x="0" y="24">keywords: foo,bar,baz</tspan><tspan x="0" y="36">category: climate science,</tspan></text><rect class="b" x="1.81" y="1.85" width="237" height="215.49"/><text class="c" transform="translate(15.66 91.24)">us_population</text><g class="d"><path class="e" d="M142.26,441.51H118.93a5,5,0,1,1,0-10h23.33a5,5,0,1,1,0,10Z" transform="translate(-58.6 -67.27)"/><path class="e" d="M183.59,441.51H155.26a5,5,0,0,1,0-10h28.33a5,5,0,0,1,0,10Z" transform="translate(-58.6 -67.27)"/><path class="e" d="M235.93,441.51H197.59a5,5,0,1,1,0-10h38.33a5,5,0,0,1,0,10Z" transform="translate(-58.6 -67.27)"/><path class="e" d="M142.26,457.18H118.93a5,5,0,0,1,0-10h23.33a5,5,0,0,1,0,10Z" transform="translate(-58.6 -67.27)"/><path class="e" d="M183.59,457.18H155.26a5,5,0,1,1,0-10h28.33a5,5,0,1,1,0,10Z" transform="translate(-58.6 -67.27)"/><path class="e" d="M235.93,457.18H197.59a5,5,0,0,1,0-10h38.33a5,5,0,0,1,0,10Z" transform="translate(-58.6 -67.27)"/><path class="e" d="M142.26,472.84H118.93a5,5,0,0,1,0-10h23.33a5,5,0,1,1,0,10Z" transform="translate(-58.6 -67.27)"/><path class="e" d="M183.59,472.84H155.26a5,5,0,0,1,0-10h28.33a5,5,0,0,1,0,10Z" transform="translate(-58.6 -67.27)"/><path class="e" d="M235.93,472.84H197.59a5,5,0,1,1,0-10h38.33a5,5,0,1,1,0,10Z" transform="translate(-58.6 -67.27)"/><path class="e" d="M142.26,488.51H118.93a5,5,0,1,1,0-10h23.33a5,5,0,1,1,0,10Z" transform="translate(-58.6 -67.27)"/><path class="e" d="M183.59,488.51H155.26a5,5,0,0,1,0-10h28.33a5,5,0,0,1,0,10Z" transform="translate(-58.6 -67.27)"/><path class="e" d="M235.93,488.51H197.59a5,5,0,1,1,0-10h38.33a5,5,0,0,1,0,10Z" transform="translate(-58.6 -67.27)"/><path class="e" d="M142.26,504.18H118.93a5,5,0,0,1,0-10h23.33a5,5,0,0,1,0,10Z" transform="translate(-58.6 -67.27)"/><path class="e" d="M183.59,504.18H155.26a5,5,0,1,1,0-10h28.33a5,5,0,1,1,0,10Z" transform="translate(-58.6 -67.27)"/><path class="e" d="M235.93,504.18H197.59a5,5,0,0,1,0-10h38.33a5,5,0,0,1,0,10Z" transform="translate(-58.6 -67.27)"/><path class="e" d="M142.26,519.84H118.93a5,5,0,0,1,0-10h23.33a5,5,0,1,1,0,10Z" transform="translate(-58.6 -67.27)"/><path class="e" d="M183.59,519.84H155.26a5,5,0,0,1,0-10h28.33a5,5,0,0,1,0,10Z" transform="translate(-58.6 -67.27)"/><path class="e" d="M235.93,519.84H197.59a5,5,0,1,1,0-10h38.33a5,5,0,1,1,0,10Z" transform="translate(-58.6 -67.27)"/><path class="e" d="M142.26,535.51H118.93a5,5,0,1,1,0-10h23.33a5,5,0,1,1,0,10Z" transform="translate(-58.6 -67.27)"/><path class="e" d="M183.59,535.51H155.26a5,5,0,0,1,0-10h28.33a5,5,0,0,1,0,10Z" transform="translate(-58.6 -67.27)"/><path class="e" d="M235.93,535.51H197.59a5,5,0,1,1,0-10h38.33a5,5,0,0,1,0,10Z" transform="translate(-58.6 -67.27)"/></g><rect class="f" x="49.57" y="355.88" width="137.47" height="120.71"/><text class="g" transform="translate(81.83 425.88)">Data</text><rect class="h" x="49.57" y="246.88" width="137.47" height="94.71"/><text class="i" transform="translate(53.71 306.88)">Structure</text><g class="d"><path class="e" d="M142.59,403.84H119.26a5,5,0,1,1,0-10h23.33a5,5,0,1,1,0,10Z" transform="translate(-58.6 -67.27)"/><path class="e" d="M183.93,403.84H155.59a5,5,0,0,1,0-10h28.33a5,5,0,0,1,0,10Z" transform="translate(-58.6 -67.27)"/><path class="e" d="M236.26,403.84H197.93a5,5,0,1,1,0-10h38.33a5,5,0,0,1,0,10Z" transform="translate(-58.6 -67.27)"/><text class="j" transform="translate(57.8 320.91)">col_0</text><text class="j" transform="translate(55.66 263.24)">type: csv</text><text class="j" transform="translate(55.66 278.91)">headerRow: true</text><text class="j" transform="translate(94.38 320.91)">col_1</text><text class="j" transform="translate(136.37 320.91)">col_2</text></g><rect class="h" x="266.57" y="246.88" width="137.47" height="94.71"/><text class="k" transform="translate(274.03 306.88)"><tspan class="l">S</tspan><tspan x="16.8" y="0">t</tspan><tspan class="m" x="27.36" y="0">r</tspan><tspan class="n" x="38.61" y="0">u</tspan><tspan class="l" x="54.49" y="0">c</tspan><tspan class="o" x="68.91" y="0">tu</tspan><tspan class="p" x="95.34" y="0">r</tspan><tspan x="106.2" y="0">e</tspan></text><g class="d"><path class="e" d="M359.59,403.84H336.26a5,5,0,1,1,0-10h23.33a5,5,0,0,1,0,10Z" transform="translate(-58.6 -67.27)"/><path class="e" d="M400.93,403.84H372.59a5,5,0,0,1,0-10h28.33a5,5,0,0,1,0,10Z" transform="translate(-58.6 -67.27)"/><path class="e" d="M453.26,403.84H414.93a5,5,0,0,1,0-10h38.33a5,5,0,0,1,0,10Z" transform="translate(-58.6 -67.27)"/><text class="j" transform="translate(274.8 320.91)">col_0</text><text class="j" transform="translate(272.66 263.24)">type: csv</text><text class="j" transform="translate(272.66 278.91)">headerRow: true</text><text class="j" transform="translate(311.38 320.91)">col_1</text><text class="j" transform="translate(353.37 320.91)">col_2</text></g><rect class="h" x="477.55" y="246.88" width="137.47" height="94.71"/><text class="q" transform="translate(488.78 302.88)">Structure_2</text><g class="d"><path class="e" d="M570.57,403.84H547.24a5,5,0,0,1,0-10h23.33a5,5,0,0,1,0,10Z" transform="translate(-58.6 -67.27)"/><path class="e" d="M611.9,403.84H583.57a5,5,0,0,1,0-10H611.9a5,5,0,0,1,0,10Z" transform="translate(-58.6 -67.27)"/><path class="e" d="M664.24,403.84H625.9a5,5,0,0,1,0-10h38.33a5,5,0,0,1,0,10Z" transform="translate(-58.6 -67.27)"/><text class="j" transform="translate(485.77 320.91)">col_0</text><text class="j" transform="translate(483.64 263.24)">type: csv</text><text class="j" transform="translate(483.64 278.91)">headerRow: true</text><text class="j" transform="translate(522.35 320.91)">col_1</text><text class="j" transform="translate(564.35 320.91)">col_2</text></g><text class="r" transform="translate(166.75 205.74)">Data</text><text class="s" transform="translate(36.24 205.74)">structure</text><text class="s" transform="translate(82.53 180.74)">abstractStructure</text><text class="s" transform="translate(446.53 180.74)">abstractStructure</text><polyline class="h" points="37.66 209.91 37.66 296.57 48.99 296.57"/><polyline class="f" points="199.99 208.91 199.99 418.91 187.33 418.91"/><text class="a" transform="translate(464.99 20.41)">title: Super Fly Dataset<tspan x="0" y="12">length: 22345789</tspan><tspan x="0" y="24">keywords: foo,bar,baz</tspan><tspan x="0" y="36">category: climate science,</tspan></text><rect class="t" x="424.38" y="1.85" width="248.84" height="215.49"/><text class="c" transform="translate(440.15 91.24)">au_population</text><g class="d"><path class="e" d="M570.75,441.51H547.42a5,5,0,0,1,0-10h23.33a5,5,0,0,1,0,10Z" transform="translate(-58.6 -67.27)"/><path class="e" d="M612.09,441.51H583.75a5,5,0,0,1,0-10h28.33a5,5,0,0,1,0,10Z" transform="translate(-58.6 -67.27)"/><path class="e" d="M664.42,441.51H626.09a5,5,0,0,1,0-10h38.33a5,5,0,0,1,0,10Z" transform="translate(-58.6 -67.27)"/><path class="e" d="M570.75,457.18H547.42a5,5,0,0,1,0-10h23.33a5,5,0,0,1,0,10Z" transform="translate(-58.6 -67.27)"/><path class="e" d="M612.09,457.18H583.75a5,5,0,0,1,0-10h28.33a5,5,0,0,1,0,10Z" transform="translate(-58.6 -67.27)"/><path class="e" d="M664.42,457.18H626.09a5,5,0,0,1,0-10h38.33a5,5,0,0,1,0,10Z" transform="translate(-58.6 -67.27)"/><path class="e" d="M570.75,472.84H547.42a5,5,0,0,1,0-10h23.33a5,5,0,0,1,0,10Z" transform="translate(-58.6 -67.27)"/><path class="e" d="M612.09,472.84H583.75a5,5,0,0,1,0-10h28.33a5,5,0,1,1,0,10Z" transform="translate(-58.6 -67.27)"/><path class="e" d="M664.42,472.84H626.09a5,5,0,0,1,0-10h38.33a5,5,0,0,1,0,10Z" transform="translate(-58.6 -67.27)"/><path class="e" d="M570.75,488.51H547.42a5,5,0,0,1,0-10h23.33a5,5,0,0,1,0,10Z" transform="translate(-58.6 -67.27)"/><path class="e" d="M612.09,488.51H583.75a5,5,0,0,1,0-10h28.33a5,5,0,0,1,0,10Z" transform="translate(-58.6 -67.27)"/><path class="e" d="M664.42,488.51H626.09a5,5,0,0,1,0-10h38.33a5,5,0,0,1,0,10Z" transform="translate(-58.6 -67.27)"/><path class="e" d="M570.75,504.18H547.42a5,5,0,0,1,0-10h23.33a5,5,0,0,1,0,10Z" transform="translate(-58.6 -67.27)"/><path class="e" d="M612.09,504.18H583.75a5,5,0,0,1,0-10h28.33a5,5,0,0,1,0,10Z" transform="translate(-58.6 -67.27)"/><path class="e" d="M664.42,504.18H626.09a5,5,0,0,1,0-10h38.33a5,5,0,0,1,0,10Z" transform="translate(-58.6 -67.27)"/><path class="e" d="M570.75,519.84H547.42a5,5,0,0,1,0-10h23.33a5,5,0,0,1,0,10Z" transform="translate(-58.6 -67.27)"/><path class="e" d="M612.09,519.84H583.75a5,5,0,0,1,0-10h28.33a5,5,0,1,1,0,10Z" transform="translate(-58.6 -67.27)"/><path class="e" d="M664.42,519.84H626.09a5,5,0,0,1,0-10h38.33a5,5,0,0,1,0,10Z" transform="translate(-58.6 -67.27)"/><path class="e" d="M570.75,535.51H547.42a5,5,0,0,1,0-10h23.33a5,5,0,0,1,0,10Z" transform="translate(-58.6 -67.27)"/><path class="e" d="M612.09,535.51H583.75a5,5,0,0,1,0-10h28.33a5,5,0,0,1,0,10Z" transform="translate(-58.6 -67.27)"/><path class="e" d="M664.42,535.51H626.09a5,5,0,0,1,0-10h38.33a5,5,0,0,1,0,10Z" transform="translate(-58.6 -67.27)"/></g><rect class="f" x="478.06" y="355.88" width="137.47" height="120.71"/><text class="g" transform="translate(492.43 425.88)">Data_2</text><text class="r" transform="translate(595.24 205.74)">Data</text><text class="s" transform="translate(464.73 205.74)">structure</text><polyline class="h" points="466.15 209.91 466.15 294.24 477.73 294.24"/><polyline class="f" points="628.49 208.91 628.49 418.91 615.82 418.91"/><polyline class="h" points="436.4 175.21 356.4 175.21 356.4 246.21"/><polyline class="h" points="225.4 175.21 312.4 175.21 312.4 247.21"/></svg>