<svg xmlns="http://www.w3.org/2000/svg" viewBox="0 0 507.45 604.26"><defs><style>.a{opacity:0.15;}.a,.j{font-size:6.29px;}.a,.e,.j{fill:#231f20;}.a,.am,.c,.g,.i,.j,.k,.l,.m,.n{font-family:Overpass-Bold, Overpass;font-weight:700;}.ai,.aj,.ak,.al,.ar,.b,.f,.h,.o,.p,.q{fill:none;stroke-miterlimit:10;}.b{stroke:#3578ff;stroke-width:3.2px;}.c,.g,.r{font-size:20.14px;}.am,.c{fill:#3578ff;}.d{opacity:0.1;}.f,.p{stroke:#4e6178;}.f,.h{stroke-width:3px;}.g,.k{fill:#4e6178;}.ai,.h,.o{stroke:#00a69c;}.ah,.am,.i,.s{font-size:17.62px;}.ac,.ah,.i,.l,.s,.w{fill:#00a69c;}.k,.l,.n{font-size:10.07px;}.ag,.m,.w{font-size:11.33px;}.m{fill:#0eadd8;}.an,.ao,.n,.r{fill:#eba434;}.aj,.ak,.o,.p{stroke-width:2.5px;}.aj,.ar,.q{stroke:#eba434;}.q{stroke-width:2.21px;}.ao,.r,.s,.w{font-family:Overpass-Italic, Overpass;font-style:italic;}.t{letter-spacing:-0.01em;}.u{letter-spacing:-0.01em;}.v{letter-spacing:-0.02em;}.x{letter-spacing:-0.01em;}.y{letter-spacing:-0.01em;}.z{letter-spacing:-0.03em;}.aa{letter-spacing:-0.01em;}.ab{letter-spacing:0em;}.ad{letter-spacing:0em;}.ae{letter-spacing:-0.01em;}.af{letter-spacing:-0.02em;}.ag{fill:#fff;}.ag,.ah{font-family:Overpass-Reg, Overpass;}.ai,.al{stroke-width:1px;}.ak,.al{stroke:#0eadd8;}.an{font-size:8.75px;font-family:SourceCodePro-Regular, Source Code Pro;}.ao{font-size:11.25px;}.ap{letter-spacing:-0.01em;}.aq{letter-spacing:-0.01em;}.ar{stroke-width:2.22px;}</style></defs><title>query-processing</title><text class="a" transform="translate(270.67 13.28) scale(0.98 1)">title: Super Fly Dataset<tspan x="0" y="7.55">length: 22345789</tspan><tspan x="0" y="15.11">keywords: foo,bar,baz</tspan><tspan x="0" y="22.66">category: climate science,</tspan></text><rect class="b" x="264.92" y="1.6" width="115.25" height="123.05"/><text class="c" transform="translate(290.58 57.86) scale(0.98 1)">Dataset</text><g class="d"><path class="e" d="M602.52,261.44H588.07a3.15,3.15,0,0,1,0-6.29h14.44a3.15,3.15,0,0,1,0,6.29Z" transform="translate(-160.56 -8.84)"/><path class="e" d="M628.1,261.44H610.56a3.15,3.15,0,0,1,0-6.29H628.1a3.15,3.15,0,0,1,0,6.29Z" transform="translate(-160.56 -8.84)"/><path class="e" d="M660.5,261.44H636.77a3.15,3.15,0,0,1,0-6.29H660.5a3.15,3.15,0,0,1,0,6.29Z" transform="translate(-160.56 -8.84)"/><path class="e" d="M602.52,271.3H588.07a3.15,3.15,0,0,1,0-6.29h14.44a3.15,3.15,0,0,1,0,6.29Z" transform="translate(-160.56 -8.84)"/><path class="e" d="M628.1,271.3H610.56a3.15,3.15,0,0,1,0-6.29H628.1a3.15,3.15,0,0,1,0,6.29Z" transform="translate(-160.56 -8.84)"/><path class="e" d="M660.5,271.3H636.77a3.15,3.15,0,0,1,0-6.29H660.5a3.15,3.15,0,0,1,0,6.29Z" transform="translate(-160.56 -8.84)"/><path class="e" d="M602.52,281.16H588.07a3.15,3.15,0,0,1,0-6.29h14.44a3.15,3.15,0,0,1,0,6.29Z" transform="translate(-160.56 -8.84)"/><path class="e" d="M628.1,281.16H610.56a3.15,3.15,0,0,1,0-6.29H628.1a3.15,3.15,0,0,1,0,6.29Z" transform="translate(-160.56 -8.84)"/><path class="e" d="M660.5,281.16H636.77a3.15,3.15,0,0,1,0-6.29H660.5a3.15,3.15,0,0,1,0,6.29Z" transform="translate(-160.56 -8.84)"/><path class="e" d="M602.52,291H588.07a3.15,3.15,0,0,1,0-6.29h14.44a3.15,3.15,0,0,1,0,6.29Z" transform="translate(-160.56 -8.84)"/><path class="e" d="M628.1,291H610.56a3.15,3.15,0,0,1,0-6.29H628.1a3.15,3.15,0,0,1,0,6.29Z" transform="translate(-160.56 -8.84)"/><path class="e" d="M660.5,291H636.77a3.15,3.15,0,0,1,0-6.29H660.5a3.15,3.15,0,0,1,0,6.29Z" transform="translate(-160.56 -8.84)"/><path class="e" d="M602.52,300.88H588.07a3.15,3.15,0,0,1,0-6.29h14.44a3.15,3.15,0,0,1,0,6.29Z" transform="translate(-160.56 -8.84)"/><path class="e" d="M628.1,300.88H610.56a3.15,3.15,0,0,1,0-6.29H628.1a3.15,3.15,0,0,1,0,6.29Z" transform="translate(-160.56 -8.84)"/><path class="e" d="M660.5,300.88H636.77a3.15,3.15,0,0,1,0-6.29H660.5a3.15,3.15,0,0,1,0,6.29Z" transform="translate(-160.56 -8.84)"/><path class="e" d="M602.52,310.74H588.07a3.15,3.15,0,0,1,0-6.29h14.44a3.15,3.15,0,0,1,0,6.29Z" transform="translate(-160.56 -8.84)"/><path class="e" d="M628.1,310.74H610.56a3.15,3.15,0,0,1,0-6.29H628.1a3.15,3.15,0,0,1,0,6.29Z" transform="translate(-160.56 -8.84)"/><path class="e" d="M660.5,310.74H636.77a3.15,3.15,0,0,1,0-6.29H660.5a3.15,3.15,0,0,1,0,6.29Z" transform="translate(-160.56 -8.84)"/><path class="e" d="M602.52,320.6H588.07a3.15,3.15,0,0,1,0-6.29h14.44a3.15,3.15,0,0,1,0,6.29Z" transform="translate(-160.56 -8.84)"/><path class="e" d="M628.1,320.6H610.56a3.15,3.15,0,0,1,0-6.29H628.1a3.15,3.15,0,0,1,0,6.29Z" transform="translate(-160.56 -8.84)"/><path class="e" d="M660.5,320.6H636.77a3.15,3.15,0,0,1,0-6.29H660.5a3.15,3.15,0,0,1,0,6.29Z" transform="translate(-160.56 -8.84)"/></g><rect class="f" x="420.86" y="241.04" width="85.1" height="75.98"/><text class="g" transform="translate(440.83 285.1) scale(0.98 1)">Data</text><rect class="h" x="319.84" y="241.26" width="85.1" height="59.62"/><text class="i" transform="translate(322.4 279.03) scale(0.98 1)">Structure</text><g class="d"><path class="e" d="M501.71,306.56H487.26a3.15,3.15,0,0,1,0-6.29h14.44a3.15,3.15,0,0,1,0,6.29Z" transform="translate(-160.56 -8.84)"/><path class="e" d="M527.29,306.56H509.75a3.15,3.15,0,0,1,0-6.29h17.54a3.15,3.15,0,0,1,0,6.29Z" transform="translate(-160.56 -8.84)"/><path class="e" d="M559.69,306.56H536a3.15,3.15,0,0,1,0-6.29h23.73a3.15,3.15,0,0,1,0,6.29Z" transform="translate(-160.56 -8.84)"/><text class="j" transform="translate(324.93 287.85) scale(0.98 1)">col_0</text><text class="j" transform="translate(323.61 251.56) scale(0.98 1)">type: csv</text><text class="j" transform="translate(323.61 261.42) scale(0.98 1)">headerRow: true</text><text class="j" transform="translate(347.58 287.85) scale(0.98 1)">col_1</text><text class="j" transform="translate(373.57 287.85) scale(0.98 1)">col_2</text></g><text class="k" transform="translate(352.06 117.34) scale(0.98 1)">data</text><text class="l" transform="translate(271.85 117.34) scale(0.98 1)">structure</text><text class="m" transform="translate(271.85 77.57) scale(0.98 1)">resources</text><text class="n" transform="translate(271.35 90.99) scale(0.98 1)">queryString</text><text class="n" transform="translate(271.85 103.49) scale(0.98 1)">query</text><polyline class="o" points="297.08 124.64 297.08 143.22 360.77 143.22 360.77 241.89"/><polyline class="p" points="365.37 123.82 365.37 137.18 463.01 136.89 463.01 241.89"/><text class="a" transform="translate(291.74 361.84) scale(0.98 1)">SELECT a.col_0, a.col_1<tspan x="0" y="7.55">FROM a</tspan><tspan x="0" y="15.11">WHERE a.col_0 &gt; 100</tspan><tspan x="0" y="22.66">LIMIT 0,10;</tspan></text><rect class="q" x="287.66" y="351.46" width="85.1" height="82.04"/><text class="r" transform="translate(302.04 388.52) scale(0.98 1)">Query</text><rect class="h" x="386.17" y="388.16" width="85.1" height="58.36"/><text class="s" transform="translate(393.31 424.67) scale(0.98 1)"><tspan class="t">S</tspan><tspan x="9.96" y="0">t</tspan><tspan class="u" x="16.14" y="0">r</tspan><tspan x="22.61" y="0">u</tspan><tspan class="t" x="32.09" y="0">c</tspan><tspan x="40.38" y="0">tu</tspan><tspan class="v" x="56.04" y="0">r</tspan><tspan x="62.25" y="0">e</tspan></text><g class="d"><path class="e" d="M568,452.2H553.59a3.15,3.15,0,0,1,0-6.29H568a3.15,3.15,0,0,1,0,6.29Z" transform="translate(-160.56 -8.84)"/><path class="e" d="M593.62,452.2H576.08a3.15,3.15,0,0,1,0-6.29h17.54a3.15,3.15,0,0,1,0,6.29Z" transform="translate(-160.56 -8.84)"/><path class="e" d="M626,452.2H602.29a3.15,3.15,0,0,1,0-6.29H626a3.15,3.15,0,0,1,0,6.29Z" transform="translate(-160.56 -8.84)"/><text class="j" transform="translate(391.26 433.49) scale(0.98 1)">col_0</text><text class="j" transform="translate(389.94 397.2) scale(0.98 1)">type: csv</text><text class="j" transform="translate(389.94 407.06) scale(0.98 1)">headerRow: true</text><text class="j" transform="translate(413.91 433.49) scale(0.98 1)">col_1</text><text class="j" transform="translate(439.9 433.49) scale(0.98 1)">col_2</text></g><text class="w" transform="translate(292.8 416.69) scale(0.98 1)">input<tspan class="x" x="24.95" y="0">S</tspan><tspan x="31.35" y="0">t</tspan><tspan class="y" x="35.33" y="0">r</tspan><tspan x="39.48" y="0">u</tspan><tspan class="y" x="45.58" y="0">c</tspan><tspan x="50.9" y="0">tu</tspan><tspan class="z" x="60.98" y="0">r</tspan><tspan class="aa" x="64.96" y="0">e</tspan><tspan x="70.61" y="0">s</tspan></text><text class="w" transform="translate(292.8 428.98) scale(0.98 1)">output<tspan class="x" x="32.11" y="0">S</tspan><tspan x="38.51" y="0">t</tspan><tspan class="x" x="42.49" y="0">r</tspan><tspan class="ab" x="46.64" y="0">u</tspan><tspan class="x" x="52.74" y="0">c</tspan><tspan x="58.06" y="0">tu</tspan><tspan class="z" x="68.14" y="0">r</tspan><tspan x="72.12" y="0">e</tspan></text><rect class="ac" x="156.39" y="344.43" width="15.68" height="15.95" rx="2.72" ry="2.72"/><rect class="h" x="182.99" y="345.67" width="85.1" height="58.36"/><text class="s" transform="translate(190.12 382.18) scale(0.98 1)"><tspan class="u">S</tspan><tspan class="ad" x="9.96" y="0">t</tspan><tspan class="ae" x="16.14" y="0">r</tspan><tspan x="22.61" y="0">u</tspan><tspan class="ae" x="32.09" y="0">c</tspan><tspan x="40.38" y="0">tu</tspan><tspan class="af" x="56.04" y="0">r</tspan><tspan x="62.25" y="0">e</tspan></text><g class="d"><path class="e" d="M364.85,409.71H350.41a3.15,3.15,0,0,1,0-6.29h14.44a3.15,3.15,0,0,1,0,6.29Z" transform="translate(-160.56 -8.84)"/><path class="e" d="M390.44,409.71H372.9a3.15,3.15,0,0,1,0-6.29h17.54a3.15,3.15,0,0,1,0,6.29Z" transform="translate(-160.56 -8.84)"/><path class="e" d="M422.84,409.71H399.11a3.15,3.15,0,0,1,0-6.29h23.73a3.15,3.15,0,0,1,0,6.29Z" transform="translate(-160.56 -8.84)"/><text class="j" transform="translate(188.08 391.01) scale(0.98 1)">col_0</text><text class="j" transform="translate(186.76 354.71) scale(0.98 1)">type: csv</text><text class="j" transform="translate(186.76 364.57) scale(0.98 1)">headerRow: true</text><text class="j" transform="translate(210.72 391.01) scale(0.98 1)">col_1</text><text class="j" transform="translate(236.72 391.01) scale(0.98 1)">col_2</text></g><rect class="h" x="182.99" y="419.95" width="85.1" height="58.36"/><text class="s" transform="translate(190.12 456.45) scale(0.98 1)"><tspan class="u">S</tspan><tspan class="ad" x="9.96" y="0">t</tspan><tspan class="ae" x="16.14" y="0">r</tspan><tspan x="22.61" y="0">u</tspan><tspan class="ae" x="32.09" y="0">c</tspan><tspan x="40.38" y="0">tu</tspan><tspan class="af" x="56.04" y="0">r</tspan><tspan x="62.25" y="0">e</tspan></text><g class="d"><path class="e" d="M364.85,484H350.41a3.15,3.15,0,0,1,0-6.29h14.44a3.15,3.15,0,0,1,0,6.29Z" transform="translate(-160.56 -8.84)"/><path class="e" d="M390.44,484H372.9a3.15,3.15,0,0,1,0-6.29h17.54a3.15,3.15,0,0,1,0,6.29Z" transform="translate(-160.56 -8.84)"/><path class="e" d="M422.84,484H399.11a3.15,3.15,0,0,1,0-6.29h23.73a3.15,3.15,0,0,1,0,6.29Z" transform="translate(-160.56 -8.84)"/><text class="j" transform="translate(188.08 465.28) scale(0.98 1)">col_0</text><text class="j" transform="translate(186.76 428.98) scale(0.98 1)">type: csv</text><text class="j" transform="translate(186.76 438.84) scale(0.98 1)">headerRow: true</text><text class="j" transform="translate(210.72 465.28) scale(0.98 1)">col_1</text><text class="j" transform="translate(236.72 465.28) scale(0.98 1)">col_2</text></g><text class="ag" transform="translate(160.75 355.66) scale(0.98 1)">a</text><rect class="ac" x="156.39" y="418.91" width="15.68" height="15.95" rx="2.72" ry="2.72"/><text class="ag" transform="translate(161.21 430.77) scale(0.98 1)">b</text><text class="ah" transform="translate(175.66 356.6) scale(0.98 1)">:</text><text class="ah" transform="translate(175.66 430.66) scale(0.98 1)">:</text><rect class="ai" x="152.11" y="339.6" width="121.95" height="142.88" rx="5.65" ry="5.65"/><line class="h" x1="291.26" y1="414.64" x2="274.17" y2="414.64"/><line class="h" x1="373.97" y1="425.88" x2="385.27" y2="425.88"/><polyline class="aj" points="265.64 101.47 255.14 101.47 255.14 176.33 303.92 176.33 303.92 351.46"/><polyline class="ak" points="265.38 73.29 65.25 73.29 65.25 124.64"/><g class="d"><path class="e" d="M217.55,305.44H203.11a3.15,3.15,0,0,1,0-6.29h14.44a3.15,3.15,0,0,1,0,6.29Z" transform="translate(-160.56 -8.84)"/><path class="e" d="M243.14,305.44H225.6a3.15,3.15,0,0,1,0-6.29h17.54a3.15,3.15,0,0,1,0,6.29Z" transform="translate(-160.56 -8.84)"/><path class="e" d="M275.54,305.44H251.81a3.15,3.15,0,0,1,0-6.29h23.73a3.15,3.15,0,0,1,0,6.29Z" transform="translate(-160.56 -8.84)"/><path class="e" d="M217.55,315.3H203.11a3.15,3.15,0,0,1,0-6.29h14.44a3.15,3.15,0,0,1,0,6.29Z" transform="translate(-160.56 -8.84)"/><path class="e" d="M243.14,315.3H225.6a3.15,3.15,0,0,1,0-6.29h17.54a3.15,3.15,0,0,1,0,6.29Z" transform="translate(-160.56 -8.84)"/><path class="e" d="M275.54,315.3H251.81a3.15,3.15,0,0,1,0-6.29h23.73a3.15,3.15,0,0,1,0,6.29Z" transform="translate(-160.56 -8.84)"/><path class="e" d="M217.55,325.16H203.11a3.15,3.15,0,0,1,0-6.29h14.44a3.15,3.15,0,0,1,0,6.29Z" transform="translate(-160.56 -8.84)"/><path class="e" d="M243.14,325.16H225.6a3.15,3.15,0,0,1,0-6.29h17.54a3.15,3.15,0,0,1,0,6.29Z" transform="translate(-160.56 -8.84)"/><path class="e" d="M275.54,325.16H251.81a3.15,3.15,0,0,1,0-6.29h23.73a3.15,3.15,0,0,1,0,6.29Z" transform="translate(-160.56 -8.84)"/><path class="e" d="M217.55,335H203.11a3.15,3.15,0,0,1,0-6.29h14.44a3.15,3.15,0,0,1,0,6.29Z" transform="translate(-160.56 -8.84)"/><path class="e" d="M243.14,335H225.6a3.15,3.15,0,0,1,0-6.29h17.54a3.15,3.15,0,0,1,0,6.29Z" transform="translate(-160.56 -8.84)"/><path class="e" d="M275.54,335H251.81a3.15,3.15,0,0,1,0-6.29h23.73a3.15,3.15,0,0,1,0,6.29Z" transform="translate(-160.56 -8.84)"/><path class="e" d="M217.55,344.88H203.11a3.15,3.15,0,0,1,0-6.29h14.44a3.15,3.15,0,0,1,0,6.29Z" transform="translate(-160.56 -8.84)"/><path class="e" d="M243.14,344.88H225.6a3.15,3.15,0,0,1,0-6.29h17.54a3.15,3.15,0,0,1,0,6.29Z" transform="translate(-160.56 -8.84)"/><path class="e" d="M275.54,344.88H251.81a3.15,3.15,0,0,1,0-6.29h23.73a3.15,3.15,0,0,1,0,6.29Z" transform="translate(-160.56 -8.84)"/><path class="e" d="M217.55,354.74H203.11a3.15,3.15,0,0,1,0-6.29h14.44a3.15,3.15,0,0,1,0,6.29Z" transform="translate(-160.56 -8.84)"/><path class="e" d="M243.14,354.74H225.6a3.15,3.15,0,0,1,0-6.29h17.54a3.15,3.15,0,0,1,0,6.29Z" transform="translate(-160.56 -8.84)"/><path class="e" d="M275.54,354.74H251.81a3.15,3.15,0,0,1,0-6.29h23.73a3.15,3.15,0,0,1,0,6.29Z" transform="translate(-160.56 -8.84)"/><path class="e" d="M217.55,364.6H203.11a3.15,3.15,0,0,1,0-6.29h14.44a3.15,3.15,0,0,1,0,6.29Z" transform="translate(-160.56 -8.84)"/><path class="e" d="M243.14,364.6H225.6a3.15,3.15,0,0,1,0-6.29h17.54a3.15,3.15,0,0,1,0,6.29Z" transform="translate(-160.56 -8.84)"/><path class="e" d="M275.54,364.6H251.81a3.15,3.15,0,0,1,0-6.29h23.73a3.15,3.15,0,0,1,0,6.29Z" transform="translate(-160.56 -8.84)"/></g><rect class="f" x="35.89" y="285.04" width="85.1" height="75.98"/><text class="g" transform="translate(55.86 329.1) scale(0.98 1)">Data</text><rect class="h" x="35.89" y="218.3" width="85.1" height="59.62"/><text class="i" transform="translate(38.46 256.07) scale(0.98 1)">Structure</text><g class="d"><path class="e" d="M217.76,283.6H203.31a3.15,3.15,0,0,1,0-6.29h14.44a3.15,3.15,0,0,1,0,6.29Z" transform="translate(-160.56 -8.84)"/><path class="e" d="M243.35,283.6H225.81a3.15,3.15,0,0,1,0-6.29h17.54a3.15,3.15,0,0,1,0,6.29Z" transform="translate(-160.56 -8.84)"/><path class="e" d="M275.74,283.6H252a3.15,3.15,0,0,1,0-6.29h23.73a3.15,3.15,0,0,1,0,6.29Z" transform="translate(-160.56 -8.84)"/><text class="j" transform="translate(40.98 264.89) scale(0.98 1)">col_0</text><text class="j" transform="translate(39.66 228.6) scale(0.98 1)">type: csv</text><text class="j" transform="translate(39.66 238.46) scale(0.98 1)">headerRow: true</text><text class="j" transform="translate(63.63 264.89) scale(0.98 1)">col_1</text><text class="j" transform="translate(89.63 264.89) scale(0.98 1)">col_2</text></g><rect class="ac" x="6.95" y="138.09" width="15.68" height="15.95" rx="2.72" ry="2.72"/><text class="ag" transform="translate(11.31 149.31) scale(0.98 1)">a</text><rect class="al" x="0.5" y="123.82" width="129.5" height="479.94" rx="5.65" ry="5.65"/><line class="h" x1="42.96" y1="207.22" x2="42.96" y2="218.23"/><line class="f" x1="113.54" y1="206.59" x2="113.54" y2="285.27"/><text class="ah" transform="translate(26.73 150.05) scale(0.98 1)">:</text><g class="d"><path class="e" d="M217.55,540.42H203.11a3.15,3.15,0,0,1,0-6.29h14.44a3.15,3.15,0,0,1,0,6.29Z" transform="translate(-160.56 -8.84)"/><path class="e" d="M243.14,540.42H225.6a3.15,3.15,0,0,1,0-6.29h17.54a3.15,3.15,0,0,1,0,6.29Z" transform="translate(-160.56 -8.84)"/><path class="e" d="M275.54,540.42H251.81a3.15,3.15,0,0,1,0-6.29h23.73a3.15,3.15,0,0,1,0,6.29Z" transform="translate(-160.56 -8.84)"/><path class="e" d="M217.55,550.28H203.11a3.15,3.15,0,0,1,0-6.29h14.44a3.15,3.15,0,0,1,0,6.29Z" transform="translate(-160.56 -8.84)"/><path class="e" d="M243.14,550.28H225.6a3.15,3.15,0,0,1,0-6.29h17.54a3.15,3.15,0,0,1,0,6.29Z" transform="translate(-160.56 -8.84)"/><path class="e" d="M275.54,550.28H251.81a3.15,3.15,0,0,1,0-6.29h23.73a3.15,3.15,0,0,1,0,6.29Z" transform="translate(-160.56 -8.84)"/><path class="e" d="M217.55,560.14H203.11a3.15,3.15,0,0,1,0-6.29h14.44a3.15,3.15,0,0,1,0,6.29Z" transform="translate(-160.56 -8.84)"/><path class="e" d="M243.14,560.14H225.6a3.15,3.15,0,0,1,0-6.29h17.54a3.15,3.15,0,0,1,0,6.29Z" transform="translate(-160.56 -8.84)"/><path class="e" d="M275.54,560.14H251.81a3.15,3.15,0,0,1,0-6.29h23.73a3.15,3.15,0,0,1,0,6.29Z" transform="translate(-160.56 -8.84)"/><path class="e" d="M217.55,570H203.11a3.15,3.15,0,0,1,0-6.29h14.44a3.15,3.15,0,0,1,0,6.29Z" transform="translate(-160.56 -8.84)"/><path class="e" d="M243.14,570H225.6a3.15,3.15,0,0,1,0-6.29h17.54a3.15,3.15,0,0,1,0,6.29Z" transform="translate(-160.56 -8.84)"/><path class="e" d="M275.54,570H251.81a3.15,3.15,0,0,1,0-6.29h23.73a3.15,3.15,0,0,1,0,6.29Z" transform="translate(-160.56 -8.84)"/><path class="e" d="M217.55,579.86H203.11a3.15,3.15,0,0,1,0-6.29h14.44a3.15,3.15,0,0,1,0,6.29Z" transform="translate(-160.56 -8.84)"/><path class="e" d="M243.14,579.86H225.6a3.15,3.15,0,0,1,0-6.29h17.54a3.15,3.15,0,0,1,0,6.29Z" transform="translate(-160.56 -8.84)"/><path class="e" d="M275.54,579.86H251.81a3.15,3.15,0,0,1,0-6.29h23.73a3.15,3.15,0,0,1,0,6.29Z" transform="translate(-160.56 -8.84)"/><path class="e" d="M217.55,589.73H203.11a3.15,3.15,0,0,1,0-6.29h14.44a3.15,3.15,0,0,1,0,6.29Z" transform="translate(-160.56 -8.84)"/><path class="e" d="M243.14,589.73H225.6a3.15,3.15,0,0,1,0-6.29h17.54a3.15,3.15,0,0,1,0,6.29Z" transform="translate(-160.56 -8.84)"/><path class="e" d="M275.54,589.73H251.81a3.15,3.15,0,0,1,0-6.29h23.73a3.15,3.15,0,0,1,0,6.29Z" transform="translate(-160.56 -8.84)"/><path class="e" d="M217.55,599.59H203.11a3.15,3.15,0,0,1,0-6.29h14.44a3.15,3.15,0,0,1,0,6.29Z" transform="translate(-160.56 -8.84)"/><path class="e" d="M243.14,599.59H225.6a3.15,3.15,0,0,1,0-6.29h17.54a3.15,3.15,0,0,1,0,6.29Z" transform="translate(-160.56 -8.84)"/><path class="e" d="M275.54,599.59H251.81a3.15,3.15,0,0,1,0-6.29h23.73a3.15,3.15,0,0,1,0,6.29Z" transform="translate(-160.56 -8.84)"/></g><rect class="f" x="35.89" y="520.02" width="85.1" height="75.98"/><text class="g" transform="translate(55.86 564.08) scale(0.98 1)">Data</text><rect class="h" x="35.89" y="453.28" width="85.1" height="59.62"/><text class="i" transform="translate(38.46 491.05) scale(0.98 1)">Structure</text><g class="d"><path class="e" d="M217.76,518.58H203.31a3.15,3.15,0,0,1,0-6.29h14.44a3.15,3.15,0,0,1,0,6.29Z" transform="translate(-160.56 -8.84)"/><path class="e" d="M243.35,518.58H225.81a3.15,3.15,0,0,1,0-6.29h17.54a3.15,3.15,0,0,1,0,6.29Z" transform="translate(-160.56 -8.84)"/><path class="e" d="M275.74,518.58H252a3.15,3.15,0,0,1,0-6.29h23.73a3.15,3.15,0,0,1,0,6.29Z" transform="translate(-160.56 -8.84)"/><text class="j" transform="translate(40.98 499.88) scale(0.98 1)">col_0</text><text class="j" transform="translate(39.66 463.58) scale(0.98 1)">type: csv</text><text class="j" transform="translate(39.66 473.44) scale(0.98 1)">headerRow: true</text><text class="j" transform="translate(63.63 499.88) scale(0.98 1)">col_1</text><text class="j" transform="translate(89.63 499.88) scale(0.98 1)">col_2</text></g><rect class="ac" x="6.95" y="373.07" width="15.68" height="15.95" rx="2.72" ry="2.72"/><text class="ag" transform="translate(11.14 384.3) scale(0.98 1)">b</text><line class="h" x1="42.96" y1="442.2" x2="42.96" y2="453.22"/><text class="ah" transform="translate(26.73 385.03) scale(0.98 1)">:</text><text class="a" transform="translate(40.82 143.46) scale(0.98 1)">title: Super Fly Dataset<tspan x="0" y="7.55">length: 22345789</tspan><tspan x="0" y="15.11">keywords: foo,bar,baz</tspan><tspan x="0" y="22.66">category: climate science,</tspan></text><rect class="b" x="35.07" y="131.78" width="84.92" height="77.73"/><text class="am" transform="translate(45.65 178.6) scale(0.98 1)">Dataset</text><text class="k" transform="translate(93.2 203.44) scale(0.98 1)">data</text><text class="l" transform="translate(39.2 203.44) scale(0.98 1)">structure</text><text class="a" transform="translate(40.82 379.49) scale(0.98 1)">title: Super Fly Dataset<tspan x="0" y="7.55">length: 22345789</tspan><tspan x="0" y="15.11">keywords: foo,bar,baz</tspan><tspan x="0" y="22.66">category: climate science,</tspan></text><rect class="b" x="35.07" y="367.81" width="84.92" height="77.73"/><text class="am" transform="translate(45.65 414.64) scale(0.98 1)">Dataset</text><text class="k" transform="translate(93.2 439.47) scale(0.98 1)">data</text><text class="l" transform="translate(39.2 439.47) scale(0.98 1)">structure</text><line class="f" x1="113.54" y1="439.47" x2="113.54" y2="518.15"/><text class="an" transform="translate(0.5 10.96)">SELECT annual_precip.mm, nevada<tspan x="0" y="10.5">FROM annual_precip, average_temp </tspan><tspan x="0" y="21">WHERE annual_precip.date = average_temp.datem</tspan></text><polyline class="aj" points="264.93 87.4 8.7 87.4 8.7 40.67"/><text class="an" transform="translate(291.26 472.38)">SELECT a.col_4, b.col_2<tspan x="0" y="10.5">FROM a, b</tspan><tspan x="0" y="21">WHERE a.col_0 == b.col_0</tspan></text><text class="ao" transform="translate(292.8 404.32)"><tspan class="ap">st</tspan><tspan x="8.73" y="0">a</tspan><tspan class="aq" x="14.46" y="0">t</tspan><tspan x="18.29" y="0">ement</tspan></text><polyline class="ar" points="291.74 400.87 281.61 400.87 281.61 476.75 288.18 476.75"/></svg>