<svg xmlns="http://www.w3.org/2000/svg" viewBox="0 0 400 700"><defs><style>.cls-1{isolation:isolate;}.cls-2{fill:#253238;}.cls-3{fill:#b1d349;}.cls-4{fill:#50c9f5;}.cls-5{fill:#abcad6;}.cls-6{fill:#f9ad32;}.cls-7{fill:#231f20;opacity:0.2;mix-blend-mode:multiply;}.cls-8{fill:#fff;}</style></defs><title>Artboard 1 copy 2</title><g class="cls-1"><g id="Layer_1" data-name="Layer 1"><rect class="cls-2" x="5" y="5" width="390" height="690" rx="5" ry="5"/><rect class="cls-3" x="20" y="385" width="360" height="295" rx="5" ry="5"/><rect class="cls-4" x="20" y="255" width="360" height="120" rx="5" ry="5"/><rect class="cls-5" x="20" y="56" width="360" height="60" rx="5" ry="5"/><rect class="cls-6" x="20" y="125" width="360" height="120" rx="5" ry="5"/><path class="cls-7" d="M30,390.26H380a5,5,0,0,0-5-5H25a5,5,0,0,0-5,5V675.63a5,5,0,0,0,5,5V395.26A5,5,0,0,1,30,390.26Z"/><path class="cls-7" d="M30,260H380a5,5,0,0,0-5-5H25a5,5,0,0,0-5,5V370a5,5,0,0,0,5,5V265A5,5,0,0,1,30,260Z"/><path class="cls-7" d="M30,61.1H380a5,5,0,0,0-5-5H25a5,5,0,0,0-5,5v50a5,5,0,0,0,5,5v-50A5,5,0,0,1,30,61.1Z"/><path class="cls-7" d="M30,130H380a5,5,0,0,0-5-5H25a5,5,0,0,0-5,5V240a5,5,0,0,0,5,5V135A5,5,0,0,1,30,130Z"/><path class="cls-8" d="M21.56,22.35h4.25c4.53,0,7.54,2.38,7.54,7.75S30.34,38,26,38H21.56Zm4.06,12.79c2.44,0,4.1-1.29,4.1-5s-1.66-4.89-4.1-4.89h-.51v9.93Z"/><path class="cls-8" d="M43.71,30.34c-.12-1.08-.93-1.73-2.54-1.73a8.31,8.31,0,0,0-3.63,1.11L36.3,27.41a11.26,11.26,0,0,1,5.56-1.6c3.34,0,5.38,1.72,5.38,5.37V38H44.36l-.26-1.35H44a7.18,7.18,0,0,1-4.22,1.64,3.62,3.62,0,0,1-3.92-3.6C35.86,32,38.07,30.68,43.71,30.34ZM40.9,35.55a4.59,4.59,0,0,0,2.81-1.13v-2c-3.5.2-4.46.94-4.46,2C39.25,35.19,39.9,35.55,40.9,35.55Z"/><path class="cls-8" d="M53,28.85H50V26.24l3.16-.15.46-3.16h2.9v3.16h5v2.76h-5V33c0,1.8.77,2.5,2.5,2.5a7.16,7.16,0,0,0,2.38-.44L62,37.64a13.46,13.46,0,0,1-3.89.65c-3.79,0-5.13-2.12-5.13-5.24Z"/><path class="cls-8" d="M72.51,30.34c-.12-1.08-.93-1.73-2.54-1.73a8.31,8.31,0,0,0-3.63,1.11L65.1,27.41a11.26,11.26,0,0,1,5.56-1.6C74,25.81,76,27.53,76,31.18V38H73.16l-.26-1.35h-.1a7.18,7.18,0,0,1-4.22,1.64,3.62,3.62,0,0,1-3.92-3.6C64.66,32,66.87,30.68,72.51,30.34ZM69.7,35.55a4.59,4.59,0,0,0,2.81-1.13v-2c-3.5.2-4.46.94-4.46,2C68.05,35.19,68.7,35.55,69.7,35.55Z"/><path class="cls-8" d="M80.46,34.25a7.84,7.84,0,0,0,4.32,1.42c1.6,0,2.28-.38,2.28-1s-1.28-1.13-3.2-1.65c-2.08-.58-4.24-1.59-4.24-3.48,0-2.21,2.08-3.72,5.49-3.72a9.7,9.7,0,0,1,5.14,1.63l-1.59,2.11a6.78,6.78,0,0,0-3.48-1.13c-1.48,0-2.06.34-2.06.94s1.37,1.08,3,1.51c2.35.62,4.39,1.51,4.39,3.58s-2,3.84-5.86,3.84a11,11,0,0,1-5.83-1.83Z"/><path class="cls-8" d="M99.51,25.81c3.67,0,5.59,2.47,5.59,5.71a10.08,10.08,0,0,1-.14,1.56h-8c.24,1.77,1.71,2.52,3.46,2.52a6.57,6.57,0,0,0,3.07-.82l1.15,2.11a9.05,9.05,0,0,1-4.7,1.4c-3.7,0-6.6-2.31-6.6-6.24A6.09,6.09,0,0,1,99.51,25.81Zm2.4,4.94a2.07,2.07,0,0,0-2.33-2.26,2.61,2.61,0,0,0-2.68,2.26Z"/><path class="cls-8" d="M110.57,28.85h-3V26.24l3.17-.15.46-3.16h2.9v3.16h5v2.76h-5V33c0,1.8.77,2.5,2.5,2.5a7.16,7.16,0,0,0,2.38-.44l.62,2.55a13.46,13.46,0,0,1-3.89.65c-3.79,0-5.14-2.12-5.14-5.24Z"/><path class="cls-8" d="M38.78,70.06a6.67,6.67,0,0,1,4.64,2l-2,2.19a3.83,3.83,0,0,0-2.69-1.13c-2.2,0-3.84,1.9-3.84,5s1.64,5.09,4,5.09a3.7,3.7,0,0,0,2.78-1.39L43.66,84a6.33,6.33,0,0,1-4.95,2.31c-4,0-7.39-2.76-7.39-8S34.61,70.06,38.78,70.06Z"/><path class="cls-8" d="M51.6,73.81a6.24,6.24,0,1,1-6.07,6.24A6,6,0,0,1,51.6,73.81Zm0,9.62c1.63,0,2.45-1.32,2.45-3.38s-.82-3.39-2.45-3.39S49.15,78,49.15,80.05,50,83.43,51.6,83.43Z"/><path class="cls-8" d="M59.66,74.09H62.3l.27,1.49h.09a2.67,2.67,0,0,1,2.55-1.77,2.13,2.13,0,0,1,2.09,1.94,2.76,2.76,0,0,1,2.61-1.94c1.66,0,2.64,1.46,2.64,3.84V86H69.24V77.91c0-.74-.19-1.1-.67-1.1s-.79.38-1.11,1.15v8H64.75V77.91c0-.74-.24-1.1-.69-1.1S63.31,77.19,63,78v8H59.66Z"/><path class="cls-8" d="M74.06,74.09H76.7L77,75.58h.09a2.67,2.67,0,0,1,2.55-1.77,2.13,2.13,0,0,1,2.09,1.94,2.76,2.76,0,0,1,2.61-1.94C86,73.81,87,75.27,87,77.65V86H83.64V77.91c0-.74-.19-1.1-.67-1.1s-.79.38-1.11,1.15v8H79.15V77.91c0-.74-.24-1.1-.69-1.1s-.75.38-1.08,1.15v8H74.06Z"/><path class="cls-8" d="M89.5,74.09h8.3V86H94.27V76.85H89.5Zm4-3.88a2.35,2.35,0,0,1,4.7,0,2.36,2.36,0,0,1-4.7,0Z"/><path class="cls-8" d="M106.18,76.85h-3V74.24l3.16-.15.46-3.16h2.9v3.16h5v2.76h-5V81c0,1.8.77,2.5,2.5,2.5a7.16,7.16,0,0,0,2.38-.44l.62,2.55a13.46,13.46,0,0,1-3.89.65c-3.79,0-5.13-2.12-5.13-5.24Z"/><path class="cls-8" d="M34.56,139.35h3.53l1.58,5.54.53,2.16h.07l.53-2.16,1.51-5.54h3.53V155H43v-5.11c0-1.71.29-5.4.46-7.08h-.07l-1.22,4.29-1.21,3.72H39.38l-1.2-3.72L37,142.81h-.1c.17,1.68.46,5.37.46,7.08V155H34.56Z"/><path class="cls-8" d="M54.91,142.81c3.67,0,5.59,2.47,5.59,5.71a10.08,10.08,0,0,1-.14,1.56h-8c.24,1.77,1.71,2.52,3.46,2.52a6.57,6.57,0,0,0,3.07-.82L60,153.89a9.05,9.05,0,0,1-4.7,1.4c-3.7,0-6.6-2.31-6.6-6.24A6.09,6.09,0,0,1,54.91,142.81Zm2.4,4.94A2.07,2.07,0,0,0,55,145.49a2.61,2.61,0,0,0-2.68,2.26Z"/><path class="cls-8" d="M66,145.85H63v-2.61l3.16-.15.46-3.16h2.9v3.16h5v2.76h-5V150c0,1.8.77,2.5,2.5,2.5a7.16,7.16,0,0,0,2.38-.44l.62,2.55a13.46,13.46,0,0,1-3.89.65c-3.79,0-5.13-2.12-5.13-5.24Z"/><path class="cls-8" d="M85.51,147.34c-.12-1.08-.93-1.73-2.54-1.73a8.31,8.31,0,0,0-3.63,1.11l-1.24-2.31a11.26,11.26,0,0,1,5.56-1.6c3.34,0,5.38,1.72,5.38,5.37V155H86.16l-.26-1.35h-.1a7.18,7.18,0,0,1-4.22,1.64,3.62,3.62,0,0,1-3.92-3.6C77.66,149,79.87,147.68,85.51,147.34Zm-2.81,5.21a4.59,4.59,0,0,0,2.81-1.13v-2c-3.5.2-4.46.94-4.46,2C81.05,152.19,81.7,152.55,82.7,152.55Z"/><path class="cls-8" d="M36.24,280.61a6.67,6.67,0,0,0,4,1.63c1.63,0,2.35-.58,2.35-1.51s-.91-1.3-2.42-1.88l-2-.86a4.56,4.56,0,0,1-3.34-4.27c0-2.59,2.36-4.66,5.74-4.66a7.58,7.58,0,0,1,5.21,2.07L44,273.36a5.45,5.45,0,0,0-3.41-1.25c-1.37,0-2.16.53-2.16,1.42s1.06,1.29,2.57,1.84l1.89.82c2.07.77,3.37,2,3.37,4.25,0,2.59-2.19,4.85-6.08,4.85A9,9,0,0,1,34.2,283Z"/><path class="cls-8" d="M51.58,275.85h-3v-2.61l3.16-.15.46-3.16h2.9v3.16h5v2.76h-5V280c0,1.8.77,2.5,2.5,2.5a7.16,7.16,0,0,0,2.38-.44l.62,2.55a13.46,13.46,0,0,1-3.89.65c-3.79,0-5.13-2.12-5.13-5.24Z"/><path class="cls-8" d="M64.58,273.09h2.88l.29,2.6h.07a5.53,5.53,0,0,1,4.83-2.88,4.76,4.76,0,0,1,2.3.48l-.72,2.95a6.35,6.35,0,0,0-2.11-.34,4.41,4.41,0,0,0-4,2.91V285H64.58Z"/><path class="cls-8" d="M88.8,285H85.92l-.26-1.71h-.1a5.16,5.16,0,0,1-4,2c-2.71,0-3.86-1.85-3.86-4.85v-7.35h3.53V280c0,1.59.4,2.31,1.72,2.31a2.72,2.72,0,0,0,2.33-1.37v-7.83H88.8Z"/><path class="cls-8" d="M99.1,272.81a6.6,6.6,0,0,1,4.46,1.6l-1.63,2.19a4.42,4.42,0,0,0-2.64-.94,3.24,3.24,0,0,0-3.46,3.39,3.18,3.18,0,0,0,3.34,3.38,5.4,5.4,0,0,0,3.14-1.13l1.44,2.23a7.84,7.84,0,0,1-4.92,1.76c-3.74,0-6.62-2.28-6.62-6.24S95.42,272.81,99.1,272.81Z"/><path class="cls-8" d="M109.18,275.85h-3v-2.61l3.16-.15.46-3.16h2.9v3.16h5v2.76h-5V280c0,1.8.77,2.5,2.5,2.5a7.16,7.16,0,0,0,2.38-.44l.62,2.55a13.46,13.46,0,0,1-3.89.65c-3.79,0-5.13-2.12-5.13-5.24Z"/><path class="cls-8" d="M132,285h-2.88l-.26-1.71h-.1a5.16,5.16,0,0,1-4,2c-2.71,0-3.86-1.85-3.86-4.85v-7.35h3.53V280c0,1.59.4,2.31,1.72,2.31a2.72,2.72,0,0,0,2.33-1.37v-7.83H132Z"/><path class="cls-8" d="M136.58,273.09h2.88l.29,2.6h.07a5.53,5.53,0,0,1,4.83-2.88,4.79,4.79,0,0,1,2.3.48l-.72,2.95a6.35,6.35,0,0,0-2.11-.34,4.41,4.41,0,0,0-4,2.91V285h-3.53Z"/><path class="cls-8" d="M155.71,272.81c3.67,0,5.59,2.47,5.59,5.71a10.08,10.08,0,0,1-.14,1.56h-8c.24,1.77,1.71,2.52,3.46,2.52a6.57,6.57,0,0,0,3.07-.82l1.15,2.11a9.05,9.05,0,0,1-4.7,1.4c-3.7,0-6.6-2.31-6.6-6.24A6.09,6.09,0,0,1,155.71,272.81Zm2.4,4.94a2.07,2.07,0,0,0-2.33-2.26,2.63,2.63,0,0,0-2.69,2.26Z"/><path class="cls-8" d="M34.56,399.35h4.25c4.53,0,7.54,2.38,7.54,7.75s-3,7.9-7.35,7.9H34.56Zm4.06,12.79c2.44,0,4.1-1.29,4.1-5s-1.66-4.89-4.1-4.89h-.51v9.93Z"/><path class="cls-8" d="M56.71,407.34c-.12-1.08-.93-1.73-2.54-1.73a8.31,8.31,0,0,0-3.63,1.11l-1.24-2.31a11.26,11.26,0,0,1,5.56-1.6c3.34,0,5.38,1.72,5.38,5.37V415H57.36l-.26-1.34H57a7.23,7.23,0,0,1-4.22,1.63,3.62,3.62,0,0,1-3.92-3.6C48.86,409,51.07,407.68,56.71,407.34Zm-2.81,5.21a4.59,4.59,0,0,0,2.81-1.13v-2c-3.5.19-4.46.93-4.46,2C52.25,412.19,52.9,412.55,53.9,412.55Z"/><path class="cls-8" d="M66,405.85H63v-2.61l3.16-.15.46-3.16h2.9v3.16h5v2.76h-5V410c0,1.8.77,2.5,2.5,2.5a7.16,7.16,0,0,0,2.38-.44l.62,2.55a13.46,13.46,0,0,1-3.89.65c-3.79,0-5.13-2.12-5.13-5.24Z"/><path class="cls-8" d="M85.51,407.34c-.12-1.08-.93-1.73-2.54-1.73a8.31,8.31,0,0,0-3.63,1.11l-1.24-2.31a11.26,11.26,0,0,1,5.56-1.6c3.34,0,5.38,1.72,5.38,5.37V415H86.16l-.26-1.34h-.1a7.23,7.23,0,0,1-4.22,1.63,3.62,3.62,0,0,1-3.92-3.6C77.66,409,79.87,407.68,85.51,407.34Zm-2.81,5.21a4.59,4.59,0,0,0,2.81-1.13v-2c-3.5.19-4.46.93-4.46,2C81.05,412.19,81.7,412.55,82.7,412.55Z"/></g></g></svg>