<svg xmlns="http://www.w3.org/2000/svg" viewBox="0 0 300 250"><defs><style>.cls-1{fill:none;stroke:#e7e7e7;stroke-linecap:round;stroke-width:1.55px;stroke-dasharray:2 4;}.cls-1,.cls-8{stroke-linejoin:round;}.cls-2{opacity:0.05;}.cls-3,.cls-8{fill:#e6e6e6;}.cls-4{fill:#4fc7f3;}.cls-5{opacity:0.1;}.cls-6{fill:#ec325a;}.cls-7{fill:#f8ab31;}.cls-8{stroke:#e6e6e6;}</style></defs><g id="Layer_1" data-name="Layer 1"><polyline class="cls-1" points="168.51 177.61 160.88 181.9 82.83 136.47 39.36 162.08 1.81 139.38 16.77 130.91"/><polyline class="cls-1" points="173.19 63.75 167.7 66.49 195.33 83.25"/><polyline class="cls-1" points="208.2 83.25 201.58 87.22 194.67 82.96 188.61 86.37"/><polyline class="cls-1" points="42.26 130.16 50.34 134.95 157.98 73.25 127.6 55.07 184.86 24.16 213.38 40.81 191.89 53.37"/><polyline class="cls-1" points="165.8 96.94 266.31 153.25 216.09 182.18"/><polyline class="cls-1" points="173.19 92.33 165.3 97.09 88.57 52.04 78.41 57.48 87.09 62.36"/><polyline class="cls-1" points="162.14 182.4 208.33 209.66 299.14 154.65 231.04 116.91 287.33 84.1 240.13 56.46 215.1 72.48"/><path class="cls-2" d="M225.6,92.44l5-2.9a.72.72,0,0,0,0-1.25l-10.08-5.75Z"/><path class="cls-3" d="M224.24,92.42l-19.8-13.15a2.37,2.37,0,0,1-1.15-1.81L202,49.69c-.07-1.3,1.84-1.78,2.47-1.42L225.6,60.49a2.37,2.37,0,0,1,1.15,1.81V91A1.79,1.79,0,0,1,224.24,92.42Z"/><path class="cls-4" d="M224.17,92.36,203,80.15a2.41,2.41,0,0,1-1.15-1.81V49.63c0-.63.52-.85,1.15-.49l21.16,12.22a2.39,2.39,0,0,1,1.14,1.81V91.88C225.31,92.51,224.8,92.73,224.17,92.36Z"/><g class="cls-5"><path d="M208.64,67.81,203.73,65a1.12,1.12,0,0,1-.55-.85v-1c0-.3.25-.41.55-.23l4.91,2.83a1.14,1.14,0,0,1,.54.86v1C209.18,67.88,208.94,68,208.64,67.81Z"/></g><g class="cls-5"><path d="M208.68,56.65l-5-2.89a1,1,0,0,1-.5-.78v-.71c0-.27.22-.37.5-.21l5,2.89a1,1,0,0,1,.5.78v.71C209.18,56.72,209,56.81,208.68,56.65Z"/></g><g class="cls-5"><path d="M223.45,69.11,203.68,57.7a1.05,1.05,0,0,1-.5-.79V56.2c0-.28.23-.37.5-.21L223.45,67.4a1,1,0,0,1,.5.79v.71C224,69.18,223.73,69.27,223.45,69.11Z"/></g><g class="cls-5"><path d="M223.45,72.36,203.68,61a1.05,1.05,0,0,1-.5-.79v-.71c0-.28.23-.37.5-.21l19.77,11.41a1,1,0,0,1,.5.78v.72C224,72.42,223.73,72.52,223.45,72.36Z"/></g><g class="cls-5"><path d="M208.64,71.06l-4.91-2.84a1.14,1.14,0,0,1-.55-.86v-1c0-.3.25-.4.55-.23L208.64,69a1.12,1.12,0,0,1,.54.86v1C209.18,71.13,208.94,71.23,208.64,71.06Z"/></g><g class="cls-5"><path d="M208.64,74.3l-4.91-2.83a1.15,1.15,0,0,1-.55-.86v-1c0-.3.25-.4.55-.23l4.91,2.84a1.11,1.11,0,0,1,.54.85v.95C209.18,74.37,208.94,74.48,208.64,74.3Z"/></g><g class="cls-5"><path d="M208.64,77.55l-4.91-2.84a1.12,1.12,0,0,1-.55-.85v-1c0-.3.25-.4.55-.23l4.91,2.84a1.11,1.11,0,0,1,.54.85v.95C209.18,77.62,208.94,77.72,208.64,77.55Z"/></g><g class="cls-5"><path d="M208.64,80.8,203.73,78a1.12,1.12,0,0,1-.55-.85v-1c0-.3.25-.41.55-.23l4.91,2.83a1.14,1.14,0,0,1,.54.86v.95C209.18,80.87,208.94,81,208.64,80.8Z"/></g><g class="cls-5"><path d="M216,72.07l-4.91-2.84a1.12,1.12,0,0,1-.55-.85v-.95c0-.3.25-.4.55-.23L216,70a1.14,1.14,0,0,1,.54.86v1C216.56,72.14,216.32,72.24,216,72.07Z"/></g><g class="cls-5"><path d="M216,75.32l-4.91-2.84a1.12,1.12,0,0,1-.55-.85v-.95c0-.3.25-.41.55-.23L216,73.28a1.14,1.14,0,0,1,.54.86v1C216.56,75.39,216.32,75.49,216,75.32Z"/></g><g class="cls-5"><path d="M216,78.56l-4.91-2.83a1.14,1.14,0,0,1-.55-.86v-1c0-.3.25-.4.55-.23L216,76.53a1.12,1.12,0,0,1,.54.86v1C216.56,78.63,216.32,78.74,216,78.56Z"/></g><g class="cls-5"><path d="M216,81.81,211.11,79a1.15,1.15,0,0,1-.55-.86v-1c0-.3.25-.4.55-.23L216,79.78a1.11,1.11,0,0,1,.54.85v1C216.56,81.88,216.32,82,216,81.81Z"/></g><g class="cls-5"><path d="M223.41,76.34l-4.92-2.84a1.15,1.15,0,0,1-.54-.86v-1c0-.3.25-.4.54-.23l4.92,2.84a1.12,1.12,0,0,1,.54.86v1C224,76.41,223.71,76.51,223.41,76.34Z"/></g><g class="cls-5"><path d="M223.41,79.58l-4.92-2.83a1.17,1.17,0,0,1-.54-.86v-1c0-.3.25-.4.54-.23l4.92,2.84a1.11,1.11,0,0,1,.54.85v.95C224,79.65,223.71,79.76,223.41,79.58Z"/></g><g class="cls-5"><path d="M223.41,82.83,218.49,80a1.13,1.13,0,0,1-.54-.85v-1c0-.3.25-.4.54-.23l4.92,2.84a1.11,1.11,0,0,1,.54.85v.95C224,82.9,223.71,83,223.41,82.83Z"/></g><g class="cls-5"><path d="M223.41,86.08l-4.92-2.84a1.13,1.13,0,0,1-.54-.85v-1c0-.3.25-.41.54-.23L223.41,84a1.14,1.14,0,0,1,.54.86v.95C224,86.15,223.71,86.25,223.41,86.08Z"/></g><path class="cls-2" d="M186.82,71l5-2.9a.72.72,0,0,0,0-1.25l-10.08-5.75Z"/><path class="cls-3" d="M185.45,71,165.66,57.85A2.38,2.38,0,0,1,164.51,56l-1.17-27.73c-.06-1.29,1.68-1.83,2.32-1.46l21.15,12.21A2.38,2.38,0,0,1,188,40.87V69.58A1.79,1.79,0,0,1,185.45,71Z"/><path class="cls-6" d="M185.61,71,164.45,58.74a2.36,2.36,0,0,1-1.14-1.81V28.23c0-.64.51-.85,1.14-.49L185.61,40a2.37,2.37,0,0,1,1.15,1.81v28.7C186.76,71.11,186.24,71.32,185.61,71Z"/><g class="cls-5"><path d="M170.08,46.41l-4.91-2.84a1.12,1.12,0,0,1-.54-.86v-1c0-.3.24-.4.54-.23l4.91,2.84a1.12,1.12,0,0,1,.54.86v1C170.62,46.48,170.38,46.58,170.08,46.41Z"/></g><g class="cls-5"><path d="M170.13,35.25l-5-2.89a1,1,0,0,1-.49-.78v-.71c0-.28.22-.37.49-.21l5,2.89a1,1,0,0,1,.49.78V35C170.62,35.31,170.4,35.41,170.13,35.25Z"/></g><g class="cls-5"><path d="M184.89,47.71,165.12,36.29a1,1,0,0,1-.49-.78v-.72c0-.27.22-.36.49-.21L184.89,46a1,1,0,0,1,.5.78v.72C185.39,47.77,185.17,47.87,184.89,47.71Z"/></g><g class="cls-5"><path d="M184.89,51,165.12,39.54a1,1,0,0,1-.49-.78V38c0-.27.22-.37.49-.21l19.77,11.42a1,1,0,0,1,.5.78v.72C185.39,51,185.17,51.12,184.89,51Z"/></g><g class="cls-5"><path d="M170.08,49.65l-4.91-2.83a1.14,1.14,0,0,1-.54-.86V45c0-.3.24-.4.54-.23l4.91,2.84a1.11,1.11,0,0,1,.54.85v1C170.62,49.72,170.38,49.83,170.08,49.65Z"/></g><g class="cls-5"><path d="M170.08,52.9l-4.91-2.84a1.11,1.11,0,0,1-.54-.85v-1c0-.3.24-.4.54-.23l4.91,2.84a1.11,1.11,0,0,1,.54.85v1C170.62,53,170.38,53.07,170.08,52.9Z"/></g><g class="cls-5"><path d="M170.08,56.15l-4.91-2.84a1.11,1.11,0,0,1-.54-.85v-1c0-.3.24-.41.54-.23l4.91,2.83a1.14,1.14,0,0,1,.54.86v1C170.62,56.22,170.38,56.32,170.08,56.15Z"/></g><g class="cls-5"><path d="M177.46,50.67l-4.91-2.84A1.12,1.12,0,0,1,172,47V46c0-.29.24-.4.54-.22l4.91,2.83a1.12,1.12,0,0,1,.54.86v.95C178,50.74,177.76,50.84,177.46,50.67Z"/></g><g class="cls-5"><path d="M177.46,53.91l-4.91-2.83a1.14,1.14,0,0,1-.54-.86v-.95c0-.3.24-.4.54-.23l4.91,2.84a1.12,1.12,0,0,1,.54.85v1C178,54,177.76,54.09,177.46,53.91Z"/></g><g class="cls-5"><path d="M184.85,54.93l-4.91-2.83a1.14,1.14,0,0,1-.54-.86v-1c0-.3.24-.4.54-.23l4.91,2.84a1.11,1.11,0,0,1,.54.85v1C185.39,55,185.15,55.11,184.85,54.93Z"/></g><g class="cls-5"><path d="M184.85,58.18l-4.91-2.84a1.11,1.11,0,0,1-.54-.85v-1c0-.3.24-.4.54-.23l4.91,2.84a1.11,1.11,0,0,1,.54.85v1C185.39,58.25,185.15,58.35,184.85,58.18Z"/></g><ellipse class="cls-2" cx="230.24" cy="104.64" rx="18.85" ry="7.25"/><circle class="cls-7" cx="229.27" cy="78.12" r="21.83"/><path d="M234.45,76.27a1.85,1.85,0,0,1-1.85-1.85V69.61a1.85,1.85,0,0,1,3.7,0v4.81A1.85,1.85,0,0,1,234.45,76.27Z"/><path d="M219.28,76.27a1.85,1.85,0,0,1-1.85-1.85V69.61a1.85,1.85,0,1,1,3.7,0v4.81A1.85,1.85,0,0,1,219.28,76.27Z"/><circle class="cls-7" cx="243.7" cy="93.29" r="7.4"/><circle class="cls-7" cx="212.24" cy="101.06" r="5.18"/><path class="cls-7" d="M241.17,100.26a20.1,20.1,0,0,0-8.39-.68l17.4-15.35a8.93,8.93,0,0,0,.61,7C251.47,94,245.3,101.31,241.17,100.26Z"/><path class="cls-7" d="M221.62,98.6c-3.17-.46-4,1.11-4.44,4s-10.61-4-8-5.74,2.65-4,1.91-6.54S225.07,99.09,221.62,98.6Z"/><ellipse class="cls-2" cx="116.1" cy="191.15" rx="18.85" ry="7.25"/><path class="cls-4" d="M134.57,178.29a21.84,21.84,0,1,1-24.83-30.18l0,0c2.24-1.33,3.72-2.89,3.15-5.76a5.18,5.18,0,1,1,9.78.72l0,0a5.47,5.47,0,0,1-.69,1.16c-1.11,1.95-1.18,3.42,1.08,5l.06.05a21.84,21.84,0,0,1,6.45,4.2,22.12,22.12,0,0,1,3.13,3.68,21.52,21.52,0,0,0,5.75,4.25l.11.06a7.3,7.3,0,0,1,2,1.36,7.4,7.4,0,0,1-2.74,12.42A9.17,9.17,0,0,0,134.57,178.29Z"/><path d="M110.67,166.29a1.85,1.85,0,0,0,1.85-1.85v-4.81a1.85,1.85,0,1,0-3.7,0v4.81A1.85,1.85,0,0,0,110.67,166.29Z"/><path d="M125.85,166.29a1.85,1.85,0,0,0,1.85-1.85v-4.81a1.85,1.85,0,0,0-3.7,0v4.81A1.85,1.85,0,0,0,125.85,166.29Z"/><ellipse class="cls-2" cx="52.02" cy="107.9" rx="18.85" ry="7.25"/><path class="cls-6" d="M74.58,95.7l0,0a5,5,0,0,0-1.26-.5c-2.07-.86-3-2-2.2-4.61,0,0,0,0,0-.07a22,22,0,0,0,2.75-12.1,21.33,21.33,0,0,1,1.94-6.88.56.56,0,0,0,0-.12,7.17,7.17,0,0,0,.78-2.31A7.41,7.41,0,0,0,66.82,61a9.33,9.33,0,0,1-4.48-.39,21.83,21.83,0,1,0-1.13,39.07h.06c2.59-.31,4.72,0,6,2.63a5.18,5.18,0,1,0,7.29-6.56Z"/><path d="M64.2,84.75a1.85,1.85,0,0,1-1.85-1.85V78.09a1.85,1.85,0,1,1,3.7,0V82.9A1.85,1.85,0,0,1,64.2,84.75Z"/><path d="M49,84.75a1.85,1.85,0,0,1-1.85-1.85V78.09a1.85,1.85,0,0,1,3.7,0V82.9A1.85,1.85,0,0,1,49,84.75Z"/><g class="cls-5"><path d="M76.68,98c-1.23,3.4-4.92,2.27-6.91,1.32s-4.16-2.17-10.13-1-15.42-.44-21.51-7.54S31.91,72.3,32.39,70.31l.08-.17A21.83,21.83,0,0,0,61.21,99.63h.06c2.59-.31,4.72,0,6,2.63a5.18,5.18,0,1,0,9.52-4.1Z"/></g><path class="cls-2" d="M7.84,124.92l-5-2.9a.72.72,0,0,1,0-1.25L13,115Z"/><path class="cls-3" d="M29,111.91l-19.91,13c-.64.36-2.39,0-2.39-1.29V94.94a2.36,2.36,0,0,1,1.14-1.81L29,80.91a1.68,1.68,0,0,1,2.45,1l-1.3,28.14A2.35,2.35,0,0,1,29,111.91Z"/><path class="cls-6" d="M30.32,112.6,9.17,124.81c-.64.37-1.15.15-1.15-.48V95.62a2.38,2.38,0,0,1,1.15-1.81L30.32,81.6c.64-.37,1.15-.15,1.15.48v28.71A2.38,2.38,0,0,1,30.32,112.6Z"/><g class="cls-5"><path d="M14.84,94.77l-5,2.89c-.27.16-.49.06-.49-.21v-.71A1,1,0,0,1,9.83,96l5-2.89c.27-.16.5-.07.5.21V94A1.05,1.05,0,0,1,14.84,94.77Z"/></g><g class="cls-5"><path d="M29.61,90.18,9.84,101.59c-.28.16-.5.07-.5-.21v-.71a1,1,0,0,1,.5-.79L29.61,88.47c.27-.16.49-.07.49.21v.71A1,1,0,0,1,29.61,90.18Z"/></g><g class="cls-5"><path d="M29.61,93.42,9.84,104.84c-.28.16-.5.06-.5-.21v-.72a1,1,0,0,1,.5-.78L29.61,91.71c.27-.15.49-.06.49.21v.72A1,1,0,0,1,29.61,93.42Z"/></g><path class="cls-2" d="M17.51,130.63l-5-2.91a.72.72,0,0,1,0-1.25l10.08-5.75Z"/><path class="cls-3" d="M38.76,117.67l-19.91,12.9c-.63.36-2.4.08-2.4-1.17V100.69a2.41,2.41,0,0,1,1.15-1.81L38.76,86.67a1.68,1.68,0,0,1,2.45,1L39.9,115.86A2.39,2.39,0,0,1,38.76,117.67Z"/><path class="cls-6" d="M40.05,118.3,18.89,130.52c-.63.37-1.14.15-1.14-.49v-28.7a2.36,2.36,0,0,1,1.14-1.81L40.05,87.3c.64-.36,1.15-.15,1.15.49v28.7A2.35,2.35,0,0,1,40.05,118.3Z"/><g class="cls-5"><path d="M24.52,111.68l-4.91,2.84c-.3.17-.54.07-.54-.23v-1a1.14,1.14,0,0,1,.54-.86l4.91-2.83c.3-.17.54-.07.54.23v1A1.11,1.11,0,0,1,24.52,111.68Z"/></g><g class="cls-5"><path d="M24.57,100.47l-5,2.89c-.27.16-.49.07-.49-.21v-.71a1,1,0,0,1,.49-.78l5-2.89c.27-.16.49-.06.49.21v.71A1,1,0,0,1,24.57,100.47Z"/></g><g class="cls-5"><path d="M39.34,95.88,19.56,107.3c-.27.15-.49.06-.49-.21v-.72a1,1,0,0,1,.49-.78L39.34,94.17c.27-.16.49-.06.49.21v.72A1,1,0,0,1,39.34,95.88Z"/></g><g class="cls-5"><path d="M39.34,99.13,19.56,110.54c-.27.16-.49.07-.49-.21v-.71a1,1,0,0,1,.49-.79L39.34,97.42c.27-.16.49-.06.49.21v.72A1,1,0,0,1,39.34,99.13Z"/></g><g class="cls-5"><path d="M24.52,114.93l-4.91,2.84c-.3.17-.54.07-.54-.23v-1a1.12,1.12,0,0,1,.54-.86l4.91-2.83c.3-.18.54-.07.54.22v1A1.12,1.12,0,0,1,24.52,114.93Z"/></g><g class="cls-5"><path d="M24.52,118.18,19.61,121c-.3.18-.54.07-.54-.22v-1a1.12,1.12,0,0,1,.54-.85l4.91-2.84c.3-.17.54-.07.54.23v.95A1.12,1.12,0,0,1,24.52,118.18Z"/></g><g class="cls-5"><path d="M24.52,121.43l-4.91,2.83c-.3.17-.54.07-.54-.23v-1a1.11,1.11,0,0,1,.54-.85l4.91-2.84c.3-.17.54-.07.54.23v.95A1.14,1.14,0,0,1,24.52,121.43Z"/></g><g class="cls-5"><path d="M31.9,107.42,27,110.26c-.3.17-.54.07-.54-.23v-1a1.14,1.14,0,0,1,.54-.86l4.91-2.83c.3-.18.54-.07.54.23v.95A1.11,1.11,0,0,1,31.9,107.42Z"/></g><g class="cls-5"><path d="M31.9,110.67,27,113.51c-.3.17-.54.07-.54-.23v-1a1.12,1.12,0,0,1,.54-.86l4.91-2.84c.3-.17.54-.07.54.23v1A1.12,1.12,0,0,1,31.9,110.67Z"/></g><g class="cls-5"><path d="M39.29,103.16,34.38,106c-.3.17-.54.07-.54-.23v-1a1.11,1.11,0,0,1,.54-.85l4.91-2.84c.3-.17.54-.07.54.23v1A1.14,1.14,0,0,1,39.29,103.16Z"/></g><g class="cls-5"><path d="M39.29,106.4l-4.91,2.84c-.3.17-.54.07-.54-.23v-1a1.14,1.14,0,0,1,.54-.86l4.91-2.83c.3-.17.54-.07.54.23v1A1.11,1.11,0,0,1,39.29,106.4Z"/></g><path class="cls-2" d="M29.26,137.22l-5-2.9a.72.72,0,0,1,0-1.25l10.08-5.75Z"/><path class="cls-3" d="M49.84,124.15l-19.91,13c-.64.37-2.39,0-2.39-1.28V107.17a2.39,2.39,0,0,1,1.14-1.81L49.84,93.15a1.68,1.68,0,0,1,2.45,1L51,122.34A2.41,2.41,0,0,1,49.84,124.15Z"/><path class="cls-6" d="M51.17,124.91,30,137.12c-.64.37-1.15.15-1.15-.48V107.93A2.38,2.38,0,0,1,30,106.12L51.17,93.9c.63-.36,1.14-.14,1.14.49V123.1A2.39,2.39,0,0,1,51.17,124.91Z"/><g class="cls-5"><path d="M35.64,118.29l-4.92,2.83c-.3.17-.54.07-.54-.23v-1a1.11,1.11,0,0,1,.54-.85l4.92-2.84c.29-.17.54-.07.54.23v1A1.17,1.17,0,0,1,35.64,118.29Z"/></g><g class="cls-5"><path d="M35.68,107.08l-5,2.89c-.28.15-.5.06-.5-.21v-.71a1,1,0,0,1,.5-.79l5-2.88c.28-.16.5-.07.5.2v.71A1,1,0,0,1,35.68,107.08Z"/></g><g class="cls-5"><path d="M50.45,102.48,30.68,113.9c-.28.16-.5.06-.5-.21V113a1,1,0,0,1,.5-.78l19.77-11.42c.27-.15.5-.06.5.21v.72A1,1,0,0,1,50.45,102.48Z"/></g><g class="cls-5"><path d="M50.45,105.73,30.68,117.15c-.28.16-.5.06-.5-.21v-.72a1,1,0,0,1,.5-.78L50.45,104c.27-.16.5-.06.5.21V105A1.05,1.05,0,0,1,50.45,105.73Z"/></g><g class="cls-5"><path d="M35.64,121.53l-4.92,2.84c-.3.17-.54.07-.54-.23v-1a1.14,1.14,0,0,1,.54-.86l4.92-2.83c.29-.17.54-.07.54.23v1A1.13,1.13,0,0,1,35.64,121.53Z"/></g><g class="cls-5"><path d="M35.64,124.78l-4.92,2.84c-.3.17-.54.07-.54-.23v-1a1.14,1.14,0,0,1,.54-.86l4.92-2.83c.29-.18.54-.07.54.23v1A1.15,1.15,0,0,1,35.64,124.78Z"/></g><g class="cls-5"><path d="M35.64,128l-4.92,2.83c-.3.18-.54.07-.54-.22v-1a1.12,1.12,0,0,1,.54-.85L35.64,126c.29-.17.54-.07.54.23v1A1.15,1.15,0,0,1,35.64,128Z"/></g><g class="cls-5"><path d="M35.64,131.28l-4.92,2.83c-.3.17-.54.07-.54-.23v-.95a1.11,1.11,0,0,1,.54-.85l4.92-2.84c.29-.17.54-.07.54.23v.95A1.17,1.17,0,0,1,35.64,131.28Z"/></g><g class="cls-5"><path d="M43,114l-4.92,2.84c-.3.17-.54.07-.54-.23v-.95a1.11,1.11,0,0,1,.54-.85L43,112c.3-.17.54-.07.54.23v1A1.11,1.11,0,0,1,43,114Z"/></g><g class="cls-5"><path d="M43,117.27l-4.92,2.84c-.3.17-.54.07-.54-.23v-.95a1.14,1.14,0,0,1,.54-.86L43,115.24c.3-.18.54-.07.54.23v1A1.11,1.11,0,0,1,43,117.27Z"/></g><g class="cls-5"><path d="M43,120.52l-4.92,2.84c-.3.17-.54.07-.54-.23v-.95a1.12,1.12,0,0,1,.54-.86L43,118.48c.3-.17.54-.07.54.23v1A1.12,1.12,0,0,1,43,120.52Z"/></g><g class="cls-5"><path d="M43,123.77,38.1,126.6c-.3.18-.54.07-.54-.23v-1a1.11,1.11,0,0,1,.54-.85L43,121.73c.3-.17.54-.07.54.23v1A1.14,1.14,0,0,1,43,123.77Z"/></g><g class="cls-5"><path d="M50.4,109.76l-4.91,2.83c-.3.18-.54.07-.54-.22v-1a1.12,1.12,0,0,1,.54-.85l4.91-2.84c.3-.17.55-.07.55.23v1A1.14,1.14,0,0,1,50.4,109.76Z"/></g><g class="cls-5"><path d="M50.4,113l-4.91,2.83c-.3.17-.54.07-.54-.23v-1a1.11,1.11,0,0,1,.54-.85L50.4,111c.3-.17.55-.07.55.23v1A1.15,1.15,0,0,1,50.4,113Z"/></g><g class="cls-5"><path d="M50.4,116.25l-4.91,2.84c-.3.17-.54.07-.54-.23v-1a1.11,1.11,0,0,1,.54-.85l4.91-2.84c.3-.17.55-.07.55.23v1A1.12,1.12,0,0,1,50.4,116.25Z"/></g><g class="cls-5"><path d="M50.4,119.5l-4.91,2.84c-.3.17-.54.07-.54-.23v-1a1.14,1.14,0,0,1,.54-.86l4.91-2.83c.3-.18.55-.07.55.23v1A1.12,1.12,0,0,1,50.4,119.5Z"/></g><path class="cls-2" d="M191.8,176l5-2.9a.72.72,0,0,0,0-1.25l-10.08-5.75Z"/><path class="cls-3" d="M190.54,176l-19.79-13.15a2.35,2.35,0,0,1-1.15-1.81l-1.33-27.78c-.06-1.29,1.84-1.78,2.48-1.41l21.15,12.21a2.38,2.38,0,0,1,1.15,1.81V174.6A1.8,1.8,0,0,1,190.54,176Z"/><path class="cls-4" d="M190.68,175.82l-21.16-12.21a2.39,2.39,0,0,1-1.14-1.81V133.09c0-.63.51-.85,1.14-.48l21.16,12.21a2.38,2.38,0,0,1,1.15,1.81v28.71C191.83,176,191.32,176.19,190.68,175.82Z"/><g class="cls-5"><path d="M175.15,151.27l-4.91-2.84a1.11,1.11,0,0,1-.54-.85v-1c0-.3.24-.4.54-.23l4.91,2.84a1.11,1.11,0,0,1,.54.85V151C175.69,151.34,175.45,151.44,175.15,151.27Z"/></g><g class="cls-5"><path d="M175.2,140.12l-5-2.89a1,1,0,0,1-.49-.79v-.71c0-.27.22-.36.49-.21l5,2.89a1,1,0,0,1,.49.79v.71C175.69,140.18,175.47,140.27,175.2,140.12Z"/></g><g class="cls-5"><path d="M190,152.57l-19.78-11.41a1,1,0,0,1-.49-.78v-.72c0-.27.22-.37.49-.21L190,150.87a1,1,0,0,1,.49.78v.71C190.46,152.64,190.24,152.73,190,152.57Z"/></g><g class="cls-5"><path d="M190,155.82l-19.78-11.41a1,1,0,0,1-.49-.79v-.71c0-.28.22-.37.49-.21L190,154.11a1,1,0,0,1,.49.79v.71C190.46,155.89,190.24,156,190,155.82Z"/></g><g class="cls-5"><path d="M175.15,154.52l-4.91-2.84a1.11,1.11,0,0,1-.54-.85v-1c0-.3.24-.41.54-.23l4.91,2.83a1.14,1.14,0,0,1,.54.86v.95C175.69,154.59,175.45,154.69,175.15,154.52Z"/></g><g class="cls-5"><path d="M175.15,157.77l-4.91-2.84a1.12,1.12,0,0,1-.54-.86v-.95c0-.29.24-.4.54-.22l4.91,2.83a1.12,1.12,0,0,1,.54.86v.95C175.69,157.84,175.45,157.94,175.15,157.77Z"/></g><g class="cls-5"><path d="M175.15,161l-4.91-2.83a1.14,1.14,0,0,1-.54-.86v-.95c0-.3.24-.4.54-.23l4.91,2.84a1.12,1.12,0,0,1,.54.85v.95C175.69,161.08,175.45,161.19,175.15,161Z"/></g><g class="cls-5"><path d="M182.53,155.53l-4.91-2.83a1.14,1.14,0,0,1-.54-.86v-1c0-.3.24-.4.54-.23l4.91,2.84a1.11,1.11,0,0,1,.54.85v1C183.07,155.6,182.83,155.71,182.53,155.53Z"/></g><g class="cls-5"><path d="M182.53,158.78l-4.91-2.84a1.11,1.11,0,0,1-.54-.85v-1c0-.3.24-.4.54-.23l4.91,2.84a1.11,1.11,0,0,1,.54.85v1C183.07,158.85,182.83,159,182.53,158.78Z"/></g><g class="cls-5"><path d="M189.92,159.8,185,157a1.11,1.11,0,0,1-.54-.85v-1c0-.3.24-.41.54-.23l4.91,2.83a1.14,1.14,0,0,1,.54.86v.95C190.46,159.87,190.22,160,189.92,159.8Z"/></g><g class="cls-5"><path d="M189.92,163.05,185,160.21a1.12,1.12,0,0,1-.54-.86v-.95c0-.3.24-.4.54-.22l4.91,2.83a1.12,1.12,0,0,1,.54.86v.95C190.46,163.12,190.22,163.22,189.92,163.05Z"/></g><path class="cls-2" d="M181,183.15l5-2.91a.72.72,0,0,0,0-1.25l-10.08-5.75Z"/><path class="cls-3" d="M179.6,183.17,159.81,170a2.38,2.38,0,0,1-1.15-1.81l-1.33-27.78c-.06-1.29,1.84-1.78,2.48-1.41L181,151.24a2.38,2.38,0,0,1,1.15,1.81v28.71A1.79,1.79,0,0,1,179.6,183.17Z"/><path class="cls-4" d="M179.59,182.93l-21.15-12.22a2.38,2.38,0,0,1-1.15-1.81V140.19c0-.63.51-.85,1.15-.48l21.15,12.21a2.38,2.38,0,0,1,1.15,1.81v28.71C180.74,183.07,180.23,183.29,179.59,182.93Z"/><g class="cls-5"><path d="M164.06,158.37l-4.91-2.83a1.14,1.14,0,0,1-.54-.86v-1c0-.3.24-.4.54-.23l4.91,2.84a1.12,1.12,0,0,1,.55.85v.95C164.61,158.44,164.36,158.54,164.06,158.37Z"/></g><g class="cls-5"><path d="M164.11,147.22l-5-2.89a1,1,0,0,1-.49-.79v-.71c0-.27.22-.36.49-.21l5,2.89a1.05,1.05,0,0,1,.5.79V147C164.61,147.28,164.38,147.37,164.11,147.22Z"/></g><g class="cls-5"><path d="M178.88,159.67l-19.77-11.41a1,1,0,0,1-.5-.78v-.72c0-.27.22-.37.5-.21L178.88,158a1,1,0,0,1,.49.78v.71C179.37,159.74,179.15,159.83,178.88,159.67Z"/></g><g class="cls-5"><path d="M178.88,162.92l-19.77-11.41a1,1,0,0,1-.5-.79V150c0-.28.22-.37.5-.21l19.77,11.41a1,1,0,0,1,.49.79v.71C179.37,163,179.15,163.08,178.88,162.92Z"/></g><g class="cls-5"><path d="M164.06,161.62l-4.91-2.84a1.11,1.11,0,0,1-.54-.85v-1c0-.3.24-.4.54-.23l4.91,2.83a1.15,1.15,0,0,1,.55.86v.95C164.61,161.69,164.36,161.79,164.06,161.62Z"/></g><g class="cls-5"><path d="M164.06,164.87,159.15,162a1.12,1.12,0,0,1-.54-.85v-1c0-.29.24-.4.54-.22l4.91,2.83a1.14,1.14,0,0,1,.55.86v.95C164.61,164.94,164.36,165,164.06,164.87Z"/></g><g class="cls-5"><path d="M164.06,168.11l-4.91-2.83a1.12,1.12,0,0,1-.54-.86v-.95c0-.3.24-.4.54-.23l4.91,2.84a1.14,1.14,0,0,1,.55.85v1C164.61,168.18,164.36,168.29,164.06,168.11Z"/></g><g class="cls-5"><path d="M164.06,171.36l-4.91-2.83a1.14,1.14,0,0,1-.54-.86v-.95c0-.3.24-.4.54-.23l4.91,2.84a1.12,1.12,0,0,1,.55.85v.95C164.61,171.43,164.36,171.53,164.06,171.36Z"/></g><g class="cls-5"><path d="M171.44,162.63l-4.91-2.83a1.14,1.14,0,0,1-.54-.86V158c0-.3.24-.4.54-.23l4.91,2.84a1.12,1.12,0,0,1,.55.85v1C172,162.7,171.74,162.81,171.44,162.63Z"/></g><g class="cls-5"><path d="M171.44,165.88,166.53,163a1.11,1.11,0,0,1-.54-.85v-.95c0-.3.24-.4.54-.23l4.91,2.84a1.12,1.12,0,0,1,.55.85v1C172,166,171.74,166.05,171.44,165.88Z"/></g><g class="cls-5"><path d="M171.44,169.13l-4.91-2.84a1.11,1.11,0,0,1-.54-.85v-.95c0-.3.24-.41.54-.23l4.91,2.83a1.15,1.15,0,0,1,.55.86v1C172,169.2,171.74,169.3,171.44,169.13Z"/></g><g class="cls-5"><path d="M171.44,172.38l-4.91-2.84a1.12,1.12,0,0,1-.54-.86v-1c0-.3.24-.4.54-.23l4.91,2.84a1.14,1.14,0,0,1,.55.86v1C172,172.45,171.74,172.55,171.44,172.38Z"/></g><g class="cls-5"><path d="M178.83,166.9l-4.91-2.84a1.11,1.11,0,0,1-.54-.85v-1c0-.3.24-.41.54-.23l4.91,2.83a1.15,1.15,0,0,1,.55.86v.95C179.38,167,179.13,167.07,178.83,166.9Z"/></g><g class="cls-5"><path d="M178.83,170.15l-4.91-2.84a1.12,1.12,0,0,1-.54-.86v-.95c0-.3.24-.4.54-.22l4.91,2.83a1.14,1.14,0,0,1,.55.86v.95C179.38,170.22,179.13,170.32,178.83,170.15Z"/></g><g class="cls-5"><path d="M178.83,173.39l-4.91-2.83a1.14,1.14,0,0,1-.54-.86v-.95c0-.3.24-.4.54-.23l4.91,2.84a1.12,1.12,0,0,1,.55.85v.95C179.38,173.46,179.13,173.57,178.83,173.39Z"/></g><g class="cls-5"><path d="M178.83,176.64l-4.91-2.83a1.14,1.14,0,0,1-.54-.86V172c0-.3.24-.4.54-.23l4.91,2.84a1.12,1.12,0,0,1,.55.85v.95C179.38,176.71,179.13,176.81,178.83,176.64Z"/></g><path class="cls-2" d="M188.2,100.07l5-2.9a.72.72,0,0,0,0-1.25l-10.08-5.75Z"/><path class="cls-3" d="M186.65,100.09l-19.8-13.15a2.37,2.37,0,0,1-1.15-1.81l-1.32-27.77c-.07-1.3,1.84-1.78,2.47-1.42L188,68.16A2.37,2.37,0,0,1,189.16,70v28.7A1.79,1.79,0,0,1,186.65,100.09Z"/><path class="cls-7" d="M186.68,100.06,165.52,87.85A2.41,2.41,0,0,1,164.37,86V57.33c0-.63.52-.85,1.15-.48l21.16,12.21a2.39,2.39,0,0,1,1.14,1.81V99.58C187.82,100.21,187.31,100.43,186.68,100.06Z"/><g class="cls-5"><path d="M171.15,75.51l-4.92-2.84a1.11,1.11,0,0,1-.54-.85v-.95c0-.3.24-.4.54-.23l4.92,2.83a1.14,1.14,0,0,1,.54.86v1C171.69,75.58,171.45,75.68,171.15,75.51Z"/></g><g class="cls-5"><path d="M171.19,64.35l-5-2.89a1,1,0,0,1-.5-.78V60c0-.27.22-.37.5-.21l5,2.89a1,1,0,0,1,.5.78v.71C171.69,64.42,171.47,64.51,171.19,64.35Z"/></g><g class="cls-5"><path d="M186,76.81,166.19,65.4a1,1,0,0,1-.5-.79V63.9c0-.28.22-.37.5-.21L186,75.1a1.05,1.05,0,0,1,.5.79v.71C186.46,76.88,186.23,77,186,76.81Z"/></g><g class="cls-5"><path d="M186,80.06,166.19,68.65a1,1,0,0,1-.5-.79v-.71c0-.28.22-.37.5-.21L186,78.35a1.05,1.05,0,0,1,.5.78v.72C186.46,80.13,186.23,80.22,186,80.06Z"/></g><g class="cls-5"><path d="M171.15,78.76l-4.92-2.84a1.12,1.12,0,0,1-.54-.85v-1c0-.29.24-.4.54-.22l4.92,2.83a1.12,1.12,0,0,1,.54.86v1C171.69,78.83,171.45,78.93,171.15,78.76Z"/></g><g class="cls-5"><path d="M171.15,82l-4.92-2.83a1.14,1.14,0,0,1-.54-.86v-1c0-.3.24-.4.54-.23L171.15,80a1.12,1.12,0,0,1,.54.85v1C171.69,82.07,171.45,82.18,171.15,82Z"/></g><g class="cls-5"><path d="M171.15,85.25l-4.92-2.83a1.14,1.14,0,0,1-.54-.86v-1c0-.3.24-.4.54-.23l4.92,2.84a1.11,1.11,0,0,1,.54.85v1C171.69,85.32,171.45,85.42,171.15,85.25Z"/></g><g class="cls-5"><path d="M171.15,88.5l-4.92-2.84a1.11,1.11,0,0,1-.54-.85v-1c0-.3.24-.4.54-.23l4.92,2.83a1.14,1.14,0,0,1,.54.86v1C171.69,88.57,171.45,88.67,171.15,88.5Z"/></g><g class="cls-5"><path d="M178.53,79.77l-4.92-2.84a1.13,1.13,0,0,1-.54-.85v-1c0-.3.25-.4.54-.23l4.92,2.84a1.11,1.11,0,0,1,.54.85v1C179.07,79.84,178.83,79.94,178.53,79.77Z"/></g><g class="cls-5"><path d="M178.53,83l-4.92-2.84a1.13,1.13,0,0,1-.54-.85v-1c0-.3.25-.41.54-.23L178.53,81a1.14,1.14,0,0,1,.54.86v1C179.07,83.09,178.83,83.19,178.53,83Z"/></g><g class="cls-5"><path d="M178.53,86.27l-4.92-2.84a1.15,1.15,0,0,1-.54-.86v-.95c0-.3.25-.4.54-.23l4.92,2.84a1.12,1.12,0,0,1,.54.86v1C179.07,86.34,178.83,86.44,178.53,86.27Z"/></g><g class="cls-5"><path d="M178.53,89.51l-4.92-2.83a1.17,1.17,0,0,1-.54-.86v-.95c0-.3.25-.4.54-.23l4.92,2.84a1.11,1.11,0,0,1,.54.85v1C179.07,89.58,178.83,89.69,178.53,89.51Z"/></g><g class="cls-5"><path d="M185.92,84,181,81.2a1.12,1.12,0,0,1-.54-.86v-1c0-.3.24-.4.54-.22L185.92,82a1.12,1.12,0,0,1,.54.86v1C186.46,84.11,186.22,84.21,185.92,84Z"/></g><g class="cls-5"><path d="M185.92,87.28,181,84.45a1.14,1.14,0,0,1-.54-.86v-1c0-.3.24-.4.54-.23l4.92,2.84a1.11,1.11,0,0,1,.54.85v1C186.46,87.35,186.22,87.46,185.92,87.28Z"/></g><g class="cls-5"><path d="M185.92,90.53,181,87.7a1.14,1.14,0,0,1-.54-.86v-1c0-.3.24-.4.54-.23l4.92,2.84a1.11,1.11,0,0,1,.54.85v1C186.46,90.6,186.22,90.7,185.92,90.53Z"/></g><g class="cls-5"><path d="M185.92,93.78,181,90.94a1.11,1.11,0,0,1-.54-.85v-1c0-.3.24-.4.54-.23l4.92,2.83a1.14,1.14,0,0,1,.54.86v1C186.46,93.85,186.22,94,185.92,93.78Z"/></g><path class="cls-2" d="M92.2,87.32l-5-2.91a.72.72,0,0,1,0-1.25l10.08-5.75Z"/><path class="cls-3" d="M113,74.17l-19.92,13c-.63.36-2.39,0-2.39-1.28V57.2a2.37,2.37,0,0,1,1.15-1.81L113,43.17a1.68,1.68,0,0,1,2.45,1l-1.3,28.15A2.37,2.37,0,0,1,113,74.17Z"/><path class="cls-7" d="M114.26,74.85,93.1,87.06c-.63.37-1.15.15-1.15-.48V57.87a2.41,2.41,0,0,1,1.15-1.81l21.16-12.21c.63-.37,1.14-.15,1.14.48V73A2.39,2.39,0,0,1,114.26,74.85Z"/><g class="cls-5"><path d="M98.73,68.23l-4.92,2.83c-.29.18-.54.07-.54-.23v-1a1.13,1.13,0,0,1,.54-.85l4.92-2.84c.3-.17.54-.07.54.23v1A1.14,1.14,0,0,1,98.73,68.23Z"/></g><g class="cls-5"><path d="M98.77,57l-5,2.89c-.28.16-.5.06-.5-.21V59a1,1,0,0,1,.5-.78l5-2.89c.28-.16.5-.07.5.21v.71A1,1,0,0,1,98.77,57Z"/></g><g class="cls-5"><path d="M113.54,52.43,93.77,63.84c-.27.16-.5.07-.5-.21v-.71a1.05,1.05,0,0,1,.5-.79l19.77-11.41c.27-.16.5-.07.5.21v.71A1.05,1.05,0,0,1,113.54,52.43Z"/></g><g class="cls-5"><path d="M113.54,55.67,93.77,67.09c-.27.16-.5.06-.5-.21v-.72a1.05,1.05,0,0,1,.5-.78L113.54,54c.27-.15.5-.06.5.21v.72A1,1,0,0,1,113.54,55.67Z"/></g><g class="cls-5"><path d="M98.73,71.48l-4.92,2.83c-.29.17-.54.07-.54-.23v-1a1.13,1.13,0,0,1,.54-.85l4.92-2.84c.3-.17.54-.07.54.23v1A1.14,1.14,0,0,1,98.73,71.48Z"/></g><g class="cls-5"><path d="M98.73,74.72l-4.92,2.84c-.29.17-.54.07-.54-.23v-1a1.17,1.17,0,0,1,.54-.86l4.92-2.83c.3-.17.54-.07.54.23v1A1.11,1.11,0,0,1,98.73,74.72Z"/></g><g class="cls-5"><path d="M98.73,78l-4.92,2.84c-.29.17-.54.07-.54-.23v-1a1.17,1.17,0,0,1,.54-.86l4.92-2.83c.3-.18.54-.07.54.23v1A1.12,1.12,0,0,1,98.73,78Z"/></g><g class="cls-5"><path d="M98.73,81.22l-4.92,2.83c-.29.18-.54.07-.54-.22v-1a1.15,1.15,0,0,1,.54-.85l4.92-2.84c.3-.17.54-.07.54.23v1A1.12,1.12,0,0,1,98.73,81.22Z"/></g><g class="cls-5"><path d="M106.11,64,101.2,66.8c-.3.18-.55.07-.55-.23v-.95a1.12,1.12,0,0,1,.55-.85l4.91-2.84c.3-.17.54-.07.54.23v1A1.14,1.14,0,0,1,106.11,64Z"/></g><g class="cls-5"><path d="M106.11,67.21l-4.91,2.84c-.3.17-.55.07-.55-.23v-.95a1.12,1.12,0,0,1,.55-.85l4.91-2.84c.3-.17.54-.07.54.23v1A1.11,1.11,0,0,1,106.11,67.21Z"/></g><g class="cls-5"><path d="M106.11,70.46,101.2,73.3c-.3.17-.55.07-.55-.23v-.95a1.15,1.15,0,0,1,.55-.86l4.91-2.83c.3-.18.54-.07.54.23v1A1.11,1.11,0,0,1,106.11,70.46Z"/></g><g class="cls-5"><path d="M106.11,73.71l-4.91,2.84c-.3.17-.55.07-.55-.23v-.95a1.14,1.14,0,0,1,.55-.86l4.91-2.84c.3-.17.54-.07.54.23v.95A1.12,1.12,0,0,1,106.11,73.71Z"/></g><g class="cls-5"><path d="M113.5,59.7l-4.92,2.84c-.3.17-.54.07-.54-.23v-1a1.12,1.12,0,0,1,.54-.86l4.92-2.83c.3-.18.54-.07.54.22v1A1.12,1.12,0,0,1,113.5,59.7Z"/></g><g class="cls-5"><path d="M113.5,63l-4.92,2.83c-.3.18-.54.07-.54-.22v-1a1.12,1.12,0,0,1,.54-.85l4.92-2.84c.3-.17.54-.07.54.23v1A1.12,1.12,0,0,1,113.5,63Z"/></g><g class="cls-5"><path d="M113.5,66.2,108.58,69c-.3.17-.54.07-.54-.23v-1a1.11,1.11,0,0,1,.54-.85l4.92-2.84c.3-.17.54-.07.54.23v1A1.14,1.14,0,0,1,113.5,66.2Z"/></g><g class="cls-5"><path d="M113.5,69.44l-4.92,2.84c-.3.17-.54.07-.54-.23v-1a1.11,1.11,0,0,1,.54-.85l4.92-2.84c.3-.17.54-.07.54.23v1A1.11,1.11,0,0,1,113.5,69.44Z"/></g><path class="cls-2" d="M211.18,204l5-2.9a.72.72,0,0,0,0-1.25l-10.09-5.75Z"/><path class="cls-3" d="M209.89,203.87l-19.8-13.15a2.37,2.37,0,0,1-1.15-1.81l-1.32-27.77c-.06-1.3,1.84-1.78,2.47-1.42l21.16,12.22a2.37,2.37,0,0,1,1.15,1.81v28.7A1.79,1.79,0,0,1,209.89,203.87Z"/><path class="cls-7" d="M210.06,203.9,188.9,191.69a2.41,2.41,0,0,1-1.15-1.81V161.17c0-.64.52-.85,1.15-.49l21.16,12.22a2.36,2.36,0,0,1,1.14,1.81v28.71C211.2,204.05,210.69,204.27,210.06,203.9Z"/><g class="cls-5"><path d="M194.53,179.35l-4.92-2.84a1.12,1.12,0,0,1-.54-.85v-.95c0-.3.24-.41.54-.23l4.92,2.83a1.14,1.14,0,0,1,.54.86v1C195.07,179.42,194.83,179.52,194.53,179.35Z"/></g><g class="cls-5"><path d="M194.57,168.19l-5-2.89a1,1,0,0,1-.5-.78v-.71c0-.27.22-.37.5-.21l5,2.89a1,1,0,0,1,.5.78V168C195.07,168.26,194.85,168.35,194.57,168.19Z"/></g><g class="cls-5"><path d="M209.34,180.65l-19.77-11.41a1,1,0,0,1-.5-.79v-.71c0-.28.22-.37.5-.21l19.77,11.41a1.05,1.05,0,0,1,.5.78v.72C209.84,180.71,209.61,180.81,209.34,180.65Z"/></g><g class="cls-5"><path d="M209.34,183.9l-19.77-11.42a1,1,0,0,1-.5-.78V171c0-.27.22-.36.5-.21l19.77,11.42a1.05,1.05,0,0,1,.5.78v.72C209.84,184,209.61,184.06,209.34,183.9Z"/></g><g class="cls-5"><path d="M194.53,182.59l-4.92-2.83a1.12,1.12,0,0,1-.54-.86v-1c0-.3.24-.4.54-.23l4.92,2.84a1.12,1.12,0,0,1,.54.85v1C195.07,182.66,194.83,182.77,194.53,182.59Z"/></g><g class="cls-5"><path d="M194.53,185.84,189.61,183a1.14,1.14,0,0,1-.54-.86v-1c0-.3.24-.4.54-.23l4.92,2.84a1.11,1.11,0,0,1,.54.85v1C195.07,185.91,194.83,186,194.53,185.84Z"/></g><g class="cls-5"><path d="M194.53,189.09l-4.92-2.84a1.11,1.11,0,0,1-.54-.85v-1c0-.3.24-.4.54-.23l4.92,2.84a1.11,1.11,0,0,1,.54.85v1C195.07,189.16,194.83,189.26,194.53,189.09Z"/></g><g class="cls-5"><path d="M194.53,192.34l-4.92-2.84a1.11,1.11,0,0,1-.54-.85v-1c0-.3.24-.41.54-.23l4.92,2.83a1.14,1.14,0,0,1,.54.86v1C195.07,192.41,194.83,192.51,194.53,192.34Z"/></g><g class="cls-5"><path d="M201.91,183.61,197,180.77a1.11,1.11,0,0,1-.54-.85V179c0-.3.24-.41.54-.23l4.92,2.83a1.14,1.14,0,0,1,.54.86v.95C202.45,183.68,202.21,183.78,201.91,183.61Z"/></g><g class="cls-5"><path d="M201.91,186.86,197,184a1.12,1.12,0,0,1-.54-.86v-.95c0-.3.24-.4.54-.23l4.92,2.84a1.12,1.12,0,0,1,.54.86v.95C202.45,186.93,202.21,187,201.91,186.86Z"/></g><g class="cls-5"><path d="M201.91,190.1,197,187.27a1.14,1.14,0,0,1-.54-.86v-.95c0-.3.24-.4.54-.23l4.92,2.84a1.11,1.11,0,0,1,.54.85v1C202.45,190.17,202.21,190.28,201.91,190.1Z"/></g><g class="cls-5"><path d="M201.91,193.35,197,190.51a1.11,1.11,0,0,1-.54-.85v-.95c0-.3.24-.4.54-.23l4.92,2.84a1.11,1.11,0,0,1,.54.85v1C202.45,193.42,202.21,193.52,201.91,193.35Z"/></g><g class="cls-5"><path d="M209.3,187.87,204.38,185a1.14,1.14,0,0,1-.54-.86v-1c0-.3.24-.4.54-.23l4.92,2.84a1.12,1.12,0,0,1,.54.85v.95C209.84,187.94,209.6,188.05,209.3,187.87Z"/></g><g class="cls-5"><path d="M209.3,191.12l-4.92-2.83a1.14,1.14,0,0,1-.54-.86v-1c0-.3.24-.4.54-.23l4.92,2.84a1.11,1.11,0,0,1,.54.85v.95C209.84,191.19,209.6,191.29,209.3,191.12Z"/></g><g class="cls-5"><path d="M209.3,194.37l-4.92-2.84a1.11,1.11,0,0,1-.54-.85v-1c0-.3.24-.4.54-.23l4.92,2.83a1.14,1.14,0,0,1,.54.86v.95C209.84,194.44,209.6,194.54,209.3,194.37Z"/></g><g class="cls-5"><path d="M209.3,197.62l-4.92-2.84a1.12,1.12,0,0,1-.54-.85v-1c0-.3.24-.41.54-.23l4.92,2.83a1.14,1.14,0,0,1,.54.86v.95C209.84,197.69,209.6,197.79,209.3,197.62Z"/></g><polygon class="cls-8" points="11.92 131.52 16.41 131.33 16.2 134.21 11.92 131.52"/><polygon class="cls-8" points="81.55 62.65 87.64 62.91 87.37 58.99 81.55 62.65"/><polygon class="cls-8" points="260.42 175.04 265.44 175.22 264.96 178.42 260.42 175.04"/><polygon class="cls-8" points="193.66 54.09 190.82 54.13 191 52.3 193.66 54.09"/></g></svg>