<svg xmlns="http://www.w3.org/2000/svg" viewBox="0 0 300 250"><defs><style>.cls-1{fill:#606060;}.cls-2{fill:#4fc7f3;}.cls-3{fill:#f8ab31;}.cls-4{fill:#338092;}.cls-5{fill:#fff;}.cls-6,.cls-9{fill:#e7e7e7;}.cls-7{fill:#afd148;}.cls-8{fill:none;stroke-linecap:round;stroke-width:1.55px;stroke-dasharray:2 4;}.cls-8,.cls-9{stroke:#e7e7e7;stroke-linejoin:round;}.cls-10{fill:#ec325a;}.cls-11{opacity:0.1;}</style></defs><g id="Layer_1" data-name="Layer 1"><path class="cls-1" d="M73.12,30.84c-14.79,0-26.78,7.68-26.78,17.15s12,17.14,26.78,17.14S99.9,57.46,99.9,48,87.91,30.84,73.12,30.84Zm0,32.09c-12.89,0-23.34-6.69-23.34-14.94S60.23,33.05,73.12,33.05,96.46,39.73,96.46,48,86,62.93,73.12,62.93Z"/><path class="cls-2" d="M94.79,69.3a1.31,1.31,0,0,1,.14.54,1,1,0,0,1-.32.76,1,1,0,0,1-.76.32H83.78a2,2,0,0,1-1.47-.49,3,3,0,0,1-.64-.84l-4.23-9.38h-2v9.38a1.35,1.35,0,0,1-1.33,1.33H64.47a1.35,1.35,0,0,1-1.33-1.33V37.85a1.24,1.24,0,0,1,.4-.93,1.28,1.28,0,0,1,.93-.4H79a22.46,22.46,0,0,1,6.34.82,13.31,13.31,0,0,1,4.72,2.35,10.57,10.57,0,0,1,3,3.76,11.72,11.72,0,0,1,1,5,10.72,10.72,0,0,1-1.48,5.75,11.77,11.77,0,0,1-3.83,3.89ZM75.43,50.87H79a2,2,0,0,0,1.7-.76,2.89,2.89,0,0,0,.56-1.74,3.58,3.58,0,0,0-.51-1.85A1.89,1.89,0,0,0,79,45.66H75.43Z"/><path class="cls-3" d="M232.39,48.19l-6.92,0v7.92c0,3.15-3.36,10.41-10.3,10.41H196.29c-4.88,0-8.13,3.47-8.13,9.22V92.9c0,6.94,13,9.22,17.68,9.22s17.35-2.71,17.35-9.33V84.87H205.73V83.25h27.66c7.59,0,8.35-12.15,8.35-16.71S240.75,48.19,232.39,48.19Zm-17,41.89a3.15,3.15,0,1,1-3.14,3.14A3.15,3.15,0,0,1,215.38,90.08Z"/><path class="cls-4" d="M210.18,30h-8.9c-4,0-12.69,1.84-12.69,6.94v9.66h17.57s-.1,2.2-.1,2H180c-2,0-10.7,1.74-10.7,16.49S175.4,82.74,178,82.74h8.17V73.81c0-3.8,3.18-9.33,8.82-9.33h20c2.39,0,7.92-3.58,7.92-8.57V39.1C222.87,34.29,219.07,30,210.18,30ZM196,41.71a3.58,3.58,0,1,1,3.58-3.58A3.58,3.58,0,0,1,196,41.71Z"/><rect class="cls-5" x="206.8" y="140.75" width="47.53" height="51.06"/><rect class="cls-6" x="237.83" y="144.93" width="11.78" height="6.28"/><rect class="cls-6" x="237.83" y="154.09" width="11.78" height="6.28"/><rect class="cls-6" x="237.83" y="163.26" width="11.78" height="6.28"/><rect class="cls-6" x="237.83" y="172.42" width="11.78" height="6.28"/><rect class="cls-6" x="237.83" y="181.59" width="11.78" height="6.28"/><polygon class="cls-7" points="242.15 195.96 206.8 191.81 206.8 140.75 242.15 136.06 242.15 195.96"/><path class="cls-5" d="M226.08,165.78l4.66,10.32a1.36,1.36,0,0,1,.06.2.81.81,0,0,1,0,.15.76.76,0,0,1-.15.48.38.38,0,0,1-.34.19l-4.91-.2a.76.76,0,0,1-.63-.32,2.7,2.7,0,0,1-.24-.42L222.71,172l-1.71,4a2.36,2.36,0,0,1-.24.4.66.66,0,0,1-.6.26l-4.34-.18a.38.38,0,0,1-.31-.2.88.88,0,0,1-.12-.46.71.71,0,0,1,0-.14,1.08,1.08,0,0,1,0-.19l4.17-9.61-3.76-9.08a1.39,1.39,0,0,1,0-.32.89.89,0,0,1,.12-.47.42.42,0,0,1,.31-.21l4.34-.24a.61.61,0,0,1,.6.27,2.66,2.66,0,0,1,.26.44l1.45,3.64,1.6-3.8a3.06,3.06,0,0,1,.26-.48.74.74,0,0,1,.63-.34l4.5-.25a.39.39,0,0,1,.35.18.83.83,0,0,1,.14.48.82.82,0,0,1,0,.18s0,.09,0,.17Z"/><line class="cls-8" x1="164.69" y1="110.29" x2="84.67" y2="158.02"/><polyline class="cls-8" points="82.2 146.25 141.07 111.45 91.38 81.47"/><polygon class="cls-9" points="95.72 79.39 88.67 79.29 89.12 83.81 95.72 79.39"/><polyline class="cls-8" points="96.88 161.76 120.36 147.6 133.69 156.49 170.99 134 189.53 145.91"/><polygon class="cls-9" points="186.82 148.16 193.88 148.25 193.42 143.74 186.82 148.16"/><polygon class="cls-9" points="163.43 107.25 170.48 107.15 170.03 111.67 163.43 107.25"/><path class="cls-10" d="M76.52,159.89a12.29,12.29,0,0,0-10.29-19,12.51,12.51,0,0,0-3.14.4h0a15.91,15.91,0,0,0-5.22,2.33c-1.29.85-1.49,1.13-1.88,1h0a24.94,24.94,0,0,0-26.25,41A10.07,10.07,0,1,0,45.4,194a9.46,9.46,0,0,0-.06-1.07c.68.06,1.37.08,2.07.08A24.95,24.95,0,0,0,72.16,165,18.14,18.14,0,0,0,76.52,159.89Z"/><path class="cls-10" d="M76.52,159.89a12.29,12.29,0,0,0-10.29-19,12.51,12.51,0,0,0-3.14.4h0a15.91,15.91,0,0,0-5.22,2.33c-1.29.85-1.49,1.13-1.88,1h0a24.94,24.94,0,0,0-26.25,41A10.07,10.07,0,1,0,45.4,194a9.46,9.46,0,0,0-.06-1.07c.68.06,1.37.08,2.07.08A24.95,24.95,0,0,0,72.16,165,18.14,18.14,0,0,0,76.52,159.89Z"/><path class="cls-11" d="M74.43,144a12.59,12.59,0,0,1,3.08,7.24c.34,4.37-1.93,5.9-3,5.71-.65-.11-1.76-3.71-4.79-6.92-2.1-2.22-4.59-3.15-5.13-2.75s.77.66,3.72,5.51C72,158.86,70,174,63.77,180.08s-16.9,11.42-27.56,7.23a20.33,20.33,0,0,1-7.77-5.37c-1-1.2-2.43-1.35-1.61.19a24.58,24.58,0,0,0,2.87,3.48h0s3.09,3.65,5.9,4.69,6.63,2.68,6.23,4.87-1.58,5.52-4.8,6.63-7.51-.43-8.59-1.92a5.55,5.55,0,0,0-2.21-1.55A10.08,10.08,0,0,0,45.4,194a9.46,9.46,0,0,0-.06-1.07c.68.06,1.37.08,2.07.08A24.95,24.95,0,0,0,72.16,165a18.14,18.14,0,0,0,4.36-5.15A12.29,12.29,0,0,0,74.43,144Z"/><path d="M43.12,165.27a2.22,2.22,0,0,1-2.37-2v-5.29a2.4,2.4,0,0,1,4.74,0v5.29A2.22,2.22,0,0,1,43.12,165.27Z"/><path d="M61.75,165.52a2.22,2.22,0,0,1-2.37-2v-5.3a2.4,2.4,0,0,1,4.74,0v5.3A2.22,2.22,0,0,1,61.75,165.52Z"/><path class="cls-11" d="M66.52,208.12a1.25,1.25,0,0,0,.13-.57c0-1.55-2.69-2.81-6-2.81a10.29,10.29,0,0,0-4.24.82,49.79,49.79,0,0,0-5.14-.26c-10.16,0-18.4,2.86-18.4,6.38a2,2,0,0,0,.09.59c-2,.61-3.28,1.63-3.28,2.79,0,1.87,3.36,3.38,7.51,3.38a13,13,0,0,0,5.54-1.1,48.56,48.56,0,0,0,8.54.73c10.16,0,18.39-2.86,18.39-6.39C69.65,210.37,68.5,209.14,66.52,208.12Z"/></g></svg>