<svg xmlns="http://www.w3.org/2000/svg" viewBox="0 0 300 250"><defs><style>.cls-1{opacity:0.05;}.cls-16,.cls-2{fill:#e6e6e6;}.cls-3{fill:#f8ab31;}.cls-18,.cls-4{opacity:0.1;}.cls-5,.cls-6{fill:none;stroke-linecap:round;}.cls-5{stroke:#e7e7e7;stroke-width:1.55px;stroke-dasharray:2 4;}.cls-16,.cls-5{stroke-linejoin:round;}.cls-6{stroke:#b2b2b2;stroke-miterlimit:10;stroke-width:7px;}.cls-7{fill:#b2b2b2;}.cls-8{fill:#e7e7e7;}.cls-9{fill:#fff;}.cls-10{fill:#28b2b2;}.cls-11{fill:#ec325a;}.cls-12{fill:#a8c7d3;}.cls-13{fill:#4fc7f3;}.cls-14{opacity:0.03;}.cls-15{fill:#ccc;}.cls-16{stroke:#e6e6e6;}.cls-17{fill:#ec6a9c;}</style></defs><g id="Layer_1" data-name="Layer 1"><path class="cls-1" d="M233.93,96.51l6.91-4a1,1,0,0,0,0-1.74l-14-8Z"/><path class="cls-2" d="M232,96.57,204.51,78.3a3.31,3.31,0,0,1-1.6-2.51l-1.62-38.54c-.09-1.8,2.34-2.54,3.22-2l29.4,17a3.33,3.33,0,0,1,1.6,2.52V94.6A2.5,2.5,0,0,1,232,96.57Z"/><path class="cls-3" d="M232.24,96.52l-29.4-17a3.33,3.33,0,0,1-1.6-2.52V37.13c0-.88.72-1.18,1.6-.67l29.4,17a3.31,3.31,0,0,1,1.6,2.51v39.9C233.84,96.73,233.12,97,232.24,96.52Z"/><g class="cls-4"><path d="M210.66,62.4l-6.83-3.94a1.59,1.59,0,0,1-.75-1.19V56c0-.42.34-.56.75-.32l6.83,3.94a1.57,1.57,0,0,1,.75,1.19v1.32C211.41,62.5,211.07,62.64,210.66,62.4Z"/></g><g class="cls-4"><path d="M210.72,46.89l-6.95-4a1.44,1.44,0,0,1-.69-1.09v-1c0-.38.31-.52.69-.3l6.95,4a1.44,1.44,0,0,1,.69,1.09v1C211.41,47,211.1,47.11,210.72,46.89Z"/></g><g class="cls-4"><path d="M231.25,64.21,203.77,48.35a1.44,1.44,0,0,1-.69-1.09v-1c0-.38.31-.51.69-.29l27.48,15.86a1.46,1.46,0,0,1,.69,1.09v1C231.94,64.3,231.63,64.43,231.25,64.21Z"/></g><g class="cls-4"><path d="M231.25,68.72,203.77,52.86a1.44,1.44,0,0,1-.69-1.09v-1c0-.39.31-.52.69-.3l27.48,15.87a1.44,1.44,0,0,1,.69,1.09v1C231.94,68.81,231.63,69,231.25,68.72Z"/></g><g class="cls-4"><path d="M210.66,66.91,203.83,63a1.57,1.57,0,0,1-.75-1.19V60.46c0-.41.34-.56.75-.32l6.83,3.94a1.59,1.59,0,0,1,.75,1.19v1.32C211.41,67,211.07,67.15,210.66,66.91Z"/></g><g class="cls-4"><path d="M210.66,71.43l-6.83-4a1.57,1.57,0,0,1-.75-1.18V65c0-.41.34-.55.75-.31l6.83,3.94a1.57,1.57,0,0,1,.75,1.19v1.32C211.41,71.52,211.07,71.67,210.66,71.43Z"/></g><g class="cls-4"><path d="M210.66,75.94,203.83,72a1.57,1.57,0,0,1-.75-1.19V69.49c0-.42.34-.56.75-.32l6.83,3.94a1.57,1.57,0,0,1,.75,1.19v1.32C211.41,76,211.07,76.18,210.66,75.94Z"/></g><g class="cls-4"><path d="M220.92,68.32l-6.83-3.94a1.54,1.54,0,0,1-.75-1.19V61.87c0-.42.33-.56.75-.32l6.83,3.94a1.59,1.59,0,0,1,.75,1.19V68C221.67,68.42,221.33,68.56,220.92,68.32Z"/></g><g class="cls-4"><path d="M220.92,72.83l-6.83-3.94a1.54,1.54,0,0,1-.75-1.19V66.38c0-.41.33-.56.75-.31L220.92,70a1.57,1.57,0,0,1,.75,1.19v1.32C221.67,72.93,221.33,73.07,220.92,72.83Z"/></g><g class="cls-4"><path d="M231.19,74.25l-6.83-3.94a1.56,1.56,0,0,1-.76-1.19V67.8c0-.42.34-.56.76-.32l6.83,3.94a1.57,1.57,0,0,1,.75,1.19v1.32C231.94,74.35,231.6,74.49,231.19,74.25Z"/></g><g class="cls-4"><path d="M231.19,78.76l-6.83-3.94a1.56,1.56,0,0,1-.76-1.19V72.31c0-.41.34-.56.76-.32l6.83,4a1.57,1.57,0,0,1,.75,1.18v1.32C231.94,78.86,231.6,79,231.19,78.76Z"/></g><line class="cls-5" x1="213.24" y1="90.56" x2="107.83" y2="153.6"/><polyline class="cls-5" points="120.04 157.34 165 130.1 202.77 154.87 234.92 135.89"/><line class="cls-6" x1="142.34" y1="116.98" x2="167.42" y2="102.27"/><ellipse class="cls-1" cx="49.44" cy="178.35" rx="16.49" ry="5.69"/><path class="cls-7" d="M176.5,126.14a7.63,7.63,0,0,0-2.6-5c-1.67-1.21-5.07-3.75-5.07-3.75a8.5,8.5,0,0,1-2.6-5.88,3.13,3.13,0,0,1,.56-2c0-.09,3.09-3.66,3.09-3.66.87-.91.81-3-.06-4.91a66.49,66.49,0,0,0-4-7.68c-1.05-1.76-2.6-2.74-3.65-2.19l-4,1.8a2.65,2.65,0,0,1-1.86-.33A7.86,7.86,0,0,1,153.05,87l-.62-7a7.57,7.57,0,0,0-2.66-5,33,33,0,0,0-5.69-3.29,1.86,1.86,0,0,0-1.62,0v-.06l-5.77,3.37,4.23,3.55L140.8,80c-.25,1.92-1.61,2.7-3.22,1.77a6.59,6.59,0,0,1-2-2l-3.9-6.3c-1-1.76-2.6-2.57-3.65-2a12.22,12.22,0,0,0-2.31,1.45l-4,2.21,1.76,2.8a7.83,7.83,0,0,0,.48,1.41l3,6.91a7.68,7.68,0,0,1,.68,3c0,2.23-1.24,3.33-2.85,2.73l-4.82-2a1.77,1.77,0,0,0-1.58.06v0l-5.63,3.32,4.38,3.85.11-.61c0,1,0,2,.11,3.06a7.67,7.67,0,0,0,2.6,5l4.82,3.61a7.91,7.91,0,0,1,2.85,5.93,3.39,3.39,0,0,1-.68,2.25l-3,3.48c-.87.9-.81,3,.06,4.9a67.46,67.46,0,0,0,4,7.69,5.77,5.77,0,0,0,1.86,2,1.85,1.85,0,0,0,1.79.21l3.9-1.79a2.45,2.45,0,0,1,2,.31,7.76,7.76,0,0,1,3.22,5.49c0,.09.62,7,.62,7a7.59,7.59,0,0,0,2.66,5c.64.43,1.31.86,2,1.27l-1.26,3.18,1.09,2.05,5.32-3.15a2.2,2.2,0,0,0,1.24-2l.62-6.24c.31-1.89,1.61-2.71,3.22-1.78a5.74,5.74,0,0,1,1.86,1.82l4,6.41-2.25,1.29.5,4,5-3,0-.05a1.15,1.15,0,0,0,.49-.17,13.11,13.11,0,0,0,4-3c.87-.9.93-2.93.06-4.83-1-2.42-3.09-7.15-3.09-7.23a7,7,0,0,1-.56-2.72c0-2.06,1.11-3.23,2.6-2.79l1.51.62-.92.81.43,3.9,5.4-3.18a2.35,2.35,0,0,0,1.25-2.09A50.6,50.6,0,0,0,176.5,126.14Zm-29.57,4.24c-7.26-4.19-13.15-15.43-13.15-25.11s5.89-14.13,13.15-9.94,13.14,15.44,13.14,25.12S154.18,134.58,146.93,130.38Z"/><path class="cls-8" d="M171.08,136.91c-.19,1.71-1.24,2.59-2.6,2.05-1.67-.72-5.08-2.11-5.08-2.11-1.48-.44-2.6.73-2.6,2.79a7,7,0,0,0,.56,2.72c0,.08,2,4.81,3.09,7.23.87,1.9.81,3.93-.06,4.83a12.88,12.88,0,0,1-4,3,1.75,1.75,0,0,1-1.86-.16,5.18,5.18,0,0,1-1.79-1.86l-4-6.45a5.74,5.74,0,0,0-1.86-1.82c-1.61-.92-2.91-.11-3.22,1.78l-.61,6.24c-.19,1.71-1.3,2.47-2.67,1.93-.92-.46-1.91-.94-2.84-1.48s-1.92-1.19-2.85-1.81a7.63,7.63,0,0,1-2.66-5s-.62-6.87-.62-7a7.71,7.71,0,0,0-3.21-5.48,2.43,2.43,0,0,0-2-.32l-3.9,1.79a1.84,1.84,0,0,1-1.8-.21,5.57,5.57,0,0,1-1.85-2,66,66,0,0,1-4-7.69c-.86-1.9-.92-4-.06-4.9l3-3.48a3.32,3.32,0,0,0,.68-2.25,7.9,7.9,0,0,0-2.84-5.93l-4.83-3.61a7.72,7.72,0,0,1-2.6-5,53.4,53.4,0,0,1,0-7.59c.13-1.75,1.24-2.59,2.6-2l4.83,2c1.61.6,2.84-.5,2.84-2.73a7.58,7.58,0,0,0-.68-2.95l-3-6.91c-.86-1.9-.86-4,.06-4.83a13,13,0,0,1,4-3c1.05-.55,2.6.26,3.65,2l3.9,6.3a6.26,6.26,0,0,0,2,2c1.6.93,3,.15,3.21-1.77l.62-6.24c.19-1.71,1.3-2.47,2.66-1.93a32.59,32.59,0,0,1,5.69,3.29,7.6,7.6,0,0,1,2.67,5l.61,7a7.86,7.86,0,0,0,3.22,5.48,2.65,2.65,0,0,0,1.86.33s2.66-1.18,4-1.8c1.05-.55,2.6.43,3.65,2.19a65,65,0,0,1,4,7.68c.87,1.91.93,4,.06,4.91,0,0-3.09,3.57-3.09,3.66a3.14,3.14,0,0,0-.56,2,8.52,8.52,0,0,0,2.6,5.87s3.41,2.54,5.08,3.75a7.72,7.72,0,0,1,2.6,5A53.4,53.4,0,0,1,171.08,136.91Zm-16.44-13.28c0-9.68-5.88-20.93-13.14-25.12s-13.15.26-13.15,9.94,5.89,20.92,13.15,25.12S154.64,133.31,154.64,123.63Z"/><path class="cls-7" d="M128,126.79a7.61,7.61,0,0,0-2.6-5.05c-1.67-1.21-5.07-3.75-5.07-3.75a8.55,8.55,0,0,1-2.6-5.88,3.18,3.18,0,0,1,.56-2c0-.08,3.09-3.65,3.09-3.65.87-.91.81-3-.06-4.91a66.49,66.49,0,0,0-4-7.68c-1-1.76-2.6-2.74-3.65-2.19l-4,1.8a2.7,2.7,0,0,1-1.86-.33,7.88,7.88,0,0,1-3.22-5.49l-.62-7a7.62,7.62,0,0,0-2.66-5,33.54,33.54,0,0,0-5.69-3.28,1.86,1.86,0,0,0-1.62,0v-.06l-5.77,3.37,4.23,3.55-.13,1.27c-.25,1.92-1.61,2.7-3.22,1.77a6.51,6.51,0,0,1-2-2l-3.89-6.29c-1.06-1.76-2.6-2.57-3.66-2a11.84,11.84,0,0,0-2.3,1.45l-4,2.21L75,78.55A7.83,7.83,0,0,0,75.5,80l3,6.91a7.68,7.68,0,0,1,.68,2.95c0,2.23-1.24,3.33-2.84,2.73l-4.83-2a1.77,1.77,0,0,0-1.58.06v0l-5.63,3.32,4.38,3.85.11-.61c0,1,0,2,.11,3.06a7.67,7.67,0,0,0,2.6,5l4.83,3.62a7.93,7.93,0,0,1,2.84,5.93,3.39,3.39,0,0,1-.68,2.25l-3,3.48c-.87.9-.8,3,.06,4.9a67.46,67.46,0,0,0,4,7.69,5.77,5.77,0,0,0,1.86,2,1.87,1.87,0,0,0,1.8.21l3.89-1.79a2.45,2.45,0,0,1,2,.31,7.76,7.76,0,0,1,3.22,5.49c0,.08.62,7,.62,7a7.63,7.63,0,0,0,2.66,5c.64.43,1.31.86,2,1.27l-1.27,3.17,1.09,2.06,5.32-3.15a2.21,2.21,0,0,0,1.24-2l.62-6.25c.31-1.88,1.61-2.7,3.22-1.77a5.74,5.74,0,0,1,1.86,1.82l4,6.41-2.25,1.28.49,4,5-3,0-.05a1.3,1.3,0,0,0,.49-.17,13.11,13.11,0,0,0,4-3c.87-.9.93-2.93.06-4.83-1-2.43-3.09-7.15-3.09-7.23a7,7,0,0,1-.56-2.72c0-2.06,1.12-3.23,2.6-2.79l1.51.62-.92.81.44,3.9,5.39-3.18a2.33,2.33,0,0,0,1.25-2.09A50.6,50.6,0,0,0,128,126.79ZM98.46,131c-7.26-4.19-13.15-15.43-13.15-25.11S91.2,91.79,98.46,96s13.14,15.44,13.14,25.12S105.71,135.22,98.46,131Z"/><path class="cls-8" d="M122.61,137.56c-.19,1.71-1.24,2.59-2.6,2.05-1.67-.72-5.08-2.11-5.08-2.11-1.48-.44-2.59.73-2.59,2.79a7,7,0,0,0,.55,2.72c0,.08,2,4.81,3.1,7.23.86,1.9.8,3.93-.07,4.83a12.88,12.88,0,0,1-4,3,1.73,1.73,0,0,1-1.85-.16,5.15,5.15,0,0,1-1.8-1.87l-4-6.44a5.74,5.74,0,0,0-1.86-1.82c-1.61-.93-2.91-.11-3.21,1.78l-.62,6.24c-.19,1.71-1.3,2.47-2.66,1.93-.93-.46-1.92-.94-2.85-1.48s-1.92-1.19-2.85-1.81a7.63,7.63,0,0,1-2.66-5s-.62-6.87-.62-7A7.75,7.75,0,0,0,83.69,137a2.46,2.46,0,0,0-2-.31l-3.9,1.79a1.87,1.87,0,0,1-1.8-.21,5.57,5.57,0,0,1-1.85-2,64.4,64.4,0,0,1-4-7.69c-.87-1.9-.93-4-.07-4.9l3-3.48a3.32,3.32,0,0,0,.68-2.25,7.9,7.9,0,0,0-2.84-5.93l-4.83-3.61a7.72,7.72,0,0,1-2.6-5,53.4,53.4,0,0,1,0-7.59c.13-1.75,1.24-2.59,2.6-2l4.83,2c1.61.6,2.84-.5,2.84-2.73a7.54,7.54,0,0,0-.68-3l-3-6.91c-.86-1.9-.86-4,.07-4.83a12.88,12.88,0,0,1,4-3c1-.55,2.6.26,3.65,2l3.9,6.3a6.26,6.26,0,0,0,2,2c1.6.93,3,.15,3.21-1.77l.62-6.24c.19-1.71,1.3-2.47,2.66-1.93a33,33,0,0,1,5.7,3.29,7.61,7.61,0,0,1,2.66,5l.62,6.95a7.82,7.82,0,0,0,3.21,5.49,2.65,2.65,0,0,0,1.86.33s2.66-1.18,4-1.8c1-.55,2.6.43,3.65,2.19a63.51,63.51,0,0,1,4,7.68c.87,1.91.93,4,.07,4.91,0,0-3.1,3.57-3.1,3.66a3.13,3.13,0,0,0-.55,2,8.54,8.54,0,0,0,2.59,5.88s3.41,2.54,5.08,3.75a7.72,7.72,0,0,1,2.6,5A53.4,53.4,0,0,1,122.61,137.56Zm-16.44-13.28c0-9.68-5.88-20.93-13.14-25.12s-13.14.26-13.14,9.94S85.77,130,93,134.21,106.17,134,106.17,124.28Z"/><path class="cls-7" d="M138.75,192.6l-51-29.7a5.81,5.81,0,0,1-2.42-4.62l.85-93.82,4.87-1.21L136.8,90.4a4.85,4.85,0,0,1,1.71,1.94l6.3,12a5.88,5.88,0,0,1,.71,2.69v81.18a2.66,2.66,0,0,1-.41,1.56C145.08,189.9,138.75,192.6,138.75,192.6Z"/><path class="cls-1" d="M138.8,194.1,87.67,164.58l-2.13-4,.7-94.93,47.89,27.64,7.72,15.23v83.22C141.85,194,140.48,195.08,138.8,194.1Z"/><path class="cls-9" d="M139.16,191.73a1.21,1.21,0,0,1-.58-.18L87.81,162.23a5,5,0,0,1-2-3.95V66.56c0-.62.18-1.34.68-1.34a1.2,1.2,0,0,1,.57.18L131.5,91.08a4,4,0,0,1,1.41,1.62l6.31,12a5.28,5.28,0,0,1,.62,2.33v83.31C139.84,191,139.66,191.73,139.16,191.73Z"/><path class="cls-8" d="M86.61,66.06h0l44.46,25.68a3.23,3.23,0,0,1,1.11,1.31l6.31,12a4.38,4.38,0,0,1,.53,2v83.31a1.75,1.75,0,0,1-.06.5l0,0L88.2,161.56a4.27,4.27,0,0,1-1.65-3.28V66.56a1.75,1.75,0,0,1,.06-.5m-.15-1.62c-.86,0-1.46.79-1.46,2.12v91.72a5.81,5.81,0,0,0,2.42,4.62l50.78,29.32a1.89,1.89,0,0,0,1,.29c.85,0,1.45-.79,1.45-2.12V107.08a6,6,0,0,0-.7-2.69l-6.31-12a4.78,4.78,0,0,0-1.71-1.94L87.42,64.73a1.89,1.89,0,0,0-1-.29Z"/><path class="cls-8" d="M133,91.44v8.42a3,3,0,0,0,1.25,2.39l6.32,3.65Z"/><path class="cls-10" d="M134.74,129.73a3.73,3.73,0,0,0-1.54-3h0l-17-9.81c-.86-.49-1.55,0-1.55,1.17h0v6.18h0a3.67,3.67,0,0,0,1.55,3l7.72,4.46c.85.49,1.55,0,1.55-1.17h0v-2.4c0-1,.57-1.38,1.28-1l6.44,3.71h0C134.05,131.39,134.74,130.86,134.74,129.73Z"/><path class="cls-11" d="M109.41,113l-18.54-10.7c-.85-.5-1.54,0-1.54,1.16v6.18a3.73,3.73,0,0,0,1.54,3l18.54,10.7c.85.49,1.54,0,1.54-1.17V116A3.69,3.69,0,0,0,109.41,113Z"/><path class="cls-3" d="M134.13,107.25l-43.26-25c-.85-.49-1.54,0-1.54,1.17V96.22a3.71,3.71,0,0,0,1.54,3l15.45,8.92c.85.49,1.55,0,1.55-1.17v-.59c0-2,1.11-2.88,2.57-2l1.65.95,12.61,7.28c.86.49,1.55,0,1.55-1.17v-1.74c0-1.53.95-2.23,2.1-1.57l5.33,3.08.44.25c.85.49,1.54,0,1.54-1.17A3.71,3.71,0,0,0,134.13,107.25Z"/><path class="cls-12" d="M98.64,75.61,90.83,71.1c-.83-.48-1.5.06-1.5,1.2v3.64a3.71,3.71,0,0,0,1.54,3l7.73,4.46c.85.49,1.54,0,1.54-1.17V78.54A3.66,3.66,0,0,0,98.64,75.61Z"/><path class="cls-13" d="M135.67,143.63a3.71,3.71,0,0,0-1.54-2.95l-43.26-25c-.85-.49-1.54,0-1.54,1.17V122h0a3.69,3.69,0,0,0,1.54,3l43.26,25c.85.5,1.54,0,1.54-1.17h0Z"/><path class="cls-14" d="M126,87,113.6,178l24.23,14c1.54.89,2.78-.05,2.78-2.1V105.74L132.89,91Z"/><path class="cls-15" d="M94.69,154.52l-3.34-1.93a4.8,4.8,0,0,1-2-3.82c0-1.46.9-2.12,2-1.48l3.34,1.93a4.81,4.81,0,0,1,2,3.82C96.72,154.5,95.81,155.16,94.69,154.52Z"/><path class="cls-15" d="M94.69,145.51l-3.34-1.92a4.8,4.8,0,0,1-2-3.82c0-1.47.9-2.13,2-1.48l3.34,1.93a4.78,4.78,0,0,1,2,3.82C96.72,145.5,95.81,146.16,94.69,145.51Z"/><path class="cls-15" d="M94.69,137l-3.34-1.93a4.77,4.77,0,0,1-2-3.82c0-1.46.9-2.12,2-1.47l3.34,1.93a4.77,4.77,0,0,1,2,3.81C96.72,137,95.81,137.69,94.69,137Z"/><path class="cls-15" d="M94.69,163l-3.34-1.93a4.78,4.78,0,0,1-2-3.82c0-1.46.9-2.12,2-1.47l3.34,1.92a4.81,4.81,0,0,1,2,3.82C96.72,163,95.81,163.64,94.69,163Z"/><path class="cls-15" d="M104.79,160.34l-3.34-1.92a4.81,4.81,0,0,1-2-3.82c0-1.46.91-2.13,2-1.48l3.34,1.93a4.78,4.78,0,0,1,2,3.82C106.82,160.33,105.91,161,104.79,160.34Z"/><path class="cls-15" d="M104.79,151.34l-3.34-1.93a4.77,4.77,0,0,1-2-3.81c0-1.47.91-2.13,2-1.48l3.34,1.93a4.77,4.77,0,0,1,2,3.81C106.82,151.33,105.91,152,104.79,151.34Z"/><path class="cls-15" d="M104.79,142.87l-3.34-1.93a4.81,4.81,0,0,1-2-3.82c0-1.46.91-2.12,2-1.48l3.34,1.93a4.81,4.81,0,0,1,2,3.82C106.82,142.85,105.91,143.51,104.79,142.87Z"/><path class="cls-15" d="M104.79,168.82l-3.34-1.93a4.81,4.81,0,0,1-2-3.82c0-1.46.91-2.12,2-1.48l3.34,1.93a4.81,4.81,0,0,1,2,3.82C106.82,168.8,105.91,169.46,104.79,168.82Z"/><path class="cls-15" d="M114.88,166.17l-3.34-1.93a4.77,4.77,0,0,1-2-3.81c0-1.47.9-2.13,2-1.48l3.34,1.93a4.77,4.77,0,0,1,2,3.81C116.91,166.16,116,166.82,114.88,166.17Z"/><path class="cls-15" d="M114.88,157.17l-3.34-1.93a4.78,4.78,0,0,1-2-3.82c0-1.46.9-2.12,2-1.48l3.34,1.93a4.81,4.81,0,0,1,2,3.82C116.91,157.15,116,157.82,114.88,157.17Z"/><path class="cls-15" d="M114.88,148.7l-3.34-1.93a4.8,4.8,0,0,1-2-3.82c0-1.46.9-2.12,2-1.48l3.34,1.93a4.81,4.81,0,0,1,2,3.82C116.91,148.68,116,149.34,114.88,148.7Z"/><path class="cls-15" d="M114.88,174.64l-3.34-1.92a4.8,4.8,0,0,1-2-3.82c0-1.46.9-2.13,2-1.48l3.34,1.93a4.79,4.79,0,0,1,2,3.82C116.91,174.63,116,175.29,114.88,174.64Z"/><path class="cls-15" d="M124.49,171.72l-2.85-1.65a4.79,4.79,0,0,1-2-3.82c0-1.46.91-2.12,2-1.47l2.85,1.64a4.81,4.81,0,0,1,2,3.82C126.52,171.7,125.61,172.37,124.49,171.72Z"/><path class="cls-15" d="M124.49,162.72l-2.85-1.65a4.81,4.81,0,0,1-2-3.82c0-1.46.91-2.12,2-1.48l2.85,1.65a4.81,4.81,0,0,1,2,3.82C126.52,162.7,125.61,163.36,124.49,162.72Z"/><path class="cls-15" d="M124.49,154.24l-2.85-1.64a4.81,4.81,0,0,1-2-3.82c0-1.46.91-2.13,2-1.48l2.85,1.65a4.78,4.78,0,0,1,2,3.82C126.52,154.23,125.61,154.89,124.49,154.24Z"/><path class="cls-15" d="M124.49,180.19l-2.85-1.65a4.77,4.77,0,0,1-2-3.81c0-1.47.91-2.13,2-1.48l2.85,1.65a4.77,4.77,0,0,1,2,3.81C126.52,180.18,125.61,180.84,124.49,180.19Z"/><path class="cls-15" d="M133.64,177l-2.85-1.64a4.81,4.81,0,0,1-2-3.82c0-1.46.91-2.13,2-1.48l2.85,1.65a4.78,4.78,0,0,1,2,3.82C135.67,177,134.76,177.65,133.64,177Z"/><path class="cls-15" d="M133.64,168l-2.85-1.65a4.77,4.77,0,0,1-2-3.81c0-1.47.91-2.13,2-1.48l2.85,1.65a4.77,4.77,0,0,1,2,3.81C135.67,168,134.76,168.65,133.64,168Z"/><path class="cls-15" d="M133.64,159.53l-2.85-1.65a4.81,4.81,0,0,1-2-3.82c0-1.46.91-2.12,2-1.48l2.85,1.65a4.81,4.81,0,0,1,2,3.82C135.67,159.51,134.76,160.17,133.64,159.53Z"/><path class="cls-15" d="M133.64,185.48l-2.85-1.65a4.81,4.81,0,0,1-2-3.82c0-1.46.91-2.12,2-1.48l2.85,1.65a4.81,4.81,0,0,1,2,3.82C135.67,185.46,134.76,186.12,133.64,185.48Z"/><path class="cls-1" d="M260.85,144.87l7.77-4.54a1.12,1.12,0,0,0,0-2l-15.75-9Z"/><path class="cls-2" d="M258.62,144.91l-30.93-20.54a3.72,3.72,0,0,1-1.79-2.83l-2.08-43.39c-.09-2,2.88-2.79,3.87-2.21L260.75,95a3.74,3.74,0,0,1,1.79,2.83V142.7A2.8,2.8,0,0,1,258.62,144.91Z"/><path class="cls-13" d="M258.6,144.52l-33.05-19.08a3.72,3.72,0,0,1-1.79-2.83V77.76c0-1,.8-1.33,1.79-.76L258.6,96.09a3.71,3.71,0,0,1,1.8,2.82v44.85C260.4,144.75,259.59,145.09,258.6,144.52Z"/><g class="cls-4"><path d="M234.34,106.16l-7.67-4.43a1.76,1.76,0,0,1-.85-1.34V98.91c0-.47.38-.63.85-.36l7.67,4.43a1.76,1.76,0,0,1,.85,1.34v1.48C235.19,106.27,234.81,106.43,234.34,106.16Z"/></g><g class="cls-4"><path d="M234.41,88.73l-7.82-4.51a1.64,1.64,0,0,1-.77-1.23v-1.1c0-.43.35-.58.77-.33l7.82,4.51a1.62,1.62,0,0,1,.78,1.23v1.1C235.19,88.83,234.84,89,234.41,88.73Z"/></g><g class="cls-4"><path d="M257.48,108.2,226.6,90.36a1.59,1.59,0,0,1-.78-1.22V88c0-.43.35-.57.78-.33l30.88,17.84a1.59,1.59,0,0,1,.78,1.22v1.12C258.26,108.3,257.91,108.44,257.48,108.2Z"/></g><g class="cls-4"><path d="M257.48,113.27,226.6,95.44a1.62,1.62,0,0,1-.78-1.23V93.1c0-.43.35-.58.78-.33l30.88,17.83a1.62,1.62,0,0,1,.78,1.23v1.11C258.26,113.37,257.91,113.52,257.48,113.27Z"/></g><g class="cls-4"><path d="M234.34,111.23l-7.67-4.43a1.74,1.74,0,0,1-.85-1.33V104c0-.47.38-.63.85-.36l7.67,4.44a1.74,1.74,0,0,1,.85,1.33v1.49C235.19,111.34,234.81,111.5,234.34,111.23Z"/></g><g class="cls-4"><path d="M234.34,116.31l-7.67-4.43a1.76,1.76,0,0,1-.85-1.34v-1.48c0-.47.38-.63.85-.36l7.67,4.43a1.76,1.76,0,0,1,.85,1.34V116C235.19,116.42,234.81,116.58,234.34,116.31Z"/></g><g class="cls-4"><path d="M234.34,121.38,226.67,117a1.76,1.76,0,0,1-.85-1.33v-1.49c0-.47.38-.63.85-.36l7.67,4.43a1.76,1.76,0,0,1,.85,1.34V121C235.19,121.49,234.81,121.65,234.34,121.38Z"/></g><g class="cls-4"><path d="M234.34,126.46,226.67,122a1.76,1.76,0,0,1-.85-1.34V119.2c0-.46.38-.62.85-.35l7.67,4.43a1.76,1.76,0,0,1,.85,1.33v1.49C235.19,126.57,234.81,126.73,234.34,126.46Z"/></g><g class="cls-4"><path d="M245.87,112.82l-7.67-4.43a1.76,1.76,0,0,1-.85-1.34v-1.48c0-.47.38-.63.85-.36l7.67,4.43a1.76,1.76,0,0,1,.85,1.34v1.48C246.72,112.93,246.34,113.09,245.87,112.82Z"/></g><g class="cls-4"><path d="M245.87,117.89l-7.67-4.43a1.76,1.76,0,0,1-.85-1.34v-1.48c0-.47.38-.63.85-.36l7.67,4.43a1.76,1.76,0,0,1,.85,1.34v1.48C246.72,118,246.34,118.16,245.87,117.89Z"/></g><g class="cls-4"><path d="M245.87,123l-7.67-4.44a1.74,1.74,0,0,1-.85-1.33v-1.49c0-.46.38-.62.85-.35l7.67,4.43a1.76,1.76,0,0,1,.85,1.33v1.49C246.72,123.08,246.34,123.24,245.87,123Z"/></g><g class="cls-4"><path d="M245.87,128l-7.67-4.43a1.76,1.76,0,0,1-.85-1.34v-1.48c0-.47.38-.63.85-.36l7.67,4.43a1.76,1.76,0,0,1,.85,1.34v1.48C246.72,128.15,246.34,128.31,245.87,128Z"/></g><g class="cls-4"><path d="M257.42,119.48l-7.68-4.43a1.76,1.76,0,0,1-.85-1.33v-1.49c0-.47.38-.63.85-.36l7.68,4.43a1.77,1.77,0,0,1,.84,1.34v1.49C258.26,119.59,257.88,119.75,257.42,119.48Z"/></g><g class="cls-4"><path d="M257.42,124.56l-7.68-4.43a1.76,1.76,0,0,1-.85-1.34v-1.48c0-.47.38-.63.85-.36l7.68,4.43a1.77,1.77,0,0,1,.84,1.33v1.49C258.26,124.67,257.88,124.83,257.42,124.56Z"/></g><g class="cls-4"><path d="M257.42,129.63l-7.68-4.43a1.76,1.76,0,0,1-.85-1.34v-1.48c0-.47.38-.63.85-.36l7.68,4.43a1.77,1.77,0,0,1,.84,1.34v1.48C258.26,129.74,257.88,129.9,257.42,129.63Z"/></g><g class="cls-4"><path d="M257.42,134.71l-7.68-4.44a1.74,1.74,0,0,1-.85-1.33v-1.49c0-.46.38-.63.85-.36l7.68,4.44a1.75,1.75,0,0,1,.84,1.33v1.49C258.26,134.81,257.88,135,257.42,134.71Z"/></g><polygon class="cls-16" points="222.04 147.36 215.02 147.46 215.47 142.96 222.04 147.36"/><polygon class="cls-16" points="202.05 101.47 195.03 101.56 195.48 97.07 202.05 101.47"/><path class="cls-17" d="M70.81,166.62l0,0a22.6,22.6,0,0,0-1.78-5.85,7.49,7.49,0,0,1-.12-4,42.91,42.91,0,0,0,.72-7.71,20.91,20.91,0,1,0-39.9,9.18,9.51,9.51,0,0,0-.57,3.26,9.62,9.62,0,0,0,9.31,9.6h0a19.13,19.13,0,0,0,4.44-.5,2.44,2.44,0,0,1,1.64,0c.69.19,2.92.66,4.56,1A13.27,13.27,0,0,1,54,173.89c1.89,1.19,3.54,2.39,6.5,2.75a9.36,9.36,0,0,0,1.3.09,9.11,9.11,0,0,0,9.11-9.1A8.31,8.31,0,0,0,70.81,166.62Z"/><path class="cls-18" d="M70.81,166.62l0,0a22.6,22.6,0,0,0-1.78-5.85,7.49,7.49,0,0,1-.12-4,42.91,42.91,0,0,0,.72-7.71,20.93,20.93,0,0,0-.61-4.65,23.78,23.78,0,0,1-3.6,14.38c-4.39,6.75-14.92,10.1-21.62,7.41s-10.15-5.66-12.18-9.06-2.78-1.2-1.89,1.1a9.32,9.32,0,0,0-.55,3.82,9.18,9.18,0,0,0,2.45,5.86,9.54,9.54,0,0,0,6.84,3.18h0a19.13,19.13,0,0,0,4.44-.5,2.44,2.44,0,0,1,1.64,0c.69.19,2.92.66,4.56,1A13.27,13.27,0,0,1,54,173.89c1.89,1.19,3.54,2.39,6.5,2.75a9.36,9.36,0,0,0,1.3.09,9.11,9.11,0,0,0,9.11-9.1A8.31,8.31,0,0,0,70.81,166.62Zm-38.75-1.9a1.66,1.66,0,0,1-2.17-1.51c-.14-1-.17-3.18.31-3.35.7-.25.89.12,1.41.87a7.52,7.52,0,0,0,1.63,1.77C33.74,162.86,33.31,164.35,32.06,164.72ZM70,168.24c-.43,4.34-5.37,6.34-7.35,6.5S55.07,172,58.84,170a40.86,40.86,0,0,0,8.06-6.05C68.09,163,70.39,163.9,70,168.24Z"/><path d="M45.26,147a1.85,1.85,0,0,1-2-1.69v-4.41a2,2,0,0,1,3.94,0v4.41A1.85,1.85,0,0,1,45.26,147Z"/><path d="M61.61,147.23a1.85,1.85,0,0,1-2-1.69v-4.41a2,2,0,0,1,3.94,0v4.41A1.85,1.85,0,0,1,61.61,147.23Z"/></g></svg>