<svg xmlns="http://www.w3.org/2000/svg" xmlns:xlink="http://www.w3.org/1999/xlink" viewBox="0 0 300 250"><defs><style>.cls-1,.cls-15,.cls-16,.cls-17,.cls-18{fill:none;}.cls-2{fill:#44afcc;}.cls-3{fill:#4fc8f4;}.cls-4{fill:#fff;}.cls-5{opacity:0.7;}.cls-6{fill:#e6e6e6;}.cls-7{fill:#e7e7e7;}.cls-8{fill:#a8c7d3;}.cls-9{fill:#f8ab31;}.cls-10{fill:#4fc7f3;}.cls-11{fill:#afd148;}.cls-12{fill:#ec325a;}.cls-13{fill:#338092;}.cls-14{opacity:0.05;}.cls-15,.cls-16,.cls-17,.cls-18{stroke:#e7e7e7;stroke-linecap:round;stroke-miterlimit:10;stroke-width:1.55px;}.cls-16{stroke-dasharray:2.06 4.12;}.cls-17{stroke-dasharray:1.98 3.96;}.cls-18{stroke-dasharray:1.46 2.92;}.cls-19{clip-path:url(#clip-path);}.cls-20{opacity:0.1;}</style><clipPath id="clip-path"><polygon class="cls-1" points="123.08 160.51 159.71 139.9 145.25 132.3 109.16 152.31 123.08 160.51"/></clipPath></defs><g id="Layer_1" data-name="Layer 1"><path class="cls-2" d="M83.19,16.55a10.68,10.68,0,0,0,0,19.45V83.3a10.68,10.68,0,0,0,0,19.45v52.3a10.69,10.69,0,1,0,8-.36V103.1a10.68,10.68,0,0,0,0-20.15V36.36a10.69,10.69,0,0,0,0-20.16"/><circle class="cls-3" cx="87.63" cy="26.58" r="10.7"/><rect class="cls-4" x="108.71" y="20.91" width="71.21" height="8.95" rx="1.76"/><rect class="cls-4" x="108.71" y="33.58" width="56.26" height="8.95" rx="1.76"/><g class="cls-5"><rect class="cls-4" x="108.71" y="81.55" width="71.21" height="8.95" rx="1.76"/></g><g class="cls-5"><rect class="cls-4" x="108.71" y="94.22" width="30.13" height="8.95" rx="1.76"/></g><polygon class="cls-6" points="160.79 238 234.81 194.61 234.81 190.94 126.62 128.97 53.64 171.88 53.64 176.28 160.79 238"/><polygon class="cls-4" points="55.15 171.86 63.59 166.66 127.13 129.98 233.24 191.24 160.53 233.22 55.15 171.86"/><path class="cls-7" d="M127.13,130.87l104.56,60.37-71.16,41.08L56.66,171.84l7.3-4.5,63.17-36.47m0-1.79L63.18,166l-9.54,5.87,106.89,62.24,74.26-42.87L127.13,129.08Z"/><path class="cls-8" d="M81.6,177.15l10.32-6c1.14-.66,1-1.81-.32-2.57a4.94,4.94,0,0,0-4.45-.18l-10.31,6c-1.14.66-1,1.81.32,2.57A4.92,4.92,0,0,0,81.6,177.15Z"/><path class="cls-8" d="M74.05,173.26l10.72-6.19c1.14-.66,1-1.81-.32-2.57a4.92,4.92,0,0,0-4.44-.18l-10.73,6.19c-1.14.66-1,1.81.32,2.57A4.94,4.94,0,0,0,74.05,173.26Z"/><path class="cls-9" d="M88.69,182.63l27.22-15.78c1.14-.66,1-1.8-.32-2.56a4.94,4.94,0,0,0-4.45-.19L83.92,179.88c-1.14.66-1,1.81.32,2.57A5,5,0,0,0,88.69,182.63Z"/><path class="cls-10" d="M129.18,206l57.76-33.35c1.14-.66,1-1.81-.32-2.57a5,5,0,0,0-4.45-.18l-57.75,33.35c-1.14.66-1,1.8.31,2.56A4.94,4.94,0,0,0,129.18,206Z"/><path class="cls-11" d="M145.85,215.63l57.76-33.34c1.14-.66,1-1.81-.32-2.57a4.92,4.92,0,0,0-4.44-.18l-57.76,33.34c-1.14.66-1,1.81.32,2.57A4.92,4.92,0,0,0,145.85,215.63Z"/><path class="cls-11" d="M138.23,211.23,196,177.89c1.14-.66,1-1.81-.32-2.57a4.94,4.94,0,0,0-4.45-.18l-57.75,33.34c-1.14.66-1,1.81.32,2.57A4.92,4.92,0,0,0,138.23,211.23Z"/><path class="cls-9" d="M96.31,187l57.76-33.35c1.14-.65,1-1.8-.32-2.56a5,5,0,0,0-4.45-.19L91.54,184.28c-1.13.66-1,1.81.32,2.57A4.94,4.94,0,0,0,96.31,187Z"/><path class="cls-9" d="M104.64,191l20.63-11.91c1.14-.66,1-1.81-.32-2.57a4.92,4.92,0,0,0-4.44-.18L99.88,188.24c-1.14.66-1,1.81.32,2.57A5,5,0,0,0,104.64,191Z"/><path class="cls-12" d="M146,177.6l24.75-14.29c1.14-.66,1-1.81-.32-2.57a4.92,4.92,0,0,0-4.44-.18l-24.76,14.29c-1.14.66-1,1.81.32,2.57A4.94,4.94,0,0,0,146,177.6Z"/><path class="cls-12" d="M153.13,181.73l24.76-14.29c1.14-.66,1-1.81-.32-2.57a5,5,0,0,0-4.45-.19L148.37,179c-1.14.65-1,1.8.32,2.56A5,5,0,0,0,153.13,181.73Z"/><path class="cls-13" d="M114.22,195.94l22.69-13.1c1.14-.66,1-1.81-.32-2.56a4.92,4.92,0,0,0-4.44-.19l-22.69,13.1c-1.14.66-1,1.81.32,2.57A4.92,4.92,0,0,0,114.22,195.94Z"/><path class="cls-13" d="M121.64,199.89,132,193.94c1.14-.66,1-1.81-.32-2.57a5,5,0,0,0-4.44-.19l-10.31,6c-1.14.66-1,1.81.32,2.57A4.92,4.92,0,0,0,121.64,199.89Z"/><polygon class="cls-14" points="160.53 233.38 228.7 194.41 184.48 171.13 117.82 208.55 160.53 233.38"/><polygon class="cls-6" points="160.79 210.49 234.81 167.11 234.81 163.44 190.07 140.34 117.82 181.78 117.82 186.18 160.79 210.49"/><polygon class="cls-4" points="119.38 181.78 190.59 141.33 233.19 163.76 160.53 205.71 119.38 181.78"/><path class="cls-7" d="M190.6,142.22l41,21.58-71.05,41-39.6-23,69.67-39.57m0-1.77-72.76,41.33,42.71,24.83,74.26-42.88-44.21-23.28Z"/><path class="cls-11" d="M154,192.8l57.76-33.34c1.14-.66,1-1.81-.32-2.57a4.92,4.92,0,0,0-4.44-.18l-57.76,33.34c-1.14.66-1,1.81.32,2.57A4.92,4.92,0,0,0,154,192.8Z"/><path class="cls-11" d="M145.85,188.13l57.76-33.35c1.14-.66,1-1.8-.32-2.56a4.92,4.92,0,0,0-4.44-.19l-57.76,33.35c-1.14.66-1,1.8.32,2.56A4.92,4.92,0,0,0,145.85,188.13Z"/><path class="cls-11" d="M138.23,183.73,196,150.38c1.14-.66,1-1.81-.32-2.57a5,5,0,0,0-4.45-.18L133.47,181c-1.14.66-1,1.8.32,2.56A4.92,4.92,0,0,0,138.23,183.73Z"/><path class="cls-7" d="M172.88,186.08l-15,8.74c-1.14.66-1,1.81.32,2.57s2.46.08,3.6-.58l13.57-7.7c3.78-2,4.49-5.08,4.43-8.18l0-1.06a5.09,5.09,0,0,0-1.83-4.2c-1.1-1.1-3.32-1.44-3.3-.13l1.1,3.36C175.76,182.14,176.5,184.34,172.88,186.08Z"/><path class="cls-11" d="M171.78,185.71l-15,8.74c-1.14.66-1,1.81.32,2.57a4.92,4.92,0,0,0,4.44.18l13.25-7.73c3.51-2.19,4.66-5,4.66-8.79v-1.5a5.8,5.8,0,0,0-2.67-4c-1.33-.74-2.39-.28-2.37,1l.23,2.35C174.66,181.78,175.4,184,171.78,185.71Z"/><line class="cls-15" x1="234.44" y1="163.44" x2="234.44" y2="164.44"/><line class="cls-16" x1="234.44" y1="168.56" x2="234.44" y2="191.19"/><line class="cls-15" x1="234.44" y1="193.25" x2="234.44" y2="194.25"/><line class="cls-15" x1="160.73" y1="206.72" x2="160.73" y2="207.72"/><line class="cls-17" x1="160.73" y1="211.67" x2="160.73" y2="233.44"/><line class="cls-15" x1="160.73" y1="235.42" x2="160.73" y2="236.42"/><line class="cls-15" x1="118.19" y1="182.51" x2="118.19" y2="183.51"/><line class="cls-17" x1="118.19" y1="187.47" x2="118.19" y2="209.24"/><line class="cls-15" x1="118.19" y1="211.22" x2="118.19" y2="212.22"/><polygon class="cls-14" points="123.45 170.04 160.08 149.44 145.62 141.83 109.53 161.85 123.45 170.04"/><polygon class="cls-6" points="123.34 164.4 159.73 143.21 159.73 139.9 145.25 132.18 109.16 152.31 109.16 155.98 123.34 164.4"/><polygon class="cls-4" points="110.72 152.33 145.26 133.18 158.09 139.92 123.09 159.61 110.72 152.33"/><path class="cls-7" d="M145.27,134.06,156.46,140,123.1,158.72l-10.81-6.37,33-18.29m0-1.76-36.09,20,13.92,8.2,36.63-20.61-14.46-7.6Z"/><path class="cls-9" d="M126.25,153.07l20.93-11.86c1.14-.65,1-1.8-.32-2.56a5,5,0,0,0-4.45-.19l-20.92,11.85c-1.14.66-1,1.81.32,2.57A5,5,0,0,0,126.25,153.07Z"/><line class="cls-15" x1="109.55" y1="152.45" x2="109.55" y2="153.45"/><line class="cls-18" x1="109.55" y1="156.37" x2="109.55" y2="159.29"/><line class="cls-15" x1="109.55" y1="160.75" x2="109.55" y2="161.75"/><line class="cls-15" x1="123.42" y1="160" x2="123.42" y2="161"/><line class="cls-18" x1="123.42" y1="163.92" x2="123.42" y2="166.83"/><line class="cls-15" x1="123.42" y1="168.29" x2="123.42" y2="169.29"/><line class="cls-15" x1="159.44" y1="140.04" x2="159.44" y2="141.04"/><line class="cls-18" x1="159.44" y1="143.96" x2="159.44" y2="146.88"/><line class="cls-15" x1="159.44" y1="148.33" x2="159.44" y2="149.33"/><g class="cls-19"><ellipse class="cls-14" cx="140.09" cy="138.74" rx="12.12" ry="4.66"/></g><path class="cls-10" d="M225.6,148.61h0a21.8,21.8,0,0,0-3.92-2.41A3.48,3.48,0,0,1,220,143a49.42,49.42,0,0,0-.49-5.33,18.6,18.6,0,0,0-1.64-5.33.41.41,0,0,0-.05-.09,2,2,0,0,0-.1-.21h0a27.81,27.81,0,0,0-5.17-7.41c-1.34-1.44-5.22-6.26-7.48-7.33A10.78,10.78,0,0,0,201,116h0c-.32,0-.64,0-1,0a9.14,9.14,0,0,0-7.51,3.91h0c-.77.79-3.88,8.07-5.42,13.9a16.52,16.52,0,0,0-.85,4.53c0,.13,0,.26,0,.38h0v.41a16.49,16.49,0,0,0,.85,5.24,14.24,14.24,0,0,0,3,5.63,17,17,0,0,0,12.9,6.18,29.82,29.82,0,0,0,9.87-1.94,2.87,2.87,0,0,1,3.06.59,20,20,0,0,0,3.26,2.69,5.5,5.5,0,0,0,6.49-8.85Z"/><path class="cls-20" d="M218.76,155.22c-2.5-2.23,1.79-6.6,2.2-7.53s.37-1.16-.21-2.27A4.28,4.28,0,0,1,220,143a41,41,0,0,0-.79-6.84c.82,6.94-6.38,13.75-12.93,15.68s-14.15-4.08-15.61-6.6-2.56-3.15-3.14-3-1,.34-.54,2a14.24,14.24,0,0,0,3,5.62,17,17,0,0,0,12.9,6.18,29.82,29.82,0,0,0,9.87-1.94,2.87,2.87,0,0,1,3.06.59,20,20,0,0,0,3.26,2.69,5.51,5.51,0,0,0,8.4-4.68C226.23,157.45,221.26,157.46,218.76,155.22Z"/><path d="M194.27,138a1.46,1.46,0,0,1-1.56-1.33v-3.49a1.58,1.58,0,0,1,3.12,0v3.49A1.46,1.46,0,0,1,194.27,138Z"/><path d="M207.18,138.18a1.46,1.46,0,0,1-1.56-1.34v-3.48a1.58,1.58,0,0,1,3.12,0v3.48A1.46,1.46,0,0,1,207.18,138.18Z"/><path class="cls-14" d="M216.39,161.18a23.53,23.53,0,0,0-2.73.15c-.74-2.31-5.7-4.1-11.73-4.1-6.53,0-11.82,2.1-11.82,4.7s5.29,4.69,11.82,4.69a24,24,0,0,0,8-1.24,17.29,17.29,0,0,0,6.46,1.05c4.46,0,8.07-1.18,8.07-2.63S220.85,161.18,216.39,161.18Z"/></g></svg>