<svg xmlns="http://www.w3.org/2000/svg" viewBox="0 0 300 250"><defs><style>.cls-1{font-size:30.12px;font-family:SourceCodePro-Bold, Source Code Pro;font-weight:700;}.cls-1,.cls-6{fill:#ec325a;}.cls-2{opacity:0.6;}.cls-3{fill:#4fc8f4;}.cls-4{fill:#fff;}.cls-5{opacity:0.05;}.cls-7{opacity:0.1;}</style></defs><g id="Layer_1" data-name="Layer 1"><text class="cls-1" transform="translate(24.25 61.07)">&gt;</text><g class="cls-2"><path class="cls-3" d="M51.45,55.2a5.76,5.76,0,0,0,3.44,1.4c1.41,0,2-.49,2-1.3s-.78-1.11-2.08-1.61L53.1,53a3.91,3.91,0,0,1-2.87-3.67c0-2.22,2-4,4.93-4a6.53,6.53,0,0,1,4.48,1.78L58.09,49a4.65,4.65,0,0,0-2.93-1.07c-1.17,0-1.85.46-1.85,1.22s.9,1.11,2.2,1.58l1.63.71c1.77.66,2.89,1.75,2.89,3.65,0,2.22-1.88,4.16-5.22,4.16a7.75,7.75,0,0,1-5.11-1.94Z"/><path class="cls-3" d="M63,45.53h8.86v2.56H66v2.7h5v2.53H66v3.1h6V59H63Z"/><path class="cls-3" d="M75.6,45.53h3V56.42h6V59h-9Z"/><path class="cls-3" d="M87.7,45.53h8.86v2.56H90.73v2.7h5v2.53h-5v3.1h6V59H87.7Z"/><path class="cls-3" d="M105.67,45.28a5.75,5.75,0,0,1,4,1.71L108,48.87a3.28,3.28,0,0,0-2.31-1c-1.9,0-3.3,1.63-3.3,4.33s1.4,4.37,3.42,4.37a3.18,3.18,0,0,0,2.39-1.19l1.67,1.83a5.4,5.4,0,0,1-4.24,2c-3.47,0-6.35-2.37-6.35-6.89S102.08,45.28,105.67,45.28Z"/><path class="cls-3" d="M115.15,48.09h-4V45.53h11.1v2.56h-4V59h-3Z"/><path class="cls-4" d="M56,73.23a5.68,5.68,0,0,1,3.83,1.38l-1.4,1.87a3.88,3.88,0,0,0-2.27-.8,2.78,2.78,0,0,0-3,2.91A2.73,2.73,0,0,0,56,81.49a4.68,4.68,0,0,0,2.7-1L60,82.44A6.71,6.71,0,0,1,55.74,84c-3.22,0-5.69-2-5.69-5.36S52.81,73.23,56,73.23Z"/><path class="cls-4" d="M67.22,73.23A5.36,5.36,0,1,1,62,78.59,5.12,5.12,0,0,1,67.22,73.23Zm0,8.26c1.4,0,2.1-1.13,2.1-2.9s-.7-2.91-2.1-2.91-2.11,1.13-2.11,2.91S65.81,81.49,67.22,81.49Z"/><path class="cls-4" d="M84.22,83.7H81.74l-.22-1.46h-.08A4.44,4.44,0,0,1,78,84c-2.33,0-3.32-1.59-3.32-4.17V73.47h3v5.92c0,1.36.35,2,1.49,2a2.34,2.34,0,0,0,2-1.17V73.47h3Z"/><path class="cls-4" d="M87.24,73.47h2.48l.22,1.37H90a4.91,4.91,0,0,1,3.52-1.61c2.31,0,3.34,1.59,3.34,4.16V83.7h-3V77.78c0-1.36-.39-2-1.5-2a2.84,2.84,0,0,0-2.09,1.08V83.7h-3Z"/><path class="cls-4" d="M101.71,75.85H99.13V73.6l2.72-.13.4-2.72h2.49v2.72h4.33v2.38h-4.33v3.58c0,1.55.66,2.15,2.14,2.15a6.19,6.19,0,0,0,2-.37l.54,2.18a11.43,11.43,0,0,1-3.34.56c-3.26,0-4.41-1.82-4.41-4.5Z"/><path class="cls-4" d="M112.88,73.47h2.47l.25,2.23h.06a4.74,4.74,0,0,1,4.14-2.47,4.19,4.19,0,0,1,2,.41l-.62,2.53a5.73,5.73,0,0,0-1.81-.28,3.77,3.77,0,0,0-3.44,2.49V83.7h-3Z"/><path class="cls-4" d="M125.57,85.31A2.07,2.07,0,0,0,127.71,84l.21-.54-4.43-10h3l1.71,4.4c.37,1,.7,2,1,3.07h.08c.27-1,.62-2.06.93-3.07l1.51-4.4h2.86l-4,10.33c-1,2.58-2.21,3.9-4.78,3.9a5.52,5.52,0,0,1-1.57-.21l.54-2.31A2.48,2.48,0,0,0,125.57,85.31Z"/><path class="cls-4" d="M139,86.4c1.79-.62,2.68-1.63,2.68-2.93a.93.93,0,0,1-.23,0,2.09,2.09,0,0,1-2.23-2.1,2.15,2.15,0,0,1,2.31-2.12c1.69,0,2.56,1.32,2.56,3.54,0,2.62-1.49,4.5-4.33,5.36Z"/><path class="cls-4" d="M152.09,84.5v3h-3v-14h2.48l.22,1h.06a4.75,4.75,0,0,1,3.05-1.28c2.56,0,4.11,2,4.11,5.19,0,3.51-2.15,5.53-4.44,5.53A3.66,3.66,0,0,1,152,82.83Zm1.75-3c1.14,0,2-.9,2-3,0-1.83-.59-2.76-1.87-2.76a2.6,2.6,0,0,0-1.9,1v4.14A2.72,2.72,0,0,0,153.84,81.47Z"/><path class="cls-4" d="M166.12,73.23a5.36,5.36,0,1,1-5.21,5.36A5.13,5.13,0,0,1,166.12,73.23Zm0,8.26c1.41,0,2.11-1.13,2.11-2.9s-.7-2.91-2.11-2.91-2.1,1.13-2.1,2.91S164.72,81.49,166.12,81.49Z"/><path class="cls-4" d="M176.82,84.5v3h-3v-14h2.47l.23,1h.06a4.75,4.75,0,0,1,3-1.28c2.56,0,4.1,2,4.1,5.19,0,3.51-2.14,5.53-4.43,5.53a3.66,3.66,0,0,1-2.55-1.12Zm1.75-3c1.13,0,2-.9,2-3,0-1.83-.6-2.76-1.87-2.76a2.6,2.6,0,0,0-1.9,1v4.14A2.72,2.72,0,0,0,178.57,81.47Z"/><path class="cls-4" d="M195.8,84.81v2.27h-9.89V84.81Z"/><path class="cls-4" d="M198.23,82c3.75-3.16,6.26-5.38,6.26-7.26a1.87,1.87,0,0,0-2.14-2,4,4,0,0,0-2.64,1.34l-1.63-1.63a6,6,0,0,1,4.68-2.08c2.74,0,4.62,1.65,4.62,4.17,0,2.2-2.27,4.55-4.8,6.78.74-.08,1.69-.17,2.37-.17h3.11V83.7h-9.83Z"/><path class="cls-4" d="M210.55,77.1c0-4.45,2-6.74,5-6.74s5,2.29,5,6.74-2,6.85-5,6.85S210.55,81.54,210.55,77.1Zm2.7,0c0,3.4,1,4.5,2.33,4.5s2.33-1.1,2.33-4.5-1-4.39-2.33-4.39S213.25,73.7,213.25,77.1Zm.78,0a1.55,1.55,0,1,1,1.55,1.57A1.49,1.49,0,0,1,214,77.06Z"/><path class="cls-4" d="M223,82c3.76-3.16,6.27-5.38,6.27-7.26a1.87,1.87,0,0,0-2.14-2,4,4,0,0,0-2.64,1.34l-1.63-1.63a6,6,0,0,1,4.68-2.08c2.74,0,4.62,1.65,4.62,4.17,0,2.2-2.27,4.55-4.81,6.78.75-.08,1.69-.17,2.37-.17h3.12V83.7H223Z"/><path class="cls-4" d="M235.28,77.1c0-4.45,2-6.74,5-6.74s5,2.29,5,6.74-2,6.85-5,6.85S235.28,81.54,235.28,77.1Zm2.7,0c0,3.4,1,4.5,2.33,4.5s2.33-1.1,2.33-4.5-1-4.39-2.33-4.39S238,73.7,238,77.1Zm.78,0a1.55,1.55,0,1,1,1.55,1.57A1.49,1.49,0,0,1,238.76,77.06Z"/><path class="cls-3" d="M50.89,95h8.87v2.55H53.92v3.12h5v2.55h-5v5.22h-3Z"/><path class="cls-3" d="M69.67,108.43l-2.58-4.85H65.51v4.85h-3V95h4.77c2.84,0,5.19,1,5.19,4.18A4,4,0,0,1,70,103.05l3,5.38Zm-4.16-7.26H67c1.61,0,2.45-.68,2.45-2S68.6,97.4,67,97.4H65.51Z"/><path class="cls-3" d="M74.18,101.64c0-4.39,2.2-6.9,5.4-6.9s5.4,2.54,5.4,6.9-2.21,7-5.4,7S74.18,106,74.18,101.64Zm7.69,0c0-2.67-.89-4.28-2.29-4.28s-2.29,1.61-2.29,4.28.89,4.42,2.29,4.42S81.87,104.35,81.87,101.64Z"/><path class="cls-3" d="M87.1,95h3l1.36,4.76.45,1.85H92l.45-1.85L93.76,95h3v13.44H94.34V104c0-1.47.24-4.64.39-6.08h-.06l-1.06,3.68-1,3.2H91.24l-1-3.2L89.2,98h-.08c.14,1.44.39,4.61.39,6.08v4.39H87.1Z"/><path class="cls-4" d="M50.15,118.7h3v3.55l-.08,1.61A4.33,4.33,0,0,1,56,122.68c2.55,0,4.12,2,4.12,5.18,0,3.52-2.15,5.54-4.43,5.54A4,4,0,0,1,52.85,132h-.08l-.25,1.11H50.15ZM55,130.93c1.11,0,2-.91,2-3,0-1.84-.6-2.76-1.88-2.76a2.59,2.59,0,0,0-1.9.94v4.15A2.79,2.79,0,0,0,55,130.93Z"/><path class="cls-4" d="M63.34,129.65a4.81,4.81,0,0,0,3.09,1.3c1.49,0,2.54-.7,2.54-2s-1-2-2.39-2a3.82,3.82,0,0,0-2.21.66L63,126.68l.35-6.62h8v2.56H66l-.23,2.45a4.58,4.58,0,0,1,1.73-.31c2.42,0,4.5,1.28,4.5,4.07s-2.43,4.57-5.13,4.57A6.75,6.75,0,0,1,62,131.57Z"/><path class="cls-4" d="M77.46,136.45H74.92l6.78-17.93h2.54Z"/><path class="cls-4" d="M90.27,134v3h-3v-14h2.48l.22,1H90a4.76,4.76,0,0,1,3-1.28c2.55,0,4.1,2,4.1,5.2,0,3.5-2.14,5.52-4.43,5.52a3.7,3.7,0,0,1-2.56-1.11Zm1.76-3c1.13,0,2-.91,2-3,0-1.84-.6-2.76-1.88-2.76a2.59,2.59,0,0,0-1.9.94v4.15A2.78,2.78,0,0,0,92,130.93Z"/><path class="cls-4" d="M104.31,122.68A5.36,5.36,0,1,1,99.09,128,5.12,5.12,0,0,1,104.31,122.68Zm0,8.27c1.4,0,2.1-1.14,2.1-2.91s-.7-2.91-2.1-2.91-2.11,1.14-2.11,2.91S102.91,131,104.31,131Z"/><path class="cls-4" d="M115,134v3h-3v-14h2.47l.23,1h.06a4.8,4.8,0,0,1,3-1.28c2.56,0,4.11,2,4.11,5.2,0,3.5-2.15,5.52-4.44,5.52a3.69,3.69,0,0,1-2.55-1.11Zm1.75-3c1.14,0,2-.91,2-3,0-1.84-.6-2.76-1.87-2.76a2.59,2.59,0,0,0-1.9.94v4.15A2.78,2.78,0,0,0,116.75,130.93Z"/><path class="cls-4" d="M133.67,133.15H131.2l-.23-1.46h-.08a4.43,4.43,0,0,1-3.44,1.71c-2.33,0-3.32-1.59-3.32-4.16v-6.31h3v5.92c0,1.36.35,2,1.48,2a2.3,2.3,0,0,0,2-1.17v-6.72h3Z"/><path class="cls-4" d="M136.49,118.7h6v10.58a1.51,1.51,0,0,0,1.65,1.67,4.27,4.27,0,0,0,1.61-.33l.68,2.22a9.06,9.06,0,0,1-3.07.56c-2.58,0-3.9-1.65-3.9-4.25v-8.06h-3Z"/><path class="cls-4" d="M155.58,126.58c-.11-.93-.81-1.49-2.19-1.49a7,7,0,0,0-3.11,1l-1.07-2a9.69,9.69,0,0,1,4.78-1.38c2.86,0,4.62,1.49,4.62,4.62v5.85h-2.48l-.22-1.15h-.09a6.22,6.22,0,0,1-3.63,1.4,3.1,3.1,0,0,1-3.36-3.09C148.83,128,150.73,126.87,155.58,126.58Zm-2.42,4.47a4,4,0,0,0,2.42-1v-1.69c-3,.17-3.84.81-3.84,1.69C151.74,130.74,152.3,131.05,153.16,131.05Z"/><path class="cls-4" d="M163.53,125.3H161v-2.25l2.72-.12.39-2.72h2.5v2.72h4.33v2.37h-4.33v3.59c0,1.54.66,2.14,2.14,2.14a6,6,0,0,0,2-.37l.54,2.18a11.43,11.43,0,0,1-3.34.56c-3.26,0-4.41-1.81-4.41-4.49Z"/><path class="cls-4" d="M173.93,122.93h7.14v10.22h-3V125.3h-4.1Zm3.47-3.34a2,2,0,0,1,4,0,2,2,0,0,1-4,0Z"/><path class="cls-4" d="M190.85,122.68a5.36,5.36,0,1,1-5.21,5.36A5.13,5.13,0,0,1,190.85,122.68Zm0,8.27c1.4,0,2.11-1.14,2.11-2.91s-.71-2.91-2.11-2.91-2.1,1.14-2.1,2.91S189.45,131,190.85,131Z"/><path class="cls-4" d="M198.52,122.93H201l.23,1.36h.08a4.91,4.91,0,0,1,3.52-1.61c2.31,0,3.34,1.59,3.34,4.17v6.3h-3v-5.91c0-1.36-.39-2-1.5-2a2.82,2.82,0,0,0-2.08,1.07v6.82h-3Z"/><polygon class="cls-5" points="187.94 123.51 187.94 132.52 185.88 131.68 185.79 125.39 187.94 123.51"/></g><path class="cls-5" d="M184.09,205.37l38.29-24.52a1.93,1.93,0,0,0,0-3.35L183.72,155Z"/><path class="cls-6" d="M180.28,205.43l-53-35.21a6.36,6.36,0,0,1-3.07-4.84L120.61,91c-.16-3.47,4.93-4.77,6.63-3.79l56.68,32.72a6.39,6.39,0,0,1,3.07,4.85v76.9A4.79,4.79,0,0,1,180.28,205.43Z"/><path class="cls-5" d="M180.28,205.43l-53-35.21a6.36,6.36,0,0,1-3.07-4.84L120.61,91c-.16-3.47,4.93-4.77,6.63-3.79l56.68,32.72a6.39,6.39,0,0,1,3.07,4.85v76.9A4.79,4.79,0,0,1,180.28,205.43Z"/><path class="cls-6" d="M180.25,205.77l-56.68-32.72a6.36,6.36,0,0,1-3.07-4.85V90.3c0-1.69,1.37-2.27,3.07-1.29l56.68,32.72a6.39,6.39,0,0,1,3.07,4.84v77.9C183.32,206.17,181.94,206.75,180.25,205.77Z"/><g class="cls-7"><path d="M138.65,139l-13.16-7.6a3,3,0,0,1-1.46-2.29v-2.54c0-.81.66-1.08,1.46-.62l13.16,7.6a3,3,0,0,1,1.45,2.29v2.55C140.1,139.19,139.45,139.46,138.65,139Z"/></g><g class="cls-7"><path d="M138.77,109.12l-13.41-7.75A2.76,2.76,0,0,1,124,99.28v-1.9c0-.73.6-1,1.33-.56l13.41,7.74a2.76,2.76,0,0,1,1.33,2.09v1.9C140.1,109.29,139.5,109.54,138.77,109.12Z"/></g><g class="cls-7"><path d="M178.33,142.49l-53-30.58a2.74,2.74,0,0,1-1.34-2.1V107.9c0-.74.6-1,1.34-.56l53,30.57a2.79,2.79,0,0,1,1.33,2.1v1.92C179.66,142.66,179.06,142.92,178.33,142.49Z"/></g><g class="cls-7"><path d="M178.33,151.19l-53-30.57a2.78,2.78,0,0,1-1.34-2.1V116.6c0-.74.6-1,1.34-.56l53,30.57a2.79,2.79,0,0,1,1.33,2.1v1.92C179.66,151.37,179.06,151.62,178.33,151.19Z"/></g><g class="cls-7"><path d="M138.65,147.7l-13.16-7.6a3,3,0,0,1-1.46-2.29v-2.54c0-.81.66-1.08,1.46-.62l13.16,7.6a3,3,0,0,1,1.45,2.29v2.55C140.1,147.89,139.45,148.16,138.65,147.7Z"/></g><g class="cls-7"><path d="M138.65,156.4l-13.16-7.6a3,3,0,0,1-1.46-2.29V144c0-.81.66-1.08,1.46-.62l13.16,7.6a3,3,0,0,1,1.45,2.29v2.55C140.1,156.59,139.45,156.86,138.65,156.4Z"/></g><g class="cls-7"><path d="M138.65,165.1l-13.16-7.6a3,3,0,0,1-1.46-2.29v-2.55c0-.8.66-1.07,1.46-.61l13.16,7.6a3,3,0,0,1,1.45,2.29v2.54C140.1,165.29,139.45,165.56,138.65,165.1Z"/></g><g class="cls-7"><path d="M138.65,173.8l-13.16-7.6a3,3,0,0,1-1.46-2.29v-2.55c0-.8.66-1.07,1.46-.61l13.16,7.6a3,3,0,0,1,1.45,2.29v2.54C140.1,174,139.45,174.26,138.65,173.8Z"/></g><g class="cls-7"><path d="M158.42,150.41l-13.16-7.59a3,3,0,0,1-1.45-2.29V138c0-.8.65-1.08,1.45-.61L158.42,145a3,3,0,0,1,1.45,2.29v2.55C159.87,150.6,159.22,150.88,158.42,150.41Z"/></g><g class="cls-7"><path d="M158.42,159.11l-13.16-7.59a3,3,0,0,1-1.45-2.29v-2.55c0-.8.65-1.08,1.45-.61l13.16,7.59a3,3,0,0,1,1.45,2.29v2.55C159.87,159.3,159.22,159.58,158.42,159.11Z"/></g><g class="cls-7"><path d="M158.42,167.81l-13.16-7.59a3,3,0,0,1-1.45-2.29v-2.55c0-.8.65-1.08,1.45-.61l13.16,7.59a3,3,0,0,1,1.45,2.29v2.55C159.87,168,159.22,168.28,158.42,167.81Z"/></g><g class="cls-7"><path d="M158.42,176.51l-13.16-7.59a3,3,0,0,1-1.45-2.29v-2.55c0-.8.65-1.08,1.45-.61l13.16,7.59a3,3,0,0,1,1.45,2.29v2.55C159.87,176.7,159.22,177,158.42,176.51Z"/></g><g class="cls-7"><path d="M178.21,161.84l-13.16-7.6A3,3,0,0,1,163.6,152v-2.54c0-.8.65-1.08,1.45-.62l13.16,7.6a3,3,0,0,1,1.45,2.29v2.55C179.66,162,179,162.31,178.21,161.84Z"/></g><g class="cls-7"><path d="M178.21,170.54l-13.16-7.6a3,3,0,0,1-1.45-2.29v-2.54c0-.8.65-1.08,1.45-.62l13.16,7.6a3,3,0,0,1,1.45,2.29v2.55C179.66,170.73,179,171,178.21,170.54Z"/></g><g class="cls-7"><path d="M178.21,179.24l-13.16-7.6a3,3,0,0,1-1.45-2.29v-2.54c0-.8.65-1.08,1.45-.62l13.16,7.6a3,3,0,0,1,1.45,2.29v2.55C179.66,179.43,179,179.7,178.21,179.24Z"/></g><g class="cls-7"><path d="M178.21,187.94l-13.16-7.6a3,3,0,0,1-1.45-2.29v-2.54c0-.81.65-1.08,1.45-.62l13.16,7.6a3,3,0,0,1,1.45,2.29v2.55C179.66,188.13,179,188.4,178.21,187.94Z"/></g></g></svg>