<svg xmlns="http://www.w3.org/2000/svg" xmlns:xlink="http://www.w3.org/1999/xlink" viewBox="0 0 512.84 485.29"><defs><style>.cls-1{fill:none;}.cls-2{clip-path:url(#clip-path);}.cls-3{fill:#21a0a0;}.cls-4{fill:#a7c957;}.cls-5{fill:#ec325a;}.cls-6{opacity:0.1;}</style><clipPath id="clip-path" transform="translate(0.42 -13.36)"><rect class="cls-1" width="512" height="512"/></clipPath></defs><g id="Layer_2" data-name="Layer 2"><g id="Layer_1-2" data-name="Layer 1"><g class="cls-2"><path class="cls-3" d="M279.11,213.26A122,122,0,0,0,166.68,382.38l-.15,0c.47,1,1.09,2.2,1.76,3.58.34.74.67,1.5,1,2.24,2.89,6.71,5.32,16.5-2.47,27.3A49.21,49.21,0,0,0,163.2,420l-.32.45a49.42,49.42,0,1,0,83.72,52.27,11,11,0,0,0,.84-1.18c8.61-13.91,21.6-14.28,29.11-14.46l-.06-.07c.88,0,1.74.07,2.62.07a121.92,121.92,0,1,0,0-243.83Z" transform="translate(0.42 -13.36)"/><path class="cls-4" d="M512.42,221.89a122.7,122.7,0,0,0-95.7-119.66c-9-3-19.56-7.32-35.28-17.12C359.57,71,348.75,56.27,336.69,50A75.13,75.13,0,0,0,243,62.93c1.08,1.1,4.41,4.43,9.47,9.19,6.22,5.85,23.7,20.13,34.32,60s-24.71,100-24.71,100c11.9-3.11,41,5.82,53.27,11.26C363.2,264.74,389,298.93,397,317.05c3.66,6.1,4,10.38,4,11.65C463.2,324.27,512.42,285.57,512.42,221.89Z" transform="translate(0.42 -13.36)"/><path class="cls-5" d="M136.41,52.44c-.78-.76-6.51-6.37-9.24-9.61-1.93-2.3-6.72-6.73-9.76-9.49a69.18,69.18,0,0,0-98.72,96.93,20.93,20.93,0,0,0,7,6.41A70.06,70.06,0,0,0,36.8,143.9C58.09,159,57.86,168.66,59.44,179.76c0,.22.07.46.1.7.06.6.09,1.2.15,1.8-.52,31.62-18.15,54.51-28.4,63.26a3.92,3.92,0,0,0-.34.37A88.56,88.56,0,1,0,160.64,364.64c-6-28.13-2.68-57.79,13-77.61s53.5-32.59,71.58-43.94c10.72-6.36,15.18-8.87,21.34-15.24,24.36-25.22,30.67-67.86,22.19-99.72C281.14,99.63,264.47,71.75,254,64.8A24.72,24.72,0,0,0,251.85,63q-2.44-1.59-5-3.06l-.53-.22L246,59.4a125.18,125.18,0,0,0-109.59-7Z" transform="translate(0.42 -13.36)"/><path d="M364.35,194.58c-5.73,0-10.37-4-10.37-8.91V162.49c0-4.92,4.64-8.91,10.37-8.91s10.37,4,10.37,8.91v23.18C374.72,190.59,370.08,194.58,364.35,194.58Z" transform="translate(0.42 -13.36)"/><path d="M450.3,195.68c-5.73,0-10.37-4-10.37-8.91V163.59c0-4.92,4.64-8.91,10.37-8.91s10.37,4,10.37,8.91v23.18C460.67,191.69,456,195.68,450.3,195.68Z" transform="translate(0.42 -13.36)"/><path d="M243.53,319.8c-5.72,0-10.37-4-10.37-8.92V287.71c0-4.93,4.65-8.92,10.37-8.92s10.37,4,10.37,8.92v23.17C253.9,315.8,249.26,319.8,243.53,319.8Z" transform="translate(0.42 -13.36)"/><path d="M329.48,320.89c-5.73,0-10.37-4-10.37-8.91V288.8c0-4.92,4.64-8.91,10.37-8.91s10.37,4,10.37,8.91V312C339.85,316.9,335.21,320.89,329.48,320.89Z" transform="translate(0.42 -13.36)"/><path d="M164.82,165.29c-5.73,0-10.37-4-10.37-8.91V133.2c0-4.92,4.64-8.91,10.37-8.91s10.37,4,10.37,8.91v23.18C175.19,161.3,170.55,165.29,164.82,165.29Z" transform="translate(0.42 -13.36)"/><path d="M250.76,166.39c-5.72,0-10.37-4-10.37-8.91V134.3c0-4.92,4.65-8.91,10.37-8.91s10.37,4,10.37,8.91v23.18C261.13,162.4,256.49,166.39,250.76,166.39Z" transform="translate(0.42 -13.36)"/><path class="cls-6" d="M287.9,125.2c.73,10.26,7.14,17.4,10.25,37.35,6.5,51,66.29,99.66,76.15,122.1-24.16-23.89-45-34.76-40.27-31.3,0,0-23.43-15.38-47.6-19s-31.85,5.12-56,16.84c-24.17,12.08-73.59,25.63-72.86,87.14,2.93,43.93,3.11,26.54,3.11,26.54S134.86,402,88.73,401.62,13.68,368.49,5.8,344c0,0,43.21,51.26,98.12,22s45.59-55.47,44.85-63.52c-1.83-19-39.17-31.12-32.22-43.21s9.89-7.32,75.06-17.57S294.49,175,287.9,125.2Z" transform="translate(0.42 -13.36)"/><path class="cls-6" d="M401,329c-1.47-8.42-9.52-26.54-19.77-36.06,0,0,37.34,71.39-60.78,129.24-94.09,51.62-149.74-30-149.74-30a24.14,24.14,0,0,1-3.84,23.07c4.31-.59,37.5,18,52.55,35.63,3.47,4.07,11.33,21.12-4.94,27.62-16,7-43,7.4-52.28-1.93l-.15,0a49.45,49.45,0,0,0,84.52-3.36,11.14,11.14,0,0,0,.84-1.19c8.61-13.91,21.6-14.28,29.11-14.46l0,0c.86,0,1.73,0,2.59,0A121.93,121.93,0,0,0,400.73,344.15Z" transform="translate(0.42 -13.36)"/><path class="cls-6" d="M267.85,80.63s-16.2-27.18-1.1-34.6c0,0-12.54,4.76-20.41,13.64C246.34,59.67,256.87,66.08,267.85,80.63Z" transform="translate(0.42 -13.36)"/><path class="cls-6" d="M136.51,52.53s-15.38,8-22,12.63,13.91-21.23,4.39-30.39C125.34,41.18,136.51,52.53,136.51,52.53Z" transform="translate(0.42 -13.36)"/></g></g></g></svg>