<?xml version="1.0" standalone="no"?>
<!DOCTYPE svg PUBLIC "-//W3C//DTD SVG 20010904//EN"
 "http://www.w3.org/TR/2001/REC-SVG-20010904/DTD/svg10.dtd">
<svg version="1.0" xmlns="http://www.w3.org/2000/svg"
 width="1200.000000pt" height="1200.000000pt" viewBox="0 0 1200.000000 1200.000000"
 preserveAspectRatio="xMidYMid meet">
<metadata>
Created by potrace 1.11, written by Peter Selinger 2001-2013
</metadata>
<g transform="translate(0.000000,1200.000000) scale(0.100000,-0.100000)"
fill="#000000" stroke="none">
<path d="M1680 11249 c-194 -25 -356 -74 -515 -154 -186 -95 -369 -239 -487
-385 -29 -36 -55 -67 -58 -70 -22 -20 -113 -174 -156 -265 -100 -211 -147
-420 -146 -650 0 -263 54 -483 174 -714 137 -264 328 -464 593 -620 272 -161
466 -379 519 -585 41 -157 53 -358 31 -506 -50 -323 -145 -576 -309 -829 -95
-146 -169 -232 -335 -390 -224 -212 -346 -372 -461 -606 -88 -178 -137 -337
-185 -595 -11 -60 -15 -432 -5 -495 6 -33 13 -80 16 -104 9 -76 60 -261 99
-366 94 -251 230 -466 421 -665 291 -303 633 -489 1055 -574 116 -24 200 -31
364 -31 132 0 289 10 304 20 4 1 26 6 51 9 201 27 515 151 715 283 182 121
371 292 475 432 25 33 48 60 52 61 3 0 10 -14 13 -31 4 -18 24 -84 45 -148 36
-109 52 -151 129 -327 67 -156 81 -301 40 -424 -32 -98 -42 -115 -158 -266
-141 -184 -213 -396 -215 -634 -1 -145 5 -201 29 -295 111 -426 463 -746 895
-813 77 -12 311 -8 380 7 210 44 398 143 544 286 96 94 113 115 201 250 79
122 168 218 231 250 22 11 41 23 42 28 2 4 9 7 15 7 7 0 26 7 42 16 73 38 186
53 435 59 96 2 198 6 225 10 62 7 193 26 220 31 11 3 36 7 55 10 98 15 313 80
454 136 734 291 1301 884 1560 1628 25 72 48 141 51 153 2 12 9 42 16 67 26
106 47 209 54 270 4 30 8 57 10 60 7 11 18 233 18 353 0 85 4 127 11 128 6 1
25 2 42 4 35 3 125 12 194 21 56 6 331 61 385 76 22 6 45 12 50 14 49 11 300
101 375 134 127 56 291 142 362 191 32 21 60 39 63 39 6 0 115 79 125 91 3 3
15 12 28 21 126 86 353 332 474 513 133 201 256 492 304 718 75 360 78 698 9
1067 -155 820 -706 1544 -1460 1916 -77 38 -156 75 -175 82 -19 8 -71 27 -115
44 -44 16 -145 47 -225 69 -80 21 -161 45 -180 53 -19 8 -62 24 -95 37 -161
60 -517 251 -683 366 -122 84 -289 215 -377 294 -256 231 -458 399 -479 399
-3 0 -21 11 -40 23 -61 42 -258 134 -354 166 -298 99 -604 111 -932 37 -240
-55 -542 -216 -712 -378 -20 -20 -39 -23 -53 -9 -19 18 -215 112 -327 157
-212 85 -473 150 -718 178 -142 17 -537 15 -655 -3 -38 -6 -88 -14 -110 -17
-45 -6 -179 -35 -270 -59 -33 -8 -122 -36 -197 -62 l-137 -47 -77 79 c-219
228 -268 276 -368 367 -231 208 -467 329 -756 388 -117 24 -358 34 -470 19z"/>
</g>
</svg>
