<svg xmlns="http://www.w3.org/2000/svg" viewBox="0 0 366.34 329.16"><defs><style>.a{opacity:0.15;}.a,.j{font-size:7.5px;}.a,.e,.j{fill:#231f20;}.a,.c,.g,.i,.j,.k,.l,.m{font-family:Overpass-Bold, Overpass;font-weight:700;}.b,.f,.h{fill:none;stroke-miterlimit:10;}.b{stroke:#3578ff;stroke-width:3.2px;}.c,.g{font-size:24px;}.c,.m{fill:#3578ff;}.d{opacity:0.1;}.f{stroke:#4e6178;}.f,.h{stroke-width:3px;}.g,.k{fill:#4e6178;}.h{stroke:#00a69c;}.i{font-size:21px;}.i,.l{fill:#00a69c;}.k,.l,.m{font-size:12px;}</style></defs><title>metadata-changes</title><text class="a" transform="translate(8.56 15.52)">title: Super Fly Dataset<tspan x="0" y="9">length: 22345789</tspan><tspan x="0" y="18">keywords: foo,bar,baz</tspan><tspan x="0" y="27">category: climate science,</tspan></text><rect class="b" x="1.6" y="1.6" width="139.63" height="131.62"/><text class="c" transform="translate(17.68 68.64)">Dataset</text><g class="d"><path class="e" d="M256.72,392.28h-17.5a3.75,3.75,0,0,1,0-7.5h17.5a3.75,3.75,0,0,1,0,7.5Z" transform="translate(-212.78 -141.39)"/><path class="e" d="M287.72,392.28H266.47a3.75,3.75,0,0,1,0-7.5h21.25a3.75,3.75,0,0,1,0,7.5Z" transform="translate(-212.78 -141.39)"/><path class="e" d="M327,392.28H298.22a3.75,3.75,0,0,1,0-7.5H327a3.75,3.75,0,0,1,0,7.5Z" transform="translate(-212.78 -141.39)"/><path class="e" d="M256.72,404h-17.5a3.75,3.75,0,1,1,0-7.5h17.5a3.75,3.75,0,0,1,0,7.5Z" transform="translate(-212.78 -141.39)"/><path class="e" d="M287.72,404H266.47a3.75,3.75,0,0,1,0-7.5h21.25a3.75,3.75,0,0,1,0,7.5Z" transform="translate(-212.78 -141.39)"/><path class="e" d="M327,404H298.22a3.75,3.75,0,0,1,0-7.5H327a3.75,3.75,0,0,1,0,7.5Z" transform="translate(-212.78 -141.39)"/><path class="e" d="M256.72,415.78h-17.5a3.75,3.75,0,1,1,0-7.5h17.5a3.75,3.75,0,0,1,0,7.5Z" transform="translate(-212.78 -141.39)"/><path class="e" d="M287.72,415.78H266.47a3.75,3.75,0,0,1,0-7.5h21.25a3.75,3.75,0,0,1,0,7.5Z" transform="translate(-212.78 -141.39)"/><path class="e" d="M327,415.78H298.22a3.75,3.75,0,0,1,0-7.5H327a3.75,3.75,0,0,1,0,7.5Z" transform="translate(-212.78 -141.39)"/><path class="e" d="M256.72,427.53h-17.5a3.75,3.75,0,0,1,0-7.5h17.5a3.75,3.75,0,0,1,0,7.5Z" transform="translate(-212.78 -141.39)"/><path class="e" d="M287.72,427.53H266.47a3.75,3.75,0,0,1,0-7.5h21.25a3.75,3.75,0,0,1,0,7.5Z" transform="translate(-212.78 -141.39)"/><path class="e" d="M327,427.53H298.22a3.75,3.75,0,0,1,0-7.5H327a3.75,3.75,0,0,1,0,7.5Z" transform="translate(-212.78 -141.39)"/><path class="e" d="M256.72,439.28h-17.5a3.75,3.75,0,1,1,0-7.5h17.5a3.75,3.75,0,0,1,0,7.5Z" transform="translate(-212.78 -141.39)"/><path class="e" d="M287.72,439.28H266.47a3.75,3.75,0,0,1,0-7.5h21.25a3.75,3.75,0,0,1,0,7.5Z" transform="translate(-212.78 -141.39)"/><path class="e" d="M327,439.28H298.22a3.75,3.75,0,0,1,0-7.5H327a3.75,3.75,0,0,1,0,7.5Z" transform="translate(-212.78 -141.39)"/><path class="e" d="M256.72,451h-17.5a3.75,3.75,0,1,1,0-7.5h17.5a3.75,3.75,0,0,1,0,7.5Z" transform="translate(-212.78 -141.39)"/><path class="e" d="M287.72,451H266.47a3.75,3.75,0,0,1,0-7.5h21.25a3.75,3.75,0,0,1,0,7.5Z" transform="translate(-212.78 -141.39)"/><path class="e" d="M327,451H298.22a3.75,3.75,0,0,1,0-7.5H327a3.75,3.75,0,0,1,0,7.5Z" transform="translate(-212.78 -141.39)"/><path class="e" d="M256.72,462.78h-17.5a3.75,3.75,0,0,1,0-7.5h17.5a3.75,3.75,0,0,1,0,7.5Z" transform="translate(-212.78 -141.39)"/><path class="e" d="M287.72,462.78H266.47a3.75,3.75,0,0,1,0-7.5h21.25a3.75,3.75,0,0,1,0,7.5Z" transform="translate(-212.78 -141.39)"/><path class="e" d="M327,462.78H298.22a3.75,3.75,0,0,1,0-7.5H327a3.75,3.75,0,0,1,0,7.5Z" transform="translate(-212.78 -141.39)"/></g><rect class="f" x="18.37" y="237.12" width="103.1" height="90.54"/><text class="g" transform="translate(42.56 289.62)">Data</text><rect class="h" x="18.37" y="155.37" width="103.1" height="71.04"/><text class="i" transform="translate(21.47 200.37)">Structure</text><g class="d"><path class="e" d="M257,364h-17.5a3.75,3.75,0,0,1,0-7.5H257a3.75,3.75,0,0,1,0,7.5Z" transform="translate(-212.78 -141.39)"/><path class="e" d="M288,364H266.72a3.75,3.75,0,0,1,0-7.5H288a3.75,3.75,0,0,1,0,7.5Z" transform="translate(-212.78 -141.39)"/><path class="e" d="M327.22,364H298.47a3.75,3.75,0,0,1,0-7.5h28.75a3.75,3.75,0,0,1,0,7.5Z" transform="translate(-212.78 -141.39)"/><text class="j" transform="translate(24.54 210.89)">col_0</text><text class="j" transform="translate(22.93 167.64)">type: csv</text><text class="j" transform="translate(22.93 179.39)">headerRow: true</text><text class="j" transform="translate(51.97 210.89)">col_1</text><text class="j" transform="translate(83.47 210.89)">col_2</text></g><text class="k" transform="translate(107.17 124.52)">data</text><text class="l" transform="translate(8.37 124.52)">structure</text><polyline class="h" points="9.44 127.64 9.44 192.64 17.93 192.64"/><polyline class="f" points="131.19 126.89 131.19 284.39 121.69 284.39"/><text class="a" transform="translate(232.06 15.52)">title: Super Fly Dataset<tspan x="0" y="9">length: 22345789</tspan><tspan x="0" y="18">keywords: foo,bar,baz</tspan><tspan x="0" y="27">category: climate science,</tspan></text><rect class="b" x="225.1" y="1.6" width="139.63" height="131.62"/><text class="c" transform="translate(234.43 68.64)">Dataset_2</text><text class="k" transform="translate(330.67 124.52)">data</text><text class="l" transform="translate(231.87 124.52)">structure</text><text class="m" transform="translate(232.18 104.27)">previous</text><polyline class="h" points="232.94 127.64 232.94 192.64 121.59 192.64"/><polyline class="f" points="354.69 126.89 354.69 291.89 122.59 291.89"/><line class="b" x1="229.59" y1="101.39" x2="142.09" y2="101.39"/></svg>