<svg xmlns="http://www.w3.org/2000/svg" viewBox="0 0 404.67 125.48"><defs><style>.a,.f,.q,.z{fill:#00a69c;}.b{opacity:0.15;}.b,.o{font-size:7.5px;font-family:Overpass-Bold, Overpass;font-weight:700;}.b,.n,.o{fill:#231f20;}.aa,.c,.e{fill:none;stroke-miterlimit:10;}.c{stroke:#eba434;stroke-width:2.22px;}.d{font-size:24px;fill:#eba434;}.d,.f,.q{font-family:Overpass-Italic, Overpass;font-style:italic;}.aa,.e{stroke:#00a69c;}.e{stroke-width:3px;}.f,.z{font-size:21px;}.g{letter-spacing:-0.01em;}.h{letter-spacing:0em;}.i{letter-spacing:-0.01em;}.j{letter-spacing:0em;}.k{letter-spacing:-0.01em;}.l{letter-spacing:-0.02em;}.m{opacity:0.1;}.p{letter-spacing:-0.03em;}.q,.y{font-size:13.5px;}.r{letter-spacing:-0.01em;}.s{letter-spacing:-0.01em;}.t{letter-spacing:-0.03em;}.u{letter-spacing:0em;}.v{letter-spacing:-0.01em;}.w{letter-spacing:0em;}.x{letter-spacing:-0.01em;}.y{fill:#fff;}.y,.z{font-family:Overpass-Reg, Overpass;}</style></defs><title>query</title><rect class="a" x="5.69" y="42.98" width="19" height="19" rx="2.72" ry="2.72"/><text class="b" transform="translate(178.16 13.48)">SELECT a.col_0, a.col_1<tspan x="0" y="9">FROM a</tspan><tspan x="0" y="18">WHERE a.col_0 &gt; 100</tspan><tspan x="0" y="27">LIMIT 0,10;</tspan></text><rect class="c" x="173.22" y="1.11" width="103.1" height="97.75"/><text class="d" transform="translate(190.64 53.61)">Query</text><rect class="e" x="37.91" y="44.46" width="103.1" height="69.54"/><text class="f" transform="translate(46.55 87.96)"><tspan class="g">S</tspan><tspan class="h" x="11.87" y="0">t</tspan><tspan class="i" x="19.24" y="0">r</tspan><tspan class="j" x="26.94" y="0">u</tspan><tspan class="k" x="38.24" y="0">c</tspan><tspan x="48.11" y="0">tu</tspan><tspan class="l" x="66.78" y="0">r</tspan><tspan x="74.17" y="0">e</tspan></text><g class="m"><path class="n" d="M256.57,353.58h-17.5a3.75,3.75,0,1,1,0-7.5h17.5a3.75,3.75,0,0,1,0,7.5Z" transform="translate(-192.85 -243.34)"/><path class="n" d="M287.57,353.58H266.32a3.75,3.75,0,0,1,0-7.5h21.25a3.75,3.75,0,0,1,0,7.5Z" transform="translate(-192.85 -243.34)"/><path class="n" d="M326.82,353.58H298.07a3.75,3.75,0,0,1,0-7.5h28.75a3.75,3.75,0,0,1,0,7.5Z" transform="translate(-192.85 -243.34)"/><text class="o" transform="translate(44.07 98.48)">col_0</text><text class="o" transform="translate(42.47 55.23)">type: csv</text><text class="o" transform="translate(42.47 66.98)">headerRow: true</text><text class="o" transform="translate(71.51 98.48)">col_1</text><text class="o" transform="translate(103 98.48)">col_2</text></g><rect class="e" x="300.08" y="44.84" width="103.1" height="69.54"/><text class="f" transform="translate(308.72 88.34)"><tspan class="i">S</tspan><tspan x="11.87" y="0">t</tspan><tspan class="i" x="19.24" y="0">r</tspan><tspan x="26.94" y="0">u</tspan><tspan class="i" x="38.24" y="0">c</tspan><tspan x="48.11" y="0">tu</tspan><tspan class="p" x="66.78" y="0">r</tspan><tspan x="74.17" y="0">e</tspan></text><g class="m"><path class="n" d="M518.74,354h-17.5a3.75,3.75,0,0,1,0-7.5h17.5a3.75,3.75,0,0,1,0,7.5Z" transform="translate(-192.85 -243.34)"/><path class="n" d="M549.74,354H528.49a3.75,3.75,0,0,1,0-7.5h21.25a3.75,3.75,0,0,1,0,7.5Z" transform="translate(-192.85 -243.34)"/><path class="n" d="M589,354H560.24a3.75,3.75,0,0,1,0-7.5H589a3.75,3.75,0,0,1,0,7.5Z" transform="translate(-192.85 -243.34)"/><text class="o" transform="translate(306.24 98.86)">col_0</text><text class="o" transform="translate(304.64 55.61)">type: csv</text><text class="o" transform="translate(304.64 67.36)">headerRow: true</text><text class="o" transform="translate(333.68 98.86)">col_1</text><text class="o" transform="translate(365.17 98.86)">col_2</text></g><text class="q" transform="translate(178.89 77.61)">input<tspan class="r" x="29.73" y="0">S</tspan><tspan x="37.35" y="0">t</tspan><tspan class="s" x="42.09" y="0">r</tspan><tspan x="47.05" y="0">u</tspan><tspan class="s" x="54.31" y="0">c</tspan><tspan x="60.66" y="0">tu</tspan><tspan class="t" x="72.66" y="0">r</tspan><tspan class="s" x="77.41" y="0">e</tspan><tspan class="u" x="84.13" y="0">s</tspan></text><text class="q" transform="translate(178.63 91.25)">output<tspan class="v" x="38.26" y="0">S</tspan><tspan class="w" x="45.89" y="0">t</tspan><tspan class="v" x="50.63" y="0">r</tspan><tspan x="55.58" y="0">u</tspan><tspan class="x" x="62.84" y="0">c</tspan><tspan x="69.19" y="0">tu</tspan><tspan class="t" x="81.19" y="0">r</tspan><tspan x="85.94" y="0">e</tspan></text><text class="y" transform="translate(10.97 56.36)">a</text><text class="z" transform="translate(29.03 57.48)">:</text><rect class="aa" x="0.5" y="37.23" width="147.75" height="87.75" rx="5.65" ry="5.65"/><line class="e" x1="176.16" y1="75.24" x2="147.38" y2="75.24"/><line class="e" x1="274.83" y1="87.96" x2="300.08" y2="87.96"/></svg>