<svg xmlns="http://www.w3.org/2000/svg" viewBox="0 0 373.84 329.16"><defs><style>.a{opacity:0.15;}.a,.j{font-size:7.5px;}.a,.e,.j{fill:#231f20;}.a,.c,.g,.i,.j,.k,.l,.m,.n{font-family:Overpass-Bold, Overpass;font-weight:700;}.b,.f,.h{fill:none;stroke-miterlimit:10;}.b{stroke:#3578ff;stroke-width:3.2px;}.c,.g{font-size:24px;}.c,.n{fill:#3578ff;}.d{opacity:0.1;}.f{stroke:#4e6178;}.f,.h{stroke-width:3px;}.g,.l{fill:#4e6178;}.h{stroke:#00a69c;}.i{font-size:21px;}.i,.k,.m{fill:#00a69c;}.k{font-size:15px;}.l,.m,.n{font-size:12px;}</style></defs><title>structure-changes</title><text class="a" transform="translate(8.56 15.52)">title: Super Fly Dataset<tspan x="0" y="9">length: 22345789</tspan><tspan x="0" y="18">keywords: foo,bar,baz</tspan><tspan x="0" y="27">category: climate science,</tspan></text><rect class="b" x="1.6" y="1.6" width="139.63" height="131.62"/><text class="c" transform="translate(25.18 68.64)">Dataset</text><g class="d"><path class="e" d="M252.92,392.28h-17.5a3.75,3.75,0,0,1,0-7.5h17.5a3.75,3.75,0,0,1,0,7.5Z" transform="translate(-208.99 -141.39)"/><path class="e" d="M283.92,392.28H262.67a3.75,3.75,0,1,1,0-7.5h21.25a3.75,3.75,0,1,1,0,7.5Z" transform="translate(-208.99 -141.39)"/><path class="e" d="M323.17,392.28H294.42a3.75,3.75,0,0,1,0-7.5h28.75a3.75,3.75,0,0,1,0,7.5Z" transform="translate(-208.99 -141.39)"/><path class="e" d="M252.92,404h-17.5a3.75,3.75,0,1,1,0-7.5h17.5a3.75,3.75,0,0,1,0,7.5Z" transform="translate(-208.99 -141.39)"/><path class="e" d="M283.92,404H262.67a3.75,3.75,0,0,1,0-7.5h21.25a3.75,3.75,0,0,1,0,7.5Z" transform="translate(-208.99 -141.39)"/><path class="e" d="M323.17,404H294.42a3.75,3.75,0,0,1,0-7.5h28.75a3.75,3.75,0,0,1,0,7.5Z" transform="translate(-208.99 -141.39)"/><path class="e" d="M252.92,415.78h-17.5a3.75,3.75,0,1,1,0-7.5h17.5a3.75,3.75,0,0,1,0,7.5Z" transform="translate(-208.99 -141.39)"/><path class="e" d="M283.92,415.78H262.67a3.75,3.75,0,0,1,0-7.5h21.25a3.75,3.75,0,0,1,0,7.5Z" transform="translate(-208.99 -141.39)"/><path class="e" d="M323.17,415.78H294.42a3.75,3.75,0,0,1,0-7.5h28.75a3.75,3.75,0,0,1,0,7.5Z" transform="translate(-208.99 -141.39)"/><path class="e" d="M252.92,427.53h-17.5a3.75,3.75,0,0,1,0-7.5h17.5a3.75,3.75,0,0,1,0,7.5Z" transform="translate(-208.99 -141.39)"/><path class="e" d="M283.92,427.53H262.67a3.75,3.75,0,1,1,0-7.5h21.25a3.75,3.75,0,1,1,0,7.5Z" transform="translate(-208.99 -141.39)"/><path class="e" d="M323.17,427.53H294.42a3.75,3.75,0,0,1,0-7.5h28.75a3.75,3.75,0,0,1,0,7.5Z" transform="translate(-208.99 -141.39)"/><path class="e" d="M252.92,439.28h-17.5a3.75,3.75,0,1,1,0-7.5h17.5a3.75,3.75,0,0,1,0,7.5Z" transform="translate(-208.99 -141.39)"/><path class="e" d="M283.92,439.28H262.67a3.75,3.75,0,0,1,0-7.5h21.25a3.75,3.75,0,0,1,0,7.5Z" transform="translate(-208.99 -141.39)"/><path class="e" d="M323.17,439.28H294.42a3.75,3.75,0,0,1,0-7.5h28.75a3.75,3.75,0,0,1,0,7.5Z" transform="translate(-208.99 -141.39)"/><path class="e" d="M252.92,451h-17.5a3.75,3.75,0,1,1,0-7.5h17.5a3.75,3.75,0,0,1,0,7.5Z" transform="translate(-208.99 -141.39)"/><path class="e" d="M283.92,451H262.67a3.75,3.75,0,0,1,0-7.5h21.25a3.75,3.75,0,0,1,0,7.5Z" transform="translate(-208.99 -141.39)"/><path class="e" d="M323.17,451H294.42a3.75,3.75,0,0,1,0-7.5h28.75a3.75,3.75,0,0,1,0,7.5Z" transform="translate(-208.99 -141.39)"/><path class="e" d="M252.92,462.78h-17.5a3.75,3.75,0,0,1,0-7.5h17.5a3.75,3.75,0,0,1,0,7.5Z" transform="translate(-208.99 -141.39)"/><path class="e" d="M283.92,462.78H262.67a3.75,3.75,0,1,1,0-7.5h21.25a3.75,3.75,0,1,1,0,7.5Z" transform="translate(-208.99 -141.39)"/><path class="e" d="M323.17,462.78H294.42a3.75,3.75,0,0,1,0-7.5h28.75a3.75,3.75,0,0,1,0,7.5Z" transform="translate(-208.99 -141.39)"/></g><rect class="f" x="18.37" y="237.12" width="103.1" height="90.54"/><text class="g" transform="translate(42.56 289.62)">Data</text><rect class="h" x="18.37" y="155.37" width="103.1" height="71.04"/><text class="i" transform="translate(21.47 200.37)">Structure</text><g class="d"><path class="e" d="M253.17,364h-17.5a3.75,3.75,0,0,1,0-7.5h17.5a3.75,3.75,0,0,1,0,7.5Z" transform="translate(-208.99 -141.39)"/><path class="e" d="M284.17,364H262.92a3.75,3.75,0,1,1,0-7.5h21.25a3.75,3.75,0,1,1,0,7.5Z" transform="translate(-208.99 -141.39)"/><path class="e" d="M323.42,364H294.67a3.75,3.75,0,0,1,0-7.5h28.75a3.75,3.75,0,0,1,0,7.5Z" transform="translate(-208.99 -141.39)"/><text class="j" transform="translate(24.54 210.89)">col_0</text><text class="j" transform="translate(22.93 167.64)">type: csv</text><text class="j" transform="translate(22.93 179.39)">headerRow: true</text><text class="j" transform="translate(51.97 210.89)">col_1</text><text class="j" transform="translate(83.47 210.89)">col_2</text></g><rect class="h" x="248.98" y="155.37" width="103.1" height="71.04"/><text class="k" transform="translate(257.4 197.37)">Structure_2</text><g class="d"><path class="e" d="M483.79,364h-17.5a3.75,3.75,0,1,1,0-7.5h17.5a3.75,3.75,0,0,1,0,7.5Z" transform="translate(-208.99 -141.39)"/><path class="e" d="M514.79,364H493.54a3.75,3.75,0,1,1,0-7.5h21.25a3.75,3.75,0,0,1,0,7.5Z" transform="translate(-208.99 -141.39)"/><path class="e" d="M554,364H525.29a3.75,3.75,0,0,1,0-7.5H554a3.75,3.75,0,0,1,0,7.5Z" transform="translate(-208.99 -141.39)"/><text class="j" transform="translate(255.15 210.89)">col_0</text><text class="j" transform="translate(253.55 167.64)">type: csv</text><text class="j" transform="translate(253.55 179.39)">headerRow: true</text><text class="j" transform="translate(282.58 210.89)">col_1</text><text class="j" transform="translate(314.08 210.89)">col_2</text></g><text class="l" transform="translate(107.17 124.52)">data</text><text class="m" transform="translate(8.37 124.52)">structure</text><polyline class="h" points="9.44 127.64 9.44 192.64 17.93 192.64"/><polyline class="f" points="131.19 126.89 131.19 284.39 121.69 284.39"/><text class="a" transform="translate(239.56 15.52)">title: Super Fly Dataset<tspan x="0" y="9">length: 22345789</tspan><tspan x="0" y="18">keywords: foo,bar,baz</tspan><tspan x="0" y="27">category: climate science,</tspan></text><rect class="b" x="232.6" y="1.6" width="139.63" height="131.62"/><text class="c" transform="translate(261.43 68.64)">Dataset</text><g class="d"><path class="e" d="M483.92,392.28h-17.5a3.75,3.75,0,1,1,0-7.5h17.5a3.75,3.75,0,0,1,0,7.5Z" transform="translate(-208.99 -141.39)"/><path class="e" d="M514.92,392.28H493.67a3.75,3.75,0,1,1,0-7.5h21.25a3.75,3.75,0,0,1,0,7.5Z" transform="translate(-208.99 -141.39)"/><path class="e" d="M554.17,392.28H525.42a3.75,3.75,0,0,1,0-7.5h28.75a3.75,3.75,0,0,1,0,7.5Z" transform="translate(-208.99 -141.39)"/><path class="e" d="M483.92,404h-17.5a3.75,3.75,0,0,1,0-7.5h17.5a3.75,3.75,0,0,1,0,7.5Z" transform="translate(-208.99 -141.39)"/><path class="e" d="M514.92,404H493.67a3.75,3.75,0,0,1,0-7.5h21.25a3.75,3.75,0,0,1,0,7.5Z" transform="translate(-208.99 -141.39)"/><path class="e" d="M554.17,404H525.42a3.75,3.75,0,0,1,0-7.5h28.75a3.75,3.75,0,0,1,0,7.5Z" transform="translate(-208.99 -141.39)"/><path class="e" d="M483.92,415.78h-17.5a3.75,3.75,0,0,1,0-7.5h17.5a3.75,3.75,0,0,1,0,7.5Z" transform="translate(-208.99 -141.39)"/><path class="e" d="M514.92,415.78H493.67a3.75,3.75,0,0,1,0-7.5h21.25a3.75,3.75,0,0,1,0,7.5Z" transform="translate(-208.99 -141.39)"/><path class="e" d="M554.17,415.78H525.42a3.75,3.75,0,0,1,0-7.5h28.75a3.75,3.75,0,0,1,0,7.5Z" transform="translate(-208.99 -141.39)"/><path class="e" d="M483.92,427.53h-17.5a3.75,3.75,0,1,1,0-7.5h17.5a3.75,3.75,0,0,1,0,7.5Z" transform="translate(-208.99 -141.39)"/><path class="e" d="M514.92,427.53H493.67a3.75,3.75,0,1,1,0-7.5h21.25a3.75,3.75,0,0,1,0,7.5Z" transform="translate(-208.99 -141.39)"/><path class="e" d="M554.17,427.53H525.42a3.75,3.75,0,0,1,0-7.5h28.75a3.75,3.75,0,0,1,0,7.5Z" transform="translate(-208.99 -141.39)"/><path class="e" d="M483.92,439.28h-17.5a3.75,3.75,0,0,1,0-7.5h17.5a3.75,3.75,0,0,1,0,7.5Z" transform="translate(-208.99 -141.39)"/><path class="e" d="M514.92,439.28H493.67a3.75,3.75,0,0,1,0-7.5h21.25a3.75,3.75,0,0,1,0,7.5Z" transform="translate(-208.99 -141.39)"/><path class="e" d="M554.17,439.28H525.42a3.75,3.75,0,0,1,0-7.5h28.75a3.75,3.75,0,0,1,0,7.5Z" transform="translate(-208.99 -141.39)"/><path class="e" d="M483.92,451h-17.5a3.75,3.75,0,0,1,0-7.5h17.5a3.75,3.75,0,0,1,0,7.5Z" transform="translate(-208.99 -141.39)"/><path class="e" d="M514.92,451H493.67a3.75,3.75,0,0,1,0-7.5h21.25a3.75,3.75,0,0,1,0,7.5Z" transform="translate(-208.99 -141.39)"/><path class="e" d="M554.17,451H525.42a3.75,3.75,0,0,1,0-7.5h28.75a3.75,3.75,0,0,1,0,7.5Z" transform="translate(-208.99 -141.39)"/><path class="e" d="M483.92,462.78h-17.5a3.75,3.75,0,1,1,0-7.5h17.5a3.75,3.75,0,0,1,0,7.5Z" transform="translate(-208.99 -141.39)"/><path class="e" d="M514.92,462.78H493.67a3.75,3.75,0,1,1,0-7.5h21.25a3.75,3.75,0,0,1,0,7.5Z" transform="translate(-208.99 -141.39)"/><path class="e" d="M554.17,462.78H525.42a3.75,3.75,0,0,1,0-7.5h28.75a3.75,3.75,0,0,1,0,7.5Z" transform="translate(-208.99 -141.39)"/></g><rect class="f" x="249.37" y="237.12" width="103.1" height="90.54"/><text class="g" transform="translate(260.15 289.62)">Data_2</text><text class="l" transform="translate(338.17 124.52)">data</text><text class="m" transform="translate(239.37 124.52)">structure</text><text class="n" transform="translate(239.68 104.27)">previous</text><polyline class="h" points="240.44 127.64 240.44 190.89 249.12 190.89"/><polyline class="f" points="362.19 126.89 362.19 284.39 352.69 284.39"/><line class="b" x1="237.09" y1="101.39" x2="142.09" y2="101.39"/></svg>