<svg width="459" height="534" viewBox="0 0 459 534" fill="none" xmlns="http://www.w3.org/2000/svg">
<path d="M231.119 293.149C230.835 293.155 230.609 293.389 230.614 293.673C230.619 293.958 230.854 294.184 231.138 294.179L231.119 293.149ZM221.058 294.831C221.34 294.799 221.544 294.545 221.512 294.262C221.481 293.98 221.226 293.776 220.944 293.808L221.058 294.831ZM216.899 294.335C216.618 294.377 216.424 294.639 216.466 294.92C216.508 295.201 216.77 295.395 217.051 295.353L216.899 294.335ZM207.138 297.314C207.414 297.246 207.582 296.967 207.514 296.691C207.446 296.415 207.167 296.247 206.891 296.315L207.138 297.314ZM202.947 297.369C202.673 297.448 202.516 297.733 202.594 298.006C202.673 298.28 202.958 298.437 203.231 298.359L202.947 297.369ZM193.664 301.606C193.929 301.502 194.059 301.203 193.955 300.938C193.851 300.674 193.553 300.543 193.288 300.647L193.664 301.606ZM189.519 302.21C189.258 302.324 189.139 302.628 189.253 302.888C189.367 303.149 189.67 303.268 189.931 303.154L189.519 302.21ZM180.873 307.629C181.122 307.491 181.212 307.178 181.074 306.929C180.936 306.681 180.623 306.591 180.374 306.728L180.873 307.629ZM176.842 308.772C176.599 308.919 176.521 309.235 176.668 309.479C176.815 309.722 177.131 309.8 177.374 309.653L176.842 308.772ZM168.978 315.274C169.206 315.105 169.255 314.783 169.086 314.555C168.917 314.326 168.594 314.278 168.366 314.447L168.978 315.274ZM165.13 316.934C164.907 317.111 164.871 317.435 165.048 317.657C165.226 317.879 165.55 317.915 165.772 317.738L165.13 316.934ZM158.178 324.403C158.383 324.206 158.389 323.88 158.191 323.675C157.994 323.47 157.668 323.464 157.464 323.662L158.178 324.403ZM154.578 326.547C154.381 326.752 154.387 327.078 154.591 327.275C154.796 327.472 155.122 327.466 155.319 327.262L154.578 326.547ZM148.654 334.856C148.832 334.634 148.795 334.31 148.573 334.132C148.351 333.955 148.027 333.991 147.85 334.213L148.654 334.856ZM145.363 337.45C145.194 337.678 145.242 338.001 145.471 338.17C145.699 338.338 146.022 338.29 146.191 338.062L145.363 337.45ZM140.57 346.458C140.717 346.215 140.638 345.898 140.395 345.751C140.152 345.604 139.835 345.683 139.688 345.926L140.57 346.458ZM137.645 349.458C137.507 349.707 137.597 350.02 137.846 350.158C138.094 350.295 138.407 350.206 138.545 349.957L137.645 349.458ZM134.07 359.015C134.184 358.754 134.065 358.451 133.804 358.337C133.544 358.223 133.241 358.342 133.127 358.603L134.07 359.015ZM131.564 362.372C131.46 362.636 131.59 362.935 131.855 363.039C132.119 363.143 132.418 363.013 132.522 362.748L131.564 362.372ZM129.275 372.315C129.354 372.042 129.196 371.757 128.923 371.678C128.649 371.599 128.364 371.757 128.286 372.03L129.275 372.315ZM127.231 375.975C127.163 376.251 127.332 376.53 127.608 376.598C127.884 376.666 128.163 376.498 128.231 376.222L127.231 375.975ZM126.269 386.135C126.311 385.854 126.118 385.592 125.836 385.55C125.555 385.508 125.293 385.702 125.251 385.983L126.269 386.135ZM124.724 390.027C124.692 390.31 124.896 390.564 125.178 390.596C125.461 390.627 125.715 390.424 125.747 390.141L124.724 390.027ZM125.095 400.222C125.1 399.938 124.874 399.703 124.59 399.698C124.306 399.692 124.071 399.919 124.066 400.203L125.095 400.222ZM124.066 404.299C124.071 404.583 124.306 404.809 124.59 404.804C124.874 404.799 125.1 404.564 125.095 404.28L124.066 404.299ZM125.747 414.36C125.715 414.077 125.461 413.874 125.178 413.905C124.896 413.937 124.692 414.191 124.724 414.474L125.747 414.36ZM125.251 418.519C125.293 418.8 125.555 418.994 125.836 418.952C126.118 418.91 126.311 418.648 126.269 418.367L125.251 418.519ZM128.231 428.28C128.163 428.004 127.884 427.835 127.608 427.904C127.332 427.972 127.163 428.251 127.231 428.527L128.231 428.28ZM128.286 432.471C128.364 432.744 128.649 432.902 128.923 432.823C129.196 432.745 129.354 432.46 129.275 432.186L128.286 432.471ZM132.522 441.753C132.418 441.489 132.119 441.358 131.855 441.462C131.59 441.566 131.46 441.865 131.564 442.13L132.522 441.753ZM133.127 445.899C133.241 446.159 133.544 446.278 133.804 446.164C134.065 446.051 134.184 445.747 134.07 445.487L133.127 445.899ZM138.545 454.545C138.408 454.296 138.094 454.206 137.846 454.344C137.597 454.481 137.507 454.795 137.645 455.043L138.545 454.545ZM139.688 458.576C139.835 458.819 140.152 458.897 140.395 458.75C140.638 458.603 140.717 458.287 140.57 458.043L139.688 458.576ZM146.191 466.44C146.022 466.211 145.699 466.163 145.471 466.332C145.242 466.501 145.194 466.823 145.363 467.052L146.191 466.44ZM147.85 470.288C148.027 470.51 148.351 470.547 148.573 470.369C148.795 470.192 148.832 469.868 148.654 469.646L147.85 470.288ZM155.319 477.24C155.122 477.035 154.796 477.029 154.591 477.226C154.387 477.423 154.381 477.749 154.578 477.954L155.319 477.24ZM157.464 480.84C157.668 481.037 157.994 481.031 158.191 480.826C158.389 480.622 158.383 480.296 158.178 480.098L157.464 480.84ZM165.772 486.763C165.55 486.586 165.226 486.622 165.049 486.844C164.871 487.067 164.907 487.39 165.13 487.568L165.772 486.763ZM168.366 490.055C168.594 490.224 168.917 490.175 169.086 489.947C169.255 489.718 169.206 489.396 168.978 489.227L168.366 490.055ZM177.374 494.848C177.131 494.701 176.815 494.779 176.668 495.023C176.521 495.266 176.599 495.582 176.842 495.729L177.374 494.848ZM180.374 497.773C180.623 497.911 180.936 497.821 181.074 497.572C181.212 497.323 181.122 497.01 180.873 496.872L180.374 497.773ZM189.931 501.348C189.67 501.234 189.367 501.353 189.253 501.613C189.139 501.874 189.258 502.177 189.519 502.291L189.931 501.348ZM193.288 503.854C193.553 503.958 193.851 503.828 193.955 503.563C194.059 503.298 193.929 503 193.664 502.896L193.288 503.854ZM203.231 506.143C202.958 506.064 202.673 506.222 202.594 506.495C202.516 506.768 202.673 507.053 202.947 507.132L203.231 506.143ZM206.891 508.186C207.167 508.254 207.446 508.086 207.514 507.81C207.582 507.534 207.414 507.255 207.138 507.187L206.891 508.186ZM217.051 509.148C216.77 509.106 216.508 509.3 216.466 509.581C216.424 509.862 216.618 510.124 216.899 510.166L217.051 509.148ZM220.944 510.694C221.226 510.725 221.481 510.522 221.512 510.239C221.544 509.957 221.34 509.702 221.058 509.671L220.944 510.694ZM231.138 510.323C230.854 510.318 230.619 510.544 230.614 510.828C230.609 511.112 230.835 511.347 231.119 511.352L231.138 510.323ZM233.167 293.131C232.483 293.131 231.8 293.137 231.119 293.149L231.138 294.179C231.813 294.166 232.489 294.16 233.167 294.16V293.131ZM220.944 293.808C219.588 293.959 218.239 294.135 216.899 294.335L217.051 295.353C218.379 295.155 219.715 294.98 221.058 294.831L220.944 293.808ZM206.891 296.315C205.566 296.643 204.252 296.994 202.947 297.369L203.231 298.359C204.524 297.987 205.826 297.639 207.138 297.314L206.891 296.315ZM193.288 300.647C192.02 301.146 190.763 301.667 189.519 302.21L189.931 303.154C191.164 302.615 192.408 302.099 193.664 301.606L193.288 300.647ZM180.374 306.728C179.183 307.388 178.006 308.07 176.842 308.772L177.374 309.653C178.527 308.957 179.693 308.283 180.873 307.629L180.374 306.728ZM168.366 314.447C167.271 315.256 166.192 316.085 165.13 316.934L165.772 317.738C166.825 316.897 167.893 316.076 168.978 315.274L168.366 314.447ZM157.464 323.662C156.484 324.606 155.522 325.568 154.578 326.547L155.319 327.262C156.254 326.291 157.207 325.338 158.178 324.403L157.464 323.662ZM147.85 334.213C147.001 335.276 146.172 336.355 145.363 337.45L146.191 338.062C146.992 336.977 147.814 335.908 148.654 334.856L147.85 334.213ZM139.688 345.926C138.986 347.089 138.304 348.267 137.645 349.458L138.545 349.957C139.199 348.777 139.874 347.61 140.57 346.458L139.688 345.926ZM133.127 358.603C132.583 359.847 132.062 361.104 131.564 362.372L132.522 362.748C133.015 361.492 133.531 360.247 134.07 359.015L133.127 358.603ZM128.286 372.03C127.91 373.335 127.559 374.65 127.231 375.975L128.231 376.222C128.555 374.91 128.903 373.607 129.275 372.315L128.286 372.03ZM125.251 385.983C125.051 387.323 124.875 388.672 124.724 390.027L125.747 390.141C125.897 388.798 126.071 387.463 126.269 386.135L125.251 385.983ZM124.066 400.203C124.053 400.884 124.047 401.567 124.047 402.251H125.076C125.076 401.573 125.082 400.897 125.095 400.222L124.066 400.203ZM124.047 402.251C124.047 402.935 124.053 403.617 124.066 404.299L125.095 404.28C125.082 403.605 125.076 402.928 125.076 402.251H124.047ZM124.724 414.474C124.875 415.83 125.051 417.178 125.251 418.519L126.269 418.367C126.071 417.039 125.897 415.703 125.747 414.36L124.724 414.474ZM127.231 428.527C127.559 429.851 127.91 431.166 128.286 432.471L129.275 432.186C128.903 430.894 128.555 429.592 128.231 428.28L127.231 428.527ZM131.564 442.13C132.062 443.398 132.583 444.654 133.127 445.899L134.07 445.487C133.531 444.254 133.015 443.009 132.522 441.753L131.564 442.13ZM137.645 455.043C138.304 456.235 138.986 457.412 139.688 458.576L140.57 458.043C139.874 456.891 139.199 455.725 138.545 454.545L137.645 455.043ZM145.363 467.052C146.172 468.146 147.001 469.225 147.85 470.288L148.654 469.646C147.814 468.593 146.992 467.524 146.191 466.44L145.363 467.052ZM154.578 477.954C155.522 478.934 156.484 479.896 157.464 480.84L158.178 480.098C157.207 479.163 156.254 478.21 155.319 477.24L154.578 477.954ZM165.13 487.568C166.192 488.416 167.271 489.246 168.366 490.055L168.978 489.227C167.893 488.425 166.825 487.604 165.772 486.763L165.13 487.568ZM176.842 495.729C178.006 496.432 179.183 497.113 180.374 497.773L180.873 496.872C179.693 496.219 178.527 495.544 177.374 494.848L176.842 495.729ZM189.519 502.291C190.763 502.835 192.02 503.356 193.288 503.854L193.664 502.896C192.408 502.402 191.164 501.886 189.931 501.348L189.519 502.291ZM202.947 507.132C204.252 507.507 205.566 507.859 206.891 508.186L207.138 507.187C205.826 506.863 204.524 506.514 203.231 506.143L202.947 507.132ZM216.899 510.166C218.239 510.367 219.588 510.543 220.944 510.694L221.058 509.671C219.715 509.521 218.379 509.347 217.051 509.148L216.899 510.166ZM231.119 511.352C231.8 511.365 232.483 511.371 233.167 511.371V510.341C232.489 510.341 231.813 510.335 231.138 510.323L231.119 511.352ZM231.11 292.635C230.541 292.645 230.089 293.115 230.099 293.683C230.11 294.251 230.579 294.704 231.147 294.693L231.11 292.635ZM221.115 295.342C221.68 295.279 222.087 294.77 222.024 294.205C221.961 293.64 221.452 293.233 220.887 293.296L221.115 295.342ZM216.823 293.826C216.261 293.91 215.873 294.434 215.957 294.996C216.041 295.559 216.565 295.946 217.127 295.862L216.823 293.826ZM207.261 297.814C207.813 297.678 208.15 297.12 208.014 296.568C207.877 296.016 207.319 295.679 206.767 295.815L207.261 297.814ZM202.804 296.875C202.258 297.032 201.942 297.602 202.1 298.149C202.257 298.695 202.827 299.011 203.373 298.853L202.804 296.875ZM193.853 302.085C194.382 301.877 194.642 301.279 194.434 300.75C194.226 300.221 193.629 299.96 193.1 300.168L193.853 302.085ZM189.313 301.739C188.792 301.966 188.554 302.573 188.782 303.094C189.009 303.615 189.616 303.853 190.137 303.625L189.313 301.739ZM181.122 308.079C181.62 307.804 181.8 307.177 181.524 306.68C181.249 306.183 180.622 306.003 180.125 306.278L181.122 308.079ZM176.576 308.331C176.089 308.625 175.933 309.258 176.227 309.745C176.521 310.232 177.154 310.388 177.64 310.094L176.576 308.331ZM169.284 315.688C169.741 315.35 169.838 314.706 169.5 314.249C169.162 313.791 168.517 313.695 168.06 314.033L169.284 315.688ZM164.808 316.531C164.364 316.886 164.292 317.534 164.646 317.978C165.001 318.422 165.649 318.495 166.093 318.14L164.808 316.531ZM158.535 324.774C158.944 324.379 158.957 323.727 158.562 323.318C158.168 322.909 157.516 322.897 157.106 323.291L158.535 324.774ZM154.207 326.19C153.813 326.6 153.825 327.251 154.234 327.646C154.644 328.04 155.295 328.028 155.69 327.619L154.207 326.19ZM149.056 335.177C149.411 334.733 149.339 334.085 148.894 333.73C148.45 333.375 147.802 333.448 147.448 333.892L149.056 335.177ZM144.949 337.144C144.611 337.601 144.708 338.245 145.165 338.583C145.622 338.921 146.267 338.825 146.605 338.368L144.949 337.144ZM141.01 346.724C141.304 346.237 141.148 345.605 140.661 345.311C140.174 345.017 139.542 345.173 139.248 345.66L141.01 346.724ZM137.194 349.209C136.919 349.706 137.099 350.333 137.596 350.608C138.094 350.883 138.72 350.704 138.995 350.206L137.194 349.209ZM134.542 359.221C134.769 358.7 134.532 358.093 134.011 357.865C133.49 357.638 132.883 357.876 132.655 358.396L134.542 359.221ZM131.085 362.184C130.877 362.713 131.137 363.31 131.666 363.518C132.196 363.726 132.793 363.465 133.001 362.936L131.085 362.184ZM129.77 372.457C129.927 371.911 129.611 371.34 129.065 371.183C128.519 371.026 127.948 371.342 127.791 371.888L129.77 372.457ZM126.732 375.851C126.595 376.403 126.932 376.961 127.484 377.098C128.036 377.234 128.594 376.897 128.73 376.345L126.732 375.851ZM126.778 386.211C126.863 385.649 126.475 385.125 125.913 385.041C125.35 384.957 124.826 385.344 124.742 385.907L126.778 386.211ZM124.212 389.97C124.149 390.535 124.556 391.045 125.121 391.108C125.686 391.171 126.195 390.764 126.258 390.198L124.212 389.97ZM125.61 400.231C125.62 399.663 125.168 399.193 124.599 399.183C124.031 399.173 123.561 399.625 123.551 400.193L125.61 400.231ZM123.551 404.308C123.561 404.876 124.031 405.329 124.599 405.318C125.168 405.308 125.62 404.839 125.61 404.27L123.551 404.308ZM126.258 414.303C126.195 413.738 125.686 413.331 125.121 413.394C124.556 413.457 124.149 413.966 124.212 414.531L126.258 414.303ZM124.742 418.595C124.826 419.157 125.35 419.545 125.913 419.461C126.475 419.377 126.863 418.853 126.778 418.29L124.742 418.595ZM128.73 428.156C128.594 427.604 128.036 427.267 127.484 427.404C126.932 427.54 126.595 428.098 126.732 428.65L128.73 428.156ZM127.791 432.613C127.948 433.16 128.519 433.475 129.065 433.318C129.611 433.161 129.927 432.591 129.77 432.044L127.791 432.613ZM133.001 441.565C132.793 441.036 132.196 440.775 131.666 440.983C131.137 441.191 130.877 441.789 131.085 442.318L133.001 441.565ZM132.655 446.105C132.883 446.626 133.49 446.864 134.011 446.636C134.532 446.408 134.769 445.802 134.542 445.281L132.655 446.105ZM138.996 454.295C138.72 453.798 138.094 453.618 137.596 453.893C137.099 454.169 136.919 454.795 137.194 455.293L138.996 454.295ZM139.248 458.842C139.542 459.328 140.174 459.485 140.661 459.191C141.148 458.897 141.304 458.264 141.01 457.777L139.248 458.842ZM146.605 466.134C146.267 465.677 145.622 465.58 145.165 465.918C144.708 466.256 144.611 466.901 144.949 467.358L146.605 466.134ZM147.448 470.609C147.802 471.054 148.45 471.126 148.894 470.771C149.339 470.417 149.411 469.769 149.057 469.325L147.448 470.609ZM155.69 476.883C155.295 476.473 154.644 476.461 154.234 476.856C153.825 477.25 153.813 477.902 154.207 478.311L155.69 476.883ZM157.106 481.21C157.516 481.605 158.168 481.593 158.562 481.183C158.957 480.774 158.944 480.122 158.535 479.728L157.106 481.21ZM166.093 486.361C165.649 486.006 165.001 486.079 164.646 486.523C164.292 486.968 164.364 487.615 164.808 487.97L166.093 486.361ZM168.06 490.469C168.517 490.807 169.162 490.71 169.5 490.253C169.838 489.796 169.741 489.151 169.284 488.813L168.06 490.469ZM177.64 494.407C177.154 494.114 176.521 494.27 176.227 494.757C175.933 495.243 176.089 495.876 176.576 496.17L177.64 494.407ZM180.125 498.223C180.622 498.499 181.249 498.319 181.524 497.821C181.8 497.324 181.62 496.698 181.122 496.422L180.125 498.223ZM190.137 500.876C189.616 500.648 189.009 500.886 188.782 501.407C188.554 501.928 188.792 502.535 189.313 502.763L190.137 500.876ZM193.1 504.333C193.629 504.541 194.226 504.28 194.434 503.751C194.642 503.222 194.382 502.625 193.853 502.417L193.1 504.333ZM203.373 505.648C202.827 505.491 202.257 505.806 202.1 506.353C201.942 506.899 202.258 507.469 202.804 507.627L203.373 505.648ZM206.767 508.686C207.319 508.822 207.877 508.486 208.014 507.934C208.15 507.382 207.813 506.824 207.261 506.687L206.767 508.686ZM217.127 508.639C216.565 508.555 216.041 508.943 215.957 509.505C215.873 510.067 216.261 510.591 216.823 510.675L217.127 508.639ZM220.887 511.205C221.452 511.268 221.961 510.861 222.024 510.296C222.087 509.731 221.68 509.222 221.115 509.159L220.887 511.205ZM231.147 509.808C230.579 509.798 230.11 510.25 230.099 510.818C230.089 511.387 230.541 511.856 231.11 511.867L231.147 509.808ZM233.167 292.616C232.48 292.616 231.794 292.622 231.11 292.635L231.147 294.693C231.819 294.681 232.492 294.675 233.167 294.675V292.616ZM220.887 293.296C219.524 293.448 218.17 293.625 216.823 293.826L217.127 295.862C218.449 295.665 219.778 295.491 221.115 295.342L220.887 293.296ZM206.767 295.815C205.437 296.144 204.115 296.498 202.804 296.875L203.373 298.853C204.66 298.484 205.956 298.137 207.261 297.814L206.767 295.815ZM193.1 300.168C191.826 300.669 190.563 301.193 189.313 301.739L190.137 303.625C191.364 303.089 192.602 302.576 193.853 302.085L193.1 300.168ZM180.125 306.278C178.928 306.941 177.745 307.626 176.576 308.331L177.64 310.094C178.787 309.401 179.948 308.73 181.122 308.079L180.125 306.278ZM168.06 314.033C166.96 314.846 165.876 315.679 164.808 316.531L166.093 318.14C167.141 317.304 168.205 316.486 169.284 315.688L168.06 314.033ZM157.106 323.291C156.122 324.239 155.156 325.206 154.207 326.19L155.69 327.619C156.621 326.653 157.569 325.704 158.535 324.774L157.106 323.291ZM147.448 333.892C146.595 334.96 145.762 336.044 144.949 337.144L146.605 338.368C147.402 337.288 148.22 336.225 149.056 335.177L147.448 333.892ZM139.248 345.66C138.542 346.829 137.857 348.012 137.194 349.209L138.995 350.206C139.646 349.032 140.318 347.871 141.01 346.724L139.248 345.66ZM132.655 358.396C132.109 359.647 131.585 360.909 131.085 362.184L133.001 362.936C133.492 361.686 134.006 360.448 134.542 359.221L132.655 358.396ZM127.791 371.888C127.414 373.199 127.061 374.52 126.732 375.851L128.73 376.345C129.053 375.04 129.4 373.743 129.77 372.457L127.791 371.888ZM124.742 385.907C124.541 387.253 124.364 388.608 124.212 389.97L126.258 390.198C126.407 388.862 126.581 387.532 126.778 386.211L124.742 385.907ZM123.551 400.193C123.538 400.878 123.532 401.563 123.532 402.251H125.591C125.591 401.576 125.597 400.903 125.61 400.231L123.551 400.193ZM123.532 402.251C123.532 402.938 123.538 403.624 123.551 404.308L125.61 404.27C125.597 403.598 125.591 402.925 125.591 402.251H123.532ZM124.212 414.531C124.364 415.893 124.541 417.248 124.742 418.595L126.778 418.29C126.581 416.969 126.407 415.64 126.258 414.303L124.212 414.531ZM126.732 428.65C127.061 429.981 127.414 431.302 127.791 432.613L129.77 432.044C129.4 430.758 129.053 429.462 128.73 428.156L126.732 428.65ZM131.085 442.318C131.585 443.592 132.109 444.855 132.655 446.105L134.542 445.281C134.006 444.054 133.492 442.815 133.001 441.565L131.085 442.318ZM137.194 455.293C137.857 456.49 138.542 457.673 139.248 458.842L141.01 457.777C140.318 456.63 139.646 455.47 138.996 454.295L137.194 455.293ZM144.949 467.358C145.762 468.458 146.595 469.542 147.448 470.609L149.057 469.325C148.22 468.277 147.402 467.213 146.605 466.134L144.949 467.358ZM154.207 478.311C155.156 479.295 156.122 480.262 157.106 481.21L158.535 479.728C157.569 478.797 156.621 477.849 155.69 476.883L154.207 478.311ZM164.808 487.97C165.876 488.823 166.96 489.656 168.06 490.469L169.284 488.813C168.205 488.015 167.141 487.198 166.093 486.361L164.808 487.97ZM176.576 496.17C177.745 496.876 178.928 497.56 180.125 498.223L181.122 496.422C179.948 495.772 178.787 495.1 177.64 494.407L176.576 496.17ZM189.313 502.763C190.563 503.309 191.826 503.833 193.1 504.333L193.853 502.417C192.602 501.926 191.364 501.412 190.137 500.876L189.313 502.763ZM202.804 507.627C204.115 508.004 205.437 508.357 206.767 508.686L207.261 506.687C205.956 506.364 204.66 506.018 203.373 505.648L202.804 507.627ZM216.823 510.675C218.17 510.877 219.524 511.054 220.887 511.205L221.115 509.159C219.778 509.01 218.449 508.837 217.127 508.639L216.823 510.675ZM231.11 511.867C231.794 511.879 232.48 511.886 233.167 511.886V509.827C232.492 509.827 231.819 509.82 231.147 509.808L231.11 511.867Z" fill="#A2A9AE"/>
<path d="M369.768 118.73C369.72 118.449 369.908 118.183 370.188 118.135L374.753 117.348C375.034 117.3 375.3 117.488 375.348 117.768C375.396 118.048 375.208 118.314 374.928 118.362L370.87 119.062L371.57 123.12C371.618 123.4 371.43 123.666 371.15 123.714C370.87 123.763 370.604 123.575 370.555 123.295L369.768 118.73ZM372.235 119.418C372.464 119.586 372.513 119.908 372.345 120.138C372.177 120.367 371.855 120.416 371.626 120.248L372.235 119.418ZM379.485 126.594C379.272 126.405 379.253 126.08 379.441 125.868C379.63 125.655 379.955 125.635 380.168 125.824L379.485 126.594ZM383.168 128.588C383.373 128.784 383.381 129.11 383.184 129.315C382.988 129.521 382.662 129.528 382.456 129.332L383.168 128.588ZM389.424 136.651C389.238 136.436 389.261 136.111 389.476 135.925C389.691 135.739 390.016 135.762 390.202 135.977L389.424 136.651ZM392.816 139.113C392.994 139.335 392.958 139.659 392.737 139.837C392.515 140.015 392.191 139.979 392.013 139.757L392.816 139.113ZM397.956 147.927C397.8 147.69 397.866 147.371 398.103 147.214C398.341 147.058 398.66 147.124 398.816 147.362L397.956 147.927ZM400.994 150.812C401.141 151.055 401.063 151.372 400.82 151.519C400.577 151.666 400.26 151.588 400.113 151.345L400.994 150.812ZM404.932 160.225C404.808 159.969 404.916 159.661 405.171 159.538C405.427 159.414 405.735 159.521 405.859 159.777L404.932 160.225ZM407.566 163.484C407.68 163.744 407.561 164.047 407.301 164.162C407.041 164.276 406.737 164.157 406.623 163.897L407.566 163.484ZM410.241 173.331C410.151 173.061 410.298 172.77 410.568 172.681C410.837 172.591 411.129 172.738 411.218 173.008L410.241 173.331ZM412.427 176.906C412.507 177.179 412.349 177.464 412.076 177.544C411.803 177.623 411.518 177.466 411.439 177.193L412.427 176.906ZM413.799 187.017C413.745 186.738 413.928 186.468 414.207 186.415C414.487 186.361 414.756 186.544 414.81 186.823L413.799 187.017ZM415.503 190.845C415.546 191.126 415.353 191.389 415.072 191.432C414.791 191.475 414.529 191.282 414.486 191.001L415.503 190.845ZM415.551 201.049C415.534 200.765 415.75 200.521 416.034 200.505C416.318 200.488 416.562 200.704 416.578 200.988L415.551 201.049ZM416.744 205.066C416.75 205.35 416.525 205.586 416.24 205.592C415.956 205.598 415.721 205.373 415.714 205.089L416.744 205.066ZM415.464 215.19C415.484 214.906 415.731 214.693 416.014 214.713C416.298 214.734 416.511 214.98 416.491 215.263L415.464 215.19ZM416.123 219.328C416.093 219.61 415.838 219.814 415.556 219.783C415.273 219.752 415.069 219.498 415.1 219.216L416.123 219.328ZM413.532 229.196C413.589 228.918 413.862 228.739 414.14 228.796C414.418 228.853 414.598 229.125 414.541 229.404L413.532 229.196ZM413.644 233.384C413.576 233.66 413.297 233.829 413.021 233.762C412.745 233.694 412.576 233.415 412.644 233.139L413.644 233.384ZM409.779 242.827C409.872 242.559 410.166 242.417 410.434 242.51C410.703 242.603 410.845 242.897 410.751 243.165L409.779 242.827ZM409.338 246.996C409.234 247.26 408.936 247.391 408.671 247.288C408.406 247.184 408.276 246.886 408.379 246.621L409.338 246.996ZM404.264 255.851C404.392 255.597 404.701 255.495 404.955 255.622C405.209 255.75 405.311 256.06 405.184 256.314L404.264 255.851ZM403.282 259.922C403.145 260.171 402.832 260.262 402.583 260.124C402.334 259.987 402.243 259.674 402.38 259.425L403.282 259.922ZM397.099 268.036C397.259 267.801 397.579 267.74 397.814 267.899C398.05 268.059 398.111 268.379 397.951 268.614L397.099 268.036ZM395.589 271.96C395.421 272.19 395.099 272.239 394.87 272.071C394.64 271.903 394.591 271.58 394.759 271.351L395.589 271.96ZM388.413 279.21C388.602 278.998 388.927 278.978 389.14 279.167C389.352 279.356 389.372 279.681 389.183 279.894L388.413 279.21ZM386.419 282.894C386.223 283.099 385.897 283.106 385.692 282.91C385.486 282.713 385.479 282.388 385.675 282.182L386.419 282.894ZM378.356 289.149C378.571 288.963 378.896 288.987 379.082 289.202C379.268 289.416 379.245 289.742 379.03 289.928L378.356 289.149ZM375.894 292.542C375.672 292.72 375.348 292.684 375.17 292.462C374.992 292.241 375.028 291.917 375.25 291.739L375.894 292.542ZM367.08 297.682C367.317 297.526 367.637 297.591 367.793 297.829C367.949 298.066 367.883 298.386 367.646 298.542L367.08 297.682ZM364.195 300.72C363.952 300.867 363.635 300.789 363.488 300.546C363.341 300.303 363.419 299.986 363.662 299.839L364.195 300.72ZM354.782 304.658C355.038 304.534 355.346 304.641 355.47 304.897C355.593 305.153 355.486 305.461 355.23 305.585L354.782 304.658ZM351.524 307.292C351.263 307.406 350.96 307.287 350.846 307.027C350.732 306.766 350.85 306.463 351.111 306.349L351.524 307.292ZM341.676 309.966C341.946 309.877 342.237 310.023 342.326 310.293C342.416 310.563 342.269 310.854 341.999 310.944L341.676 309.966ZM338.101 312.153C337.828 312.232 337.543 312.075 337.464 311.802C337.384 311.529 337.541 311.244 337.815 311.164L338.101 312.153ZM327.99 313.524C328.269 313.471 328.539 313.654 328.592 313.933C328.646 314.212 328.463 314.482 328.184 314.536L327.99 313.524ZM324.162 315.229C323.881 315.272 323.618 315.079 323.575 314.798C323.532 314.517 323.725 314.254 324.006 314.211L324.162 315.229ZM313.958 315.276C314.242 315.26 314.486 315.476 314.503 315.76C314.519 316.044 314.303 316.287 314.019 316.304L313.958 315.276ZM309.941 316.469C309.657 316.476 309.421 316.25 309.415 315.966C309.409 315.682 309.634 315.446 309.918 315.44L309.941 316.469ZM299.817 315.19C300.101 315.21 300.314 315.456 300.294 315.74C300.274 316.024 300.027 316.237 299.744 316.217L299.817 315.19ZM295.68 315.849C295.397 315.818 295.193 315.564 295.224 315.281C295.255 314.999 295.509 314.795 295.791 314.826L295.68 315.849ZM285.811 313.258C286.089 313.315 286.269 313.587 286.211 313.866C286.154 314.144 285.882 314.323 285.603 314.266L285.811 313.258ZM281.623 313.369C281.347 313.302 281.178 313.023 281.245 312.747C281.313 312.471 281.592 312.302 281.868 312.37L281.623 313.369ZM272.18 309.505C272.448 309.598 272.59 309.891 272.497 310.16C272.404 310.428 272.11 310.57 271.842 310.477L272.18 309.505ZM268.012 309.064C267.747 308.96 267.616 308.662 267.719 308.397C267.823 308.132 268.121 308.001 268.386 308.105L268.012 309.064ZM259.156 303.99C259.41 304.118 259.513 304.427 259.385 304.681C259.257 304.935 258.948 305.037 258.694 304.909L259.156 303.99ZM255.085 303.008C254.836 302.87 254.745 302.557 254.883 302.308C255.02 302.059 255.333 301.969 255.582 302.106L255.085 303.008ZM246.971 296.825C247.206 296.985 247.267 297.305 247.108 297.54C246.948 297.775 246.628 297.836 246.393 297.677L246.971 296.825ZM370.573 118.222C371.131 118.616 371.685 119.015 372.235 119.418L371.626 120.248C371.082 119.849 370.533 119.454 369.979 119.063L370.573 118.222ZM380.168 125.824C381.188 126.73 382.188 127.651 383.168 128.588L382.456 129.332C381.486 128.404 380.496 127.491 379.485 126.594L380.168 125.824ZM390.202 135.977C391.095 137.009 391.967 138.054 392.816 139.113L392.013 139.757C391.172 138.708 390.308 137.673 389.424 136.651L390.202 135.977ZM398.816 147.362C399.565 148.5 400.291 149.65 400.994 150.812L400.113 151.345C399.417 150.194 398.698 149.055 397.956 147.927L398.816 147.362ZM405.859 159.777C406.452 161.003 407.021 162.239 407.566 163.484L406.623 163.897C406.083 162.663 405.519 161.439 404.932 160.225L405.859 159.777ZM411.218 173.008C411.645 174.3 412.049 175.6 412.427 176.906L411.439 177.193C411.064 175.899 410.664 174.611 410.241 173.331L411.218 173.008ZM414.81 186.823C415.066 188.16 415.297 189.5 415.503 190.845L414.486 191.001C414.281 189.669 414.052 188.341 413.799 187.017L414.81 186.823ZM416.578 200.988C416.659 202.346 416.714 203.705 416.744 205.066L415.714 205.089C415.685 203.741 415.63 202.394 415.551 201.049L416.578 200.988ZM416.491 215.263C416.394 216.619 416.271 217.974 416.123 219.328L415.1 219.216C415.247 217.875 415.368 216.533 415.464 215.19L416.491 215.263ZM414.541 229.404C414.267 230.734 413.968 232.061 413.644 233.384L412.644 233.139C412.965 231.828 413.261 230.514 413.532 229.196L414.541 229.404ZM410.751 243.165C410.305 244.448 409.834 245.725 409.338 246.996L408.379 246.621C408.871 245.362 409.337 244.097 409.779 242.827L410.751 243.165ZM405.184 256.314C404.574 257.524 403.94 258.727 403.282 259.922L402.38 259.425C403.033 258.242 403.66 257.05 404.264 255.851L405.184 256.314ZM397.951 268.614C397.569 269.178 397.18 269.739 396.786 270.298L395.945 269.705C396.335 269.151 396.72 268.595 397.099 268.036L397.951 268.614ZM396.786 270.298C396.391 270.857 395.992 271.411 395.589 271.96L394.759 271.351C395.158 270.807 395.554 270.258 395.945 269.705L396.786 270.298ZM389.183 279.894C388.278 280.914 387.356 281.914 386.419 282.894L385.675 282.182C386.603 281.212 387.516 280.221 388.413 279.21L389.183 279.894ZM379.03 289.928C377.999 290.821 376.953 291.692 375.894 292.542L375.25 291.739C376.299 290.897 377.334 290.034 378.356 289.149L379.03 289.928ZM367.646 298.542C366.507 299.291 365.357 300.017 364.195 300.72L363.662 299.839C364.813 299.142 365.952 298.423 367.08 297.682L367.646 298.542ZM355.23 305.585C354.004 306.177 352.768 306.746 351.524 307.292L351.111 306.349C352.344 305.808 353.568 305.245 354.782 304.658L355.23 305.585ZM341.999 310.944C340.707 311.371 339.407 311.774 338.101 312.153L337.815 311.164C339.108 310.789 340.396 310.39 341.676 309.966L341.999 310.944ZM328.184 314.536C326.848 314.791 325.507 315.023 324.162 315.229L324.006 314.211C325.338 314.007 326.666 313.778 327.99 313.524L328.184 314.536ZM314.019 316.304C312.662 316.384 311.302 316.44 309.941 316.469L309.918 315.44C311.267 315.411 312.613 315.356 313.958 315.276L314.019 316.304ZM299.744 316.217C298.388 316.12 297.033 315.997 295.68 315.849L295.791 314.826C297.132 314.972 298.475 315.094 299.817 315.19L299.744 316.217ZM285.603 314.266C284.273 313.993 282.946 313.694 281.623 313.369L281.868 312.37C283.179 312.691 284.493 312.987 285.811 313.258L285.603 314.266ZM271.842 310.477C270.559 310.031 269.282 309.56 268.012 309.064L268.386 308.105C269.645 308.596 270.91 309.063 272.18 309.505L271.842 310.477ZM258.694 304.909C257.483 304.3 256.28 303.666 255.085 303.008L255.582 302.106C256.766 302.758 257.957 303.386 259.156 303.99L258.694 304.909ZM246.393 297.677C245.829 297.294 245.268 296.906 244.709 296.511L245.303 295.67C245.856 296.061 246.412 296.446 246.971 296.825L246.393 297.677ZM369.261 118.817C369.165 118.257 369.541 117.724 370.101 117.628L379.231 116.054C379.791 115.957 380.324 116.333 380.42 116.893C380.517 117.454 380.141 117.986 379.581 118.083L371.465 119.482L372.864 127.598C372.961 128.158 372.585 128.69 372.024 128.787C371.464 128.883 370.932 128.508 370.835 127.947L369.261 118.817ZM372.539 119.003C372.998 119.339 373.096 119.984 372.76 120.442C372.424 120.9 371.779 120.999 371.321 120.663L372.539 119.003ZM379.143 126.979C378.718 126.602 378.679 125.951 379.056 125.526C379.434 125.101 380.084 125.062 380.509 125.439L379.143 126.979ZM383.524 128.216C383.935 128.609 383.949 129.26 383.556 129.671C383.163 130.082 382.512 130.097 382.101 129.704L383.524 128.216ZM389.035 136.988C388.663 136.558 388.709 135.908 389.139 135.536C389.569 135.164 390.219 135.21 390.591 135.64L389.035 136.988ZM393.218 138.791C393.573 139.235 393.502 139.883 393.059 140.238C392.615 140.594 391.967 140.523 391.612 140.079L393.218 138.791ZM397.526 148.21C397.214 147.735 397.345 147.097 397.82 146.784C398.295 146.472 398.934 146.604 399.246 147.079L397.526 148.21ZM401.434 150.546C401.729 151.032 401.573 151.665 401.087 151.959C400.6 152.254 399.967 152.098 399.673 151.612L401.434 150.546ZM404.469 160.449C404.221 159.937 404.436 159.322 404.947 159.074C405.459 158.827 406.075 159.041 406.322 159.553L404.469 160.449ZM408.037 163.277C408.265 163.798 408.028 164.405 407.507 164.633C406.987 164.861 406.38 164.624 406.151 164.103L408.037 163.277ZM409.752 173.493C409.573 172.953 409.866 172.371 410.406 172.192C410.946 172.013 411.528 172.306 411.707 172.846L409.752 173.493ZM412.922 176.763C413.08 177.309 412.766 177.88 412.22 178.038C411.674 178.196 411.103 177.882 410.944 177.336L412.922 176.763ZM413.293 187.114C413.186 186.556 413.552 186.016 414.111 185.909C414.669 185.802 415.208 186.168 415.315 186.727L413.293 187.114ZM416.012 190.767C416.098 191.329 415.712 191.855 415.15 191.941C414.588 192.027 414.063 191.641 413.977 191.079L416.012 190.767ZM415.037 201.079C415.003 200.512 415.436 200.024 416.004 199.991C416.571 199.957 417.059 200.39 417.092 200.958L415.037 201.079ZM417.258 205.055C417.271 205.623 416.82 206.094 416.252 206.107C415.683 206.119 415.212 205.668 415.2 205.1L417.258 205.055ZM414.951 215.153C414.991 214.586 415.484 214.159 416.051 214.2C416.618 214.24 417.045 214.733 417.004 215.3L414.951 215.153ZM416.635 219.384C416.573 219.949 416.065 220.357 415.5 220.295C414.935 220.233 414.527 219.725 414.588 219.16L416.635 219.384ZM413.028 229.093C413.143 228.536 413.687 228.177 414.244 228.292C414.801 228.406 415.159 228.95 415.045 229.507L413.028 229.093ZM414.144 233.507C414.008 234.059 413.451 234.397 412.899 234.262C412.346 234.126 412.009 233.569 412.144 233.017L414.144 233.507ZM409.293 242.658C409.479 242.121 410.066 241.837 410.603 242.024C411.14 242.211 411.424 242.797 411.237 243.334L409.293 242.658ZM409.817 247.183C409.61 247.712 409.013 247.974 408.484 247.767C407.954 247.56 407.693 246.963 407.899 246.434L409.817 247.183ZM403.804 255.619C404.06 255.111 404.679 254.907 405.187 255.163C405.695 255.418 405.899 256.037 405.643 256.545L403.804 255.619ZM403.733 260.171C403.458 260.668 402.832 260.85 402.334 260.575C401.836 260.301 401.655 259.675 401.929 259.177L403.733 260.171ZM396.674 267.747C396.993 267.277 397.633 267.154 398.103 267.474C398.574 267.793 398.696 268.433 398.377 268.903L396.674 267.747ZM396.004 272.265C395.668 272.723 395.023 272.822 394.565 272.486C394.107 272.149 394.008 271.505 394.344 271.047L396.004 272.265ZM388.028 278.869C388.405 278.443 389.056 278.405 389.481 278.782C389.906 279.159 389.945 279.81 389.568 280.235L388.028 278.869ZM386.791 283.249C386.398 283.66 385.747 283.675 385.336 283.282C384.925 282.889 384.91 282.237 385.303 281.826L386.791 283.249ZM378.019 288.76C378.449 288.388 379.099 288.435 379.471 288.865C379.843 289.294 379.797 289.945 379.367 290.317L378.019 288.76ZM376.216 292.943C375.772 293.299 375.125 293.228 374.769 292.784C374.413 292.341 374.484 291.693 374.928 291.337L376.216 292.943ZM366.797 297.252C367.272 296.939 367.91 297.071 368.223 297.546C368.535 298.021 368.403 298.659 367.928 298.972L366.797 297.252ZM364.461 301.16C363.975 301.454 363.342 301.299 363.048 300.812C362.753 300.326 362.909 299.693 363.396 299.399L364.461 301.16ZM354.558 304.194C355.07 303.947 355.686 304.161 355.933 304.673C356.18 305.185 355.966 305.801 355.454 306.048L354.558 304.194ZM351.73 307.763C351.209 307.991 350.602 307.754 350.374 307.233C350.146 306.712 350.383 306.105 350.904 305.877L351.73 307.763ZM341.514 309.478C342.054 309.299 342.637 309.592 342.815 310.131C342.994 310.671 342.701 311.254 342.161 311.432L341.514 309.478ZM338.245 312.647C337.699 312.806 337.128 312.492 336.969 311.945C336.811 311.399 337.125 310.828 337.671 310.67L338.245 312.647ZM327.893 313.019C328.452 312.912 328.991 313.278 329.098 313.836C329.205 314.395 328.839 314.934 328.281 315.041L327.893 313.019ZM324.24 315.738C323.678 315.824 323.153 315.438 323.066 314.876C322.98 314.314 323.366 313.789 323.928 313.702L324.24 315.738ZM313.928 314.763C314.495 314.729 314.983 315.162 315.016 315.729C315.05 316.297 314.617 316.784 314.05 316.818L313.928 314.763ZM309.952 316.984C309.384 316.996 308.913 316.546 308.901 315.977C308.888 315.409 309.339 314.938 309.907 314.926L309.952 316.984ZM299.854 314.676C300.421 314.717 300.848 315.21 300.807 315.777C300.767 316.344 300.274 316.771 299.707 316.73L299.854 314.676ZM295.624 316.361C295.058 316.299 294.65 315.791 294.712 315.226C294.774 314.66 295.282 314.252 295.847 314.314L295.624 316.361ZM285.914 312.754C286.471 312.868 286.83 313.412 286.715 313.969C286.601 314.526 286.057 314.885 285.5 314.77L285.914 312.754ZM281.5 313.869C280.948 313.734 280.61 313.176 280.746 312.624C280.881 312.072 281.438 311.734 281.99 311.87L281.5 313.869ZM272.349 309.018C272.886 309.205 273.17 309.792 272.983 310.329C272.796 310.866 272.21 311.15 271.673 310.963L272.349 309.018ZM267.824 309.543C267.295 309.336 267.033 308.739 267.24 308.21C267.447 307.68 268.044 307.418 268.573 307.625L267.824 309.543ZM259.388 303.53C259.896 303.786 260.1 304.405 259.845 304.912C259.589 305.42 258.97 305.625 258.462 305.369L259.388 303.53ZM254.837 303.458C254.339 303.184 254.157 302.558 254.432 302.06C254.706 301.562 255.332 301.381 255.83 301.655L254.837 303.458ZM247.26 296.399C247.73 296.718 247.853 297.359 247.534 297.829C247.214 298.299 246.574 298.422 246.104 298.103L247.26 296.399ZM370.869 117.801C371.431 118.197 371.987 118.598 372.539 119.003L371.321 120.663C370.78 120.265 370.233 119.872 369.682 119.483L370.869 117.801ZM380.509 125.439C381.535 126.349 382.54 127.275 383.524 128.216L382.101 129.704C381.135 128.78 380.149 127.872 379.143 126.979L380.509 125.439ZM390.591 135.64C391.488 136.676 392.364 137.727 393.218 138.791L391.612 140.079C390.774 139.035 389.915 138.005 389.035 136.988L390.591 135.64ZM399.246 147.079C399.999 148.222 400.728 149.378 401.434 150.546L399.673 151.612C398.98 150.466 398.264 149.332 397.526 148.21L399.246 147.079ZM406.322 159.553C406.918 160.785 407.489 162.026 408.037 163.277L406.151 164.103C405.614 162.876 405.053 161.658 404.469 160.449L406.322 159.553ZM411.707 172.846C412.136 174.144 412.541 175.45 412.922 176.763L410.944 177.336C410.571 176.048 410.173 174.767 409.752 173.493L411.707 172.846ZM415.315 186.727C415.573 188.069 415.805 189.416 416.012 190.767L413.977 191.079C413.773 189.753 413.546 188.431 413.293 187.114L415.315 186.727ZM417.092 200.958C417.173 202.322 417.228 203.688 417.258 205.055L415.2 205.1C415.171 203.758 415.116 202.418 415.037 201.079L417.092 200.958ZM417.004 215.3C416.907 216.662 416.784 218.023 416.635 219.384L414.588 219.16C414.734 217.825 414.855 216.489 414.951 215.153L417.004 215.3ZM415.045 229.507C414.77 230.844 414.47 232.177 414.144 233.507L412.144 233.017C412.464 231.712 412.758 230.404 413.028 229.093L415.045 229.507ZM411.237 243.334C410.789 244.623 410.316 245.906 409.817 247.183L407.899 246.434C408.389 245.181 408.853 243.922 409.293 242.658L411.237 243.334ZM405.643 256.545C405.031 257.761 404.394 258.97 403.733 260.171L401.929 259.177C402.579 257.999 403.204 256.813 403.804 255.619L405.643 256.545ZM398.377 268.903C397.993 269.47 397.602 270.034 397.206 270.595L395.524 269.408C395.913 268.857 396.296 268.303 396.674 267.747L398.377 268.903ZM397.206 270.595C396.81 271.157 396.409 271.713 396.004 272.265L394.344 271.047C394.742 270.505 395.135 269.959 395.524 269.408L397.206 270.595ZM389.568 280.235C388.658 281.26 387.733 282.265 386.791 283.249L385.303 281.826C386.227 280.861 387.135 279.875 388.028 278.869L389.568 280.235ZM379.367 290.317C378.331 291.214 377.28 292.09 376.216 292.943L374.928 291.337C375.972 290.5 377.002 289.641 378.019 288.76L379.367 290.317ZM367.928 298.972C366.785 299.724 365.629 300.454 364.461 301.16L363.396 299.399C364.541 298.705 365.675 297.99 366.797 297.252L367.928 298.972ZM355.454 306.048C354.222 306.643 352.981 307.215 351.73 307.763L350.904 305.877C352.131 305.34 353.35 304.779 354.558 304.194L355.454 306.048ZM342.161 311.432C340.863 311.862 339.557 312.267 338.245 312.647L337.671 310.67C338.959 310.297 340.24 309.899 341.514 309.478L342.161 311.432ZM328.281 315.041C326.938 315.298 325.591 315.53 324.24 315.738L323.928 313.702C325.254 313.499 326.576 313.271 327.893 313.019L328.281 315.041ZM314.05 316.818C312.686 316.899 311.32 316.954 309.952 316.984L309.907 314.926C311.249 314.896 312.589 314.842 313.928 314.763L314.05 316.818ZM299.707 316.73C298.345 316.633 296.984 316.509 295.624 316.361L295.847 314.314C297.182 314.46 298.518 314.581 299.854 314.676L299.707 316.73ZM285.5 314.77C284.163 314.496 282.83 314.195 281.5 313.869L281.99 311.87C283.295 312.189 284.603 312.484 285.914 312.754L285.5 314.77ZM271.673 310.963C270.384 310.515 269.101 310.042 267.824 309.543L268.573 307.625C269.826 308.114 271.085 308.579 272.349 309.018L271.673 310.963ZM258.462 305.369C257.246 304.757 256.037 304.12 254.837 303.458L255.83 301.655C257.008 302.304 258.194 302.929 259.388 303.53L258.462 305.369ZM246.104 298.103C245.537 297.718 244.974 297.328 244.412 296.932L245.599 295.25C246.151 295.639 246.704 296.022 247.26 296.399L246.104 298.103Z" fill="#A2A9AE"/>
<rect x="347.949" y="259.674" width="58.7684" height="59.6767" rx="29.3842" fill="#EC325A"/>
<path d="M377.437 276.58C379.894 276.58 381.866 277.211 383.354 278.473C384.842 279.735 385.586 281.539 385.586 283.883C385.586 285.934 384.898 287.557 383.523 288.752C382.171 289.946 380.379 290.566 378.147 290.611L377.978 293.079H372.129L371.926 286.351H374.36C375.893 286.351 377.065 286.182 377.877 285.844C378.688 285.483 379.094 284.852 379.094 283.95C379.094 283.342 378.925 282.868 378.587 282.53C378.271 282.17 377.832 281.989 377.268 281.989C376.637 281.989 376.152 282.181 375.814 282.564C375.499 282.925 375.341 283.421 375.341 284.052H369.086C369.041 282.677 369.322 281.426 369.931 280.299C370.562 279.149 371.509 278.248 372.771 277.594C374.033 276.918 375.589 276.58 377.437 276.58ZM375.104 302.445C373.932 302.445 372.985 302.13 372.264 301.498C371.565 300.845 371.216 300.022 371.216 299.03C371.216 298.038 371.565 297.216 372.264 296.562C372.985 295.908 373.932 295.581 375.104 295.581C376.254 295.581 377.178 295.908 377.877 296.562C378.598 297.216 378.959 298.038 378.959 299.03C378.959 299.999 378.598 300.811 377.877 301.465C377.178 302.118 376.254 302.445 375.104 302.445Z" fill="white"/>
<path d="M65 365L63.9915 365.207L65 365ZM14.4124 209.075L13.7336 208.301L14.4124 209.075ZM57.6485 60.5715L57.8126 59.5552L57.5968 59.5204L57.3856 59.5762L57.6485 60.5715ZM229.05 39.0293L230.079 39.0509L229.05 39.0293ZM180.666 17.0288L181.691 16.9329L180.666 17.0288ZM270.227 66.0716L270.56 67.0458L270.227 66.0716ZM352.581 17.0743C352.606 16.5063 352.166 16.0255 351.598 16.0004L342.342 15.5906C341.774 15.5655 341.293 16.0055 341.268 16.5735C341.243 17.1415 341.683 17.6223 342.251 17.6475L350.478 18.0117L350.114 26.2391C350.089 26.8071 350.529 27.2879 351.097 27.3131C351.665 27.3382 352.146 26.8982 352.171 26.3302L352.581 17.0743ZM328.872 429.253C328.309 429.326 327.911 429.842 327.984 430.406C328.057 430.97 328.573 431.368 329.137 431.295L328.872 429.253ZM316.473 432.489C317.041 432.451 317.47 431.961 317.432 431.394C317.394 430.826 316.903 430.397 316.336 430.435L316.473 432.489ZM312.06 430.691C311.493 430.721 311.057 431.205 311.087 431.773C311.117 432.341 311.602 432.777 312.169 432.746L312.06 430.691ZM299.567 433.206C300.136 433.194 300.587 432.723 300.574 432.154C300.562 431.586 300.091 431.135 299.523 431.148L299.567 433.206ZM295.272 431.221C294.703 431.228 294.248 431.695 294.256 432.263C294.263 432.832 294.73 433.287 295.298 433.28L295.272 431.221ZM282.663 433.296C283.231 433.301 283.696 432.845 283.702 432.276C283.707 431.708 283.251 431.243 282.683 431.237L282.663 433.296ZM278.428 431.181C277.859 431.172 277.391 431.625 277.382 432.193C277.372 432.762 277.825 433.23 278.394 433.24L278.428 431.181ZM265.754 432.908C266.322 432.928 266.799 432.484 266.819 431.916C266.84 431.348 266.395 430.87 265.827 430.85L265.754 432.908ZM261.627 430.688C261.059 430.664 260.58 431.105 260.556 431.673C260.532 432.241 260.973 432.721 261.541 432.745L261.627 430.688ZM248.87 432.102C249.437 432.136 249.925 431.703 249.959 431.136C249.992 430.568 249.56 430.081 248.992 430.047L248.87 432.102ZM244.8 429.785C244.232 429.747 243.742 430.177 243.705 430.745C243.668 431.312 244.098 431.802 244.665 431.839L244.8 429.785ZM232.034 430.901C232.6 430.948 233.098 430.527 233.145 429.961C233.192 429.394 232.771 428.896 232.204 428.849L232.034 430.901ZM228 428.487C227.434 428.437 226.934 428.855 226.883 429.421C226.833 429.988 227.251 430.488 227.817 430.538L228 428.487ZM215.203 429.299C215.768 429.36 216.276 428.951 216.337 428.386C216.397 427.82 215.988 427.313 215.423 427.252L215.203 429.299ZM211.246 426.79C210.681 426.725 210.171 427.131 210.106 427.696C210.042 428.261 210.448 428.771 211.013 428.835L211.246 426.79ZM198.435 427.279C198.999 427.354 199.517 426.959 199.592 426.395C199.668 425.832 199.272 425.314 198.709 425.238L198.435 427.279ZM194.54 424.666C193.977 424.586 193.456 424.978 193.377 425.541C193.297 426.104 193.689 426.625 194.252 426.704L194.54 424.666ZM181.726 424.8C182.287 424.892 182.816 424.511 182.908 423.95C183 423.389 182.619 422.86 182.058 422.768L181.726 424.8ZM177.897 422.071C177.337 421.974 176.805 422.351 176.708 422.911C176.612 423.471 176.988 424.004 177.549 424.1L177.897 422.071ZM165.08 421.797C165.638 421.908 166.18 421.546 166.29 420.988C166.401 420.43 166.038 419.888 165.481 419.778L165.08 421.797ZM161.377 418.945C160.82 418.829 160.275 419.186 160.159 419.743C160.044 420.299 160.401 420.845 160.958 420.96L161.377 418.945ZM148.57 418.189C149.123 418.322 149.679 417.981 149.812 417.429C149.945 416.876 149.605 416.32 149.052 416.187L148.57 418.189ZM144.956 415.177C144.405 415.037 143.845 415.371 143.705 415.923C143.566 416.474 143.9 417.034 144.451 417.173L144.956 415.177ZM132.221 413.833C132.766 413.994 133.339 413.683 133.499 413.137C133.66 412.592 133.348 412.02 132.803 411.859L132.221 413.833ZM128.777 410.639C128.234 410.47 127.657 410.773 127.488 411.316C127.319 411.859 127.622 412.436 128.165 412.605L128.777 410.639ZM116.121 408.523C116.654 408.72 117.246 408.447 117.443 407.914C117.64 407.381 117.368 406.788 116.835 406.591L116.121 408.523ZM112.96 405.115C112.431 404.907 111.834 405.168 111.626 405.697C111.418 406.226 111.678 406.824 112.207 407.031L112.96 405.115ZM100.489 401.938C101.002 402.185 101.617 401.97 101.864 401.458C102.111 400.946 101.896 400.33 101.384 400.083L100.489 401.938ZM97.678 398.226C97.1737 397.964 96.552 398.159 96.2895 398.664C96.0269 399.168 96.2229 399.79 96.7271 400.052L97.678 398.226ZM85.7146 393.517C86.1842 393.837 86.8247 393.716 87.1451 393.246C87.4655 392.777 87.3445 392.136 86.8748 391.816L85.7146 393.517ZM83.5291 389.41C83.0762 389.066 82.4304 389.155 82.0867 389.608C81.743 390.061 81.8314 390.706 82.2843 391.05L83.5291 389.41ZM72.8445 382.339C73.217 382.769 73.8671 382.815 74.2967 382.443C74.7263 382.07 74.7726 381.42 74.4001 380.991L72.8445 382.339ZM71.8302 377.74C71.4992 377.278 70.8562 377.171 70.3939 377.502C69.9316 377.833 69.8252 378.476 70.1561 378.939L71.8302 377.74ZM64.4992 367.324C64.65 367.872 65.2167 368.194 65.7649 368.043C66.313 367.893 66.6351 367.326 66.4843 366.778L64.4992 367.324ZM65.6013 362.782C65.4897 362.225 64.9474 361.863 64.3899 361.975C63.8324 362.087 63.4709 362.629 63.5825 363.186L65.6013 362.782ZM61.2823 350.944C61.3813 351.503 61.9154 351.877 62.4753 351.778C63.0352 351.679 63.4088 351.145 63.3098 350.585L61.2823 350.944ZM62.6034 346.517C62.5078 345.956 61.9759 345.58 61.4155 345.675C60.855 345.771 60.4782 346.303 60.5738 346.863L62.6034 346.517ZM58.5761 334.575C58.6635 335.137 59.1897 335.521 59.7515 335.434C60.3133 335.347 60.6979 334.821 60.6106 334.259L58.5761 334.575ZM59.9835 330.172C59.8983 329.61 59.3735 329.223 58.8114 329.308C58.2493 329.394 57.8627 329.918 57.9478 330.48L59.9835 330.172ZM56.1418 318.174C56.2221 318.737 56.7435 319.128 57.3064 319.048C57.8692 318.967 58.2604 318.446 58.18 317.883L56.1418 318.174ZM57.5992 313.783C57.52 313.22 56.9993 312.828 56.4363 312.907C55.8733 312.986 55.4812 313.507 55.5604 314.07L57.5992 313.783ZM53.8519 301.756C53.9293 302.319 54.4487 302.713 55.0119 302.635C55.5752 302.558 55.969 302.038 55.8916 301.475L53.8519 301.756ZM55.328 297.373C55.2507 296.81 54.7314 296.416 54.1681 296.493C53.6049 296.571 53.211 297.09 53.2883 297.653L55.328 297.373ZM51.5856 285.339C51.6644 285.902 52.1847 286.294 52.7478 286.215C53.3108 286.137 53.7034 285.616 53.6245 285.053L51.5856 285.339ZM53.0483 280.965C52.9684 280.402 52.4473 280.011 51.8844 280.091C51.3215 280.171 50.93 280.692 51.0099 281.255L53.0483 280.965ZM49.2071 268.952C49.2927 269.514 49.8176 269.9 50.3797 269.815C50.9418 269.729 51.3281 269.204 51.2426 268.642L49.2071 268.952ZM50.6091 264.545C50.5208 263.984 49.994 263.6 49.4323 263.688C48.8707 263.776 48.4869 264.303 48.5752 264.865L50.6091 264.545ZM46.5324 252.644C46.6326 253.203 47.1675 253.576 47.7271 253.475C48.2868 253.375 48.6592 252.84 48.559 252.281L46.5324 252.644ZM47.8042 248.179C47.6984 247.621 47.1598 247.254 46.6012 247.359C46.0426 247.465 45.6755 248.004 45.7813 248.562L47.8042 248.179ZM43.2388 236.447C43.3688 237 43.9229 237.343 44.4763 237.213C45.0298 237.084 45.3732 236.529 45.2432 235.976L43.2388 236.447ZM44.2461 231.918C44.1043 231.367 43.5431 231.036 42.9925 231.178C42.4419 231.319 42.1105 231.881 42.2522 232.431L44.2461 231.918ZM38.654 220.704C38.8528 221.236 39.4458 221.507 39.9784 221.308C40.5111 221.109 40.7817 220.516 40.5829 219.984L38.654 220.704ZM38.9953 216.082C38.764 215.563 38.1554 215.329 37.6361 215.56C37.1167 215.792 36.8833 216.4 37.1147 216.92L38.9953 216.082ZM30.4519 207.1C30.8944 207.457 31.5425 207.388 31.8995 206.945C32.2564 206.503 32.1871 205.854 31.7446 205.497L30.4519 207.1ZM27.7857 203.367C27.2401 203.207 26.6683 203.52 26.5086 204.066C26.3489 204.611 26.6617 205.183 27.2074 205.343L27.7857 203.367ZM16.7 208.524C17.1507 208.177 17.2351 207.531 16.8886 207.08C16.542 206.629 15.8957 206.545 15.445 206.891L16.7 208.524ZM12.0638 209.884C11.6674 210.291 11.6766 210.943 12.0842 211.339C12.4919 211.736 13.1436 211.727 13.5399 211.319L12.0638 209.884ZM8.54057 222.049C8.55314 221.481 8.10255 221.01 7.53415 220.997C6.96575 220.985 6.49477 221.435 6.4822 222.004L8.54057 222.049ZM7.02894 226.554C7.17178 227.105 7.73369 227.435 8.28399 227.292C8.8343 227.149 9.16461 226.587 9.02177 226.037L7.02894 226.554ZM15.4057 236.524C15.0111 236.114 14.3594 236.102 13.9501 236.497C13.5408 236.892 13.5288 237.543 13.9234 237.953L15.4057 236.524ZM17.1598 240.974C17.594 241.341 18.2435 241.287 18.6106 240.853C18.9776 240.419 18.9232 239.769 18.489 239.402L17.1598 240.974ZM29.0877 246.37C28.5819 246.11 27.9614 246.309 27.7016 246.815C27.4418 247.321 27.6412 247.941 28.1469 248.201L29.0877 246.37ZM32.1065 250.076C32.6279 250.303 33.2344 250.064 33.4611 249.543C33.6879 249.021 33.4491 248.415 32.9277 248.188L32.1065 250.076ZM45.0317 252.125C44.4762 252.003 43.9275 252.355 43.806 252.91C43.6846 253.466 44.0363 254.015 44.5918 254.136L45.0317 252.125ZM48.9129 254.919C49.4758 254.999 49.9972 254.608 50.0777 254.046C50.1581 253.483 49.7671 252.961 49.2043 252.881L48.9129 254.919ZM61.8141 252.992C61.2518 253.075 60.8638 253.599 60.9475 254.161C61.0313 254.724 61.555 255.112 62.1174 255.028L61.8141 252.992ZM66.4658 254.084C67.0116 253.925 67.325 253.354 67.1658 252.808C67.0067 252.262 66.4352 251.949 65.8894 252.108L66.4658 254.084ZM76.2728 245.75C75.8981 246.178 75.941 246.828 76.3686 247.203C76.7962 247.578 77.4466 247.535 77.8213 247.107L76.2728 245.75ZM80.4218 243.424C80.7006 242.929 80.5249 242.301 80.0294 242.023C79.5339 241.744 78.9062 241.92 78.6274 242.415L80.4218 243.424ZM81.7837 230.494C81.7534 231.062 82.1892 231.547 82.7569 231.577C83.3246 231.607 83.8094 231.171 83.8397 230.604L81.7837 230.494ZM83.8424 226.189C83.8126 225.621 83.3282 225.185 82.7605 225.215C82.1927 225.244 81.7566 225.729 81.7864 226.296L83.8424 226.189ZM79.5604 214.109C79.7211 214.655 80.2935 214.967 80.8388 214.806C81.3842 214.645 81.696 214.073 81.5353 213.528L79.5604 214.109ZM80.2173 209.466C80.028 208.93 79.4399 208.649 78.9038 208.838C78.3677 209.027 78.0866 209.615 78.2758 210.151L80.2173 209.466ZM73.3914 198.599C73.639 199.111 74.2546 199.325 74.7664 199.078C75.2782 198.83 75.4923 198.215 75.2447 197.703L73.3914 198.599ZM73.3332 193.882C73.0725 193.377 72.4515 193.179 71.9463 193.44C71.4411 193.701 71.2429 194.322 71.5037 194.827L73.3332 193.882ZM65.3989 183.814C65.6868 184.304 66.3176 184.468 66.8079 184.18C67.2982 183.892 67.4623 183.262 67.1745 182.771L65.3989 183.814ZM65.0122 179.141C64.7184 178.654 64.0856 178.497 63.5989 178.791C63.1121 179.085 62.9557 179.718 63.2495 180.205L65.0122 179.141ZM56.5736 169.465C56.8785 169.945 57.5147 170.087 57.9946 169.782C58.4744 169.477 58.6162 168.841 58.3113 168.361L56.5736 169.465ZM56.0396 164.801C55.7329 164.323 55.0962 164.183 54.6175 164.49C54.1387 164.796 53.9992 165.433 54.3059 165.912L56.0396 164.801ZM47.4595 155.255C47.7661 155.734 48.4028 155.873 48.8816 155.567C49.3604 155.26 49.5 154.623 49.1934 154.145L47.4595 155.255ZM46.9292 150.595C46.6245 150.115 45.9883 149.973 45.5084 150.278C45.0284 150.583 44.8864 151.219 45.1912 151.699L46.9292 150.595ZM38.4985 140.916C38.7917 141.403 39.4243 141.56 39.9114 141.267C40.3985 140.974 40.5557 140.341 40.2625 139.854L38.4985 140.916ZM38.111 136.229C37.8241 135.738 37.1936 135.573 36.7028 135.859C36.2119 136.146 36.0466 136.777 36.3334 137.268L38.111 136.229ZM30.2083 126.122C30.4661 126.629 31.0858 126.831 31.5926 126.573C32.0993 126.316 32.3012 125.696 32.0434 125.189L30.2083 126.122ZM30.2002 121.441C29.9567 120.927 29.3428 120.708 28.8291 120.951C28.3153 121.195 28.0962 121.809 28.3397 122.322L30.2002 121.441ZM23.531 110.491C23.7085 111.032 24.2903 111.325 24.8304 111.148C25.3705 110.971 25.6645 110.389 25.487 109.849L23.531 110.491ZM24.3006 105.838C24.1569 105.288 23.5945 104.958 23.0444 105.102C22.4944 105.246 22.1649 105.808 22.3086 106.358L24.3006 105.838ZM20.6615 93.5724C20.646 94.1407 21.0942 94.614 21.6626 94.6294C22.2309 94.6449 22.7042 94.1967 22.7196 93.6284L20.6615 93.5724ZM23.0977 89.5756C23.1896 89.0146 22.8094 88.4852 22.2483 88.3933C21.6872 88.3013 21.1579 88.6816 21.0659 89.2427L23.0977 89.5756ZM26.092 77.2544C25.7551 77.7124 25.8532 78.3567 26.3112 78.6936C26.7691 79.0306 27.4135 78.9324 27.7504 78.4745L26.092 77.2544ZM30.3804 75.3929C30.7784 74.9869 30.7719 74.3351 30.3659 73.9371C29.9599 73.5391 29.3081 73.5456 28.9101 73.9516L30.3804 75.3929ZM39.3326 66.3658C38.8312 66.6338 38.642 67.2576 38.91 67.759C39.178 68.2604 39.8017 68.4496 40.3031 68.1816L39.3326 66.3658ZM44.0587 66.343C44.5774 66.1102 44.8092 65.501 44.5764 64.9823C44.3436 64.4636 43.7343 64.2318 43.2156 64.4646L44.0587 66.343ZM55.2365 60.1654C54.6897 60.321 54.3725 60.8904 54.528 61.4372C54.6836 61.9841 55.253 62.3013 55.7999 62.1457L55.2365 60.1654ZM59.5159 61.9115C60.0775 61.9999 60.6045 61.6163 60.6929 61.0546C60.7813 60.493 60.3976 59.9661 59.836 59.8777L59.5159 61.9115ZM72.2275 61.6884C71.6641 61.612 71.1455 62.0069 71.0692 62.5703C70.9928 63.1337 71.3877 63.6523 71.9511 63.7286L72.2275 61.6884ZM76.1147 64.2788C76.6786 64.3514 77.1946 63.9532 77.2672 63.3893C77.3399 62.8255 76.9416 62.3094 76.3777 62.2368L76.1147 64.2788ZM88.8182 63.7188C88.253 63.6569 87.7446 64.0648 87.6827 64.63C87.6208 65.1952 88.0288 65.7035 88.5939 65.7654L88.8182 63.7188ZM92.7523 66.2078C93.3178 66.2661 93.8236 65.855 93.8819 65.2894C93.9403 64.7239 93.5292 64.2181 92.9636 64.1598L92.7523 66.2078ZM105.431 65.326C104.865 65.2785 104.367 65.6994 104.32 66.2659C104.272 66.8325 104.693 67.3302 105.26 67.3777L105.431 65.326ZM109.439 67.7137C110.006 67.7573 110.501 67.3332 110.545 66.7663C110.589 66.1995 110.164 65.7045 109.598 65.6609L109.439 67.7137ZM122.092 66.4914C121.524 66.4598 121.038 66.8944 121.007 67.4621C120.975 68.0298 121.41 68.5155 121.977 68.5471L122.092 66.4914ZM126.16 68.7637C126.728 68.7909 127.21 68.3526 127.237 67.7847C127.265 67.2168 126.826 66.7344 126.258 66.7072L126.16 68.7637ZM138.77 67.1527C138.202 67.1398 137.73 67.5901 137.718 68.1585C137.705 68.7269 138.155 69.1981 138.723 69.211L138.77 67.1527ZM142.909 69.2866C143.478 69.2942 143.945 68.8395 143.952 68.271C143.96 67.7025 143.505 67.2355 142.937 67.2279L142.909 69.2866ZM155.453 67.2024C154.884 67.2129 154.432 67.6822 154.443 68.2507C154.453 68.8191 154.922 69.2714 155.491 69.2609L155.453 67.2024ZM159.685 69.158C160.253 69.1406 160.699 68.6657 160.682 68.0975C160.664 67.5292 160.19 67.0827 159.621 67.1001L159.685 69.158ZM172.099 66.4576C171.532 66.4997 171.107 66.9935 171.149 67.5604C171.191 68.1274 171.685 68.5529 172.252 68.5108L172.099 66.4576ZM176.433 68.1643C176.999 68.1123 177.416 67.6113 177.364 67.0451C177.312 66.4789 176.811 66.0621 176.245 66.1141L176.433 68.1643ZM188.621 64.5913C188.059 64.6804 187.676 65.2078 187.766 65.7693C187.855 66.3308 188.382 66.7138 188.944 66.6248L188.621 64.5913ZM193.11 65.9046C193.669 65.7997 194.037 65.2616 193.932 64.7028C193.827 64.1441 193.289 63.7762 192.73 63.8811L193.11 65.9046ZM204.767 60.9456C204.224 61.1152 203.921 61.6926 204.091 62.2353C204.261 62.7779 204.838 63.0803 205.381 62.9108L204.767 60.9456ZM209.406 61.5313C209.938 61.3313 210.207 60.7377 210.007 60.2055C209.807 59.6733 209.214 59.404 208.681 59.604L209.406 61.5313ZM219.528 53.9624C219.07 54.2997 218.973 54.9442 219.31 55.4019C219.647 55.8595 220.292 55.9571 220.749 55.6197L219.528 53.9624ZM224.035 52.8088C224.436 52.4063 224.435 51.7545 224.033 51.353C223.63 50.9515 222.979 50.9523 222.577 51.3549L224.035 52.8088ZM227.871 41.0056C227.797 41.5693 228.194 42.0861 228.758 42.1599C229.322 42.2337 229.838 41.8365 229.912 41.2728L227.871 41.0056ZM230.091 36.9267C230.085 36.3582 229.62 35.9019 229.051 35.9075C228.483 35.913 228.027 36.3784 228.032 36.9469L230.091 36.9267ZM226.619 24.981C226.755 25.533 227.313 25.8703 227.865 25.7343C228.417 25.5983 228.754 25.0406 228.618 24.4885L226.619 24.981ZM227.413 20.4619C227.222 19.9264 226.633 19.6469 226.098 19.8378C225.562 20.0286 225.283 20.6175 225.473 21.153L227.413 20.4619ZM219.548 10.8914C219.925 11.3172 220.576 11.3569 221.001 10.9801C221.427 10.6033 221.467 9.95268 221.09 9.52693L219.548 10.8914ZM218.045 6.55704C217.609 6.19149 216.96 6.24815 216.594 6.68359C216.229 7.11904 216.285 7.76837 216.721 8.13392L218.045 6.55704ZM206.246 2.80893C206.797 2.94593 207.356 2.60967 207.493 2.05788C207.63 1.50609 207.294 0.947722 206.742 0.810725L206.246 2.80893ZM202.544 0.095911C201.978 0.0425539 201.476 0.458159 201.422 1.02419C201.369 1.59022 201.785 2.09234 202.351 2.14569L202.544 0.095911ZM190.753 3.77923C191.278 3.56075 191.526 2.95813 191.307 2.43324C191.089 1.90836 190.486 1.65997 189.962 1.87845L190.753 3.77923ZM186.165 3.93319C185.697 4.25618 185.58 4.89732 185.903 5.3652C186.226 5.83308 186.867 5.95053 187.335 5.62753L186.165 3.93319ZM181.657 15.0363C181.691 14.4688 181.258 13.9812 180.691 13.9472C180.123 13.9132 179.636 14.3457 179.602 14.9132L181.657 15.0363ZM179.944 19.2207C180.051 19.779 180.591 20.1444 181.149 20.0369C181.708 19.9294 182.073 19.3897 181.966 18.8314L179.944 19.2207ZM186.33 29.7165C186.045 29.2241 185.416 29.0553 184.923 29.3395C184.431 29.6237 184.262 30.2533 184.546 30.7457L186.33 29.7165ZM186.733 34.2439C187.051 34.7157 187.69 34.8409 188.162 34.5235C188.634 34.2062 188.759 33.5665 188.442 33.0948L186.733 34.2439ZM195.927 42.4051C195.537 41.9909 194.886 41.9708 194.472 42.3603C194.057 42.7498 194.037 43.4013 194.427 43.8155L195.927 42.4051ZM197.304 46.7327C197.712 47.1281 198.364 47.1174 198.759 46.7088C199.155 46.3003 199.144 45.6486 198.735 45.2532L197.304 46.7327ZM207.892 52.9822C207.434 52.6455 206.789 52.7439 206.453 53.2021C206.116 53.6602 206.214 54.3045 206.672 54.6412L207.892 52.9822ZM210.022 56.9885C210.495 57.3042 211.134 57.1768 211.45 56.7039C211.765 56.231 211.638 55.5918 211.165 55.2761L210.022 56.9885ZM221.567 61.2131C221.054 60.9676 220.439 61.1843 220.194 61.6971C219.948 62.2099 220.165 62.8246 220.678 63.0701L221.567 61.2131ZM224.416 64.7453C224.94 64.9645 225.543 64.7169 225.763 64.1923C225.982 63.6677 225.734 63.0648 225.21 62.8456L224.416 64.7453ZM236.571 66.5449C236.017 66.4152 235.463 66.7588 235.334 67.3124C235.204 67.8659 235.547 68.4198 236.101 68.5495L236.571 66.5449ZM240.124 69.3664C240.684 69.4626 241.217 69.0864 241.313 68.526C241.409 67.9657 241.033 67.4334 240.472 67.3372L240.124 69.3664ZM252.352 68.2282C251.783 68.2415 251.333 68.713 251.346 69.2814C251.36 69.8498 251.831 70.2998 252.4 70.2865L252.352 68.2282ZM256.505 70.0517C257.071 70 257.488 69.499 257.436 68.9329C257.385 68.3667 256.884 67.9496 256.318 68.0013L256.505 70.0517ZM267.99 65.7125C267.447 65.8781 267.14 66.4533 267.306 66.9972C267.471 67.5411 268.046 67.8477 268.59 67.682L267.99 65.7125ZM272.45 66.3868C272.985 66.1963 273.265 65.6076 273.074 65.0719C272.884 64.5362 272.295 64.2564 271.76 64.447L272.45 66.3868ZM282.8 60.0842C282.279 60.3102 282.039 60.9163 282.265 61.438C282.491 61.9597 283.097 62.1994 283.619 61.9734L282.8 60.0842ZM287.274 60.3464C287.791 60.1101 288.018 59.4994 287.782 58.9823C287.546 58.4652 286.935 58.2375 286.418 58.4738L287.274 60.3464ZM297.09 53.2391C296.586 53.5027 296.392 54.1248 296.655 54.6285C296.919 55.1323 297.541 55.3269 298.045 55.0633L297.09 53.2391ZM301.571 53.1812C302.071 52.9094 302.255 52.2843 301.983 51.7849C301.712 51.2855 301.087 51.1009 300.587 51.3726L301.571 53.1812ZM310.901 45.4515C310.414 45.7454 310.258 46.3782 310.552 46.8648C310.846 47.3515 311.478 47.5079 311.965 47.214L310.901 45.4515ZM315.373 45.1233C315.855 44.8226 316.003 44.1877 315.702 43.7052C315.401 43.2227 314.767 43.0753 314.284 43.376L315.373 45.1233ZM324.248 36.8814C323.778 37.2013 323.657 37.8417 323.977 38.3116C324.297 38.7816 324.937 38.9033 325.407 38.5833L324.248 36.8814ZM328.7 36.3096C329.166 35.9835 329.279 35.3416 328.953 34.8759C328.627 34.4102 327.985 34.297 327.519 34.6232L328.7 36.3096ZM337.128 27.6011C336.676 27.946 336.589 28.5919 336.934 29.0439C337.279 29.4959 337.925 29.5828 338.377 29.2379L337.128 27.6011ZM341.532 26.7941C341.978 26.4425 342.056 25.7953 341.704 25.3485C341.353 24.9017 340.705 24.8244 340.259 25.176L341.532 26.7941ZM349.399 17.583C348.973 17.9602 348.934 18.6109 349.311 19.0362C349.689 19.4615 350.339 19.5005 350.765 19.1233L349.399 17.583ZM330.852 428.981C330.212 429.074 329.552 429.165 328.872 429.253L329.137 431.295C329.827 431.206 330.497 431.113 331.148 431.019L330.852 428.981ZM316.336 430.435C314.952 430.528 313.526 430.613 312.06 430.691L312.169 432.746C313.644 432.668 315.079 432.583 316.473 432.489L316.336 430.435ZM299.523 431.148C298.129 431.178 296.712 431.202 295.272 431.221L295.298 433.28C296.744 433.261 298.168 433.236 299.567 433.206L299.523 431.148ZM282.683 431.237C281.279 431.224 279.861 431.205 278.428 431.181L278.394 433.24C279.831 433.264 281.255 433.282 282.663 433.296L282.683 431.237ZM265.827 430.85C264.437 430.801 263.037 430.746 261.627 430.688L261.541 432.745C262.955 432.804 264.359 432.858 265.754 432.908L265.827 430.85ZM248.992 430.047C247.601 429.964 246.203 429.876 244.8 429.785L244.665 431.839C246.073 431.931 247.475 432.019 248.87 432.102L248.992 430.047ZM232.204 428.849C230.806 428.733 229.405 428.613 228 428.487L227.817 430.538C229.226 430.664 230.632 430.785 232.034 430.901L232.204 428.849ZM215.423 427.252C214.032 427.103 212.639 426.948 211.246 426.79L211.013 428.835C212.411 428.995 213.808 429.149 215.203 429.299L215.423 427.252ZM198.709 425.238C197.318 425.052 195.928 424.861 194.54 424.666L194.252 426.704C195.646 426.901 197.04 427.092 198.435 427.279L198.709 425.238ZM182.058 422.768C180.668 422.541 179.281 422.308 177.897 422.071L177.549 424.1C178.938 424.338 180.33 424.572 181.726 424.8L182.058 422.768ZM165.481 419.778C164.107 419.505 162.739 419.228 161.377 418.945L160.958 420.96C162.326 421.245 163.7 421.524 165.08 421.797L165.481 419.778ZM149.052 416.187C147.678 415.856 146.312 415.52 144.956 415.177L144.451 417.173C145.815 417.518 147.189 417.856 148.57 418.189L149.052 416.187ZM132.803 411.859C131.448 411.459 130.106 411.053 128.777 410.639L128.165 412.605C129.504 413.022 130.856 413.431 132.221 413.833L132.803 411.859ZM116.835 406.591C115.525 406.107 114.233 405.615 112.96 405.115L112.207 407.031C113.494 407.537 114.799 408.034 116.121 408.523L116.835 406.591ZM101.384 400.083C100.122 399.474 98.8866 398.855 97.678 398.226L96.7271 400.052C97.955 400.692 99.2096 401.32 100.489 401.938L101.384 400.083ZM86.8748 391.816C85.7188 391.027 84.603 390.225 83.5291 389.41L82.2843 391.05C83.3873 391.887 84.5314 392.709 85.7146 393.517L86.8748 391.816ZM74.4001 380.991C73.4768 379.926 72.6193 378.842 71.8302 377.74L70.1561 378.939C70.9844 380.095 71.8817 381.229 72.8445 382.339L74.4001 380.991ZM66.4843 366.778C66.3039 366.122 66.1452 365.461 66.0085 364.793L63.9915 365.207C64.1374 365.919 64.3068 366.625 64.4992 367.324L66.4843 366.778ZM66.0085 364.793C65.8717 364.125 65.736 363.455 65.6013 362.782L63.5825 363.186C63.7177 363.862 63.854 364.535 63.9915 365.207L66.0085 364.793ZM63.3098 350.585C63.0709 349.234 62.8355 347.878 62.6034 346.517L60.5738 346.863C60.8066 348.228 61.0427 349.589 61.2823 350.944L63.3098 350.585ZM60.6106 334.259C60.3991 332.899 60.1902 331.536 59.9835 330.172L57.9478 330.48C58.1549 331.847 58.3643 333.212 58.5761 334.575L60.6106 334.259ZM58.18 317.883C57.9849 316.516 57.7913 315.149 57.5992 313.783L55.5604 314.07C55.7527 315.437 55.9465 316.805 56.1418 318.174L58.18 317.883ZM55.8916 301.475C55.703 300.104 55.5153 298.736 55.328 297.373L53.2883 297.653C53.4755 299.016 53.6633 300.384 53.8519 301.756L55.8916 301.475ZM53.6245 285.053C53.4327 283.683 53.2407 282.32 53.0483 280.965L51.0099 281.255C51.2021 282.608 51.3939 283.97 51.5856 285.339L53.6245 285.053ZM51.2426 268.642C51.0329 267.264 50.8218 265.898 50.6091 264.545L48.5752 264.865C48.7874 266.214 48.9979 267.577 49.2071 268.952L51.2426 268.642ZM48.559 252.281C48.3107 250.894 48.0592 249.526 47.8042 248.179L45.7813 248.562C46.0349 249.902 46.2852 251.263 46.5324 252.644L48.559 252.281ZM45.2432 235.976C44.9176 234.589 44.5854 233.236 44.2461 231.918L42.2522 232.431C42.5876 233.734 42.9163 235.073 43.2388 236.447L45.2432 235.976ZM40.5829 219.984C40.0708 218.612 39.5421 217.309 38.9953 216.082L37.1147 216.92C37.642 218.104 38.1548 219.366 38.654 220.704L40.5829 219.984ZM31.7446 205.497C30.5165 204.507 29.1991 203.781 27.7857 203.367L27.2074 205.343C28.3229 205.67 29.4025 206.253 30.4519 207.1L31.7446 205.497ZM15.445 206.891C14.8818 207.325 14.3114 207.794 13.7336 208.301L15.0911 209.849C15.6382 209.369 16.1744 208.928 16.7 208.524L15.445 206.891ZM13.7336 208.301C13.1385 208.823 12.5821 209.351 12.0638 209.884L13.5399 211.319C14.0185 210.827 14.535 210.337 15.0911 209.849L13.7336 208.301ZM6.4822 222.004C6.44834 223.534 6.63997 225.056 7.02894 226.554L9.02177 226.037C8.67687 224.708 8.51121 223.376 8.54057 222.049L6.4822 222.004ZM13.9234 237.953C14.9244 238.991 16.0071 240 17.1598 240.974L18.489 239.402C17.3857 238.469 16.3545 237.508 15.4057 236.524L13.9234 237.953ZM28.1469 248.201C29.4378 248.864 30.7603 249.49 32.1065 250.076L32.9277 248.188C31.6215 247.62 30.3389 247.012 29.0877 246.37L28.1469 248.201ZM44.5918 254.136C46.0329 254.451 47.476 254.714 48.9129 254.919L49.2043 252.881C47.8192 252.683 46.4257 252.43 45.0317 252.125L44.5918 254.136ZM62.1174 255.028C63.6093 254.806 65.0629 254.494 66.4658 254.084L65.8894 252.108C64.5829 252.489 63.221 252.782 61.8141 252.992L62.1174 255.028ZM77.8213 247.107C78.7917 246 79.6627 244.774 80.4218 243.424L78.6274 242.415C77.9375 243.641 77.1486 244.751 76.2728 245.75L77.8213 247.107ZM83.8397 230.604C83.8791 229.862 83.8992 229.103 83.8992 228.325H81.8403C81.8403 229.068 81.8212 229.79 81.7837 230.494L83.8397 230.604ZM83.8992 228.325C83.8992 227.618 83.88 226.905 83.8424 226.189L81.7864 226.296C81.8221 226.978 81.8403 227.655 81.8403 228.325H83.8992ZM81.5353 213.528C81.1394 212.184 80.6988 210.83 80.2173 209.466L78.2758 210.151C78.7462 211.484 79.1755 212.803 79.5604 214.109L81.5353 213.528ZM75.2447 197.703C74.6313 196.435 73.9933 195.161 73.3332 193.882L71.5037 194.827C72.1562 196.091 72.7863 197.349 73.3914 198.599L75.2447 197.703ZM67.1745 182.771C66.4655 181.564 65.7441 180.353 65.0122 179.141L63.2495 180.205C63.9775 181.411 64.6947 182.614 65.3989 183.814L67.1745 182.771ZM58.3113 168.361C57.5576 167.175 56.7997 165.988 56.0396 164.801L54.3059 165.912C55.065 167.097 55.8215 168.281 56.5736 169.465L58.3113 168.361ZM49.1934 154.145C48.4345 152.96 47.6792 151.776 46.9292 150.595L45.1912 151.699C45.9429 152.883 46.6997 154.068 47.4595 155.255L49.1934 154.145ZM40.2625 139.854C39.5323 138.641 38.8145 137.432 38.111 136.229L36.3334 137.268C37.0418 138.48 37.7642 139.696 38.4985 140.916L40.2625 139.854ZM32.0434 125.189C31.4034 123.931 30.7881 122.681 30.2002 121.441L28.3397 122.322C28.9365 123.582 29.5603 124.849 30.2083 126.122L32.0434 125.189ZM25.487 109.849C25.0421 108.495 24.6454 107.157 24.3006 105.838L22.3086 106.358C22.665 107.722 23.074 109.1 23.531 110.491L25.487 109.849ZM22.7196 93.6284C22.7572 92.247 22.8814 90.8957 23.0977 89.5756L21.0659 89.2427C20.8337 90.66 20.7015 92.1042 20.6615 93.5724L22.7196 93.6284ZM27.7504 78.4745C28.5261 77.4201 29.4007 76.3923 30.3804 75.3929L28.9101 73.9516C27.8651 75.0178 26.9272 76.1191 26.092 77.2544L27.7504 78.4745ZM40.3031 68.1816C41.4855 67.5496 42.7365 66.9364 44.0587 66.343L43.2156 64.4646C41.8528 65.0763 40.5591 65.7102 39.3326 66.3658L40.3031 68.1816ZM55.7999 62.1457C56.4911 61.9491 57.1949 61.7561 57.9115 61.5667L57.3856 59.5762C56.6568 59.7687 55.9405 59.9652 55.2365 60.1654L55.7999 62.1457ZM57.4845 61.5877C58.1539 61.6958 58.8311 61.8037 59.5159 61.9115L59.836 59.8777C59.1538 59.7703 58.4792 59.6628 57.8126 59.5552L57.4845 61.5877ZM71.9511 63.7286C73.3201 63.9141 74.7085 64.0977 76.1147 64.2788L76.3777 62.2368C74.976 62.0562 73.592 61.8733 72.2275 61.6884L71.9511 63.7286ZM88.5939 65.7654C89.9692 65.9161 91.3558 66.0636 92.7523 66.2078L92.9636 64.1598C91.5714 64.0161 90.1892 63.869 88.8182 63.7188L88.5939 65.7654ZM105.26 67.3777C106.647 67.4939 108.041 67.606 109.439 67.7137L109.598 65.6609C108.204 65.5536 106.815 65.4418 105.431 65.326L105.26 67.3777ZM121.977 68.5471C123.37 68.6245 124.765 68.6968 126.16 68.7637L126.258 66.7072C124.869 66.6406 123.48 66.5686 122.092 66.4914L121.977 68.5471ZM138.723 69.211C140.122 69.2427 141.517 69.268 142.909 69.2866L142.937 67.2279C141.552 67.2094 140.162 67.1842 138.77 67.1527L138.723 69.211ZM155.491 69.2609C156.897 69.2349 158.295 69.2007 159.685 69.158L159.621 67.1001C158.24 67.1426 156.851 67.1765 155.453 67.2024L155.491 69.2609ZM172.252 68.5108C173.66 68.4063 175.054 68.2909 176.433 68.1643L176.245 66.1141C174.878 66.2395 173.496 66.3539 172.099 66.4576L172.252 68.5108ZM188.944 66.6248C190.358 66.4005 191.747 66.1606 193.11 65.9046L192.73 63.8811C191.387 64.1334 190.017 64.3699 188.621 64.5913L188.944 66.6248ZM205.381 62.9108C206.769 62.477 208.112 62.0175 209.406 61.5313L208.681 59.604C207.427 60.0755 206.121 60.5225 204.767 60.9456L205.381 62.9108ZM220.749 55.6197C221.947 54.7373 223.045 53.8013 224.035 52.8088L222.577 51.3549C221.668 52.2667 220.65 53.1355 219.528 53.9624L220.749 55.6197ZM229.912 41.2728C230.007 40.5473 230.063 39.8067 230.079 39.0509L228.02 39.0077C228.006 39.6903 227.956 40.3561 227.871 41.0056L229.912 41.2728ZM230.079 39.0509C230.094 38.3318 230.098 37.6238 230.091 36.9267L228.032 36.9469C228.039 37.6224 228.035 38.3093 228.02 39.0077L230.079 39.0509ZM228.618 24.4885C228.271 23.0805 227.868 21.7388 227.413 20.4619L225.473 21.153C225.905 22.3627 226.288 23.638 226.619 24.981L228.618 24.4885ZM221.09 9.52693C220.126 8.43779 219.107 7.44904 218.045 6.55704L216.721 8.13392C217.706 8.96082 218.652 9.87861 219.548 10.8914L221.09 9.52693ZM206.742 0.810725C205.344 0.463624 203.939 0.227395 202.544 0.095911L202.351 2.14569C203.645 2.26769 204.949 2.4869 206.246 2.80893L206.742 0.810725ZM189.962 1.87845C188.601 2.44491 187.325 3.13231 186.165 3.93319L187.335 5.62753C188.368 4.91422 189.515 4.2943 190.753 3.77923L189.962 1.87845ZM179.602 14.9132C179.558 15.6334 179.571 16.3711 179.641 17.1247L181.691 16.9329C181.63 16.2817 181.62 15.6493 181.657 15.0363L179.602 14.9132ZM179.641 17.1247C179.705 17.8092 179.807 18.5086 179.944 19.2207L181.966 18.8314C181.84 18.1796 181.748 17.5462 181.691 16.9329L179.641 17.1247ZM184.546 30.7457C185.215 31.9036 185.945 33.0717 186.733 34.2439L188.442 33.0948C187.678 31.9596 186.973 30.8315 186.33 29.7165L184.546 30.7457ZM194.427 43.8155C195.35 44.7971 196.31 45.7708 197.304 46.7327L198.735 45.2532C197.764 44.3136 196.828 43.363 195.927 42.4051L194.427 43.8155ZM206.672 54.6412C207.764 55.4436 208.881 56.227 210.022 56.9885L211.165 55.2761C210.05 54.5321 208.959 53.7665 207.892 52.9822L206.672 54.6412ZM220.678 63.0701C221.906 63.6581 223.153 64.2174 224.416 64.7453L225.21 62.8456C223.979 62.3314 222.764 61.7864 221.567 61.2131L220.678 63.0701ZM236.101 68.5495C237.43 68.8609 238.771 69.1341 240.124 69.3664L240.472 67.3372C239.161 67.112 237.86 66.8471 236.571 66.5449L236.101 68.5495ZM252.4 70.2865C253.762 70.2547 255.131 70.1772 256.505 70.0517L256.318 68.0013C254.99 68.1226 253.668 68.1974 252.352 68.2282L252.4 70.2865ZM268.59 67.682C269.247 67.4822 269.903 67.2702 270.56 67.0458L269.894 65.0975C269.259 65.3144 268.625 65.5193 267.99 65.7125L268.59 67.682ZM270.56 67.0458C271.19 66.8303 271.82 66.6106 272.45 66.3868L271.76 64.447C271.138 64.6679 270.516 64.8848 269.894 65.0975L270.56 67.0458ZM283.619 61.9734C284.843 61.4431 286.061 60.9004 287.274 60.3464L286.418 58.4738C285.218 59.0223 284.011 59.5595 282.8 60.0842L283.619 61.9734ZM298.045 55.0633C299.229 54.4433 300.405 53.8155 301.571 53.1812L300.587 51.3726C299.431 52.0018 298.265 52.6244 297.09 53.2391L298.045 55.0633ZM311.965 47.214C313.115 46.5196 314.251 45.8222 315.373 45.1233L314.284 43.376C313.171 44.0698 312.042 44.7622 310.901 45.4515L311.965 47.214ZM325.407 38.5833C326.527 37.8212 327.625 37.0626 328.7 36.3096L327.519 34.6232C326.451 35.371 325.36 36.1244 324.248 36.8814L325.407 38.5833ZM338.377 29.2379C339.468 28.4054 340.52 27.5897 341.532 26.7941L340.259 25.176C339.255 25.9653 338.211 26.7747 337.128 27.6011L338.377 29.2379ZM350.765 19.1233C351.288 18.6595 351.782 18.214 352.247 17.7882L350.857 16.2694C350.401 16.6875 349.914 17.1258 349.399 17.583L350.765 19.1233Z" fill="#A2A9AE"/>
<path d="M241.563 187.442C241.563 185.564 243.085 184.042 244.963 184.042H327.948C328.892 184.042 329.794 184.435 330.437 185.126L348.447 204.487C349.661 205.792 349.661 207.813 348.447 209.118L330.437 228.479C329.794 229.17 328.892 229.563 327.948 229.563H244.963C243.085 229.563 241.563 228.041 241.563 226.164V187.442Z" fill="#889096"/>
<path d="M235.659 150.39C235.659 148.513 234.137 146.991 232.26 146.991H149.275C148.331 146.991 147.429 147.383 146.786 148.075L128.776 167.436C127.562 168.74 127.562 170.761 128.776 172.066L146.786 191.427C147.429 192.118 148.331 192.511 149.275 192.511H232.26C234.137 192.511 235.659 190.989 235.659 189.112V150.39Z" fill="#889096"/>
<path d="M235.66 222.376C235.66 220.499 234.138 218.977 232.26 218.977H149.275C148.331 218.977 147.43 219.37 146.787 220.061L128.776 239.422C127.563 240.727 127.563 242.748 128.776 244.052L146.787 263.413C147.43 264.105 148.331 264.497 149.275 264.497H232.26C234.138 264.497 235.66 262.975 235.66 261.098V222.376Z" fill="#889096"/>
<rect x="232.259" y="126.877" width="12.7034" height="375.809" rx="3.81953" fill="#545F66"/>
<circle cx="238.829" cy="507.768" r="25.7358" fill="#21A0A0"/>
<rect y="67.1694" width="77.046" height="78.2367" rx="38.523" fill="#EC325A"/>
<path d="M38.6589 89.3329C41.88 89.3329 44.4657 90.1603 46.4161 91.8152C48.3665 93.47 49.3417 95.8341 49.3417 98.9075C49.3417 101.597 48.4404 103.724 46.6377 105.291C44.8647 106.857 42.5154 107.669 39.5898 107.728L39.3682 110.964H31.6996L31.4337 102.143H34.6252C36.6347 102.143 38.1713 101.922 39.2352 101.478C40.299 101.006 40.8309 100.178 40.8309 98.9961C40.8309 98.1982 40.6093 97.5777 40.166 97.1344C39.7523 96.6616 39.1761 96.4252 38.4373 96.4252C37.6099 96.4252 36.9745 96.6764 36.5312 97.1787C36.1175 97.6515 35.9107 98.3017 35.9107 99.1291H27.7102C27.6511 97.3265 28.0205 95.6864 28.8184 94.2088C29.6458 92.7017 30.887 91.5197 32.5418 90.6627C34.1967 89.7762 36.2357 89.3329 38.6589 89.3329ZM35.6004 123.243C34.0637 123.243 32.8226 122.829 31.8769 122.002C30.9608 121.145 30.5028 120.066 30.5028 118.766C30.5028 117.466 30.9608 116.387 31.8769 115.53C32.8226 114.673 34.0637 114.245 35.6004 114.245C37.1075 114.245 38.3191 114.673 39.2352 115.53C40.1808 116.387 40.6536 117.466 40.6536 118.766C40.6536 120.037 40.1808 121.1 39.2352 121.957C38.3191 122.814 37.1075 123.243 35.6004 123.243Z" fill="white"/>
<g clip-path="url(#clip0_1386:4598)">
<path d="M417.933 463.328C415.525 460.922 408.902 457.312 403.665 454.569C398.427 451.827 397.897 446.629 397.644 442.96C397.391 439.291 397.03 429.053 395.886 423.555C394.743 418.057 394.682 414.881 389.866 404.114C389.813 404.003 389.749 403.898 389.673 403.801C389.565 403.548 389.445 403.296 389.324 403.043C384.339 391.458 375.369 381.316 370.481 376.071C365.592 370.826 351.457 353.213 343.209 349.363C334.961 345.514 332.938 345.068 328.182 344.467H328.122C326.942 344.346 325.756 344.286 324.57 344.287C319.199 344.283 313.907 345.576 309.143 348.056C304.38 350.536 300.288 354.13 297.214 358.531H297.142C294.312 361.406 283.006 387.933 277.383 409.155C275.578 414.488 274.529 420.048 274.265 425.672C274.265 426.154 274.265 426.611 274.192 427.068C274.192 427.561 274.192 428.066 274.192 428.56C274.186 435.052 275.227 441.503 277.275 447.664C281.802 461.92 288.232 468.116 288.232 468.116C293.955 475.046 301.12 480.648 309.23 484.531C317.339 488.414 326.198 490.485 335.19 490.601C352.589 490.733 364.882 485.307 371.203 483.539C377.525 481.77 380.378 484.02 382.341 485.716C384.303 487.413 388.879 492.357 394.237 495.497C398.532 498.129 403.662 499.05 408.606 498.078C413.55 497.106 417.947 494.311 420.924 490.248C423.901 486.186 425.24 481.154 424.674 476.151C424.109 471.148 421.681 466.54 417.872 463.243L417.933 463.328Z" fill="#A7C957"/>
<path opacity="0.1" d="M393.008 487.426C383.893 479.281 399.522 463.365 401.015 460.008C402.303 457.097 402.376 455.786 400.256 451.719C398.149 448.988 397.848 445.596 397.62 442.961C397.391 439.917 396.849 424.747 394.766 418.046C397.764 443.31 371.492 468.129 347.615 475.143C323.365 482.265 296.033 460.273 290.723 451.082C285.414 441.89 281.38 439.617 279.273 440.254C277.527 440.82 275.781 441.518 277.298 447.665C281.825 461.897 288.243 468.117 288.243 468.117C293.966 475.047 301.132 480.649 309.241 484.532C317.351 488.415 326.209 490.486 335.201 490.602C352.6 490.734 364.893 485.308 371.215 483.54C377.536 481.771 380.39 484.021 382.352 485.717C384.315 487.414 388.89 492.358 394.248 495.498C397.288 497.371 400.774 498.4 404.345 498.478C407.915 498.556 411.443 497.681 414.562 495.942C417.681 494.204 420.279 491.665 422.089 488.588C423.898 485.511 424.853 482.008 424.855 478.439C420.256 495.546 402.111 495.57 393.008 487.426Z" fill="black"/>
<path d="M303.728 424.759C300.598 424.759 298.057 422.57 298.057 419.875V407.195C298.057 404.5 300.598 402.382 303.728 402.382C306.859 402.382 309.411 404.56 309.411 407.195V419.875C309.411 422.57 306.871 424.759 303.728 424.759Z" fill="black"/>
<path d="M350.795 425.36C347.665 425.36 345.112 423.171 345.112 420.476V407.796C345.112 405.101 347.665 402.984 350.795 402.984C353.926 402.984 356.479 405.161 356.479 407.796V420.476C356.479 423.171 353.938 425.36 350.795 425.36Z" fill="black"/>
</g>
<path d="M17.4071 446.957C17.9104 447.221 18.5328 447.028 18.7973 446.525L23.1077 438.323C23.3722 437.82 23.1786 437.198 22.6754 436.933C22.1721 436.669 21.5497 436.862 21.2852 437.366L17.4537 444.655L10.1638 440.824C9.66053 440.559 9.03813 440.753 8.77362 441.256C8.50912 441.76 8.70267 442.382 9.20594 442.646L17.4071 446.957ZM18.2819 443.774C18.1251 443.228 17.5551 442.912 17.0085 443.068C16.462 443.225 16.1461 443.795 16.3028 444.342L18.2819 443.774ZM13.565 431.994C13.6551 432.556 14.1832 432.938 14.7446 432.848C15.3059 432.757 15.688 432.229 15.5979 431.668L13.565 431.994ZM15.0228 427.569C14.955 427.005 14.4424 426.602 13.878 426.67C13.3135 426.738 12.9108 427.25 12.9786 427.815L15.0228 427.569ZM12.2674 415.185C12.2611 415.754 12.717 416.219 13.2855 416.226C13.854 416.232 14.3199 415.776 14.3261 415.208L12.2674 415.185ZM14.473 411.086C14.5077 410.518 14.0758 410.03 13.5083 409.996C12.9408 409.961 12.4526 410.393 12.418 410.96L14.473 411.086ZM14.2843 398.401C14.1475 398.953 14.4841 399.511 15.0359 399.648C15.5878 399.784 16.146 399.448 16.2827 398.896L14.2843 398.401ZM17.412 394.957C17.5892 394.417 17.2948 393.835 16.7546 393.658C16.2143 393.481 15.6328 393.775 15.4556 394.316L17.412 394.957ZM20.9571 382.801C20.6427 383.274 20.7719 383.913 21.2456 384.228C21.7193 384.542 22.3581 384.413 22.6725 383.939L20.9571 382.801ZM25.0915 380.672C25.4531 380.233 25.3906 379.584 24.9519 379.222C24.5132 378.861 23.8644 378.923 23.5028 379.362L25.0915 380.672ZM33.1153 370.917C32.6342 371.22 32.4897 371.855 32.7927 372.336C33.0956 372.818 33.7312 372.962 34.2123 372.659L33.1153 370.917ZM37.7567 370.668C38.2655 370.414 38.4721 369.796 38.2183 369.287C37.9644 368.779 37.3463 368.572 36.8375 368.826L37.7567 370.668ZM48.8839 364.677C48.3282 364.797 47.9752 365.345 48.0954 365.901C48.2157 366.456 48.7636 366.809 49.3193 366.689L48.8839 364.677ZM53.364 365.957C53.9265 365.874 54.3152 365.351 54.2323 364.788C54.1494 364.226 53.6262 363.837 53.0637 363.92L53.364 365.957ZM65.6954 363.128C65.1269 363.121 64.6605 363.576 64.6538 364.145C64.647 364.713 65.1024 365.18 65.6709 365.186L65.6954 363.128ZM18.869 445.74C18.6698 445.099 18.4738 444.444 18.2819 443.774L16.3028 444.342C16.4989 445.026 16.6992 445.696 16.903 446.351L18.869 445.74ZM15.5979 431.668C15.382 430.323 15.1892 428.955 15.0228 427.569L12.9786 427.815C13.1483 429.228 13.345 430.623 13.565 431.994L15.5979 431.668ZM14.3261 415.208C14.3411 413.834 14.3891 412.458 14.473 411.086L12.418 410.96C12.3319 412.369 12.2827 413.778 12.2674 415.185L14.3261 415.208ZM16.2827 398.896C16.6126 397.564 16.9881 396.25 17.412 394.957L15.4556 394.316C15.0151 395.659 14.6258 397.022 14.2843 398.401L16.2827 398.896ZM22.6725 383.939C23.42 382.813 24.2253 381.722 25.0915 380.672L23.5028 379.362C22.5901 380.469 21.7427 381.617 20.9571 382.801L22.6725 383.939ZM34.2123 372.659C35.335 371.952 36.5157 371.287 37.7567 370.668L36.8375 368.826C35.5363 369.475 34.2963 370.173 33.1153 370.917L34.2123 372.659ZM49.3193 366.689C50.6216 366.407 51.9694 366.163 53.364 365.957L53.0637 363.92C51.6253 364.132 50.2324 364.385 48.8839 364.677L49.3193 366.689ZM65.6709 365.186C66.3646 365.195 67.0672 365.211 67.7787 365.235L67.8482 363.177C67.1219 363.152 66.4044 363.136 65.6954 363.128L65.6709 365.186Z" fill="#A2A9AE"/>
<path d="M75.9925 370.456C75.7813 370.935 75.7182 371.466 75.8116 371.981C75.9049 372.496 76.1504 372.971 76.5162 373.345L76.6115 373.44C76.9066 373.735 77.1407 374.085 77.3004 374.47C77.4602 374.855 77.5424 375.268 77.5424 375.686C77.5424 376.103 77.4602 376.516 77.3004 376.901C77.1407 377.286 76.9066 377.636 76.6115 377.931C76.3167 378.226 75.9666 378.46 75.5813 378.62C75.196 378.78 74.7829 378.862 74.3658 378.862C73.9487 378.862 73.5357 378.78 73.1503 378.62C72.765 378.46 72.4149 378.226 72.1201 377.931L72.0249 377.836C71.6509 377.47 71.1758 377.225 70.661 377.131C70.1462 377.038 69.6152 377.101 69.1365 377.312C68.6671 377.513 68.2668 377.847 67.9848 378.273C67.7028 378.699 67.5515 379.198 67.5495 379.709V379.978C67.5495 380.82 67.2151 381.628 66.6198 382.223C66.0246 382.818 65.2172 383.153 64.3754 383.153C63.5336 383.153 62.7262 382.818 62.131 382.223C61.5357 381.628 61.2013 380.82 61.2013 379.978V379.836C61.189 379.31 61.019 378.801 60.7133 378.373C60.4077 377.946 59.9805 377.621 59.4873 377.439C59.0086 377.228 58.4777 377.165 57.9628 377.258C57.448 377.352 56.9729 377.597 56.5989 377.963L56.5037 378.058C56.2089 378.353 55.8588 378.587 55.4735 378.747C55.0882 378.907 54.6752 378.989 54.258 378.989C53.8409 378.989 53.4279 378.907 53.0425 378.747C52.6572 378.587 52.3072 378.353 52.0124 378.058C51.7173 377.763 51.4831 377.413 51.3234 377.028C51.1637 376.643 51.0815 376.23 51.0815 375.812C51.0815 375.395 51.1637 374.982 51.3234 374.597C51.4831 374.212 51.7173 373.862 52.0124 373.567L52.1076 373.472C52.4735 373.098 52.7189 372.622 52.8122 372.108C52.9056 371.593 52.8426 371.062 52.6313 370.583C52.4301 370.114 52.0961 369.713 51.6703 369.431C51.2445 369.149 50.7456 368.998 50.2349 368.996H49.9651C49.1233 368.996 48.3159 368.662 47.7207 368.066C47.1254 367.471 46.791 366.664 46.791 365.822C46.791 364.98 47.1254 364.173 47.7207 363.578C48.3159 362.982 49.1233 362.648 49.9651 362.648H50.1079C50.6332 362.636 51.1427 362.466 51.5701 362.16C51.9974 361.854 52.323 361.427 52.5044 360.934C52.7156 360.455 52.7786 359.924 52.6853 359.409C52.5919 358.895 52.3465 358.42 51.9806 358.046L51.8854 357.95C51.5903 357.656 51.3562 357.305 51.1964 356.92C51.0367 356.535 50.9545 356.122 50.9545 355.705C50.9545 355.288 51.0367 354.875 51.1964 354.489C51.3562 354.104 51.5903 353.754 51.8854 353.459C52.1802 353.164 52.5303 352.93 52.9156 352.77C53.3009 352.61 53.7139 352.528 54.1311 352.528C54.5482 352.528 54.9612 352.61 55.3466 352.77C55.7319 352.93 56.0819 353.164 56.3767 353.459L56.472 353.554C56.846 353.92 57.321 354.166 57.8359 354.259C58.3507 354.352 58.8817 354.289 59.3604 354.078H59.4873C59.9567 353.877 60.357 353.543 60.639 353.117C60.921 352.691 61.0723 352.192 61.0744 351.682V351.412C61.0744 350.57 61.4088 349.763 62.004 349.167C62.5993 348.572 63.4066 348.238 64.2484 348.238C65.0903 348.238 65.8976 348.572 66.4929 349.167C67.0881 349.763 67.4225 350.57 67.4225 351.412V351.555C67.4246 352.065 67.5759 352.564 67.8579 352.99C68.1398 353.416 68.5402 353.75 69.0096 353.951C69.4882 354.162 70.0192 354.225 70.534 354.132C71.0489 354.039 71.5239 353.793 71.898 353.427L71.9932 353.332C72.288 353.037 72.638 352.803 73.0234 352.643C73.4087 352.483 73.8217 352.401 74.2388 352.401C74.656 352.401 75.069 352.483 75.4543 352.643C75.8397 352.803 76.1897 353.037 76.4845 353.332C76.7796 353.627 77.0137 353.977 77.1735 354.362C77.3332 354.748 77.4154 355.161 77.4154 355.578C77.4154 355.995 77.3332 356.408 77.1735 356.793C77.0137 357.179 76.7796 357.529 76.4845 357.823L76.3893 357.919C76.0234 358.293 75.778 358.768 75.6846 359.283C75.5913 359.797 75.6543 360.328 75.8656 360.807V360.934C76.0667 361.403 76.4008 361.804 76.8266 362.086C77.2524 362.368 77.7513 362.519 78.262 362.521H78.5318C79.3736 362.521 80.1809 362.855 80.7762 363.451C81.3715 364.046 81.7059 364.853 81.7059 365.695C81.7059 366.537 81.3715 367.344 80.7762 367.94C80.1809 368.535 79.3736 368.869 78.5318 368.869H78.389C77.8783 368.871 77.3793 369.023 76.9535 369.305C76.5277 369.586 76.1937 369.987 75.9925 370.456V370.456Z" fill="#EC7D10"/>
<path d="M64.2484 370.456C66.8779 370.456 69.0095 368.324 69.0095 365.694C69.0095 363.065 66.8779 360.933 64.2484 360.933C61.6189 360.933 59.4873 363.065 59.4873 365.694C59.4873 368.324 61.6189 370.456 64.2484 370.456Z" fill="white"/>
<defs>
<clipPath id="clip0_1386:4598">
<rect width="150.712" height="154.266" fill="white" transform="translate(274.192 344.311)"/>
</clipPath>
</defs>
</svg>
