<svg xmlns="http://www.w3.org/2000/svg" viewBox="0 0 637.3 123.92"><defs><style>.a,.d{opacity:0.15;}.a{font-size:9.04px;}.a,.d,.h,.m{fill:#231f20;}.a,.c,.d,.f,.j,.l,.m{font-family:Overpass-Bold, Overpass;font-weight:700;}.b,.e,.i,.k{fill:none;stroke-miterlimit:10;}.b{stroke:#3578ff;stroke-width:3.2px;}.c{font-size:25.32px;fill:#3578ff;}.d,.m{font-size:10px;}.e{stroke:#eba434;stroke-width:2.22px;}.f,.j{font-size:32px;}.f{fill:#eba434;}.g{opacity:0.1;}.i{stroke:#4e6178;}.i,.k{stroke-width:3px;}.j{fill:#4e6178;}.k{stroke:#00a69c;}.l{font-size:28px;fill:#00a69c;}</style></defs><title>data-dataset-structure-query</title><text class="a" transform="translate(342.41 18.38) scale(1.11 1)">title: Super Fly Dataset<tspan x="0" y="10.85">length: 22345789</tspan><tspan x="0" y="21.7">keywords: foo,bar,baz</tspan><tspan x="0" y="32.55">category: climate science,</tspan></text><rect class="b" x="333.13" y="1.6" width="137.18" height="120.71"/><text class="c" transform="translate(350.21 68.87) scale(1.11 1)">Dataset</text><text class="d" transform="translate(505.32 18.1)">SELECT a.col_0, a.col_1<tspan x="0" y="12">FROM a</tspan><tspan x="0" y="24">WHERE a.col_0 &gt; 100</tspan><tspan x="0" y="36">LIMIT 0,10;</tspan></text><rect class="e" x="498.73" y="1.6" width="137.47" height="120.71"/><text class="f" transform="translate(520.47 71.6)">Query</text><g class="g"><path class="h" d="M112.74,43.67H89.41a5,5,0,0,1,0-10h23.33a5,5,0,0,1,0,10Z" transform="translate(-77.15 -23.71)"/><path class="h" d="M154.07,43.67H125.74a5,5,0,0,1,0-10h28.33a5,5,0,0,1,0,10Z" transform="translate(-77.15 -23.71)"/><path class="h" d="M206.41,43.67H168.07a5,5,0,0,1,0-10h38.33a5,5,0,0,1,0,10Z" transform="translate(-77.15 -23.71)"/><path class="h" d="M112.74,59.33H89.41a5,5,0,0,1,0-10h23.33a5,5,0,0,1,0,10Z" transform="translate(-77.15 -23.71)"/><path class="h" d="M154.07,59.33H125.74a5,5,0,0,1,0-10h28.33a5,5,0,0,1,0,10Z" transform="translate(-77.15 -23.71)"/><path class="h" d="M206.41,59.33H168.07a5,5,0,0,1,0-10h38.33a5,5,0,0,1,0,10Z" transform="translate(-77.15 -23.71)"/><path class="h" d="M112.74,75H89.41a5,5,0,0,1,0-10h23.33a5,5,0,0,1,0,10Z" transform="translate(-77.15 -23.71)"/><path class="h" d="M154.07,75H125.74a5,5,0,0,1,0-10h28.33a5,5,0,0,1,0,10Z" transform="translate(-77.15 -23.71)"/><path class="h" d="M206.41,75H168.07a5,5,0,0,1,0-10h38.33a5,5,0,0,1,0,10Z" transform="translate(-77.15 -23.71)"/><path class="h" d="M112.74,90.67H89.41a5,5,0,0,1,0-10h23.33a5,5,0,0,1,0,10Z" transform="translate(-77.15 -23.71)"/><path class="h" d="M154.07,90.67H125.74a5,5,0,0,1,0-10h28.33a5,5,0,0,1,0,10Z" transform="translate(-77.15 -23.71)"/><path class="h" d="M206.41,90.67H168.07a5,5,0,0,1,0-10h38.33a5,5,0,0,1,0,10Z" transform="translate(-77.15 -23.71)"/><path class="h" d="M112.74,106.33H89.41a5,5,0,0,1,0-10h23.33a5,5,0,0,1,0,10Z" transform="translate(-77.15 -23.71)"/><path class="h" d="M154.07,106.33H125.74a5,5,0,0,1,0-10h28.33a5,5,0,0,1,0,10Z" transform="translate(-77.15 -23.71)"/><path class="h" d="M206.41,106.33H168.07a5,5,0,0,1,0-10h38.33a5,5,0,0,1,0,10Z" transform="translate(-77.15 -23.71)"/><path class="h" d="M112.74,122H89.41a5,5,0,0,1,0-10h23.33a5,5,0,0,1,0,10Z" transform="translate(-77.15 -23.71)"/><path class="h" d="M154.07,122H125.74a5,5,0,0,1,0-10h28.33a5,5,0,0,1,0,10Z" transform="translate(-77.15 -23.71)"/><path class="h" d="M206.41,122H168.07a5,5,0,1,1,0-10h38.33a5,5,0,0,1,0,10Z" transform="translate(-77.15 -23.71)"/><path class="h" d="M112.74,137.67H89.41a5,5,0,1,1,0-10h23.33a5,5,0,0,1,0,10Z" transform="translate(-77.15 -23.71)"/><path class="h" d="M154.07,137.67H125.74a5,5,0,1,1,0-10h28.33a5,5,0,0,1,0,10Z" transform="translate(-77.15 -23.71)"/><path class="h" d="M206.41,137.67H168.07a5,5,0,1,1,0-10h38.33a5,5,0,0,1,0,10Z" transform="translate(-77.15 -23.71)"/></g><rect class="i" x="1.5" y="1.6" width="137.47" height="120.71"/><text class="j" transform="translate(33.76 71.6)">Data</text><rect class="k" x="167.24" y="1.6" width="137.47" height="120.71"/><text class="l" transform="translate(171.38 71.6)">Structure</text><g class="g"><path class="h" d="M278.82,141H255.48a5,5,0,0,1,0-10h23.33a5,5,0,0,1,0,10Z" transform="translate(-77.15 -23.71)"/><path class="h" d="M320.15,141H291.82a5,5,0,0,1,0-10h28.33a5,5,0,0,1,0,10Z" transform="translate(-77.15 -23.71)"/><path class="h" d="M372.48,141H334.15a5,5,0,0,1,0-10h38.33a5,5,0,0,1,0,10Z" transform="translate(-77.15 -23.71)"/><text class="m" transform="translate(175.47 101.62)">col_0</text><text class="m" transform="translate(173.33 17.96)">type: csv</text><text class="m" transform="translate(173.33 33.62)">headerRow: true</text><text class="m" transform="translate(212.05 101.62)">col_1</text><text class="m" transform="translate(254.04 101.62)">col_2</text></g></svg>