<svg xmlns="http://www.w3.org/2000/svg" viewBox="0 0 317.93 385.48"><defs><style>.a,.d{fill:none;stroke:#4e6178;stroke-miterlimit:10;}.a{stroke-width:3px;}.b{font-size:32px;font-family:Overpass-Bold, Overpass;font-weight:700;}.b,.e{fill:#4e6178;}.c{fill:#e6e6e6;}</style></defs><title>deduplicating</title><rect class="a" x="1.5" y="1.99" width="137.47" height="316.36"/><text class="b" transform="translate(15.57 36.27)">Data_1</text><text class="b" transform="translate(193.31 36.27)">Data_2</text><path class="c" d="M323.16,175.48H303.27a4.26,4.26,0,1,1,0-8.52h19.89a4.26,4.26,0,1,1,0,8.52Z" transform="translate(-283.37 -108.96)"/><path class="c" d="M358.39,175.48H334.24a4.26,4.26,0,1,1,0-8.52h24.15a4.26,4.26,0,1,1,0,8.52Z" transform="translate(-283.37 -108.96)"/><path class="c" d="M403,175.48H370.32a4.26,4.26,0,1,1,0-8.52H403a4.26,4.26,0,0,1,0,8.52Z" transform="translate(-283.37 -108.96)"/><path class="c" d="M323.16,188.84H303.27a4.26,4.26,0,1,1,0-8.52h19.89a4.26,4.26,0,1,1,0,8.52Z" transform="translate(-283.37 -108.96)"/><path class="c" d="M358.39,188.84H334.24a4.26,4.26,0,1,1,0-8.52h24.15a4.26,4.26,0,1,1,0,8.52Z" transform="translate(-283.37 -108.96)"/><path class="c" d="M403,188.84H370.32a4.26,4.26,0,1,1,0-8.52H403a4.26,4.26,0,0,1,0,8.52Z" transform="translate(-283.37 -108.96)"/><path class="c" d="M323.16,202.19H303.27a4.26,4.26,0,1,1,0-8.52h19.89a4.26,4.26,0,1,1,0,8.52Z" transform="translate(-283.37 -108.96)"/><path class="c" d="M358.39,202.19H334.24a4.26,4.26,0,1,1,0-8.52h24.15a4.26,4.26,0,1,1,0,8.52Z" transform="translate(-283.37 -108.96)"/><path class="c" d="M403,202.19H370.32a4.26,4.26,0,1,1,0-8.52H403a4.26,4.26,0,0,1,0,8.52Z" transform="translate(-283.37 -108.96)"/><path class="c" d="M323.16,215.54H303.27a4.26,4.26,0,1,1,0-8.52h19.89a4.26,4.26,0,1,1,0,8.52Z" transform="translate(-283.37 -108.96)"/><path class="c" d="M358.39,215.54H334.24a4.26,4.26,0,1,1,0-8.52h24.15a4.26,4.26,0,1,1,0,8.52Z" transform="translate(-283.37 -108.96)"/><path class="c" d="M403,215.54H370.32a4.26,4.26,0,1,1,0-8.52H403a4.26,4.26,0,0,1,0,8.52Z" transform="translate(-283.37 -108.96)"/><rect class="d" x="11.11" y="53.3" width="117.17" height="57.52"/><path class="c" d="M323.16,241.93H303.27a4.26,4.26,0,1,1,0-8.52h19.89a4.26,4.26,0,1,1,0,8.52Z" transform="translate(-283.37 -108.96)"/><path class="c" d="M358.39,241.93H334.24a4.26,4.26,0,1,1,0-8.52h24.15a4.26,4.26,0,1,1,0,8.52Z" transform="translate(-283.37 -108.96)"/><path class="c" d="M403,241.93H370.32a4.26,4.26,0,1,1,0-8.52H403a4.26,4.26,0,0,1,0,8.52Z" transform="translate(-283.37 -108.96)"/><path class="c" d="M323.16,255.28H303.27a4.26,4.26,0,1,1,0-8.52h19.89a4.26,4.26,0,1,1,0,8.52Z" transform="translate(-283.37 -108.96)"/><path class="c" d="M358.39,255.28H334.24a4.26,4.26,0,1,1,0-8.52h24.15a4.26,4.26,0,1,1,0,8.52Z" transform="translate(-283.37 -108.96)"/><path class="c" d="M403,255.28H370.32a4.26,4.26,0,1,1,0-8.52H403a4.26,4.26,0,0,1,0,8.52Z" transform="translate(-283.37 -108.96)"/><path class="c" d="M323.16,268.64H303.27a4.26,4.26,0,1,1,0-8.52h19.89a4.26,4.26,0,1,1,0,8.52Z" transform="translate(-283.37 -108.96)"/><path class="c" d="M358.39,268.64H334.24a4.26,4.26,0,1,1,0-8.52h24.15a4.26,4.26,0,1,1,0,8.52Z" transform="translate(-283.37 -108.96)"/><path class="c" d="M403,268.64H370.32a4.26,4.26,0,1,1,0-8.52H403a4.26,4.26,0,0,1,0,8.52Z" transform="translate(-283.37 -108.96)"/><path class="c" d="M323.16,282H303.27a4.26,4.26,0,0,1,0-8.52h19.89a4.26,4.26,0,0,1,0,8.52Z" transform="translate(-283.37 -108.96)"/><path class="c" d="M358.39,282H334.24a4.26,4.26,0,1,1,0-8.52h24.15a4.26,4.26,0,0,1,0,8.52Z" transform="translate(-283.37 -108.96)"/><path class="c" d="M403,282H370.32a4.26,4.26,0,0,1,0-8.52H403a4.26,4.26,0,0,1,0,8.52Z" transform="translate(-283.37 -108.96)"/><rect class="d" x="11.11" y="119.75" width="117.17" height="57.52"/><path class="c" d="M323.84,308.1H304a4.26,4.26,0,0,1,0-8.52h19.89a4.26,4.26,0,0,1,0,8.52Z" transform="translate(-283.37 -108.96)"/><path class="c" d="M359.07,308.1H334.92a4.26,4.26,0,0,1,0-8.52h24.15a4.26,4.26,0,1,1,0,8.52Z" transform="translate(-283.37 -108.96)"/><path class="c" d="M403.68,308.1H371a4.26,4.26,0,1,1,0-8.52h32.67a4.26,4.26,0,1,1,0,8.52Z" transform="translate(-283.37 -108.96)"/><path class="c" d="M323.84,321.45H304a4.26,4.26,0,0,1,0-8.52h19.89a4.26,4.26,0,0,1,0,8.52Z" transform="translate(-283.37 -108.96)"/><path class="c" d="M359.07,321.45H334.92a4.26,4.26,0,0,1,0-8.52h24.15a4.26,4.26,0,1,1,0,8.52Z" transform="translate(-283.37 -108.96)"/><path class="c" d="M403.68,321.45H371a4.26,4.26,0,1,1,0-8.52h32.67a4.26,4.26,0,1,1,0,8.52Z" transform="translate(-283.37 -108.96)"/><path class="c" d="M323.84,334.8H304a4.26,4.26,0,0,1,0-8.52h19.89a4.26,4.26,0,0,1,0,8.52Z" transform="translate(-283.37 -108.96)"/><path class="c" d="M359.07,334.8H334.92a4.26,4.26,0,0,1,0-8.52h24.15a4.26,4.26,0,1,1,0,8.52Z" transform="translate(-283.37 -108.96)"/><path class="c" d="M403.68,334.8H371a4.26,4.26,0,1,1,0-8.52h32.67a4.26,4.26,0,1,1,0,8.52Z" transform="translate(-283.37 -108.96)"/><path class="c" d="M323.84,348.16H304a4.26,4.26,0,0,1,0-8.52h19.89a4.26,4.26,0,0,1,0,8.52Z" transform="translate(-283.37 -108.96)"/><path class="c" d="M359.07,348.16H334.92a4.26,4.26,0,0,1,0-8.52h24.15a4.26,4.26,0,1,1,0,8.52Z" transform="translate(-283.37 -108.96)"/><path class="c" d="M403.68,348.16H371a4.26,4.26,0,1,1,0-8.52h32.67a4.26,4.26,0,1,1,0,8.52Z" transform="translate(-283.37 -108.96)"/><rect class="d" x="11.79" y="185.92" width="117.17" height="57.52"/><path class="c" d="M323.84,374.27H304a4.26,4.26,0,0,1,0-8.52h19.89a4.26,4.26,0,0,1,0,8.52Z" transform="translate(-283.37 -108.96)"/><path class="c" d="M359.07,374.27H334.92a4.26,4.26,0,0,1,0-8.52h24.15a4.26,4.26,0,1,1,0,8.52Z" transform="translate(-283.37 -108.96)"/><path class="c" d="M403.68,374.27H371a4.26,4.26,0,1,1,0-8.52h32.67a4.26,4.26,0,1,1,0,8.52Z" transform="translate(-283.37 -108.96)"/><path class="c" d="M323.84,387.62H304a4.26,4.26,0,0,1,0-8.52h19.89a4.26,4.26,0,0,1,0,8.52Z" transform="translate(-283.37 -108.96)"/><path class="c" d="M359.07,387.62H334.92a4.26,4.26,0,0,1,0-8.52h24.15a4.26,4.26,0,1,1,0,8.52Z" transform="translate(-283.37 -108.96)"/><path class="c" d="M403.68,387.62H371a4.26,4.26,0,1,1,0-8.52h32.67a4.26,4.26,0,1,1,0,8.52Z" transform="translate(-283.37 -108.96)"/><path class="c" d="M323.84,401H304a4.26,4.26,0,0,1,0-8.52h19.89a4.26,4.26,0,0,1,0,8.52Z" transform="translate(-283.37 -108.96)"/><path class="c" d="M359.07,401H334.92a4.26,4.26,0,0,1,0-8.52h24.15a4.26,4.26,0,1,1,0,8.52Z" transform="translate(-283.37 -108.96)"/><path class="c" d="M403.68,401H371a4.26,4.26,0,1,1,0-8.52h32.67a4.26,4.26,0,1,1,0,8.52Z" transform="translate(-283.37 -108.96)"/><path class="c" d="M323.84,414.33H304a4.26,4.26,0,0,1,0-8.52h19.89a4.26,4.26,0,0,1,0,8.52Z" transform="translate(-283.37 -108.96)"/><path class="c" d="M359.07,414.33H334.92a4.26,4.26,0,0,1,0-8.52h24.15a4.26,4.26,0,1,1,0,8.52Z" transform="translate(-283.37 -108.96)"/><path class="c" d="M403.68,414.33H371a4.26,4.26,0,1,1,0-8.52h32.67a4.26,4.26,0,1,1,0,8.52Z" transform="translate(-283.37 -108.96)"/><rect class="d" x="11.79" y="252.09" width="117.17" height="57.52"/><rect class="a" x="178.97" y="1.5" width="137.47" height="382.48"/><path class="c" d="M501.17,438.53H481.28a4.26,4.26,0,0,1,0-8.52h19.89a4.26,4.26,0,0,1,0,8.52Z" transform="translate(-283.37 -108.96)"/><path class="c" d="M536.4,438.53H512.25a4.26,4.26,0,0,1,0-8.52H536.4a4.26,4.26,0,1,1,0,8.52Z" transform="translate(-283.37 -108.96)"/><path class="c" d="M581,438.53H548.33a4.26,4.26,0,1,1,0-8.52H581a4.26,4.26,0,1,1,0,8.52Z" transform="translate(-283.37 -108.96)"/><path class="c" d="M501.17,451.88H481.28a4.26,4.26,0,0,1,0-8.52h19.89a4.26,4.26,0,0,1,0,8.52Z" transform="translate(-283.37 -108.96)"/><path class="c" d="M536.4,451.88H512.25a4.26,4.26,0,0,1,0-8.52H536.4a4.26,4.26,0,1,1,0,8.52Z" transform="translate(-283.37 -108.96)"/><path class="c" d="M581,451.88H548.33a4.26,4.26,0,1,1,0-8.52H581a4.26,4.26,0,1,1,0,8.52Z" transform="translate(-283.37 -108.96)"/><path class="c" d="M501.17,465.23H481.28a4.26,4.26,0,0,1,0-8.52h19.89a4.26,4.26,0,0,1,0,8.52Z" transform="translate(-283.37 -108.96)"/><path class="c" d="M536.4,465.23H512.25a4.26,4.26,0,0,1,0-8.52H536.4a4.26,4.26,0,1,1,0,8.52Z" transform="translate(-283.37 -108.96)"/><path class="c" d="M581,465.23H548.33a4.26,4.26,0,1,1,0-8.52H581a4.26,4.26,0,1,1,0,8.52Z" transform="translate(-283.37 -108.96)"/><path class="c" d="M501.17,478.59H481.28a4.26,4.26,0,0,1,0-8.52h19.89a4.26,4.26,0,0,1,0,8.52Z" transform="translate(-283.37 -108.96)"/><path class="c" d="M536.4,478.59H512.25a4.26,4.26,0,0,1,0-8.52H536.4a4.26,4.26,0,1,1,0,8.52Z" transform="translate(-283.37 -108.96)"/><path class="c" d="M581,478.59H548.33a4.26,4.26,0,1,1,0-8.52H581a4.26,4.26,0,1,1,0,8.52Z" transform="translate(-283.37 -108.96)"/><rect class="d" x="189.11" y="316.35" width="117.17" height="57.52"/><line class="d" x1="127.75" y1="82.06" x2="247.76" y2="82.06"/><circle class="e" cx="247.76" cy="82.06" r="2.24"/><line class="d" x1="127.75" y1="149.25" x2="248.08" y2="149.25"/><circle class="e" cx="248.08" cy="149.25" r="2.24"/><line class="d" x1="128.96" y1="214.68" x2="248.76" y2="214.68"/><circle class="e" cx="248.76" cy="214.68" r="2.23"/><line class="d" x1="128.96" y1="280.84" x2="248.97" y2="280.84"/><circle class="e" cx="248.97" cy="280.84" r="2.24"/></svg>