<svg xmlns="http://www.w3.org/2000/svg" viewBox="0 0 662.58 341.82"><defs><style>.a,.f{fill:none;stroke:#4e6178;stroke-miterlimit:10;}.a{stroke-width:3px;}.b{font-size:19.5px;fill:#4e6178;font-family:Overpass-Bold, Overpass;font-weight:700;}.c{letter-spacing:-0.06em;}.d{letter-spacing:0em;}.e{fill:#647589;}.f{stroke-width:0.75px;}</style></defs><title>merkle</title><rect class="a" x="326.09" y="1.5" width="140.93" height="65.56"/><text class="b" transform="translate(334.12 41.39)">Qmwa...4<tspan class="c" x="84.1" y="0">n</tspan><tspan class="d" x="94.55" y="0">Vz</tspan></text><rect class="a" x="1.5" y="118.21" width="140.93" height="65.56"/><text class="b" transform="translate(12.46 158.1)">Qmxc...6nvz</text><rect class="a" x="221.03" y="118.21" width="140.93" height="65.56"/><text class="b" transform="translate(234.21 158.1)">Qmhf...kaoL</text><rect class="a" x="434.64" y="118.21" width="140.93" height="65.56"/><text class="b" transform="translate(444.5 158.1)">Qm21...MtQe</text><rect class="a" x="354.47" y="245.14" width="140.93" height="65.56"/><text class="b" transform="translate(371.06 285.03)">Qm89...ltdf</text><rect class="a" x="520.15" y="245.14" width="140.93" height="65.56"/><text class="b" transform="translate(527.06 285.03)">Qmwa...MoA1</text><polygon class="e" points="71.57 34.28 71.57 112.51 68.68 112.51 71.97 118.21 75.25 112.51 72.36 112.51 72.36 34.28 71.57 34.28"/><line class="f" x1="326.09" y1="34.28" x2="71.97" y2="34.28"/><polygon class="e" points="291.1 41.79 291.1 111.21 288.2 111.21 291.49 116.91 294.78 111.21 291.89 111.21 291.89 41.79 291.1 41.79"/><line class="f" x1="326.09" y1="41.39" x2="291.49" y2="41.39"/><polygon class="e" points="504.71 42.39 504.71 111.82 501.81 111.82 505.1 117.51 508.39 111.82 505.5 111.82 505.5 42.39 504.71 42.39"/><line class="f" x1="505.1" y1="42.39" x2="468.18" y2="42.39"/><polygon class="e" points="602.7 25.39 602.7 238.35 599.81 238.35 603.1 244.04 606.38 238.35 603.49 238.35 603.49 25.39 602.7 25.39"/><line class="f" x1="603.1" y1="25.39" x2="468.18" y2="25.39"/><polygon class="e" points="424.54 203.98 424.54 238.5 421.65 238.5 424.94 244.19 428.23 238.5 425.33 238.5 425.33 203.98 424.54 203.98"/><line class="f" x1="461.86" y1="203.98" x2="424.94" y2="203.98"/><polygon class="e" points="558.61 203.98 558.61 238.5 555.72 238.5 559.01 244.19 562.3 238.5 559.4 238.5 559.4 203.98 558.61 203.98"/><line class="f" x1="559.01" y1="203.98" x2="522.08" y2="203.98"/><line class="f" x1="461.86" y1="183.77" x2="461.86" y2="203.98"/><line class="f" x1="522.08" y1="183.77" x2="522.08" y2="203.98"/><polygon class="e" points="214.37 205.29 214.37 239.8 211.47 239.8 214.76 245.5 218.05 239.8 215.16 239.8 215.16 205.29 214.37 205.29"/><line class="f" x1="251.69" y1="205.29" x2="214.76" y2="205.29"/><line class="f" x1="251.69" y1="185.08" x2="251.69" y2="205.29"/><polygon class="e" points="246.38 220.14 246.38 254.65 243.49 254.65 246.78 260.35 250.07 254.65 247.18 254.65 247.18 220.14 246.38 220.14"/><line class="f" x1="283.71" y1="220.14" x2="246.78" y2="220.14"/><line class="f" x1="283.71" y1="183.77" x2="283.71" y2="220.14"/><polygon class="e" points="270.81 220.14 270.81 296.48 267.92 296.48 271.21 302.17 274.5 296.48 271.61 296.48 271.61 220.14 270.81 220.14"/><line class="f" x1="320.54" y1="220.14" x2="283.62" y2="220.14"/><polygon class="e" points="296.23 220.14 296.23 320.52 293.34 320.52 296.63 326.21 299.91 320.52 297.02 320.52 297.02 220.14 296.23 220.14"/><polygon class="e" points="320.15 220.14 320.15 336.13 317.26 336.13 320.54 341.82 323.83 336.13 320.94 336.13 320.94 220.14 320.15 220.14"/></svg>